G04*
G04 #@! TF.GenerationSoftware,Altium Limited,Altium Designer,24.6.1 (21)*
G04*
G04 Layer_Color=65535*
%FSLAX44Y44*%
%MOMM*%
G71*
G04*
G04 #@! TF.SameCoordinates,378F9F08-6654-43F8-BCBF-B2BEE8DC63DC*
G04*
G04*
G04 #@! TF.FilePolarity,Positive*
G04*
G01*
G75*
%ADD10C,0.2500*%
%ADD11C,0.6000*%
%ADD12C,0.2000*%
%ADD13C,0.1000*%
%ADD14C,0.1500*%
%ADD15C,0.1270*%
G36*
X122070Y333030D02*
X102930D01*
Y346970D01*
X122070D01*
Y333030D01*
D02*
G37*
G36*
X98514Y332934D02*
X66486D01*
Y347066D01*
X98514D01*
Y332934D01*
D02*
G37*
G36*
X68764Y291475D02*
X41236D01*
Y308525D01*
X68764D01*
Y291475D01*
D02*
G37*
G36*
X205495Y333030D02*
X179505D01*
Y346970D01*
X205495D01*
Y333030D01*
D02*
G37*
G36*
X175495D02*
X149505D01*
Y346970D01*
X175495D01*
Y333030D01*
D02*
G37*
G36*
X485000Y57500D02*
X448312D01*
Y73313D01*
X485000D01*
Y57500D01*
D02*
G37*
G36*
X144257Y333030D02*
X125743D01*
Y346970D01*
X144257D01*
Y333030D01*
D02*
G37*
G36*
X428125Y20662D02*
X395875D01*
Y37338D01*
X428125D01*
Y20662D01*
D02*
G37*
G36*
X236154Y344660D02*
Y338183D01*
X236140Y338475D01*
X236084Y338752D01*
X236015Y338988D01*
X235932Y339196D01*
X235835Y339362D01*
X235765Y339487D01*
X235710Y339570D01*
X235696Y339598D01*
X235515Y339806D01*
X235308Y339986D01*
X235100Y340139D01*
X234891Y340250D01*
X234711Y340333D01*
X234573Y340402D01*
X234517Y340416D01*
X234475Y340430D01*
X234448Y340444D01*
X234434D01*
X234656Y340569D01*
X234836Y340693D01*
X235002Y340832D01*
X235127Y340957D01*
X235224Y341068D01*
X235308Y341151D01*
X235349Y341207D01*
X235363Y341234D01*
X235474Y341415D01*
X235557Y341609D01*
X235613Y341789D01*
X235654Y341955D01*
X235682Y342108D01*
X235696Y342219D01*
Y342288D01*
Y342316D01*
X235682Y342496D01*
X235668Y342663D01*
X235585Y342982D01*
X235460Y343259D01*
X235321Y343495D01*
X235183Y343703D01*
X235058Y343842D01*
X235016Y343897D01*
X234975Y343939D01*
X234961Y343952D01*
X234947Y343966D01*
X234808Y344091D01*
X234656Y344202D01*
X234503Y344285D01*
X234351Y344369D01*
X234046Y344493D01*
X233768Y344577D01*
X233519Y344618D01*
X233407Y344646D01*
X233310D01*
X233241Y344660D01*
X233130D01*
X232908Y344646D01*
X232686Y344618D01*
X232478Y344577D01*
X232298Y344535D01*
X231938Y344396D01*
X231785Y344313D01*
X231646Y344244D01*
X231521Y344160D01*
X231411Y344077D01*
X231313Y344008D01*
X231230Y343952D01*
X231175Y343897D01*
X231133Y343855D01*
X231105Y343828D01*
X231091Y343814D01*
X230897Y343578D01*
X230745Y343315D01*
X230620Y343051D01*
X230537Y342801D01*
X230467Y342579D01*
X230440Y342496D01*
X230426Y342413D01*
X230412Y342344D01*
X230398Y342288D01*
Y342261D01*
Y342247D01*
X232021D01*
X232062Y342371D01*
X232118Y342482D01*
X232187Y342579D01*
X232256Y342663D01*
X232312Y342732D01*
X232367Y342774D01*
X232395Y342801D01*
X232409Y342815D01*
X232520Y342885D01*
X232645Y342940D01*
X232756Y342982D01*
X232853Y343009D01*
X232950Y343023D01*
X233019Y343037D01*
X233075D01*
X233227Y343023D01*
X233352Y342996D01*
X233463Y342954D01*
X233560Y342912D01*
X233643Y342871D01*
X233699Y342829D01*
X233727Y342801D01*
X233740Y342788D01*
X233824Y342691D01*
X233893Y342593D01*
X233934Y342496D01*
X233976Y342399D01*
X233990Y342316D01*
X234004Y342247D01*
Y342205D01*
Y342191D01*
Y342094D01*
X233976Y341997D01*
X233921Y341831D01*
X233893Y341761D01*
X233865Y341706D01*
X233851Y341678D01*
X233837Y341664D01*
X233699Y341498D01*
X233546Y341373D01*
X233477Y341331D01*
X233421Y341304D01*
X233380Y341276D01*
X233366D01*
X233241Y341234D01*
X233102Y341193D01*
X232950Y341165D01*
X232797Y341137D01*
X232673Y341123D01*
X232561Y341110D01*
X232492Y341096D01*
X232465D01*
Y339653D01*
X232811Y339626D01*
X233102Y339584D01*
X233366Y339515D01*
X233574Y339431D01*
X233740Y339362D01*
X233865Y339293D01*
X233934Y339237D01*
X233962Y339223D01*
X234142Y339057D01*
X234267Y338890D01*
X234364Y338710D01*
X234420Y338558D01*
X234461Y338419D01*
X234475Y338294D01*
X234489Y338225D01*
Y338211D01*
Y338197D01*
X234475Y338003D01*
X234434Y337823D01*
X234364Y337656D01*
X234295Y337531D01*
X234226Y337421D01*
X234156Y337337D01*
X234115Y337282D01*
X234101Y337268D01*
X233948Y337143D01*
X233782Y337046D01*
X233615Y336991D01*
X233463Y336935D01*
X233324Y336907D01*
X233213Y336894D01*
X233116D01*
X232922Y336907D01*
X232742Y336949D01*
X232575Y337004D01*
X232451Y337060D01*
X232340Y337115D01*
X232256Y337171D01*
X232201Y337212D01*
X232187Y337226D01*
X232062Y337365D01*
X231951Y337531D01*
X231868Y337698D01*
X231813Y337864D01*
X231771Y338017D01*
X231743Y338142D01*
X231716Y338225D01*
Y338239D01*
Y338253D01*
X230037D01*
X230065Y338003D01*
X230093Y337767D01*
X230148Y337545D01*
X230204Y337351D01*
X230273Y337157D01*
X230343Y336977D01*
X230426Y336824D01*
X230495Y336672D01*
X230578Y336547D01*
X230648Y336436D01*
X230717Y336339D01*
X230786Y336255D01*
X230842Y336200D01*
X230884Y336158D01*
X230897Y336131D01*
X230911Y336117D01*
X231064Y335978D01*
X231244Y335867D01*
X231411Y335756D01*
X231591Y335673D01*
X231938Y335534D01*
X232270Y335437D01*
X232423Y335410D01*
X232561Y335382D01*
X232700Y335368D01*
X232811Y335354D01*
X232894Y335340D01*
X233019D01*
X233269Y335354D01*
X233505Y335382D01*
X233740Y335410D01*
X233948Y335465D01*
X234142Y335534D01*
X234337Y335604D01*
X234503Y335673D01*
X234656Y335756D01*
X234794Y335826D01*
X234919Y335895D01*
X235016Y335964D01*
X235113Y336034D01*
X235183Y336089D01*
X235224Y336117D01*
X235252Y336145D01*
X235266Y336158D01*
X235418Y336325D01*
X235557Y336491D01*
X235682Y336658D01*
X235779Y336824D01*
X235862Y336991D01*
X235932Y337171D01*
X236042Y337490D01*
X236084Y337629D01*
X236112Y337767D01*
X236126Y337878D01*
X236140Y337989D01*
X236154Y338072D01*
Y335340D01*
Y333030D01*
X208847D01*
Y336991D01*
Y339251D01*
X211107D01*
Y336991D01*
X212619D01*
Y339251D01*
X214879D01*
Y340763D01*
X212619D01*
Y343023D01*
X211107D01*
Y340763D01*
X208847D01*
Y343023D01*
Y346970D01*
X236154D01*
Y344660D01*
D02*
G37*
G36*
X228363Y11945D02*
X181637D01*
Y30055D01*
X228363D01*
Y11945D01*
D02*
G37*
G36*
X57783Y226322D02*
X27217D01*
Y243678D01*
X57783D01*
Y226322D01*
D02*
G37*
%LPC*%
G36*
X119434Y344438D02*
X117507D01*
X115648Y341581D01*
X113776Y344438D01*
X111862D01*
X114691Y340111D01*
X111696Y335562D01*
X113610D01*
X115648Y338655D01*
X117673Y335562D01*
X119587D01*
X116605Y340111D01*
X119434Y344438D01*
D02*
G37*
G36*
X107438D02*
X105413D01*
Y335562D01*
X107091D01*
Y339320D01*
X107244D01*
X109255Y335562D01*
X111099D01*
X108991Y339501D01*
X109283Y339626D01*
X109546Y339764D01*
X109768Y339917D01*
X109934Y340056D01*
X110073Y340194D01*
X110170Y340291D01*
X110239Y340361D01*
X110253Y340388D01*
X110392Y340624D01*
X110503Y340874D01*
X110572Y341110D01*
X110628Y341345D01*
X110655Y341553D01*
X110683Y341720D01*
Y341775D01*
Y341817D01*
Y341844D01*
Y341858D01*
X110669Y342164D01*
X110628Y342441D01*
X110558Y342677D01*
X110489Y342898D01*
X110420Y343065D01*
X110350Y343190D01*
X110309Y343273D01*
X110295Y343301D01*
X110142Y343509D01*
X109976Y343689D01*
X109810Y343842D01*
X109657Y343966D01*
X109518Y344063D01*
X109394Y344119D01*
X109324Y344160D01*
X109310Y344174D01*
X109296D01*
X109172Y344216D01*
X109033Y344258D01*
X108700Y344327D01*
X108353Y344369D01*
X108020Y344410D01*
X107854D01*
X107702Y344424D01*
X107563D01*
X107438Y344438D01*
D02*
G37*
%LPD*%
G36*
X107979Y342774D02*
X108145Y342760D01*
X108270Y342746D01*
X108367Y342718D01*
X108423Y342704D01*
X108464Y342691D01*
X108478D01*
X108659Y342593D01*
X108783Y342496D01*
X108867Y342413D01*
X108894Y342385D01*
Y342371D01*
X108950Y342288D01*
X108977Y342205D01*
X109033Y342039D01*
Y341969D01*
X109047Y341928D01*
Y341886D01*
Y341872D01*
X109033Y341706D01*
X108991Y341553D01*
X108950Y341442D01*
X108894Y341345D01*
X108825Y341276D01*
X108783Y341220D01*
X108742Y341193D01*
X108728Y341179D01*
X108589Y341110D01*
X108423Y341054D01*
X108242Y341026D01*
X108062Y340998D01*
X107896Y340985D01*
X107743Y340971D01*
X107091D01*
Y342788D01*
X107785D01*
X107979Y342774D01*
D02*
G37*
%LPC*%
G36*
X73971Y344660D02*
X73777D01*
X73375Y344646D01*
X72986Y344590D01*
X72626Y344521D01*
X72279Y344424D01*
X71960Y344299D01*
X71655Y344174D01*
X71391Y344022D01*
X71142Y343883D01*
X70920Y343745D01*
X70726Y343592D01*
X70559Y343467D01*
X70421Y343356D01*
X70310Y343245D01*
X70240Y343176D01*
X70185Y343120D01*
X70171Y343106D01*
X69963Y342857D01*
X69797Y342607D01*
X69644Y342344D01*
X69505Y342080D01*
X69394Y341817D01*
X69297Y341567D01*
X69228Y341317D01*
X69159Y341082D01*
X69117Y340874D01*
X69075Y340666D01*
X69061Y340485D01*
X69034Y340333D01*
Y340208D01*
X69020Y340125D01*
Y340042D01*
X69034Y339806D01*
X69048Y339570D01*
X69117Y339126D01*
X69214Y338710D01*
X69269Y338530D01*
X69339Y338363D01*
X69394Y338197D01*
X69450Y338058D01*
X69505Y337934D01*
X69547Y337836D01*
X69588Y337753D01*
X69616Y337698D01*
X69644Y337656D01*
Y337642D01*
X69894Y337254D01*
X70171Y336907D01*
X70462Y336616D01*
X70726Y336380D01*
X70975Y336186D01*
X71086Y336103D01*
X71170Y336048D01*
X71253Y336006D01*
X71308Y335964D01*
X71336Y335950D01*
X71350Y335937D01*
X71558Y335826D01*
X71766Y335742D01*
X72196Y335590D01*
X72612Y335493D01*
X73000Y335410D01*
X73167Y335396D01*
X73333Y335368D01*
X73472Y335354D01*
X73583D01*
X73680Y335340D01*
X73818D01*
X74290Y335368D01*
X74720Y335423D01*
X75094Y335507D01*
X75275Y335562D01*
X75427Y335618D01*
X75566Y335659D01*
X75691Y335715D01*
X75802Y335756D01*
X75899Y335798D01*
X75968Y335826D01*
X76023Y335853D01*
X76051Y335881D01*
X76065D01*
X76412Y336103D01*
X76717Y336367D01*
X76994Y336630D01*
X77216Y336894D01*
X77396Y337115D01*
X77466Y337212D01*
X77521Y337309D01*
X77577Y337379D01*
X77604Y337434D01*
X77632Y337462D01*
Y337476D01*
X77743Y337670D01*
X77840Y337864D01*
X77979Y338266D01*
X78090Y338641D01*
X78173Y338974D01*
X78187Y339126D01*
X78215Y339265D01*
X78229Y339390D01*
Y339501D01*
X78242Y339584D01*
Y339695D01*
X78229Y340069D01*
X73763D01*
Y338488D01*
X76329D01*
X76176Y338211D01*
X76023Y337975D01*
X75857Y337781D01*
X75704Y337615D01*
X75566Y337490D01*
X75455Y337407D01*
X75385Y337351D01*
X75372Y337337D01*
X75358D01*
X75122Y337212D01*
X74872Y337129D01*
X74637Y337060D01*
X74401Y337018D01*
X74193Y336991D01*
X74040Y336977D01*
X73888D01*
X73638Y336991D01*
X73402Y337018D01*
X73180Y337060D01*
X72972Y337115D01*
X72764Y337185D01*
X72584Y337254D01*
X72404Y337337D01*
X72251Y337421D01*
X72113Y337504D01*
X71988Y337587D01*
X71877Y337656D01*
X71794Y337726D01*
X71724Y337781D01*
X71669Y337823D01*
X71641Y337850D01*
X71627Y337864D01*
X71461Y338031D01*
X71322Y338211D01*
X71197Y338391D01*
X71100Y338585D01*
X71003Y338766D01*
X70934Y338946D01*
X70823Y339293D01*
X70795Y339445D01*
X70767Y339584D01*
X70740Y339723D01*
X70726Y339834D01*
X70712Y339917D01*
Y339986D01*
Y340028D01*
Y340042D01*
X70726Y340263D01*
X70753Y340485D01*
X70795Y340693D01*
X70851Y340888D01*
X70989Y341248D01*
X71072Y341415D01*
X71156Y341553D01*
X71225Y341692D01*
X71308Y341803D01*
X71378Y341914D01*
X71447Y341997D01*
X71502Y342066D01*
X71544Y342108D01*
X71572Y342136D01*
X71586Y342150D01*
X71752Y342302D01*
X71932Y342441D01*
X72113Y342552D01*
X72307Y342649D01*
X72487Y342746D01*
X72667Y342815D01*
X73014Y342912D01*
X73167Y342954D01*
X73319Y342982D01*
X73444Y342996D01*
X73555Y343009D01*
X73652Y343023D01*
X73777D01*
X74054Y343009D01*
X74318Y342968D01*
X74581Y342912D01*
X74831Y342829D01*
X75053Y342746D01*
X75275Y342649D01*
X75483Y342538D01*
X75663Y342427D01*
X75829Y342302D01*
X75982Y342205D01*
X76107Y342094D01*
X76218Y342011D01*
X76301Y341928D01*
X76356Y341872D01*
X76398Y341831D01*
X76412Y341817D01*
X77604Y342996D01*
X77299Y343301D01*
X76994Y343564D01*
X76717Y343772D01*
X76467Y343939D01*
X76245Y344063D01*
X76162Y344119D01*
X76079Y344160D01*
X76023Y344188D01*
X75982Y344216D01*
X75954Y344230D01*
X75940D01*
X75552Y344369D01*
X75177Y344479D01*
X74817Y344549D01*
X74484Y344604D01*
X74331Y344618D01*
X74193Y344632D01*
X74082Y344646D01*
X73971Y344660D01*
D02*
G37*
G36*
X86910Y344438D02*
X85232D01*
Y338585D01*
X81404Y344438D01*
X79809D01*
Y335562D01*
X81488D01*
Y341373D01*
X85288Y335562D01*
X86910D01*
Y344438D01*
D02*
G37*
G36*
X91126D02*
X88949D01*
Y335562D01*
X91279D01*
X91570Y335576D01*
X91833D01*
X92083Y335590D01*
X92291Y335618D01*
X92499Y335631D01*
X92666Y335645D01*
X92832Y335673D01*
X92957Y335687D01*
X93082Y335701D01*
X93179Y335728D01*
X93248Y335742D01*
X93317Y335756D01*
X93359D01*
X93373Y335770D01*
X93387D01*
X93650Y335867D01*
X93886Y335992D01*
X94108Y336117D01*
X94302Y336255D01*
X94468Y336367D01*
X94593Y336464D01*
X94663Y336533D01*
X94690Y336561D01*
X94898Y336782D01*
X95092Y337018D01*
X95245Y337268D01*
X95384Y337490D01*
X95495Y337684D01*
X95564Y337850D01*
X95592Y337906D01*
X95619Y337948D01*
X95633Y337975D01*
Y337989D01*
X95744Y338322D01*
X95828Y338641D01*
X95897Y338960D01*
X95939Y339251D01*
X95966Y339501D01*
Y339612D01*
X95980Y339709D01*
Y340139D01*
X95952Y340402D01*
X95883Y340874D01*
X95841Y341096D01*
X95786Y341304D01*
X95730Y341498D01*
X95675Y341678D01*
X95619Y341831D01*
X95564Y341969D01*
X95508Y342094D01*
X95467Y342191D01*
X95425Y342274D01*
X95398Y342344D01*
X95384Y342371D01*
X95370Y342385D01*
X95259Y342579D01*
X95134Y342760D01*
X94871Y343093D01*
X94607Y343356D01*
X94371Y343578D01*
X94149Y343745D01*
X94052Y343814D01*
X93969Y343855D01*
X93914Y343897D01*
X93858Y343925D01*
X93830Y343952D01*
X93817D01*
X93636Y344036D01*
X93428Y344119D01*
X93206Y344174D01*
X92971Y344230D01*
X92499Y344313D01*
X92028Y344382D01*
X91806Y344396D01*
X91611Y344410D01*
X91417Y344424D01*
X91265D01*
X91126Y344438D01*
D02*
G37*
%LPD*%
G36*
X91487Y342774D02*
X91750Y342760D01*
X92000Y342718D01*
X92222Y342677D01*
X92430Y342621D01*
X92610Y342566D01*
X92776Y342496D01*
X92929Y342441D01*
X93068Y342371D01*
X93179Y342302D01*
X93276Y342247D01*
X93345Y342191D01*
X93414Y342150D01*
X93456Y342108D01*
X93470Y342094D01*
X93484Y342080D01*
X93622Y341928D01*
X93747Y341761D01*
X93858Y341595D01*
X93955Y341415D01*
X94025Y341234D01*
X94094Y341054D01*
X94191Y340707D01*
X94219Y340541D01*
X94247Y340388D01*
X94260Y340250D01*
X94274Y340139D01*
X94288Y340042D01*
Y339958D01*
Y339917D01*
Y339903D01*
X94274Y339570D01*
X94233Y339279D01*
X94177Y339015D01*
X94122Y338793D01*
X94066Y338613D01*
X94011Y338475D01*
X93969Y338391D01*
X93955Y338377D01*
Y338363D01*
X93817Y338142D01*
X93678Y337961D01*
X93539Y337809D01*
X93400Y337684D01*
X93276Y337587D01*
X93179Y337531D01*
X93123Y337490D01*
X93095Y337476D01*
X92985Y337434D01*
X92874Y337393D01*
X92610Y337323D01*
X92333Y337282D01*
X92055Y337240D01*
X91806Y337226D01*
X91695D01*
X91598Y337212D01*
X90627D01*
Y342788D01*
X91195D01*
X91487Y342774D01*
D02*
G37*
%LPC*%
G36*
X66129Y305925D02*
X63407D01*
X60203Y301815D01*
Y305925D01*
X57926D01*
Y294075D01*
X60203D01*
Y299352D01*
X63851Y294075D01*
X66536D01*
X61981Y300630D01*
X66129Y305925D01*
D02*
G37*
G36*
X49741Y306222D02*
X49315D01*
X49019Y306185D01*
X48445Y306092D01*
X47908Y305944D01*
X47667Y305870D01*
X47445Y305796D01*
X47242Y305722D01*
X47056Y305648D01*
X46908Y305574D01*
X46779Y305499D01*
X46667Y305444D01*
X46593Y305407D01*
X46538Y305388D01*
X46519Y305370D01*
X46019Y305037D01*
X45575Y304666D01*
X45186Y304296D01*
X44871Y303925D01*
X44612Y303611D01*
X44520Y303463D01*
X44427Y303351D01*
X44372Y303240D01*
X44316Y303166D01*
X44297Y303129D01*
X44279Y303111D01*
X44131Y302852D01*
X44020Y302574D01*
X43816Y302037D01*
X43668Y301500D01*
X43575Y301037D01*
X43538Y300815D01*
X43501Y300611D01*
X43483Y300444D01*
Y300296D01*
X43464Y300167D01*
Y300000D01*
X43483Y299537D01*
X43538Y299093D01*
X43631Y298648D01*
X43742Y298241D01*
X43871Y297852D01*
X44020Y297500D01*
X44186Y297167D01*
X44353Y296852D01*
X44501Y296574D01*
X44668Y296334D01*
X44816Y296112D01*
X44946Y295945D01*
X45057Y295797D01*
X45149Y295704D01*
X45205Y295630D01*
X45223Y295612D01*
X45557Y295297D01*
X45927Y295000D01*
X46279Y294760D01*
X46649Y294556D01*
X47038Y294371D01*
X47390Y294223D01*
X47760Y294112D01*
X48093Y294001D01*
X48427Y293927D01*
X48704Y293871D01*
X48982Y293834D01*
X49204Y293815D01*
X49390Y293797D01*
X49538Y293778D01*
X49649D01*
X50112Y293797D01*
X50556Y293853D01*
X50982Y293945D01*
X51389Y294056D01*
X51778Y294186D01*
X52130Y294334D01*
X52463Y294501D01*
X52759Y294667D01*
X53037Y294834D01*
X53259Y295000D01*
X53482Y295149D01*
X53648Y295278D01*
X53778Y295389D01*
X53889Y295482D01*
X53945Y295537D01*
X53963Y295556D01*
X54278Y295908D01*
X54556Y296260D01*
X54796Y296630D01*
X55000Y297000D01*
X55185Y297371D01*
X55315Y297741D01*
X55444Y298093D01*
X55537Y298426D01*
X55611Y298759D01*
X55667Y299037D01*
X55704Y299296D01*
X55741Y299519D01*
Y299704D01*
X55759Y299852D01*
Y299963D01*
X55741Y300444D01*
X55685Y300907D01*
X55592Y301333D01*
X55481Y301759D01*
X55333Y302148D01*
X55185Y302518D01*
X55019Y302852D01*
X54852Y303148D01*
X54685Y303426D01*
X54519Y303685D01*
X54370Y303888D01*
X54222Y304074D01*
X54111Y304203D01*
X54019Y304314D01*
X53963Y304370D01*
X53945Y304388D01*
X53593Y304703D01*
X53241Y305000D01*
X52871Y305240D01*
X52500Y305444D01*
X52148Y305629D01*
X51778Y305777D01*
X51445Y305888D01*
X51111Y305999D01*
X50797Y306073D01*
X50519Y306129D01*
X50260Y306166D01*
X50056Y306185D01*
X49871Y306203D01*
X49741Y306222D01*
D02*
G37*
%LPD*%
G36*
X49889Y304018D02*
X50186Y303981D01*
X50445Y303925D01*
X50704Y303852D01*
X51186Y303666D01*
X51389Y303555D01*
X51593Y303444D01*
X51760Y303333D01*
X51908Y303222D01*
X52037Y303129D01*
X52148Y303037D01*
X52241Y302963D01*
X52297Y302907D01*
X52334Y302870D01*
X52352Y302852D01*
X52556Y302629D01*
X52722Y302389D01*
X52889Y302148D01*
X53019Y301907D01*
X53130Y301667D01*
X53222Y301426D01*
X53352Y300981D01*
X53408Y300778D01*
X53445Y300574D01*
X53463Y300407D01*
X53482Y300259D01*
X53500Y300148D01*
Y300056D01*
Y300000D01*
Y299981D01*
X53482Y299667D01*
X53445Y299370D01*
X53389Y299093D01*
X53334Y298815D01*
X53148Y298333D01*
X53037Y298111D01*
X52945Y297908D01*
X52833Y297722D01*
X52722Y297574D01*
X52630Y297426D01*
X52556Y297315D01*
X52482Y297222D01*
X52426Y297167D01*
X52389Y297130D01*
X52371Y297111D01*
X52148Y296908D01*
X51926Y296741D01*
X51704Y296574D01*
X51463Y296445D01*
X51241Y296334D01*
X51000Y296241D01*
X50574Y296112D01*
X50389Y296056D01*
X50204Y296019D01*
X50037Y296000D01*
X49908Y295982D01*
X49778Y295963D01*
X49630D01*
X49371Y295982D01*
X49112Y296000D01*
X48649Y296112D01*
X48223Y296241D01*
X47853Y296408D01*
X47686Y296500D01*
X47556Y296574D01*
X47427Y296649D01*
X47316Y296723D01*
X47242Y296778D01*
X47186Y296815D01*
X47149Y296834D01*
X47130Y296852D01*
X46890Y297074D01*
X46667Y297315D01*
X46482Y297574D01*
X46316Y297815D01*
X46186Y298074D01*
X46075Y298333D01*
X45982Y298593D01*
X45908Y298834D01*
X45834Y299074D01*
X45797Y299278D01*
X45760Y299482D01*
X45742Y299648D01*
Y299778D01*
X45723Y299870D01*
Y299944D01*
Y299963D01*
X45742Y300296D01*
X45779Y300592D01*
X45834Y300889D01*
X45890Y301167D01*
X45982Y301426D01*
X46075Y301667D01*
X46168Y301889D01*
X46279Y302092D01*
X46390Y302278D01*
X46482Y302426D01*
X46575Y302574D01*
X46667Y302685D01*
X46723Y302778D01*
X46779Y302833D01*
X46816Y302870D01*
X46834Y302889D01*
X47056Y303092D01*
X47279Y303259D01*
X47501Y303426D01*
X47741Y303555D01*
X47964Y303666D01*
X48204Y303759D01*
X48630Y303888D01*
X48834Y303944D01*
X49019Y303981D01*
X49186Y304000D01*
X49315Y304018D01*
X49426Y304037D01*
X49593D01*
X49889Y304018D01*
D02*
G37*
%LPC*%
G36*
X192264Y344438D02*
X190586D01*
Y335562D01*
X192264D01*
Y344438D01*
D02*
G37*
G36*
X184248D02*
X182071D01*
Y335562D01*
X184401D01*
X184692Y335576D01*
X184956D01*
X185205Y335590D01*
X185413Y335618D01*
X185621Y335631D01*
X185788Y335645D01*
X185954Y335673D01*
X186079Y335687D01*
X186204Y335701D01*
X186301Y335728D01*
X186370Y335742D01*
X186439Y335756D01*
X186481D01*
X186495Y335770D01*
X186509D01*
X186772Y335867D01*
X187008Y335992D01*
X187230Y336117D01*
X187424Y336255D01*
X187591Y336367D01*
X187715Y336464D01*
X187785Y336533D01*
X187812Y336561D01*
X188020Y336782D01*
X188215Y337018D01*
X188367Y337268D01*
X188506Y337490D01*
X188617Y337684D01*
X188686Y337850D01*
X188714Y337906D01*
X188742Y337948D01*
X188755Y337975D01*
Y337989D01*
X188867Y338322D01*
X188950Y338641D01*
X189019Y338960D01*
X189061Y339251D01*
X189088Y339501D01*
Y339612D01*
X189102Y339709D01*
Y340139D01*
X189074Y340402D01*
X189005Y340874D01*
X188964Y341096D01*
X188908Y341304D01*
X188853Y341498D01*
X188797Y341678D01*
X188742Y341831D01*
X188686Y341969D01*
X188631Y342094D01*
X188589Y342191D01*
X188547Y342274D01*
X188520Y342344D01*
X188506Y342371D01*
X188492Y342385D01*
X188381Y342579D01*
X188256Y342760D01*
X187993Y343093D01*
X187729Y343356D01*
X187493Y343578D01*
X187272Y343745D01*
X187174Y343814D01*
X187091Y343855D01*
X187036Y343897D01*
X186980Y343925D01*
X186953Y343952D01*
X186939D01*
X186758Y344036D01*
X186551Y344119D01*
X186329Y344174D01*
X186093Y344230D01*
X185621Y344313D01*
X185150Y344382D01*
X184928Y344396D01*
X184734Y344410D01*
X184540Y344424D01*
X184387D01*
X184248Y344438D01*
D02*
G37*
G36*
X198422Y344660D02*
X198103D01*
X197881Y344632D01*
X197451Y344563D01*
X197049Y344452D01*
X196868Y344396D01*
X196702Y344341D01*
X196550Y344285D01*
X196411Y344230D01*
X196300Y344174D01*
X196203Y344119D01*
X196120Y344077D01*
X196064Y344050D01*
X196023Y344036D01*
X196009Y344022D01*
X195634Y343772D01*
X195301Y343495D01*
X195010Y343218D01*
X194774Y342940D01*
X194580Y342704D01*
X194511Y342593D01*
X194442Y342510D01*
X194400Y342427D01*
X194358Y342371D01*
X194345Y342344D01*
X194331Y342330D01*
X194220Y342136D01*
X194137Y341928D01*
X193984Y341525D01*
X193873Y341123D01*
X193804Y340777D01*
X193776Y340610D01*
X193748Y340458D01*
X193734Y340333D01*
Y340222D01*
X193720Y340125D01*
Y340000D01*
X193734Y339653D01*
X193776Y339320D01*
X193845Y338988D01*
X193928Y338683D01*
X194025Y338391D01*
X194137Y338128D01*
X194261Y337878D01*
X194386Y337642D01*
X194497Y337434D01*
X194622Y337254D01*
X194733Y337088D01*
X194830Y336963D01*
X194913Y336852D01*
X194982Y336782D01*
X195024Y336727D01*
X195038Y336713D01*
X195287Y336477D01*
X195565Y336255D01*
X195828Y336075D01*
X196106Y335923D01*
X196397Y335784D01*
X196660Y335673D01*
X196938Y335590D01*
X197188Y335507D01*
X197437Y335451D01*
X197645Y335410D01*
X197853Y335382D01*
X198020Y335368D01*
X198158Y335354D01*
X198269Y335340D01*
X198353D01*
X198699Y335354D01*
X199032Y335396D01*
X199351Y335465D01*
X199656Y335548D01*
X199947Y335645D01*
X200211Y335756D01*
X200460Y335881D01*
X200682Y336006D01*
X200890Y336131D01*
X201057Y336255D01*
X201223Y336367D01*
X201348Y336464D01*
X201445Y336547D01*
X201528Y336616D01*
X201570Y336658D01*
X201584Y336672D01*
X201820Y336935D01*
X202028Y337199D01*
X202208Y337476D01*
X202360Y337753D01*
X202499Y338031D01*
X202596Y338308D01*
X202693Y338572D01*
X202763Y338821D01*
X202818Y339071D01*
X202860Y339279D01*
X202887Y339473D01*
X202915Y339639D01*
Y339778D01*
X202929Y339889D01*
Y339972D01*
X202915Y340333D01*
X202874Y340680D01*
X202804Y340998D01*
X202721Y341317D01*
X202610Y341609D01*
X202499Y341886D01*
X202374Y342136D01*
X202250Y342358D01*
X202125Y342566D01*
X202000Y342760D01*
X201889Y342912D01*
X201778Y343051D01*
X201695Y343148D01*
X201625Y343231D01*
X201584Y343273D01*
X201570Y343287D01*
X201306Y343523D01*
X201043Y343745D01*
X200766Y343925D01*
X200488Y344077D01*
X200225Y344216D01*
X199947Y344327D01*
X199698Y344410D01*
X199448Y344493D01*
X199212Y344549D01*
X199004Y344590D01*
X198810Y344618D01*
X198658Y344632D01*
X198519Y344646D01*
X198422Y344660D01*
D02*
G37*
%LPD*%
G36*
X184609Y342774D02*
X184872Y342760D01*
X185122Y342718D01*
X185344Y342677D01*
X185552Y342621D01*
X185732Y342566D01*
X185899Y342496D01*
X186051Y342441D01*
X186190Y342371D01*
X186301Y342302D01*
X186398Y342247D01*
X186467Y342191D01*
X186537Y342150D01*
X186578Y342108D01*
X186592Y342094D01*
X186606Y342080D01*
X186745Y341928D01*
X186869Y341761D01*
X186980Y341595D01*
X187078Y341415D01*
X187147Y341234D01*
X187216Y341054D01*
X187313Y340707D01*
X187341Y340541D01*
X187369Y340388D01*
X187383Y340250D01*
X187396Y340139D01*
X187410Y340042D01*
Y339958D01*
Y339917D01*
Y339903D01*
X187396Y339570D01*
X187355Y339279D01*
X187299Y339015D01*
X187244Y338793D01*
X187188Y338613D01*
X187133Y338475D01*
X187091Y338391D01*
X187078Y338377D01*
Y338363D01*
X186939Y338142D01*
X186800Y337961D01*
X186661Y337809D01*
X186523Y337684D01*
X186398Y337587D01*
X186301Y337531D01*
X186245Y337490D01*
X186218Y337476D01*
X186107Y337434D01*
X185996Y337393D01*
X185732Y337323D01*
X185455Y337282D01*
X185177Y337240D01*
X184928Y337226D01*
X184817D01*
X184720Y337212D01*
X183749D01*
Y342788D01*
X184318D01*
X184609Y342774D01*
D02*
G37*
G36*
X198533Y343009D02*
X198755Y342982D01*
X198949Y342940D01*
X199143Y342885D01*
X199503Y342746D01*
X199656Y342663D01*
X199809Y342579D01*
X199933Y342496D01*
X200044Y342413D01*
X200142Y342344D01*
X200225Y342274D01*
X200294Y342219D01*
X200336Y342177D01*
X200363Y342150D01*
X200377Y342136D01*
X200530Y341969D01*
X200655Y341789D01*
X200779Y341609D01*
X200877Y341428D01*
X200960Y341248D01*
X201029Y341068D01*
X201126Y340735D01*
X201168Y340583D01*
X201196Y340430D01*
X201209Y340305D01*
X201223Y340194D01*
X201237Y340111D01*
Y340042D01*
Y340000D01*
Y339986D01*
X201223Y339750D01*
X201196Y339529D01*
X201154Y339320D01*
X201112Y339112D01*
X200974Y338752D01*
X200890Y338585D01*
X200821Y338433D01*
X200738Y338294D01*
X200655Y338183D01*
X200585Y338072D01*
X200530Y337989D01*
X200474Y337920D01*
X200433Y337878D01*
X200405Y337850D01*
X200391Y337836D01*
X200225Y337684D01*
X200058Y337559D01*
X199892Y337434D01*
X199712Y337337D01*
X199545Y337254D01*
X199365Y337185D01*
X199046Y337088D01*
X198907Y337046D01*
X198769Y337018D01*
X198644Y337004D01*
X198547Y336991D01*
X198449Y336977D01*
X198339D01*
X198144Y336991D01*
X197950Y337004D01*
X197604Y337088D01*
X197285Y337185D01*
X197007Y337309D01*
X196882Y337379D01*
X196785Y337434D01*
X196688Y337490D01*
X196605Y337545D01*
X196550Y337587D01*
X196508Y337615D01*
X196480Y337629D01*
X196466Y337642D01*
X196286Y337809D01*
X196120Y337989D01*
X195981Y338183D01*
X195856Y338363D01*
X195759Y338558D01*
X195676Y338752D01*
X195606Y338946D01*
X195551Y339126D01*
X195496Y339307D01*
X195468Y339459D01*
X195440Y339612D01*
X195426Y339737D01*
Y339834D01*
X195412Y339903D01*
Y339958D01*
Y339972D01*
X195426Y340222D01*
X195454Y340444D01*
X195496Y340666D01*
X195537Y340874D01*
X195606Y341068D01*
X195676Y341248D01*
X195745Y341415D01*
X195828Y341567D01*
X195912Y341706D01*
X195981Y341817D01*
X196050Y341928D01*
X196120Y342011D01*
X196161Y342080D01*
X196203Y342122D01*
X196231Y342150D01*
X196245Y342164D01*
X196411Y342316D01*
X196577Y342441D01*
X196744Y342566D01*
X196924Y342663D01*
X197090Y342746D01*
X197271Y342815D01*
X197590Y342912D01*
X197742Y342954D01*
X197881Y342982D01*
X198006Y342996D01*
X198103Y343009D01*
X198186Y343023D01*
X198311D01*
X198533Y343009D01*
D02*
G37*
%LPC*%
G36*
X156433Y344660D02*
X156003D01*
X155767Y344632D01*
X155323Y344563D01*
X154907Y344452D01*
X154727Y344396D01*
X154546Y344341D01*
X154394Y344285D01*
X154255Y344230D01*
X154130Y344174D01*
X154019Y344119D01*
X153936Y344077D01*
X153881Y344050D01*
X153839Y344036D01*
X153825Y344022D01*
X153423Y343772D01*
X153076Y343495D01*
X152785Y343218D01*
X152549Y342954D01*
X152355Y342718D01*
X152272Y342621D01*
X152217Y342524D01*
X152175Y342455D01*
X152133Y342399D01*
X152120Y342371D01*
X152106Y342358D01*
X151995Y342164D01*
X151911Y341969D01*
X151759Y341553D01*
X151662Y341165D01*
X151579Y340804D01*
X151565Y340638D01*
X151537Y340485D01*
X151523Y340347D01*
Y340236D01*
X151509Y340139D01*
Y340014D01*
X151523Y339639D01*
X151565Y339279D01*
X151634Y338946D01*
X151717Y338627D01*
X151814Y338322D01*
X151925Y338045D01*
X152050Y337795D01*
X152175Y337559D01*
X152286Y337351D01*
X152411Y337171D01*
X152522Y337018D01*
X152619Y336880D01*
X152702Y336782D01*
X152771Y336699D01*
X152813Y336658D01*
X152827Y336644D01*
X153076Y336408D01*
X153354Y336214D01*
X153631Y336034D01*
X153909Y335895D01*
X154200Y335770D01*
X154477Y335659D01*
X154754Y335576D01*
X155018Y335507D01*
X155254Y335451D01*
X155490Y335410D01*
X155698Y335382D01*
X155864Y335368D01*
X156017Y335354D01*
X156114Y335340D01*
X156211D01*
X156613Y335354D01*
X157001Y335396D01*
X157334Y335451D01*
X157625Y335521D01*
X157764Y335548D01*
X157875Y335590D01*
X157972Y335618D01*
X158055Y335645D01*
X158125Y335673D01*
X158166Y335687D01*
X158194Y335701D01*
X158208D01*
X158374Y335784D01*
X158541Y335867D01*
X158873Y336075D01*
X159192Y336297D01*
X159484Y336519D01*
X159719Y336713D01*
X159830Y336810D01*
X159914Y336894D01*
X159983Y336949D01*
X160038Y337004D01*
X160066Y337032D01*
X160080Y337046D01*
X158929Y338239D01*
X158665Y337989D01*
X158416Y337781D01*
X158180Y337601D01*
X157986Y337476D01*
X157819Y337365D01*
X157695Y337296D01*
X157611Y337254D01*
X157598Y337240D01*
X157584D01*
X157362Y337157D01*
X157126Y337088D01*
X156890Y337046D01*
X156682Y337004D01*
X156502Y336991D01*
X156363Y336977D01*
X156238D01*
X155919Y336991D01*
X155628Y337032D01*
X155365Y337102D01*
X155129Y337171D01*
X154935Y337240D01*
X154796Y337309D01*
X154741Y337323D01*
X154699Y337351D01*
X154685Y337365D01*
X154671D01*
X154422Y337518D01*
X154200Y337698D01*
X154019Y337878D01*
X153853Y338045D01*
X153742Y338197D01*
X153645Y338322D01*
X153590Y338405D01*
X153576Y338419D01*
Y338433D01*
X153451Y338696D01*
X153354Y338974D01*
X153298Y339237D01*
X153243Y339487D01*
X153215Y339695D01*
Y339792D01*
X153201Y339861D01*
Y339931D01*
Y339972D01*
Y340000D01*
Y340014D01*
X153215Y340250D01*
X153243Y340471D01*
X153285Y340680D01*
X153340Y340874D01*
X153479Y341248D01*
X153548Y341401D01*
X153631Y341553D01*
X153714Y341692D01*
X153784Y341803D01*
X153867Y341914D01*
X153922Y341997D01*
X153978Y342066D01*
X154019Y342108D01*
X154047Y342136D01*
X154061Y342150D01*
X154228Y342302D01*
X154408Y342441D01*
X154588Y342552D01*
X154768Y342649D01*
X154949Y342746D01*
X155129Y342815D01*
X155462Y342912D01*
X155614Y342954D01*
X155767Y342982D01*
X155892Y342996D01*
X156003Y343009D01*
X156086Y343023D01*
X156211D01*
X156488Y343009D01*
X156765Y342968D01*
X157029Y342912D01*
X157279Y342829D01*
X157514Y342732D01*
X157736Y342621D01*
X157944Y342510D01*
X158138Y342385D01*
X158319Y342261D01*
X158471Y342150D01*
X158610Y342039D01*
X158721Y341942D01*
X158804Y341872D01*
X158873Y341803D01*
X158915Y341761D01*
X158929Y341747D01*
X160122Y342871D01*
X159830Y343176D01*
X159525Y343439D01*
X159234Y343661D01*
X158957Y343855D01*
X158707Y343994D01*
X158610Y344050D01*
X158513Y344105D01*
X158443Y344147D01*
X158388Y344160D01*
X158360Y344188D01*
X158346D01*
X157972Y344341D01*
X157584Y344466D01*
X157237Y344549D01*
X156918Y344604D01*
X156765Y344618D01*
X156641Y344632D01*
X156530Y344646D01*
X156433Y344660D01*
D02*
G37*
G36*
X173186Y344438D02*
X171147D01*
X168748Y341359D01*
Y344438D01*
X167042D01*
Y335562D01*
X168748D01*
Y339515D01*
X171480Y335562D01*
X173491D01*
X170079Y340471D01*
X173186Y344438D01*
D02*
G37*
G36*
X163256D02*
X161578D01*
Y335562D01*
X165738D01*
Y337171D01*
X163256D01*
Y344438D01*
D02*
G37*
G36*
X482580Y71332D02*
X474989D01*
Y59481D01*
X477229D01*
Y64499D01*
X477433D01*
X480118Y59481D01*
X482580D01*
X479766Y64740D01*
X480155Y64906D01*
X480507Y65092D01*
X480803Y65295D01*
X481025Y65480D01*
X481210Y65665D01*
X481340Y65795D01*
X481432Y65888D01*
X481451Y65925D01*
X481636Y66240D01*
X481784Y66573D01*
X481877Y66888D01*
X481951Y67202D01*
X481988Y67480D01*
X482025Y67702D01*
Y67776D01*
Y67832D01*
Y67869D01*
Y67888D01*
X482006Y68295D01*
X481951Y68665D01*
X481858Y68980D01*
X481766Y69276D01*
X481673Y69498D01*
X481581Y69665D01*
X481525Y69776D01*
X481507Y69813D01*
X481303Y70091D01*
X481081Y70332D01*
X480858Y70535D01*
X480655Y70702D01*
X480470Y70832D01*
X480303Y70906D01*
X480210Y70961D01*
X480192Y70980D01*
X480173D01*
X480007Y71035D01*
X479822Y71091D01*
X479377Y71183D01*
X478914Y71239D01*
X478470Y71294D01*
X478248D01*
X478044Y71313D01*
X477859D01*
X477692Y71332D01*
X482580D01*
D01*
D02*
G37*
G36*
X473082D02*
X459083D01*
X461768Y59481D01*
X463897D01*
X466045Y67128D01*
X468212Y59481D01*
X470397D01*
X473082Y71332D01*
D01*
D02*
G37*
G36*
X457787D02*
X450732D01*
Y59481D01*
X452972D01*
Y64499D01*
X453565D01*
X453824Y64517D01*
X454065Y64536D01*
X454287D01*
X454491Y64555D01*
X454658Y64573D01*
X454806Y64591D01*
X454954Y64610D01*
X455065Y64629D01*
X455157Y64647D01*
X455232D01*
X455324Y64684D01*
X455361D01*
X455750Y64832D01*
X456102Y64999D01*
X456398Y65184D01*
X456657Y65369D01*
X456861Y65536D01*
X457009Y65684D01*
X457083Y65777D01*
X457120Y65814D01*
X457342Y66147D01*
X457509Y66499D01*
X457620Y66832D01*
X457713Y67165D01*
X457750Y67443D01*
X457768Y67573D01*
Y67684D01*
X457787Y67776D01*
Y67888D01*
X457768Y68295D01*
X457713Y68647D01*
X457620Y68980D01*
X457546Y69258D01*
X457453Y69480D01*
X457361Y69647D01*
X457305Y69758D01*
X457287Y69795D01*
X457083Y70072D01*
X456861Y70313D01*
X456639Y70517D01*
X456417Y70683D01*
X456213Y70813D01*
X456065Y70887D01*
X455954Y70943D01*
X455935Y70961D01*
X455917D01*
X455750Y71035D01*
X455546Y71091D01*
X455120Y71183D01*
X454658Y71239D01*
X454195Y71294D01*
X453991D01*
X453787Y71313D01*
X453602D01*
X453435Y71332D01*
X457787D01*
D01*
D02*
G37*
%LPD*%
G36*
X478414Y69110D02*
X478637Y69091D01*
X478803Y69072D01*
X478933Y69036D01*
X479007Y69017D01*
X479062Y68998D01*
X479081D01*
X479322Y68869D01*
X479488Y68739D01*
X479599Y68628D01*
X479636Y68591D01*
Y68573D01*
X479710Y68461D01*
X479748Y68350D01*
X479822Y68128D01*
Y68036D01*
X479840Y67980D01*
Y67924D01*
Y67906D01*
X479822Y67684D01*
X479766Y67480D01*
X479710Y67332D01*
X479636Y67202D01*
X479544Y67110D01*
X479488Y67036D01*
X479433Y66999D01*
X479414Y66980D01*
X479229Y66888D01*
X479007Y66814D01*
X478766Y66776D01*
X478525Y66739D01*
X478303Y66721D01*
X478100Y66702D01*
X477229D01*
Y69128D01*
X478155D01*
X478414Y69110D01*
D02*
G37*
G36*
X469156Y63758D02*
X467008Y71332D01*
X470878D01*
X469156Y63758D01*
D02*
G37*
G36*
X463008D02*
X461286Y71332D01*
X465119D01*
X463008Y63758D01*
D02*
G37*
G36*
X453972Y69110D02*
X454269Y69091D01*
X454528Y69054D01*
X454713Y69017D01*
X454861Y68961D01*
X454972Y68924D01*
X455028Y68906D01*
X455046Y68887D01*
X455232Y68758D01*
X455361Y68591D01*
X455472Y68425D01*
X455528Y68276D01*
X455565Y68128D01*
X455602Y67999D01*
Y67924D01*
Y67888D01*
Y67739D01*
X455565Y67628D01*
X455509Y67406D01*
X455472Y67332D01*
X455435Y67276D01*
X455417Y67239D01*
X455398Y67221D01*
X455232Y67036D01*
X455065Y66906D01*
X454991Y66869D01*
X454935Y66832D01*
X454898Y66814D01*
X454880D01*
X454732Y66776D01*
X454546Y66758D01*
X454157Y66721D01*
X453991Y66702D01*
X452972D01*
Y69128D01*
X453602D01*
X453972Y69110D01*
D02*
G37*
%LPC*%
G36*
X141435Y344438D02*
X139507D01*
X137649Y341581D01*
X135777Y344438D01*
X133863D01*
X136692Y340111D01*
X133696Y335562D01*
X135610D01*
X137649Y338655D01*
X139674Y335562D01*
X141587D01*
X138606Y340111D01*
X141435Y344438D01*
D02*
G37*
G36*
X133336D02*
X128413D01*
Y342774D01*
X129993D01*
Y335562D01*
X131713D01*
Y342774D01*
X133336D01*
Y344438D01*
D02*
G37*
G36*
X425008Y34925D02*
X422767D01*
Y27111D01*
X417657Y34925D01*
X415527D01*
Y23075D01*
X417768D01*
Y30833D01*
X422841Y23075D01*
X425008D01*
Y34925D01*
D02*
G37*
G36*
X413991D02*
X407417D01*
Y32703D01*
X409528D01*
Y23075D01*
X411824D01*
Y32703D01*
X413991D01*
Y34925D01*
D02*
G37*
G36*
X401251D02*
X398992D01*
Y23075D01*
X402325D01*
X402825Y23093D01*
X403269Y23130D01*
X403658Y23204D01*
X403973Y23278D01*
X404232Y23334D01*
X404417Y23408D01*
X404529Y23445D01*
X404566Y23463D01*
X404862Y23630D01*
X405121Y23834D01*
X405362Y24037D01*
X405547Y24223D01*
X405714Y24408D01*
X405825Y24556D01*
X405899Y24649D01*
X405917Y24686D01*
X406084Y25000D01*
X406214Y25315D01*
X406306Y25630D01*
X406380Y25908D01*
X406417Y26167D01*
X406436Y26352D01*
Y26519D01*
X406417Y26889D01*
X406362Y27241D01*
X406269Y27537D01*
X406176Y27815D01*
X406084Y28019D01*
X405991Y28185D01*
X405936Y28278D01*
X405917Y28315D01*
X405714Y28593D01*
X405454Y28833D01*
X405195Y29056D01*
X404936Y29241D01*
X404714Y29389D01*
X404529Y29500D01*
X404454Y29537D01*
X404399Y29574D01*
X404362Y29592D01*
X404343D01*
X404566Y29778D01*
X404769Y29963D01*
X404917Y30129D01*
X405047Y30296D01*
X405140Y30426D01*
X405214Y30537D01*
X405251Y30611D01*
X405269Y30629D01*
X405362Y30833D01*
X405436Y31055D01*
X405491Y31259D01*
X405528Y31444D01*
X405547Y31611D01*
X405565Y31740D01*
Y31814D01*
Y31851D01*
X405547Y32222D01*
X405473Y32574D01*
X405362Y32870D01*
X405251Y33148D01*
X405121Y33351D01*
X405028Y33518D01*
X404954Y33611D01*
X404917Y33648D01*
X404658Y33925D01*
X404380Y34148D01*
X404103Y34333D01*
X403843Y34462D01*
X403603Y34574D01*
X403399Y34648D01*
X403344Y34666D01*
X403288Y34685D01*
X403251Y34703D01*
X403232D01*
X403084Y34740D01*
X402918Y34777D01*
X402547Y34833D01*
X402140Y34870D01*
X401751Y34907D01*
X401399D01*
X401251Y34925D01*
D02*
G37*
%LPD*%
G36*
X402084Y32759D02*
X402325Y32722D01*
X402529Y32666D01*
X402695Y32611D01*
X402825Y32555D01*
X402918Y32500D01*
X402973Y32463D01*
X402992Y32444D01*
X403121Y32315D01*
X403214Y32166D01*
X403288Y32018D01*
X403325Y31870D01*
X403362Y31740D01*
X403381Y31648D01*
Y31574D01*
Y31555D01*
X403362Y31352D01*
X403325Y31166D01*
X403251Y31000D01*
X403177Y30870D01*
X403103Y30759D01*
X403029Y30685D01*
X402992Y30629D01*
X402973Y30611D01*
X402807Y30500D01*
X402603Y30426D01*
X402399Y30352D01*
X402196Y30315D01*
X402010Y30296D01*
X401862Y30278D01*
X401233D01*
Y32777D01*
X401807D01*
X402084Y32759D01*
D02*
G37*
G36*
X402158Y28241D02*
X402566Y28185D01*
X402899Y28111D01*
X403158Y28037D01*
X403362Y27963D01*
X403510Y27889D01*
X403603Y27833D01*
X403621Y27815D01*
X403825Y27630D01*
X403973Y27445D01*
X404066Y27241D01*
X404140Y27037D01*
X404177Y26871D01*
X404214Y26723D01*
Y26630D01*
Y26593D01*
X404195Y26352D01*
X404140Y26148D01*
X404047Y25982D01*
X403973Y25834D01*
X403881Y25723D01*
X403788Y25649D01*
X403732Y25593D01*
X403714Y25574D01*
X403603Y25519D01*
X403492Y25463D01*
X403195Y25371D01*
X402881Y25315D01*
X402566Y25260D01*
X402270Y25241D01*
X402140D01*
X402010Y25223D01*
X401233D01*
Y28259D01*
X401696D01*
X402158Y28241D01*
D02*
G37*
%LPC*%
G36*
X219151Y344660D02*
X219040D01*
X218818Y344646D01*
X218596Y344618D01*
X218388Y344577D01*
X218208Y344535D01*
X217847Y344396D01*
X217695Y344313D01*
X217556Y344244D01*
X217431Y344160D01*
X217320Y344077D01*
X217223Y344008D01*
X217140Y343952D01*
X217084Y343897D01*
X217043Y343855D01*
X217015Y343828D01*
X217001Y343814D01*
X216807Y343578D01*
X216654Y343315D01*
X216530Y343051D01*
X216446Y342801D01*
X216377Y342579D01*
X216349Y342496D01*
X216336Y342413D01*
X216322Y342344D01*
X216308Y342288D01*
Y342261D01*
Y342247D01*
X217930D01*
X217972Y342371D01*
X218027Y342482D01*
X218097Y342579D01*
X218166Y342663D01*
X218222Y342732D01*
X218277Y342774D01*
X218305Y342801D01*
X218319Y342815D01*
X218430Y342885D01*
X218554Y342940D01*
X218665Y342982D01*
X218762Y343009D01*
X218860Y343023D01*
X218929Y343037D01*
X218984D01*
X219137Y343023D01*
X219262Y342996D01*
X219373Y342954D01*
X219470Y342912D01*
X219553Y342871D01*
X219608Y342829D01*
X219636Y342801D01*
X219650Y342788D01*
X219733Y342691D01*
X219803Y342593D01*
X219844Y342496D01*
X219886Y342399D01*
X219900Y342316D01*
X219914Y342247D01*
Y342205D01*
Y342191D01*
Y342094D01*
X219886Y341997D01*
X219830Y341831D01*
X219803Y341761D01*
X219775Y341706D01*
X219761Y341678D01*
X219747Y341664D01*
X219608Y341498D01*
X219456Y341373D01*
X219387Y341331D01*
X219331Y341304D01*
X219289Y341276D01*
X219276D01*
X219151Y341234D01*
X219012Y341193D01*
X218860Y341165D01*
X218707Y341137D01*
X218582Y341123D01*
X218471Y341110D01*
X218402Y341096D01*
X218374D01*
Y339653D01*
X218721Y339626D01*
X219012Y339584D01*
X219276Y339515D01*
X219484Y339431D01*
X219650Y339362D01*
X219775Y339293D01*
X219844Y339237D01*
X219872Y339223D01*
X220052Y339057D01*
X220177Y338890D01*
X220274Y338710D01*
X220330Y338558D01*
X220371Y338419D01*
X220385Y338294D01*
X220399Y338225D01*
Y338211D01*
Y338197D01*
X220385Y338003D01*
X220343Y337823D01*
X220274Y337656D01*
X220205Y337531D01*
X220135Y337421D01*
X220066Y337337D01*
X220025Y337282D01*
X220011Y337268D01*
X219858Y337143D01*
X219692Y337046D01*
X219525Y336991D01*
X219373Y336935D01*
X219234Y336907D01*
X219123Y336894D01*
X219026D01*
X218832Y336907D01*
X218652Y336949D01*
X218485Y337004D01*
X218360Y337060D01*
X218249Y337115D01*
X218166Y337171D01*
X218111Y337212D01*
X218097Y337226D01*
X217972Y337365D01*
X217861Y337531D01*
X217778Y337698D01*
X217722Y337864D01*
X217681Y338017D01*
X217653Y338142D01*
X217625Y338225D01*
Y338239D01*
Y338253D01*
X215947D01*
X215975Y338003D01*
X216003Y337767D01*
X216058Y337545D01*
X216114Y337351D01*
X216183Y337157D01*
X216252Y336977D01*
X216336Y336824D01*
X216405Y336672D01*
X216488Y336547D01*
X216557Y336436D01*
X216627Y336339D01*
X216696Y336255D01*
X216752Y336200D01*
X216793Y336158D01*
X216807Y336131D01*
X216821Y336117D01*
X216973Y335978D01*
X217154Y335867D01*
X217320Y335756D01*
X217500Y335673D01*
X217847Y335534D01*
X218180Y335437D01*
X218333Y335410D01*
X218471Y335382D01*
X218610Y335368D01*
X218721Y335354D01*
X218804Y335340D01*
X218929D01*
X219179Y335354D01*
X219414Y335382D01*
X219650Y335410D01*
X219858Y335465D01*
X220052Y335534D01*
X220246Y335604D01*
X220413Y335673D01*
X220565Y335756D01*
X220704Y335826D01*
X220829Y335895D01*
X220926Y335964D01*
X221023Y336034D01*
X221092Y336089D01*
X221134Y336117D01*
X221162Y336145D01*
X221176Y336158D01*
X221328Y336325D01*
X221467Y336491D01*
X221592Y336658D01*
X221689Y336824D01*
X221772Y336991D01*
X221841Y337171D01*
X221952Y337490D01*
X221994Y337629D01*
X222022Y337767D01*
X222035Y337878D01*
X222049Y337989D01*
X222063Y338072D01*
Y338183D01*
X222049Y338475D01*
X221994Y338752D01*
X221924Y338988D01*
X221841Y339196D01*
X221744Y339362D01*
X221675Y339487D01*
X221619Y339570D01*
X221605Y339598D01*
X221425Y339806D01*
X221217Y339986D01*
X221009Y340139D01*
X220801Y340250D01*
X220621Y340333D01*
X220482Y340402D01*
X220427Y340416D01*
X220385Y340430D01*
X220357Y340444D01*
X220343D01*
X220565Y340569D01*
X220746Y340693D01*
X220912Y340832D01*
X221037Y340957D01*
X221134Y341068D01*
X221217Y341151D01*
X221259Y341207D01*
X221273Y341234D01*
X221384Y341415D01*
X221467Y341609D01*
X221522Y341789D01*
X221564Y341955D01*
X221592Y342108D01*
X221605Y342219D01*
Y342288D01*
Y342316D01*
X221592Y342496D01*
X221578Y342663D01*
X221495Y342982D01*
X221370Y343259D01*
X221231Y343495D01*
X221092Y343703D01*
X220968Y343842D01*
X220926Y343897D01*
X220884Y343939D01*
X220870Y343952D01*
X220857Y343966D01*
X220718Y344091D01*
X220565Y344202D01*
X220413Y344285D01*
X220260Y344369D01*
X219955Y344493D01*
X219678Y344577D01*
X219428Y344618D01*
X219317Y344646D01*
X219220D01*
X219151Y344660D01*
D02*
G37*
G36*
X225184Y344438D02*
X223492D01*
Y335562D01*
X225988D01*
X226362Y335576D01*
X226695Y335604D01*
X226986Y335659D01*
X227222Y335715D01*
X227416Y335756D01*
X227555Y335812D01*
X227638Y335840D01*
X227666Y335853D01*
X227888Y335978D01*
X228082Y336131D01*
X228262Y336283D01*
X228401Y336422D01*
X228526Y336561D01*
X228609Y336672D01*
X228664Y336741D01*
X228678Y336769D01*
X228803Y337004D01*
X228900Y337240D01*
X228970Y337476D01*
X229025Y337684D01*
X229053Y337878D01*
X229067Y338017D01*
Y338142D01*
X229053Y338419D01*
X229011Y338683D01*
X228942Y338904D01*
X228873Y339112D01*
X228803Y339265D01*
X228734Y339390D01*
X228692Y339459D01*
X228678Y339487D01*
X228526Y339695D01*
X228332Y339875D01*
X228137Y340042D01*
X227943Y340180D01*
X227777Y340291D01*
X227638Y340374D01*
X227583Y340402D01*
X227541Y340430D01*
X227513Y340444D01*
X227500D01*
X227666Y340583D01*
X227819Y340721D01*
X227929Y340846D01*
X228027Y340971D01*
X228096Y341068D01*
X228151Y341151D01*
X228179Y341207D01*
X228193Y341220D01*
X228262Y341373D01*
X228318Y341539D01*
X228359Y341692D01*
X228387Y341831D01*
X228401Y341955D01*
X228415Y342052D01*
Y342108D01*
Y342136D01*
X228401Y342413D01*
X228346Y342677D01*
X228262Y342898D01*
X228179Y343106D01*
X228082Y343259D01*
X228013Y343384D01*
X227957Y343453D01*
X227929Y343481D01*
X227735Y343689D01*
X227527Y343855D01*
X227319Y343994D01*
X227125Y344091D01*
X226945Y344174D01*
X226792Y344230D01*
X226751Y344244D01*
X226709Y344258D01*
X226681Y344272D01*
X226667D01*
X226556Y344299D01*
X226432Y344327D01*
X226154Y344369D01*
X225849Y344396D01*
X225558Y344424D01*
X225294D01*
X225184Y344438D01*
D02*
G37*
%LPD*%
G36*
X225808Y342815D02*
X225988Y342788D01*
X226140Y342746D01*
X226265Y342704D01*
X226362Y342663D01*
X226432Y342621D01*
X226473Y342593D01*
X226487Y342579D01*
X226584Y342482D01*
X226654Y342371D01*
X226709Y342261D01*
X226737Y342150D01*
X226765Y342052D01*
X226778Y341983D01*
Y341928D01*
Y341914D01*
X226765Y341761D01*
X226737Y341623D01*
X226681Y341498D01*
X226626Y341401D01*
X226570Y341317D01*
X226515Y341262D01*
X226487Y341220D01*
X226473Y341207D01*
X226348Y341123D01*
X226196Y341068D01*
X226043Y341012D01*
X225891Y340985D01*
X225752Y340971D01*
X225641Y340957D01*
X225170D01*
Y342829D01*
X225600D01*
X225808Y342815D01*
D02*
G37*
G36*
X225863Y339431D02*
X226168Y339390D01*
X226418Y339334D01*
X226612Y339279D01*
X226765Y339223D01*
X226875Y339168D01*
X226945Y339126D01*
X226959Y339112D01*
X227111Y338974D01*
X227222Y338835D01*
X227292Y338683D01*
X227347Y338530D01*
X227375Y338405D01*
X227402Y338294D01*
Y338225D01*
Y338197D01*
X227389Y338017D01*
X227347Y337864D01*
X227278Y337739D01*
X227222Y337629D01*
X227153Y337545D01*
X227083Y337490D01*
X227042Y337448D01*
X227028Y337434D01*
X226945Y337393D01*
X226862Y337351D01*
X226640Y337282D01*
X226404Y337240D01*
X226168Y337199D01*
X225946Y337185D01*
X225849D01*
X225752Y337171D01*
X225170D01*
Y339445D01*
X225516D01*
X225863Y339431D01*
D02*
G37*
%LPC*%
G36*
X205648Y27222D02*
X205500D01*
X205241Y27203D01*
X205000Y27185D01*
X204556Y27092D01*
X204167Y26944D01*
X203834Y26777D01*
X203556Y26611D01*
X203445Y26537D01*
X203352Y26481D01*
X203278Y26407D01*
X203222Y26370D01*
X203204Y26351D01*
X203185Y26333D01*
X203019Y26166D01*
X202889Y25981D01*
X202759Y25814D01*
X202648Y25629D01*
X202482Y25277D01*
X202371Y24944D01*
X202315Y24648D01*
X202297Y24537D01*
X202278Y24426D01*
X202260Y24333D01*
Y24277D01*
Y24240D01*
Y24222D01*
X202278Y23907D01*
X202352Y23592D01*
X202445Y23296D01*
X202537Y23037D01*
X202648Y22815D01*
X202722Y22648D01*
X202796Y22537D01*
X202815Y22518D01*
Y22500D01*
X202926Y22333D01*
X203074Y22148D01*
X203259Y21963D01*
X203445Y21759D01*
X203852Y21352D01*
X204278Y20963D01*
X204667Y20611D01*
X204852Y20463D01*
X205000Y20333D01*
X205130Y20222D01*
X205222Y20148D01*
X205296Y20093D01*
X205315Y20074D01*
X205667Y19778D01*
X205944Y19537D01*
X206166Y19315D01*
X206333Y19148D01*
X206463Y19000D01*
X206555Y18908D01*
X206592Y18852D01*
X206611Y18834D01*
X206722Y18685D01*
X206796Y18537D01*
X206852Y18408D01*
X206889Y18297D01*
X206907Y18185D01*
X206926Y18111D01*
Y18056D01*
Y18037D01*
X206907Y17871D01*
X206870Y17723D01*
X206796Y17593D01*
X206722Y17482D01*
X206648Y17389D01*
X206574Y17315D01*
X206537Y17278D01*
X206518Y17260D01*
X206370Y17149D01*
X206204Y17075D01*
X206037Y17000D01*
X205889Y16963D01*
X205759Y16945D01*
X205648Y16926D01*
X205555D01*
X205352Y16945D01*
X205148Y17000D01*
X204963Y17075D01*
X204778Y17167D01*
X204445Y17426D01*
X204167Y17723D01*
X203926Y18000D01*
X203741Y18260D01*
X203685Y18352D01*
X203630Y18426D01*
X203611Y18482D01*
X203593Y18500D01*
X201704Y17352D01*
X201963Y16889D01*
X202241Y16482D01*
X202500Y16149D01*
X202759Y15871D01*
X202963Y15667D01*
X203148Y15501D01*
X203259Y15426D01*
X203278Y15389D01*
X203297D01*
X203667Y15186D01*
X204037Y15038D01*
X204408Y14927D01*
X204759Y14852D01*
X205056Y14815D01*
X205185Y14797D01*
X205296D01*
X205370Y14778D01*
X205500D01*
X205796Y14797D01*
X206074Y14815D01*
X206592Y14927D01*
X207055Y15075D01*
X207241Y15167D01*
X207426Y15260D01*
X207592Y15334D01*
X207722Y15426D01*
X207852Y15501D01*
X207944Y15575D01*
X208018Y15630D01*
X208092Y15686D01*
X208111Y15704D01*
X208129Y15723D01*
X208314Y15908D01*
X208463Y16093D01*
X208611Y16297D01*
X208722Y16501D01*
X208907Y16889D01*
X209018Y17278D01*
X209092Y17612D01*
X209111Y17741D01*
X209129Y17871D01*
X209148Y17963D01*
Y18111D01*
X209129Y18389D01*
X209111Y18648D01*
X209055Y18889D01*
X209000Y19093D01*
X208944Y19259D01*
X208907Y19389D01*
X208870Y19463D01*
X208851Y19500D01*
X208722Y19741D01*
X208592Y19963D01*
X208426Y20185D01*
X208259Y20389D01*
X208129Y20574D01*
X208000Y20704D01*
X207926Y20778D01*
X207889Y20815D01*
X207833Y20870D01*
X207740Y20944D01*
X207518Y21148D01*
X207278Y21370D01*
X207000Y21593D01*
X206741Y21815D01*
X206518Y22000D01*
X206444Y22074D01*
X206370Y22129D01*
X206333Y22148D01*
X206315Y22167D01*
X206074Y22370D01*
X205852Y22574D01*
X205648Y22741D01*
X205481Y22889D01*
X205333Y23037D01*
X205185Y23166D01*
X204981Y23370D01*
X204833Y23518D01*
X204741Y23611D01*
X204685Y23666D01*
X204667Y23685D01*
X204556Y23889D01*
X204500Y24074D01*
Y24148D01*
X204482Y24203D01*
Y24240D01*
Y24259D01*
X204500Y24370D01*
X204519Y24463D01*
X204630Y24648D01*
X204722Y24759D01*
X204741Y24777D01*
X204759Y24796D01*
X204870Y24870D01*
X204981Y24944D01*
X205222Y25000D01*
X205333Y25018D01*
X205407Y25037D01*
X205481D01*
X205648Y25018D01*
X205815Y24981D01*
X205981Y24925D01*
X206148Y24852D01*
X206444Y24648D01*
X206703Y24426D01*
X206944Y24203D01*
X207111Y24000D01*
X207166Y23926D01*
X207222Y23870D01*
X207241Y23833D01*
X207259Y23814D01*
X208944Y25296D01*
X208592Y25666D01*
X208277Y26000D01*
X207981Y26259D01*
X207703Y26462D01*
X207500Y26611D01*
X207333Y26722D01*
X207222Y26777D01*
X207204Y26796D01*
X207185D01*
X206889Y26944D01*
X206592Y27036D01*
X206296Y27111D01*
X206037Y27166D01*
X205815Y27203D01*
X205648Y27222D01*
D02*
G37*
G36*
X225276Y26925D02*
X218702D01*
Y24703D01*
X220813D01*
Y15075D01*
X223109D01*
Y24703D01*
X225276D01*
Y26925D01*
D02*
G37*
G36*
X217777D02*
X211314D01*
Y15075D01*
X217777D01*
Y17297D01*
X213555D01*
Y20408D01*
X217777D01*
Y22592D01*
X213555D01*
Y24740D01*
X217777D01*
Y26925D01*
D02*
G37*
G36*
X200630D02*
X194168D01*
Y15075D01*
X200630D01*
Y17297D01*
X196408D01*
Y20408D01*
X200630D01*
Y22592D01*
X196408D01*
Y24740D01*
X200630D01*
Y26925D01*
D02*
G37*
G36*
X187428D02*
X184724D01*
Y15075D01*
X186965D01*
Y20093D01*
X187169D01*
X189853Y15075D01*
X192316D01*
X189502Y20333D01*
X189890Y20500D01*
X190242Y20685D01*
X190539Y20889D01*
X190761Y21074D01*
X190946Y21259D01*
X191075Y21389D01*
X191168Y21481D01*
X191187Y21518D01*
X191372Y21833D01*
X191520Y22167D01*
X191612Y22481D01*
X191687Y22796D01*
X191724Y23074D01*
X191761Y23296D01*
Y23370D01*
Y23426D01*
Y23463D01*
Y23481D01*
X191742Y23889D01*
X191687Y24259D01*
X191594Y24574D01*
X191501Y24870D01*
X191409Y25092D01*
X191316Y25259D01*
X191261Y25370D01*
X191242Y25407D01*
X191038Y25685D01*
X190816Y25925D01*
X190594Y26129D01*
X190390Y26296D01*
X190205Y26425D01*
X190039Y26499D01*
X189946Y26555D01*
X189928Y26574D01*
X189909D01*
X189742Y26629D01*
X189557Y26685D01*
X189113Y26777D01*
X188650Y26833D01*
X188205Y26888D01*
X187983D01*
X187780Y26907D01*
X187594D01*
X187428Y26925D01*
D02*
G37*
%LPD*%
G36*
X188150Y24703D02*
X188372Y24685D01*
X188539Y24666D01*
X188668Y24629D01*
X188742Y24611D01*
X188798Y24592D01*
X188817D01*
X189057Y24463D01*
X189224Y24333D01*
X189335Y24222D01*
X189372Y24185D01*
Y24166D01*
X189446Y24055D01*
X189483Y23944D01*
X189557Y23722D01*
Y23629D01*
X189576Y23574D01*
Y23518D01*
Y23500D01*
X189557Y23278D01*
X189502Y23074D01*
X189446Y22926D01*
X189372Y22796D01*
X189279Y22703D01*
X189224Y22629D01*
X189168Y22592D01*
X189150Y22574D01*
X188965Y22481D01*
X188742Y22407D01*
X188502Y22370D01*
X188261Y22333D01*
X188039Y22315D01*
X187835Y22296D01*
X186965D01*
Y24722D01*
X187891D01*
X188150Y24703D01*
D02*
G37*
%LPC*%
G36*
X50546Y240925D02*
X47842D01*
Y229075D01*
X50083D01*
Y234093D01*
X50286D01*
X52971Y229075D01*
X55434D01*
X52619Y234333D01*
X53008Y234500D01*
X53360Y234685D01*
X53656Y234889D01*
X53878Y235074D01*
X54064Y235259D01*
X54193Y235389D01*
X54286Y235481D01*
X54304Y235518D01*
X54489Y235833D01*
X54638Y236167D01*
X54730Y236481D01*
X54804Y236796D01*
X54841Y237074D01*
X54878Y237296D01*
Y237370D01*
Y237426D01*
Y237463D01*
Y237481D01*
X54860Y237889D01*
X54804Y238259D01*
X54712Y238574D01*
X54619Y238870D01*
X54527Y239092D01*
X54434Y239259D01*
X54378Y239370D01*
X54360Y239407D01*
X54156Y239685D01*
X53934Y239925D01*
X53712Y240129D01*
X53508Y240296D01*
X53323Y240425D01*
X53156Y240499D01*
X53064Y240555D01*
X53045Y240574D01*
X53027D01*
X52860Y240629D01*
X52675Y240685D01*
X52231Y240777D01*
X51768Y240833D01*
X51323Y240888D01*
X51101D01*
X50897Y240907D01*
X50712D01*
X50546Y240925D01*
D02*
G37*
G36*
X40972D02*
X38269D01*
Y229075D01*
X40510D01*
Y234093D01*
X40713D01*
X43398Y229075D01*
X45861D01*
X43046Y234333D01*
X43435Y234500D01*
X43787Y234685D01*
X44083Y234889D01*
X44305Y235074D01*
X44490Y235259D01*
X44620Y235389D01*
X44713Y235481D01*
X44731Y235518D01*
X44916Y235833D01*
X45065Y236167D01*
X45157Y236481D01*
X45231Y236796D01*
X45268Y237074D01*
X45305Y237296D01*
Y237370D01*
Y237426D01*
Y237463D01*
Y237481D01*
X45287Y237889D01*
X45231Y238259D01*
X45139Y238574D01*
X45046Y238870D01*
X44953Y239092D01*
X44861Y239259D01*
X44805Y239370D01*
X44787Y239407D01*
X44583Y239685D01*
X44361Y239925D01*
X44139Y240129D01*
X43935Y240296D01*
X43750Y240425D01*
X43583Y240499D01*
X43491Y240555D01*
X43472Y240574D01*
X43454D01*
X43287Y240629D01*
X43102Y240685D01*
X42657Y240777D01*
X42194Y240833D01*
X41750Y240888D01*
X41528D01*
X41324Y240907D01*
X41139D01*
X40972Y240925D01*
D02*
G37*
G36*
X36028D02*
X29566D01*
Y229075D01*
X36028D01*
Y231297D01*
X31807D01*
Y234408D01*
X36028D01*
Y236592D01*
X31807D01*
Y238740D01*
X36028D01*
Y240925D01*
D02*
G37*
%LPD*%
G36*
X51268Y238703D02*
X51490Y238685D01*
X51656Y238666D01*
X51786Y238629D01*
X51860Y238611D01*
X51916Y238592D01*
X51934D01*
X52175Y238463D01*
X52342Y238333D01*
X52453Y238222D01*
X52490Y238185D01*
Y238166D01*
X52564Y238055D01*
X52601Y237944D01*
X52675Y237722D01*
Y237629D01*
X52693Y237574D01*
Y237518D01*
Y237500D01*
X52675Y237278D01*
X52619Y237074D01*
X52564Y236926D01*
X52490Y236796D01*
X52397Y236703D01*
X52342Y236630D01*
X52286Y236592D01*
X52267Y236574D01*
X52082Y236481D01*
X51860Y236407D01*
X51619Y236370D01*
X51379Y236333D01*
X51157Y236315D01*
X50953Y236296D01*
X50083D01*
Y238722D01*
X51008D01*
X51268Y238703D01*
D02*
G37*
G36*
X41694D02*
X41917Y238685D01*
X42083Y238666D01*
X42213Y238629D01*
X42287Y238611D01*
X42343Y238592D01*
X42361D01*
X42602Y238463D01*
X42769Y238333D01*
X42880Y238222D01*
X42917Y238185D01*
Y238166D01*
X42991Y238055D01*
X43028Y237944D01*
X43102Y237722D01*
Y237629D01*
X43120Y237574D01*
Y237518D01*
Y237500D01*
X43102Y237278D01*
X43046Y237074D01*
X42991Y236926D01*
X42917Y236796D01*
X42824Y236703D01*
X42769Y236630D01*
X42713Y236592D01*
X42694Y236574D01*
X42509Y236481D01*
X42287Y236407D01*
X42046Y236370D01*
X41806Y236333D01*
X41583Y236315D01*
X41380Y236296D01*
X40510D01*
Y238722D01*
X41435D01*
X41694Y238703D01*
D02*
G37*
D10*
X91000Y248000D02*
G03*
X91000Y248000I-1250J0D01*
G01*
X407950Y333031D02*
G03*
X407950Y333031I-1250J0D01*
G01*
X424250Y223750D02*
G03*
X424250Y223750I-1250J0D01*
G01*
X407450Y141281D02*
G03*
X407450Y141281I-1250J0D01*
G01*
X407200Y226031D02*
G03*
X407200Y226031I-1250J0D01*
G01*
D11*
X114000Y237000D02*
G03*
X114000Y237000I-3000J0D01*
G01*
D12*
X60500Y168500D02*
G03*
X60500Y168500I-1000J0D01*
G01*
X101000Y115000D02*
Y247000D01*
Y115000D02*
X233000D01*
X101000Y247000D02*
X233000D01*
Y115000D02*
Y247000D01*
X411750Y282013D02*
Y300987D01*
X312750Y282013D02*
X411750D01*
X312750Y300987D02*
X411750D01*
X312750Y282013D02*
Y300987D01*
X489500Y237500D02*
Y268500D01*
X422500Y237500D02*
Y268500D01*
X489500D01*
X422500Y237500D02*
X489500D01*
X312250Y109237D02*
X411250D01*
X312250Y90263D02*
Y109237D01*
Y90263D02*
X411250D01*
Y109237D01*
X312000Y193987D02*
X411000D01*
X312000Y175013D02*
Y193987D01*
Y175013D02*
X411000D01*
Y193987D01*
X72750Y325550D02*
X79450Y332250D01*
X72750Y313950D02*
Y325550D01*
Y313950D02*
X79450Y307250D01*
X221250D02*
X227750Y313750D01*
Y325750D01*
X221250Y332250D02*
X227750Y325750D01*
X143334Y63332D02*
X141668Y64998D01*
X138336D01*
X136669Y63332D01*
Y61666D01*
X138336Y60000D01*
X141668D01*
X143334Y58334D01*
Y56668D01*
X141668Y55002D01*
X138336D01*
X136669Y56668D01*
X153331Y55002D02*
X146666D01*
X153331Y61666D01*
Y63332D01*
X151664Y64998D01*
X148332D01*
X146666Y63332D01*
X380000Y48332D02*
X378334Y49998D01*
X375002D01*
X373335Y48332D01*
Y46666D01*
X375002Y45000D01*
X378334D01*
X380000Y43334D01*
Y41668D01*
X378334Y40002D01*
X375002D01*
X373335Y41668D01*
X383332Y40002D02*
X386665D01*
X384998D01*
Y49998D01*
X383332Y48332D01*
X281671Y204998D02*
Y195002D01*
X286669D01*
X288335Y196668D01*
Y203332D01*
X286669Y204998D01*
X281671D01*
X291668D02*
Y195002D01*
X296666D01*
X298332Y196668D01*
Y203332D01*
X296666Y204998D01*
X291668D01*
X306663Y195002D02*
Y204998D01*
X301665Y200000D01*
X308329D01*
X281671Y309998D02*
Y300002D01*
X286669D01*
X288335Y301668D01*
Y308332D01*
X286669Y309998D01*
X281671D01*
X291668D02*
Y300002D01*
X296666D01*
X298332Y301668D01*
Y308332D01*
X296666Y309998D01*
X291668D01*
X301665Y308332D02*
X303331Y309998D01*
X306663D01*
X308329Y308332D01*
Y306666D01*
X306663Y305000D01*
X304997D01*
X306663D01*
X308329Y303334D01*
Y301668D01*
X306663Y300002D01*
X303331D01*
X301665Y301668D01*
X297502Y89171D02*
X307498D01*
Y94169D01*
X305832Y95836D01*
X299168D01*
X297502Y94169D01*
Y89171D01*
Y99168D02*
X307498D01*
Y104166D01*
X305832Y105832D01*
X299168D01*
X297502Y104166D01*
Y99168D01*
X307498Y115829D02*
Y109164D01*
X300834Y115829D01*
X299168D01*
X297502Y114163D01*
Y110831D01*
X299168Y109164D01*
X10002Y168337D02*
Y175002D01*
X11668D01*
X18332Y168337D01*
X19998D01*
Y175002D01*
X18332Y184998D02*
X11668D01*
X10002Y183332D01*
Y180000D01*
X11668Y178334D01*
X18332D01*
X19998Y180000D01*
Y183332D01*
X16666Y181666D02*
X19998Y184998D01*
Y183332D02*
X18332Y184998D01*
X19998Y188331D02*
Y191663D01*
Y189997D01*
X10002D01*
X11668Y188331D01*
X233337Y324998D02*
X240002Y315002D01*
Y324998D02*
X233337Y315002D01*
X243334D02*
Y324998D01*
X248332D01*
X249998Y323332D01*
Y320000D01*
X248332Y318334D01*
X243334D01*
X253331Y315002D02*
X256663D01*
X254997D01*
Y324998D01*
X253331Y323332D01*
X484252Y152587D02*
X490916D01*
X494248Y155919D01*
X490916Y159252D01*
X484252D01*
Y162584D02*
X494248D01*
Y167582D01*
X492582Y169248D01*
X485918D01*
X484252Y167582D01*
Y162584D01*
X494248Y172581D02*
Y175913D01*
Y174247D01*
X484252D01*
X485918Y172581D01*
X436669Y85002D02*
Y94998D01*
X441668D01*
X443334Y93332D01*
Y90000D01*
X441668Y88334D01*
X436669D01*
X440002D02*
X443334Y85002D01*
X453331Y94998D02*
X449998Y93332D01*
X446666Y90000D01*
Y86668D01*
X448332Y85002D01*
X451665D01*
X453331Y86668D01*
Y88334D01*
X451665Y90000D01*
X446666D01*
X41669Y55002D02*
Y64998D01*
X46668D01*
X48334Y63332D01*
Y60000D01*
X46668Y58334D01*
X41669D01*
X45002D02*
X48334Y55002D01*
X56665D02*
Y64998D01*
X51666Y60000D01*
X58331D01*
X6669Y225002D02*
Y234998D01*
X11668D01*
X13334Y233332D01*
Y230000D01*
X11668Y228334D01*
X6669D01*
X10002D02*
X13334Y225002D01*
X23331D02*
X16666D01*
X23331Y231666D01*
Y233332D01*
X21665Y234998D01*
X18332D01*
X16666Y233332D01*
X253335Y40002D02*
Y49998D01*
X258334D01*
X260000Y48332D01*
Y45000D01*
X258334Y43334D01*
X253335D01*
X256668D02*
X260000Y40002D01*
X263332D02*
X266665D01*
X264998D01*
Y49998D01*
X263332Y48332D01*
X426921Y117998D02*
Y108002D01*
Y113000D01*
X433586D01*
Y117998D01*
Y108002D01*
X436918Y117998D02*
Y108002D01*
X443582D01*
X446914Y116332D02*
X448581Y117998D01*
X451913D01*
X453579Y116332D01*
Y114666D01*
X451913Y113000D01*
X450247D01*
X451913D01*
X453579Y111334D01*
Y109668D01*
X451913Y108002D01*
X448581D01*
X446914Y109668D01*
X75002Y276671D02*
X84998D01*
X80000D01*
Y283335D01*
X75002D01*
X84998D01*
X75002Y286668D02*
X84998D01*
Y293332D01*
Y303329D02*
Y296665D01*
X78334Y303329D01*
X76668D01*
X75002Y301663D01*
Y298331D01*
X76668Y296665D01*
X75002Y248337D02*
X84998D01*
X80000D01*
Y255002D01*
X75002D01*
X84998D01*
X75002Y258334D02*
X84998D01*
Y264998D01*
Y268331D02*
Y271663D01*
Y269997D01*
X75002D01*
X76668Y268331D01*
X203337Y279998D02*
Y270002D01*
X208335D01*
X210002Y271668D01*
Y278332D01*
X208335Y279998D01*
X203337D01*
X213334D02*
Y270002D01*
X218332D01*
X219998Y271668D01*
Y278332D01*
X218332Y279998D01*
X213334D01*
X223331Y270002D02*
X226663D01*
X224997D01*
Y279998D01*
X223331Y278332D01*
X420835Y287498D02*
Y277502D01*
X425834D01*
X427500Y279168D01*
Y285832D01*
X425834Y287498D01*
X420835D01*
X430832Y277502D02*
X434165D01*
X432498D01*
Y287498D01*
X430832Y285832D01*
X447169Y154582D02*
X445502Y156248D01*
X442170D01*
X440504Y154582D01*
Y147918D01*
X442170Y146252D01*
X445502D01*
X447169Y147918D01*
X450501Y146252D02*
X453833D01*
X452167D01*
Y156248D01*
X450501Y154582D01*
X458831Y156248D02*
X465496D01*
Y154582D01*
X458831Y147918D01*
Y146252D01*
X472168Y158168D02*
X470502Y156502D01*
Y153170D01*
X472168Y151504D01*
X478832D01*
X480498Y153170D01*
Y156502D01*
X478832Y158168D01*
X480498Y161501D02*
Y164833D01*
Y163167D01*
X470502D01*
X472168Y161501D01*
X470502Y176496D02*
X472168Y173164D01*
X475500Y169831D01*
X478832D01*
X480498Y171498D01*
Y174830D01*
X478832Y176496D01*
X477166D01*
X475500Y174830D01*
Y169831D01*
X39169Y78332D02*
X37502Y79998D01*
X34170D01*
X32504Y78332D01*
Y71668D01*
X34170Y70002D01*
X37502D01*
X39169Y71668D01*
X42501Y70002D02*
X45833D01*
X44167D01*
Y79998D01*
X42501Y78332D01*
X57496Y79998D02*
X50831D01*
Y75000D01*
X54164Y76666D01*
X55830D01*
X57496Y75000D01*
Y71668D01*
X55830Y70002D01*
X52498D01*
X50831Y71668D01*
X279169Y48332D02*
X277502Y49998D01*
X274170D01*
X272504Y48332D01*
Y41668D01*
X274170Y40002D01*
X277502D01*
X279169Y41668D01*
X282501Y40002D02*
X285833D01*
X284167D01*
Y49998D01*
X282501Y48332D01*
X295830Y40002D02*
Y49998D01*
X290832Y45000D01*
X297496D01*
X263648Y141617D02*
X261982Y143283D01*
X258650D01*
X256984Y141617D01*
Y134952D01*
X258650Y133286D01*
X261982D01*
X263648Y134952D01*
X266981Y133286D02*
X270313D01*
X268647D01*
Y143283D01*
X266981Y141617D01*
X275311D02*
X276978Y143283D01*
X280310D01*
X281976Y141617D01*
Y139951D01*
X280310Y138284D01*
X278644D01*
X280310D01*
X281976Y136618D01*
Y134952D01*
X280310Y133286D01*
X276978D01*
X275311Y134952D01*
X231668Y70832D02*
X230002Y72498D01*
X226670D01*
X225004Y70832D01*
Y64168D01*
X226670Y62502D01*
X230002D01*
X231668Y64168D01*
X235001Y62502D02*
X238333D01*
X236667D01*
Y72498D01*
X235001Y70832D01*
X249996Y62502D02*
X243332D01*
X249996Y69166D01*
Y70832D01*
X248330Y72498D01*
X244998D01*
X243332Y70832D01*
X138335Y85832D02*
X136669Y87498D01*
X133336D01*
X131670Y85832D01*
Y79168D01*
X133336Y77502D01*
X136669D01*
X138335Y79168D01*
X141667Y77502D02*
X144999D01*
X143333D01*
Y87498D01*
X141667Y85832D01*
X149998Y77502D02*
X153330D01*
X151664D01*
Y87498D01*
X149998Y85832D01*
X13334Y213332D02*
X11668Y214998D01*
X8335D01*
X6669Y213332D01*
Y206668D01*
X8335Y205002D01*
X11668D01*
X13334Y206668D01*
X16666D02*
X18332Y205002D01*
X21665D01*
X23331Y206668D01*
Y213332D01*
X21665Y214998D01*
X18332D01*
X16666Y213332D01*
Y211666D01*
X18332Y210000D01*
X23331D01*
X68334Y228332D02*
X66668Y229998D01*
X63335D01*
X61669Y228332D01*
Y221668D01*
X63335Y220002D01*
X66668D01*
X68334Y221668D01*
X71666Y228332D02*
X73332Y229998D01*
X76665D01*
X78331Y228332D01*
Y226666D01*
X76665Y225000D01*
X78331Y223334D01*
Y221668D01*
X76665Y220002D01*
X73332D01*
X71666Y221668D01*
Y223334D01*
X73332Y225000D01*
X71666Y226666D01*
Y228332D01*
X73332Y225000D02*
X76665D01*
X132070Y282318D02*
X130404Y283984D01*
X127071D01*
X125405Y282318D01*
Y275654D01*
X127071Y273988D01*
X130404D01*
X132070Y275654D01*
X135402Y283984D02*
X142067D01*
Y282318D01*
X135402Y275654D01*
Y273988D01*
X15834Y153332D02*
X14168Y154998D01*
X10835D01*
X9169Y153332D01*
Y146668D01*
X10835Y145002D01*
X14168D01*
X15834Y146668D01*
X25831Y154998D02*
X22498Y153332D01*
X19166Y150000D01*
Y146668D01*
X20832Y145002D01*
X24165D01*
X25831Y146668D01*
Y148334D01*
X24165Y150000D01*
X19166D01*
X263334Y263332D02*
X261668Y264998D01*
X258335D01*
X256669Y263332D01*
Y256668D01*
X258335Y255002D01*
X261668D01*
X263334Y256668D01*
X273331Y264998D02*
X266666D01*
Y260000D01*
X269998Y261666D01*
X271665D01*
X273331Y260000D01*
Y256668D01*
X271665Y255002D01*
X268332D01*
X266666Y256668D01*
X30834Y135832D02*
X29168Y137498D01*
X25835D01*
X24169Y135832D01*
Y129168D01*
X25835Y127502D01*
X29168D01*
X30834Y129168D01*
X39165Y127502D02*
Y137498D01*
X34166Y132500D01*
X40831D01*
X30834Y120832D02*
X29168Y122498D01*
X25835D01*
X24169Y120832D01*
Y114168D01*
X25835Y112502D01*
X29168D01*
X30834Y114168D01*
X40831Y112502D02*
X34166D01*
X40831Y119166D01*
Y120832D01*
X39165Y122498D01*
X35832D01*
X34166Y120832D01*
D13*
X485500Y204500D02*
G03*
X485500Y204500I-500J0D01*
G01*
D14*
X284000Y16750D02*
Y26750D01*
X268500Y16750D02*
Y26750D01*
X271750Y21750D02*
X280750D01*
X254000Y16500D02*
Y26500D01*
X268500Y16500D02*
Y26500D01*
X323000Y22500D02*
X353000D01*
Y37500D01*
X323000D02*
X353000D01*
X323000Y22500D02*
Y37500D01*
X369000Y11000D02*
Y22000D01*
Y38000D02*
Y49000D01*
X307000Y38000D02*
Y49000D01*
Y11000D02*
Y22000D01*
Y11000D02*
X369000D01*
X307000Y49000D02*
X369000D01*
X110000Y22500D02*
X140000D01*
Y37500D01*
X110000D02*
X140000D01*
X110000Y22500D02*
Y37500D01*
X156000Y11000D02*
Y22000D01*
Y38000D02*
Y49000D01*
X94000Y38000D02*
Y49000D01*
Y11000D02*
Y22000D01*
Y11000D02*
X156000D01*
X94000Y49000D02*
X156000D01*
X69000Y73750D02*
X79000D01*
X74000Y61500D02*
Y70500D01*
X69000Y58250D02*
X79000D01*
X485250Y191750D02*
Y198750D01*
X495316Y191808D02*
Y198808D01*
X464000Y81250D02*
X474000D01*
X464000Y95750D02*
X474000D01*
X473000D02*
X479500D01*
Y102250D01*
Y109500D02*
Y121500D01*
X458000Y109500D02*
Y121500D01*
Y95750D02*
X464500D01*
X458000D02*
Y102250D01*
X237000Y79000D02*
Y88000D01*
X232000Y75750D02*
X242000D01*
X232000Y91250D02*
X242000D01*
X114500Y79000D02*
Y88000D01*
X109500Y91250D02*
X119500D01*
X109500Y75750D02*
X119500D01*
X69054Y58000D02*
X79054D01*
X69054Y43500D02*
X79054D01*
X440000Y178250D02*
Y193250D01*
X443500Y185750D02*
X452750D01*
X462000D01*
X465500Y178250D02*
Y193250D01*
X473000Y195000D02*
X482000D01*
X469750Y190000D02*
Y200000D01*
X485250Y190000D02*
Y200000D01*
X260000Y238500D02*
X269000D01*
X256750Y233500D02*
Y243500D01*
X272250Y233500D02*
Y243500D01*
X65000Y203500D02*
X74000D01*
X77250Y198500D02*
Y208500D01*
X61750Y198500D02*
Y208500D01*
X42000Y146500D02*
Y155500D01*
X37000Y158750D02*
X47000D01*
X37000Y143250D02*
X47000D01*
X42000Y204000D02*
Y213000D01*
X37000Y200750D02*
X47000D01*
X37000Y216250D02*
X47000D01*
X65000Y156000D02*
X74000D01*
X61750Y151000D02*
Y161000D01*
X77250Y151000D02*
Y161000D01*
X62000Y129000D02*
Y138000D01*
X57000Y141250D02*
X67000D01*
X57000Y125750D02*
X67000D01*
X62000Y111500D02*
Y120500D01*
X57000Y123750D02*
X67000D01*
X57000Y108250D02*
X67000D01*
X30000Y267500D02*
X36500D01*
X30000Y261000D02*
Y267500D01*
X43750D02*
X55750D01*
X43750Y246000D02*
X55750D01*
X30000D02*
X36500D01*
X30000D02*
Y252500D01*
X22500Y275750D02*
Y285750D01*
X8000Y275750D02*
Y285750D01*
X9000Y245500D02*
Y255500D01*
X23500Y245500D02*
Y255500D01*
X30000Y289000D02*
X36500D01*
X30000Y282500D02*
Y289000D01*
X43750D02*
X55750D01*
X43750Y267500D02*
X55750D01*
X30000D02*
X36500D01*
X30000D02*
Y274000D01*
X109500Y274000D02*
Y283000D01*
X104500Y270750D02*
X114500D01*
X104500Y286250D02*
X114500D01*
X266000Y101000D02*
X272000D01*
X262750Y93250D02*
Y108750D01*
X272000Y101000D02*
X278000D01*
X281250Y93250D02*
Y108750D01*
X10249Y294002D02*
X4251D01*
Y297001D01*
X5251Y298000D01*
X7250D01*
X8250Y297001D01*
Y294002D01*
Y296001D02*
X10249Y298000D01*
X5251Y300000D02*
X4251Y300999D01*
Y302999D01*
X5251Y303998D01*
X6250D01*
X7250Y302999D01*
Y301999D01*
Y302999D01*
X8250Y303998D01*
X9249D01*
X10249Y302999D01*
Y300999D01*
X9249Y300000D01*
X65918Y177333D02*
X64752Y178499D01*
X62419D01*
X61253Y177333D01*
Y172667D01*
X62419Y171501D01*
X64752D01*
X65918Y172667D01*
X68251Y171501D02*
X70583D01*
X69417D01*
Y178499D01*
X68251Y177333D01*
X74082D02*
X75248Y178499D01*
X77581D01*
X78747Y177333D01*
Y172667D01*
X77581Y171501D01*
X75248D01*
X74082Y172667D01*
Y177333D01*
D15*
X52750Y178700D02*
Y180300D01*
X27750Y178700D02*
Y180300D01*
M02*
