M48
;Layer_Color=9474304
;FILE_FORMAT=4:4
METRIC,LZ
;TYPE=PLATED
T01F00S00C0.3000
T02F00S00C1.0000
;TYPE=NON_PLATED
T03F00S00C2.3000
%
T01
X00020254Y00020064
X00019Y00035
X00062Y0003675
X00062Y00052
X00062Y000675
Y00083
X00050255Y00080064
X00037Y00081
X00053Y00108
X00050255Y00140064
X00078Y0014
X00111874Y00139127
X00118Y001345
X00117Y0012675
X00113Y0012
X0011725Y001125
X00133Y00136
X00089Y00071
X00101Y00033
X00109Y00014
X00080254Y00020064
X00050255
X00172Y0001
X00205
X0024
X00269Y00019
X00266Y00041
X00287Y00042
X00307Y0004
X00308Y00016
X0029Y00011
X00327Y0003075
X0034Y00036
X00362Y00035
X003555Y0002725
X00346Y00016
X00382Y00011
X00382324Y00064109
X00356Y00063
X00361Y00077
X00356Y00090125
X00354Y00103
Y00115875
Y00128375
Y00141
X00382Y00135
X00393
X00388Y00141
Y00129
X00393Y00123
X00388Y00117
X00393Y00111
X00388Y00105
X00382Y00111
Y00123
X00329Y0007
X00287Y00079
X00271Y0007
X00234Y00068
X00225Y00066
X00223Y00054
X00228Y00048
X00214Y0007
X00209Y00079
X00205Y00095
Y00107
X00199Y00101
Y00113
X00205Y00119
X00199Y00125
X00204Y00131
X00199Y00137
X00205Y00143
Y00155
X00199Y00149
X00198Y00161
X00225Y00167
X00248Y00179
X00252Y00186
X00255Y00195
X00260254Y00200065
X00267Y00188
X00245Y00191
X00218Y00208
X00200254Y00200065
X00188Y00205
X0018
X00183125Y00198458
X00185254Y00230065
X00179Y00239
X00214Y00233
X00243Y00236
X00269
X00275254Y00230065
X00298Y00236
X00305254Y00230065
X00319Y00216
Y00207
Y00197
X00322Y00176
X0033
X00354Y00153
X00366Y00161
X00382Y00159
X0039Y00161
X00388Y00153
X00393Y00147
X00382
X00374Y00192
X00366
X00369Y00241
X00361
X00391Y00234
Y00227
X00283Y00166
X0015Y0017
X00143Y00147
X00124Y00148
X00118Y0017
X00098Y00178
X00099Y00186
X00100125Y00194059
X0007559Y0019941
X00077Y00208
X00069Y00211
X000645Y00191
X00065255Y00170065
X00062Y001555
X00036Y00164
X00045Y00176
X00017Y0020175
X00129Y00204
T02
X00149Y002305
X001236
X000982
X000728
X000474
X00022
T03
X00026Y00125
M30
