G04*
G04 #@! TF.GenerationSoftware,Altium Limited,Altium Designer,25.1.2 (22)*
G04*
G04 Layer_Color=8388736*
%FSLAX44Y44*%
%MOMM*%
G71*
G04*
G04 #@! TF.SameCoordinates,7ED34E8D-A4F8-468C-8B7F-49A99E5286A2*
G04*
G04*
G04 #@! TF.FilePolarity,Negative*
G04*
G01*
G75*
%ADD32R,2.2000X0.9500*%
%ADD33R,2.2000X3.3000*%
%ADD34R,0.8120X0.8120*%
%ADD35R,0.9500X1.1000*%
%ADD36R,0.8500X1.0000*%
%ADD37R,2.2300X1.6500*%
%ADD38R,2.7562X1.0042*%
%ADD39R,1.4500X2.0500*%
%ADD40R,1.1000X0.9500*%
%ADD41R,1.0000X0.8500*%
%ADD42R,1.4500X1.5500*%
%ADD43O,0.3500X1.5000*%
%ADD44O,1.5000X0.3500*%
%ADD45R,1.2500X0.6500*%
%ADD46R,1.5500X1.4500*%
%ADD47R,1.1000X1.3500*%
%ADD48C,2.0500*%
%ADD49C,2.3500*%
D32*
X348501Y183750D02*
D03*
Y206750D02*
D03*
Y229750D02*
D03*
D33*
X290000Y206750D02*
D03*
D34*
X168890Y229275D02*
D03*
X191750Y219750D02*
D03*
Y238800D02*
D03*
D35*
X333000Y16000D02*
D03*
X317000D02*
D03*
X362000D02*
D03*
X346000D02*
D03*
X366250Y230250D02*
D03*
X382250D02*
D03*
X112750Y202250D02*
D03*
X128750D02*
D03*
X247750Y29250D02*
D03*
X263750D02*
D03*
X133500Y14000D02*
D03*
X117500D02*
D03*
X78000Y155500D02*
D03*
X62000D02*
D03*
X62000Y140000D02*
D03*
X78000D02*
D03*
X78000Y67500D02*
D03*
X62000D02*
D03*
X78000Y52000D02*
D03*
X62000D02*
D03*
X78000Y36750D02*
D03*
X62000D02*
D03*
X78000Y83000D02*
D03*
X62000D02*
D03*
D36*
X385500Y27000D02*
D03*
X372500D02*
D03*
X385500Y64000D02*
D03*
X372500D02*
D03*
X17250Y201500D02*
D03*
X30250D02*
D03*
X19250Y44000D02*
D03*
X32250D02*
D03*
D37*
X287000Y45000D02*
D03*
X379000D02*
D03*
X287000Y82000D02*
D03*
X379000D02*
D03*
D38*
X375250Y182750D02*
D03*
Y215250D02*
D03*
D39*
X295000Y160000D02*
D03*
X331000D02*
D03*
D40*
X272000Y157750D02*
D03*
Y173750D02*
D03*
D41*
X205000Y233250D02*
D03*
Y220250D02*
D03*
X226250Y207500D02*
D03*
Y220500D02*
D03*
D42*
X263250Y214000D02*
D03*
X243250D02*
D03*
D43*
X118000Y185500D02*
D03*
X123000D02*
D03*
X128000D02*
D03*
X133000D02*
D03*
X138000D02*
D03*
X143000D02*
D03*
X148000D02*
D03*
X153000D02*
D03*
X158000D02*
D03*
X163000D02*
D03*
X168000D02*
D03*
X173000D02*
D03*
X178000D02*
D03*
X183000D02*
D03*
X188000D02*
D03*
X193000D02*
D03*
X198000D02*
D03*
X203000D02*
D03*
X208000D02*
D03*
X213000D02*
D03*
X218000D02*
D03*
X223000D02*
D03*
X228000D02*
D03*
X233000D02*
D03*
X238000D02*
D03*
Y31000D02*
D03*
X233000D02*
D03*
X228000D02*
D03*
X223000D02*
D03*
X218000D02*
D03*
X213000D02*
D03*
X208000D02*
D03*
X203000D02*
D03*
X198000D02*
D03*
X193000D02*
D03*
X188000D02*
D03*
X183000D02*
D03*
X178000D02*
D03*
X173000D02*
D03*
X168000D02*
D03*
X163000D02*
D03*
X158000D02*
D03*
X153000D02*
D03*
X148000D02*
D03*
X143000D02*
D03*
X138000D02*
D03*
X133000D02*
D03*
X128000D02*
D03*
X123000D02*
D03*
X118000D02*
D03*
D44*
X255250Y168250D02*
D03*
Y163250D02*
D03*
Y158250D02*
D03*
Y153250D02*
D03*
Y148250D02*
D03*
Y143250D02*
D03*
Y138250D02*
D03*
Y133250D02*
D03*
Y128250D02*
D03*
Y123250D02*
D03*
Y118250D02*
D03*
Y113250D02*
D03*
Y108250D02*
D03*
Y103250D02*
D03*
Y98250D02*
D03*
Y93250D02*
D03*
Y88250D02*
D03*
Y83250D02*
D03*
Y78250D02*
D03*
Y73250D02*
D03*
Y68250D02*
D03*
Y63250D02*
D03*
Y58250D02*
D03*
Y53250D02*
D03*
Y48250D02*
D03*
X100750D02*
D03*
Y53250D02*
D03*
Y58250D02*
D03*
Y63250D02*
D03*
Y68250D02*
D03*
Y73250D02*
D03*
Y78250D02*
D03*
Y83250D02*
D03*
Y88250D02*
D03*
Y93250D02*
D03*
Y98250D02*
D03*
Y103250D02*
D03*
Y108250D02*
D03*
Y113250D02*
D03*
Y118250D02*
D03*
Y123250D02*
D03*
Y128250D02*
D03*
Y133250D02*
D03*
Y138250D02*
D03*
Y143250D02*
D03*
Y148250D02*
D03*
Y153250D02*
D03*
Y158250D02*
D03*
Y163250D02*
D03*
Y168250D02*
D03*
D45*
X87500Y200500D02*
D03*
Y191000D02*
D03*
Y181500D02*
D03*
X64500D02*
D03*
Y191000D02*
D03*
Y200500D02*
D03*
D46*
X25500Y61001D02*
D03*
Y81001D02*
D03*
X23750Y184500D02*
D03*
Y164500D02*
D03*
D47*
X79000Y100000D02*
D03*
Y123000D02*
D03*
X60500D02*
D03*
Y100000D02*
D03*
D48*
X72800Y230500D02*
D03*
X98200D02*
D03*
X123600D02*
D03*
X149000D02*
D03*
X47400D02*
D03*
X22000D02*
D03*
D49*
X26000Y125000D02*
D03*
M02*
