G04*
G04 #@! TF.GenerationSoftware,Altium Limited,Altium Designer,25.1.2 (22)*
G04*
G04 Layer_Physical_Order=4*
G04 Layer_Color=16711680*
%FSLAX44Y44*%
%MOMM*%
G71*
G04*
G04 #@! TF.SameCoordinates,7ED34E8D-A4F8-468C-8B7F-49A99E5286A2*
G04*
G04*
G04 #@! TF.FilePolarity,Positive*
G04*
G01*
G75*
%ADD11C,0.2000*%
%ADD50C,0.1250*%
%ADD52C,0.5000*%
%ADD53C,2.0000*%
%ADD54C,2.3000*%
%ADD55C,0.6000*%
%ADD56R,0.6600X0.3500*%
%ADD57R,0.6600X0.1900*%
G36*
X397451Y151388D02*
X396201Y150870D01*
X395832Y151239D01*
X394155Y151934D01*
X393995Y152000D01*
X393000Y153214D01*
Y153995D01*
X392239Y155832D01*
X392387Y156577D01*
X392832Y156761D01*
X394239Y158168D01*
X395000Y160005D01*
Y161995D01*
X394239Y163832D01*
X392832Y165239D01*
X390995Y166000D01*
X389005D01*
X387168Y165239D01*
X385985Y164056D01*
X385480Y164127D01*
X385029Y164814D01*
X384935Y165366D01*
X385169Y165716D01*
X385518Y167472D01*
Y173000D01*
Y223903D01*
X386728Y224161D01*
X386768Y224161D01*
X388168Y222761D01*
X390005Y222000D01*
X391995D01*
X393832Y222761D01*
X395239Y224168D01*
X396000Y226005D01*
Y227995D01*
X395239Y229832D01*
X394571Y230500D01*
X395239Y231168D01*
X396000Y233005D01*
Y234995D01*
X395239Y236832D01*
X393832Y238239D01*
X391995Y239000D01*
X390005D01*
X388168Y238239D01*
X386761Y236832D01*
X386000Y234995D01*
Y233005D01*
X386761Y231168D01*
X387332Y230597D01*
X386543Y229693D01*
X385360Y229863D01*
X385169Y230826D01*
X384174Y232314D01*
X373651Y242838D01*
X373239Y243832D01*
X371832Y245239D01*
X369995Y246000D01*
X368005D01*
X367011Y245588D01*
X362989D01*
X361995Y246000D01*
X360005D01*
X358168Y245239D01*
X356761Y243832D01*
X356000Y241995D01*
Y240005D01*
X356761Y238168D01*
X358168Y236761D01*
X360005Y236000D01*
X361995D01*
X362989Y236412D01*
X367011D01*
X367162Y236349D01*
X376342Y227170D01*
Y197567D01*
X375302Y196873D01*
X374995Y197000D01*
X373005D01*
X371168Y196239D01*
X370000Y195071D01*
X368832Y196239D01*
X366995Y197000D01*
X365005D01*
X363168Y196239D01*
X361761Y194832D01*
X361000Y192995D01*
Y191005D01*
X361761Y189168D01*
X363168Y187761D01*
X365005Y187000D01*
X366995D01*
X368832Y187761D01*
X370000Y188929D01*
X371168Y187761D01*
X373005Y187000D01*
X374995D01*
X375302Y187127D01*
X376342Y186433D01*
Y181550D01*
X368250D01*
Y174050D01*
Y166833D01*
X367026Y165987D01*
X366995Y166000D01*
X365005D01*
X363168Y165239D01*
X361761Y163832D01*
X361000Y161995D01*
Y160005D01*
X361761Y158168D01*
X362743Y157185D01*
X362128Y156033D01*
X362000Y156059D01*
X362000Y156059D01*
X358405D01*
X358312Y156078D01*
X358220Y156106D01*
X358129Y156142D01*
X358035Y156188D01*
X357935Y156247D01*
X357830Y156322D01*
X357718Y156415D01*
X357550Y156575D01*
X357401Y156670D01*
X356832Y157239D01*
X354995Y158000D01*
X353005D01*
X352974Y157987D01*
X351750Y158833D01*
Y164000D01*
X346450D01*
X341150D01*
Y163676D01*
X288575D01*
X287880Y164716D01*
X288000Y165005D01*
Y166995D01*
X287239Y168832D01*
X285832Y170239D01*
X283995Y171000D01*
X282005D01*
X280168Y170239D01*
X278761Y168832D01*
X278000Y166995D01*
Y165005D01*
X278120Y164716D01*
X277425Y163676D01*
X202720D01*
X202705Y163681D01*
X202629Y163712D01*
X202520Y163769D01*
X202382Y163854D01*
X202239Y163956D01*
X201805Y164326D01*
X201569Y164557D01*
X201411Y164660D01*
X200832Y165239D01*
X198995Y166000D01*
X197005D01*
X195168Y165239D01*
X193761Y163832D01*
X193000Y161995D01*
Y160005D01*
X193761Y158168D01*
X195168Y156761D01*
X197005Y156000D01*
X198845D01*
X198905Y156000D01*
X199755Y155062D01*
X199538Y154003D01*
X198845Y154000D01*
X198005D01*
X196168Y153239D01*
X194761Y151832D01*
X194000Y149995D01*
Y148005D01*
X194761Y146168D01*
X196168Y144761D01*
X198005Y144000D01*
X198845D01*
X199995Y143995D01*
X199999Y143000D01*
X199995Y142005D01*
X198845Y142000D01*
X198005D01*
X196168Y141239D01*
X194761Y139832D01*
X194000Y137995D01*
Y136005D01*
X194761Y134168D01*
X196168Y132761D01*
X197845Y132066D01*
X198005Y132000D01*
X198825Y131000D01*
X198005Y130000D01*
X197845Y129934D01*
X196168Y129239D01*
X194761Y127832D01*
X194000Y125995D01*
Y124005D01*
X194761Y122168D01*
X196168Y120761D01*
X198005Y120000D01*
X198845D01*
X199995Y119995D01*
X199999Y119000D01*
X199995Y118005D01*
X198845Y118000D01*
X198005D01*
X196168Y117239D01*
X194761Y115832D01*
X194000Y113995D01*
Y112005D01*
X194761Y110168D01*
X196168Y108761D01*
X198005Y108000D01*
X198845D01*
X199995Y107995D01*
X199999Y107000D01*
X199995Y106005D01*
X198845Y106000D01*
X198005D01*
X196168Y105239D01*
X194761Y103832D01*
X194000Y101995D01*
Y100005D01*
X194761Y98168D01*
X196168Y96761D01*
X198005Y96000D01*
X198845D01*
X199995Y95995D01*
X200000Y94845D01*
Y94005D01*
X200761Y92168D01*
X202168Y90761D01*
X204005Y90000D01*
X205995D01*
X207832Y90761D01*
X209239Y92168D01*
X210000Y94005D01*
Y94324D01*
X341150D01*
Y91676D01*
X219000D01*
X217976Y91473D01*
X217108Y90892D01*
X217107Y90892D01*
X210445Y84230D01*
X210431Y84223D01*
X210355Y84191D01*
X210239Y84154D01*
X210080Y84117D01*
X209907Y84088D01*
X209338Y84042D01*
X209009Y84039D01*
X208823Y84000D01*
X208005D01*
X206168Y83239D01*
X204761Y81832D01*
X204000Y79995D01*
Y78005D01*
X204761Y76168D01*
X206168Y74761D01*
X208005Y74000D01*
X209161D01*
X209761Y72832D01*
X209000Y70995D01*
Y69005D01*
X209761Y67168D01*
X211168Y65761D01*
X213005Y65000D01*
X214995D01*
X216832Y65761D01*
X218239Y67168D01*
X219000Y69005D01*
Y69801D01*
X219038Y69964D01*
X219060Y70665D01*
X219083Y70880D01*
X219117Y71080D01*
X219154Y71239D01*
X219191Y71356D01*
X219223Y71431D01*
X219230Y71445D01*
X230109Y82324D01*
X281619D01*
X282447Y81074D01*
X282000Y79995D01*
Y78005D01*
X282761Y76168D01*
X284168Y74761D01*
X286005Y74000D01*
X287995D01*
X289832Y74761D01*
X291239Y76168D01*
X292000Y78005D01*
Y79995D01*
X291553Y81074D01*
X292381Y82324D01*
X341150D01*
Y78050D01*
Y68450D01*
X351750D01*
Y73941D01*
X356988D01*
X358168Y72761D01*
X360005Y72000D01*
X361995D01*
X363832Y72761D01*
X364401Y73330D01*
X364550Y73425D01*
X364718Y73585D01*
X364830Y73678D01*
X364935Y73753D01*
X365034Y73812D01*
X365129Y73858D01*
X365220Y73894D01*
X365312Y73922D01*
X365406Y73941D01*
X368250D01*
Y68450D01*
X372084D01*
X372562Y67295D01*
X370943Y65676D01*
X360720D01*
X360705Y65681D01*
X360629Y65712D01*
X360520Y65769D01*
X360382Y65854D01*
X360239Y65956D01*
X359805Y66326D01*
X359569Y66557D01*
X359411Y66660D01*
X358832Y67239D01*
X356995Y68000D01*
X355005D01*
X353168Y67239D01*
X351761Y65832D01*
X351000Y63995D01*
Y62005D01*
X351761Y60168D01*
X353168Y58761D01*
X355005Y58000D01*
X356995D01*
X358832Y58761D01*
X359395Y59324D01*
X359537Y59412D01*
X360048Y59892D01*
X360217Y60028D01*
X360382Y60146D01*
X360520Y60231D01*
X360629Y60288D01*
X360705Y60319D01*
X360720Y60324D01*
X372052D01*
X372052Y60324D01*
X373076Y60527D01*
X373944Y61108D01*
X380617Y67781D01*
X380618Y67781D01*
X381198Y68649D01*
X381401Y69673D01*
Y78727D01*
X381401Y78727D01*
X381198Y79751D01*
X380618Y80619D01*
X380617Y80619D01*
X379519Y81718D01*
X378850Y82165D01*
Y87626D01*
X380005Y88105D01*
X384522Y83587D01*
Y63198D01*
X378001Y56676D01*
X227720D01*
X227705Y56681D01*
X227629Y56712D01*
X227520Y56769D01*
X227382Y56854D01*
X227239Y56956D01*
X226805Y57326D01*
X226569Y57557D01*
X226411Y57660D01*
X225832Y58239D01*
X223995Y59000D01*
X222005D01*
X220168Y58239D01*
X218761Y56832D01*
X218000Y54995D01*
Y53005D01*
X218761Y51168D01*
X220168Y49761D01*
X221845Y49066D01*
X222005Y49000D01*
X223000Y47786D01*
Y47005D01*
X223761Y45168D01*
X225168Y43761D01*
X227005Y43000D01*
X228995D01*
X230832Y43761D01*
X232239Y45168D01*
X232414Y45592D01*
X232445Y45628D01*
X232583Y45875D01*
X232680Y46024D01*
X232762Y46129D01*
X232824Y46195D01*
X232836Y46205D01*
X282501D01*
X282979Y45050D01*
X282761Y44832D01*
X282000Y42995D01*
Y41005D01*
X282761Y39168D01*
X284168Y37761D01*
X286005Y37000D01*
X287995D01*
X289832Y37761D01*
X291239Y39168D01*
X292000Y41005D01*
Y42995D01*
X291239Y44832D01*
X291021Y45050D01*
X291499Y46205D01*
X377526D01*
X377526Y46205D01*
X378550Y46409D01*
X379419Y46989D01*
X391591Y59161D01*
X391591Y59161D01*
X392171Y60030D01*
X392375Y61054D01*
Y87246D01*
X392171Y88270D01*
X391591Y89138D01*
X391591Y89138D01*
X381837Y98892D01*
X380969Y99473D01*
X379945Y99677D01*
X378850Y100094D01*
Y102324D01*
X383280D01*
X383295Y102319D01*
X383371Y102288D01*
X383480Y102231D01*
X383618Y102146D01*
X383761Y102044D01*
X384195Y101674D01*
X384431Y101443D01*
X384590Y101340D01*
X385168Y100761D01*
X387005Y100000D01*
X388995D01*
X390832Y100761D01*
X392239Y102168D01*
X393000Y104005D01*
Y104786D01*
X393995Y106000D01*
X394155Y106066D01*
X395832Y106761D01*
X396201Y107130D01*
X397451Y106612D01*
Y2549D01*
X2549D01*
Y117908D01*
X3799Y118094D01*
X4416Y116060D01*
X6575Y112021D01*
X9480Y108480D01*
X13020Y105575D01*
X17060Y103416D01*
X21442Y102086D01*
X26000Y101637D01*
X30558Y102086D01*
X34940Y103416D01*
X38979Y105575D01*
X42520Y108480D01*
X45425Y112021D01*
X47584Y116060D01*
X48914Y120442D01*
X49363Y125000D01*
X48914Y129558D01*
X47584Y133940D01*
X45425Y137979D01*
X42520Y141520D01*
X38979Y144425D01*
X34940Y146584D01*
X30558Y147914D01*
X26000Y148363D01*
X21442Y147914D01*
X17060Y146584D01*
X13020Y144425D01*
X9480Y141520D01*
X6575Y137979D01*
X4416Y133940D01*
X3799Y131906D01*
X2549Y132092D01*
Y247451D01*
X397451D01*
Y151388D01*
D02*
G37*
G36*
X343181Y160081D02*
X343168Y160137D01*
X343130Y160187D01*
X343068Y160231D01*
X342980Y160269D01*
X342868Y160301D01*
X342730Y160328D01*
X342568Y160348D01*
X342168Y160372D01*
X341931Y160375D01*
Y161625D01*
X342168Y161628D01*
X342730Y161672D01*
X342868Y161699D01*
X342980Y161731D01*
X343068Y161769D01*
X343130Y161814D01*
X343168Y161864D01*
X343181Y161919D01*
Y160081D01*
D02*
G37*
G36*
X368361Y162891D02*
X368587Y162704D01*
X368819Y162539D01*
X369058Y162396D01*
X369303Y162275D01*
X369555Y162176D01*
X369813Y162099D01*
X370079Y162044D01*
X370350Y162011D01*
X370628Y162000D01*
Y160000D01*
X370350Y159989D01*
X370079Y159956D01*
X369813Y159901D01*
X369555Y159824D01*
X369303Y159725D01*
X369058Y159604D01*
X368819Y159461D01*
X368587Y159296D01*
X368361Y159109D01*
X368142Y158900D01*
Y163100D01*
X368361Y162891D01*
D02*
G37*
G36*
X200429Y162820D02*
X200983Y162348D01*
X201251Y162156D01*
X201513Y161994D01*
X201769Y161861D01*
X202020Y161758D01*
X202264Y161684D01*
X202502Y161640D01*
X202734Y161625D01*
Y160375D01*
X202502Y160360D01*
X202264Y160316D01*
X202020Y160242D01*
X201769Y160139D01*
X201513Y160006D01*
X201251Y159844D01*
X200983Y159652D01*
X200709Y159431D01*
X200142Y158900D01*
Y163100D01*
X200429Y162820D01*
D02*
G37*
G36*
X208727Y156558D02*
X208576Y156402D01*
X208223Y155986D01*
X208139Y155865D01*
X208072Y155752D01*
X208022Y155647D01*
X207990Y155552D01*
X207974Y155465D01*
X207975Y155386D01*
X207033Y157206D01*
X207095Y157159D01*
X207161Y157127D01*
X207232Y157112D01*
X207306Y157112D01*
X207385Y157127D01*
X207468Y157159D01*
X207556Y157206D01*
X207647Y157269D01*
X207743Y157347D01*
X207843Y157442D01*
X208727Y156558D01*
D02*
G37*
G36*
X379922Y156836D02*
X379886Y156862D01*
X379844Y156877D01*
X379797Y156879D01*
X379744Y156869D01*
X379687Y156847D01*
X379623Y156813D01*
X379554Y156768D01*
X379480Y156710D01*
X379401Y156640D01*
X379315Y156558D01*
X378432Y157442D01*
X378562Y157575D01*
X378938Y158007D01*
X378995Y158090D01*
X379038Y158163D01*
X379066Y158226D01*
X379079Y158280D01*
X379077Y158323D01*
X379922Y156836D01*
D02*
G37*
G36*
X376832Y157864D02*
X376870Y157814D01*
X376932Y157769D01*
X377020Y157731D01*
X377132Y157699D01*
X377270Y157672D01*
X377432Y157652D01*
X377832Y157628D01*
X378069Y157625D01*
Y156375D01*
X377832Y156372D01*
X377270Y156328D01*
X377132Y156301D01*
X377020Y156269D01*
X376932Y156231D01*
X376870Y156187D01*
X376832Y156137D01*
X376819Y156081D01*
Y157920D01*
X376832Y157864D01*
D02*
G37*
G36*
X343181Y156081D02*
X343168Y156137D01*
X343130Y156187D01*
X343068Y156231D01*
X342980Y156269D01*
X342868Y156301D01*
X342730Y156328D01*
X342568Y156348D01*
X342168Y156372D01*
X341931Y156375D01*
Y157625D01*
X342168Y157628D01*
X342730Y157672D01*
X342868Y157699D01*
X342980Y157731D01*
X343068Y157769D01*
X343130Y157814D01*
X343168Y157864D01*
X343181Y157920D01*
Y156081D01*
D02*
G37*
G36*
X376832Y153872D02*
X376870Y153829D01*
X376932Y153791D01*
X377020Y153759D01*
X377132Y153731D01*
X377270Y153708D01*
X377432Y153691D01*
X377832Y153671D01*
X378069Y153668D01*
Y152418D01*
X377832Y152415D01*
X377432Y152388D01*
X377270Y152364D01*
X377132Y152334D01*
X377020Y152297D01*
X376932Y152253D01*
X376870Y152202D01*
X376832Y152145D01*
X376819Y152080D01*
Y153919D01*
X376832Y153872D01*
D02*
G37*
G36*
X385827Y150931D02*
X385547Y151214D01*
X385001Y151690D01*
X384736Y151883D01*
X384477Y152046D01*
X384222Y152180D01*
X383973Y152284D01*
X383729Y152359D01*
X383490Y152403D01*
X383257Y152418D01*
X383275Y153668D01*
X383506Y153683D01*
X383744Y153727D01*
X383988Y153800D01*
X384239Y153902D01*
X384497Y154034D01*
X384762Y154195D01*
X385033Y154385D01*
X385312Y154604D01*
X385888Y155131D01*
X385827Y150931D01*
D02*
G37*
G36*
X356361Y154891D02*
X356587Y154704D01*
X356819Y154539D01*
X357058Y154396D01*
X357303Y154275D01*
X357555Y154176D01*
X357813Y154099D01*
X358078Y154044D01*
X358350Y154011D01*
X358628Y154000D01*
Y152000D01*
X358350Y151989D01*
X358078Y151956D01*
X357813Y151901D01*
X357555Y151824D01*
X357303Y151725D01*
X357058Y151604D01*
X356819Y151461D01*
X356587Y151296D01*
X356361Y151109D01*
X356142Y150900D01*
Y155100D01*
X356361Y154891D01*
D02*
G37*
G36*
X351858Y150900D02*
X351639Y151109D01*
X351413Y151296D01*
X351181Y151461D01*
X350942Y151604D01*
X350697Y151725D01*
X350445Y151824D01*
X350187Y151901D01*
X349921Y151956D01*
X349650Y151989D01*
X349372Y152000D01*
Y154000D01*
X349650Y154011D01*
X349921Y154044D01*
X350187Y154099D01*
X350445Y154176D01*
X350697Y154275D01*
X350942Y154396D01*
X351181Y154539D01*
X351413Y154704D01*
X351639Y154891D01*
X351858Y155100D01*
Y150900D01*
D02*
G37*
G36*
X343181Y148081D02*
X343168Y148137D01*
X343130Y148187D01*
X343068Y148231D01*
X342980Y148269D01*
X342868Y148301D01*
X342730Y148328D01*
X342568Y148349D01*
X342168Y148372D01*
X341931Y148375D01*
Y149625D01*
X342168Y149628D01*
X342730Y149672D01*
X342868Y149699D01*
X342980Y149731D01*
X343068Y149769D01*
X343130Y149813D01*
X343168Y149864D01*
X343181Y149920D01*
Y148081D01*
D02*
G37*
G36*
X201429Y150820D02*
X201983Y150348D01*
X202251Y150156D01*
X202513Y149994D01*
X202769Y149861D01*
X203020Y149758D01*
X203264Y149684D01*
X203502Y149640D01*
X203734Y149625D01*
Y148375D01*
X203502Y148360D01*
X203264Y148316D01*
X203020Y148242D01*
X202769Y148139D01*
X202513Y148006D01*
X202251Y147844D01*
X201983Y147652D01*
X201709Y147431D01*
X201142Y146900D01*
Y151100D01*
X201429Y150820D01*
D02*
G37*
G36*
X208727Y144558D02*
X208576Y144402D01*
X208223Y143986D01*
X208139Y143865D01*
X208072Y143752D01*
X208022Y143647D01*
X207990Y143552D01*
X207974Y143465D01*
X207975Y143386D01*
X207033Y145206D01*
X207095Y145159D01*
X207161Y145127D01*
X207232Y145112D01*
X207306Y145112D01*
X207385Y145127D01*
X207468Y145159D01*
X207556Y145206D01*
X207647Y145269D01*
X207743Y145347D01*
X207843Y145442D01*
X208727Y144558D01*
D02*
G37*
G36*
X379922Y144836D02*
X379886Y144862D01*
X379844Y144877D01*
X379797Y144879D01*
X379744Y144869D01*
X379687Y144847D01*
X379623Y144813D01*
X379554Y144768D01*
X379480Y144710D01*
X379401Y144640D01*
X379315Y144558D01*
X378432Y145442D01*
X378562Y145575D01*
X378938Y146007D01*
X378995Y146090D01*
X379038Y146163D01*
X379066Y146227D01*
X379079Y146280D01*
X379077Y146323D01*
X379922Y144836D01*
D02*
G37*
G36*
X376832Y145864D02*
X376870Y145814D01*
X376932Y145769D01*
X377020Y145731D01*
X377132Y145699D01*
X377270Y145672D01*
X377432Y145652D01*
X377832Y145628D01*
X378069Y145625D01*
Y144375D01*
X377832Y144372D01*
X377270Y144328D01*
X377132Y144301D01*
X377020Y144269D01*
X376932Y144231D01*
X376870Y144186D01*
X376832Y144136D01*
X376819Y144080D01*
Y145920D01*
X376832Y145864D01*
D02*
G37*
G36*
X343181Y144080D02*
X343168Y144136D01*
X343130Y144186D01*
X343068Y144231D01*
X342980Y144269D01*
X342868Y144301D01*
X342730Y144328D01*
X342568Y144348D01*
X342168Y144372D01*
X341931Y144375D01*
Y145625D01*
X342168Y145628D01*
X342730Y145672D01*
X342868Y145699D01*
X342980Y145731D01*
X343068Y145769D01*
X343130Y145814D01*
X343168Y145864D01*
X343181Y145920D01*
Y144080D01*
D02*
G37*
G36*
X376832Y141863D02*
X376870Y141813D01*
X376932Y141769D01*
X377020Y141731D01*
X377132Y141699D01*
X377270Y141672D01*
X377432Y141651D01*
X377832Y141628D01*
X378069Y141625D01*
Y140375D01*
X377832Y140372D01*
X377270Y140328D01*
X377132Y140301D01*
X377020Y140269D01*
X376932Y140231D01*
X376870Y140187D01*
X376832Y140136D01*
X376819Y140080D01*
Y141919D01*
X376832Y141863D01*
D02*
G37*
G36*
X385858Y138900D02*
X385571Y139180D01*
X385017Y139652D01*
X384749Y139844D01*
X384487Y140006D01*
X384231Y140139D01*
X383980Y140242D01*
X383736Y140316D01*
X383498Y140360D01*
X383266Y140375D01*
Y141625D01*
X383498Y141640D01*
X383736Y141684D01*
X383980Y141758D01*
X384231Y141861D01*
X384487Y141994D01*
X384749Y142156D01*
X385017Y142348D01*
X385291Y142569D01*
X385858Y143100D01*
Y138900D01*
D02*
G37*
G36*
X351858D02*
X351639Y139109D01*
X351413Y139296D01*
X351181Y139461D01*
X350942Y139604D01*
X350697Y139725D01*
X350445Y139824D01*
X350187Y139901D01*
X349921Y139956D01*
X349650Y139989D01*
X349372Y140000D01*
Y142000D01*
X349650Y142011D01*
X349921Y142044D01*
X350187Y142099D01*
X350445Y142176D01*
X350697Y142275D01*
X350942Y142396D01*
X351181Y142539D01*
X351413Y142704D01*
X351639Y142891D01*
X351858Y143100D01*
Y138900D01*
D02*
G37*
G36*
X357007Y140667D02*
X357034Y140376D01*
X357082Y140095D01*
X357149Y139825D01*
X357237Y139566D01*
X357345Y139318D01*
X357474Y139081D01*
X357622Y138854D01*
X357791Y138639D01*
X357980Y138434D01*
X356566Y137020D01*
X356361Y137209D01*
X356146Y137378D01*
X355919Y137526D01*
X355682Y137655D01*
X355434Y137763D01*
X355175Y137851D01*
X354905Y137918D01*
X354624Y137966D01*
X354333Y137993D01*
X354030Y138000D01*
X357000Y140970D01*
X357007Y140667D01*
D02*
G37*
G36*
X343181Y136081D02*
X343168Y136137D01*
X343130Y136187D01*
X343068Y136231D01*
X342980Y136269D01*
X342868Y136301D01*
X342730Y136328D01*
X342568Y136348D01*
X342168Y136372D01*
X341931Y136375D01*
Y137625D01*
X342168Y137628D01*
X342730Y137672D01*
X342868Y137699D01*
X342980Y137731D01*
X343068Y137769D01*
X343130Y137814D01*
X343168Y137864D01*
X343181Y137920D01*
Y136081D01*
D02*
G37*
G36*
X201429Y138820D02*
X201983Y138348D01*
X202251Y138156D01*
X202513Y137994D01*
X202769Y137861D01*
X203020Y137758D01*
X203264Y137684D01*
X203502Y137640D01*
X203734Y137625D01*
Y136375D01*
X203502Y136360D01*
X203264Y136316D01*
X203020Y136242D01*
X202769Y136139D01*
X202513Y136006D01*
X202251Y135844D01*
X201983Y135652D01*
X201709Y135431D01*
X201142Y134900D01*
Y139100D01*
X201429Y138820D01*
D02*
G37*
G36*
X207727Y132558D02*
X207576Y132402D01*
X207223Y131986D01*
X207139Y131865D01*
X207072Y131752D01*
X207022Y131648D01*
X206990Y131552D01*
X206974Y131465D01*
X206975Y131386D01*
X206033Y133206D01*
X206095Y133159D01*
X206161Y133127D01*
X206231Y133112D01*
X206306Y133111D01*
X206385Y133127D01*
X206468Y133159D01*
X206556Y133206D01*
X206647Y133269D01*
X206743Y133348D01*
X206843Y133442D01*
X207727Y132558D01*
D02*
G37*
G36*
X379954Y132806D02*
X379895Y132852D01*
X379831Y132882D01*
X379764Y132896D01*
X379692Y132895D01*
X379615Y132879D01*
X379534Y132848D01*
X379449Y132801D01*
X379359Y132739D01*
X379265Y132661D01*
X379167Y132568D01*
X378283Y133452D01*
X378433Y133606D01*
X378782Y134016D01*
X378865Y134134D01*
X378931Y134244D01*
X378980Y134345D01*
X379013Y134438D01*
X379029Y134521D01*
X379027Y134596D01*
X379954Y132806D01*
D02*
G37*
G36*
X376832Y133865D02*
X376870Y133817D01*
X376932Y133775D01*
X377020Y133738D01*
X377132Y133706D01*
X377270Y133681D01*
X377432Y133661D01*
X377832Y133638D01*
X378069Y133635D01*
Y132385D01*
X377832Y132382D01*
X377270Y132337D01*
X377132Y132309D01*
X377020Y132276D01*
X376932Y132236D01*
X376870Y132190D01*
X376832Y132138D01*
X376819Y132080D01*
Y133919D01*
X376832Y133865D01*
D02*
G37*
G36*
X343181Y132080D02*
X343168Y132136D01*
X343130Y132186D01*
X343068Y132231D01*
X342980Y132269D01*
X342868Y132301D01*
X342730Y132328D01*
X342568Y132348D01*
X342168Y132372D01*
X341931Y132375D01*
Y133625D01*
X342168Y133628D01*
X342730Y133672D01*
X342868Y133699D01*
X342980Y133731D01*
X343068Y133769D01*
X343130Y133813D01*
X343168Y133864D01*
X343181Y133919D01*
Y132080D01*
D02*
G37*
G36*
X376832Y129864D02*
X376870Y129813D01*
X376932Y129769D01*
X377020Y129731D01*
X377132Y129699D01*
X377270Y129672D01*
X377432Y129651D01*
X377832Y129628D01*
X378069Y129625D01*
Y128375D01*
X377832Y128372D01*
X377270Y128328D01*
X377132Y128301D01*
X377020Y128269D01*
X376932Y128231D01*
X376870Y128187D01*
X376832Y128136D01*
X376819Y128081D01*
Y129920D01*
X376832Y129864D01*
D02*
G37*
G36*
X385858Y126900D02*
X385571Y127180D01*
X385017Y127652D01*
X384749Y127844D01*
X384487Y128006D01*
X384231Y128139D01*
X383980Y128242D01*
X383736Y128316D01*
X383498Y128360D01*
X383266Y128375D01*
Y129625D01*
X383498Y129640D01*
X383736Y129684D01*
X383980Y129758D01*
X384231Y129861D01*
X384487Y129994D01*
X384749Y130156D01*
X385017Y130348D01*
X385291Y130569D01*
X385858Y131100D01*
Y126900D01*
D02*
G37*
G36*
X351495Y126725D02*
X351327Y126957D01*
X351146Y127166D01*
X350952Y127350D01*
X350745Y127509D01*
X350525Y127644D01*
X350292Y127754D01*
X350046Y127840D01*
X349787Y127901D01*
X349515Y127938D01*
X349230Y127950D01*
X349647Y129950D01*
X349916Y129959D01*
X350185Y129986D01*
X350452Y130031D01*
X350719Y130093D01*
X350985Y130174D01*
X351250Y130273D01*
X351513Y130389D01*
X351777Y130524D01*
X352039Y130676D01*
X352300Y130847D01*
X351495Y126725D01*
D02*
G37*
G36*
X357002Y128011D02*
X357027Y127730D01*
X357072Y127458D01*
X357139Y127195D01*
X357226Y126941D01*
X357335Y126696D01*
X357464Y126461D01*
X357615Y126234D01*
X357787Y126017D01*
X357980Y125809D01*
X356566Y124395D01*
X356358Y124588D01*
X356141Y124760D01*
X355914Y124910D01*
X355679Y125040D01*
X355434Y125149D01*
X355180Y125236D01*
X354917Y125303D01*
X354645Y125348D01*
X354364Y125373D01*
X354074Y125376D01*
X356999Y128301D01*
X357002Y128011D01*
D02*
G37*
G36*
X343181Y124080D02*
X343168Y124136D01*
X343130Y124186D01*
X343068Y124231D01*
X342980Y124269D01*
X342868Y124301D01*
X342730Y124328D01*
X342568Y124348D01*
X342168Y124372D01*
X341931Y124375D01*
Y125625D01*
X342168Y125628D01*
X342730Y125672D01*
X342868Y125699D01*
X342980Y125731D01*
X343068Y125769D01*
X343130Y125814D01*
X343168Y125864D01*
X343181Y125920D01*
Y124080D01*
D02*
G37*
G36*
X201429Y126820D02*
X201983Y126348D01*
X202251Y126156D01*
X202513Y125994D01*
X202769Y125861D01*
X203020Y125758D01*
X203264Y125684D01*
X203502Y125640D01*
X203734Y125625D01*
Y124375D01*
X203502Y124360D01*
X203264Y124316D01*
X203020Y124242D01*
X202769Y124139D01*
X202513Y124006D01*
X202251Y123844D01*
X201983Y123652D01*
X201709Y123431D01*
X201142Y122900D01*
Y127100D01*
X201429Y126820D01*
D02*
G37*
G36*
X208727Y120558D02*
X208576Y120402D01*
X208223Y119986D01*
X208139Y119865D01*
X208072Y119752D01*
X208022Y119648D01*
X207990Y119552D01*
X207974Y119465D01*
X207975Y119386D01*
X207033Y121206D01*
X207095Y121159D01*
X207161Y121127D01*
X207232Y121112D01*
X207306Y121111D01*
X207385Y121127D01*
X207468Y121159D01*
X207556Y121206D01*
X207647Y121269D01*
X207743Y121348D01*
X207843Y121442D01*
X208727Y120558D01*
D02*
G37*
G36*
X379922Y120836D02*
X379886Y120863D01*
X379844Y120877D01*
X379797Y120879D01*
X379744Y120869D01*
X379687Y120847D01*
X379623Y120813D01*
X379554Y120767D01*
X379480Y120710D01*
X379401Y120640D01*
X379315Y120558D01*
X378432Y121442D01*
X378562Y121575D01*
X378938Y122007D01*
X378995Y122090D01*
X379038Y122163D01*
X379066Y122226D01*
X379079Y122280D01*
X379077Y122323D01*
X379922Y120836D01*
D02*
G37*
G36*
X376832Y121864D02*
X376870Y121813D01*
X376932Y121769D01*
X377020Y121731D01*
X377132Y121699D01*
X377270Y121672D01*
X377432Y121651D01*
X377832Y121628D01*
X378069Y121625D01*
Y120375D01*
X377832Y120372D01*
X377270Y120328D01*
X377132Y120301D01*
X377020Y120269D01*
X376932Y120231D01*
X376870Y120187D01*
X376832Y120136D01*
X376819Y120080D01*
Y121919D01*
X376832Y121864D01*
D02*
G37*
G36*
X343181Y120080D02*
X343168Y120136D01*
X343130Y120187D01*
X343068Y120231D01*
X342980Y120269D01*
X342868Y120301D01*
X342730Y120328D01*
X342568Y120349D01*
X342168Y120372D01*
X341931Y120375D01*
Y121625D01*
X342168Y121628D01*
X342730Y121672D01*
X342868Y121699D01*
X342980Y121731D01*
X343068Y121769D01*
X343130Y121813D01*
X343168Y121864D01*
X343181Y121919D01*
Y120080D01*
D02*
G37*
G36*
X376832Y117864D02*
X376870Y117814D01*
X376932Y117769D01*
X377020Y117731D01*
X377132Y117699D01*
X377270Y117672D01*
X377432Y117652D01*
X377832Y117628D01*
X378069Y117625D01*
Y116375D01*
X377832Y116372D01*
X377270Y116328D01*
X377132Y116301D01*
X377020Y116269D01*
X376932Y116231D01*
X376870Y116187D01*
X376832Y116136D01*
X376819Y116081D01*
Y117920D01*
X376832Y117864D01*
D02*
G37*
G36*
X385858Y114900D02*
X385571Y115180D01*
X385017Y115652D01*
X384749Y115844D01*
X384487Y116006D01*
X384231Y116139D01*
X383980Y116242D01*
X383736Y116316D01*
X383498Y116360D01*
X383266Y116375D01*
Y117625D01*
X383498Y117640D01*
X383736Y117684D01*
X383980Y117758D01*
X384231Y117861D01*
X384487Y117994D01*
X384749Y118156D01*
X385017Y118348D01*
X385291Y118569D01*
X385858Y119100D01*
Y114900D01*
D02*
G37*
G36*
X351226Y114732D02*
X351112Y114973D01*
X350978Y115188D01*
X350825Y115379D01*
X350652Y115543D01*
X350459Y115683D01*
X350247Y115797D01*
X350015Y115886D01*
X349764Y115949D01*
X349493Y115987D01*
X349203Y116000D01*
X349419Y118000D01*
X349803Y118006D01*
X350895Y118100D01*
X351239Y118156D01*
X351894Y118306D01*
X352207Y118400D01*
X352801Y118625D01*
X351226Y114732D01*
D02*
G37*
G36*
X356801Y114768D02*
X356811Y114699D01*
X356840Y114618D01*
X356888Y114525D01*
X356956Y114419D01*
X357043Y114302D01*
X357274Y114029D01*
X357582Y113707D01*
X356168Y112293D01*
X356001Y112457D01*
X355574Y112832D01*
X355456Y112919D01*
X355350Y112987D01*
X355257Y113035D01*
X355176Y113064D01*
X355107Y113074D01*
X355051Y113065D01*
X356810Y114824D01*
X356801Y114768D01*
D02*
G37*
G36*
X343181Y112080D02*
X343168Y112136D01*
X343130Y112186D01*
X343068Y112231D01*
X342980Y112269D01*
X342868Y112301D01*
X342730Y112328D01*
X342568Y112348D01*
X342168Y112372D01*
X341931Y112375D01*
Y113625D01*
X342168Y113628D01*
X342730Y113672D01*
X342868Y113699D01*
X342980Y113731D01*
X343068Y113769D01*
X343130Y113813D01*
X343168Y113864D01*
X343181Y113919D01*
Y112080D01*
D02*
G37*
G36*
X201429Y114820D02*
X201983Y114348D01*
X202251Y114156D01*
X202513Y113994D01*
X202769Y113861D01*
X203020Y113758D01*
X203264Y113684D01*
X203502Y113640D01*
X203734Y113625D01*
Y112375D01*
X203502Y112360D01*
X203264Y112316D01*
X203020Y112242D01*
X202769Y112139D01*
X202513Y112006D01*
X202251Y111844D01*
X201983Y111652D01*
X201709Y111431D01*
X201142Y110900D01*
Y115100D01*
X201429Y114820D01*
D02*
G37*
G36*
X208727Y108558D02*
X208576Y108402D01*
X208223Y107986D01*
X208139Y107865D01*
X208072Y107752D01*
X208022Y107647D01*
X207990Y107552D01*
X207974Y107465D01*
X207975Y107386D01*
X207033Y109206D01*
X207095Y109159D01*
X207161Y109127D01*
X207232Y109112D01*
X207306Y109111D01*
X207385Y109127D01*
X207468Y109159D01*
X207556Y109206D01*
X207647Y109269D01*
X207743Y109347D01*
X207843Y109442D01*
X208727Y108558D01*
D02*
G37*
G36*
X379922Y108836D02*
X379886Y108862D01*
X379844Y108877D01*
X379797Y108879D01*
X379744Y108869D01*
X379687Y108847D01*
X379623Y108813D01*
X379554Y108767D01*
X379480Y108710D01*
X379401Y108640D01*
X379315Y108558D01*
X378432Y109442D01*
X378562Y109575D01*
X378938Y110007D01*
X378995Y110090D01*
X379038Y110163D01*
X379066Y110226D01*
X379079Y110280D01*
X379077Y110323D01*
X379922Y108836D01*
D02*
G37*
G36*
X376832Y109864D02*
X376870Y109813D01*
X376932Y109769D01*
X377020Y109731D01*
X377132Y109699D01*
X377270Y109672D01*
X377432Y109651D01*
X377832Y109628D01*
X378069Y109625D01*
Y108375D01*
X377832Y108372D01*
X377270Y108328D01*
X377132Y108301D01*
X377020Y108269D01*
X376932Y108231D01*
X376870Y108187D01*
X376832Y108137D01*
X376819Y108081D01*
Y109920D01*
X376832Y109864D01*
D02*
G37*
G36*
X343181Y108081D02*
X343168Y108137D01*
X343130Y108187D01*
X343068Y108231D01*
X342980Y108269D01*
X342868Y108301D01*
X342730Y108328D01*
X342568Y108349D01*
X342168Y108372D01*
X341931Y108375D01*
Y109625D01*
X342168Y109628D01*
X342730Y109672D01*
X342868Y109699D01*
X342980Y109731D01*
X343068Y109769D01*
X343130Y109813D01*
X343168Y109864D01*
X343181Y109920D01*
Y108081D01*
D02*
G37*
G36*
X376832Y105864D02*
X376870Y105814D01*
X376932Y105769D01*
X377020Y105731D01*
X377132Y105699D01*
X377270Y105672D01*
X377432Y105652D01*
X377832Y105628D01*
X378069Y105625D01*
Y104375D01*
X377832Y104372D01*
X377270Y104328D01*
X377132Y104301D01*
X377020Y104269D01*
X376932Y104231D01*
X376870Y104186D01*
X376832Y104136D01*
X376819Y104080D01*
Y105920D01*
X376832Y105864D01*
D02*
G37*
G36*
X385858Y102900D02*
X385571Y103180D01*
X385017Y103652D01*
X384749Y103844D01*
X384487Y104006D01*
X384231Y104139D01*
X383980Y104242D01*
X383736Y104316D01*
X383498Y104360D01*
X383266Y104375D01*
Y105625D01*
X383498Y105640D01*
X383736Y105684D01*
X383980Y105758D01*
X384231Y105861D01*
X384487Y105994D01*
X384749Y106156D01*
X385017Y106348D01*
X385291Y106569D01*
X385858Y107100D01*
Y102900D01*
D02*
G37*
G36*
X343181Y100080D02*
X343168Y100136D01*
X343130Y100187D01*
X343068Y100231D01*
X342980Y100269D01*
X342868Y100301D01*
X342730Y100328D01*
X342568Y100349D01*
X342168Y100372D01*
X341931Y100375D01*
Y101625D01*
X342168Y101628D01*
X342730Y101672D01*
X342868Y101699D01*
X342980Y101731D01*
X343068Y101769D01*
X343130Y101813D01*
X343168Y101864D01*
X343181Y101919D01*
Y100080D01*
D02*
G37*
G36*
X201429Y102820D02*
X201983Y102348D01*
X202251Y102156D01*
X202513Y101994D01*
X202769Y101861D01*
X203020Y101758D01*
X203264Y101684D01*
X203502Y101640D01*
X203734Y101625D01*
Y100375D01*
X203502Y100360D01*
X203264Y100316D01*
X203020Y100242D01*
X202769Y100139D01*
X202513Y100006D01*
X202251Y99844D01*
X201983Y99652D01*
X201709Y99431D01*
X201142Y98900D01*
Y103100D01*
X201429Y102820D01*
D02*
G37*
G36*
X208727Y96558D02*
X208576Y96402D01*
X208223Y95986D01*
X208139Y95865D01*
X208072Y95752D01*
X208022Y95647D01*
X207990Y95552D01*
X207974Y95465D01*
X207975Y95386D01*
X207033Y97206D01*
X207095Y97159D01*
X207161Y97127D01*
X207232Y97112D01*
X207306Y97112D01*
X207385Y97127D01*
X207468Y97159D01*
X207556Y97206D01*
X207647Y97269D01*
X207743Y97347D01*
X207843Y97442D01*
X208727Y96558D01*
D02*
G37*
G36*
X376832Y97864D02*
X376870Y97814D01*
X376932Y97769D01*
X377020Y97731D01*
X377132Y97699D01*
X377270Y97672D01*
X377432Y97652D01*
X377832Y97628D01*
X378069Y97625D01*
Y96375D01*
X377832Y96372D01*
X377270Y96328D01*
X377132Y96301D01*
X377020Y96269D01*
X376932Y96231D01*
X376870Y96187D01*
X376832Y96137D01*
X376819Y96081D01*
Y97920D01*
X376832Y97864D01*
D02*
G37*
G36*
X343181Y96081D02*
X343168Y96137D01*
X343130Y96187D01*
X343068Y96231D01*
X342980Y96269D01*
X342868Y96301D01*
X342730Y96328D01*
X342568Y96348D01*
X342168Y96372D01*
X341931Y96375D01*
Y97625D01*
X342168Y97628D01*
X342730Y97672D01*
X342868Y97699D01*
X342980Y97731D01*
X343068Y97769D01*
X343130Y97814D01*
X343168Y97864D01*
X343181Y97920D01*
Y96081D01*
D02*
G37*
G36*
X376832Y93863D02*
X376870Y93813D01*
X376932Y93769D01*
X377020Y93731D01*
X377132Y93699D01*
X377270Y93672D01*
X377432Y93652D01*
X377832Y93628D01*
X378069Y93625D01*
Y92375D01*
X377832Y92372D01*
X377270Y92328D01*
X377132Y92301D01*
X377020Y92269D01*
X376932Y92231D01*
X376870Y92186D01*
X376832Y92136D01*
X376819Y92080D01*
Y93919D01*
X376832Y93863D01*
D02*
G37*
G36*
X353999Y93544D02*
X354426Y93168D01*
X354544Y93081D01*
X354650Y93013D01*
X354743Y92965D01*
X354824Y92936D01*
X354893Y92926D01*
X354949Y92935D01*
X353190Y91176D01*
X353199Y91232D01*
X353189Y91301D01*
X353160Y91382D01*
X353112Y91475D01*
X353044Y91581D01*
X352957Y91699D01*
X352726Y91971D01*
X352418Y92293D01*
X353832Y93707D01*
X353999Y93544D01*
D02*
G37*
G36*
X343181Y88081D02*
X343168Y88137D01*
X343130Y88187D01*
X343068Y88231D01*
X342980Y88269D01*
X342868Y88301D01*
X342730Y88328D01*
X342568Y88349D01*
X342168Y88372D01*
X341931Y88375D01*
Y89625D01*
X342168Y89628D01*
X342730Y89672D01*
X342868Y89699D01*
X342980Y89731D01*
X343068Y89769D01*
X343130Y89813D01*
X343168Y89864D01*
X343181Y89920D01*
Y88081D01*
D02*
G37*
G36*
X358888Y91027D02*
X359022Y90812D01*
X359175Y90622D01*
X359348Y90457D01*
X359541Y90317D01*
X359753Y90203D01*
X359985Y90114D01*
X360236Y90051D01*
X360507Y90013D01*
X360797Y90000D01*
X360581Y88000D01*
X360197Y87994D01*
X359105Y87900D01*
X358761Y87844D01*
X358106Y87694D01*
X357793Y87600D01*
X357199Y87375D01*
X358774Y91268D01*
X358888Y91027D01*
D02*
G37*
G36*
X343181Y84080D02*
X343168Y84136D01*
X343130Y84186D01*
X343068Y84231D01*
X342980Y84269D01*
X342868Y84301D01*
X342730Y84328D01*
X342568Y84348D01*
X342168Y84372D01*
X341931Y84375D01*
Y85625D01*
X342168Y85628D01*
X342730Y85672D01*
X342868Y85699D01*
X342980Y85731D01*
X343068Y85769D01*
X343130Y85814D01*
X343168Y85864D01*
X343181Y85920D01*
Y84080D01*
D02*
G37*
G36*
X212789Y81906D02*
X212636Y81731D01*
X212499Y81531D01*
X212378Y81306D01*
X212274Y81057D01*
X212187Y80782D01*
X212116Y80481D01*
X212062Y80156D01*
X212025Y79806D01*
X212000Y79030D01*
X209030Y82000D01*
X209431Y82004D01*
X210156Y82062D01*
X210481Y82116D01*
X210781Y82187D01*
X211057Y82274D01*
X211306Y82378D01*
X211531Y82499D01*
X211731Y82636D01*
X211906Y82789D01*
X212789Y81906D01*
D02*
G37*
G36*
X363361Y78891D02*
X363587Y78704D01*
X363819Y78539D01*
X364058Y78396D01*
X364303Y78275D01*
X364555Y78176D01*
X364813Y78099D01*
X365079Y78044D01*
X365350Y78011D01*
X365628Y78000D01*
Y76000D01*
X365350Y75989D01*
X365079Y75956D01*
X364813Y75901D01*
X364555Y75824D01*
X364303Y75725D01*
X364058Y75604D01*
X363819Y75461D01*
X363587Y75296D01*
X363361Y75109D01*
X363142Y74900D01*
Y79100D01*
X363361Y78891D01*
D02*
G37*
G36*
X217789Y72906D02*
X217636Y72731D01*
X217499Y72531D01*
X217378Y72306D01*
X217274Y72057D01*
X217187Y71782D01*
X217116Y71481D01*
X217062Y71156D01*
X217025Y70806D01*
X217000Y70030D01*
X214030Y73000D01*
X214431Y73004D01*
X215156Y73062D01*
X215481Y73116D01*
X215782Y73187D01*
X216057Y73274D01*
X216306Y73378D01*
X216531Y73499D01*
X216731Y73636D01*
X216906Y73790D01*
X217789Y72906D01*
D02*
G37*
G36*
X358429Y64820D02*
X358983Y64348D01*
X359251Y64156D01*
X359513Y63994D01*
X359769Y63861D01*
X360020Y63758D01*
X360264Y63684D01*
X360502Y63640D01*
X360734Y63625D01*
Y62375D01*
X360502Y62360D01*
X360264Y62316D01*
X360020Y62242D01*
X359769Y62139D01*
X359513Y62006D01*
X359251Y61844D01*
X358983Y61652D01*
X358709Y61431D01*
X358142Y60900D01*
Y65100D01*
X358429Y64820D01*
D02*
G37*
G36*
X225429Y55820D02*
X225983Y55348D01*
X226251Y55156D01*
X226513Y54994D01*
X226769Y54861D01*
X227020Y54758D01*
X227264Y54684D01*
X227502Y54640D01*
X227734Y54625D01*
Y53375D01*
X227502Y53360D01*
X227264Y53316D01*
X227020Y53242D01*
X226769Y53139D01*
X226513Y53006D01*
X226251Y52844D01*
X225983Y52652D01*
X225709Y52431D01*
X225142Y51900D01*
Y56100D01*
X225429Y55820D01*
D02*
G37*
G36*
X229836Y50422D02*
X231213Y49789D01*
X231498Y49687D01*
X231994Y49552D01*
X232206Y49518D01*
X232394Y49506D01*
X232789Y48256D01*
X232537Y48240D01*
X232295Y48191D01*
X232061Y48109D01*
X231835Y47995D01*
X231618Y47848D01*
X231410Y47668D01*
X231211Y47456D01*
X231020Y47210D01*
X230838Y46933D01*
X230665Y46622D01*
X229431Y50637D01*
X229836Y50422D01*
D02*
G37*
%LPC*%
G36*
X214995Y238000D02*
X213005D01*
X211168Y237239D01*
X209761Y235832D01*
X209000Y233995D01*
Y232005D01*
X209761Y230168D01*
X211168Y228761D01*
X213005Y228000D01*
X214995D01*
X216832Y228761D01*
X218239Y230168D01*
X219000Y232005D01*
Y233995D01*
X218239Y235832D01*
X216832Y237239D01*
X214995Y238000D01*
D02*
G37*
G36*
X150580Y242500D02*
X147420D01*
X144368Y241682D01*
X141632Y240102D01*
X139398Y237868D01*
X137818Y235132D01*
X137000Y232080D01*
Y228920D01*
X137818Y225868D01*
X139398Y223132D01*
X141632Y220898D01*
X144368Y219318D01*
X147420Y218500D01*
X150580D01*
X153632Y219318D01*
X156368Y220898D01*
X158602Y223132D01*
X160182Y225868D01*
X161000Y228920D01*
Y232080D01*
X160182Y235132D01*
X158602Y237868D01*
X156368Y240102D01*
X153632Y241682D01*
X150580Y242500D01*
D02*
G37*
G36*
X125180D02*
X122020D01*
X118968Y241682D01*
X116232Y240102D01*
X113998Y237868D01*
X112418Y235132D01*
X111600Y232080D01*
Y228920D01*
X112418Y225868D01*
X113998Y223132D01*
X116232Y220898D01*
X118968Y219318D01*
X122020Y218500D01*
X125180D01*
X128232Y219318D01*
X130968Y220898D01*
X133202Y223132D01*
X134782Y225868D01*
X135600Y228920D01*
Y232080D01*
X134782Y235132D01*
X133202Y237868D01*
X130968Y240102D01*
X128232Y241682D01*
X125180Y242500D01*
D02*
G37*
G36*
X99780D02*
X96620D01*
X93568Y241682D01*
X90832Y240102D01*
X88598Y237868D01*
X87018Y235132D01*
X86200Y232080D01*
Y228920D01*
X87018Y225868D01*
X88598Y223132D01*
X90832Y220898D01*
X93568Y219318D01*
X96620Y218500D01*
X99780D01*
X102832Y219318D01*
X105568Y220898D01*
X107802Y223132D01*
X109382Y225868D01*
X110200Y228920D01*
Y232080D01*
X109382Y235132D01*
X107802Y237868D01*
X105568Y240102D01*
X102832Y241682D01*
X99780Y242500D01*
D02*
G37*
G36*
X74380D02*
X71220D01*
X68168Y241682D01*
X65432Y240102D01*
X63198Y237868D01*
X61618Y235132D01*
X60800Y232080D01*
Y228920D01*
X61618Y225868D01*
X63198Y223132D01*
X65432Y220898D01*
X68168Y219318D01*
X71220Y218500D01*
X74380D01*
X77432Y219318D01*
X80168Y220898D01*
X82402Y223132D01*
X83982Y225868D01*
X84800Y228920D01*
Y232080D01*
X83982Y235132D01*
X82402Y237868D01*
X80168Y240102D01*
X77432Y241682D01*
X74380Y242500D01*
D02*
G37*
G36*
X48980D02*
X45820D01*
X42768Y241682D01*
X40032Y240102D01*
X37798Y237868D01*
X36218Y235132D01*
X35400Y232080D01*
Y228920D01*
X36218Y225868D01*
X37798Y223132D01*
X40032Y220898D01*
X42768Y219318D01*
X45820Y218500D01*
X48980D01*
X52032Y219318D01*
X54768Y220898D01*
X57002Y223132D01*
X58582Y225868D01*
X59400Y228920D01*
Y232080D01*
X58582Y235132D01*
X57002Y237868D01*
X54768Y240102D01*
X52032Y241682D01*
X48980Y242500D01*
D02*
G37*
G36*
X23580D02*
X20420D01*
X17368Y241682D01*
X14632Y240102D01*
X12398Y237868D01*
X10818Y235132D01*
X10000Y232080D01*
Y228920D01*
X10818Y225868D01*
X12398Y223132D01*
X14632Y220898D01*
X17368Y219318D01*
X20420Y218500D01*
X23580D01*
X26632Y219318D01*
X29368Y220898D01*
X31602Y223132D01*
X33182Y225868D01*
X34000Y228920D01*
Y232080D01*
X33182Y235132D01*
X31602Y237868D01*
X29368Y240102D01*
X26632Y241682D01*
X23580Y242500D01*
D02*
G37*
G36*
X218995Y213000D02*
X217005D01*
X215168Y212239D01*
X213761Y210832D01*
X213000Y208995D01*
Y207005D01*
X213761Y205168D01*
X215168Y203761D01*
X217005Y203000D01*
X218995D01*
X220832Y203761D01*
X222239Y205168D01*
X223000Y207005D01*
Y208995D01*
X222239Y210832D01*
X220832Y212239D01*
X218995Y213000D01*
D02*
G37*
G36*
X17995Y206750D02*
X16005D01*
X14168Y205989D01*
X12761Y204582D01*
X12000Y202745D01*
Y200755D01*
X12761Y198918D01*
X14168Y197511D01*
X16005Y196750D01*
X17995D01*
X19832Y197511D01*
X21239Y198918D01*
X22000Y200755D01*
Y202745D01*
X21239Y204582D01*
X19832Y205989D01*
X17995Y206750D01*
D02*
G37*
G36*
X65495Y196000D02*
X63505D01*
X61668Y195239D01*
X60261Y193832D01*
X59500Y191995D01*
Y190005D01*
X60261Y188168D01*
X61668Y186761D01*
X63505Y186000D01*
X65495D01*
X67332Y186761D01*
X68739Y188168D01*
X69500Y190005D01*
Y191995D01*
X68739Y193832D01*
X67332Y195239D01*
X65495Y196000D01*
D02*
G37*
G36*
X330995Y181000D02*
X329005D01*
X327168Y180239D01*
X326000Y179071D01*
X324832Y180239D01*
X322995Y181000D01*
X321005D01*
X319168Y180239D01*
X317761Y178832D01*
X317000Y176995D01*
Y175005D01*
X317761Y173168D01*
X319168Y171761D01*
X321005Y171000D01*
X322995D01*
X324832Y171761D01*
X326000Y172929D01*
X327168Y171761D01*
X329005Y171000D01*
X330995D01*
X332832Y171761D01*
X334239Y173168D01*
X335000Y175005D01*
Y176995D01*
X334239Y178832D01*
X332832Y180239D01*
X330995Y181000D01*
D02*
G37*
G36*
X351750Y181550D02*
X341150D01*
Y174050D01*
Y174000D01*
X346450D01*
X351750D01*
Y181550D01*
D02*
G37*
G36*
X69995Y216000D02*
X68005D01*
X66168Y215239D01*
X64761Y213832D01*
X64000Y211995D01*
Y210005D01*
X64761Y208168D01*
X66168Y206761D01*
X68005Y206000D01*
X69995D01*
X70907Y206378D01*
X72501Y205797D01*
X72761Y205168D01*
X73039Y204890D01*
X72795Y203664D01*
X72758Y203649D01*
X71351Y202242D01*
X70590Y200405D01*
Y198416D01*
X71351Y196578D01*
X72758Y195171D01*
X74595Y194410D01*
X76585D01*
X78422Y195171D01*
X78667Y195416D01*
X78882Y195570D01*
X79140Y195743D01*
X79651Y196045D01*
X79824Y196132D01*
X79983Y196200D01*
X80102Y196243D01*
X80157Y196258D01*
X94499D01*
X95193Y195218D01*
X95125Y195054D01*
Y193064D01*
X95798Y191439D01*
X96168Y190239D01*
X94761Y188832D01*
X94000Y186995D01*
Y185005D01*
X94761Y183168D01*
X94545Y181616D01*
X93761Y180832D01*
X93000Y178995D01*
Y177005D01*
X93761Y175168D01*
X95168Y173761D01*
X97005Y173000D01*
X98995D01*
X100832Y173761D01*
X102239Y175168D01*
X102412Y175585D01*
X102440Y175618D01*
X102579Y175866D01*
X102677Y176015D01*
X102759Y176120D01*
X102822Y176187D01*
X102836Y176199D01*
X243312D01*
X243339Y176191D01*
X243426Y176156D01*
X243548Y176096D01*
X243701Y176006D01*
X243860Y175899D01*
X244326Y175529D01*
X244580Y175300D01*
X244703Y175226D01*
X245168Y174761D01*
X247005Y174000D01*
X248995D01*
X250832Y174761D01*
X252239Y176168D01*
X253000Y178005D01*
Y179995D01*
X253701Y181293D01*
X254832Y181761D01*
X256239Y183168D01*
X257000Y185005D01*
Y186995D01*
X256239Y188832D01*
X254832Y190239D01*
X252995Y191000D01*
X251005D01*
X250000Y191672D01*
Y191995D01*
X249239Y193832D01*
X247832Y195239D01*
X245995Y196000D01*
X244005D01*
X243410Y195753D01*
X243299Y195741D01*
X243273Y195727D01*
X243244Y195723D01*
X243018Y195644D01*
X242893Y195610D01*
X242844Y195602D01*
X242791Y195661D01*
X242638Y195734D01*
X242156Y196056D01*
X241132Y196259D01*
X241131Y196259D01*
X188751D01*
X188057Y197299D01*
X188125Y197463D01*
Y199453D01*
X188491Y200000D01*
X188995D01*
X190832Y200761D01*
X192239Y202168D01*
X193000Y204005D01*
Y205995D01*
X192239Y207832D01*
X190832Y209239D01*
X188995Y210000D01*
X188199D01*
X188036Y210038D01*
X187335Y210061D01*
X187120Y210084D01*
X186919Y210117D01*
X186761Y210154D01*
X186644Y210191D01*
X186569Y210223D01*
X186555Y210230D01*
X181893Y214893D01*
X181024Y215473D01*
X180000Y215676D01*
X180000Y215676D01*
X72127D01*
X72126Y215676D01*
X71214Y215495D01*
X69995Y216000D01*
D02*
G37*
G36*
X351750Y172000D02*
X346450D01*
X341150D01*
Y170000D01*
X346450D01*
X351750D01*
Y170050D01*
Y172000D01*
D02*
G37*
G36*
Y168000D02*
X346450D01*
X341150D01*
Y166000D01*
X346450D01*
X351750D01*
Y168000D01*
D02*
G37*
G36*
X78995Y145000D02*
X77006D01*
X75168Y144239D01*
X73761Y142832D01*
X73000Y140995D01*
Y139005D01*
X73761Y137168D01*
X75168Y135761D01*
X77006Y135000D01*
X78995D01*
X80832Y135761D01*
X82239Y137168D01*
X83000Y139005D01*
Y140995D01*
X82239Y142832D01*
X80832Y144239D01*
X78995Y145000D01*
D02*
G37*
G36*
X53995Y113000D02*
X52005D01*
X50168Y112239D01*
X48761Y110832D01*
X48000Y108995D01*
Y107006D01*
X48761Y105168D01*
X50168Y103761D01*
X52005Y103000D01*
X53995D01*
X55832Y103761D01*
X57239Y105168D01*
X58000Y107006D01*
Y108995D01*
X57239Y110832D01*
X55832Y112239D01*
X53995Y113000D01*
D02*
G37*
G36*
X89995Y76000D02*
X88005D01*
X86168Y75239D01*
X84761Y73832D01*
X84000Y71995D01*
Y70005D01*
X84761Y68168D01*
X86168Y66761D01*
X88005Y66000D01*
X89995D01*
X91832Y66761D01*
X93239Y68168D01*
X94000Y70005D01*
Y71995D01*
X93239Y73832D01*
X91832Y75239D01*
X89995Y76000D01*
D02*
G37*
G36*
X62995Y72500D02*
X61005D01*
X59168Y71739D01*
X57761Y70332D01*
X57000Y68495D01*
Y66505D01*
X57761Y64668D01*
X59168Y63261D01*
X61005Y62500D01*
X62995D01*
X64832Y63261D01*
X66239Y64668D01*
X67000Y66505D01*
Y68495D01*
X66239Y70332D01*
X64832Y71739D01*
X62995Y72500D01*
D02*
G37*
G36*
X62994Y57000D02*
X61005D01*
X59168Y56239D01*
X57761Y54832D01*
X57000Y52995D01*
Y51005D01*
X57761Y49168D01*
X59168Y47761D01*
X61005Y47000D01*
X62994D01*
X64832Y47761D01*
X66239Y49168D01*
X67000Y51005D01*
Y52995D01*
X66239Y54832D01*
X64832Y56239D01*
X62994Y57000D01*
D02*
G37*
G36*
X62995Y41750D02*
X61005D01*
X59168Y40989D01*
X57761Y39582D01*
X57000Y37745D01*
Y35756D01*
X57761Y33918D01*
X59168Y32511D01*
X61005Y31750D01*
X62995D01*
X64832Y32511D01*
X66239Y33918D01*
X67000Y35756D01*
Y37745D01*
X66239Y39582D01*
X64832Y40989D01*
X62995Y41750D01*
D02*
G37*
G36*
X19994Y40000D02*
X18005D01*
X16168Y39239D01*
X14761Y37832D01*
X14000Y35995D01*
Y34005D01*
X14761Y32168D01*
X16168Y30761D01*
X18005Y30000D01*
X19994D01*
X21832Y30761D01*
X23239Y32168D01*
X24000Y34005D01*
Y35995D01*
X23239Y37832D01*
X21832Y39239D01*
X19994Y40000D01*
D02*
G37*
G36*
X36995Y169000D02*
X35005D01*
X33168Y168239D01*
X31761Y166832D01*
X31000Y164995D01*
Y163005D01*
X31761Y161168D01*
X33168Y159761D01*
X35005Y159000D01*
X36995D01*
X38832Y159761D01*
X39395Y160324D01*
X39537Y160412D01*
X40048Y160892D01*
X40217Y161028D01*
X40382Y161146D01*
X40520Y161231D01*
X40629Y161288D01*
X40705Y161319D01*
X40720Y161324D01*
X59727D01*
X59976Y160074D01*
X59168Y159739D01*
X57761Y158332D01*
X57000Y156495D01*
Y154506D01*
X57761Y152668D01*
X59168Y151261D01*
X61005Y150500D01*
X62995D01*
X64832Y151261D01*
X66239Y152668D01*
X67000Y154506D01*
Y156495D01*
X66239Y158332D01*
X64832Y159739D01*
X64024Y160074D01*
X64273Y161324D01*
X85891D01*
X106643Y140571D01*
X106651Y140558D01*
X106682Y140482D01*
X106719Y140365D01*
X106757Y140207D01*
X106785Y140034D01*
X106831Y139465D01*
X106834Y139135D01*
X106874Y138950D01*
Y138132D01*
X107635Y136294D01*
X109041Y134888D01*
X110879Y134127D01*
X111677D01*
X111679Y134126D01*
X111849Y134074D01*
X112031Y133979D01*
X112052Y133963D01*
X112242Y132672D01*
X71571Y92000D01*
X45324D01*
X45324Y92000D01*
X44299Y91796D01*
X43431Y91216D01*
X43431Y91216D01*
X38445Y86230D01*
X38431Y86223D01*
X38355Y86191D01*
X38239Y86154D01*
X38080Y86117D01*
X37907Y86088D01*
X37338Y86042D01*
X37009Y86039D01*
X36823Y86000D01*
X36005D01*
X34168Y85239D01*
X32761Y83832D01*
X32000Y81995D01*
Y80005D01*
X32761Y78168D01*
X34168Y76761D01*
X36005Y76000D01*
X37995D01*
X39832Y76761D01*
X41239Y78168D01*
X42000Y80005D01*
Y80801D01*
X42038Y80964D01*
X42060Y81664D01*
X42084Y81880D01*
X42117Y82080D01*
X42154Y82239D01*
X42191Y82355D01*
X42223Y82431D01*
X42230Y82445D01*
X46432Y86647D01*
X56943D01*
X57581Y85397D01*
X57000Y83995D01*
Y82005D01*
X57761Y80168D01*
X59168Y78761D01*
X61005Y78000D01*
X62995D01*
X64832Y78761D01*
X66239Y80168D01*
X67000Y82005D01*
Y83995D01*
X66419Y85397D01*
X67057Y86647D01*
X72679D01*
X72679Y86647D01*
X73703Y86851D01*
X74572Y87431D01*
X106845Y119705D01*
X108000Y119226D01*
Y119005D01*
X108761Y117168D01*
X110168Y115761D01*
X112005Y115000D01*
X112541Y114198D01*
X112250Y113495D01*
Y111505D01*
X113011Y109668D01*
X114418Y108261D01*
X116255Y107500D01*
X117051D01*
X117214Y107462D01*
X117914Y107439D01*
X118130Y107416D01*
X118330Y107383D01*
X118489Y107346D01*
X118605Y107309D01*
X118681Y107277D01*
X118695Y107270D01*
X202358Y23607D01*
X203226Y23027D01*
X204250Y22824D01*
X204250Y22824D01*
X264119D01*
X264654Y21574D01*
X264000Y19994D01*
Y18005D01*
X264761Y16168D01*
X266168Y14761D01*
X268005Y14000D01*
X269995D01*
X271832Y14761D01*
X273239Y16168D01*
X274000Y18005D01*
Y19994D01*
X273346Y21574D01*
X273881Y22824D01*
X352668D01*
X352668Y22824D01*
X352974Y22885D01*
X354505Y22250D01*
X356495D01*
X358332Y23011D01*
X359739Y24418D01*
X360500Y26255D01*
Y28245D01*
X359739Y30082D01*
X358332Y31489D01*
X356495Y32250D01*
X354505D01*
X352668Y31489D01*
X351261Y30082D01*
X350500Y28245D01*
Y28176D01*
X332471D01*
X331777Y29216D01*
X332000Y29755D01*
Y31745D01*
X331239Y33582D01*
X329832Y34989D01*
X327995Y35750D01*
X326005D01*
X324168Y34989D01*
X323605Y34426D01*
X323463Y34338D01*
X322952Y33858D01*
X322783Y33722D01*
X322618Y33604D01*
X322480Y33519D01*
X322371Y33462D01*
X322295Y33431D01*
X322280Y33426D01*
X214109D01*
X122230Y125305D01*
X122223Y125319D01*
X122191Y125395D01*
X122154Y125511D01*
X122117Y125670D01*
X122088Y125843D01*
X122042Y126412D01*
X122039Y126741D01*
X122000Y126927D01*
Y127745D01*
X121239Y129582D01*
X121142Y129679D01*
X120832Y130261D01*
X122239Y131668D01*
X123000Y133505D01*
Y135495D01*
X122239Y137332D01*
X120832Y138739D01*
X118995Y139500D01*
X117006D01*
X116874Y139932D01*
Y140121D01*
X116112Y141959D01*
X114706Y143365D01*
X112868Y144127D01*
X112072D01*
X111909Y144164D01*
X111209Y144187D01*
X110993Y144210D01*
X110793Y144243D01*
X110635Y144281D01*
X110518Y144318D01*
X110442Y144349D01*
X110428Y144356D01*
X88892Y165893D01*
X88024Y166473D01*
X87000Y166677D01*
X87000Y166676D01*
X40720D01*
X40705Y166681D01*
X40629Y166712D01*
X40520Y166769D01*
X40382Y166854D01*
X40239Y166956D01*
X39805Y167326D01*
X39569Y167557D01*
X39411Y167661D01*
X38832Y168239D01*
X36995Y169000D01*
D02*
G37*
G36*
X346995Y21000D02*
X345005D01*
X343168Y20239D01*
X341761Y18832D01*
X341000Y16995D01*
Y15005D01*
X341761Y13168D01*
X343168Y11761D01*
X345005Y11000D01*
X346995D01*
X348832Y11761D01*
X350239Y13168D01*
X351000Y15005D01*
Y16995D01*
X350239Y18832D01*
X348832Y20239D01*
X346995Y21000D01*
D02*
G37*
G36*
X308995D02*
X307005D01*
X305168Y20239D01*
X303761Y18832D01*
X303000Y16995D01*
Y15005D01*
X303761Y13168D01*
X305168Y11761D01*
X307005Y11000D01*
X308995D01*
X310832Y11761D01*
X312239Y13168D01*
X313000Y15005D01*
Y16995D01*
X312239Y18832D01*
X310832Y20239D01*
X308995Y21000D01*
D02*
G37*
G36*
X109995Y19000D02*
X108005D01*
X106168Y18239D01*
X104761Y16832D01*
X104000Y14995D01*
Y13005D01*
X104761Y11168D01*
X106168Y9761D01*
X108005Y9000D01*
X109995D01*
X111832Y9761D01*
X113239Y11168D01*
X114000Y13005D01*
Y14995D01*
X113239Y16832D01*
X111832Y18239D01*
X109995Y19000D01*
D02*
G37*
%LPD*%
G36*
X72568Y212558D02*
X72438Y212425D01*
X72062Y211993D01*
X72005Y211910D01*
X71962Y211837D01*
X71934Y211774D01*
X71921Y211720D01*
X71922Y211677D01*
X71078Y213164D01*
X71114Y213137D01*
X71156Y213123D01*
X71203Y213121D01*
X71255Y213131D01*
X71313Y213153D01*
X71377Y213187D01*
X71446Y213232D01*
X71520Y213290D01*
X71599Y213360D01*
X71684Y213442D01*
X72568Y212558D01*
D02*
G37*
G36*
X185269Y208636D02*
X185469Y208499D01*
X185693Y208378D01*
X185943Y208274D01*
X186218Y208187D01*
X186519Y208116D01*
X186844Y208062D01*
X187194Y208025D01*
X187970Y208000D01*
X185000Y205030D01*
X184996Y205431D01*
X184938Y206156D01*
X184884Y206481D01*
X184813Y206782D01*
X184726Y207057D01*
X184622Y207306D01*
X184501Y207531D01*
X184364Y207731D01*
X184210Y207906D01*
X185094Y208790D01*
X185269Y208636D01*
D02*
G37*
G36*
X78264Y200842D02*
X78491Y200573D01*
X78721Y200335D01*
X78952Y200129D01*
X79186Y199955D01*
X79422Y199813D01*
X79660Y199702D01*
X79900Y199622D01*
X80142Y199575D01*
X80386Y199559D01*
X80181Y198309D01*
X79967Y198296D01*
X79738Y198257D01*
X79495Y198191D01*
X79236Y198099D01*
X78963Y197981D01*
X78674Y197837D01*
X78053Y197469D01*
X77720Y197246D01*
X77372Y196997D01*
X78039Y201143D01*
X78264Y200842D01*
D02*
G37*
G36*
X180676Y196725D02*
X180451Y197026D01*
X180224Y197295D01*
X179994Y197533D01*
X179762Y197739D01*
X179529Y197913D01*
X179293Y198055D01*
X179055Y198166D01*
X178815Y198246D01*
X178573Y198293D01*
X178329Y198309D01*
X178534Y199559D01*
X178748Y199572D01*
X178977Y199611D01*
X179220Y199677D01*
X179479Y199769D01*
X179752Y199887D01*
X180040Y200032D01*
X180662Y200399D01*
X180995Y200622D01*
X181343Y200871D01*
X180676Y196725D01*
D02*
G37*
G36*
X102799Y195491D02*
X103026Y195222D01*
X103256Y194984D01*
X103488Y194778D01*
X103721Y194604D01*
X103957Y194461D01*
X104195Y194351D01*
X104435Y194271D01*
X104677Y194224D01*
X104921Y194208D01*
X104716Y192958D01*
X104502Y192945D01*
X104273Y192906D01*
X104030Y192840D01*
X103771Y192748D01*
X103498Y192630D01*
X103209Y192486D01*
X102588Y192118D01*
X102255Y191895D01*
X101907Y191646D01*
X102573Y195793D01*
X102799Y195491D01*
D02*
G37*
G36*
X241744Y193876D02*
X241929Y193754D01*
X242128Y193661D01*
X242341Y193596D01*
X242568Y193559D01*
X242810Y193550D01*
X243065Y193570D01*
X243335Y193618D01*
X243619Y193694D01*
X243917Y193798D01*
X242090Y190269D01*
X241989Y190650D01*
X241650Y191651D01*
X241526Y191937D01*
X241260Y192438D01*
X241119Y192653D01*
X240972Y192844D01*
X240819Y193011D01*
X241574Y194025D01*
X241744Y193876D01*
D02*
G37*
G36*
X245947Y176813D02*
X245645Y177086D01*
X245065Y177546D01*
X244788Y177733D01*
X244518Y177891D01*
X244257Y178020D01*
X244004Y178121D01*
X243760Y178193D01*
X243523Y178236D01*
X243295Y178250D01*
X243242Y179500D01*
X243478Y179515D01*
X243717Y179560D01*
X243961Y179636D01*
X244208Y179741D01*
X244459Y179877D01*
X244714Y180043D01*
X244973Y180239D01*
X245235Y180466D01*
X245502Y180722D01*
X245772Y181009D01*
X245947Y176813D01*
D02*
G37*
G36*
X99840Y180418D02*
X101216Y179783D01*
X101500Y179681D01*
X101997Y179545D01*
X102209Y179511D01*
X102398Y179500D01*
X102790Y178250D01*
X102538Y178234D01*
X102295Y178185D01*
X102061Y178103D01*
X101835Y177989D01*
X101618Y177842D01*
X101410Y177662D01*
X101210Y177449D01*
X101019Y177204D01*
X100836Y176927D01*
X100662Y176616D01*
X99437Y180634D01*
X99840Y180418D01*
D02*
G37*
G36*
X38429Y165820D02*
X38983Y165348D01*
X39251Y165156D01*
X39513Y164994D01*
X39769Y164861D01*
X40020Y164758D01*
X40264Y164684D01*
X40502Y164640D01*
X40734Y164625D01*
Y163375D01*
X40502Y163360D01*
X40264Y163316D01*
X40020Y163242D01*
X39769Y163139D01*
X39513Y163006D01*
X39251Y162844D01*
X38983Y162652D01*
X38709Y162431D01*
X38142Y161900D01*
Y166100D01*
X38429Y165820D01*
D02*
G37*
G36*
X109143Y142762D02*
X109342Y142625D01*
X109567Y142505D01*
X109817Y142401D01*
X110092Y142313D01*
X110392Y142243D01*
X110717Y142189D01*
X111067Y142151D01*
X111844Y142126D01*
X108874Y139157D01*
X108869Y139557D01*
X108811Y140283D01*
X108757Y140608D01*
X108687Y140908D01*
X108599Y141183D01*
X108495Y141433D01*
X108375Y141658D01*
X108238Y141858D01*
X108084Y142032D01*
X108968Y142916D01*
X109143Y142762D01*
D02*
G37*
G36*
X117868Y131503D02*
X117473Y131512D01*
X116756Y131475D01*
X116433Y131428D01*
X116135Y131364D01*
X115861Y131282D01*
X115612Y131181D01*
X115386Y131062D01*
X115185Y130924D01*
X115008Y130769D01*
X114155Y131683D01*
X114307Y131855D01*
X114443Y132053D01*
X114565Y132277D01*
X114672Y132527D01*
X114764Y132803D01*
X114841Y133105D01*
X114904Y133433D01*
X114951Y133787D01*
X115001Y134572D01*
X117868Y131503D01*
D02*
G37*
G36*
X120004Y126320D02*
X120062Y125594D01*
X120116Y125269D01*
X120187Y124969D01*
X120274Y124693D01*
X120378Y124444D01*
X120499Y124219D01*
X120636Y124019D01*
X120789Y123844D01*
X119906Y122961D01*
X119731Y123114D01*
X119531Y123251D01*
X119306Y123372D01*
X119057Y123476D01*
X118782Y123563D01*
X118481Y123634D01*
X118156Y123688D01*
X117806Y123725D01*
X117030Y123750D01*
X120000Y126720D01*
X120004Y126320D01*
D02*
G37*
G36*
X120254Y112070D02*
X120312Y111344D01*
X120366Y111019D01*
X120437Y110718D01*
X120524Y110443D01*
X120628Y110194D01*
X120749Y109969D01*
X120886Y109769D01*
X121039Y109594D01*
X120156Y108710D01*
X119981Y108864D01*
X119781Y109001D01*
X119557Y109122D01*
X119307Y109226D01*
X119032Y109313D01*
X118731Y109384D01*
X118406Y109438D01*
X118056Y109475D01*
X117280Y109500D01*
X120250Y112470D01*
X120254Y112070D01*
D02*
G37*
G36*
X40789Y83906D02*
X40636Y83731D01*
X40499Y83531D01*
X40378Y83307D01*
X40274Y83057D01*
X40187Y82781D01*
X40116Y82481D01*
X40062Y82156D01*
X40025Y81806D01*
X40000Y81030D01*
X37030Y84000D01*
X37431Y84004D01*
X38156Y84062D01*
X38481Y84116D01*
X38782Y84187D01*
X39057Y84274D01*
X39306Y84378D01*
X39531Y84499D01*
X39731Y84636D01*
X39906Y84789D01*
X40789Y83906D01*
D02*
G37*
G36*
X324858Y28650D02*
X324571Y28930D01*
X324017Y29402D01*
X323749Y29594D01*
X323487Y29756D01*
X323231Y29889D01*
X322980Y29992D01*
X322736Y30066D01*
X322498Y30110D01*
X322266Y30125D01*
Y31375D01*
X322498Y31390D01*
X322736Y31434D01*
X322980Y31508D01*
X323231Y31611D01*
X323487Y31744D01*
X323749Y31906D01*
X324017Y32098D01*
X324291Y32319D01*
X324858Y32850D01*
Y28650D01*
D02*
G37*
D11*
X357000Y81000D02*
X361000Y77000D01*
X346450Y81000D02*
X357000D01*
X361000Y77000D02*
X373550D01*
X346450D02*
X361000D01*
X373550Y173000D02*
X380930D01*
X379430Y169000D02*
X380930Y170500D01*
X373550Y169000D02*
X379430D01*
X373550Y165000D02*
X378458D01*
X380930Y167472D01*
X353125Y93000D02*
X356000Y90125D01*
X346450Y93000D02*
X353125D01*
X358207Y89000D02*
X373550D01*
X356000Y90125D02*
X357082D01*
X358207Y89000D01*
X362000Y153000D02*
X365950Y149050D01*
X354000Y153000D02*
X362000D01*
X354000Y141000D02*
X358000Y137000D01*
X373550D01*
X357375Y125000D02*
X373550D01*
X354000Y128375D02*
X357375Y125000D01*
X354000Y115875D02*
X356875Y113000D01*
X373550D01*
X354000Y103000D02*
X355082D01*
X357082Y101000D02*
X373550D01*
X355082Y103000D02*
X357082Y101000D01*
X346450Y105000D02*
X350918D01*
X352918Y103000D01*
X354000D01*
X346500Y128950D02*
X353425D01*
X354000Y128375D01*
X346450Y141000D02*
X354000D01*
X352918Y115875D02*
X354000D01*
X346450Y117000D02*
X351793D01*
X352918Y115875D01*
X346450Y129000D02*
X346500Y128950D01*
X346450Y153000D02*
X354000D01*
X365950Y149050D02*
X373500D01*
X373550Y149000D01*
X366000Y161000D02*
X373550D01*
D50*
X45324Y89324D02*
X72679D01*
X117856Y134500D01*
X118000D01*
X72126Y213000D02*
X180000D01*
X188000Y205000D01*
X69000Y211000D02*
X70127D01*
X72126Y213000D01*
X37000Y81000D02*
X45324Y89324D01*
X379945Y97000D02*
X389699Y87246D01*
X379109Y54000D02*
X387199Y62089D01*
X378895Y93000D02*
X387199Y84696D01*
Y62089D02*
Y84696D01*
X373550Y93000D02*
X378895D01*
X376225Y80675D02*
X377075Y79825D01*
X377627D02*
X378725Y78727D01*
Y69673D02*
Y78727D01*
X373875Y80675D02*
X376225D01*
X356000Y63000D02*
X372052D01*
X378725Y69673D01*
X373550Y81000D02*
X373875Y80675D01*
X377075Y79825D02*
X377627D01*
X223000Y54000D02*
X379109D01*
X228881Y48881D02*
X377526D01*
X389699Y61054D01*
Y87246D01*
X100125Y194059D02*
X100601Y193583D01*
X241132D01*
X243715Y191000D02*
X245000D01*
X241132Y193583D02*
X243715Y191000D01*
X36000Y164000D02*
X87000D01*
X98875Y178875D02*
X247875D01*
X248000Y179000D01*
X98000Y178000D02*
X98875Y178875D01*
X182649Y198934D02*
X183125Y198458D01*
X76066Y198934D02*
X182649D01*
X75590Y199410D02*
X76066Y198934D01*
X208285Y97000D02*
X346450D01*
X206285Y95000D02*
X208285Y97000D01*
X199000Y149000D02*
X346450D01*
X205285Y131000D02*
X207285Y133000D01*
X346450D01*
X205000Y119000D02*
X206285D01*
X208285Y121000D01*
X199000Y101000D02*
X346450D01*
X208285Y109000D02*
X346450D01*
X206285Y107000D02*
X208285Y109000D01*
X205000Y107000D02*
X206285D01*
X199000Y113000D02*
X346450D01*
X206285Y143000D02*
X208285Y145000D01*
X346450D01*
X205000Y143000D02*
X206285D01*
X205000Y155000D02*
X206285D01*
X208285Y157000D01*
X346450D01*
X387957Y153043D02*
X388000Y153087D01*
X373550Y105000D02*
X388000D01*
X373550Y109000D02*
X378873D01*
X380873Y111000D01*
X382000D01*
X373550Y117000D02*
X388000D01*
X373550Y121000D02*
X378873D01*
X380873Y123000D01*
X382000D01*
X373550Y129000D02*
X388000D01*
X378725Y133010D02*
X380715Y135000D01*
X373550Y133000D02*
X376215D01*
X376225Y133010D01*
X380715Y135000D02*
X382000D01*
X376225Y133010D02*
X378725D01*
X373550Y141000D02*
X388000D01*
X373550Y145000D02*
X378873D01*
X380873Y147000D01*
X382000D01*
X373593Y153043D02*
X387957D01*
X373550Y153000D02*
X373593Y153043D01*
X380873Y159000D02*
X382000D01*
X378873Y157000D02*
X380873Y159000D01*
X373550Y157000D02*
X378873D01*
X352668Y25500D02*
X354418Y27250D01*
X117250Y112500D02*
X204250Y25500D01*
X352668D01*
X354418Y27250D02*
X355500D01*
X213000Y30750D02*
X327000D01*
X117000Y126750D02*
X213000Y30750D01*
X87000Y164000D02*
X111874Y139127D01*
X111874D01*
X198000Y161000D02*
X346450D01*
X199000Y137000D02*
X346450D01*
X199000Y125000D02*
X346450D01*
X205000Y95000D02*
X206285D01*
X219000Y89000D02*
X346450D01*
X209000Y79000D02*
X219000Y89000D01*
X229000Y85000D02*
X346450D01*
X214000Y70000D02*
X229000Y85000D01*
X204000Y131000D02*
X205285D01*
X208285Y121000D02*
X346450D01*
X228000Y48000D02*
X228881Y48881D01*
X373550Y97000D02*
X379945D01*
D52*
X380930Y173000D02*
Y229070D01*
Y170500D02*
Y173000D01*
Y167472D02*
Y170500D01*
X369000Y241000D02*
X380930Y229070D01*
X361000Y241000D02*
X369000D01*
D53*
X72800Y230500D02*
D03*
X98200D02*
D03*
X123600D02*
D03*
X149000D02*
D03*
X47400D02*
D03*
X22000D02*
D03*
D54*
X26000Y125000D02*
D03*
D55*
X118000Y134500D02*
D03*
X99000Y186000D02*
D03*
X305254Y230065D02*
D03*
X275254D02*
D03*
X260254Y200065D02*
D03*
X200254D02*
D03*
X185254Y230065D02*
D03*
X80254Y20064D02*
D03*
X65255Y170065D02*
D03*
X50255Y140064D02*
D03*
Y80064D02*
D03*
Y20064D02*
D03*
X20254D02*
D03*
X37000Y81000D02*
D03*
X382000Y11000D02*
D03*
X290000D02*
D03*
X240000Y10000D02*
D03*
X205000D02*
D03*
X172000D02*
D03*
X382324Y64109D02*
D03*
X356000Y63000D02*
D03*
X100125Y194059D02*
D03*
X101000Y33000D02*
D03*
X225000Y167000D02*
D03*
Y66000D02*
D03*
X234000Y68000D02*
D03*
X266000Y41000D02*
D03*
X307000Y40000D02*
D03*
X340000Y36000D02*
D03*
X362000Y35000D02*
D03*
X329000Y70000D02*
D03*
X271000D02*
D03*
X267000Y188000D02*
D03*
X255000Y195000D02*
D03*
X150000Y170000D02*
D03*
X118000D02*
D03*
X45000Y176000D02*
D03*
X179000Y239000D02*
D03*
X298000Y236000D02*
D03*
X269000D02*
D03*
X243000D02*
D03*
X143000Y147000D02*
D03*
X133000Y136000D02*
D03*
X124000Y148000D02*
D03*
X319000Y197000D02*
D03*
Y207000D02*
D03*
Y216000D02*
D03*
X330000Y176000D02*
D03*
X322000D02*
D03*
X283000Y166000D02*
D03*
X374000Y192000D02*
D03*
X391000Y227000D02*
D03*
Y234000D02*
D03*
X346000Y16000D02*
D03*
X308000D02*
D03*
X269000Y19000D02*
D03*
X109000Y14000D02*
D03*
X62000Y36750D02*
D03*
X62000Y52000D02*
D03*
X62000Y67500D02*
D03*
Y83000D02*
D03*
X53000Y108000D02*
D03*
X36000Y164000D02*
D03*
X129000Y204000D02*
D03*
X287000Y42000D02*
D03*
Y79000D02*
D03*
X218000Y208000D02*
D03*
X17000Y201750D02*
D03*
X64500Y191000D02*
D03*
X62000Y155500D02*
D03*
X78000Y140000D02*
D03*
X98000Y178000D02*
D03*
X77000Y208000D02*
D03*
X69000Y211000D02*
D03*
X183125Y198458D02*
D03*
X188000Y205000D02*
D03*
X180000D02*
D03*
X252000Y186000D02*
D03*
X89000Y71000D02*
D03*
X113000Y120000D02*
D03*
X366000Y192000D02*
D03*
X369000Y241000D02*
D03*
X361000D02*
D03*
X356000Y90125D02*
D03*
X361000Y77000D02*
D03*
X354000Y103000D02*
D03*
Y115875D02*
D03*
Y128375D02*
D03*
Y141000D02*
D03*
Y153000D02*
D03*
X366000Y161000D02*
D03*
X393000Y111000D02*
D03*
Y123000D02*
D03*
Y135000D02*
D03*
Y147000D02*
D03*
X390000Y161000D02*
D03*
X388000Y105000D02*
D03*
X382000Y111000D02*
D03*
X388000Y117000D02*
D03*
X382000Y123000D02*
D03*
X388000Y129000D02*
D03*
X382000Y135000D02*
D03*
X388000Y141000D02*
D03*
X382000Y147000D02*
D03*
X388000Y153000D02*
D03*
X382000Y159000D02*
D03*
X117250Y112500D02*
D03*
X117000Y126750D02*
D03*
X327000Y30750D02*
D03*
X355500Y27250D02*
D03*
X214000Y233000D02*
D03*
X19000Y35000D02*
D03*
X75590Y199410D02*
D03*
X111874Y139127D02*
D03*
X248000Y179000D02*
D03*
X245000Y191000D02*
D03*
X198000Y161000D02*
D03*
X205000Y155000D02*
D03*
X199000Y149000D02*
D03*
X205000Y143000D02*
D03*
X199000Y137000D02*
D03*
X204000Y131000D02*
D03*
X199000Y125000D02*
D03*
X205000Y119000D02*
D03*
X199000Y113000D02*
D03*
X205000Y107000D02*
D03*
X199000Y101000D02*
D03*
X205000Y95000D02*
D03*
X209000Y79000D02*
D03*
X214000Y70000D02*
D03*
X223000Y54000D02*
D03*
X228000Y48000D02*
D03*
D56*
X373550Y72200D02*
D03*
X346450D02*
D03*
X373550Y177800D02*
D03*
X346450D02*
D03*
D57*
X373550Y77000D02*
D03*
Y81000D02*
D03*
Y85000D02*
D03*
Y89000D02*
D03*
Y93000D02*
D03*
X346450Y77000D02*
D03*
Y81000D02*
D03*
Y85000D02*
D03*
Y89000D02*
D03*
Y93000D02*
D03*
Y145000D02*
D03*
Y149000D02*
D03*
Y153000D02*
D03*
Y157000D02*
D03*
Y97000D02*
D03*
Y101000D02*
D03*
Y173000D02*
D03*
Y169000D02*
D03*
X373550Y101000D02*
D03*
Y97000D02*
D03*
Y173000D02*
D03*
Y169000D02*
D03*
Y145000D02*
D03*
Y149000D02*
D03*
Y153000D02*
D03*
Y157000D02*
D03*
Y161000D02*
D03*
Y165000D02*
D03*
X346450Y161000D02*
D03*
Y165000D02*
D03*
Y105000D02*
D03*
Y109000D02*
D03*
Y113000D02*
D03*
Y117000D02*
D03*
Y141000D02*
D03*
Y137000D02*
D03*
Y133000D02*
D03*
Y129000D02*
D03*
X373550Y141000D02*
D03*
Y137000D02*
D03*
Y133000D02*
D03*
Y129000D02*
D03*
Y105000D02*
D03*
Y109000D02*
D03*
Y113000D02*
D03*
Y117000D02*
D03*
Y121000D02*
D03*
Y125000D02*
D03*
X346450Y121000D02*
D03*
Y125000D02*
D03*
M02*
