G04*
G04 #@! TF.GenerationSoftware,Altium Limited,Altium Designer,25.1.2 (22)*
G04*
G04 Layer_Color=16776960*
%FSLAX44Y44*%
%MOMM*%
G71*
G04*
G04 #@! TF.SameCoordinates,7ED34E8D-A4F8-468C-8B7F-49A99E5286A2*
G04*
G04*
G04 #@! TF.FilePolarity,Positive*
G04*
G01*
G75*
%ADD11C,0.2000*%
%ADD14C,0.1500*%
%ADD60C,0.1200*%
G36*
X255640Y216846D02*
X257179D01*
Y216692D01*
X258103D01*
Y216538D01*
X259026D01*
Y216384D01*
X259796D01*
Y216230D01*
X260411D01*
Y216077D01*
X260873D01*
Y215923D01*
X261489D01*
Y215769D01*
X261951D01*
Y215615D01*
X262258D01*
Y215461D01*
X262720D01*
Y215307D01*
X263028D01*
Y215153D01*
X263490D01*
Y214999D01*
X263798D01*
Y214845D01*
X263951D01*
Y214691D01*
X264259D01*
Y214537D01*
X264567D01*
Y214383D01*
X264875D01*
Y214230D01*
X265183D01*
Y214076D01*
X265337D01*
Y213922D01*
X265491D01*
Y213768D01*
X265798D01*
Y213614D01*
X265952D01*
Y213460D01*
X266260D01*
Y213306D01*
X266414D01*
Y213152D01*
X266568D01*
Y212998D01*
X266722D01*
Y212844D01*
X266876D01*
Y212690D01*
X267030D01*
Y212536D01*
X267184D01*
Y212383D01*
X267338D01*
Y212229D01*
X267492D01*
Y212075D01*
X267645D01*
Y211921D01*
X267799D01*
Y211767D01*
X267953D01*
Y211613D01*
X268107D01*
Y211459D01*
X268261D01*
Y211151D01*
X268415D01*
Y210997D01*
X268569D01*
Y210689D01*
X268723D01*
Y210535D01*
X268877D01*
Y210228D01*
X269031D01*
Y210074D01*
X269185D01*
Y209766D01*
X269339D01*
Y209458D01*
X269492D01*
Y209150D01*
X269646D01*
Y208842D01*
X269800D01*
Y208381D01*
X269954D01*
Y207919D01*
X270108D01*
Y207611D01*
X270262D01*
Y206995D01*
X270416D01*
Y206380D01*
X270570D01*
Y205764D01*
X270724D01*
Y204841D01*
X270878D01*
Y203147D01*
X271032D01*
Y200993D01*
X270878D01*
Y198992D01*
X270724D01*
Y197760D01*
X270570D01*
Y196837D01*
X270416D01*
Y196067D01*
X270262D01*
Y195298D01*
X270108D01*
Y194528D01*
X269954D01*
Y193912D01*
X269800D01*
Y193297D01*
X269646D01*
Y192835D01*
X269492D01*
Y192219D01*
X269339D01*
Y191758D01*
X269185D01*
Y191296D01*
X269031D01*
Y190680D01*
X268877D01*
Y190218D01*
X268723D01*
Y189757D01*
X268569D01*
Y189295D01*
X268415D01*
Y188833D01*
X268261D01*
Y188525D01*
X268107D01*
Y188063D01*
X267953D01*
Y187602D01*
X267799D01*
Y187140D01*
X267645D01*
Y186832D01*
X267492D01*
Y186370D01*
X267338D01*
Y186063D01*
X267184D01*
Y185601D01*
X267030D01*
Y185293D01*
X266876D01*
Y184985D01*
X266722D01*
Y184523D01*
X266568D01*
Y184216D01*
X266414D01*
Y183908D01*
X266260D01*
Y183600D01*
X266106D01*
Y183138D01*
X265952D01*
Y182830D01*
X265798D01*
Y182522D01*
X265645D01*
Y182215D01*
X265491D01*
Y181907D01*
X265337D01*
Y181599D01*
X265183D01*
Y181291D01*
X265029D01*
Y180983D01*
X264875D01*
Y180675D01*
X264721D01*
Y180368D01*
X264567D01*
Y180060D01*
X264413D01*
Y179598D01*
X264721D01*
Y179444D01*
X264875D01*
Y179290D01*
X265029D01*
Y179136D01*
X265183D01*
Y178982D01*
X265337D01*
Y178828D01*
X265491D01*
Y178674D01*
X265645D01*
Y178521D01*
X265798D01*
Y178367D01*
X265952D01*
Y178059D01*
X266106D01*
Y177905D01*
X266260D01*
Y177597D01*
X266414D01*
Y177289D01*
X266568D01*
Y176827D01*
X266722D01*
Y176366D01*
X266876D01*
Y174365D01*
X266722D01*
Y173903D01*
X266568D01*
Y173441D01*
X266414D01*
Y173133D01*
X266260D01*
Y172980D01*
X266106D01*
Y172672D01*
X265952D01*
Y172210D01*
X265798D01*
Y171902D01*
X265645D01*
Y171440D01*
X265491D01*
Y171133D01*
X265337D01*
Y170671D01*
X265491D01*
Y170209D01*
X265645D01*
Y169901D01*
X265798D01*
Y169439D01*
X265952D01*
Y168978D01*
X266106D01*
Y168670D01*
X266260D01*
Y168208D01*
X266414D01*
Y167900D01*
X266568D01*
Y167438D01*
X266722D01*
Y167131D01*
X266876D01*
Y166823D01*
X267030D01*
Y166361D01*
X267184D01*
Y166053D01*
X267338D01*
Y165745D01*
X267492D01*
Y165284D01*
X267645D01*
Y164976D01*
X267799D01*
Y164668D01*
X267953D01*
Y164360D01*
X268107D01*
Y163898D01*
X268261D01*
Y163591D01*
X268415D01*
Y163283D01*
X268569D01*
Y162975D01*
X268723D01*
Y162667D01*
X268877D01*
Y162359D01*
X269031D01*
Y162051D01*
X269185D01*
Y161744D01*
X269339D01*
Y161436D01*
X269492D01*
Y161128D01*
X269646D01*
Y160820D01*
X269800D01*
Y160512D01*
X269954D01*
Y160204D01*
X270108D01*
Y160050D01*
X270262D01*
Y159742D01*
X270416D01*
Y159435D01*
X270570D01*
Y159127D01*
X270724D01*
Y158973D01*
X270878D01*
Y158665D01*
X271032D01*
Y158357D01*
X271186D01*
Y158049D01*
X271339D01*
Y157895D01*
X271493D01*
Y157588D01*
X271647D01*
Y157434D01*
X271801D01*
Y157126D01*
X271955D01*
Y156972D01*
X272109D01*
Y156664D01*
X272263D01*
Y156356D01*
X272417D01*
Y156202D01*
X272571D01*
Y155895D01*
X272725D01*
Y155741D01*
X272879D01*
Y155587D01*
X273033D01*
Y155279D01*
X273187D01*
Y155125D01*
X273340D01*
Y154817D01*
X273494D01*
Y154663D01*
X273648D01*
Y154509D01*
X273802D01*
Y154201D01*
X273956D01*
Y154048D01*
X274110D01*
Y153894D01*
X274264D01*
Y153740D01*
X274418D01*
Y153586D01*
X274572D01*
Y153278D01*
X274726D01*
Y153124D01*
X274880D01*
Y152970D01*
X275034D01*
Y152816D01*
X275187D01*
Y152662D01*
X275341D01*
Y152354D01*
X275495D01*
Y152201D01*
X275649D01*
Y152047D01*
X275803D01*
Y151893D01*
X275957D01*
Y151739D01*
X276111D01*
Y151585D01*
X276265D01*
Y151431D01*
X276419D01*
Y151277D01*
X276573D01*
Y151123D01*
X276727D01*
Y150969D01*
X276881D01*
Y150815D01*
X277034D01*
Y150661D01*
X277188D01*
Y150507D01*
X277496D01*
Y150353D01*
X277650D01*
Y150200D01*
X277804D01*
Y150046D01*
X277958D01*
Y149892D01*
X278112D01*
Y149738D01*
X278420D01*
Y149584D01*
X278574D01*
Y149430D01*
X278728D01*
Y149276D01*
X279035D01*
Y149122D01*
X279189D01*
Y148968D01*
X279497D01*
Y148814D01*
X279651D01*
Y148660D01*
X279959D01*
Y148506D01*
X280267D01*
Y148353D01*
X280575D01*
Y148199D01*
X280728D01*
Y148045D01*
X281190D01*
Y147891D01*
X281498D01*
Y147737D01*
X281806D01*
Y147583D01*
X282268D01*
Y147429D01*
X282729D01*
Y147275D01*
X283345D01*
Y147121D01*
X284115D01*
Y146967D01*
X285500D01*
Y146813D01*
X287347D01*
Y146967D01*
X288886D01*
Y147121D01*
X289656D01*
Y147275D01*
X290271D01*
Y147429D01*
X290733D01*
Y147583D01*
X291195D01*
Y147737D01*
X291657D01*
Y147891D01*
X291964D01*
Y148045D01*
X292272D01*
Y148199D01*
X292580D01*
Y148353D01*
X292888D01*
Y148506D01*
X293042D01*
Y148660D01*
X293350D01*
Y148814D01*
X293504D01*
Y148968D01*
X293812D01*
Y149122D01*
X293965D01*
Y149276D01*
X294119D01*
Y149430D01*
X294273D01*
Y149584D01*
X294427D01*
Y149738D01*
X294581D01*
Y149892D01*
X294735D01*
Y150046D01*
X294889D01*
Y150200D01*
X295043D01*
Y150353D01*
X295197D01*
Y150507D01*
X295351D01*
Y150661D01*
X295505D01*
Y150815D01*
X295659D01*
Y151123D01*
X295812D01*
Y151277D01*
X295966D01*
Y151585D01*
X296120D01*
Y151893D01*
X296274D01*
Y152047D01*
X296428D01*
Y152354D01*
X296582D01*
Y152662D01*
X296736D01*
Y153124D01*
X296890D01*
Y153432D01*
X297044D01*
Y153894D01*
X297198D01*
Y154355D01*
X297352D01*
Y154971D01*
X297506D01*
Y155895D01*
X297659D01*
Y159281D01*
X297506D01*
Y160204D01*
X297352D01*
Y160666D01*
X297198D01*
Y161282D01*
X297044D01*
Y161744D01*
X296890D01*
Y162051D01*
X296736D01*
Y162359D01*
X296582D01*
Y162667D01*
X296428D01*
Y162975D01*
X296274D01*
Y163283D01*
X296120D01*
Y163437D01*
X295966D01*
Y163591D01*
X295812D01*
Y163898D01*
X295659D01*
Y164052D01*
X295505D01*
Y164206D01*
X295351D01*
Y164360D01*
X295197D01*
Y164514D01*
X295043D01*
Y164668D01*
X294889D01*
Y164822D01*
X294735D01*
Y164976D01*
X294581D01*
Y165130D01*
X294273D01*
Y165284D01*
X294119D01*
Y165438D01*
X293965D01*
Y165591D01*
X293658D01*
Y165745D01*
X293504D01*
Y165899D01*
X293196D01*
Y166053D01*
X292888D01*
Y166207D01*
X292580D01*
Y166361D01*
X292118D01*
Y166515D01*
X291811D01*
Y166669D01*
X291349D01*
Y166823D01*
X290887D01*
Y166977D01*
X290271D01*
Y167131D01*
X289656D01*
Y167285D01*
X288732D01*
Y167438D01*
X285346D01*
Y167592D01*
X285038D01*
Y167746D01*
X284730D01*
Y168054D01*
X284576D01*
Y168516D01*
X284730D01*
Y168824D01*
X284884D01*
Y169132D01*
X285038D01*
Y169285D01*
X285192D01*
Y169439D01*
X285500D01*
Y169593D01*
X285654D01*
Y169747D01*
X285962D01*
Y169901D01*
X286270D01*
Y170055D01*
X286731D01*
Y170209D01*
X287347D01*
Y170363D01*
X288270D01*
Y170517D01*
X290887D01*
Y170363D01*
X291811D01*
Y170209D01*
X292426D01*
Y170055D01*
X293042D01*
Y169901D01*
X293504D01*
Y169747D01*
X293965D01*
Y169593D01*
X294427D01*
Y169439D01*
X294735D01*
Y169285D01*
X295043D01*
Y169132D01*
X295351D01*
Y168978D01*
X295659D01*
Y168824D01*
X295966D01*
Y168670D01*
X296120D01*
Y168516D01*
X296428D01*
Y168362D01*
X296736D01*
Y168208D01*
X296890D01*
Y168054D01*
X297198D01*
Y167900D01*
X297352D01*
Y167746D01*
X297506D01*
Y167592D01*
X297659D01*
Y167438D01*
X297967D01*
Y167285D01*
X298121D01*
Y167131D01*
X298275D01*
Y166977D01*
X298429D01*
Y166823D01*
X298583D01*
Y166669D01*
X298737D01*
Y166515D01*
X298891D01*
Y166361D01*
X299045D01*
Y166207D01*
X299199D01*
Y166053D01*
X299353D01*
Y165899D01*
X299506D01*
Y165745D01*
X299660D01*
Y165438D01*
X299814D01*
Y165284D01*
X299968D01*
Y165130D01*
X300122D01*
Y164976D01*
X300276D01*
Y164668D01*
X300430D01*
Y164514D01*
X300584D01*
Y164206D01*
X300738D01*
Y163898D01*
X300892D01*
Y163744D01*
X301046D01*
Y163437D01*
X301200D01*
Y163129D01*
X301354D01*
Y162821D01*
X301507D01*
Y162513D01*
X301661D01*
Y162205D01*
X301815D01*
Y161744D01*
X301969D01*
Y161436D01*
X302123D01*
Y160974D01*
X302277D01*
Y160512D01*
X302431D01*
Y160050D01*
X302585D01*
Y159435D01*
X302739D01*
Y158665D01*
X302893D01*
Y157742D01*
X303047D01*
Y153740D01*
X302893D01*
Y152816D01*
X302739D01*
Y152201D01*
X302585D01*
Y151585D01*
X302431D01*
Y151123D01*
X302277D01*
Y150661D01*
X302123D01*
Y150200D01*
X301969D01*
Y149892D01*
X301815D01*
Y149430D01*
X301661D01*
Y149122D01*
X301507D01*
Y148814D01*
X301354D01*
Y148506D01*
X301200D01*
Y148199D01*
X301046D01*
Y148045D01*
X300892D01*
Y147737D01*
X300738D01*
Y147429D01*
X300584D01*
Y147275D01*
X300430D01*
Y146967D01*
X300276D01*
Y146813D01*
X300122D01*
Y146506D01*
X299968D01*
Y146352D01*
X299814D01*
Y146044D01*
X299660D01*
Y145890D01*
X299506D01*
Y145736D01*
X299353D01*
Y145582D01*
X299199D01*
Y145428D01*
X299045D01*
Y145120D01*
X298891D01*
Y144966D01*
X298737D01*
Y144812D01*
X298583D01*
Y144659D01*
X298429D01*
Y144505D01*
X298121D01*
Y144351D01*
X297967D01*
Y144197D01*
X297813D01*
Y144043D01*
X297659D01*
Y143889D01*
X297352D01*
Y143735D01*
X297198D01*
Y143581D01*
X297044D01*
Y143427D01*
X296736D01*
Y143273D01*
X296428D01*
Y143119D01*
X296274D01*
Y142965D01*
X295966D01*
Y142812D01*
X295659D01*
Y142658D01*
X295351D01*
Y142504D01*
X295043D01*
Y142350D01*
X294581D01*
Y142196D01*
X294273D01*
Y142042D01*
X293812D01*
Y141888D01*
X293350D01*
Y141734D01*
X292888D01*
Y141580D01*
X292426D01*
Y141426D01*
X291811D01*
Y141272D01*
X291041D01*
Y141118D01*
X290271D01*
Y140965D01*
X289194D01*
Y140811D01*
X287809D01*
Y140657D01*
X285192D01*
Y140503D01*
X284269D01*
Y140657D01*
X282883D01*
Y140349D01*
X283037D01*
Y139733D01*
X283191D01*
Y139117D01*
X283345D01*
Y138348D01*
X283499D01*
Y137732D01*
X283653D01*
Y136963D01*
X283807D01*
Y136193D01*
X283961D01*
Y135423D01*
X284115D01*
Y134500D01*
X284269D01*
Y133576D01*
X284423D01*
Y132499D01*
X284576D01*
Y131422D01*
X284730D01*
Y129728D01*
X284884D01*
Y124649D01*
X286423D01*
Y124803D01*
X287347D01*
Y124957D01*
X288117D01*
Y125111D01*
X288578D01*
Y125265D01*
X289040D01*
Y125419D01*
X289348D01*
Y125573D01*
X289656D01*
Y125727D01*
X289964D01*
Y125881D01*
X290271D01*
Y126034D01*
X290579D01*
Y126188D01*
X290733D01*
Y126342D01*
X291041D01*
Y126496D01*
X291195D01*
Y126650D01*
X291349D01*
Y126804D01*
X291503D01*
Y126958D01*
X291657D01*
Y127112D01*
X291964D01*
Y127266D01*
X292118D01*
Y127420D01*
X292272D01*
Y127728D01*
X292426D01*
Y127881D01*
X292580D01*
Y128035D01*
X292734D01*
Y128189D01*
X292888D01*
Y128497D01*
X293042D01*
Y128651D01*
X293196D01*
Y128805D01*
X293350D01*
Y129113D01*
X293504D01*
Y129421D01*
X293658D01*
Y129575D01*
X293812D01*
Y129882D01*
X293965D01*
Y130190D01*
X294119D01*
Y130652D01*
X294273D01*
Y130960D01*
X294427D01*
Y131422D01*
X294581D01*
Y132037D01*
X294735D01*
Y133115D01*
X294889D01*
Y133576D01*
X295043D01*
Y133884D01*
X295197D01*
Y134192D01*
X295351D01*
Y134346D01*
X295505D01*
Y134500D01*
X296274D01*
Y134346D01*
X296582D01*
Y134192D01*
X296736D01*
Y134038D01*
X296890D01*
Y133884D01*
X297044D01*
Y133730D01*
X297198D01*
Y133423D01*
X297352D01*
Y133115D01*
X297506D01*
Y132499D01*
X297659D01*
Y130190D01*
X297506D01*
Y129421D01*
X297352D01*
Y128959D01*
X297198D01*
Y128497D01*
X297044D01*
Y128035D01*
X296890D01*
Y127728D01*
X296736D01*
Y127420D01*
X296582D01*
Y127112D01*
X296428D01*
Y126804D01*
X296274D01*
Y126650D01*
X296120D01*
Y126342D01*
X295966D01*
Y126188D01*
X295812D01*
Y125881D01*
X295659D01*
Y125727D01*
X295505D01*
Y125573D01*
X295351D01*
Y125265D01*
X295197D01*
Y125111D01*
X295043D01*
Y124957D01*
X294889D01*
Y124803D01*
X294735D01*
Y124649D01*
X294581D01*
Y124495D01*
X294427D01*
Y124341D01*
X294273D01*
Y124187D01*
X294119D01*
Y124034D01*
X293965D01*
Y123880D01*
X293812D01*
Y123726D01*
X293504D01*
Y123572D01*
X293350D01*
Y123418D01*
X293196D01*
Y123264D01*
X292888D01*
Y123110D01*
X292734D01*
Y122956D01*
X292426D01*
Y122802D01*
X292272D01*
Y122648D01*
X291964D01*
Y122494D01*
X291811D01*
Y122340D01*
X291503D01*
Y122187D01*
X291195D01*
Y122033D01*
X290887D01*
Y121879D01*
X290579D01*
Y121725D01*
X290271D01*
Y121571D01*
X289964D01*
Y121417D01*
X289502D01*
Y121263D01*
X289040D01*
Y121109D01*
X288578D01*
Y120955D01*
X287963D01*
Y120801D01*
X287347D01*
Y120647D01*
X286577D01*
Y120493D01*
X285654D01*
Y120340D01*
X284269D01*
Y119878D01*
X284115D01*
Y119262D01*
X283961D01*
Y118646D01*
X283807D01*
Y118339D01*
X283653D01*
Y117877D01*
X283499D01*
Y117569D01*
X283345D01*
Y117107D01*
X283191D01*
Y116799D01*
X283037D01*
Y116492D01*
X282883D01*
Y116184D01*
X282729D01*
Y115876D01*
X282576D01*
Y115568D01*
X282422D01*
Y115260D01*
X282268D01*
Y114952D01*
X282114D01*
Y114798D01*
X281960D01*
Y114491D01*
X281806D01*
Y114183D01*
X281652D01*
Y114029D01*
X281498D01*
Y113721D01*
X281344D01*
Y113567D01*
X281190D01*
Y113259D01*
X281036D01*
Y113105D01*
X280882D01*
Y112798D01*
X280728D01*
Y112644D01*
X280575D01*
Y112490D01*
X280421D01*
Y112182D01*
X280267D01*
Y112028D01*
X280113D01*
Y111874D01*
X279959D01*
Y111720D01*
X279805D01*
Y111566D01*
X279651D01*
Y111258D01*
X279497D01*
Y111104D01*
X279343D01*
Y110951D01*
X279189D01*
Y110797D01*
X279035D01*
Y110643D01*
X278881D01*
Y110489D01*
X278728D01*
Y110335D01*
X278574D01*
Y110181D01*
X278420D01*
Y110027D01*
X278266D01*
Y109873D01*
X278112D01*
Y109719D01*
X277804D01*
Y109565D01*
X277650D01*
Y109411D01*
X277496D01*
Y109257D01*
X277342D01*
Y109103D01*
X277034D01*
Y108950D01*
X276881D01*
Y108796D01*
X276573D01*
Y108642D01*
X276419D01*
Y108488D01*
X276111D01*
Y108334D01*
X275957D01*
Y108180D01*
X275649D01*
Y108026D01*
X275341D01*
Y107872D01*
X275034D01*
Y107718D01*
X274726D01*
Y107564D01*
X274418D01*
Y107410D01*
X274110D01*
Y107256D01*
X273648D01*
Y107103D01*
X273187D01*
Y106949D01*
X272571D01*
Y106795D01*
X271955D01*
Y106641D01*
X271032D01*
Y106487D01*
X269954D01*
Y106333D01*
X269800D01*
Y105871D01*
X269646D01*
Y105563D01*
X269492D01*
Y105256D01*
X269339D01*
Y104948D01*
X269185D01*
Y104640D01*
X269031D01*
Y104486D01*
X268877D01*
Y104178D01*
X268723D01*
Y103870D01*
X268569D01*
Y103562D01*
X268415D01*
Y103409D01*
X268261D01*
Y103101D01*
X268107D01*
Y102793D01*
X267953D01*
Y102485D01*
X267799D01*
Y102331D01*
X267645D01*
Y102023D01*
X267492D01*
Y101715D01*
X267338D01*
Y101562D01*
X267184D01*
Y101254D01*
X267030D01*
Y100946D01*
X266876D01*
Y100792D01*
X266722D01*
Y100484D01*
X266568D01*
Y100176D01*
X266414D01*
Y100022D01*
X266260D01*
Y99715D01*
X266106D01*
Y99407D01*
X265952D01*
Y99253D01*
X265798D01*
Y98945D01*
X265645D01*
Y98791D01*
X265491D01*
Y98637D01*
X265337D01*
Y98329D01*
X265183D01*
Y98175D01*
X265029D01*
Y98021D01*
X264875D01*
Y97867D01*
X264721D01*
Y97560D01*
X264567D01*
Y97406D01*
X264413D01*
Y97252D01*
X264259D01*
Y97098D01*
X264105D01*
Y96944D01*
X263951D01*
Y96790D01*
X263798D01*
Y96636D01*
X263490D01*
Y96482D01*
X263336D01*
Y96328D01*
X263182D01*
Y96174D01*
X263028D01*
Y96020D01*
X262720D01*
Y95867D01*
X262566D01*
Y95713D01*
X262412D01*
Y95559D01*
X262104D01*
Y95405D01*
X261951D01*
Y95251D01*
X261643D01*
Y95097D01*
X261335D01*
Y94943D01*
X261027D01*
Y94789D01*
X260719D01*
Y94635D01*
X260411D01*
Y94481D01*
X260103D01*
Y94327D01*
X259796D01*
Y94173D01*
X259334D01*
Y94020D01*
X258872D01*
Y93866D01*
X258410D01*
Y93712D01*
X257795D01*
Y93558D01*
X257025D01*
Y93404D01*
X256256D01*
Y93250D01*
X252254D01*
Y93404D01*
X251176D01*
Y93558D01*
X250561D01*
Y93712D01*
X249945D01*
Y93866D01*
X249483D01*
Y94020D01*
X249021D01*
Y94173D01*
X248560D01*
Y94327D01*
X248252D01*
Y94481D01*
X247944D01*
Y94635D01*
X247636D01*
Y94789D01*
X247482D01*
Y94943D01*
X247174D01*
Y95097D01*
X247020D01*
Y95251D01*
X246713D01*
Y95405D01*
X246559D01*
Y95559D01*
X246405D01*
Y95713D01*
X246251D01*
Y95867D01*
X245943D01*
Y96174D01*
X245789D01*
Y96328D01*
X245635D01*
Y96482D01*
X245481D01*
Y96636D01*
X245327D01*
Y96944D01*
X245173D01*
Y97252D01*
X245020D01*
Y97714D01*
X244866D01*
Y98329D01*
X245020D01*
Y98483D01*
X245173D01*
Y98637D01*
X245481D01*
Y98791D01*
X247328D01*
Y98637D01*
X248098D01*
Y98483D01*
X248714D01*
Y98329D01*
X249175D01*
Y98175D01*
X249791D01*
Y98021D01*
X250253D01*
Y97867D01*
X250715D01*
Y97714D01*
X251176D01*
Y97560D01*
X251792D01*
Y97406D01*
X252869D01*
Y97252D01*
X253177D01*
Y97406D01*
X254716D01*
Y97560D01*
X255332D01*
Y97714D01*
X255794D01*
Y97867D01*
X256102D01*
Y98021D01*
X256409D01*
Y98175D01*
X256871D01*
Y98329D01*
X257025D01*
Y98483D01*
X257333D01*
Y98637D01*
X257641D01*
Y98791D01*
X257795D01*
Y98945D01*
X258103D01*
Y99099D01*
X258256D01*
Y99253D01*
X258410D01*
Y99407D01*
X258718D01*
Y99561D01*
X258872D01*
Y99715D01*
X259026D01*
Y99868D01*
X259180D01*
Y100022D01*
X259334D01*
Y100176D01*
X259488D01*
Y100330D01*
X259642D01*
Y100484D01*
X259796D01*
Y100638D01*
X259950D01*
Y100792D01*
X260103D01*
Y100946D01*
X260257D01*
Y101100D01*
X260411D01*
Y101254D01*
X260565D01*
Y101408D01*
X260719D01*
Y101562D01*
X260873D01*
Y101715D01*
X261027D01*
Y102023D01*
X261181D01*
Y102177D01*
X261335D01*
Y102331D01*
X261489D01*
Y102485D01*
X261643D01*
Y102793D01*
X261797D01*
Y102947D01*
X261951D01*
Y103101D01*
X262104D01*
Y103409D01*
X262258D01*
Y103562D01*
X262412D01*
Y103870D01*
X262566D01*
Y104178D01*
X262720D01*
Y104332D01*
X262874D01*
Y104640D01*
X263028D01*
Y104948D01*
X263182D01*
Y105256D01*
X263336D01*
Y105409D01*
X263490D01*
Y105871D01*
X263644D01*
Y106179D01*
X263798D01*
Y106487D01*
X263951D01*
Y106949D01*
X264105D01*
Y107103D01*
X263798D01*
Y107256D01*
X263336D01*
Y107410D01*
X263028D01*
Y107564D01*
X262566D01*
Y107718D01*
X262412D01*
Y107872D01*
X262104D01*
Y108026D01*
X261797D01*
Y108180D01*
X261489D01*
Y108334D01*
X261335D01*
Y108488D01*
X261027D01*
Y108642D01*
X260873D01*
Y108796D01*
X260719D01*
Y108950D01*
X260411D01*
Y109103D01*
X260257D01*
Y109257D01*
X260103D01*
Y109411D01*
X259950D01*
Y109565D01*
X259796D01*
Y109719D01*
X259642D01*
Y109873D01*
X259488D01*
Y110027D01*
X259334D01*
Y110181D01*
X259180D01*
Y110335D01*
X259026D01*
Y110489D01*
X258872D01*
Y110643D01*
X258718D01*
Y110797D01*
X258564D01*
Y110951D01*
X258410D01*
Y111258D01*
X258256D01*
Y111412D01*
X258103D01*
Y111566D01*
X257949D01*
Y111874D01*
X257795D01*
Y112028D01*
X257641D01*
Y112336D01*
X257487D01*
Y112644D01*
X257333D01*
Y112951D01*
X257179D01*
Y113105D01*
X257025D01*
Y113413D01*
X256871D01*
Y113721D01*
X256717D01*
Y114183D01*
X256563D01*
Y114491D01*
X256409D01*
Y114952D01*
X256256D01*
Y115414D01*
X256102D01*
Y115876D01*
X255948D01*
Y116492D01*
X255794D01*
Y117107D01*
X255640D01*
Y118185D01*
X255486D01*
Y120186D01*
X255640D01*
Y120955D01*
X255794D01*
Y121263D01*
X255948D01*
Y121571D01*
X256102D01*
Y121725D01*
X256256D01*
Y121879D01*
X256409D01*
Y122033D01*
X256563D01*
Y122187D01*
X256871D01*
Y122340D01*
X257333D01*
Y122187D01*
X257641D01*
Y122033D01*
X257795D01*
Y121725D01*
X257949D01*
Y121417D01*
X258103D01*
Y120955D01*
X258256D01*
Y120032D01*
X258410D01*
Y119262D01*
X258564D01*
Y118954D01*
X258718D01*
Y118492D01*
X258872D01*
Y118031D01*
X259026D01*
Y117723D01*
X259180D01*
Y117569D01*
X259334D01*
Y117261D01*
X259488D01*
Y116953D01*
X259642D01*
Y116645D01*
X259796D01*
Y116492D01*
X259950D01*
Y116184D01*
X260103D01*
Y116030D01*
X260257D01*
Y115876D01*
X260411D01*
Y115722D01*
X260565D01*
Y115414D01*
X260719D01*
Y115260D01*
X260873D01*
Y115106D01*
X261027D01*
Y114952D01*
X261181D01*
Y114798D01*
X261335D01*
Y114645D01*
X261643D01*
Y114491D01*
X261797D01*
Y114337D01*
X261951D01*
Y114183D01*
X262258D01*
Y114029D01*
X262412D01*
Y113875D01*
X262720D01*
Y113721D01*
X262874D01*
Y113567D01*
X263182D01*
Y113413D01*
X263490D01*
Y113259D01*
X263951D01*
Y113105D01*
X264259D01*
Y112951D01*
X264413D01*
Y113259D01*
X264259D01*
Y114029D01*
X264105D01*
Y114798D01*
X263951D01*
Y115414D01*
X263798D01*
Y116030D01*
X263644D01*
Y116492D01*
X263490D01*
Y116953D01*
X263336D01*
Y117415D01*
X263182D01*
Y117877D01*
X263028D01*
Y118339D01*
X262874D01*
Y118800D01*
X262720D01*
Y119108D01*
X262566D01*
Y119570D01*
X262412D01*
Y119878D01*
X262258D01*
Y120340D01*
X262104D01*
Y120647D01*
X261951D01*
Y120955D01*
X261797D01*
Y121417D01*
X261643D01*
Y121725D01*
X261489D01*
Y122033D01*
X261335D01*
Y122340D01*
X261181D01*
Y122648D01*
X261027D01*
Y122956D01*
X260873D01*
Y123264D01*
X260719D01*
Y123572D01*
X260565D01*
Y123880D01*
X260411D01*
Y124187D01*
X260257D01*
Y124495D01*
X260103D01*
Y124803D01*
X259950D01*
Y125111D01*
X259796D01*
Y125419D01*
X259642D01*
Y125573D01*
X259488D01*
Y125881D01*
X259334D01*
Y126188D01*
X259180D01*
Y126496D01*
X259026D01*
Y126804D01*
X258872D01*
Y126958D01*
X258718D01*
Y127266D01*
X258564D01*
Y127574D01*
X258410D01*
Y127728D01*
X258256D01*
Y128035D01*
X258103D01*
Y128343D01*
X257949D01*
Y128497D01*
X257795D01*
Y128805D01*
X257641D01*
Y129113D01*
X257487D01*
Y129267D01*
X257333D01*
Y129575D01*
X257179D01*
Y129882D01*
X257025D01*
Y130036D01*
X256871D01*
Y130344D01*
X256717D01*
Y130498D01*
X256563D01*
Y130806D01*
X256409D01*
Y130960D01*
X256256D01*
Y131268D01*
X256102D01*
Y131422D01*
X255948D01*
Y131729D01*
X255794D01*
Y131883D01*
X255640D01*
Y132191D01*
X255486D01*
Y132345D01*
X255332D01*
Y132653D01*
X255178D01*
Y132807D01*
X255024D01*
Y133115D01*
X254870D01*
Y133269D01*
X254716D01*
Y133423D01*
X254562D01*
Y133730D01*
X254409D01*
Y133884D01*
X254255D01*
Y134192D01*
X254101D01*
Y134346D01*
X253947D01*
Y134500D01*
X253793D01*
Y134808D01*
X253639D01*
Y134962D01*
X253485D01*
Y135116D01*
X253331D01*
Y135423D01*
X253177D01*
Y135577D01*
X253023D01*
Y135731D01*
X252869D01*
Y135423D01*
X252715D01*
Y135270D01*
X252562D01*
Y135116D01*
X252408D01*
Y134808D01*
X252254D01*
Y134654D01*
X252100D01*
Y134500D01*
X251946D01*
Y134192D01*
X251792D01*
Y134038D01*
X251638D01*
Y133884D01*
X251484D01*
Y133576D01*
X251330D01*
Y133423D01*
X251176D01*
Y133115D01*
X251022D01*
Y132961D01*
X250868D01*
Y132653D01*
X250715D01*
Y132499D01*
X250561D01*
Y132191D01*
X250407D01*
Y132037D01*
X250253D01*
Y131729D01*
X250099D01*
Y131576D01*
X249945D01*
Y131268D01*
X249791D01*
Y131114D01*
X249637D01*
Y130806D01*
X249483D01*
Y130652D01*
X249329D01*
Y130344D01*
X249175D01*
Y130036D01*
X249021D01*
Y129882D01*
X248867D01*
Y129575D01*
X248714D01*
Y129267D01*
X248560D01*
Y128959D01*
X248406D01*
Y128651D01*
X248252D01*
Y128497D01*
X248098D01*
Y128189D01*
X247944D01*
Y127881D01*
X247790D01*
Y127574D01*
X247636D01*
Y127266D01*
X247482D01*
Y126958D01*
X247328D01*
Y126650D01*
X247174D01*
Y126342D01*
X247020D01*
Y125881D01*
X246867D01*
Y125573D01*
X246713D01*
Y125265D01*
X246559D01*
Y124803D01*
X246405D01*
Y124495D01*
X246251D01*
Y124034D01*
X246097D01*
Y123572D01*
X245943D01*
Y123110D01*
X245789D01*
Y122802D01*
X245635D01*
Y122187D01*
X245481D01*
Y121725D01*
X245327D01*
Y121109D01*
X245173D01*
Y120493D01*
X245020D01*
Y119724D01*
X244866D01*
Y118954D01*
X244712D01*
Y117569D01*
X244558D01*
Y115106D01*
X244712D01*
Y113875D01*
X244866D01*
Y113259D01*
X245327D01*
Y113413D01*
X245789D01*
Y113567D01*
X246251D01*
Y113721D01*
X246559D01*
Y113875D01*
X246867D01*
Y114029D01*
X247174D01*
Y114183D01*
X247328D01*
Y114337D01*
X247636D01*
Y114491D01*
X247790D01*
Y114645D01*
X247944D01*
Y114798D01*
X248252D01*
Y114952D01*
X248406D01*
Y115106D01*
X248560D01*
Y115260D01*
X248714D01*
Y115568D01*
X248867D01*
Y115722D01*
X249021D01*
Y115876D01*
X249175D01*
Y116184D01*
X249329D01*
Y116338D01*
X249483D01*
Y116645D01*
X249637D01*
Y116953D01*
X249791D01*
Y117415D01*
X249945D01*
Y117877D01*
X250099D01*
Y118492D01*
X250253D01*
Y120032D01*
X250407D01*
Y120955D01*
X250561D01*
Y121417D01*
X250715D01*
Y121725D01*
X250868D01*
Y122033D01*
X251022D01*
Y122187D01*
X251330D01*
Y122340D01*
X251792D01*
Y122187D01*
X252100D01*
Y122033D01*
X252254D01*
Y121879D01*
X252562D01*
Y121571D01*
X252715D01*
Y121417D01*
X252869D01*
Y120955D01*
X253023D01*
Y120186D01*
X253177D01*
Y118185D01*
X253023D01*
Y117107D01*
X252869D01*
Y116338D01*
X252715D01*
Y115876D01*
X252562D01*
Y115414D01*
X252408D01*
Y114952D01*
X252254D01*
Y114491D01*
X252100D01*
Y114183D01*
X251946D01*
Y113721D01*
X251792D01*
Y113413D01*
X251638D01*
Y113105D01*
X251484D01*
Y112798D01*
X251330D01*
Y112644D01*
X251176D01*
Y112336D01*
X251022D01*
Y112028D01*
X250868D01*
Y111874D01*
X250715D01*
Y111566D01*
X250561D01*
Y111412D01*
X250407D01*
Y111258D01*
X250253D01*
Y110951D01*
X250099D01*
Y110797D01*
X249945D01*
Y110643D01*
X249791D01*
Y110489D01*
X249637D01*
Y110335D01*
X249483D01*
Y110181D01*
X249329D01*
Y110027D01*
X249175D01*
Y109873D01*
X249021D01*
Y109719D01*
X248867D01*
Y109565D01*
X248714D01*
Y109411D01*
X248560D01*
Y109257D01*
X248406D01*
Y109103D01*
X248252D01*
Y108950D01*
X247944D01*
Y108796D01*
X247790D01*
Y108642D01*
X247636D01*
Y108488D01*
X247328D01*
Y108334D01*
X247174D01*
Y108180D01*
X246867D01*
Y108026D01*
X246559D01*
Y107872D01*
X246713D01*
Y107718D01*
X246867D01*
Y107564D01*
X247020D01*
Y107410D01*
X247174D01*
Y107256D01*
X247482D01*
Y107103D01*
X247636D01*
Y106949D01*
X247944D01*
Y106795D01*
X248252D01*
Y106641D01*
X248560D01*
Y106487D01*
X248867D01*
Y106333D01*
X249329D01*
Y106179D01*
X249791D01*
Y106025D01*
X250407D01*
Y105871D01*
X253793D01*
Y106025D01*
X254716D01*
Y106179D01*
X255640D01*
Y106333D01*
X256717D01*
Y106487D01*
X257641D01*
Y106333D01*
X258256D01*
Y106179D01*
X258564D01*
Y106025D01*
X258718D01*
Y105871D01*
X258872D01*
Y105256D01*
X258718D01*
Y104948D01*
X258564D01*
Y104640D01*
X258410D01*
Y104486D01*
X258256D01*
Y104332D01*
X258103D01*
Y104178D01*
X257795D01*
Y104024D01*
X257641D01*
Y103870D01*
X257487D01*
Y103716D01*
X257179D01*
Y103562D01*
X256871D01*
Y103409D01*
X256563D01*
Y103255D01*
X256256D01*
Y103101D01*
X255948D01*
Y102947D01*
X255486D01*
Y102793D01*
X255024D01*
Y102639D01*
X254562D01*
Y102485D01*
X253947D01*
Y102331D01*
X252869D01*
Y102177D01*
X249945D01*
Y102331D01*
X249021D01*
Y102485D01*
X248406D01*
Y102639D01*
X247944D01*
Y102793D01*
X247482D01*
Y102947D01*
X247174D01*
Y103101D01*
X246713D01*
Y103255D01*
X246405D01*
Y103409D01*
X246097D01*
Y103562D01*
X245789D01*
Y103716D01*
X245481D01*
Y103870D01*
X245327D01*
Y104024D01*
X245020D01*
Y104178D01*
X244866D01*
Y104332D01*
X244558D01*
Y104486D01*
X244404D01*
Y104640D01*
X244250D01*
Y104794D01*
X243942D01*
Y104948D01*
X243788D01*
Y105102D01*
X243634D01*
Y105256D01*
X243480D01*
Y105409D01*
X243326D01*
Y105563D01*
X243019D01*
Y105717D01*
X242865D01*
Y105871D01*
X242711D01*
Y106025D01*
X242557D01*
Y106179D01*
X242403D01*
Y106487D01*
X241172D01*
Y106333D01*
X239325D01*
Y106487D01*
X238093D01*
Y106641D01*
X237324D01*
Y106795D01*
X236708D01*
Y106949D01*
X236092D01*
Y107103D01*
X235631D01*
Y107256D01*
X235323D01*
Y107410D01*
X234861D01*
Y107564D01*
X234553D01*
Y107718D01*
X234245D01*
Y107872D01*
X233937D01*
Y108026D01*
X233630D01*
Y108180D01*
X233322D01*
Y108334D01*
X233014D01*
Y108488D01*
X232860D01*
Y108642D01*
X232552D01*
Y108796D01*
X232244D01*
Y108950D01*
X232090D01*
Y109103D01*
X231937D01*
Y109257D01*
X231629D01*
Y109411D01*
X231475D01*
Y109565D01*
X231167D01*
Y109719D01*
X231013D01*
Y109873D01*
X230859D01*
Y110027D01*
X230705D01*
Y110181D01*
X230551D01*
Y110335D01*
X230243D01*
Y110489D01*
X230090D01*
Y110643D01*
X229936D01*
Y110797D01*
X229782D01*
Y110951D01*
X229628D01*
Y111104D01*
X229474D01*
Y111258D01*
X229320D01*
Y111412D01*
X229166D01*
Y111566D01*
X229012D01*
Y111720D01*
X228858D01*
Y111874D01*
X228704D01*
Y112028D01*
X228550D01*
Y112336D01*
X228396D01*
Y112490D01*
X228242D01*
Y112644D01*
X228089D01*
Y112798D01*
X227935D01*
Y113105D01*
X227781D01*
Y113259D01*
X227627D01*
Y113413D01*
X227473D01*
Y113721D01*
X227319D01*
Y113875D01*
X227165D01*
Y114029D01*
X227011D01*
Y114337D01*
X226857D01*
Y114491D01*
X226703D01*
Y114798D01*
X226549D01*
Y115106D01*
X226395D01*
Y115260D01*
X226242D01*
Y115568D01*
X226088D01*
Y115876D01*
X225934D01*
Y116184D01*
X225780D01*
Y116492D01*
X225626D01*
Y116799D01*
X225472D01*
Y117107D01*
X225318D01*
Y117569D01*
X225164D01*
Y117877D01*
X225010D01*
Y118339D01*
X224856D01*
Y118800D01*
X224702D01*
Y119262D01*
X224548D01*
Y119878D01*
X224395D01*
Y120186D01*
X223163D01*
Y120340D01*
X221778D01*
Y120493D01*
X220854D01*
Y120647D01*
X220085D01*
Y120801D01*
X219469D01*
Y120955D01*
X218853D01*
Y121109D01*
X218392D01*
Y121263D01*
X217930D01*
Y121417D01*
X217622D01*
Y121571D01*
X217160D01*
Y121725D01*
X216853D01*
Y121879D01*
X216545D01*
Y122033D01*
X216237D01*
Y122187D01*
X216083D01*
Y122340D01*
X215775D01*
Y122494D01*
X215467D01*
Y122648D01*
X215159D01*
Y122802D01*
X215006D01*
Y122956D01*
X214698D01*
Y123110D01*
X214544D01*
Y123264D01*
X214236D01*
Y123418D01*
X214082D01*
Y123572D01*
X213928D01*
Y123726D01*
X213774D01*
Y123880D01*
X213620D01*
Y124034D01*
X213312D01*
Y124187D01*
X213159D01*
Y124341D01*
X213005D01*
Y124495D01*
X212851D01*
Y124649D01*
X212697D01*
Y124803D01*
X212543D01*
Y124957D01*
X212389D01*
Y125265D01*
X212235D01*
Y125419D01*
X212081D01*
Y125573D01*
X211927D01*
Y125727D01*
X211773D01*
Y126034D01*
X211619D01*
Y126188D01*
X211465D01*
Y126496D01*
X211312D01*
Y126650D01*
X211158D01*
Y126958D01*
X211004D01*
Y127266D01*
X210850D01*
Y127574D01*
X210696D01*
Y127881D01*
X210542D01*
Y128189D01*
X210388D01*
Y128651D01*
X210234D01*
Y129113D01*
X210080D01*
Y129728D01*
X209926D01*
Y130498D01*
X209772D01*
Y132191D01*
X209926D01*
Y132961D01*
X210080D01*
Y133423D01*
X210234D01*
Y133576D01*
X210388D01*
Y133884D01*
X210542D01*
Y134038D01*
X210696D01*
Y134192D01*
X211004D01*
Y134346D01*
X211312D01*
Y134500D01*
X211927D01*
Y134346D01*
X212081D01*
Y134192D01*
X212235D01*
Y134038D01*
X212389D01*
Y133730D01*
X212543D01*
Y133269D01*
X212697D01*
Y132345D01*
X212851D01*
Y131576D01*
X213005D01*
Y131114D01*
X213159D01*
Y130806D01*
X213312D01*
Y130344D01*
X213466D01*
Y130036D01*
X213620D01*
Y129728D01*
X213774D01*
Y129421D01*
X213928D01*
Y129267D01*
X214082D01*
Y128959D01*
X214236D01*
Y128651D01*
X214390D01*
Y128497D01*
X214544D01*
Y128343D01*
X214698D01*
Y128035D01*
X214852D01*
Y127881D01*
X215006D01*
Y127728D01*
X215159D01*
Y127574D01*
X215313D01*
Y127420D01*
X215467D01*
Y127266D01*
X215621D01*
Y127112D01*
X215775D01*
Y126958D01*
X215929D01*
Y126804D01*
X216083D01*
Y126650D01*
X216237D01*
Y126496D01*
X216545D01*
Y126342D01*
X216699D01*
Y126188D01*
X217006D01*
Y126034D01*
X217160D01*
Y125881D01*
X217468D01*
Y125727D01*
X217776D01*
Y125573D01*
X218084D01*
Y125419D01*
X218392D01*
Y125265D01*
X218853D01*
Y125111D01*
X219469D01*
Y124957D01*
X220085D01*
Y124803D01*
X221316D01*
Y124649D01*
X223009D01*
Y124803D01*
X223779D01*
Y129728D01*
X223933D01*
Y131422D01*
X224087D01*
Y132499D01*
X224241D01*
Y133576D01*
X224395D01*
Y134500D01*
X224548D01*
Y135423D01*
X224702D01*
Y136193D01*
X224856D01*
Y136963D01*
X225010D01*
Y137732D01*
X225164D01*
Y138348D01*
X225318D01*
Y138964D01*
X225472D01*
Y139733D01*
X225626D01*
Y140349D01*
X225780D01*
Y140811D01*
X225934D01*
Y141118D01*
X225164D01*
Y140965D01*
X224087D01*
Y140811D01*
X222701D01*
Y140657D01*
X217006D01*
Y140811D01*
X215929D01*
Y140965D01*
X215006D01*
Y141118D01*
X214390D01*
Y141272D01*
X213774D01*
Y141426D01*
X213312D01*
Y141580D01*
X212851D01*
Y141734D01*
X212389D01*
Y141888D01*
X212081D01*
Y142042D01*
X211619D01*
Y142196D01*
X211312D01*
Y142350D01*
X211004D01*
Y142504D01*
X210696D01*
Y142658D01*
X210388D01*
Y142812D01*
X210080D01*
Y142965D01*
X209926D01*
Y143119D01*
X209618D01*
Y143273D01*
X209465D01*
Y143427D01*
X209157D01*
Y143581D01*
X209003D01*
Y143735D01*
X208849D01*
Y143889D01*
X208541D01*
Y144043D01*
X208387D01*
Y144197D01*
X208233D01*
Y144351D01*
X208079D01*
Y144505D01*
X207925D01*
Y144659D01*
X207771D01*
Y144812D01*
X207464D01*
Y144966D01*
X207310D01*
Y145120D01*
X207156D01*
Y145428D01*
X207002D01*
Y145582D01*
X206848D01*
Y145736D01*
X206694D01*
Y145890D01*
X206540D01*
Y146044D01*
X206386D01*
Y146198D01*
X206232D01*
Y146506D01*
X206078D01*
Y146659D01*
X205924D01*
Y146967D01*
X205770D01*
Y147121D01*
X205617D01*
Y147275D01*
X205463D01*
Y147583D01*
X205309D01*
Y147737D01*
X205155D01*
Y148045D01*
X205001D01*
Y148353D01*
X204847D01*
Y148506D01*
X204693D01*
Y148814D01*
X204539D01*
Y149122D01*
X204385D01*
Y149430D01*
X204231D01*
Y149892D01*
X204077D01*
Y150200D01*
X203923D01*
Y150507D01*
X203770D01*
Y150969D01*
X203616D01*
Y151431D01*
X203462D01*
Y152047D01*
X203308D01*
Y152816D01*
X203154D01*
Y153740D01*
X203000D01*
Y156972D01*
X203154D01*
Y157895D01*
X203308D01*
Y158665D01*
X203462D01*
Y159281D01*
X203616D01*
Y159742D01*
X203770D01*
Y160204D01*
X203923D01*
Y160512D01*
X204077D01*
Y160974D01*
X204231D01*
Y161282D01*
X204385D01*
Y161590D01*
X204539D01*
Y161897D01*
X204693D01*
Y162205D01*
X204847D01*
Y162513D01*
X205001D01*
Y162821D01*
X205155D01*
Y162975D01*
X205309D01*
Y163283D01*
X205463D01*
Y163437D01*
X205617D01*
Y163744D01*
X205770D01*
Y163898D01*
X205924D01*
Y164206D01*
X206078D01*
Y164360D01*
X206232D01*
Y164514D01*
X206386D01*
Y164668D01*
X206540D01*
Y164822D01*
X206694D01*
Y164976D01*
X206848D01*
Y165130D01*
X207002D01*
Y165284D01*
X207156D01*
Y165438D01*
X207310D01*
Y165591D01*
X207464D01*
Y165745D01*
X207617D01*
Y165899D01*
X207771D01*
Y166053D01*
X207925D01*
Y166207D01*
X208233D01*
Y166361D01*
X208387D01*
Y166515D01*
X208541D01*
Y166669D01*
X208695D01*
Y166823D01*
X209003D01*
Y166977D01*
X209157D01*
Y167131D01*
X209465D01*
Y167285D01*
X209772D01*
Y167438D01*
X209926D01*
Y167592D01*
X210234D01*
Y167746D01*
X210542D01*
Y167900D01*
X210850D01*
Y168054D01*
X211312D01*
Y168208D01*
X211619D01*
Y168362D01*
X211927D01*
Y168516D01*
X212543D01*
Y168670D01*
X213005D01*
Y168824D01*
X213620D01*
Y168978D01*
X214236D01*
Y169132D01*
X215313D01*
Y169285D01*
X217776D01*
Y169132D01*
X218700D01*
Y168978D01*
X219315D01*
Y168824D01*
X219777D01*
Y168670D01*
X220239D01*
Y168516D01*
X220547D01*
Y168362D01*
X220700D01*
Y168208D01*
X220854D01*
Y168054D01*
X221008D01*
Y167900D01*
X221162D01*
Y167746D01*
X221316D01*
Y167438D01*
X221470D01*
Y166823D01*
X221316D01*
Y166669D01*
X221162D01*
Y166515D01*
X220700D01*
Y166361D01*
X217314D01*
Y166207D01*
X216391D01*
Y166053D01*
X215621D01*
Y165899D01*
X215006D01*
Y165745D01*
X214544D01*
Y165591D01*
X214082D01*
Y165438D01*
X213774D01*
Y165284D01*
X213312D01*
Y165130D01*
X213005D01*
Y164976D01*
X212697D01*
Y164822D01*
X212543D01*
Y164668D01*
X212235D01*
Y164514D01*
X211927D01*
Y164360D01*
X211773D01*
Y164206D01*
X211619D01*
Y164052D01*
X211312D01*
Y163898D01*
X211158D01*
Y163744D01*
X211004D01*
Y163591D01*
X210850D01*
Y163437D01*
X210696D01*
Y163283D01*
X210542D01*
Y163129D01*
X210388D01*
Y162975D01*
X210234D01*
Y162821D01*
X210080D01*
Y162513D01*
X209926D01*
Y162359D01*
X209772D01*
Y162051D01*
X209618D01*
Y161897D01*
X209465D01*
Y161590D01*
X209311D01*
Y161282D01*
X209157D01*
Y160820D01*
X209003D01*
Y160512D01*
X208849D01*
Y159896D01*
X208695D01*
Y159281D01*
X208541D01*
Y158357D01*
X208387D01*
Y156356D01*
X208541D01*
Y155279D01*
X208695D01*
Y154663D01*
X208849D01*
Y154201D01*
X209003D01*
Y153740D01*
X209157D01*
Y153278D01*
X209311D01*
Y152970D01*
X209465D01*
Y152816D01*
Y152662D01*
X209618D01*
Y152354D01*
X209772D01*
Y152047D01*
X209926D01*
Y151893D01*
X210080D01*
Y151585D01*
X210234D01*
Y151431D01*
X210388D01*
Y151277D01*
X210542D01*
Y150969D01*
X210696D01*
Y150815D01*
X210850D01*
Y150661D01*
X211004D01*
Y150507D01*
X211158D01*
Y150353D01*
X211312D01*
Y150200D01*
X211465D01*
Y150046D01*
X211619D01*
Y149892D01*
X211773D01*
Y149738D01*
X211927D01*
Y149584D01*
X212081D01*
Y149430D01*
X212235D01*
Y149276D01*
X212543D01*
Y149122D01*
X212697D01*
Y148968D01*
X213005D01*
Y148814D01*
X213159D01*
Y148660D01*
X213466D01*
Y148506D01*
X213774D01*
Y148353D01*
X214082D01*
Y148199D01*
X214390D01*
Y148045D01*
X214698D01*
Y147891D01*
X215159D01*
Y147737D01*
X215621D01*
Y147583D01*
X216237D01*
Y147429D01*
X217006D01*
Y147275D01*
X220085D01*
Y147429D01*
X220700D01*
Y147583D01*
X221316D01*
Y147737D01*
X221624D01*
Y147891D01*
X222086D01*
Y148045D01*
X222548D01*
Y148199D01*
X222855D01*
Y148353D01*
X223163D01*
Y148506D01*
X223471D01*
Y148660D01*
X223779D01*
Y148814D01*
X224087D01*
Y148968D01*
X224395D01*
Y149122D01*
X224548D01*
Y149276D01*
X224856D01*
Y149430D01*
X225164D01*
Y149584D01*
X225318D01*
Y149738D01*
X225626D01*
Y149892D01*
X225934D01*
Y150046D01*
X226088D01*
Y150200D01*
X226395D01*
Y150353D01*
X226549D01*
Y150507D01*
X226703D01*
Y150661D01*
X227011D01*
Y150815D01*
X227165D01*
Y150969D01*
X227473D01*
Y151123D01*
X227627D01*
Y151277D01*
X227781D01*
Y151431D01*
X228089D01*
Y151585D01*
X228242D01*
Y151739D01*
X228396D01*
Y151893D01*
X228550D01*
Y152047D01*
X228858D01*
Y152201D01*
X229012D01*
Y152354D01*
X229166D01*
Y152508D01*
X229320D01*
Y152662D01*
X229628D01*
Y152816D01*
X229782D01*
Y152970D01*
X229936D01*
Y153124D01*
X230090D01*
Y153278D01*
X230397D01*
Y153432D01*
X230551D01*
Y153586D01*
X230705D01*
Y153740D01*
X230859D01*
Y153894D01*
X231013D01*
Y154048D01*
X231167D01*
Y154201D01*
X231321D01*
Y154355D01*
X231475D01*
Y154509D01*
X231783D01*
Y154663D01*
X231937D01*
Y154817D01*
X232090D01*
Y154971D01*
X232244D01*
Y155125D01*
X232398D01*
Y155279D01*
X232552D01*
Y155433D01*
X232706D01*
Y155587D01*
X232860D01*
Y155741D01*
X233014D01*
Y155895D01*
X233168D01*
Y156048D01*
X233322D01*
Y156202D01*
X233476D01*
Y156356D01*
X233630D01*
Y156510D01*
X233784D01*
Y156664D01*
X233937D01*
Y156818D01*
X234091D01*
Y156972D01*
X234245D01*
Y157126D01*
X234399D01*
Y157280D01*
X234553D01*
Y157434D01*
X234707D01*
Y157588D01*
X234861D01*
Y157742D01*
X235015D01*
Y157895D01*
X235169D01*
Y158049D01*
X235323D01*
Y158357D01*
X235477D01*
Y158511D01*
X235631D01*
Y158665D01*
X235784D01*
Y158973D01*
X235938D01*
Y159127D01*
X236092D01*
Y159435D01*
X236246D01*
Y159589D01*
X236400D01*
Y159896D01*
X236554D01*
Y160204D01*
X236708D01*
Y160358D01*
X236862D01*
Y160666D01*
X237016D01*
Y160974D01*
X237170D01*
Y161282D01*
X237324D01*
Y161590D01*
X237478D01*
Y161897D01*
X237631D01*
Y162205D01*
X237785D01*
Y162513D01*
X237939D01*
Y162975D01*
X238093D01*
Y163283D01*
X238247D01*
Y163744D01*
X238401D01*
Y164206D01*
X238555D01*
Y164514D01*
X238709D01*
Y164976D01*
X238863D01*
Y165438D01*
X239017D01*
Y166053D01*
X239171D01*
Y166515D01*
X239325D01*
Y166977D01*
X239478D01*
Y167592D01*
X239632D01*
Y168208D01*
X239786D01*
Y168824D01*
X239940D01*
Y169593D01*
X240094D01*
Y170363D01*
X240248D01*
Y170979D01*
X240094D01*
Y171286D01*
X239940D01*
Y171748D01*
X239786D01*
Y172056D01*
X239632D01*
Y172210D01*
X239478D01*
Y172364D01*
X239325D01*
Y172518D01*
X239171D01*
Y172826D01*
X239017D01*
Y173133D01*
X238863D01*
Y173287D01*
X238709D01*
Y173749D01*
X238555D01*
Y174211D01*
X238401D01*
Y175288D01*
X238247D01*
Y175596D01*
X238401D01*
Y176674D01*
X238555D01*
Y177135D01*
X238709D01*
Y177443D01*
X238863D01*
Y177751D01*
X239017D01*
Y178059D01*
X239171D01*
Y178213D01*
X239325D01*
Y178367D01*
X239478D01*
Y178674D01*
X239632D01*
Y178828D01*
X239786D01*
Y178982D01*
X239940D01*
Y179136D01*
X240094D01*
Y179290D01*
X240402D01*
Y179444D01*
X240556D01*
Y179598D01*
X240710D01*
Y179752D01*
X240864D01*
Y180060D01*
X240710D01*
Y180368D01*
X240556D01*
Y180675D01*
X240402D01*
Y180983D01*
X240248D01*
Y181291D01*
X240094D01*
Y181599D01*
X239940D01*
Y181907D01*
X239786D01*
Y182215D01*
X239632D01*
Y182676D01*
X239478D01*
Y182984D01*
X239325D01*
Y183292D01*
X239171D01*
Y183600D01*
X239017D01*
Y183908D01*
X238863D01*
Y184216D01*
X238709D01*
Y184677D01*
X238555D01*
Y184985D01*
X238401D01*
Y185293D01*
X238247D01*
Y185755D01*
X238093D01*
Y186063D01*
X237939D01*
Y186524D01*
X237785D01*
Y186832D01*
X237631D01*
Y187294D01*
X237478D01*
Y187602D01*
X237324D01*
Y188063D01*
X237170D01*
Y188371D01*
X237016D01*
Y188833D01*
X236862D01*
Y189295D01*
X236708D01*
Y189757D01*
X236554D01*
Y190218D01*
X236400D01*
Y190680D01*
X236246D01*
Y191142D01*
X236092D01*
Y191604D01*
X235938D01*
Y192065D01*
X235784D01*
Y192681D01*
X235631D01*
Y193143D01*
X235477D01*
Y193758D01*
X235323D01*
Y194374D01*
X235169D01*
Y194990D01*
X235015D01*
Y195759D01*
X234861D01*
Y196529D01*
X234707D01*
Y197452D01*
X234553D01*
Y198376D01*
X234399D01*
Y199915D01*
X234245D01*
Y203763D01*
X234399D01*
Y205148D01*
X234553D01*
Y205918D01*
X234707D01*
Y206534D01*
X234861D01*
Y207149D01*
X235015D01*
Y207611D01*
X235169D01*
Y208073D01*
X235323D01*
Y208535D01*
X235477D01*
Y208842D01*
X235631D01*
Y209150D01*
X235784D01*
Y209458D01*
X235938D01*
Y209766D01*
X236092D01*
Y210074D01*
X236246D01*
Y210228D01*
X236400D01*
Y210535D01*
X236554D01*
Y210689D01*
X236708D01*
Y210997D01*
X236862D01*
Y211151D01*
X237016D01*
Y211305D01*
X237170D01*
Y211613D01*
X237324D01*
Y211767D01*
X237478D01*
Y211921D01*
X237631D01*
Y212075D01*
X237785D01*
Y212229D01*
X237939D01*
Y212383D01*
X238093D01*
Y212536D01*
X238247D01*
Y212690D01*
X238401D01*
Y212844D01*
X238555D01*
Y212998D01*
X238709D01*
Y213152D01*
X238863D01*
Y213306D01*
X239017D01*
Y213460D01*
X239325D01*
Y213614D01*
X239478D01*
Y213768D01*
X239786D01*
Y213922D01*
X239940D01*
Y214076D01*
X240248D01*
Y214230D01*
X240402D01*
Y214383D01*
X240710D01*
Y214537D01*
X241018D01*
Y214691D01*
X241326D01*
Y214845D01*
X241633D01*
Y214999D01*
X241941D01*
Y215153D01*
X242249D01*
Y215307D01*
X242711D01*
Y215461D01*
X243019D01*
Y215615D01*
X243480D01*
Y215769D01*
X243942D01*
Y215923D01*
X244558D01*
Y216077D01*
X245020D01*
Y216230D01*
X245635D01*
Y216384D01*
X246405D01*
Y216538D01*
X247328D01*
Y216692D01*
X248252D01*
Y216846D01*
X249791D01*
Y217000D01*
X255640D01*
Y216846D01*
D02*
G37*
%LPC*%
G36*
X254870Y210997D02*
X254716D01*
Y210535D01*
X254562D01*
Y209920D01*
X254409D01*
Y209304D01*
X254255D01*
Y208535D01*
X254101D01*
Y208381D01*
X253793D01*
Y208535D01*
X251484D01*
Y209150D01*
X251330D01*
Y210074D01*
X251176D01*
Y210997D01*
X250561D01*
Y210843D01*
X249637D01*
Y210689D01*
X249329D01*
Y210074D01*
X249483D01*
Y209150D01*
X249637D01*
Y208227D01*
X249483D01*
Y208073D01*
X249021D01*
Y207919D01*
X248560D01*
Y207765D01*
X248098D01*
Y207611D01*
X247790D01*
Y207457D01*
X247482D01*
Y207303D01*
X247328D01*
Y207457D01*
X247174D01*
Y207611D01*
X247020D01*
Y207919D01*
X246867D01*
Y208227D01*
X246713D01*
Y208381D01*
X246559D01*
Y208688D01*
X246405D01*
Y208842D01*
X246251D01*
Y209150D01*
X246097D01*
Y209304D01*
X245943D01*
Y209458D01*
X245789D01*
Y209304D01*
X245481D01*
Y209150D01*
X245173D01*
Y208996D01*
X245020D01*
Y208842D01*
X244712D01*
Y208688D01*
X244558D01*
Y208535D01*
X244404D01*
Y208381D01*
X244558D01*
Y208073D01*
X244712D01*
Y207919D01*
X244866D01*
Y207611D01*
X245020D01*
Y207457D01*
X245173D01*
Y207149D01*
X245327D01*
Y206841D01*
X245481D01*
Y206688D01*
X245635D01*
Y206380D01*
X245789D01*
Y206226D01*
X245635D01*
Y206072D01*
X245481D01*
Y205918D01*
X245173D01*
Y205764D01*
X245020D01*
Y205610D01*
X244866D01*
Y205456D01*
X244712D01*
Y205302D01*
X244558D01*
Y205148D01*
X244404D01*
Y204994D01*
X244250D01*
Y204841D01*
X244096D01*
Y204994D01*
X243942D01*
Y205148D01*
X243634D01*
Y205302D01*
X243480D01*
Y205456D01*
X243173D01*
Y205610D01*
X243019D01*
Y205764D01*
X242711D01*
Y205918D01*
X242557D01*
Y206072D01*
X242403D01*
Y206226D01*
X242095D01*
Y206380D01*
X241941D01*
Y206226D01*
X241787D01*
Y205918D01*
X241633D01*
Y205764D01*
X241479D01*
Y205456D01*
X241326D01*
Y205302D01*
X241172D01*
Y205148D01*
X241018D01*
Y204841D01*
X241172D01*
Y204687D01*
X241326D01*
Y204533D01*
X241479D01*
Y204379D01*
X241787D01*
Y204225D01*
X241941D01*
Y204071D01*
X242249D01*
Y203917D01*
X242403D01*
Y203763D01*
X242711D01*
Y203609D01*
X242865D01*
Y203455D01*
X243019D01*
Y203301D01*
X243173D01*
Y203147D01*
X243019D01*
Y202840D01*
X242865D01*
Y202686D01*
X242711D01*
Y202224D01*
X242557D01*
Y201916D01*
X242403D01*
Y201454D01*
X242249D01*
Y201300D01*
X241633D01*
Y201454D01*
X241018D01*
Y201608D01*
X240402D01*
Y201762D01*
X239786D01*
Y201916D01*
X239632D01*
Y201300D01*
X239478D01*
Y200685D01*
X239325D01*
Y200069D01*
X239632D01*
Y199915D01*
X240248D01*
Y199761D01*
X240864D01*
Y199607D01*
X241479D01*
Y199453D01*
X241787D01*
Y198530D01*
X241633D01*
Y197452D01*
X241787D01*
Y196683D01*
X241172D01*
Y196529D01*
X240248D01*
Y196375D01*
X239325D01*
Y196221D01*
X239171D01*
Y195913D01*
X239325D01*
Y194990D01*
X239478D01*
Y194528D01*
X240248D01*
Y194682D01*
X241172D01*
Y194836D01*
X242095D01*
Y194682D01*
X242249D01*
Y194220D01*
X242403D01*
Y193758D01*
X242557D01*
Y193451D01*
X242711D01*
Y193143D01*
X242865D01*
Y192835D01*
X243019D01*
Y192681D01*
X242865D01*
Y192527D01*
X242711D01*
Y192373D01*
X242403D01*
Y192219D01*
X242095D01*
Y192065D01*
X241941D01*
Y191911D01*
X241633D01*
Y191758D01*
X241479D01*
Y191604D01*
X241172D01*
Y191450D01*
X241018D01*
Y191296D01*
X240864D01*
Y191142D01*
X241018D01*
Y190834D01*
X241172D01*
Y190680D01*
X241326D01*
Y190372D01*
X241479D01*
Y190218D01*
X241633D01*
Y189910D01*
X241787D01*
Y189757D01*
X241941D01*
Y189910D01*
X242249D01*
Y190064D01*
X242403D01*
Y190218D01*
X242711D01*
Y190372D01*
X243019D01*
Y190526D01*
X243173D01*
Y190680D01*
X243480D01*
Y190834D01*
X243634D01*
Y190988D01*
X243942D01*
Y191142D01*
X244096D01*
Y190988D01*
X244250D01*
Y190834D01*
X244404D01*
Y190680D01*
X244558D01*
Y190526D01*
X244712D01*
Y190372D01*
X244866D01*
Y190218D01*
X245020D01*
Y190064D01*
X245173D01*
Y189910D01*
X245327D01*
Y189757D01*
X245481D01*
Y189449D01*
X245327D01*
Y189141D01*
X245173D01*
Y188987D01*
X245020D01*
Y188679D01*
X244866D01*
Y188525D01*
X244712D01*
Y188371D01*
X244558D01*
Y188063D01*
X244404D01*
Y187910D01*
X244250D01*
Y187448D01*
X244404D01*
Y187294D01*
X244558D01*
Y187140D01*
X244866D01*
Y186986D01*
X245020D01*
Y186832D01*
X245327D01*
Y186678D01*
X245481D01*
Y186524D01*
X245635D01*
Y186678D01*
X245789D01*
Y186832D01*
X245943D01*
Y186986D01*
X246097D01*
Y187294D01*
X246251D01*
Y187448D01*
X246405D01*
Y187756D01*
X246559D01*
Y187910D01*
X246713D01*
Y188217D01*
X246867D01*
Y188371D01*
X247020D01*
Y188525D01*
X247328D01*
Y188371D01*
X247636D01*
Y188217D01*
X247944D01*
Y188063D01*
X248406D01*
Y187910D01*
X248714D01*
Y187756D01*
X249175D01*
Y187294D01*
X249021D01*
Y186678D01*
X248867D01*
Y186063D01*
X248714D01*
Y185447D01*
X248560D01*
Y185139D01*
X249021D01*
Y184985D01*
X249637D01*
Y184831D01*
X250253D01*
Y184677D01*
X250407D01*
Y185293D01*
X250561D01*
Y185909D01*
X250715D01*
Y186524D01*
X250868D01*
Y187140D01*
X251022D01*
Y187294D01*
X251792D01*
Y187140D01*
X252715D01*
Y187294D01*
X253177D01*
Y187140D01*
X253331D01*
Y186370D01*
X253485D01*
Y185447D01*
X253639D01*
Y184523D01*
X254101D01*
Y184677D01*
X255024D01*
Y184831D01*
X255486D01*
Y185447D01*
X255332D01*
Y186370D01*
X255178D01*
Y187294D01*
X255024D01*
Y187448D01*
X255178D01*
Y187602D01*
X255486D01*
Y187756D01*
X255948D01*
Y187910D01*
X256409D01*
Y188063D01*
X256717D01*
Y188217D01*
X257025D01*
Y188371D01*
X257487D01*
Y188217D01*
X257641D01*
Y187910D01*
X257795D01*
Y187756D01*
X257949D01*
Y187448D01*
X258103D01*
Y187294D01*
X258256D01*
Y186986D01*
X258410D01*
Y186832D01*
X258564D01*
Y186524D01*
X258718D01*
Y186216D01*
X258872D01*
Y186370D01*
X259180D01*
Y186524D01*
X259334D01*
Y186678D01*
X259642D01*
Y186832D01*
X259796D01*
Y186986D01*
X260103D01*
Y187140D01*
X260257D01*
Y187602D01*
X260103D01*
Y187756D01*
X259950D01*
Y188063D01*
X259796D01*
Y188217D01*
X259642D01*
Y188525D01*
X259488D01*
Y188679D01*
X259334D01*
Y188987D01*
X259180D01*
Y189141D01*
X259026D01*
Y189603D01*
X259180D01*
Y189757D01*
X259334D01*
Y189910D01*
X259488D01*
Y190064D01*
X259796D01*
Y190218D01*
X259950D01*
Y190372D01*
X260103D01*
Y190680D01*
X260257D01*
Y190834D01*
X260411D01*
Y190988D01*
X260873D01*
Y190834D01*
X261027D01*
Y190680D01*
X261335D01*
Y190526D01*
X261489D01*
Y190372D01*
X261797D01*
Y190218D01*
X261951D01*
Y190064D01*
X262258D01*
Y189910D01*
X262412D01*
Y189757D01*
X262566D01*
Y189603D01*
X262720D01*
Y189757D01*
X262874D01*
Y190064D01*
X263028D01*
Y190218D01*
X263182D01*
Y190372D01*
X263336D01*
Y190680D01*
X263490D01*
Y190834D01*
X263644D01*
Y191296D01*
X263490D01*
Y191450D01*
X263182D01*
Y191604D01*
X263028D01*
Y191758D01*
X262720D01*
Y191911D01*
X262566D01*
Y192065D01*
X262258D01*
Y192219D01*
X262104D01*
Y192373D01*
X261951D01*
Y192527D01*
X261643D01*
Y192681D01*
X261797D01*
Y192989D01*
X261951D01*
Y193297D01*
X262104D01*
Y193605D01*
X262258D01*
Y194066D01*
X262412D01*
Y194374D01*
X262566D01*
Y194528D01*
X262720D01*
Y194374D01*
X263490D01*
Y194220D01*
X264105D01*
Y194066D01*
X264721D01*
Y193912D01*
X265029D01*
Y194066D01*
X265183D01*
Y194682D01*
X265337D01*
Y195452D01*
X265491D01*
Y195759D01*
X264875D01*
Y195913D01*
X264259D01*
Y196067D01*
X263644D01*
Y196221D01*
X263028D01*
Y198376D01*
X263182D01*
Y198530D01*
X263951D01*
Y198684D01*
X264875D01*
Y198838D01*
X265645D01*
Y199453D01*
X265491D01*
Y200377D01*
X265337D01*
Y200685D01*
X264875D01*
Y200531D01*
X263951D01*
Y200377D01*
X263028D01*
Y200223D01*
X262874D01*
Y200377D01*
X262720D01*
Y200685D01*
X262566D01*
Y201300D01*
X262412D01*
Y201762D01*
X262258D01*
Y202070D01*
X262104D01*
Y202378D01*
X261951D01*
Y202840D01*
X262104D01*
Y202994D01*
X262412D01*
Y203147D01*
X262566D01*
Y203301D01*
X262874D01*
Y203455D01*
X263182D01*
Y203609D01*
X263336D01*
Y203763D01*
X263644D01*
Y203917D01*
X263798D01*
Y204071D01*
X264105D01*
Y204225D01*
X263951D01*
Y204533D01*
X263798D01*
Y204841D01*
X263644D01*
Y204994D01*
X263490D01*
Y205302D01*
X263336D01*
Y205456D01*
X263182D01*
Y205764D01*
X263028D01*
Y205610D01*
X262874D01*
Y205456D01*
X262566D01*
Y205302D01*
X262412D01*
Y205148D01*
X262104D01*
Y204994D01*
X261797D01*
Y204841D01*
X261643D01*
Y204687D01*
X261335D01*
Y204533D01*
X261181D01*
Y204379D01*
X260873D01*
Y204533D01*
X260719D01*
Y204687D01*
X260565D01*
Y204841D01*
X260411D01*
Y204994D01*
X260257D01*
Y205148D01*
X260103D01*
Y205302D01*
X259950D01*
Y205456D01*
X259796D01*
Y205610D01*
X259642D01*
Y205764D01*
X259488D01*
Y205918D01*
X259334D01*
Y206072D01*
X259488D01*
Y206380D01*
X259642D01*
Y206534D01*
X259796D01*
Y206841D01*
X259950D01*
Y206995D01*
X260103D01*
Y207303D01*
X260257D01*
Y207457D01*
X260411D01*
Y207611D01*
X260565D01*
Y207919D01*
X260719D01*
Y208073D01*
X260873D01*
Y208227D01*
X260719D01*
Y208381D01*
X260565D01*
Y208535D01*
X260411D01*
Y208688D01*
X260103D01*
Y208842D01*
X259950D01*
Y208996D01*
X259642D01*
Y209150D01*
X259488D01*
Y209304D01*
X259334D01*
Y209150D01*
X259180D01*
Y208842D01*
X259026D01*
Y208688D01*
X258872D01*
Y208535D01*
X258718D01*
Y208227D01*
X258564D01*
Y208073D01*
X258410D01*
Y207765D01*
X258256D01*
Y207611D01*
X258103D01*
Y207457D01*
X257949D01*
Y207149D01*
X257487D01*
Y207303D01*
X257333D01*
Y207457D01*
X257025D01*
Y207611D01*
X256563D01*
Y207765D01*
X256256D01*
Y207919D01*
X255948D01*
Y208381D01*
X256102D01*
Y209150D01*
X256256D01*
Y209766D01*
X256409D01*
Y210382D01*
X256563D01*
Y210535D01*
X256256D01*
Y210689D01*
X255486D01*
Y210843D01*
X254870D01*
Y210997D01*
D02*
G37*
G36*
X254255Y183292D02*
X254101D01*
Y182830D01*
X253947D01*
Y182215D01*
X253793D01*
Y182061D01*
X252715D01*
Y182215D01*
X252562D01*
Y182830D01*
X252408D01*
Y183292D01*
X252100D01*
Y183138D01*
X251638D01*
Y182522D01*
X251792D01*
Y181907D01*
X251330D01*
Y181753D01*
X250868D01*
Y181599D01*
X250561D01*
Y181753D01*
X250407D01*
Y182061D01*
X250253D01*
Y182369D01*
X250099D01*
Y182522D01*
X249791D01*
Y182369D01*
X249637D01*
Y182215D01*
X249329D01*
Y182061D01*
X249483D01*
Y181753D01*
X249637D01*
Y181445D01*
X249791D01*
Y181291D01*
X249945D01*
Y180983D01*
X249791D01*
Y180829D01*
X249637D01*
Y180675D01*
X249483D01*
Y180522D01*
X249329D01*
Y180368D01*
X249175D01*
Y180522D01*
X248867D01*
Y180675D01*
X248714D01*
Y180829D01*
X248560D01*
Y180983D01*
X248252D01*
Y181137D01*
X248098D01*
Y180829D01*
X247944D01*
Y180675D01*
X247790D01*
Y180368D01*
X247944D01*
Y180214D01*
X248252D01*
Y180060D01*
X248406D01*
Y179906D01*
X248560D01*
Y179752D01*
X248714D01*
Y179444D01*
X248560D01*
Y179136D01*
X248406D01*
Y178828D01*
X247636D01*
Y178982D01*
X247174D01*
Y178828D01*
X247020D01*
Y178213D01*
X247328D01*
Y178059D01*
X247944D01*
Y177905D01*
X248098D01*
Y176674D01*
X247790D01*
Y176520D01*
X247020D01*
Y176366D01*
X246867D01*
Y176212D01*
X247020D01*
Y175596D01*
X247174D01*
Y175750D01*
X248252D01*
Y175596D01*
X248406D01*
Y175288D01*
X248560D01*
Y174980D01*
X248714D01*
Y174827D01*
X248560D01*
Y174673D01*
X248406D01*
Y174519D01*
X248098D01*
Y174365D01*
X247944D01*
Y174211D01*
X247636D01*
Y174057D01*
X247790D01*
Y173903D01*
X247944D01*
Y173595D01*
X248098D01*
Y173441D01*
X248252D01*
Y173595D01*
X248406D01*
Y173749D01*
X248714D01*
Y173903D01*
X249021D01*
Y174057D01*
X249329D01*
Y173903D01*
X249483D01*
Y173749D01*
X249637D01*
Y173595D01*
X249791D01*
Y173133D01*
X249637D01*
Y172980D01*
X249483D01*
Y172672D01*
X249329D01*
Y172518D01*
X249175D01*
Y172364D01*
X249329D01*
Y172210D01*
X249637D01*
Y172056D01*
X249791D01*
Y171902D01*
X249945D01*
Y172210D01*
X250099D01*
Y172364D01*
X250253D01*
Y172672D01*
X250407D01*
Y172826D01*
X250868D01*
Y172672D01*
X251330D01*
Y172518D01*
X251484D01*
Y171902D01*
X251330D01*
Y171286D01*
X251638D01*
Y171133D01*
X252100D01*
Y171594D01*
X252254D01*
Y172210D01*
X252408D01*
Y172364D01*
X252562D01*
Y172210D01*
X253485D01*
Y171594D01*
X253639D01*
Y170979D01*
X253793D01*
Y171133D01*
X254409D01*
Y171902D01*
X254255D01*
Y172364D01*
X254409D01*
Y172518D01*
X254870D01*
Y172672D01*
X255178D01*
Y172826D01*
X255486D01*
Y172518D01*
X255640D01*
Y172210D01*
X255794D01*
Y172056D01*
X255948D01*
Y171902D01*
X256256D01*
Y172056D01*
X256409D01*
Y172210D01*
X256717D01*
Y172364D01*
X256563D01*
Y172518D01*
X256409D01*
Y172826D01*
X256256D01*
Y173133D01*
X256102D01*
Y173441D01*
X256256D01*
Y173595D01*
X256409D01*
Y173749D01*
X256563D01*
Y173903D01*
X256717D01*
Y174057D01*
X257025D01*
Y173903D01*
X257179D01*
Y173749D01*
X257333D01*
Y173595D01*
X257641D01*
Y173441D01*
X257949D01*
Y173749D01*
X258103D01*
Y173903D01*
X258256D01*
Y174057D01*
X258103D01*
Y174211D01*
X257949D01*
Y174365D01*
X257795D01*
Y174519D01*
X257487D01*
Y174673D01*
X257333D01*
Y174980D01*
X257487D01*
Y175288D01*
X257641D01*
Y175596D01*
X258256D01*
Y175442D01*
X258872D01*
Y175596D01*
X259026D01*
Y176212D01*
X258564D01*
Y176366D01*
X257949D01*
Y177443D01*
X258103D01*
Y177597D01*
X259026D01*
Y177751D01*
X259180D01*
Y178059D01*
X259026D01*
Y178521D01*
X258872D01*
Y178367D01*
X257795D01*
Y178674D01*
X257641D01*
Y179136D01*
X257487D01*
Y179598D01*
X257795D01*
Y179752D01*
X257949D01*
Y179906D01*
X258256D01*
Y180060D01*
X258410D01*
Y180214D01*
X258256D01*
Y180522D01*
X258103D01*
Y180675D01*
X257641D01*
Y180522D01*
X257487D01*
Y180368D01*
X257179D01*
Y180214D01*
X256871D01*
Y180368D01*
X256717D01*
Y180522D01*
X256563D01*
Y180675D01*
X256409D01*
Y180829D01*
X256256D01*
Y181137D01*
X256409D01*
Y181445D01*
X256563D01*
Y181599D01*
X256717D01*
Y181753D01*
X256871D01*
Y182061D01*
X256717D01*
Y182215D01*
X256563D01*
Y182369D01*
X256102D01*
Y182061D01*
X255948D01*
Y181907D01*
X255794D01*
Y181753D01*
X255640D01*
Y181445D01*
X255332D01*
Y181599D01*
X255024D01*
Y181753D01*
X254716D01*
Y182522D01*
X254870D01*
Y183138D01*
X254255D01*
Y183292D01*
D02*
G37*
G36*
X265491Y177135D02*
X265337D01*
Y176981D01*
X265183D01*
Y176827D01*
X265029D01*
Y176674D01*
X264875D01*
Y176520D01*
X264721D01*
Y176366D01*
X264567D01*
Y176212D01*
X264413D01*
Y176058D01*
X264259D01*
Y175750D01*
X264105D01*
Y175596D01*
X263951D01*
Y175442D01*
X263798D01*
Y175134D01*
X263644D01*
Y174980D01*
X263490D01*
Y174673D01*
X263336D01*
Y174211D01*
X263182D01*
Y173595D01*
X263028D01*
Y173287D01*
X263182D01*
Y172980D01*
X263336D01*
Y172826D01*
Y172672D01*
X263644D01*
Y172518D01*
X264567D01*
Y172672D01*
X264875D01*
Y172826D01*
X265029D01*
Y172980D01*
X265337D01*
Y173133D01*
X265491D01*
Y173287D01*
X265645D01*
Y173595D01*
X265798D01*
Y173749D01*
X265952D01*
Y174057D01*
X266106D01*
Y174519D01*
X266260D01*
Y175750D01*
X266106D01*
Y176212D01*
X265952D01*
Y176520D01*
X265798D01*
Y176827D01*
X265645D01*
Y176981D01*
X265491D01*
Y177135D01*
D02*
G37*
G36*
X240094D02*
X239940D01*
Y176981D01*
X239786D01*
Y176827D01*
X239632D01*
Y176520D01*
X239478D01*
Y176058D01*
X239325D01*
Y174211D01*
X239478D01*
Y173903D01*
X239632D01*
Y173595D01*
X239786D01*
Y173441D01*
X239940D01*
Y173287D01*
X240094D01*
Y173133D01*
X240248D01*
Y172980D01*
X240402D01*
Y172826D01*
X240710D01*
Y172672D01*
X241172D01*
Y172518D01*
X241787D01*
Y172672D01*
X242095D01*
Y172826D01*
X242249D01*
Y172980D01*
X242403D01*
Y174211D01*
X242249D01*
Y174519D01*
X242095D01*
Y174827D01*
X241941D01*
Y174980D01*
X241787D01*
Y175288D01*
X241633D01*
Y175442D01*
X241479D01*
Y175596D01*
X241326D01*
Y175904D01*
X241172D01*
Y176058D01*
X241018D01*
Y176212D01*
X240864D01*
Y176366D01*
X240710D01*
Y176520D01*
X240556D01*
Y176674D01*
X240402D01*
Y176827D01*
X240248D01*
Y176981D01*
X240094D01*
Y177135D01*
D02*
G37*
G36*
X253331Y159281D02*
X252869D01*
Y159127D01*
X252562D01*
Y158973D01*
X252408D01*
Y158819D01*
X252254D01*
Y158665D01*
X252100D01*
Y158357D01*
X251946D01*
Y158203D01*
X251792D01*
Y157895D01*
X251638D01*
Y157742D01*
X251484D01*
Y157434D01*
X251330D01*
Y157280D01*
X251176D01*
Y156972D01*
X251022D01*
Y156818D01*
X250868D01*
Y156510D01*
X250715D01*
Y156356D01*
X250561D01*
Y156048D01*
X250407D01*
Y155741D01*
X250253D01*
Y155587D01*
X250099D01*
Y155279D01*
X249945D01*
Y154971D01*
X249791D01*
Y154817D01*
X249637D01*
Y154509D01*
X249483D01*
Y154201D01*
X249329D01*
Y153894D01*
X249175D01*
Y153586D01*
X249021D01*
Y153278D01*
X248867D01*
Y152970D01*
X248714D01*
Y152508D01*
X248560D01*
Y152047D01*
X248406D01*
Y151585D01*
X248252D01*
Y149584D01*
X248406D01*
Y148968D01*
X248560D01*
Y148660D01*
X248714D01*
Y148353D01*
X248867D01*
Y148045D01*
X249021D01*
Y147891D01*
X249175D01*
Y147583D01*
X249329D01*
Y147429D01*
X249483D01*
Y147275D01*
X249637D01*
Y147121D01*
X249791D01*
Y146967D01*
X249945D01*
Y146813D01*
X250099D01*
Y146659D01*
X250407D01*
Y146506D01*
X250715D01*
Y146352D01*
X250868D01*
Y146198D01*
X251176D01*
Y146044D01*
X251792D01*
Y145890D01*
X252562D01*
Y145736D01*
X253639D01*
Y145890D01*
X254409D01*
Y146044D01*
X254870D01*
Y146198D01*
X255178D01*
Y146352D01*
X255486D01*
Y146506D01*
X255794D01*
Y146659D01*
X255948D01*
Y146813D01*
X256256D01*
Y146967D01*
X256409D01*
Y147121D01*
X256563D01*
Y147275D01*
X256717D01*
Y147429D01*
X256871D01*
Y147737D01*
X257025D01*
Y147891D01*
X257179D01*
Y148199D01*
X257333D01*
Y148353D01*
X257487D01*
Y148660D01*
X257641D01*
Y149122D01*
X257795D01*
Y149584D01*
X257949D01*
Y151431D01*
X257795D01*
Y151893D01*
X257641D01*
Y152354D01*
X257487D01*
Y152816D01*
X257333D01*
Y153124D01*
X257179D01*
Y153432D01*
X257025D01*
Y153740D01*
X256871D01*
Y154048D01*
X256717D01*
Y154355D01*
X256563D01*
Y154663D01*
X256409D01*
Y154971D01*
X256256D01*
Y155279D01*
X256102D01*
Y155433D01*
X255948D01*
Y155741D01*
X255794D01*
Y156048D01*
X255640D01*
Y156202D01*
X255486D01*
Y156510D01*
X255332D01*
Y156664D01*
X255178D01*
Y156972D01*
X255024D01*
Y157280D01*
X254870D01*
Y157434D01*
X254716D01*
Y157742D01*
X254562D01*
Y157895D01*
X254409D01*
Y158049D01*
X254255D01*
Y158357D01*
X254101D01*
Y158511D01*
X253947D01*
Y158819D01*
X253793D01*
Y158973D01*
X253639D01*
Y159127D01*
X253331D01*
Y159281D01*
D02*
G37*
G36*
X233937Y142196D02*
X233630D01*
Y141734D01*
X233476D01*
Y141272D01*
X233322D01*
Y140811D01*
X233168D01*
Y140349D01*
X233014D01*
Y139887D01*
X232860D01*
Y139425D01*
X232706D01*
Y138964D01*
X232552D01*
Y138348D01*
X232398D01*
Y137886D01*
X232244D01*
Y137270D01*
X232090D01*
Y136655D01*
X231937D01*
Y136039D01*
X231783D01*
Y135423D01*
X231629D01*
Y134808D01*
X231475D01*
Y134192D01*
Y134038D01*
X231321D01*
Y133269D01*
X231167D01*
Y132499D01*
X231013D01*
Y131576D01*
X230859D01*
Y130652D01*
X230705D01*
Y129421D01*
X230551D01*
Y127881D01*
X230397D01*
Y127420D01*
X230551D01*
Y127574D01*
X230859D01*
Y127728D01*
X231013D01*
Y127881D01*
X231167D01*
Y128035D01*
X231321D01*
Y128189D01*
X231629D01*
Y128343D01*
X231783D01*
Y128497D01*
X231937D01*
Y128651D01*
X232090D01*
Y128805D01*
X232244D01*
Y128959D01*
X232398D01*
Y129113D01*
X232552D01*
Y129267D01*
X232706D01*
Y129421D01*
X232860D01*
Y129575D01*
X233014D01*
Y129728D01*
X233168D01*
Y129882D01*
X233322D01*
Y130036D01*
X233476D01*
Y130190D01*
X233630D01*
Y130498D01*
X233784D01*
Y130652D01*
X233937D01*
Y130960D01*
X234091D01*
Y131114D01*
X234245D01*
Y131422D01*
X234399D01*
Y131729D01*
X234553D01*
Y132037D01*
X234707D01*
Y132345D01*
X234861D01*
Y132653D01*
X235015D01*
Y133115D01*
X235169D01*
Y133576D01*
X235323D01*
Y134192D01*
X235477D01*
Y135116D01*
X235631D01*
Y137117D01*
X235477D01*
Y138040D01*
X235323D01*
Y138656D01*
X235169D01*
Y139117D01*
X235015D01*
Y139579D01*
X234861D01*
Y140041D01*
X234707D01*
Y140503D01*
X234553D01*
Y140811D01*
X234399D01*
Y141272D01*
X234245D01*
Y141580D01*
X234091D01*
Y141888D01*
X233937D01*
Y142196D01*
D02*
G37*
G36*
X274110Y142965D02*
X273956D01*
Y142812D01*
X273802D01*
Y142658D01*
X273648D01*
Y142350D01*
X273494D01*
Y142042D01*
X273340D01*
Y141580D01*
X273187D01*
Y141118D01*
X273033D01*
Y140811D01*
X272879D01*
Y140349D01*
X272725D01*
Y139887D01*
X272571D01*
Y139425D01*
X272417D01*
Y138964D01*
X272263D01*
Y138502D01*
X272109D01*
Y137886D01*
X271955D01*
Y136655D01*
X271801D01*
Y135577D01*
X271955D01*
Y134346D01*
X272109D01*
Y133730D01*
X272263D01*
Y133269D01*
X272417D01*
Y132807D01*
X272571D01*
Y132345D01*
X272725D01*
Y132037D01*
X272879D01*
Y131729D01*
X273033D01*
Y131576D01*
X273187D01*
Y131268D01*
X273340D01*
Y130960D01*
X273494D01*
Y130806D01*
X273648D01*
Y130498D01*
X273802D01*
Y130344D01*
X273956D01*
Y130190D01*
X274110D01*
Y129882D01*
X274264D01*
Y129728D01*
X274418D01*
Y129575D01*
X274572D01*
Y129421D01*
X274726D01*
Y129267D01*
X274880D01*
Y129113D01*
X275034D01*
Y128959D01*
X275187D01*
Y128805D01*
X275341D01*
Y128651D01*
X275495D01*
Y128497D01*
X275803D01*
Y128343D01*
X275957D01*
Y128189D01*
X276111D01*
Y128035D01*
X276265D01*
Y127881D01*
X276419D01*
Y127728D01*
X276727D01*
Y127574D01*
X276881D01*
Y127420D01*
X277188D01*
Y127266D01*
X277342D01*
Y127112D01*
X277650D01*
Y126958D01*
X277804D01*
Y126804D01*
X278112D01*
Y126650D01*
X278266D01*
Y128035D01*
X278112D01*
Y129421D01*
X277958D01*
Y130498D01*
X277804D01*
Y131422D01*
X277650D01*
Y132191D01*
X277496D01*
Y132961D01*
X277342D01*
Y133576D01*
X277188D01*
Y134192D01*
X277034D01*
Y134808D01*
X276881D01*
Y135423D01*
X276727D01*
Y135885D01*
X276573D01*
Y136501D01*
X276419D01*
Y136963D01*
X276265D01*
Y137424D01*
X276111D01*
Y138040D01*
X275957D01*
Y138502D01*
X275803D01*
Y138964D01*
X275649D01*
Y139425D01*
X275495D01*
Y139887D01*
X275341D01*
Y140349D01*
X275187D01*
Y140657D01*
X275034D01*
Y141118D01*
X274880D01*
Y141580D01*
X274726D01*
Y141888D01*
X274572D01*
Y142350D01*
X274418D01*
Y142658D01*
X274264D01*
Y142812D01*
X274110D01*
Y142965D01*
D02*
G37*
G36*
X263798Y146813D02*
X263644D01*
Y146659D01*
X263490D01*
Y146506D01*
X263336D01*
Y146352D01*
X263028D01*
Y146198D01*
X262874D01*
Y146044D01*
X262720D01*
Y145890D01*
X262566D01*
Y145736D01*
X262412D01*
Y145582D01*
X262258D01*
Y145428D01*
X262104D01*
Y145274D01*
X261797D01*
Y145120D01*
X261643D01*
Y144966D01*
X261489D01*
Y144812D01*
X261335D01*
Y144659D01*
X261181D01*
Y144505D01*
X261027D01*
Y144351D01*
X260873D01*
Y144197D01*
X260719D01*
Y144043D01*
X260565D01*
Y143889D01*
X260411D01*
Y143735D01*
X260257D01*
Y143581D01*
X260103D01*
Y143427D01*
X259796D01*
Y143273D01*
X259642D01*
Y143119D01*
X259488D01*
Y142965D01*
X259334D01*
Y142812D01*
X259180D01*
Y142658D01*
X259026D01*
Y142504D01*
X258872D01*
Y142350D01*
X258718D01*
Y142196D01*
X258564D01*
Y141888D01*
X258410D01*
Y141734D01*
X258256D01*
Y141580D01*
X258103D01*
Y141426D01*
X257949D01*
Y141272D01*
X257795D01*
Y141118D01*
X257641D01*
Y140965D01*
X257487D01*
Y140811D01*
X257333D01*
Y140503D01*
X257487D01*
Y140349D01*
X257641D01*
Y140041D01*
X257795D01*
Y139887D01*
X257949D01*
Y139579D01*
X258103D01*
Y139425D01*
X258256D01*
Y139117D01*
X258410D01*
Y138964D01*
X258564D01*
Y138656D01*
X258718D01*
Y138348D01*
X258872D01*
Y138194D01*
X259026D01*
Y137886D01*
X259180D01*
Y137732D01*
X259334D01*
Y137424D01*
X259488D01*
Y137270D01*
X259642D01*
Y136963D01*
X259796D01*
Y136809D01*
X259950D01*
Y136501D01*
X260103D01*
Y136347D01*
X260257D01*
Y136039D01*
X260411D01*
Y135885D01*
X260565D01*
Y135577D01*
X260719D01*
Y135423D01*
X260873D01*
Y135116D01*
X261027D01*
Y134962D01*
X261181D01*
Y134654D01*
X261335D01*
Y134346D01*
X261489D01*
Y134192D01*
X261643D01*
Y133884D01*
X261797D01*
Y133730D01*
X261951D01*
Y133423D01*
X262104D01*
Y133115D01*
X262258D01*
Y132961D01*
X262412D01*
Y132653D01*
X262566D01*
Y132499D01*
X262720D01*
Y132191D01*
X262874D01*
Y132037D01*
X263028D01*
Y131729D01*
X263182D01*
Y131422D01*
X263336D01*
Y131268D01*
X263490D01*
Y130960D01*
X263644D01*
Y130652D01*
X263798D01*
Y130498D01*
X263951D01*
Y130190D01*
X264105D01*
Y129882D01*
X264259D01*
Y129575D01*
X264413D01*
Y129421D01*
X264567D01*
Y129113D01*
X264721D01*
Y128805D01*
X264875D01*
Y128651D01*
X265029D01*
Y128343D01*
X265183D01*
Y128035D01*
X265337D01*
Y127881D01*
X265491D01*
Y127574D01*
X265645D01*
Y127266D01*
X265798D01*
Y126958D01*
X265952D01*
Y126650D01*
X266106D01*
Y126342D01*
X266260D01*
Y126188D01*
X266414D01*
Y125881D01*
X266568D01*
Y125573D01*
X266722D01*
Y125265D01*
X266876D01*
Y124957D01*
X267030D01*
Y124649D01*
X267184D01*
Y124341D01*
X267338D01*
Y124034D01*
X267492D01*
Y123572D01*
X267645D01*
Y123264D01*
X267799D01*
Y122956D01*
X267953D01*
Y122648D01*
X268107D01*
Y122340D01*
X268261D01*
Y121879D01*
X268415D01*
Y121571D01*
X268569D01*
Y121263D01*
X268723D01*
Y120801D01*
X268877D01*
Y120493D01*
X269031D01*
Y120032D01*
X269185D01*
Y119570D01*
X269339D01*
Y119108D01*
X269492D01*
Y118800D01*
X269646D01*
Y118185D01*
X269800D01*
Y118031D01*
Y117723D01*
X269954D01*
Y117261D01*
X270108D01*
Y116645D01*
X270262D01*
Y116030D01*
X270416D01*
Y115414D01*
X270570D01*
Y114645D01*
X270724D01*
Y113567D01*
X270878D01*
Y112951D01*
X271493D01*
Y113105D01*
X272263D01*
Y113259D01*
X272725D01*
Y113413D01*
X273187D01*
Y113567D01*
X273494D01*
Y113721D01*
X273802D01*
Y113875D01*
X273956D01*
Y114029D01*
X274264D01*
Y114183D01*
X274418D01*
Y114337D01*
X274726D01*
Y114491D01*
X274880D01*
Y114645D01*
X275034D01*
Y114798D01*
X275187D01*
Y114952D01*
X275341D01*
Y115106D01*
X275495D01*
Y115414D01*
X275649D01*
Y115568D01*
X275803D01*
Y115722D01*
X275957D01*
Y116030D01*
X276111D01*
Y116338D01*
X276265D01*
Y116492D01*
X276419D01*
Y116953D01*
X276573D01*
Y117261D01*
X276727D01*
Y117569D01*
X276881D01*
Y118031D01*
X277034D01*
Y118339D01*
X277188D01*
Y118800D01*
X277342D01*
Y119262D01*
X277496D01*
Y119878D01*
X277650D01*
Y120493D01*
X277804D01*
Y120801D01*
X277650D01*
Y120955D01*
X277034D01*
Y121109D01*
X276573D01*
Y121263D01*
X276111D01*
Y121417D01*
X275803D01*
Y121571D01*
X275341D01*
Y121725D01*
X275034D01*
Y121879D01*
X274726D01*
Y122033D01*
X274418D01*
Y122187D01*
X274110D01*
Y122340D01*
X273802D01*
Y122494D01*
X273494D01*
Y122648D01*
X273187D01*
Y122802D01*
X273033D01*
Y122956D01*
X272725D01*
Y123110D01*
X272417D01*
Y123264D01*
X272263D01*
Y123418D01*
X271955D01*
Y123572D01*
X271801D01*
Y123726D01*
X271647D01*
Y123880D01*
X271339D01*
Y124034D01*
X271186D01*
Y124187D01*
X271032D01*
Y124341D01*
X270724D01*
Y124495D01*
X270570D01*
Y124649D01*
X270416D01*
Y124803D01*
X270262D01*
Y124957D01*
X270108D01*
Y125111D01*
X269954D01*
Y125265D01*
X269800D01*
Y125419D01*
X269646D01*
Y125573D01*
X269492D01*
Y125727D01*
X269339D01*
Y125881D01*
X269185D01*
Y126034D01*
X269031D01*
Y126188D01*
X268877D01*
Y126342D01*
X268723D01*
Y126650D01*
X268569D01*
Y126804D01*
X268415D01*
Y126958D01*
X268261D01*
Y127266D01*
X268107D01*
Y127420D01*
X267953D01*
Y127728D01*
X267799D01*
Y128035D01*
X267645D01*
Y128189D01*
X267492D01*
Y128497D01*
X267338D01*
Y128805D01*
X267184D01*
Y129113D01*
X267030D01*
Y129421D01*
X266876D01*
Y129882D01*
X266722D01*
Y130190D01*
X266568D01*
Y130498D01*
X266414D01*
Y130960D01*
X266260D01*
Y131268D01*
X266106D01*
Y131883D01*
X265952D01*
Y132345D01*
X265798D01*
Y132807D01*
X265645D01*
Y133269D01*
X265491D01*
Y133884D01*
X265337D01*
Y134500D01*
X265183D01*
Y135270D01*
X265029D01*
Y135885D01*
X264875D01*
Y136655D01*
X264721D01*
Y137578D01*
X264567D01*
Y138502D01*
X264413D01*
Y139579D01*
X264259D01*
Y141118D01*
X264105D01*
Y142812D01*
X263951D01*
Y145890D01*
X263798D01*
Y146813D01*
D02*
G37*
G36*
X243942Y145890D02*
X243634D01*
Y144812D01*
X243480D01*
Y142196D01*
X243326D01*
Y140503D01*
X243173D01*
Y139425D01*
X243019D01*
Y138194D01*
X242865D01*
Y137270D01*
X242711D01*
Y136501D01*
X242557D01*
Y135731D01*
X242403D01*
Y134962D01*
X242249D01*
Y134192D01*
X242095D01*
Y133576D01*
X241941D01*
Y133115D01*
X241787D01*
Y132653D01*
X241633D01*
Y132037D01*
X241479D01*
Y131729D01*
X241326D01*
Y131268D01*
X241172D01*
Y130806D01*
X241018D01*
Y130498D01*
X240864D01*
Y130036D01*
X240710D01*
Y129728D01*
X240556D01*
Y129421D01*
X240402D01*
Y129113D01*
X240248D01*
Y128805D01*
X240094D01*
Y128497D01*
X239940D01*
Y128189D01*
X239786D01*
Y127881D01*
X239632D01*
Y127728D01*
X239478D01*
Y127420D01*
X239325D01*
Y127112D01*
X239171D01*
Y126958D01*
X239017D01*
Y126804D01*
X238863D01*
Y126496D01*
X238709D01*
Y126342D01*
X238555D01*
Y126188D01*
X238401D01*
Y126034D01*
X238247D01*
Y125881D01*
X238093D01*
Y125727D01*
X237939D01*
Y125573D01*
X237785D01*
Y125265D01*
X237631D01*
Y125111D01*
X237324D01*
Y124957D01*
X237170D01*
Y124803D01*
X237016D01*
Y124649D01*
X236862D01*
Y124495D01*
X236708D01*
Y124341D01*
X236554D01*
Y124187D01*
X236246D01*
Y124034D01*
X236092D01*
Y123880D01*
X235938D01*
Y123726D01*
X235631D01*
Y123572D01*
X235477D01*
Y123418D01*
X235169D01*
Y123264D01*
X235015D01*
Y123110D01*
X234707D01*
Y122956D01*
X234553D01*
Y122802D01*
X234245D01*
Y122648D01*
X233937D01*
Y122494D01*
X233630D01*
Y122340D01*
X233322D01*
Y122187D01*
X233014D01*
Y122033D01*
X232706D01*
Y121879D01*
X232398D01*
Y121725D01*
X232090D01*
Y121571D01*
X231629D01*
Y121417D01*
X231167D01*
Y121263D01*
X230859D01*
Y120493D01*
X231013D01*
Y119878D01*
X231167D01*
Y119416D01*
X231321D01*
Y119108D01*
X231475D01*
Y118646D01*
X231629D01*
Y118339D01*
X231783D01*
Y118031D01*
X231937D01*
Y117723D01*
X232090D01*
Y117415D01*
X232244D01*
Y117261D01*
Y117107D01*
X232398D01*
Y116953D01*
X232552D01*
Y116645D01*
X232706D01*
Y116492D01*
X232860D01*
Y116184D01*
X233014D01*
Y116030D01*
X233168D01*
Y115876D01*
X233322D01*
Y115722D01*
X233476D01*
Y115568D01*
X233630D01*
Y115414D01*
X233784D01*
Y115260D01*
X233937D01*
Y115106D01*
X234091D01*
Y114952D01*
X234245D01*
Y114798D01*
X234399D01*
Y114645D01*
X234553D01*
Y114491D01*
X234861D01*
Y114337D01*
X235015D01*
Y114183D01*
X235169D01*
Y114029D01*
X235477D01*
Y113875D01*
X235784D01*
Y113721D01*
X236092D01*
Y113567D01*
X236400D01*
Y113413D01*
X236708D01*
Y113259D01*
X237016D01*
Y113105D01*
X237478D01*
Y112951D01*
X237939D01*
Y112798D01*
X238555D01*
Y112644D01*
X239171D01*
Y112951D01*
X239017D01*
Y114029D01*
X238863D01*
Y118031D01*
X239017D01*
Y119262D01*
X239171D01*
Y120186D01*
X239325D01*
Y120955D01*
X239478D01*
Y121725D01*
X239632D01*
Y122187D01*
X239786D01*
Y122802D01*
X239940D01*
Y123418D01*
X240094D01*
Y123880D01*
X240248D01*
Y124341D01*
X240402D01*
Y124803D01*
X240556D01*
Y125265D01*
X240710D01*
Y125727D01*
X240864D01*
Y126188D01*
X241018D01*
Y126496D01*
X241172D01*
Y126958D01*
X241326D01*
Y127266D01*
X241479D01*
Y127728D01*
X241633D01*
Y128035D01*
X241787D01*
Y128343D01*
X241941D01*
Y128805D01*
X242095D01*
Y129113D01*
X242249D01*
Y129421D01*
X242403D01*
Y129728D01*
X242557D01*
Y130190D01*
X242711D01*
Y130498D01*
X242865D01*
Y130806D01*
X243019D01*
Y131114D01*
X243173D01*
Y131422D01*
X243326D01*
Y131729D01*
X243480D01*
Y132037D01*
X243634D01*
Y132345D01*
X243788D01*
Y132499D01*
X243942D01*
Y132807D01*
X244096D01*
Y133115D01*
X244250D01*
Y133423D01*
X244404D01*
Y133730D01*
X244558D01*
Y134038D01*
X244712D01*
Y134346D01*
X244866D01*
Y134654D01*
X245020D01*
Y134962D01*
X245173D01*
Y135116D01*
X245327D01*
Y135423D01*
X245481D01*
Y135731D01*
X245635D01*
Y135885D01*
X245789D01*
Y136193D01*
X245943D01*
Y136501D01*
X246097D01*
Y136655D01*
X246251D01*
Y136963D01*
X246405D01*
Y137270D01*
X246559D01*
Y137424D01*
X246713D01*
Y137732D01*
X246867D01*
Y138040D01*
X247020D01*
Y138194D01*
X247174D01*
Y138502D01*
X247328D01*
Y138656D01*
X247482D01*
Y138964D01*
X247636D01*
Y139271D01*
X247790D01*
Y139425D01*
X247944D01*
Y139733D01*
X248098D01*
Y139887D01*
X248252D01*
Y140195D01*
X248406D01*
Y140349D01*
X248560D01*
Y140657D01*
X248714D01*
Y140965D01*
X248560D01*
Y141272D01*
X248406D01*
Y141426D01*
X248252D01*
Y141580D01*
X248098D01*
Y141734D01*
X247944D01*
Y141888D01*
X247790D01*
Y142042D01*
X247636D01*
Y142196D01*
X247482D01*
Y142350D01*
X247328D01*
Y142504D01*
X247174D01*
Y142658D01*
X247020D01*
Y142812D01*
X246867D01*
Y142965D01*
X246713D01*
Y143119D01*
X246559D01*
Y143273D01*
X246405D01*
Y143427D01*
X246251D01*
Y143581D01*
X246097D01*
Y143735D01*
X245943D01*
Y143889D01*
X245789D01*
Y144043D01*
X245635D01*
Y144197D01*
X245481D01*
Y144351D01*
X245327D01*
Y144505D01*
X245173D01*
Y144659D01*
X245020D01*
Y144812D01*
X244866D01*
Y144966D01*
X244712D01*
Y145120D01*
X244558D01*
Y145274D01*
X244404D01*
Y145428D01*
X244250D01*
Y145582D01*
X244096D01*
Y145736D01*
X243942D01*
Y145890D01*
D02*
G37*
%LPD*%
G36*
X252715Y201608D02*
X253485D01*
Y201454D01*
X253947D01*
Y201300D01*
X254255D01*
Y201147D01*
X254409D01*
Y200993D01*
X254716D01*
Y200839D01*
X254870D01*
Y200685D01*
X255024D01*
Y200531D01*
X255178D01*
Y200377D01*
X255332D01*
Y200223D01*
X255486D01*
Y199915D01*
X255640D01*
Y199607D01*
X255794D01*
Y199299D01*
X255948D01*
Y198992D01*
X256102D01*
Y197914D01*
X256256D01*
Y197606D01*
X256102D01*
Y196837D01*
X255948D01*
Y196375D01*
X255794D01*
Y196067D01*
X255640D01*
Y195759D01*
X255486D01*
Y195605D01*
X255332D01*
Y195452D01*
X255178D01*
Y195298D01*
X255024D01*
Y195144D01*
X254870D01*
Y194990D01*
X254716D01*
Y194836D01*
X254562D01*
Y194682D01*
X254255D01*
Y194528D01*
X253947D01*
Y194374D01*
X253639D01*
Y194220D01*
X253023D01*
Y194066D01*
X251638D01*
Y194220D01*
X251176D01*
Y194374D01*
X250715D01*
Y194528D01*
X250407D01*
Y194682D01*
X250253D01*
Y194836D01*
X249945D01*
Y194990D01*
X249791D01*
Y195144D01*
X249637D01*
Y195298D01*
X249483D01*
Y195452D01*
X249329D01*
Y195759D01*
X249175D01*
Y195913D01*
X249021D01*
Y196221D01*
X248867D01*
Y196529D01*
X248714D01*
Y197145D01*
X248560D01*
Y198684D01*
X248714D01*
Y199146D01*
X248867D01*
Y199607D01*
X249021D01*
Y199761D01*
X249175D01*
Y200069D01*
X249329D01*
Y200223D01*
X249483D01*
Y200377D01*
X249637D01*
Y200685D01*
X249945D01*
Y200839D01*
X250099D01*
Y200993D01*
X250253D01*
Y201147D01*
X250561D01*
Y201300D01*
X250868D01*
Y201454D01*
X251330D01*
Y201608D01*
X252100D01*
Y201762D01*
X252715D01*
Y201608D01*
D02*
G37*
G36*
X253485Y178828D02*
X253947D01*
Y178674D01*
X254101D01*
Y178521D01*
X254255D01*
Y178367D01*
X254409D01*
Y178213D01*
X254562D01*
Y177905D01*
X254716D01*
Y177289D01*
X254870D01*
Y177135D01*
X254716D01*
Y176981D01*
Y176520D01*
X254562D01*
Y176212D01*
X254409D01*
Y176058D01*
X254255D01*
Y175904D01*
X254101D01*
Y175750D01*
X253947D01*
Y175596D01*
X253639D01*
Y175442D01*
X252408D01*
Y175596D01*
X252100D01*
Y175750D01*
X251792D01*
Y176058D01*
X251638D01*
Y176212D01*
X251484D01*
Y176366D01*
X251330D01*
Y176827D01*
X251176D01*
Y177597D01*
X251330D01*
Y178059D01*
X251484D01*
Y178213D01*
X251638D01*
Y178367D01*
X251792D01*
Y178521D01*
X251946D01*
Y178674D01*
X252100D01*
Y178828D01*
X252562D01*
Y178982D01*
X253485D01*
Y178828D01*
D02*
G37*
D11*
X334750Y79079D02*
Y69082D01*
Y74081D01*
X328086D01*
Y79079D01*
Y69082D01*
X324753Y75747D02*
Y70748D01*
X323087Y69082D01*
X318089D01*
Y67416D01*
X319755Y65750D01*
X321421D01*
X318089Y69082D02*
Y75747D01*
X308092Y79079D02*
Y69082D01*
X313090D01*
X314756Y70748D01*
Y74081D01*
X313090Y75747D01*
X308092D01*
X304760D02*
Y69082D01*
Y72414D01*
X303093Y74081D01*
X301427Y75747D01*
X299761D01*
X293097Y69082D02*
X289764D01*
X288098Y70748D01*
Y74081D01*
X289764Y75747D01*
X293097D01*
X294763Y74081D01*
Y70748D01*
X293097Y69082D01*
X284766D02*
Y75747D01*
X279768D01*
X278102Y74081D01*
Y69082D01*
X273103Y75747D02*
X269771D01*
X268105Y74081D01*
Y69082D01*
X273103D01*
X274769Y70748D01*
X273103Y72414D01*
X268105D01*
X264772Y75747D02*
Y70748D01*
X263106Y69082D01*
X258108D01*
Y75747D01*
X253110Y77413D02*
Y75747D01*
X254776D01*
X251444D01*
X253110D01*
Y70748D01*
X251444Y69082D01*
X246445D02*
X243113D01*
X244779D01*
Y75747D01*
X246445D01*
X231450D02*
X236448D01*
X238114Y74081D01*
Y70748D01*
X236448Y69082D01*
X231450D01*
X228118D02*
X223119D01*
X221453Y70748D01*
X223119Y72414D01*
X226452D01*
X228118Y74081D01*
X226452Y75747D01*
X221453D01*
X208124Y79079D02*
X201460D01*
X204792D01*
Y69082D01*
X193129D02*
X196461D01*
X198127Y70748D01*
Y74081D01*
X196461Y75747D01*
X193129D01*
X191463Y74081D01*
Y72414D01*
X198127D01*
X186464Y75747D02*
X183132D01*
X181466Y74081D01*
Y69082D01*
X186464D01*
X188131Y70748D01*
X186464Y72414D01*
X181466D01*
X178134Y69082D02*
Y75747D01*
X176468D01*
X174802Y74081D01*
Y69082D01*
Y74081D01*
X173135Y75747D01*
X171469Y74081D01*
Y69082D01*
X334750Y38079D02*
Y28082D01*
X329752D01*
X328086Y29748D01*
Y36413D01*
X329752Y38079D01*
X334750D01*
X319755Y28082D02*
X323087D01*
X324753Y29748D01*
Y33081D01*
X323087Y34747D01*
X319755D01*
X318089Y33081D01*
Y31414D01*
X324753D01*
X314756Y34747D02*
X311424Y28082D01*
X308092Y34747D01*
X299761Y28082D02*
X303093D01*
X304760Y29748D01*
Y33081D01*
X303093Y34747D01*
X299761D01*
X298095Y33081D01*
Y31414D01*
X304760D01*
X294763Y28082D02*
X291431D01*
X293097D01*
Y38079D01*
X294763D01*
X284766Y28082D02*
X281434D01*
X279768Y29748D01*
Y33081D01*
X281434Y34747D01*
X284766D01*
X286432Y33081D01*
Y29748D01*
X284766Y28082D01*
X276436Y24750D02*
Y34747D01*
X271437D01*
X269771Y33081D01*
Y29748D01*
X271437Y28082D01*
X276436D01*
X261440D02*
X264772D01*
X266439Y29748D01*
Y33081D01*
X264772Y34747D01*
X261440D01*
X259774Y33081D01*
Y31414D01*
X266439D01*
X249777Y38079D02*
Y28082D01*
X254776D01*
X256442Y29748D01*
Y33081D01*
X254776Y34747D01*
X249777D01*
X236448Y38079D02*
Y28082D01*
X231450D01*
X229784Y29748D01*
Y31414D01*
Y33081D01*
X231450Y34747D01*
X236448D01*
X226452D02*
Y29748D01*
X224785Y28082D01*
X219787D01*
Y26416D01*
X221453Y24750D01*
X223119D01*
X219787Y28082D02*
Y34747D01*
X199793Y36413D02*
X201460Y38079D01*
X204792D01*
X206458Y36413D01*
Y29748D01*
X204792Y28082D01*
X201460D01*
X199793Y29748D01*
Y33081D01*
X203126D01*
X196461Y28082D02*
X193129D01*
X194795D01*
Y38079D01*
X196461D01*
X183132Y28082D02*
X186464D01*
X188131Y29748D01*
Y33081D01*
X186464Y34747D01*
X183132D01*
X181466Y33081D01*
Y31414D01*
X188131D01*
X178134Y38079D02*
Y28082D01*
X173135D01*
X171469Y29748D01*
Y31414D01*
Y33081D01*
X173135Y34747D01*
X178134D01*
X158140Y28082D02*
Y38079D01*
X154808Y34747D01*
X151476Y38079D01*
Y28082D01*
X148144D02*
Y29748D01*
X146477D01*
Y28082D01*
X148144D01*
X129750Y58997D02*
Y52332D01*
X126418Y49000D01*
X123085Y52332D01*
Y58997D01*
X113089D02*
X119753D01*
Y49000D01*
X113089D01*
X119753Y53998D02*
X116421D01*
X109756Y49000D02*
Y58997D01*
X104758D01*
X103092Y57331D01*
Y53998D01*
X104758Y52332D01*
X109756D01*
X106424D02*
X103092Y49000D01*
X93095Y57331D02*
X94761Y58997D01*
X98094D01*
X99760Y57331D01*
Y55665D01*
X98094Y53998D01*
X94761D01*
X93095Y52332D01*
Y50666D01*
X94761Y49000D01*
X98094D01*
X99760Y50666D01*
X89763Y58997D02*
X86431D01*
X88097D01*
Y49000D01*
X89763D01*
X86431D01*
X76434Y58997D02*
X79766D01*
X81432Y57331D01*
Y50666D01*
X79766Y49000D01*
X76434D01*
X74768Y50666D01*
Y57331D01*
X76434Y58997D01*
X71435Y49000D02*
Y58997D01*
X64771Y49000D01*
Y58997D01*
X51442Y49000D02*
X48110D01*
X49776D01*
Y58997D01*
X51442Y57331D01*
X43111Y49000D02*
Y50666D01*
X41445D01*
Y49000D01*
X43111D01*
X34781Y57331D02*
X33115Y58997D01*
X29782D01*
X28116Y57331D01*
Y50666D01*
X29782Y49000D01*
X33115D01*
X34781Y50666D01*
Y57331D01*
X334750Y57997D02*
Y51332D01*
X331418Y48000D01*
X328086Y51332D01*
Y57997D01*
X324753Y48000D02*
Y57997D01*
X321421Y54665D01*
X318089Y57997D01*
Y48000D01*
X314756D02*
Y54665D01*
X311424Y57997D01*
X308092Y54665D01*
Y48000D01*
Y52998D01*
X314756D01*
X294763Y48000D02*
Y57997D01*
X288098Y48000D01*
Y57997D01*
X278102D02*
X284766D01*
Y48000D01*
X278102D01*
X284766Y52998D02*
X281434D01*
X269771Y57997D02*
X273103D01*
X274769Y56331D01*
Y49666D01*
X273103Y48000D01*
X269771D01*
X268105Y49666D01*
Y56331D01*
X269771Y57997D01*
X264772D02*
Y48000D01*
X261440Y51332D01*
X258108Y48000D01*
Y57997D01*
X248111D02*
X254776D01*
Y48000D01*
X248111D01*
X254776Y52998D02*
X251444D01*
X244779Y57997D02*
Y48000D01*
X238114D01*
X234782Y57997D02*
X228118D01*
X231450D01*
Y48000D01*
X208124D02*
X214789D01*
X208124Y54665D01*
Y56331D01*
X209790Y57997D01*
X213123D01*
X214789Y56331D01*
X204792D02*
X203126Y57997D01*
X199793D01*
X198127Y56331D01*
Y49666D01*
X199793Y48000D01*
X203126D01*
X204792Y49666D01*
Y56331D01*
X188131Y48000D02*
X194795D01*
X188131Y54665D01*
Y56331D01*
X189797Y57997D01*
X193129D01*
X194795Y56331D01*
X178134Y57997D02*
X184798D01*
Y52998D01*
X181466Y54665D01*
X179800D01*
X178134Y52998D01*
Y49666D01*
X179800Y48000D01*
X183132D01*
X184798Y49666D01*
X64997Y83000D02*
X55000D01*
Y87998D01*
X56666Y89664D01*
X63331D01*
X64997Y87998D01*
Y83000D01*
Y99661D02*
Y92997D01*
X55000D01*
Y99661D01*
X59998Y92997D02*
Y96329D01*
X64997Y102993D02*
X55000D01*
Y107992D01*
X56666Y109658D01*
X58332D01*
X59998Y107992D01*
Y102993D01*
Y107992D01*
X61665Y109658D01*
X63331D01*
X64997Y107992D01*
Y102993D01*
Y112990D02*
X56666D01*
X55000Y114656D01*
Y117989D01*
X56666Y119655D01*
X64997D01*
X63331Y129652D02*
X64997Y127985D01*
Y124653D01*
X63331Y122987D01*
X56666D01*
X55000Y124653D01*
Y127985D01*
X56666Y129652D01*
X59998D01*
Y126319D01*
X64997Y142981D02*
X56666D01*
X55000Y144647D01*
Y147979D01*
X56666Y149645D01*
X64997D01*
X55000Y152977D02*
X61665D01*
X64997Y156310D01*
X61665Y159642D01*
X55000D01*
X59998D01*
Y152977D01*
X55000Y162974D02*
X64997D01*
Y167973D01*
X63331Y169639D01*
X59998D01*
X58332Y167973D01*
Y162974D01*
Y166306D02*
X55000Y169639D01*
X64997Y172971D02*
Y179636D01*
Y176303D01*
X55000D01*
X116331Y82664D02*
X117997Y80998D01*
Y77666D01*
X116331Y76000D01*
X114664D01*
X112998Y77666D01*
Y80998D01*
X111332Y82664D01*
X109666D01*
X108000Y80998D01*
Y77666D01*
X109666Y76000D01*
X117997Y92661D02*
Y85997D01*
X108000D01*
Y92661D01*
X112998Y85997D02*
Y89329D01*
X108000Y95994D02*
X117997D01*
Y100992D01*
X116331Y102658D01*
X112998D01*
X111332Y100992D01*
Y95994D01*
Y99326D02*
X108000Y102658D01*
X117997Y105990D02*
Y109323D01*
Y107656D01*
X108000D01*
Y105990D01*
Y109323D01*
Y114321D02*
X114664D01*
X117997Y117653D01*
X114664Y120985D01*
X108000D01*
X112998D01*
Y114321D01*
X117997Y124318D02*
X108000D01*
Y130982D01*
X117997Y144311D02*
X108000D01*
X111332Y147644D01*
X108000Y150976D01*
X117997D01*
Y154308D02*
Y157640D01*
Y155974D01*
X108000D01*
Y154308D01*
Y157640D01*
Y162639D02*
X117997D01*
Y167637D01*
X116331Y169303D01*
X112998D01*
X111332Y167637D01*
Y162639D01*
Y165971D02*
X108000Y169303D01*
X117997Y179300D02*
Y172635D01*
X108000D01*
Y179300D01*
X112998Y172635D02*
Y175968D01*
X150331Y164500D02*
Y171164D01*
X153663Y167832D02*
X146998D01*
X153663Y174497D02*
X155329Y176163D01*
Y179495D01*
X153663Y181161D01*
X151997D01*
X150331Y179495D01*
Y177829D01*
Y179495D01*
X148665Y181161D01*
X146998D01*
X145332Y179495D01*
Y176163D01*
X146998Y174497D01*
X143666Y186160D02*
X145332Y187826D01*
X146998D01*
Y186160D01*
X145332D01*
Y187826D01*
X143666Y186160D01*
X142000Y184494D01*
X153663Y194490D02*
X155329Y196157D01*
Y199489D01*
X153663Y201155D01*
X151997D01*
X150331Y199489D01*
Y197823D01*
Y199489D01*
X148665Y201155D01*
X146998D01*
X145332Y199489D01*
Y196157D01*
X146998Y194490D01*
X155329Y204487D02*
X145332D01*
Y209485D01*
X146998Y211152D01*
X148665D01*
X150331Y209485D01*
Y204487D01*
Y209485D01*
X151997Y211152D01*
X153663D01*
X155329Y209485D01*
Y204487D01*
X128997Y189000D02*
X119000D01*
Y193998D01*
X120666Y195665D01*
X127331D01*
X128997Y193998D01*
Y189000D01*
Y198997D02*
Y202329D01*
Y200663D01*
X119000D01*
Y198997D01*
Y202329D01*
X128997Y212326D02*
Y208993D01*
X127331Y207327D01*
X120666D01*
X119000Y208993D01*
Y212326D01*
X120666Y213992D01*
X127331D01*
X128997Y212326D01*
X106331Y194664D02*
X107997Y192998D01*
Y189666D01*
X106331Y188000D01*
X99666D01*
X98000Y189666D01*
Y192998D01*
X99666Y194664D01*
X107997Y197997D02*
X98000D01*
Y204661D01*
X107997Y207994D02*
X98000D01*
X101332D01*
X107997Y214658D01*
X102998Y209660D01*
X98000Y214658D01*
X42000Y197000D02*
X51997D01*
Y201998D01*
X50331Y203664D01*
X46998D01*
X45332Y201998D01*
Y197000D01*
Y200332D02*
X42000Y203664D01*
X51997Y206997D02*
X42000Y213661D01*
X51997D02*
X42000Y206997D01*
X77997Y197000D02*
Y203664D01*
Y200332D01*
X68000D01*
X77997Y206997D02*
X68000Y213661D01*
X77997D02*
X68000Y206997D01*
X25331Y193664D02*
X26997Y191998D01*
Y188666D01*
X25331Y187000D01*
X18666D01*
X17000Y188666D01*
Y191998D01*
X18666Y193664D01*
X21998D01*
Y190332D01*
X17000Y196997D02*
X26997D01*
X17000Y203661D01*
X26997D01*
Y206994D02*
X17000D01*
Y211992D01*
X18666Y213658D01*
X25331D01*
X26997Y211992D01*
Y206994D01*
X356579Y196248D02*
X349915Y186252D01*
Y196248D02*
X356579Y186252D01*
X346582D02*
Y196248D01*
X341584D01*
X339918Y194582D01*
Y191250D01*
X341584Y189584D01*
X346582D01*
X329921Y186252D02*
X336586D01*
X329921Y192916D01*
Y194582D01*
X331587Y196248D01*
X334919D01*
X336586Y194582D01*
X186413Y235248D02*
X179748Y225252D01*
Y235248D02*
X186413Y225252D01*
X176416D02*
Y235248D01*
X171418D01*
X169752Y233582D01*
Y230250D01*
X171418Y228584D01*
X176416D01*
X166419Y225252D02*
X163087D01*
X164753D01*
Y235248D01*
X166419Y233582D01*
D14*
X135000Y183000D02*
Y199000D01*
X38000Y183000D02*
X83000D01*
Y199000D01*
X37000Y183000D02*
Y199000D01*
Y183000D02*
X38000D01*
X88000D02*
Y199000D01*
Y183000D02*
X135000D01*
X350750Y67250D02*
X369250D01*
X350750Y182750D02*
X369250D01*
D60*
X340700Y173000D02*
G03*
X340700Y173000I-600J0D01*
G01*
M02*
