G04*
G04 #@! TF.GenerationSoftware,Altium Limited,Altium Designer,25.1.2 (22)*
G04*
G04 Layer_Physical_Order=1*
G04 Layer_Color=255*
%FSLAX44Y44*%
%MOMM*%
G71*
G04*
G04 #@! TF.SameCoordinates,7ED34E8D-A4F8-468C-8B7F-49A99E5286A2*
G04*
G04*
G04 #@! TF.FilePolarity,Positive*
G04*
G01*
G75*
%ADD11C,0.2000*%
%ADD16R,2.1500X0.9000*%
%ADD17R,2.1500X3.2500*%
%ADD18R,0.7620X0.7620*%
%ADD19R,0.9000X1.0500*%
%ADD20R,0.8000X0.9500*%
%ADD21R,2.1800X1.6000*%
%ADD22R,2.7062X0.9542*%
%ADD23R,1.4000X2.0000*%
%ADD24R,1.0500X0.9000*%
%ADD25R,0.9500X0.8000*%
%ADD26R,1.4000X1.5000*%
%ADD27O,0.3000X1.4500*%
%ADD28O,1.4500X0.3000*%
%ADD29R,1.2000X0.6000*%
%ADD30R,1.5000X1.4000*%
%ADD31R,1.0500X1.3000*%
%ADD50C,0.1250*%
%ADD51C,0.3000*%
%ADD52C,0.5000*%
%ADD53C,2.0000*%
%ADD54C,2.3000*%
%ADD55C,0.6000*%
G36*
X397451Y240156D02*
X397068Y239886D01*
X396201Y239603D01*
X395780Y239884D01*
X395000Y240039D01*
X387000D01*
X386220Y239884D01*
X385558Y239442D01*
X385116Y238780D01*
X384961Y238000D01*
Y237500D01*
X375750D01*
Y223000D01*
X375096Y222021D01*
X373404D01*
X373135Y222423D01*
X373012Y223271D01*
X373442Y223558D01*
X373884Y224220D01*
X374039Y225000D01*
Y244000D01*
X373884Y244780D01*
X373442Y245442D01*
X372780Y245884D01*
X372000Y246039D01*
X358000D01*
X357220Y245884D01*
X356558Y245442D01*
X356116Y244780D01*
X355961Y244000D01*
Y238000D01*
X355961Y238000D01*
X356060Y237500D01*
X355563Y236593D01*
X355260Y236250D01*
X335751D01*
Y223250D01*
X359176D01*
X359220Y223242D01*
X359678Y223033D01*
X359719Y222021D01*
X359719Y221763D01*
Y216250D01*
X375250D01*
X390781D01*
Y220961D01*
X395000D01*
X395780Y221116D01*
X396201Y221397D01*
X397068Y221115D01*
X397451Y220844D01*
Y151388D01*
X396201Y150870D01*
X395832Y151239D01*
X394155Y151934D01*
X393995Y152000D01*
X393000Y153214D01*
Y153995D01*
X392239Y155832D01*
X392387Y156577D01*
X392832Y156761D01*
X394239Y158168D01*
X395000Y160005D01*
Y161995D01*
X394239Y163832D01*
X392832Y165239D01*
X390995Y166000D01*
X389005D01*
X387168Y165239D01*
X385761Y163832D01*
X384422Y163409D01*
X382995Y164000D01*
X381005D01*
X379168Y163239D01*
X377761Y161832D01*
X377000Y159995D01*
Y159199D01*
X376962Y159036D01*
X376940Y158336D01*
X376917Y158120D01*
X376883Y157920D01*
X376846Y157761D01*
X376809Y157645D01*
X376777Y157569D01*
X376770Y157555D01*
X360250Y141035D01*
X359000Y141553D01*
Y141995D01*
X358239Y143832D01*
X356832Y145239D01*
X354995Y146000D01*
X353005D01*
X351168Y145239D01*
X349761Y143832D01*
X349000Y141995D01*
Y140005D01*
X349176Y139579D01*
X348482Y138540D01*
X264511D01*
X264297Y139616D01*
X263539Y140750D01*
X264297Y141884D01*
X264569Y143250D01*
X264297Y144616D01*
X263539Y145750D01*
X264297Y146884D01*
X264569Y148250D01*
X264297Y149616D01*
X264195Y149768D01*
X264715Y151239D01*
X264750Y151250D01*
X264750Y151250D01*
X279250D01*
Y157933D01*
X279259Y157977D01*
X279250Y158021D01*
Y158995D01*
X279432Y159257D01*
X280137Y160090D01*
X281327Y161281D01*
X282005Y161000D01*
X283995D01*
X284750Y161313D01*
X285218Y161000D01*
X294000D01*
Y172000D01*
X286000D01*
Y171522D01*
X284750Y170687D01*
X283995Y171000D01*
X282005D01*
X280500Y170376D01*
X279250Y170954D01*
Y172750D01*
X272000D01*
X264750D01*
Y172297D01*
X264272Y171819D01*
X256250D01*
Y168250D01*
X255250D01*
Y167250D01*
X246130D01*
X246203Y166884D01*
X246961Y165750D01*
X246203Y164616D01*
X245931Y163250D01*
X246203Y161884D01*
X246961Y160750D01*
X246203Y159616D01*
X245931Y158250D01*
X246145Y157177D01*
X245454Y155926D01*
X243859D01*
X239676Y160109D01*
Y166891D01*
X246555Y173770D01*
X246569Y173777D01*
X246645Y173809D01*
X246761Y173846D01*
X246920Y173883D01*
X247093Y173912D01*
X247662Y173958D01*
X247991Y173961D01*
X248177Y174000D01*
X248995D01*
X250832Y174761D01*
X252239Y176168D01*
X253000Y178005D01*
Y179995D01*
X253701Y181293D01*
X254832Y181761D01*
X256239Y183168D01*
X257000Y185005D01*
Y186995D01*
X256239Y188832D01*
X254832Y190239D01*
X252995Y191000D01*
X251005D01*
X250000Y191672D01*
Y191995D01*
X249239Y193832D01*
X247832Y195239D01*
X245995Y196000D01*
X244005D01*
X242168Y195239D01*
X241463Y194534D01*
X240523Y193773D01*
X239366Y194547D01*
X238000Y194819D01*
X236634Y194547D01*
X235500Y193789D01*
X234366Y194547D01*
X233000Y194819D01*
X231634Y194547D01*
X230500Y193789D01*
X229366Y194547D01*
X228000Y194819D01*
X226634Y194547D01*
X225500Y193789D01*
X224366Y194547D01*
X223000Y194819D01*
X221634Y194547D01*
X220500Y193789D01*
X219366Y194547D01*
X218000Y194819D01*
X216634Y194547D01*
X215500Y193789D01*
X214366Y194547D01*
X213000Y194819D01*
X211634Y194547D01*
X210500Y193789D01*
X209366Y194547D01*
X208000Y194819D01*
X206634Y194547D01*
X205500Y193789D01*
X204366Y194547D01*
X203000Y194819D01*
X201634Y194547D01*
X200500Y193789D01*
X199366Y194547D01*
X198000Y194819D01*
X196634Y194547D01*
X195500Y193789D01*
X194366Y194547D01*
X193000Y194819D01*
X191926Y194605D01*
X190676Y195296D01*
Y200280D01*
X190681Y200295D01*
X190712Y200371D01*
X190769Y200480D01*
X190854Y200618D01*
X190956Y200761D01*
X191326Y201195D01*
X191557Y201431D01*
X191660Y201589D01*
X192239Y202168D01*
X193000Y204005D01*
Y205995D01*
X192239Y207832D01*
X190832Y209239D01*
X188995Y210000D01*
X187005D01*
X185168Y209239D01*
X184000Y208071D01*
X182832Y209239D01*
X180995Y210000D01*
X179005D01*
X177168Y209239D01*
X175761Y207832D01*
X175000Y205995D01*
Y204005D01*
X175761Y202168D01*
X177168Y200761D01*
X178447Y200231D01*
X178125Y199453D01*
Y197463D01*
X178755Y195943D01*
X178184Y194986D01*
X178000Y194819D01*
X176634Y194547D01*
X175500Y193789D01*
X174366Y194547D01*
X173000Y194819D01*
X171634Y194547D01*
X170500Y193789D01*
X169366Y194547D01*
X168000Y194819D01*
X166634Y194547D01*
X165500Y193789D01*
X164366Y194547D01*
X163000Y194819D01*
X161634Y194547D01*
X160500Y193789D01*
X159366Y194547D01*
X158000Y194819D01*
X156634Y194547D01*
X155500Y193789D01*
X154366Y194547D01*
X153000Y194819D01*
X151634Y194547D01*
X150500Y193789D01*
X149366Y194547D01*
X148000Y194819D01*
X146634Y194547D01*
X145500Y193789D01*
X144366Y194547D01*
X143000Y194819D01*
X141634Y194547D01*
X140500Y193789D01*
X139366Y194547D01*
X138000Y194819D01*
X136634Y194547D01*
X136189Y194249D01*
X135250Y195125D01*
Y209500D01*
X122250D01*
Y200161D01*
X121595Y199419D01*
X121463Y199339D01*
X120156Y199141D01*
X119250Y200047D01*
Y201250D01*
X113750D01*
Y195000D01*
X114203D01*
X114431Y194772D01*
Y191250D01*
Y186500D01*
X118000D01*
Y185500D01*
X119000D01*
Y176380D01*
X119366Y176453D01*
X120500Y177211D01*
X121634Y176453D01*
X123000Y176181D01*
X124366Y176453D01*
X125500Y177211D01*
X126634Y176453D01*
X128000Y176181D01*
X129366Y176453D01*
X130500Y177211D01*
X131634Y176453D01*
X133000Y176181D01*
X134366Y176453D01*
X135500Y177211D01*
X136634Y176453D01*
X138000Y176181D01*
X139366Y176453D01*
X140500Y177211D01*
X141634Y176453D01*
X143000Y176181D01*
X144366Y176453D01*
X145500Y177211D01*
X146634Y176453D01*
X148000Y176181D01*
X149366Y176453D01*
X150500Y177211D01*
X151634Y176453D01*
X153000Y176181D01*
X154366Y176453D01*
X155500Y177211D01*
X156634Y176453D01*
X158000Y176181D01*
X159366Y176453D01*
X160500Y177211D01*
X161634Y176453D01*
X163000Y176181D01*
X164366Y176453D01*
X165500Y177211D01*
X166634Y176453D01*
X168000Y176181D01*
X169366Y176453D01*
X170500Y177211D01*
X171634Y176453D01*
X172730Y176235D01*
X177857Y171108D01*
X177857Y171108D01*
X178726Y170527D01*
X179750Y170324D01*
X203891D01*
X210324Y163891D01*
Y158381D01*
X209854Y158143D01*
X209074Y157998D01*
X207832Y159239D01*
X205995Y160000D01*
X204155D01*
X204005Y160001D01*
X203000Y160937D01*
Y161995D01*
X202239Y163832D01*
X200832Y165239D01*
X198995Y166000D01*
X197005D01*
X195168Y165239D01*
X194929Y165000D01*
X194737Y164865D01*
X194475Y164692D01*
X193958Y164391D01*
X193782Y164303D01*
X193621Y164235D01*
X193499Y164192D01*
X193442Y164177D01*
X114750D01*
X113726Y163973D01*
X112858Y163393D01*
X112858Y163393D01*
X110881Y161416D01*
X110748Y161474D01*
X109850Y162153D01*
X110069Y163250D01*
X109797Y164616D01*
X109039Y165750D01*
X109797Y166884D01*
X110069Y168250D01*
X109797Y169616D01*
X109023Y170773D01*
X107866Y171547D01*
X106500Y171819D01*
X99160D01*
X98995Y173000D01*
X100832Y173761D01*
X102239Y175168D01*
X103000Y177005D01*
Y177801D01*
X103038Y177964D01*
X103061Y178664D01*
X103083Y178880D01*
X103117Y179081D01*
X103154Y179239D01*
X103191Y179356D01*
X103223Y179431D01*
X103230Y179445D01*
X106892Y183107D01*
X106892Y183107D01*
X107473Y183976D01*
X107676Y185000D01*
X107676Y185000D01*
Y195000D01*
X111750D01*
Y202250D01*
Y209500D01*
X107676D01*
Y210791D01*
X114185Y217300D01*
X114302Y217393D01*
X114600Y217551D01*
X115104Y217740D01*
X115800Y217928D01*
X116677Y218096D01*
X117687Y218233D01*
X121842Y218460D01*
X123502Y218461D01*
X123695Y218500D01*
X125180D01*
X128232Y219318D01*
X130968Y220898D01*
X133202Y223132D01*
X134782Y225868D01*
X135600Y228920D01*
Y232080D01*
X134782Y235132D01*
X133202Y237868D01*
X130968Y240102D01*
X128232Y241682D01*
X125180Y242500D01*
X122020D01*
X118968Y241682D01*
X116232Y240102D01*
X113998Y237868D01*
X112418Y235132D01*
X111600Y232080D01*
Y230607D01*
X111561Y230425D01*
X111521Y227199D01*
X111335Y224604D01*
X111196Y223577D01*
X111028Y222700D01*
X110840Y222003D01*
X110652Y221500D01*
X110493Y221202D01*
X110400Y221085D01*
X103108Y213792D01*
X102527Y212924D01*
X102324Y211900D01*
X102324Y211900D01*
Y199685D01*
X101776Y199320D01*
X101317Y199221D01*
X101074Y199212D01*
X97893Y202393D01*
X97024Y202973D01*
X96000Y203176D01*
X95500Y204231D01*
Y205500D01*
X90176D01*
Y218398D01*
X90350Y218472D01*
X90885Y218628D01*
X91539Y218750D01*
X92309Y218827D01*
X93165Y218852D01*
X95305Y218731D01*
X96156Y218624D01*
X96620Y218500D01*
X99780D01*
X102832Y219318D01*
X105568Y220898D01*
X107802Y223132D01*
X109382Y225868D01*
X110200Y228920D01*
Y232080D01*
X109382Y235132D01*
X107802Y237868D01*
X105568Y240102D01*
X102832Y241682D01*
X99780Y242500D01*
X96620D01*
X93568Y241682D01*
X90832Y240102D01*
X88598Y237868D01*
X87018Y235132D01*
X86200Y232080D01*
Y228920D01*
X86311Y228505D01*
X86523Y226460D01*
X86553Y225492D01*
X86527Y224608D01*
X86450Y223839D01*
X86328Y223185D01*
X86172Y222650D01*
X85993Y222231D01*
X85804Y221918D01*
X85649Y221734D01*
X85608Y221693D01*
X85583Y221656D01*
X85499Y221557D01*
X85417Y221407D01*
X85027Y220824D01*
X84824Y219800D01*
X84824Y219800D01*
Y205500D01*
X82501D01*
X81807Y206539D01*
X82000Y207005D01*
Y208995D01*
X81239Y210832D01*
X79832Y212239D01*
X77995Y213000D01*
X76005D01*
X75093Y212622D01*
X73539Y213160D01*
X73522Y213183D01*
X73501Y213213D01*
X73469Y213328D01*
X73353Y213557D01*
X73239Y213832D01*
X73187Y213884D01*
X73088Y214079D01*
X72822Y214670D01*
X72649Y215129D01*
X72704Y215305D01*
X72901Y215688D01*
X73229Y216148D01*
X73704Y216672D01*
X74334Y217244D01*
X75095Y217837D01*
X77167Y219167D01*
X78417Y219852D01*
X78549Y219963D01*
X80168Y220898D01*
X82402Y223132D01*
X83982Y225868D01*
X84800Y228920D01*
Y232080D01*
X83982Y235132D01*
X82402Y237868D01*
X80168Y240102D01*
X77432Y241682D01*
X74380Y242500D01*
X71220D01*
X68168Y241682D01*
X65432Y240102D01*
X63198Y237868D01*
X61618Y235132D01*
X60800Y232080D01*
Y228920D01*
X61618Y225868D01*
X62190Y224876D01*
X62236Y224725D01*
X62237Y224724D01*
X62237Y224724D01*
X62237Y224724D01*
X65578Y218481D01*
X66504Y216582D01*
X66168Y215239D01*
X64761Y213832D01*
X64000Y211995D01*
Y210005D01*
X64761Y208168D01*
X65324Y207605D01*
X65412Y207463D01*
X65892Y206952D01*
X66028Y206783D01*
X66051Y206750D01*
X65895Y206090D01*
X65785Y205857D01*
X65694Y205730D01*
X65552Y205577D01*
X65470Y205500D01*
X56500D01*
Y195500D01*
Y187178D01*
X55250Y186660D01*
X50076Y191834D01*
Y214509D01*
X50093Y214657D01*
X50192Y214980D01*
X50415Y215470D01*
X50775Y216095D01*
X51275Y216834D01*
X51893Y217645D01*
X54671Y220744D01*
X55842Y221917D01*
X55842Y221917D01*
X55842Y221917D01*
X55843Y221918D01*
X55953Y222082D01*
X57002Y223132D01*
X58582Y225868D01*
X59400Y228920D01*
Y232080D01*
X58582Y235132D01*
X57002Y237868D01*
X54768Y240102D01*
X52032Y241682D01*
X48980Y242500D01*
X45820D01*
X42768Y241682D01*
X40032Y240102D01*
X37798Y237868D01*
X36218Y235132D01*
X35400Y232080D01*
Y228920D01*
X36218Y225868D01*
X37798Y223132D01*
X38839Y222091D01*
X38940Y221935D01*
X41193Y219625D01*
X42897Y217658D01*
X43525Y216834D01*
X44025Y216095D01*
X44386Y215470D01*
X44608Y214980D01*
X44707Y214657D01*
X44724Y214509D01*
Y190725D01*
X44724Y190725D01*
X44927Y189701D01*
X45507Y188832D01*
X54732Y179608D01*
X54732Y179608D01*
X55601Y179027D01*
X56500Y178848D01*
Y176500D01*
X72500D01*
Y182706D01*
X72551Y182766D01*
X75893Y186107D01*
X75893Y186108D01*
X76473Y186976D01*
X76676Y188000D01*
Y194448D01*
X78250Y195100D01*
X78968Y194822D01*
X79500Y194481D01*
Y192000D01*
X87500D01*
Y190000D01*
X79500D01*
Y186000D01*
Y176500D01*
X89616D01*
X89875Y176449D01*
X93145D01*
X93190Y176381D01*
X93261Y176253D01*
X93370Y176014D01*
X93467Y175878D01*
X93761Y175168D01*
X95168Y173761D01*
X97005Y173000D01*
X96840Y171819D01*
X95000D01*
X93634Y171547D01*
X92477Y170773D01*
X91703Y169616D01*
X91431Y168250D01*
X91703Y166884D01*
X92461Y165750D01*
X91703Y164616D01*
X91431Y163250D01*
X91703Y161884D01*
X92461Y160750D01*
X91703Y159616D01*
X91431Y158250D01*
X91703Y156884D01*
X92461Y155750D01*
X91703Y154616D01*
X91431Y153250D01*
X91703Y151884D01*
X92461Y150750D01*
X91703Y149616D01*
X91540Y148795D01*
X91436Y148700D01*
X90243Y148303D01*
X86231Y152316D01*
X85242Y153441D01*
X84862Y153943D01*
X84583Y154367D01*
X84511Y154500D01*
X82347D01*
X82389Y154272D01*
X82559Y153826D01*
X82828Y153323D01*
X83196Y152765D01*
X83662Y152150D01*
X84890Y150753D01*
X85652Y149970D01*
X83219Y148159D01*
X82571Y148787D01*
X81423Y149765D01*
X80923Y150116D01*
X80474Y150374D01*
X80075Y150540D01*
X79725Y150614D01*
X79426Y150595D01*
X79177Y150484D01*
X78977Y150281D01*
X81929Y154500D01*
X78000D01*
X71500D01*
Y152171D01*
X70757Y151561D01*
X70236D01*
X69519Y152278D01*
X69033Y152801D01*
X68698Y153219D01*
X68500Y153505D01*
Y154479D01*
X68509Y154523D01*
X68500Y154567D01*
Y162750D01*
X55500D01*
Y148500D01*
X55500Y148250D01*
X55500D01*
X55500Y147250D01*
X55500D01*
Y134815D01*
X55491Y134770D01*
X55500Y134727D01*
Y132750D01*
X55500D01*
X55506Y132737D01*
X54780Y131500D01*
X53250D01*
Y114500D01*
X62504D01*
X62747Y114330D01*
X63582Y113622D01*
X66477Y110727D01*
X67634Y109953D01*
X69000Y109681D01*
X71584D01*
X71750Y108500D01*
X71750D01*
Y91500D01*
X73245D01*
X73609Y90875D01*
X73245Y90250D01*
X71500D01*
Y75750D01*
X71500Y75750D01*
Y74750D01*
X71500D01*
X71500Y74500D01*
Y68500D01*
X78000D01*
Y66500D01*
X71500D01*
Y60250D01*
X71500Y60250D01*
Y59250D01*
X71500D01*
X71500Y59000D01*
Y53000D01*
X78000D01*
X82446D01*
X78227Y57220D01*
X78460Y57050D01*
X78736Y56965D01*
X79054D01*
X79415Y57050D01*
X79818Y57220D01*
X80263Y57474D01*
X80751Y57814D01*
X81282Y58238D01*
X82470Y59341D01*
X84591Y57220D01*
X83997Y56604D01*
X83063Y55501D01*
X82724Y55013D01*
X82470Y54568D01*
X82300Y54165D01*
X82215Y53804D01*
Y53486D01*
X82300Y53210D01*
X82453Y53000D01*
X84504D01*
X84500Y53021D01*
Y53995D01*
X84682Y54257D01*
X85387Y55090D01*
X89408Y59111D01*
X90501Y59064D01*
X91431Y58250D01*
X91703Y56884D01*
X92461Y55750D01*
X91703Y54616D01*
X91431Y53250D01*
X91703Y51884D01*
X92461Y50750D01*
X91703Y49616D01*
X91431Y48250D01*
X91703Y46884D01*
X92477Y45727D01*
X93634Y44953D01*
X95000Y44681D01*
X106500D01*
X107866Y44953D01*
X109023Y45727D01*
X109797Y46884D01*
X110015Y47980D01*
X123892Y61858D01*
X124473Y62726D01*
X124677Y63750D01*
X124676Y63750D01*
Y83891D01*
X126074Y85288D01*
X127324Y84771D01*
Y52109D01*
X116108Y40893D01*
X115527Y40024D01*
X115336Y39063D01*
X114703Y38116D01*
X114431Y36750D01*
Y25250D01*
X114703Y23884D01*
X115477Y22727D01*
X115816Y22500D01*
X115437Y21250D01*
X111000D01*
Y19672D01*
X109994Y19000D01*
X108005D01*
X106168Y18239D01*
X104761Y16832D01*
X104000Y14995D01*
Y13005D01*
X104761Y11168D01*
X106168Y9761D01*
X108005Y9000D01*
X109994D01*
X111000Y8328D01*
Y6750D01*
X124000D01*
Y16203D01*
X125500Y17703D01*
X127000Y16203D01*
Y15000D01*
X133500D01*
Y14000D01*
D01*
Y15000D01*
X140000D01*
Y21250D01*
X140000Y21250D01*
X140000D01*
X140998Y21987D01*
X141341Y22149D01*
X141634Y21953D01*
X143000Y21681D01*
X144366Y21953D01*
X145500Y22711D01*
X146634Y21953D01*
X148000Y21681D01*
X149074Y21895D01*
X149457Y21889D01*
X150462Y21182D01*
X150527Y20851D01*
X151108Y19983D01*
X158107Y12983D01*
X158108Y12982D01*
X158976Y12402D01*
X160000Y12199D01*
X160000Y12199D01*
X240928D01*
X241745Y11652D01*
X242769Y11449D01*
X242770Y11449D01*
X286231D01*
X286231Y11449D01*
X287255Y11652D01*
X288123Y12232D01*
X289089Y13199D01*
X294875D01*
X294875Y13199D01*
X295899Y13402D01*
X296768Y13982D01*
X326109Y43324D01*
X339000D01*
X339000Y43324D01*
X340024Y43527D01*
X340892Y44107D01*
X354555Y57770D01*
X354569Y57777D01*
X354645Y57809D01*
X354761Y57846D01*
X354920Y57883D01*
X355093Y57912D01*
X355662Y57958D01*
X355991Y57961D01*
X356177Y58000D01*
X356995D01*
X358832Y58761D01*
X360239Y60168D01*
X361000Y62005D01*
Y63995D01*
X360239Y65832D01*
X358832Y67239D01*
X356995Y68000D01*
X355005D01*
X353168Y67239D01*
X351761Y65832D01*
X351000Y63995D01*
Y63199D01*
X350962Y63036D01*
X350939Y62336D01*
X350916Y62120D01*
X350883Y61919D01*
X350846Y61761D01*
X350809Y61645D01*
X350777Y61569D01*
X350770Y61555D01*
X337891Y48676D01*
X325000D01*
X325000Y48677D01*
X323976Y48473D01*
X323107Y47892D01*
X323107Y47892D01*
X293766Y18551D01*
X287981D01*
X286957Y18348D01*
X286088Y17768D01*
X286088Y17767D01*
X285122Y16801D01*
X274626D01*
X273932Y17841D01*
X274000Y18005D01*
Y19994D01*
X273239Y21832D01*
X271832Y23239D01*
X270319Y23866D01*
Y26250D01*
X270250Y26595D01*
Y36500D01*
X257250D01*
Y22000D01*
X263194D01*
X263453Y20696D01*
X264000Y19878D01*
Y18005D01*
X264068Y17841D01*
X263374Y16801D01*
X243861D01*
X243043Y17348D01*
X242019Y17551D01*
X242019Y17551D01*
X161109D01*
X158195Y20465D01*
X158623Y21805D01*
X159366Y21953D01*
X160500Y22711D01*
X161634Y21953D01*
X163000Y21681D01*
X164366Y21953D01*
X165500Y22711D01*
X166634Y21953D01*
X168000Y21681D01*
X169366Y21953D01*
X170500Y22711D01*
X171634Y21953D01*
X173000Y21681D01*
X174366Y21953D01*
X175500Y22711D01*
X176634Y21953D01*
X178000Y21681D01*
X179366Y21953D01*
X180500Y22711D01*
X181634Y21953D01*
X183000Y21681D01*
X184366Y21953D01*
X185500Y22711D01*
X186634Y21953D01*
X188000Y21681D01*
X189366Y21953D01*
X190500Y22711D01*
X191634Y21953D01*
X193000Y21681D01*
X194366Y21953D01*
X195500Y22711D01*
X196634Y21953D01*
X198000Y21681D01*
X199366Y21953D01*
X200500Y22711D01*
X201634Y21953D01*
X203000Y21681D01*
X204366Y21953D01*
X205500Y22711D01*
X206634Y21953D01*
X208000Y21681D01*
X209366Y21953D01*
X210500Y22711D01*
X211634Y21953D01*
X213000Y21681D01*
X214366Y21953D01*
X215500Y22711D01*
X216634Y21953D01*
X218000Y21681D01*
X219366Y21953D01*
X220500Y22711D01*
X221634Y21953D01*
X223000Y21681D01*
X224366Y21953D01*
X225500Y22711D01*
X226634Y21953D01*
X228000Y21681D01*
X229366Y21953D01*
X230500Y22711D01*
X231634Y21953D01*
X233000Y21681D01*
X234366Y21953D01*
X235500Y22711D01*
X236634Y21953D01*
X237000Y21880D01*
Y31000D01*
Y40120D01*
X236634Y40047D01*
X235500Y39289D01*
X234366Y40047D01*
X233000Y40319D01*
X231926Y40105D01*
X230676Y40796D01*
Y43280D01*
X230681Y43295D01*
X230712Y43371D01*
X230769Y43480D01*
X230854Y43618D01*
X230956Y43761D01*
X231326Y44195D01*
X231557Y44431D01*
X231660Y44589D01*
X232239Y45168D01*
X233000Y47005D01*
Y48995D01*
X232239Y50832D01*
X230832Y52239D01*
X229155Y52934D01*
X228995Y53000D01*
X228000Y54214D01*
Y54995D01*
X227239Y56832D01*
X225832Y58239D01*
X223995Y59000D01*
X222005D01*
X220168Y58239D01*
X218761Y56832D01*
X218000Y54995D01*
Y53005D01*
X218761Y51168D01*
X219324Y50605D01*
X219412Y50463D01*
X219892Y49952D01*
X220028Y49783D01*
X220146Y49618D01*
X220231Y49480D01*
X220288Y49371D01*
X220319Y49295D01*
X220324Y49280D01*
Y40796D01*
X219074Y40105D01*
X218000Y40319D01*
X217261Y40172D01*
X216011Y41020D01*
Y65180D01*
X216023Y65198D01*
X216073Y65261D01*
X216156Y65347D01*
X216278Y65453D01*
X216440Y65575D01*
X216537Y65639D01*
X216832Y65761D01*
X218239Y67168D01*
X219000Y69005D01*
Y70995D01*
X218239Y72832D01*
X216832Y74239D01*
X214995Y75000D01*
X213839D01*
X213239Y76168D01*
X214000Y78005D01*
Y79995D01*
X213239Y81832D01*
X211832Y83239D01*
X209995Y84000D01*
X208005D01*
X206168Y83239D01*
X204761Y81832D01*
X204000Y79995D01*
Y78005D01*
X204761Y76168D01*
X204927Y76002D01*
X205156Y75625D01*
X205293Y75378D01*
X205533Y74878D01*
X205596Y74720D01*
X205641Y74584D01*
X205658Y74516D01*
Y40686D01*
X204408Y40018D01*
X204366Y40047D01*
X203000Y40319D01*
X201926Y40105D01*
X200676Y40796D01*
Y86891D01*
X203555Y89770D01*
X203569Y89777D01*
X203645Y89809D01*
X203761Y89846D01*
X203920Y89883D01*
X204093Y89912D01*
X204662Y89958D01*
X204991Y89961D01*
X205177Y90000D01*
X205995D01*
X207832Y90761D01*
X209239Y92168D01*
X210000Y94005D01*
Y95995D01*
X209239Y97832D01*
X207832Y99239D01*
X205995Y100000D01*
X205155D01*
X204005Y100005D01*
X204001Y101000D01*
X204005Y101995D01*
X205155Y102000D01*
X205995D01*
X207832Y102761D01*
X209239Y104168D01*
X210000Y106005D01*
Y107995D01*
X209239Y109832D01*
X207832Y111239D01*
X205995Y112000D01*
X205155D01*
X204005Y112005D01*
X204001Y113000D01*
X204005Y113995D01*
X205155Y114000D01*
X205995D01*
X207832Y114761D01*
X209239Y116168D01*
X210000Y118005D01*
Y118801D01*
X210038Y118964D01*
X210061Y119664D01*
X210084Y119880D01*
X210117Y120080D01*
X210154Y120239D01*
X210191Y120356D01*
X210223Y120431D01*
X210230Y120445D01*
X214893Y125107D01*
X214893Y125107D01*
X215473Y125976D01*
X215676Y127000D01*
X215676Y127000D01*
Y165000D01*
X215676Y165000D01*
X215473Y166024D01*
X214893Y166893D01*
X214893Y166893D01*
X206893Y174893D01*
X206392Y175227D01*
X206880Y176404D01*
X208000Y176181D01*
X209366Y176453D01*
X210500Y177211D01*
X211634Y176453D01*
X213000Y176181D01*
X214366Y176453D01*
X215500Y177211D01*
X216634Y176453D01*
X218000Y176181D01*
X219366Y176453D01*
X220500Y177211D01*
X221634Y176453D01*
X223000Y176181D01*
X224366Y176453D01*
X225500Y177211D01*
X226634Y176453D01*
X228000Y176181D01*
X229366Y176453D01*
X230500Y177211D01*
X231634Y176453D01*
X233000Y176181D01*
X234366Y176453D01*
X235500Y177211D01*
X236634Y176453D01*
X238000Y176181D01*
X239366Y176453D01*
X240523Y177227D01*
X241297Y178384D01*
X241569Y179750D01*
Y185727D01*
X242819Y186492D01*
X244005Y186000D01*
X245994D01*
X247000Y185328D01*
Y185005D01*
X246299Y183707D01*
X245168Y183239D01*
X243761Y181832D01*
X243000Y179995D01*
Y179199D01*
X242962Y179036D01*
X242939Y178335D01*
X242917Y178120D01*
X242883Y177920D01*
X242846Y177761D01*
X242809Y177645D01*
X242777Y177569D01*
X242770Y177555D01*
X235107Y169893D01*
X234527Y169024D01*
X234324Y168000D01*
X234324Y168000D01*
Y159000D01*
X234324Y159000D01*
X234527Y157976D01*
X235107Y157107D01*
X240857Y151358D01*
X240858Y151357D01*
X241726Y150777D01*
X242750Y150574D01*
X245454D01*
X246145Y149324D01*
X245931Y148250D01*
X246203Y146884D01*
X246961Y145750D01*
X246203Y144616D01*
X245931Y143250D01*
X246203Y141884D01*
X246961Y140750D01*
X246203Y139616D01*
X245931Y138250D01*
X246203Y136884D01*
X246961Y135750D01*
X246203Y134616D01*
X245931Y133250D01*
X246203Y131884D01*
X246961Y130750D01*
X246203Y129616D01*
X245931Y128250D01*
X246203Y126884D01*
X246961Y125750D01*
X246203Y124616D01*
X245931Y123250D01*
X246203Y121884D01*
X246961Y120750D01*
X246203Y119616D01*
X245931Y118250D01*
X246203Y116884D01*
X246961Y115750D01*
X246203Y114616D01*
X245931Y113250D01*
X246203Y111884D01*
X246961Y110750D01*
X246203Y109616D01*
X245931Y108250D01*
X246203Y106884D01*
X246961Y105750D01*
X246203Y104616D01*
X245931Y103250D01*
X246203Y101884D01*
X246961Y100750D01*
X246203Y99616D01*
X245931Y98250D01*
X246203Y96884D01*
X246961Y95750D01*
X246203Y94616D01*
X245931Y93250D01*
X246203Y91884D01*
X246961Y90750D01*
X246203Y89616D01*
X245931Y88250D01*
X246203Y86884D01*
X246961Y85750D01*
X246203Y84616D01*
X245931Y83250D01*
X246203Y81884D01*
X246961Y80750D01*
X246203Y79616D01*
X245931Y78250D01*
X246203Y76884D01*
X246961Y75750D01*
X246203Y74616D01*
X245931Y73250D01*
X246203Y71884D01*
X246961Y70750D01*
X246203Y69616D01*
X245931Y68250D01*
X246203Y66884D01*
X246961Y65750D01*
X246203Y64616D01*
X245931Y63250D01*
X246203Y61884D01*
X246961Y60750D01*
X246203Y59616D01*
X245931Y58250D01*
X246203Y56884D01*
X246961Y55750D01*
X246203Y54616D01*
X245931Y53250D01*
X246203Y51884D01*
X246961Y50750D01*
X246203Y49616D01*
X245931Y48250D01*
X246203Y46884D01*
X246977Y45727D01*
X248134Y44953D01*
X249500Y44681D01*
X261000D01*
X262366Y44953D01*
X263523Y45727D01*
X264297Y46884D01*
X264569Y48250D01*
X264297Y49616D01*
X263539Y50750D01*
X264297Y51884D01*
X264569Y53250D01*
X264355Y54324D01*
X265046Y55574D01*
X273088D01*
X274100Y55000D01*
X274100Y54324D01*
Y35000D01*
X299900D01*
Y54324D01*
X299900Y55000D01*
X300912Y55574D01*
X334555D01*
X334555Y55574D01*
X335579Y55777D01*
X336447Y56357D01*
X355233Y75142D01*
X356458Y74899D01*
X356761Y74168D01*
X358168Y72761D01*
X360005Y72000D01*
X361995D01*
X363832Y72761D01*
X364850Y73779D01*
X366100Y73261D01*
Y72000D01*
X369824D01*
Y70750D01*
X366500D01*
Y61044D01*
X366449Y60984D01*
X351107Y45643D01*
X350527Y44774D01*
X350324Y43750D01*
X350324Y43750D01*
Y37859D01*
X335812Y23347D01*
X335714Y23256D01*
X335702Y23259D01*
X335658Y23250D01*
X332176D01*
Y27593D01*
X332176Y27593D01*
X331973Y28617D01*
X331698Y29028D01*
X332000Y29755D01*
Y31745D01*
X331239Y33582D01*
X329832Y34989D01*
X327995Y35750D01*
X326005D01*
X324168Y34989D01*
X322761Y33582D01*
X322000Y31745D01*
Y29755D01*
X322761Y27918D01*
X324168Y26511D01*
X326005Y25750D01*
X326824D01*
Y23250D01*
X326500D01*
Y21287D01*
X326492Y21247D01*
X326500Y21201D01*
Y8750D01*
X338250D01*
X339500Y8750D01*
Y8750D01*
X339500D01*
Y8750D01*
X352500D01*
Y21728D01*
X353750Y22563D01*
X354505Y22250D01*
X354761D01*
X355491Y21247D01*
X355500Y21201D01*
Y8750D01*
X368500D01*
Y18465D01*
X370200Y20165D01*
X370291Y20250D01*
X378250D01*
X378500Y20250D01*
Y20250D01*
X379500D01*
Y20250D01*
X384500D01*
Y27000D01*
Y33750D01*
X383022D01*
X383895Y35000D01*
X391900D01*
Y55000D01*
X369668D01*
X369190Y56155D01*
X370200Y57165D01*
X370291Y57250D01*
X378250D01*
X378500Y57250D01*
X379500D01*
X379750Y57250D01*
X384500D01*
Y64000D01*
Y70750D01*
X379750D01*
X379500Y70750D01*
X378500D01*
X378250Y70750D01*
X375176D01*
Y72000D01*
X391900D01*
Y92000D01*
X372867D01*
X372388Y93155D01*
X381557Y102324D01*
X383280D01*
X383295Y102319D01*
X383371Y102288D01*
X383480Y102231D01*
X383618Y102146D01*
X383761Y102044D01*
X384195Y101674D01*
X384431Y101443D01*
X384590Y101340D01*
X385168Y100761D01*
X387005Y100000D01*
X388995D01*
X390832Y100761D01*
X392239Y102168D01*
X393000Y104005D01*
Y104786D01*
X393995Y106000D01*
X394155Y106066D01*
X395832Y106761D01*
X396201Y107130D01*
X397451Y106612D01*
Y2549D01*
X2549D01*
Y117908D01*
X3799Y118094D01*
X4416Y116060D01*
X6575Y112021D01*
X9480Y108480D01*
X13020Y105575D01*
X17060Y103416D01*
X21442Y102086D01*
X26000Y101637D01*
X30558Y102086D01*
X34940Y103416D01*
X38979Y105575D01*
X42520Y108480D01*
X45425Y112021D01*
X47584Y116060D01*
X48914Y120442D01*
X49363Y125000D01*
X48914Y129558D01*
X47584Y133940D01*
X45425Y137979D01*
X42520Y141520D01*
X38979Y144425D01*
X34940Y146584D01*
X30558Y147914D01*
X26000Y148363D01*
X21442Y147914D01*
X17060Y146584D01*
X13020Y144425D01*
X9480Y141520D01*
X6575Y137979D01*
X4416Y133940D01*
X3799Y131906D01*
X2549Y132092D01*
Y247451D01*
X397451D01*
Y240156D01*
D02*
G37*
G36*
X372000Y225000D02*
X362000D01*
Y227349D01*
X361781Y227317D01*
Y225030D01*
X361730Y225500D01*
X361581Y225919D01*
X361330Y226290D01*
X360980Y226611D01*
X360531Y226883D01*
X360430Y226923D01*
X360020Y226701D01*
X359670Y226413D01*
X359420Y226080D01*
X359270Y225702D01*
X359220Y225281D01*
Y227296D01*
X358581Y227401D01*
X357730Y227475D01*
X356781Y227500D01*
Y232500D01*
X357730Y232525D01*
X358581Y232600D01*
X359220Y232707D01*
Y234220D01*
X359270Y233893D01*
X359420Y233601D01*
X359670Y233343D01*
X360020Y233119D01*
X360265Y233016D01*
X360531Y233125D01*
X360980Y233400D01*
X361330Y233725D01*
X361581Y234100D01*
X361664Y234336D01*
X358000Y238000D01*
Y244000D01*
X372000D01*
Y225000D01*
D02*
G37*
G36*
X395000Y223000D02*
X389000D01*
X387000Y225000D01*
X386000D01*
Y235000D01*
X387000Y236000D01*
Y238000D01*
X395000D01*
Y223000D01*
D02*
G37*
G36*
X96770Y220603D02*
X95489Y220763D01*
X93193Y220893D01*
X92177Y220863D01*
X91250Y220770D01*
X90411Y220614D01*
X89661Y220395D01*
X89000Y220112D01*
X88427Y219767D01*
X87942Y219358D01*
X87058Y220242D01*
X87467Y220727D01*
X87812Y221300D01*
X88095Y221961D01*
X88314Y222711D01*
X88470Y223550D01*
X88563Y224477D01*
X88593Y225493D01*
X88559Y226597D01*
X88303Y229070D01*
X96770Y220603D01*
D02*
G37*
G36*
X123500Y220501D02*
X121786Y220499D01*
X117494Y220265D01*
X116347Y220110D01*
X115343Y219916D01*
X114480Y219684D01*
X113758Y219414D01*
X113179Y219105D01*
X112742Y218758D01*
X111858Y219642D01*
X112205Y220079D01*
X112514Y220658D01*
X112784Y221380D01*
X113016Y222243D01*
X113210Y223247D01*
X113365Y224394D01*
X113559Y227113D01*
X113601Y230400D01*
X123500Y220501D01*
D02*
G37*
G36*
X53189Y222145D02*
X50320Y218945D01*
X49619Y218024D01*
X49045Y217177D01*
X48599Y216403D01*
X48280Y215702D01*
X48089Y215074D01*
X48025Y214520D01*
X46775D01*
X46711Y215074D01*
X46520Y215702D01*
X46201Y216403D01*
X45755Y217177D01*
X45181Y218024D01*
X44480Y218945D01*
X42695Y221005D01*
X40400Y223359D01*
X54400D01*
X53189Y222145D01*
D02*
G37*
G36*
X77436Y221640D02*
X76125Y220921D01*
X73916Y219504D01*
X73019Y218805D01*
X72259Y218114D01*
X71638Y217429D01*
X71155Y216752D01*
X70810Y216081D01*
X70603Y215417D01*
X70566Y215063D01*
X70578Y214982D01*
X70634Y214746D01*
X70712Y214486D01*
X70936Y213892D01*
X71248Y213198D01*
X71650Y212406D01*
X67648Y213678D01*
X67959Y213848D01*
X68237Y214027D01*
X68482Y214215D01*
X68695Y214412D01*
X68875Y214618D01*
X69022Y214834D01*
X69137Y215058D01*
X69218Y215292D01*
X69238Y215387D01*
X69231Y215422D01*
X69074Y215876D01*
X68811Y216502D01*
X67394Y219410D01*
X64034Y225687D01*
X77436Y221640D01*
D02*
G37*
G36*
X70820Y208571D02*
X70348Y208017D01*
X70156Y207749D01*
X69994Y207487D01*
X69861Y207231D01*
X69758Y206980D01*
X69684Y206736D01*
X69640Y206498D01*
X69625Y206266D01*
X68375D01*
X68360Y206498D01*
X68316Y206736D01*
X68242Y206980D01*
X68139Y207231D01*
X68006Y207487D01*
X67844Y207749D01*
X67652Y208017D01*
X67431Y208291D01*
X66900Y208858D01*
X71100D01*
X70820Y208571D01*
D02*
G37*
G36*
X88131Y204476D02*
X88150Y204258D01*
X88181Y204067D01*
X88225Y203900D01*
X88281Y203759D01*
X88350Y203644D01*
X88431Y203554D01*
X88525Y203490D01*
X88631Y203452D01*
X88750Y203439D01*
X86250D01*
X86369Y203452D01*
X86475Y203490D01*
X86569Y203554D01*
X86650Y203644D01*
X86719Y203759D01*
X86775Y203900D01*
X86819Y204067D01*
X86850Y204258D01*
X86869Y204476D01*
X86875Y204720D01*
X88125D01*
X88131Y204476D01*
D02*
G37*
G36*
X69631D02*
X69650Y204258D01*
X69681Y204067D01*
X69725Y203900D01*
X69781Y203759D01*
X69850Y203644D01*
X69931Y203554D01*
X70025Y203490D01*
X70131Y203452D01*
X70250Y203439D01*
X67750D01*
X67869Y203452D01*
X67975Y203490D01*
X68069Y203554D01*
X68150Y203644D01*
X68219Y203759D01*
X68275Y203900D01*
X68319Y204067D01*
X68350Y204258D01*
X68369Y204476D01*
X68375Y204720D01*
X69625D01*
X69631Y204476D01*
D02*
G37*
G36*
X189820Y202571D02*
X189348Y202017D01*
X189156Y201749D01*
X188994Y201487D01*
X188861Y201231D01*
X188758Y200980D01*
X188684Y200736D01*
X188640Y200498D01*
X188625Y200266D01*
X187375D01*
X187360Y200498D01*
X187316Y200736D01*
X187242Y200980D01*
X187139Y201231D01*
X187006Y201487D01*
X186844Y201749D01*
X186652Y202017D01*
X186431Y202291D01*
X185900Y202858D01*
X190100D01*
X189820Y202571D01*
D02*
G37*
G36*
X93452Y201631D02*
X93490Y201525D01*
X93554Y201431D01*
X93644Y201350D01*
X93759Y201281D01*
X93900Y201225D01*
X94066Y201181D01*
X94258Y201150D01*
X94476Y201131D01*
X94719Y201125D01*
Y199875D01*
X94476Y199869D01*
X94258Y199850D01*
X94066Y199819D01*
X93900Y199775D01*
X93759Y199719D01*
X93644Y199650D01*
X93554Y199569D01*
X93490Y199475D01*
X93452Y199369D01*
X93439Y199250D01*
Y201750D01*
X93452Y201631D01*
D02*
G37*
G36*
X130414Y201354D02*
X128115Y198743D01*
X125671Y200543D01*
X125897Y200778D01*
X126250Y201215D01*
X126379Y201416D01*
X126475Y201606D01*
X126539Y201785D01*
X126571Y201952D01*
X126570Y202107D01*
X126538Y202251D01*
X126473Y202384D01*
X130414Y201354D01*
D02*
G37*
G36*
X126841Y197031D02*
X126776Y197049D01*
X126669Y197016D01*
X126519Y196932D01*
X126326Y196797D01*
X126091Y196610D01*
X125132Y195743D01*
X124281Y194909D01*
X122159Y197031D01*
X122602Y197477D01*
X124182Y199269D01*
X124266Y199419D01*
X124299Y199526D01*
X124281Y199591D01*
X126841Y197031D01*
D02*
G37*
G36*
X188631Y193500D02*
X188679Y192910D01*
X188721Y192671D01*
X188775Y192468D01*
X188841Y192302D01*
X188919Y192173D01*
X189009Y192081D01*
X189111Y192026D01*
X189225Y192007D01*
X186775D01*
X186889Y192026D01*
X186991Y192081D01*
X187081Y192173D01*
X187159Y192302D01*
X187225Y192468D01*
X187279Y192671D01*
X187321Y192910D01*
X187351Y193186D01*
X187375Y193850D01*
X188625D01*
X188631Y193500D01*
D02*
G37*
G36*
X185180Y196272D02*
X184896Y195994D01*
X184419Y195452D01*
X184225Y195189D01*
X184061Y194930D01*
X183926Y194677D01*
X183822Y194428D01*
X183747Y194184D01*
X183702Y193945D01*
X183689Y193732D01*
X183694Y193466D01*
X183741Y192885D01*
X183783Y192644D01*
X183837Y192438D01*
X183903Y192265D01*
X183981Y192127D01*
X184071Y192022D01*
X184173Y191951D01*
X184287Y191914D01*
X181941Y192309D01*
X182035Y192385D01*
X182119Y192479D01*
X182194Y192591D01*
X182259Y192721D01*
X182313Y192870D01*
X182358Y193036D01*
X182393Y193222D01*
X182418Y193425D01*
X182432Y193647D01*
X182435Y193775D01*
X182423Y193968D01*
X182379Y194205D01*
X182306Y194450D01*
X182204Y194701D01*
X182073Y194960D01*
X181913Y195226D01*
X181724Y195499D01*
X181505Y195779D01*
X180981Y196360D01*
X185180Y196272D01*
D02*
G37*
G36*
X242993Y188770D02*
X242683Y189039D01*
X242090Y189493D01*
X241808Y189677D01*
X241535Y189833D01*
X241272Y189961D01*
X241018Y190060D01*
X240773Y190131D01*
X240538Y190173D01*
X240458Y190178D01*
X240266Y190163D01*
X240067Y190131D01*
X239896Y190088D01*
X239754Y190031D01*
X239640Y189963D01*
X239555Y189881D01*
X239497Y189788D01*
X239468Y189681D01*
X239468Y189562D01*
X239199Y192046D01*
X239226Y191930D01*
X239281Y191827D01*
X239363Y191735D01*
X239473Y191656D01*
X239610Y191590D01*
X239775Y191535D01*
X239968Y191492D01*
X240188Y191462D01*
X240385Y191447D01*
X240469Y191453D01*
X240710Y191499D01*
X240953Y191575D01*
X241199Y191681D01*
X241447Y191819D01*
X241698Y191986D01*
X241952Y192185D01*
X242209Y192413D01*
X242468Y192672D01*
X242731Y192962D01*
X242993Y188770D01*
D02*
G37*
G36*
X71353Y184470D02*
X71103Y184210D01*
X70708Y183747D01*
X70563Y183543D01*
X70454Y183357D01*
X70381Y183189D01*
X70342Y183040D01*
X70339Y182909D01*
X70371Y182796D01*
X70439Y182702D01*
X68702Y184439D01*
X68796Y184371D01*
X68909Y184339D01*
X69040Y184342D01*
X69189Y184380D01*
X69357Y184454D01*
X69543Y184563D01*
X69747Y184708D01*
X69970Y184888D01*
X70469Y185353D01*
X71353Y184470D01*
D02*
G37*
G36*
X58531Y180250D02*
X58518Y180369D01*
X58481Y180475D01*
X58418Y180569D01*
X58330Y180650D01*
X58218Y180719D01*
X58081Y180775D01*
X57918Y180819D01*
X57730Y180850D01*
X57518Y180869D01*
X57281Y180875D01*
Y182125D01*
X57518Y182131D01*
X57730Y182150D01*
X57918Y182181D01*
X58081Y182225D01*
X58218Y182281D01*
X58330Y182350D01*
X58418Y182431D01*
X58481Y182525D01*
X58518Y182631D01*
X58531Y182750D01*
Y180250D01*
D02*
G37*
G36*
X95226Y176857D02*
X95085Y177169D01*
X94930Y177448D01*
X94763Y177695D01*
X94584Y177908D01*
X94392Y178089D01*
X94187Y178237D01*
X93969Y178352D01*
X93740Y178434D01*
X93497Y178484D01*
X93242Y178500D01*
X93461Y179026D01*
X93439Y180375D01*
X93454Y180256D01*
X93494Y180150D01*
X93559Y180056D01*
X93649Y179975D01*
X93764Y179906D01*
X93905Y179850D01*
X94071Y179806D01*
X94143Y179795D01*
X94349Y179840D01*
X94895Y180000D01*
X95564Y180240D01*
X96801Y180750D01*
X95226Y176857D01*
D02*
G37*
G36*
X101790Y180906D02*
X101636Y180731D01*
X101499Y180531D01*
X101378Y180306D01*
X101274Y180057D01*
X101187Y179782D01*
X101116Y179481D01*
X101062Y179156D01*
X101025Y178806D01*
X101000Y178030D01*
X98030Y181000D01*
X98431Y181004D01*
X99156Y181062D01*
X99481Y181116D01*
X99782Y181187D01*
X100057Y181274D01*
X100307Y181378D01*
X100531Y181499D01*
X100731Y181636D01*
X100906Y181789D01*
X101790Y180906D01*
D02*
G37*
G36*
X174396Y179929D02*
X174359Y179821D01*
X174355Y179697D01*
X174386Y179556D01*
X174450Y179398D01*
X174548Y179223D01*
X174680Y179031D01*
X174846Y178822D01*
X175046Y178596D01*
X175280Y178354D01*
X174396Y177470D01*
X174147Y177710D01*
X173700Y178090D01*
X173502Y178228D01*
X173321Y178333D01*
X173157Y178404D01*
X173010Y178441D01*
X172879Y178444D01*
X172766Y178413D01*
X172670Y178349D01*
X174468Y180019D01*
X174396Y179929D01*
D02*
G37*
G36*
X247970Y176000D02*
X247570Y175996D01*
X246844Y175938D01*
X246519Y175884D01*
X246218Y175813D01*
X245944Y175726D01*
X245693Y175622D01*
X245469Y175501D01*
X245269Y175364D01*
X245094Y175210D01*
X244210Y176094D01*
X244364Y176269D01*
X244501Y176469D01*
X244622Y176693D01*
X244726Y176943D01*
X244813Y177218D01*
X244884Y177519D01*
X244938Y177844D01*
X244975Y178194D01*
X245000Y178970D01*
X247970Y176000D01*
D02*
G37*
G36*
X281559Y163368D02*
X281416Y163428D01*
X281262Y163457D01*
X281099Y163453D01*
X280925Y163419D01*
X280741Y163352D01*
X280546Y163254D01*
X280342Y163125D01*
X280127Y162963D01*
X279902Y162771D01*
X279667Y162546D01*
X277796Y164917D01*
X280296Y167300D01*
X281559Y163368D01*
D02*
G37*
G36*
X279341Y162220D02*
X278747Y161604D01*
X277813Y160501D01*
X277474Y160013D01*
X277220Y159568D01*
X277050Y159165D01*
X276965Y158804D01*
Y158486D01*
X277050Y158210D01*
X277220Y157977D01*
X272977Y162220D01*
X273210Y162050D01*
X273486Y161965D01*
X273804D01*
X274165Y162050D01*
X274568Y162220D01*
X275013Y162474D01*
X275501Y162813D01*
X276032Y163238D01*
X277220Y164341D01*
X279341Y162220D01*
D02*
G37*
G36*
X195537Y159286D02*
X195315Y159588D01*
X195090Y159858D01*
X194863Y160097D01*
X194633Y160303D01*
X194401Y160478D01*
X194166Y160621D01*
X193929Y160732D01*
X193689Y160812D01*
X193447Y160859D01*
X193203Y160875D01*
X193419Y162125D01*
X193631Y162138D01*
X193860Y162177D01*
X194103Y162242D01*
X194362Y162334D01*
X194636Y162451D01*
X194925Y162594D01*
X195551Y162959D01*
X195886Y163180D01*
X196238Y163428D01*
X195537Y159286D01*
D02*
G37*
G36*
X381970Y156000D02*
X381570Y155996D01*
X380844Y155938D01*
X380519Y155884D01*
X380218Y155813D01*
X379943Y155726D01*
X379693Y155622D01*
X379469Y155501D01*
X379269Y155364D01*
X379094Y155211D01*
X378210Y156094D01*
X378364Y156269D01*
X378501Y156469D01*
X378622Y156693D01*
X378726Y156944D01*
X378813Y157219D01*
X378884Y157519D01*
X378938Y157844D01*
X378975Y158194D01*
X379000Y158970D01*
X381970Y156000D01*
D02*
G37*
G36*
X108780Y154646D02*
X108540Y154397D01*
X108160Y153950D01*
X108022Y153752D01*
X107917Y153571D01*
X107846Y153407D01*
X107809Y153260D01*
X107806Y153129D01*
X107837Y153016D01*
X107901Y152920D01*
X106230Y154718D01*
X106321Y154646D01*
X106429Y154609D01*
X106553Y154605D01*
X106694Y154635D01*
X106853Y154700D01*
X107028Y154798D01*
X107219Y154930D01*
X107428Y155096D01*
X107654Y155296D01*
X107896Y155530D01*
X108780Y154646D01*
D02*
G37*
G36*
X202858Y152900D02*
X202571Y153180D01*
X202017Y153652D01*
X201749Y153844D01*
X201487Y154006D01*
X201231Y154139D01*
X200980Y154242D01*
X200736Y154316D01*
X200498Y154360D01*
X200266Y154375D01*
Y155625D01*
X200498Y155640D01*
X200736Y155684D01*
X200980Y155758D01*
X201231Y155861D01*
X201487Y155994D01*
X201749Y156156D01*
X202017Y156348D01*
X202291Y156569D01*
X202858Y157100D01*
Y152900D01*
D02*
G37*
G36*
X248743Y152025D02*
X248724Y152139D01*
X248669Y152241D01*
X248577Y152331D01*
X248448Y152409D01*
X248282Y152475D01*
X248079Y152529D01*
X247840Y152571D01*
X247563Y152601D01*
X246900Y152625D01*
Y153875D01*
X247250Y153881D01*
X247840Y153929D01*
X248079Y153971D01*
X248282Y154025D01*
X248448Y154091D01*
X248577Y154169D01*
X248669Y154259D01*
X248724Y154361D01*
X248743Y154475D01*
Y152025D01*
D02*
G37*
G36*
X385858Y150900D02*
X385571Y151180D01*
X385017Y151652D01*
X384749Y151844D01*
X384487Y152006D01*
X384231Y152139D01*
X383980Y152242D01*
X383736Y152316D01*
X383498Y152360D01*
X383266Y152375D01*
Y153625D01*
X383498Y153640D01*
X383736Y153684D01*
X383980Y153758D01*
X384231Y153861D01*
X384487Y153994D01*
X384749Y154156D01*
X385017Y154348D01*
X385291Y154569D01*
X385858Y155100D01*
Y150900D01*
D02*
G37*
G36*
X108780Y149646D02*
X108540Y149397D01*
X108160Y148950D01*
X108022Y148752D01*
X107917Y148571D01*
X107846Y148407D01*
X107809Y148260D01*
X107806Y148129D01*
X107837Y148016D01*
X107901Y147920D01*
X106230Y149718D01*
X106321Y149646D01*
X106429Y149609D01*
X106553Y149605D01*
X106694Y149635D01*
X106853Y149700D01*
X107028Y149798D01*
X107219Y149930D01*
X107428Y150096D01*
X107654Y150296D01*
X107896Y150530D01*
X108780Y149646D01*
D02*
G37*
G36*
X64928Y154766D02*
X64936Y154586D01*
X64971Y154398D01*
X65032Y154205D01*
X65121Y154004D01*
X65236Y153798D01*
X65378Y153584D01*
X65445Y153498D01*
X66469Y154523D01*
X66300Y154290D01*
X66215Y154014D01*
Y153696D01*
X66300Y153335D01*
X66469Y152932D01*
X66724Y152487D01*
X67063Y151999D01*
X67488Y151468D01*
X68591Y150281D01*
X66469Y148159D01*
X65854Y148753D01*
X64751Y149686D01*
X64263Y150026D01*
X63818Y150281D01*
X63415Y150450D01*
X63054Y150535D01*
X62736D01*
X62460Y150450D01*
X62227Y150281D01*
X63286Y151340D01*
X63165Y151458D01*
X62523Y152012D01*
X62328Y152154D01*
X62143Y152275D01*
X61967Y152374D01*
X61802Y152451D01*
X61645Y152507D01*
X61499Y152542D01*
X64947Y154940D01*
X64928Y154766D01*
D02*
G37*
G36*
X196858Y146900D02*
X196571Y147180D01*
X196017Y147652D01*
X195749Y147844D01*
X195487Y148006D01*
X195231Y148139D01*
X194980Y148242D01*
X194736Y148316D01*
X194498Y148360D01*
X194266Y148375D01*
Y149625D01*
X194498Y149640D01*
X194736Y149684D01*
X194980Y149758D01*
X195231Y149861D01*
X195487Y149994D01*
X195749Y150156D01*
X196017Y150348D01*
X196291Y150569D01*
X196858Y151100D01*
Y146900D01*
D02*
G37*
G36*
X381970Y144000D02*
X381570Y143996D01*
X380844Y143938D01*
X380519Y143884D01*
X380218Y143813D01*
X379943Y143726D01*
X379693Y143622D01*
X379469Y143501D01*
X379269Y143364D01*
X379094Y143210D01*
X378210Y144094D01*
X378364Y144269D01*
X378501Y144469D01*
X378622Y144693D01*
X378726Y144943D01*
X378813Y145218D01*
X378884Y145519D01*
X378938Y145844D01*
X378975Y146194D01*
X379000Y146970D01*
X381970Y144000D01*
D02*
G37*
G36*
X202858Y140900D02*
X202571Y141180D01*
X202017Y141652D01*
X201749Y141844D01*
X201487Y142006D01*
X201231Y142139D01*
X200980Y142242D01*
X200736Y142316D01*
X200498Y142360D01*
X200266Y142375D01*
Y143625D01*
X200498Y143640D01*
X200736Y143684D01*
X200980Y143758D01*
X201231Y143861D01*
X201487Y143994D01*
X201749Y144156D01*
X202017Y144348D01*
X202291Y144569D01*
X202858Y145100D01*
Y140900D01*
D02*
G37*
G36*
X74146Y146747D02*
X75249Y145814D01*
X75737Y145474D01*
X76182Y145219D01*
X76585Y145050D01*
X76946Y144965D01*
X77264D01*
X77540Y145050D01*
X77773Y145219D01*
X76714Y144160D01*
X76835Y144042D01*
X77477Y143488D01*
X77672Y143346D01*
X77857Y143225D01*
X78033Y143126D01*
X78198Y143049D01*
X78355Y142993D01*
X78501Y142958D01*
X75053Y140560D01*
X75072Y140734D01*
X75064Y140914D01*
X75029Y141102D01*
X74968Y141295D01*
X74879Y141496D01*
X74764Y141702D01*
X74622Y141916D01*
X74555Y142002D01*
X73531Y140977D01*
X73700Y141210D01*
X73785Y141486D01*
Y141804D01*
X73700Y142165D01*
X73531Y142568D01*
X73276Y143013D01*
X72937Y143501D01*
X72512Y144032D01*
X71409Y145219D01*
X73531Y147341D01*
X74146Y146747D01*
D02*
G37*
G36*
X110145Y136674D02*
X109789Y136918D01*
X108816Y137497D01*
X108524Y137638D01*
X108249Y137754D01*
X108024Y137832D01*
X107946Y137808D01*
X107809Y137741D01*
X107709Y137662D01*
X107645Y137571D01*
X107619Y137467D01*
X107631Y137352D01*
X107485Y137949D01*
X107310Y137960D01*
X107075Y139210D01*
X107175Y139216D01*
X107073Y139634D01*
X107206Y139554D01*
X107349Y139481D01*
X107502Y139418D01*
X107667Y139363D01*
X107757Y139339D01*
X107802Y139353D01*
X108038Y139465D01*
X108270Y139609D01*
X108500Y139784D01*
X108727Y139992D01*
X108950Y140231D01*
X109170Y140502D01*
X109387Y140805D01*
X110145Y136674D01*
D02*
G37*
G36*
X385858Y138900D02*
X385571Y139180D01*
X385017Y139652D01*
X384749Y139844D01*
X384487Y140006D01*
X384231Y140139D01*
X383980Y140242D01*
X383736Y140316D01*
X383498Y140360D01*
X383266Y140375D01*
Y141625D01*
X383498Y141640D01*
X383736Y141684D01*
X383980Y141758D01*
X384231Y141861D01*
X384487Y141994D01*
X384749Y142156D01*
X385017Y142348D01*
X385291Y142569D01*
X385858Y143100D01*
Y138900D01*
D02*
G37*
G36*
X89183Y146468D02*
X89634Y146108D01*
X90102Y145789D01*
X90588Y145514D01*
X91091Y145280D01*
X91612Y145089D01*
X92150Y144941D01*
X92706Y144835D01*
X93280Y144771D01*
X93871Y144750D01*
X94750Y141750D01*
X94180Y141720D01*
X93670Y141630D01*
X93220Y141480D01*
X92830Y141270D01*
X92500Y141000D01*
X92230Y140670D01*
X92020Y140280D01*
X91870Y139830D01*
X91780Y139320D01*
X91750Y138750D01*
X88750Y139629D01*
X88729Y140220D01*
X88665Y140794D01*
X88559Y141350D01*
X88411Y141888D01*
X88220Y142409D01*
X87986Y142912D01*
X87711Y143398D01*
X87392Y143866D01*
X87032Y144317D01*
X86629Y144750D01*
X88750Y146871D01*
X89183Y146468D01*
D02*
G37*
G36*
X262337Y138484D02*
X262306Y138371D01*
X262309Y138240D01*
X262346Y138093D01*
X262417Y137929D01*
X262522Y137748D01*
X262661Y137550D01*
X262833Y137335D01*
X263280Y136854D01*
X262396Y135970D01*
X262154Y136204D01*
X261719Y136570D01*
X261528Y136702D01*
X261353Y136800D01*
X261194Y136865D01*
X261053Y136895D01*
X260929Y136891D01*
X260821Y136854D01*
X260730Y136782D01*
X262402Y138581D01*
X262337Y138484D01*
D02*
G37*
G36*
X79986Y137729D02*
X79884Y137579D01*
X79794Y137408D01*
X79716Y137214D01*
X79650Y137000D01*
X79596Y136763D01*
X79554Y136505D01*
X79524Y136226D01*
X79500Y135602D01*
X76500D01*
X76494Y135925D01*
X76446Y136505D01*
X76404Y136763D01*
X76350Y137000D01*
X76284Y137214D01*
X76206Y137408D01*
X76116Y137579D01*
X76014Y137729D01*
X75900Y137858D01*
X80100D01*
X79986Y137729D01*
D02*
G37*
G36*
X196858Y134900D02*
X196571Y135180D01*
X196017Y135652D01*
X195749Y135844D01*
X195487Y136006D01*
X195231Y136139D01*
X194980Y136242D01*
X194736Y136316D01*
X194498Y136360D01*
X194266Y136375D01*
Y137625D01*
X194498Y137640D01*
X194736Y137684D01*
X194980Y137758D01*
X195231Y137861D01*
X195487Y137994D01*
X195749Y138156D01*
X196017Y138348D01*
X196291Y138569D01*
X196858Y139100D01*
Y134900D01*
D02*
G37*
G36*
X261776Y134361D02*
X261831Y134259D01*
X261923Y134169D01*
X262052Y134091D01*
X262218Y134025D01*
X262421Y133971D01*
X262660Y133929D01*
X262936Y133899D01*
X263600Y133875D01*
Y132625D01*
X263250Y132619D01*
X262660Y132571D01*
X262421Y132529D01*
X262218Y132475D01*
X262052Y132409D01*
X261923Y132331D01*
X261831Y132241D01*
X261776Y132139D01*
X261757Y132025D01*
Y134475D01*
X261776Y134361D01*
D02*
G37*
G36*
X107276D02*
X107331Y134259D01*
X107423Y134169D01*
X107552Y134091D01*
X107718Y134025D01*
X107921Y133971D01*
X108160Y133929D01*
X108436Y133899D01*
X109100Y133875D01*
Y132625D01*
X108750Y132619D01*
X108160Y132571D01*
X107921Y132529D01*
X107718Y132475D01*
X107552Y132409D01*
X107423Y132331D01*
X107331Y132241D01*
X107276Y132139D01*
X107257Y132025D01*
Y134475D01*
X107276Y134361D01*
D02*
G37*
G36*
X116900Y131709D02*
X116447Y131883D01*
X114551Y132478D01*
X114245Y132543D01*
X113706Y132616D01*
X113473Y132625D01*
X113266Y133875D01*
X113523Y133891D01*
X113765Y133941D01*
X113993Y134023D01*
X114206Y134138D01*
X114404Y134285D01*
X114588Y134466D01*
X114757Y134679D01*
X114912Y134925D01*
X115052Y135204D01*
X115177Y135516D01*
X116900Y131709D01*
D02*
G37*
G36*
X381970Y132000D02*
X381570Y131996D01*
X380844Y131938D01*
X380519Y131884D01*
X380218Y131813D01*
X379943Y131726D01*
X379693Y131622D01*
X379469Y131501D01*
X379269Y131364D01*
X379094Y131210D01*
X378210Y132094D01*
X378364Y132269D01*
X378501Y132469D01*
X378622Y132694D01*
X378726Y132943D01*
X378813Y133218D01*
X378884Y133519D01*
X378938Y133844D01*
X378975Y134194D01*
X379000Y134970D01*
X381970Y132000D01*
D02*
G37*
G36*
X80715Y134781D02*
X80460Y134690D01*
X80235Y134538D01*
X80040Y134326D01*
X79875Y134053D01*
X79740Y133720D01*
X79635Y133326D01*
X79560Y132872D01*
X79515Y132356D01*
X79509Y132127D01*
X79515Y131899D01*
X79560Y131390D01*
X79635Y130940D01*
X79740Y130549D01*
X79875Y130220D01*
X80040Y129950D01*
X80235Y129740D01*
X80460Y129590D01*
X80715Y129500D01*
X81000Y129469D01*
X75000D01*
X75285Y129500D01*
X75540Y129590D01*
X75765Y129740D01*
X75960Y129950D01*
X76125Y130220D01*
X76260Y130549D01*
X76365Y130940D01*
X76440Y131390D01*
X76485Y131899D01*
X76491Y132127D01*
X76485Y132356D01*
X76440Y132872D01*
X76365Y133326D01*
X76260Y133720D01*
X76125Y134053D01*
X75960Y134326D01*
X75765Y134538D01*
X75540Y134690D01*
X75285Y134781D01*
X75000Y134811D01*
X81000D01*
X80715Y134781D01*
D02*
G37*
G36*
X63215Y134779D02*
X62960Y134687D01*
X62735Y134535D01*
X62540Y134322D01*
X62375Y134050D01*
X62240Y133716D01*
X62135Y133323D01*
X62060Y132869D01*
X62015Y132355D01*
X62009Y132126D01*
X62015Y131899D01*
X62060Y131390D01*
X62135Y130940D01*
X62240Y130549D01*
X62375Y130220D01*
X62540Y129950D01*
X62735Y129740D01*
X62960Y129590D01*
X63215Y129500D01*
X63500Y129469D01*
X57500D01*
X57785Y129500D01*
X58040Y129590D01*
X58265Y129740D01*
X58460Y129950D01*
X58625Y130220D01*
X58760Y130549D01*
X58865Y130940D01*
X58940Y131390D01*
X58985Y131899D01*
X58991Y132128D01*
X58985Y132351D01*
X58941Y132860D01*
X58868Y133310D01*
X58765Y133701D01*
X58633Y134031D01*
X58471Y134300D01*
X58280Y134510D01*
X58060Y134661D01*
X57810Y134750D01*
X57530Y134781D01*
X63500Y134811D01*
X63215Y134779D01*
D02*
G37*
G36*
X201858Y128900D02*
X201571Y129180D01*
X201017Y129652D01*
X200749Y129844D01*
X200487Y130006D01*
X200231Y130139D01*
X199980Y130242D01*
X199736Y130316D01*
X199498Y130360D01*
X199266Y130375D01*
Y131625D01*
X199498Y131640D01*
X199736Y131684D01*
X199980Y131758D01*
X200231Y131861D01*
X200487Y131994D01*
X200749Y132156D01*
X201017Y132348D01*
X201291Y132569D01*
X201858Y133100D01*
Y128900D01*
D02*
G37*
G36*
X107276Y129361D02*
X107331Y129259D01*
X107423Y129169D01*
X107552Y129091D01*
X107718Y129025D01*
X107921Y128971D01*
X108160Y128929D01*
X108436Y128899D01*
X109100Y128875D01*
Y127625D01*
X108750Y127619D01*
X108160Y127571D01*
X107921Y127529D01*
X107718Y127475D01*
X107552Y127409D01*
X107423Y127331D01*
X107331Y127241D01*
X107276Y127139D01*
X107257Y127025D01*
Y129475D01*
X107276Y129361D01*
D02*
G37*
G36*
X385858Y126900D02*
X385571Y127180D01*
X385017Y127652D01*
X384749Y127844D01*
X384487Y128006D01*
X384231Y128139D01*
X383980Y128242D01*
X383736Y128316D01*
X383498Y128360D01*
X383266Y128375D01*
Y129625D01*
X383498Y129640D01*
X383736Y129684D01*
X383980Y129758D01*
X384231Y129861D01*
X384487Y129994D01*
X384749Y130156D01*
X385017Y130348D01*
X385291Y130569D01*
X385858Y131100D01*
Y126900D01*
D02*
G37*
G36*
X114095Y126003D02*
X114002Y126311D01*
X113890Y126587D01*
X113760Y126830D01*
X113612Y127041D01*
X113445Y127219D01*
X113259Y127365D01*
X113055Y127479D01*
X112832Y127560D01*
X112591Y127609D01*
X112330Y127625D01*
X112602Y128875D01*
X112862Y128882D01*
X113439Y128940D01*
X113756Y128991D01*
X114824Y129231D01*
X115632Y129463D01*
X116065Y129601D01*
X114095Y126003D01*
D02*
G37*
G36*
X196858Y122900D02*
X196571Y123180D01*
X196017Y123652D01*
X195749Y123844D01*
X195487Y124006D01*
X195231Y124139D01*
X194980Y124242D01*
X194736Y124316D01*
X194498Y124360D01*
X194266Y124375D01*
Y125625D01*
X194498Y125640D01*
X194736Y125684D01*
X194980Y125758D01*
X195231Y125861D01*
X195487Y125994D01*
X195749Y126156D01*
X196017Y126348D01*
X196291Y126569D01*
X196858Y127100D01*
Y122900D01*
D02*
G37*
G36*
X261776Y124361D02*
X261831Y124259D01*
X261923Y124169D01*
X262052Y124091D01*
X262218Y124025D01*
X262421Y123971D01*
X262660Y123929D01*
X262936Y123899D01*
X263600Y123875D01*
Y122625D01*
X263250Y122619D01*
X262660Y122571D01*
X262421Y122529D01*
X262218Y122475D01*
X262052Y122409D01*
X261923Y122331D01*
X261831Y122241D01*
X261776Y122139D01*
X261757Y122025D01*
Y124475D01*
X261776Y124361D01*
D02*
G37*
G36*
X111192Y123935D02*
X111820Y123383D01*
X111999Y123251D01*
X112161Y123145D01*
X112308Y123065D01*
X112439Y123011D01*
X112554Y122982D01*
X112654Y122980D01*
X110020Y120346D01*
X110018Y120446D01*
X109990Y120561D01*
X109935Y120692D01*
X109855Y120839D01*
X109749Y121002D01*
X109617Y121180D01*
X109275Y121583D01*
X108829Y122049D01*
X110951Y124171D01*
X111192Y123935D01*
D02*
G37*
G36*
X263281Y119642D02*
X263041Y119393D01*
X262661Y118946D01*
X262522Y118747D01*
X262417Y118566D01*
X262346Y118401D01*
X262309Y118254D01*
X262305Y118124D01*
X262336Y118010D01*
X262400Y117913D01*
X260736Y119718D01*
X260826Y119646D01*
X260933Y119608D01*
X261057Y119604D01*
X261199Y119635D01*
X261357Y119699D01*
X261532Y119797D01*
X261723Y119929D01*
X261932Y120095D01*
X262158Y120295D01*
X262401Y120529D01*
X263281Y119642D01*
D02*
G37*
G36*
X381970Y120000D02*
X381570Y119996D01*
X380844Y119938D01*
X380519Y119884D01*
X380218Y119813D01*
X379943Y119726D01*
X379693Y119622D01*
X379469Y119501D01*
X379269Y119364D01*
X379094Y119211D01*
X378210Y120094D01*
X378364Y120269D01*
X378501Y120469D01*
X378622Y120694D01*
X378726Y120943D01*
X378813Y121219D01*
X378884Y121519D01*
X378938Y121844D01*
X378975Y122194D01*
X379000Y122970D01*
X381970Y120000D01*
D02*
G37*
G36*
X208790Y121906D02*
X208636Y121731D01*
X208499Y121531D01*
X208378Y121306D01*
X208274Y121057D01*
X208187Y120781D01*
X208116Y120481D01*
X208062Y120156D01*
X208025Y119806D01*
X208000Y119030D01*
X205030Y122000D01*
X205431Y122004D01*
X206156Y122062D01*
X206481Y122116D01*
X206782Y122187D01*
X207057Y122274D01*
X207306Y122378D01*
X207531Y122499D01*
X207731Y122636D01*
X207906Y122789D01*
X208790Y121906D01*
D02*
G37*
G36*
X385858Y114900D02*
X385571Y115180D01*
X385017Y115652D01*
X384749Y115844D01*
X384487Y116006D01*
X384231Y116139D01*
X383980Y116242D01*
X383736Y116316D01*
X383498Y116360D01*
X383266Y116375D01*
Y117625D01*
X383498Y117640D01*
X383736Y117684D01*
X383980Y117758D01*
X384231Y117861D01*
X384487Y117994D01*
X384749Y118156D01*
X385017Y118348D01*
X385291Y118569D01*
X385858Y119100D01*
Y114900D01*
D02*
G37*
G36*
X159378Y151074D02*
X159108Y150892D01*
X159107Y150892D01*
X122887Y114672D01*
X121661Y114916D01*
X121489Y115332D01*
X120082Y116739D01*
X118245Y117500D01*
X117709Y118302D01*
X118000Y119005D01*
Y120995D01*
X118887Y122120D01*
X119832Y122511D01*
X121239Y123918D01*
X122000Y125756D01*
Y127745D01*
X121239Y129582D01*
X121142Y129679D01*
X120832Y130261D01*
X122239Y131668D01*
X123000Y133505D01*
Y135495D01*
X122239Y137332D01*
X120832Y138739D01*
X118995Y139500D01*
X117006D01*
X116874Y139932D01*
Y140121D01*
X116112Y141959D01*
X114706Y143365D01*
X112868Y144127D01*
X110879D01*
X110785Y144088D01*
X109797Y144616D01*
X109039Y145750D01*
X109797Y146884D01*
X110015Y147980D01*
X114359Y152324D01*
X158999D01*
X159378Y151074D01*
D02*
G37*
G36*
X65522Y120543D02*
X65441Y120269D01*
X65444Y119952D01*
X65532Y119593D01*
X65704Y119190D01*
X65962Y118744D01*
X66304Y118255D01*
X66732Y117723D01*
X67841Y116531D01*
X65720Y114409D01*
X65102Y115006D01*
X63995Y115946D01*
X63506Y116288D01*
X63060Y116546D01*
X62657Y116719D01*
X62298Y116806D01*
X61981Y116810D01*
X61708Y116728D01*
X61477Y116561D01*
X65689Y120773D01*
X65522Y120543D01*
D02*
G37*
G36*
X262337Y113484D02*
X262306Y113371D01*
X262309Y113240D01*
X262346Y113093D01*
X262417Y112929D01*
X262522Y112748D01*
X262661Y112550D01*
X262833Y112335D01*
X263280Y111854D01*
X262396Y110970D01*
X262154Y111204D01*
X261719Y111570D01*
X261528Y111702D01*
X261353Y111800D01*
X261194Y111865D01*
X261053Y111895D01*
X260929Y111891D01*
X260821Y111854D01*
X260730Y111782D01*
X262402Y113581D01*
X262337Y113484D01*
D02*
G37*
G36*
X196858Y110900D02*
X196571Y111180D01*
X196017Y111652D01*
X195749Y111844D01*
X195487Y112006D01*
X195231Y112139D01*
X194980Y112242D01*
X194736Y112316D01*
X194498Y112360D01*
X194266Y112375D01*
Y113625D01*
X194498Y113640D01*
X194736Y113684D01*
X194980Y113758D01*
X195231Y113861D01*
X195487Y113994D01*
X195749Y114156D01*
X196017Y114348D01*
X196291Y114569D01*
X196858Y115100D01*
Y110900D01*
D02*
G37*
G36*
X117220Y109500D02*
X116819Y109496D01*
X116094Y109438D01*
X115769Y109384D01*
X115469Y109313D01*
X115193Y109226D01*
X114944Y109122D01*
X114719Y109001D01*
X114519Y108864D01*
X114344Y108710D01*
X113461Y109594D01*
X113614Y109769D01*
X113751Y109969D01*
X113872Y110194D01*
X113976Y110443D01*
X114063Y110718D01*
X114134Y111019D01*
X114188Y111344D01*
X114225Y111694D01*
X114250Y112470D01*
X117220Y109500D01*
D02*
G37*
G36*
X381970Y108000D02*
X381570Y107996D01*
X380844Y107938D01*
X380519Y107884D01*
X380218Y107813D01*
X379943Y107726D01*
X379693Y107622D01*
X379469Y107501D01*
X379269Y107364D01*
X379094Y107211D01*
X378210Y108094D01*
X378364Y108269D01*
X378501Y108469D01*
X378622Y108694D01*
X378726Y108943D01*
X378813Y109219D01*
X378884Y109519D01*
X378938Y109844D01*
X378975Y110194D01*
X379000Y110970D01*
X381970Y108000D01*
D02*
G37*
G36*
X261776Y109361D02*
X261831Y109259D01*
X261923Y109169D01*
X262052Y109091D01*
X262218Y109025D01*
X262421Y108971D01*
X262660Y108929D01*
X262936Y108899D01*
X263600Y108875D01*
Y107625D01*
X263250Y107619D01*
X262660Y107571D01*
X262421Y107529D01*
X262218Y107475D01*
X262052Y107409D01*
X261923Y107331D01*
X261831Y107241D01*
X261776Y107139D01*
X261757Y107025D01*
Y109475D01*
X261776Y109361D01*
D02*
G37*
G36*
X86341Y106469D02*
X85808Y105922D01*
X84638Y104536D01*
X84390Y104159D01*
X84213Y103824D01*
X84108Y103531D01*
X84074Y103281D01*
X84111Y103074D01*
X84220Y102909D01*
X80659Y106469D01*
X80824Y106361D01*
X81031Y106324D01*
X81281Y106358D01*
X81574Y106463D01*
X81909Y106640D01*
X82286Y106888D01*
X82706Y107207D01*
X83673Y108058D01*
X84220Y108591D01*
X86341Y106469D01*
D02*
G37*
G36*
X202858Y104900D02*
X202571Y105180D01*
X202017Y105652D01*
X201749Y105844D01*
X201487Y106006D01*
X201231Y106139D01*
X200980Y106242D01*
X200736Y106316D01*
X200498Y106360D01*
X200266Y106375D01*
Y107625D01*
X200498Y107640D01*
X200736Y107684D01*
X200980Y107758D01*
X201231Y107861D01*
X201487Y107994D01*
X201749Y108156D01*
X202017Y108348D01*
X202291Y108569D01*
X202858Y109100D01*
Y104900D01*
D02*
G37*
G36*
X108780Y104646D02*
X108540Y104397D01*
X108160Y103950D01*
X108022Y103752D01*
X107917Y103571D01*
X107846Y103407D01*
X107809Y103260D01*
X107806Y103129D01*
X107837Y103016D01*
X107901Y102920D01*
X106230Y104718D01*
X106321Y104646D01*
X106429Y104609D01*
X106553Y104605D01*
X106694Y104635D01*
X106853Y104700D01*
X107028Y104798D01*
X107219Y104930D01*
X107428Y105096D01*
X107654Y105296D01*
X107896Y105530D01*
X108780Y104646D01*
D02*
G37*
G36*
X385858Y102900D02*
X385571Y103180D01*
X385017Y103652D01*
X384749Y103844D01*
X384487Y104006D01*
X384231Y104139D01*
X383980Y104242D01*
X383736Y104316D01*
X383498Y104360D01*
X383266Y104375D01*
Y105625D01*
X383498Y105640D01*
X383736Y105684D01*
X383980Y105758D01*
X384231Y105861D01*
X384487Y105994D01*
X384749Y106156D01*
X385017Y106348D01*
X385291Y106569D01*
X385858Y107100D01*
Y102900D01*
D02*
G37*
G36*
X196858Y98900D02*
X196571Y99180D01*
X196017Y99652D01*
X195749Y99844D01*
X195487Y100006D01*
X195231Y100139D01*
X194980Y100242D01*
X194736Y100316D01*
X194498Y100360D01*
X194266Y100375D01*
Y101625D01*
X194498Y101640D01*
X194736Y101684D01*
X194980Y101758D01*
X195231Y101861D01*
X195487Y101994D01*
X195749Y102156D01*
X196017Y102348D01*
X196291Y102569D01*
X196858Y103100D01*
Y98900D01*
D02*
G37*
G36*
X263280Y94646D02*
X263040Y94397D01*
X262661Y93950D01*
X262522Y93752D01*
X262417Y93571D01*
X262346Y93407D01*
X262309Y93260D01*
X262306Y93129D01*
X262337Y93016D01*
X262402Y92920D01*
X260730Y94718D01*
X260821Y94646D01*
X260929Y94609D01*
X261053Y94605D01*
X261194Y94635D01*
X261353Y94700D01*
X261528Y94798D01*
X261719Y94930D01*
X261928Y95096D01*
X262154Y95296D01*
X262396Y95530D01*
X263280Y94646D01*
D02*
G37*
G36*
X204970Y92000D02*
X204569Y91996D01*
X203844Y91938D01*
X203519Y91884D01*
X203218Y91813D01*
X202943Y91726D01*
X202694Y91622D01*
X202469Y91501D01*
X202269Y91364D01*
X202094Y91210D01*
X201210Y92094D01*
X201364Y92269D01*
X201501Y92469D01*
X201622Y92694D01*
X201726Y92943D01*
X201813Y93218D01*
X201884Y93519D01*
X201938Y93844D01*
X201975Y94194D01*
X202000Y94970D01*
X204970Y92000D01*
D02*
G37*
G36*
X263274Y89676D02*
X263035Y89428D01*
X262658Y88983D01*
X262520Y88786D01*
X262417Y88606D01*
X262347Y88443D01*
X262312Y88298D01*
X262311Y88169D01*
X262344Y88058D01*
X262410Y87964D01*
X260695Y89718D01*
X260788Y89648D01*
X260897Y89613D01*
X261023Y89610D01*
X261165Y89642D01*
X261324Y89707D01*
X261500Y89805D01*
X261691Y89938D01*
X261900Y90104D01*
X262125Y90303D01*
X262367Y90536D01*
X263274Y89676D01*
D02*
G37*
G36*
X81715Y93531D02*
X81460Y93440D01*
X81235Y93288D01*
X81040Y93076D01*
X80875Y92803D01*
X80740Y92470D01*
X80635Y92076D01*
X80560Y91622D01*
X80515Y91106D01*
X80509Y90875D01*
X80515Y90644D01*
X80560Y90128D01*
X80635Y89674D01*
X80740Y89280D01*
X80875Y88947D01*
X81040Y88674D01*
X81235Y88462D01*
X81460Y88310D01*
X81715Y88219D01*
X82000Y88189D01*
X76000D01*
X76285Y88219D01*
X76540Y88310D01*
X76765Y88462D01*
X76960Y88674D01*
X77125Y88947D01*
X77260Y89280D01*
X77365Y89674D01*
X77440Y90128D01*
X77485Y90644D01*
X77491Y90875D01*
X77485Y91106D01*
X77440Y91622D01*
X77365Y92076D01*
X77260Y92470D01*
X77125Y92803D01*
X76960Y93076D01*
X76765Y93288D01*
X76540Y93440D01*
X76285Y93531D01*
X76000Y93561D01*
X82000D01*
X81715Y93531D01*
D02*
G37*
G36*
X210573Y76445D02*
X210266Y76244D01*
X209992Y76038D01*
X209750Y75826D01*
X209541Y75609D01*
X209363Y75388D01*
X209218Y75160D01*
X209105Y74928D01*
X209024Y74691D01*
X208976Y74448D01*
X208960Y74200D01*
X207710Y74492D01*
X207698Y74695D01*
X207661Y74917D01*
X207599Y75159D01*
X207513Y75419D01*
X207402Y75698D01*
X207106Y76312D01*
X206921Y76648D01*
X206477Y77376D01*
X210573Y76445D01*
D02*
G37*
G36*
X373631Y74048D02*
X373525Y74010D01*
X373431Y73946D01*
X373350Y73856D01*
X373281Y73741D01*
X373225Y73600D01*
X373181Y73433D01*
X373150Y73242D01*
X373131Y73024D01*
X373125Y72780D01*
X371875D01*
X371869Y73024D01*
X371850Y73242D01*
X371819Y73433D01*
X371775Y73600D01*
X371719Y73741D01*
X371650Y73856D01*
X371569Y73946D01*
X371475Y74010D01*
X371369Y74048D01*
X371250Y74061D01*
X373750D01*
X373631Y74048D01*
D02*
G37*
G36*
X84591Y72719D02*
X83997Y72104D01*
X83063Y71001D01*
X82724Y70513D01*
X82470Y70068D01*
X82300Y69665D01*
X82215Y69304D01*
Y68986D01*
X82300Y68710D01*
X82470Y68477D01*
X78227Y72719D01*
X78460Y72550D01*
X78736Y72465D01*
X79054D01*
X79415Y72550D01*
X79818Y72719D01*
X80263Y72974D01*
X80751Y73313D01*
X81282Y73738D01*
X82470Y74841D01*
X84591Y72719D01*
D02*
G37*
G36*
X351327Y91909D02*
X351000Y91119D01*
Y89130D01*
X351761Y87293D01*
X353135Y85919D01*
X353368Y85641D01*
X353576Y84592D01*
X334911Y65926D01*
X265046D01*
X264355Y67176D01*
X264569Y68250D01*
X264297Y69616D01*
X263539Y70750D01*
X264297Y71884D01*
X264569Y73250D01*
X264297Y74616D01*
X263539Y75750D01*
X264297Y76884D01*
X264569Y78250D01*
X264297Y79616D01*
X263539Y80750D01*
X264297Y81884D01*
X264569Y83250D01*
X264297Y84616D01*
X263539Y85750D01*
X264297Y86884D01*
X264524Y88024D01*
X269448Y92949D01*
X273372D01*
X274100Y92000D01*
X274100Y91699D01*
Y72000D01*
X299900D01*
Y91699D01*
X299900Y92000D01*
X300628Y92949D01*
X350633D01*
X351327Y91909D01*
D02*
G37*
G36*
X373131Y69726D02*
X373150Y69509D01*
X373181Y69317D01*
X373225Y69150D01*
X373281Y69009D01*
X373350Y68894D01*
X373431Y68804D01*
X373525Y68740D01*
X373631Y68702D01*
X373750Y68689D01*
X371250D01*
X371369Y68702D01*
X371475Y68740D01*
X371569Y68804D01*
X371650Y68894D01*
X371719Y69009D01*
X371775Y69150D01*
X371819Y69317D01*
X371850Y69509D01*
X371869Y69726D01*
X371875Y69970D01*
X373125D01*
X373131Y69726D01*
D02*
G37*
G36*
X215573Y67445D02*
X215266Y67244D01*
X214992Y67038D01*
X214750Y66826D01*
X214541Y66610D01*
X214363Y66388D01*
X214218Y66160D01*
X214105Y65928D01*
X214024Y65691D01*
X213976Y65448D01*
X213960Y65200D01*
X212710Y65492D01*
X212698Y65695D01*
X212661Y65917D01*
X212599Y66158D01*
X212513Y66419D01*
X212402Y66698D01*
X212106Y67312D01*
X211921Y67648D01*
X211477Y68376D01*
X215573Y67445D01*
D02*
G37*
G36*
X102265Y67172D02*
X102299Y66782D01*
X103750D01*
X103465Y66752D01*
X103210Y66661D01*
X102985Y66509D01*
X102790Y66297D01*
X102625Y66025D01*
X102514Y65750D01*
X102625Y65476D01*
X102790Y65203D01*
X102985Y64991D01*
X103210Y64839D01*
X103465Y64748D01*
X103750Y64718D01*
X102299D01*
X102265Y64328D01*
X102250Y63752D01*
X99250D01*
X99235Y64328D01*
X99201Y64718D01*
X97750D01*
X98035Y64748D01*
X98290Y64839D01*
X98515Y64991D01*
X98710Y65203D01*
X98875Y65476D01*
X98986Y65750D01*
X98875Y66025D01*
X98710Y66297D01*
X98515Y66509D01*
X98290Y66661D01*
X98035Y66752D01*
X97750Y66782D01*
X99201D01*
X99235Y67172D01*
X99250Y67748D01*
X102250D01*
X102265Y67172D01*
D02*
G37*
G36*
X261776Y64361D02*
X261831Y64259D01*
X261923Y64169D01*
X262052Y64091D01*
X262218Y64025D01*
X262421Y63971D01*
X262660Y63929D01*
X262936Y63899D01*
X263600Y63875D01*
Y62625D01*
X263250Y62619D01*
X262660Y62571D01*
X262421Y62529D01*
X262218Y62475D01*
X262052Y62409D01*
X261923Y62331D01*
X261831Y62241D01*
X261776Y62139D01*
X261757Y62025D01*
Y64475D01*
X261776Y64361D01*
D02*
G37*
G36*
X108707Y59800D02*
X108547Y59632D01*
X108407Y59466D01*
X108287Y59304D01*
X108186Y59145D01*
X108105Y58988D01*
X108045Y58835D01*
X108003Y58684D01*
X107982Y58537D01*
X107980Y58392D01*
X107998Y58250D01*
X106004Y59718D01*
X106109Y59661D01*
X106229Y59636D01*
X106363Y59642D01*
X106512Y59680D01*
X106675Y59749D01*
X106853Y59850D01*
X107045Y59982D01*
X107251Y60146D01*
X107472Y60341D01*
X107707Y60568D01*
X108707Y59800D01*
D02*
G37*
G36*
X370298Y59311D02*
X370204Y59379D01*
X370091Y59411D01*
X369960Y59408D01*
X369811Y59370D01*
X369643Y59296D01*
X369457Y59187D01*
X369253Y59042D01*
X369030Y58862D01*
X368531Y58397D01*
X367647Y59281D01*
X367897Y59540D01*
X368292Y60003D01*
X368437Y60207D01*
X368546Y60393D01*
X368619Y60561D01*
X368658Y60710D01*
X368661Y60841D01*
X368629Y60954D01*
X368561Y61048D01*
X370298Y59311D01*
D02*
G37*
G36*
X355970Y60000D02*
X355569Y59996D01*
X354844Y59938D01*
X354519Y59884D01*
X354218Y59813D01*
X353943Y59726D01*
X353694Y59622D01*
X353469Y59501D01*
X353269Y59364D01*
X353094Y59211D01*
X352211Y60094D01*
X352364Y60269D01*
X352501Y60469D01*
X352622Y60693D01*
X352726Y60943D01*
X352813Y61218D01*
X352884Y61519D01*
X352938Y61844D01*
X352975Y62194D01*
X353000Y62970D01*
X355970Y60000D01*
D02*
G37*
G36*
X261776Y59361D02*
X261831Y59259D01*
X261923Y59169D01*
X262052Y59091D01*
X262218Y59025D01*
X262421Y58971D01*
X262660Y58929D01*
X262936Y58899D01*
X263600Y58875D01*
Y57625D01*
X263250Y57619D01*
X262660Y57571D01*
X262421Y57529D01*
X262218Y57475D01*
X262052Y57409D01*
X261923Y57331D01*
X261831Y57241D01*
X261776Y57139D01*
X261757Y57025D01*
Y59475D01*
X261776Y59361D01*
D02*
G37*
G36*
X108707Y54800D02*
X108547Y54632D01*
X108407Y54466D01*
X108287Y54304D01*
X108186Y54145D01*
X108105Y53988D01*
X108045Y53835D01*
X108003Y53684D01*
X107982Y53537D01*
X107980Y53392D01*
X107998Y53250D01*
X106004Y54718D01*
X106109Y54661D01*
X106229Y54636D01*
X106363Y54642D01*
X106512Y54680D01*
X106675Y54749D01*
X106853Y54850D01*
X107045Y54982D01*
X107251Y55146D01*
X107472Y55341D01*
X107707Y55568D01*
X108707Y54800D01*
D02*
G37*
G36*
X108780Y49646D02*
X108540Y49397D01*
X108160Y48950D01*
X108022Y48752D01*
X107917Y48571D01*
X107846Y48407D01*
X107809Y48260D01*
X107806Y48129D01*
X107837Y48016D01*
X107901Y47920D01*
X106230Y49718D01*
X106321Y49646D01*
X106429Y49609D01*
X106553Y49605D01*
X106694Y49636D01*
X106853Y49700D01*
X107028Y49798D01*
X107219Y49930D01*
X107428Y50096D01*
X107654Y50296D01*
X107896Y50530D01*
X108780Y49646D01*
D02*
G37*
G36*
X224820Y51571D02*
X224348Y51017D01*
X224156Y50749D01*
X223994Y50487D01*
X223861Y50231D01*
X223758Y49980D01*
X223684Y49736D01*
X223640Y49498D01*
X223625Y49266D01*
X222375D01*
X222360Y49498D01*
X222316Y49736D01*
X222242Y49980D01*
X222139Y50231D01*
X222006Y50487D01*
X221844Y50749D01*
X221652Y51017D01*
X221431Y51291D01*
X220900Y51858D01*
X225100D01*
X224820Y51571D01*
D02*
G37*
G36*
X229820Y45571D02*
X229348Y45017D01*
X229156Y44749D01*
X228994Y44487D01*
X228861Y44231D01*
X228758Y43980D01*
X228684Y43736D01*
X228640Y43498D01*
X228625Y43266D01*
X227375D01*
X227360Y43498D01*
X227316Y43736D01*
X227242Y43980D01*
X227139Y44231D01*
X227006Y44487D01*
X226844Y44749D01*
X226652Y45017D01*
X226431Y45291D01*
X225900Y45858D01*
X230100D01*
X229820Y45571D01*
D02*
G37*
G36*
X134775Y86150D02*
X135324Y85771D01*
Y40796D01*
X134073Y40105D01*
X133000Y40319D01*
X131634Y40047D01*
X130500Y39289D01*
X129366Y40047D01*
X129000Y40120D01*
Y31000D01*
X127000D01*
Y40120D01*
X126634Y40047D01*
X125500Y39289D01*
X124506Y39953D01*
X124206Y40573D01*
X124009Y41224D01*
X131892Y49107D01*
X132473Y49976D01*
X132676Y51000D01*
X132676Y51000D01*
Y84891D01*
X134115Y86329D01*
X134775Y86150D01*
D02*
G37*
G36*
X118626Y38808D02*
X118665Y38151D01*
X118679Y38081D01*
X118695Y38030D01*
X118714Y38000D01*
X118735Y37990D01*
X117265D01*
X117286Y38000D01*
X117305Y38030D01*
X117321Y38081D01*
X117336Y38151D01*
X117348Y38242D01*
X117365Y38485D01*
X117375Y39000D01*
X118625D01*
X118626Y38808D01*
D02*
G37*
G36*
X213960Y39126D02*
X213964Y38898D01*
X213998Y38473D01*
X214028Y38277D01*
X214066Y38092D01*
X214113Y37917D01*
X214168Y37752D01*
X214231Y37599D01*
X214304Y37456D01*
X214384Y37323D01*
X212102Y37880D01*
X212217Y37869D01*
X212321Y37895D01*
X212412Y37959D01*
X212491Y38059D01*
X212558Y38196D01*
X212612Y38371D01*
X212655Y38583D01*
X212686Y38832D01*
X212704Y39118D01*
X212710Y39441D01*
X213960Y39126D01*
D02*
G37*
G36*
X208960D02*
X208964Y38898D01*
X208998Y38473D01*
X209028Y38277D01*
X209066Y38092D01*
X209113Y37917D01*
X209168Y37752D01*
X209231Y37599D01*
X209304Y37456D01*
X209384Y37323D01*
X207102Y37880D01*
X207217Y37869D01*
X207321Y37895D01*
X207412Y37959D01*
X207491Y38059D01*
X207558Y38196D01*
X207612Y38371D01*
X207655Y38583D01*
X207686Y38832D01*
X207704Y39118D01*
X207710Y39441D01*
X208960Y39126D01*
D02*
G37*
G36*
X228631Y39000D02*
X228679Y38410D01*
X228721Y38171D01*
X228775Y37968D01*
X228841Y37802D01*
X228919Y37673D01*
X229009Y37581D01*
X229111Y37526D01*
X229225Y37507D01*
X226775D01*
X226889Y37526D01*
X226991Y37581D01*
X227081Y37673D01*
X227159Y37802D01*
X227225Y37968D01*
X227279Y38171D01*
X227321Y38410D01*
X227351Y38686D01*
X227375Y39350D01*
X228625D01*
X228631Y39000D01*
D02*
G37*
G36*
X223631D02*
X223679Y38410D01*
X223721Y38171D01*
X223775Y37968D01*
X223841Y37802D01*
X223919Y37673D01*
X224009Y37581D01*
X224111Y37526D01*
X224225Y37507D01*
X221775D01*
X221889Y37526D01*
X221991Y37581D01*
X222081Y37673D01*
X222159Y37802D01*
X222225Y37968D01*
X222279Y38171D01*
X222321Y38410D01*
X222351Y38686D01*
X222375Y39350D01*
X223625D01*
X223631Y39000D01*
D02*
G37*
G36*
X198631D02*
X198679Y38410D01*
X198721Y38171D01*
X198775Y37968D01*
X198841Y37802D01*
X198919Y37673D01*
X199009Y37581D01*
X199111Y37526D01*
X199225Y37507D01*
X196775D01*
X196889Y37526D01*
X196991Y37581D01*
X197081Y37673D01*
X197159Y37802D01*
X197225Y37968D01*
X197279Y38171D01*
X197321Y38410D01*
X197351Y38686D01*
X197375Y39350D01*
X198625D01*
X198631Y39000D01*
D02*
G37*
G36*
X188631D02*
X188679Y38410D01*
X188721Y38171D01*
X188775Y37968D01*
X188841Y37802D01*
X188919Y37673D01*
X189009Y37581D01*
X189111Y37526D01*
X189225Y37507D01*
X186775D01*
X186889Y37526D01*
X186991Y37581D01*
X187081Y37673D01*
X187159Y37802D01*
X187225Y37968D01*
X187279Y38171D01*
X187321Y38410D01*
X187351Y38686D01*
X187375Y39350D01*
X188625D01*
X188631Y39000D01*
D02*
G37*
G36*
X168631D02*
X168679Y38410D01*
X168721Y38171D01*
X168775Y37968D01*
X168841Y37802D01*
X168919Y37673D01*
X169009Y37581D01*
X169111Y37526D01*
X169225Y37507D01*
X166775D01*
X166889Y37526D01*
X166991Y37581D01*
X167081Y37673D01*
X167159Y37802D01*
X167225Y37968D01*
X167279Y38171D01*
X167321Y38410D01*
X167351Y38686D01*
X167375Y39350D01*
X168625D01*
X168631Y39000D01*
D02*
G37*
G36*
X163631D02*
X163679Y38410D01*
X163721Y38171D01*
X163775Y37968D01*
X163841Y37802D01*
X163919Y37673D01*
X164009Y37581D01*
X164111Y37526D01*
X164225Y37507D01*
X161775D01*
X161889Y37526D01*
X161991Y37581D01*
X162081Y37673D01*
X162159Y37802D01*
X162225Y37968D01*
X162279Y38171D01*
X162321Y38410D01*
X162351Y38686D01*
X162375Y39350D01*
X163625D01*
X163631Y39000D01*
D02*
G37*
G36*
X138631D02*
X138679Y38410D01*
X138721Y38171D01*
X138775Y37968D01*
X138841Y37802D01*
X138919Y37673D01*
X139009Y37581D01*
X139111Y37526D01*
X139225Y37507D01*
X136775D01*
X136889Y37526D01*
X136991Y37581D01*
X137081Y37673D01*
X137159Y37802D01*
X137225Y37968D01*
X137279Y38171D01*
X137321Y38410D01*
X137351Y38686D01*
X137375Y39350D01*
X138625D01*
X138631Y39000D01*
D02*
G37*
G36*
X380131Y37048D02*
X380025Y37010D01*
X379931Y36946D01*
X379850Y36856D01*
X379781Y36741D01*
X379725Y36600D01*
X379681Y36434D01*
X379650Y36242D01*
X379631Y36024D01*
X379625Y35780D01*
X378375D01*
X378369Y36024D01*
X378350Y36242D01*
X378319Y36434D01*
X378275Y36600D01*
X378219Y36741D01*
X378150Y36856D01*
X378069Y36946D01*
X377975Y37010D01*
X377869Y37048D01*
X377750Y37061D01*
X380250D01*
X380131Y37048D01*
D02*
G37*
G36*
X377353Y31720D02*
X377106Y31463D01*
X376717Y31004D01*
X376576Y30800D01*
X376469Y30615D01*
X376399Y30447D01*
X376363Y30296D01*
Y30164D01*
X376399Y30049D01*
X376469Y29952D01*
X374702Y31720D01*
X374799Y31649D01*
X374914Y31613D01*
X375046D01*
X375197Y31649D01*
X375365Y31720D01*
X375550Y31826D01*
X375754Y31967D01*
X375975Y32144D01*
X376469Y32603D01*
X377353Y31720D01*
D02*
G37*
G36*
X329541Y29133D02*
X329507Y29021D01*
X329493Y28906D01*
X329498Y28789D01*
X329523Y28669D01*
X329568Y28547D01*
X329632Y28423D01*
X329716Y28296D01*
X329819Y28167D01*
X329942Y28035D01*
X329058Y27151D01*
X328899Y27302D01*
X328745Y27435D01*
X328593Y27548D01*
X328446Y27643D01*
X328302Y27719D01*
X328163Y27777D01*
X328027Y27816D01*
X327894Y27836D01*
X327766Y27837D01*
X327641Y27819D01*
X329594Y29244D01*
X329541Y29133D01*
D02*
G37*
G36*
X358341Y26238D02*
X358321Y26059D01*
X358323Y25882D01*
X358346Y25707D01*
X358392Y25534D01*
X358458Y25362D01*
X358547Y25192D01*
X358657Y25024D01*
X358789Y24857D01*
X358942Y24692D01*
X358058Y23808D01*
X357893Y23961D01*
X357726Y24093D01*
X357558Y24203D01*
X357388Y24292D01*
X357216Y24358D01*
X357043Y24404D01*
X356867Y24427D01*
X356691Y24429D01*
X356512Y24409D01*
X356332Y24368D01*
X358382Y26418D01*
X358341Y26238D01*
D02*
G37*
G36*
X366100Y51432D02*
Y35000D01*
X373009D01*
X373598Y33898D01*
X373511Y33768D01*
X373459Y33750D01*
X366500D01*
Y24044D01*
X366449Y23984D01*
X365715Y23250D01*
X361176D01*
Y24250D01*
X360973Y25274D01*
X360453Y26052D01*
X360436Y26080D01*
X360430Y26086D01*
X360430Y26086D01*
X360500Y26255D01*
Y28245D01*
X359739Y30082D01*
X358332Y31489D01*
X356495Y32250D01*
X354505D01*
X353733Y31930D01*
X353025Y32990D01*
X354893Y34857D01*
X354893Y34857D01*
X355473Y35726D01*
X355676Y36750D01*
X355676Y36750D01*
Y42641D01*
X364945Y51910D01*
X366100Y51432D01*
D02*
G37*
G36*
X154111Y24474D02*
X154009Y24419D01*
X153919Y24327D01*
X153841Y24198D01*
X153775Y24032D01*
X153721Y23829D01*
X153679Y23590D01*
X153649Y23314D01*
X153625Y22650D01*
X152375D01*
X152369Y23000D01*
X152321Y23590D01*
X152279Y23829D01*
X152225Y24032D01*
X152159Y24198D01*
X152081Y24327D01*
X151991Y24419D01*
X151889Y24474D01*
X151775Y24493D01*
X154225D01*
X154111Y24474D01*
D02*
G37*
G36*
X370298Y22311D02*
X370204Y22379D01*
X370091Y22411D01*
X369960Y22408D01*
X369811Y22369D01*
X369643Y22296D01*
X369457Y22187D01*
X369253Y22042D01*
X369030Y21862D01*
X368531Y21397D01*
X367647Y22280D01*
X367897Y22540D01*
X368292Y23003D01*
X368437Y23207D01*
X368546Y23393D01*
X368619Y23561D01*
X368658Y23710D01*
X368661Y23841D01*
X368629Y23954D01*
X368561Y24048D01*
X370298Y22311D01*
D02*
G37*
G36*
X268220Y24030D02*
X268225Y24011D01*
X268230Y23952D01*
X268242Y23538D01*
X268250Y22062D01*
X265250D01*
X265245Y22441D01*
X265175Y23339D01*
X265133Y23559D01*
X265081Y23739D01*
X265020Y23879D01*
X264950Y23980D01*
X264870Y24040D01*
X264781Y24061D01*
X268220Y24030D01*
D02*
G37*
G36*
X359131Y22228D02*
X359150Y22011D01*
X359181Y21820D01*
X359225Y21654D01*
X359281Y21513D01*
X359350Y21398D01*
X359431Y21308D01*
X359525Y21243D01*
X359631Y21203D01*
X359750Y21189D01*
X357531Y21219D01*
X357596Y21232D01*
X357654Y21270D01*
X357706Y21332D01*
X357751Y21419D01*
X357789Y21532D01*
X357820Y21669D01*
X357844Y21832D01*
X357861Y22020D01*
X357875Y22469D01*
X359125D01*
X359131Y22228D01*
D02*
G37*
G36*
X330131D02*
X330150Y22011D01*
X330181Y21820D01*
X330225Y21654D01*
X330281Y21513D01*
X330350Y21398D01*
X330431Y21308D01*
X330525Y21243D01*
X330631Y21203D01*
X330750Y21189D01*
X328531Y21219D01*
X328596Y21232D01*
X328655Y21270D01*
X328706Y21332D01*
X328751Y21419D01*
X328789Y21532D01*
X328820Y21669D01*
X328844Y21832D01*
X328861Y22020D01*
X328875Y22469D01*
X330125D01*
X330131Y22228D01*
D02*
G37*
G36*
X338353Y21219D02*
X338106Y20963D01*
X337717Y20504D01*
X337576Y20300D01*
X337469Y20115D01*
X337399Y19947D01*
X337363Y19797D01*
Y19664D01*
X337399Y19549D01*
X337469Y19452D01*
X335702Y21219D01*
X335799Y21149D01*
X335914Y21113D01*
X336046D01*
X336197Y21149D01*
X336365Y21219D01*
X336550Y21326D01*
X336754Y21467D01*
X336974Y21644D01*
X337469Y22103D01*
X338353Y21219D01*
D02*
G37*
G36*
X113061Y15513D02*
X113398Y15500D01*
Y12500D01*
X113075Y12494D01*
X113061Y12493D01*
Y11000D01*
X113031Y11285D01*
X112940Y11540D01*
X112788Y11765D01*
X112576Y11960D01*
X112303Y12125D01*
X111970Y12260D01*
X111829Y12298D01*
X111786Y12284D01*
X111593Y12206D01*
X111421Y12116D01*
X111271Y12014D01*
X111142Y11900D01*
Y12437D01*
X111122Y12440D01*
X110606Y12485D01*
X110030Y12500D01*
Y15500D01*
X110606Y15515D01*
X111122Y15560D01*
X111142Y15563D01*
Y16100D01*
X111271Y15986D01*
X111421Y15884D01*
X111593Y15794D01*
X111786Y15716D01*
X111829Y15703D01*
X111970Y15740D01*
X112303Y15875D01*
X112576Y16040D01*
X112788Y16235D01*
X112940Y16460D01*
X113031Y16715D01*
X113061Y17000D01*
Y15513D01*
D02*
G37*
%LPC*%
G36*
X190750Y244610D02*
X185940D01*
Y239800D01*
X190750D01*
Y244610D01*
D02*
G37*
G36*
Y237800D02*
X185940D01*
Y232990D01*
X190750D01*
Y237800D01*
D02*
G37*
G36*
X197560Y244610D02*
X192750D01*
Y238800D01*
Y232990D01*
X197000D01*
X197560Y232990D01*
X198250Y232026D01*
Y227500D01*
X198250Y227250D01*
Y226524D01*
X197286Y225560D01*
X185940D01*
Y213940D01*
X197560D01*
Y213940D01*
X198250Y214250D01*
X211750D01*
Y226000D01*
X211750Y226250D01*
Y227395D01*
X212789Y228090D01*
X213005Y228000D01*
X214995D01*
X216832Y228761D01*
X218239Y230168D01*
X219000Y232005D01*
Y233995D01*
X218239Y235832D01*
X216832Y237239D01*
X214995Y238000D01*
X213005D01*
X212789Y237910D01*
X211750Y238605D01*
Y239250D01*
X198810D01*
X198250Y239250D01*
X197560Y240214D01*
Y244610D01*
D02*
G37*
G36*
X150580Y242500D02*
X147420D01*
X144368Y241682D01*
X141632Y240102D01*
X139398Y237868D01*
X137818Y235132D01*
X137000Y232080D01*
Y228920D01*
X137818Y225868D01*
X139398Y223132D01*
X141632Y220898D01*
X144368Y219318D01*
X147420Y218500D01*
X150580D01*
X153632Y219318D01*
X156368Y220898D01*
X156946Y221475D01*
X156997Y221503D01*
X158819Y223006D01*
X159625Y223573D01*
X160421Y224068D01*
X161185Y224476D01*
X161830Y224763D01*
X162071Y224683D01*
X163058Y223931D01*
X163080Y223875D01*
Y223465D01*
X165067D01*
X165110Y223456D01*
X165154Y223465D01*
X174700D01*
Y235085D01*
X165154D01*
X165110Y235094D01*
X165093Y235090D01*
X165076Y235093D01*
X165037Y235085D01*
X163080D01*
X163080Y235085D01*
X161882Y235211D01*
X161644Y235332D01*
X160964Y235755D01*
X160268Y236269D01*
X159556Y236878D01*
X158832Y237583D01*
X158656Y237776D01*
X158602Y237868D01*
X158239Y238232D01*
X158062Y238426D01*
X157999Y238472D01*
X156368Y240102D01*
X153632Y241682D01*
X150580Y242500D01*
D02*
G37*
G36*
X23580D02*
X20420D01*
X17368Y241682D01*
X14632Y240102D01*
X12398Y237868D01*
X10818Y235132D01*
X10000Y232080D01*
Y228920D01*
X10818Y225868D01*
X12398Y223132D01*
X14632Y220898D01*
X17368Y219318D01*
X20420Y218500D01*
X23580D01*
X26632Y219318D01*
X29368Y220898D01*
X31602Y223132D01*
X33182Y225868D01*
X34000Y228920D01*
Y232080D01*
X33182Y235132D01*
X31602Y237868D01*
X29368Y240102D01*
X26632Y241682D01*
X23580Y242500D01*
D02*
G37*
G36*
X272250Y223500D02*
X264250D01*
Y215000D01*
X272250D01*
Y223500D01*
D02*
G37*
G36*
X262250D02*
X254250D01*
Y215000D01*
X262250D01*
Y223500D01*
D02*
G37*
G36*
X390781Y214250D02*
X376250D01*
Y208479D01*
X390781D01*
Y214250D01*
D02*
G37*
G36*
X302750Y225000D02*
X291000D01*
Y207750D01*
X302750D01*
Y225000D01*
D02*
G37*
G36*
X289000D02*
X277250D01*
Y207750D01*
X289000D01*
Y225000D01*
D02*
G37*
G36*
X374250Y214250D02*
X359719D01*
Y213250D01*
X349501D01*
Y207750D01*
X361250D01*
Y208479D01*
X374250D01*
Y214250D01*
D02*
G37*
G36*
X347500Y213250D02*
X335751D01*
Y207750D01*
X347500D01*
Y213250D01*
D02*
G37*
G36*
X272250Y213000D02*
X264250D01*
Y204500D01*
X272250D01*
Y213000D01*
D02*
G37*
G36*
X262250D02*
X254250D01*
Y204500D01*
X262250D01*
Y213000D01*
D02*
G37*
G36*
X233000Y226500D02*
X219500D01*
Y214750D01*
X219500Y214500D01*
Y214041D01*
X218390Y213000D01*
X217005D01*
X215168Y212239D01*
X213761Y210832D01*
X213000Y208995D01*
Y207005D01*
X213761Y205168D01*
X215168Y203761D01*
X217005Y203000D01*
X218995D01*
X219500Y202662D01*
Y201500D01*
X233000D01*
Y213250D01*
X233000Y213500D01*
Y214500D01*
X233000Y214750D01*
Y217441D01*
X234250D01*
Y204500D01*
X252250D01*
Y223500D01*
X237546D01*
X237250Y223559D01*
X237250Y223559D01*
X233000D01*
Y226500D01*
D02*
G37*
G36*
X119250Y209500D02*
X113750D01*
Y203250D01*
X119250D01*
Y209500D01*
D02*
G37*
G36*
X361250Y205750D02*
X349501D01*
Y200250D01*
X361250D01*
Y205750D01*
D02*
G37*
G36*
X347500D02*
X335751D01*
Y200250D01*
X347500D01*
Y205750D01*
D02*
G37*
G36*
X302750Y205750D02*
X291000D01*
Y188500D01*
X302750D01*
Y205750D01*
D02*
G37*
G36*
X289000D02*
X277250D01*
Y188500D01*
X289000D01*
Y205750D01*
D02*
G37*
G36*
X378000Y198039D02*
X362000D01*
X361220Y197884D01*
X360558Y197442D01*
X360116Y196780D01*
X359961Y196000D01*
Y191173D01*
X359220Y190259D01*
X359176Y190250D01*
X335751D01*
Y183739D01*
X335407Y183437D01*
X334501Y182940D01*
X334000Y183039D01*
X318000D01*
X317220Y182884D01*
X316558Y182442D01*
X316116Y181780D01*
X315961Y181000D01*
Y172000D01*
X315961Y172000D01*
X316116Y171220D01*
X316558Y170558D01*
X322000Y165116D01*
Y148000D01*
X340000D01*
Y172000D01*
X336039D01*
Y177250D01*
X359176D01*
X359220Y177241D01*
X359719Y176165D01*
Y175979D01*
X390781D01*
Y189521D01*
X380039D01*
Y196000D01*
X379884Y196780D01*
X379442Y197442D01*
X378780Y197884D01*
X378000Y198039D01*
D02*
G37*
G36*
X117000Y184500D02*
X114431D01*
Y179750D01*
X114703Y178384D01*
X115477Y177227D01*
X116634Y176453D01*
X117000Y176380D01*
Y184500D01*
D02*
G37*
G36*
X24250Y208250D02*
X23250D01*
X23000Y208250D01*
X11250D01*
Y194750D01*
X23000D01*
X23250Y194750D01*
X24250D01*
X24500Y194750D01*
X27574D01*
Y193500D01*
X14250D01*
Y175500D01*
X33250D01*
Y191426D01*
X33259Y191469D01*
X33250Y191513D01*
Y193500D01*
X32926D01*
Y194750D01*
X36250D01*
Y208250D01*
X24500D01*
X24250Y208250D01*
D02*
G37*
G36*
X279250Y180250D02*
X273000D01*
Y174750D01*
X279250D01*
Y180250D01*
D02*
G37*
G36*
X271000D02*
X264750D01*
Y174750D01*
X271000D01*
Y180250D01*
D02*
G37*
G36*
X254250Y171819D02*
X249500D01*
X248134Y171547D01*
X246977Y170773D01*
X246203Y169616D01*
X246130Y169250D01*
X254250D01*
Y171819D01*
D02*
G37*
G36*
X304000Y172000D02*
X296000D01*
Y161000D01*
X304000D01*
Y172000D01*
D02*
G37*
G36*
X33250Y173500D02*
X14250D01*
Y155500D01*
X33250D01*
Y158602D01*
X34289Y159297D01*
X35005Y159000D01*
X36995D01*
X38832Y159761D01*
X40239Y161168D01*
X41000Y163005D01*
Y164995D01*
X40239Y166832D01*
X38832Y168239D01*
X36995Y169000D01*
X35005D01*
X34289Y168703D01*
X33250Y169398D01*
Y173500D01*
D02*
G37*
G36*
X84500Y162750D02*
X79000D01*
Y156500D01*
X84500D01*
Y162750D01*
D02*
G37*
G36*
X77000D02*
X71500D01*
Y156500D01*
X77000D01*
Y162750D01*
D02*
G37*
G36*
X366995Y166000D02*
X365005D01*
X363168Y165239D01*
X361761Y163832D01*
X361000Y161995D01*
Y160005D01*
X361761Y158168D01*
X363168Y156761D01*
X365005Y156000D01*
X366995D01*
X368832Y156761D01*
X370239Y158168D01*
X371000Y160005D01*
Y161995D01*
X370239Y163832D01*
X368832Y165239D01*
X366995Y166000D01*
D02*
G37*
G36*
X354995Y158000D02*
X353005D01*
X351168Y157239D01*
X349761Y155832D01*
X349000Y153995D01*
Y152005D01*
X349761Y150168D01*
X351168Y148761D01*
X353005Y148000D01*
X354995D01*
X356832Y148761D01*
X358239Y150168D01*
X359000Y152005D01*
Y153995D01*
X358239Y155832D01*
X356832Y157239D01*
X354995Y158000D01*
D02*
G37*
G36*
X304000Y159000D02*
X296000D01*
Y148000D01*
X304000D01*
Y159000D01*
D02*
G37*
G36*
X294000D02*
X286000D01*
Y148000D01*
X294000D01*
Y159000D01*
D02*
G37*
G36*
X35000Y90001D02*
X16000D01*
Y72001D01*
X35000D01*
Y75328D01*
X36005Y76000D01*
X37995D01*
X39832Y76761D01*
X41239Y78168D01*
X42000Y80005D01*
Y81995D01*
X41239Y83832D01*
X39832Y85239D01*
X37995Y86000D01*
X36005D01*
X35000Y86672D01*
Y90001D01*
D02*
G37*
G36*
X386500Y70750D02*
Y65000D01*
X391500D01*
Y70750D01*
X386500D01*
D02*
G37*
G36*
X391500Y63000D02*
X386500D01*
Y57250D01*
X391500D01*
Y63000D01*
D02*
G37*
G36*
X35000Y70001D02*
X16000D01*
Y52001D01*
X29574D01*
Y50750D01*
X26500D01*
X26250Y50750D01*
X25250D01*
X25000Y50750D01*
X13250D01*
Y37250D01*
X13395D01*
X14089Y36211D01*
X14000Y35995D01*
Y34005D01*
X14761Y32168D01*
X16168Y30761D01*
X18005Y30000D01*
X19994D01*
X21832Y30761D01*
X23239Y32168D01*
X24000Y34005D01*
Y35995D01*
X23911Y36211D01*
X24605Y37250D01*
X25250Y37250D01*
X26250D01*
X26500Y37250D01*
X38250D01*
Y50750D01*
X34926D01*
Y52001D01*
X35000D01*
Y53987D01*
X35008Y54031D01*
X35000Y54075D01*
Y70001D01*
D02*
G37*
G36*
X84500Y51000D02*
X78000D01*
X71500D01*
Y44750D01*
X71500D01*
Y44000D01*
X71500D01*
Y37750D01*
X78000D01*
X84500D01*
Y44000D01*
X84500D01*
Y44750D01*
X84500D01*
Y51000D01*
D02*
G37*
G36*
X254250Y36500D02*
X248750D01*
Y30250D01*
X254250D01*
Y36500D01*
D02*
G37*
G36*
X84500Y35750D02*
X79000D01*
Y29500D01*
X84500D01*
Y35750D01*
D02*
G37*
G36*
X77000D02*
X71500D01*
Y29500D01*
X77000D01*
Y35750D01*
D02*
G37*
G36*
X53995Y113000D02*
X52005D01*
X50168Y112239D01*
X48761Y110832D01*
X48000Y108995D01*
Y107006D01*
X48761Y105168D01*
X50168Y103761D01*
X52005Y103000D01*
X53250D01*
Y91500D01*
X56245D01*
X56609Y90875D01*
X56245Y90250D01*
X55500D01*
Y75750D01*
X55500D01*
Y74750D01*
X55500D01*
Y60250D01*
X55500D01*
Y59250D01*
X55500D01*
Y44750D01*
X55500D01*
Y44000D01*
X55500D01*
Y29500D01*
X68500D01*
Y44000D01*
X68500D01*
Y44750D01*
X68500D01*
Y59250D01*
X68500D01*
Y60250D01*
X68500D01*
Y74750D01*
X68500D01*
Y75750D01*
X68500D01*
Y90250D01*
X67755D01*
X67390Y90877D01*
X67750Y91500D01*
X67750D01*
Y108500D01*
X58450D01*
X58000Y108885D01*
Y108995D01*
X57239Y110832D01*
X55832Y112239D01*
X53995Y113000D01*
D02*
G37*
G36*
X386500Y33750D02*
Y28000D01*
X391500D01*
Y33750D01*
X386500D01*
D02*
G37*
G36*
X254250Y28250D02*
X248750D01*
Y22000D01*
X254250D01*
Y28250D01*
D02*
G37*
G36*
X239000Y40120D02*
Y31000D01*
Y21880D01*
X239366Y21953D01*
X240000Y22377D01*
X241250Y22000D01*
Y22000D01*
X246750D01*
Y29250D01*
Y36500D01*
X241569D01*
Y36750D01*
X241297Y38116D01*
X240523Y39273D01*
X239366Y40047D01*
X239000Y40120D01*
D02*
G37*
G36*
X323500Y23250D02*
X310500D01*
Y21501D01*
X309461Y20807D01*
X308995Y21000D01*
X307005D01*
X305168Y20239D01*
X303761Y18832D01*
X303000Y16995D01*
Y15005D01*
X303761Y13168D01*
X305168Y11761D01*
X307005Y11000D01*
X308995D01*
X309461Y11193D01*
X310500Y10499D01*
Y8750D01*
X323500D01*
Y23250D01*
D02*
G37*
G36*
X391500Y26000D02*
X386500D01*
Y20250D01*
X391500D01*
Y26000D01*
D02*
G37*
G36*
X140000Y13000D02*
X134500D01*
Y6750D01*
X140000D01*
Y13000D01*
D02*
G37*
G36*
X132500D02*
X127000D01*
Y6750D01*
X132500D01*
Y13000D01*
D02*
G37*
%LPD*%
G36*
X211858Y230900D02*
X211639Y231109D01*
X211413Y231296D01*
X211181Y231461D01*
X210942Y231604D01*
X210697Y231725D01*
X210445Y231824D01*
X210408Y231835D01*
X210197Y231750D01*
X210014Y231640D01*
X209872Y231510D01*
X209770Y231360D01*
X209709Y231190D01*
X209689Y231000D01*
Y231984D01*
X209650Y231989D01*
X209372Y232000D01*
Y234000D01*
X209650Y234011D01*
X209689Y234016D01*
Y235000D01*
X209709Y234810D01*
X209770Y234640D01*
X209872Y234490D01*
X210014Y234360D01*
X210197Y234250D01*
X210408Y234165D01*
X210445Y234176D01*
X210697Y234275D01*
X210942Y234396D01*
X211181Y234539D01*
X211413Y234704D01*
X211639Y234891D01*
X211858Y235100D01*
Y230900D01*
D02*
G37*
G36*
X200311Y217750D02*
X200291Y217940D01*
X200230Y218110D01*
X200128Y218260D01*
X199986Y218390D01*
X199803Y218500D01*
X199580Y218590D01*
X199316Y218660D01*
X199011Y218710D01*
X198666Y218740D01*
X198281Y218750D01*
Y220750D01*
X198666Y220760D01*
X199011Y220790D01*
X199316Y220840D01*
X199580Y220910D01*
X199803Y221000D01*
X199986Y221110D01*
X200128Y221240D01*
X200230Y221390D01*
X200291Y221560D01*
X200311Y221750D01*
Y217750D01*
D02*
G37*
G36*
X195519Y221560D02*
X195580Y221390D01*
X195682Y221240D01*
X195824Y221110D01*
X196007Y221000D01*
X196230Y220910D01*
X196494Y220840D01*
X196799Y220790D01*
X197144Y220760D01*
X197530Y220750D01*
Y218750D01*
X197144Y218740D01*
X196799Y218710D01*
X196494Y218660D01*
X196230Y218590D01*
X196007Y218500D01*
X195824Y218390D01*
X195682Y218260D01*
X195580Y218110D01*
X195519Y217940D01*
X195499Y217750D01*
Y221750D01*
X195519Y221560D01*
D02*
G37*
G36*
X157367Y236164D02*
X158180Y235371D01*
X158997Y234672D01*
X159818Y234066D01*
X160643Y233553D01*
X161471Y233133D01*
X162303Y232807D01*
X163138Y232574D01*
X163267Y232553D01*
X164310Y232628D01*
X164660Y232714D01*
X164911Y232814D01*
X165061Y232928D01*
X165110Y233055D01*
Y225495D01*
X165061Y225855D01*
X164911Y226177D01*
X164660Y226460D01*
X164310Y226706D01*
X163860Y226915D01*
X163311Y227085D01*
X162778Y227193D01*
X162020Y226999D01*
X161162Y226698D01*
X160289Y226310D01*
X159402Y225835D01*
X158499Y225275D01*
X157580Y224628D01*
X155699Y223076D01*
X156557Y237049D01*
X157367Y236164D01*
D02*
G37*
G36*
X236280Y221469D02*
Y218500D01*
X236261Y218690D01*
X236201Y218860D01*
X236101Y219010D01*
X235961Y219140D01*
X235781Y219250D01*
X235560Y219340D01*
X235301Y219410D01*
X235000Y219460D01*
X234660Y219490D01*
X234280Y219500D01*
Y221500D01*
X236280Y221469D01*
D02*
G37*
G36*
X230959Y222310D02*
X231020Y222140D01*
X231122Y221990D01*
X231264Y221860D01*
X231447Y221750D01*
X231670Y221660D01*
X231934Y221590D01*
X232239Y221540D01*
X232584Y221510D01*
X232969Y221500D01*
Y219500D01*
X232584Y219490D01*
X232239Y219460D01*
X231934Y219410D01*
X231670Y219340D01*
X231447Y219250D01*
X231264Y219140D01*
X231122Y219010D01*
X231020Y218860D01*
X230959Y218690D01*
X230939Y218500D01*
Y222500D01*
X230959Y222310D01*
D02*
G37*
G36*
X220361Y209891D02*
X220587Y209704D01*
X220819Y209539D01*
X221058Y209396D01*
X221189Y209331D01*
X221236Y209360D01*
X221378Y209490D01*
X221480Y209640D01*
X221541Y209810D01*
X221561Y210000D01*
Y209174D01*
X221813Y209099D01*
X222078Y209044D01*
X222350Y209011D01*
X222628Y209000D01*
Y207000D01*
X222350Y206989D01*
X222078Y206956D01*
X221813Y206901D01*
X221561Y206826D01*
Y206000D01*
X221541Y206190D01*
X221480Y206360D01*
X221378Y206510D01*
X221236Y206640D01*
X221189Y206669D01*
X221058Y206604D01*
X220819Y206461D01*
X220587Y206296D01*
X220361Y206109D01*
X220142Y205900D01*
Y206970D01*
X219916Y206990D01*
X219531Y207000D01*
Y209000D01*
X219916Y209010D01*
X220142Y209030D01*
Y210100D01*
X220361Y209891D01*
D02*
G37*
G36*
X378000Y179000D02*
X362000D01*
Y180642D01*
X361772Y180625D01*
X361780Y178250D01*
X361728Y178725D01*
X361576Y179150D01*
X361324Y179525D01*
X360971Y179850D01*
X360518Y180125D01*
X360159Y180271D01*
X360020Y180221D01*
X359670Y180030D01*
X359420Y179810D01*
X359270Y179560D01*
X359220Y179281D01*
Y180540D01*
X358558Y180650D01*
X357704Y180725D01*
X356749Y180750D01*
Y185750D01*
X357700Y185767D01*
X359220Y185900D01*
Y188220D01*
X359270Y187750D01*
X359420Y187331D01*
X359670Y186960D01*
X360020Y186639D01*
X360470Y186367D01*
X360705Y186273D01*
X360950Y186376D01*
X361300Y186603D01*
X361549Y186864D01*
X361699Y187160D01*
X361749Y187490D01*
X361754Y185958D01*
X362000Y185918D01*
Y196000D01*
X378000D01*
Y179000D01*
D02*
G37*
G36*
X334000Y170236D02*
X334100Y170170D01*
X334525Y170019D01*
X335000Y169970D01*
X334000D01*
Y166000D01*
X324000D01*
X318000Y172000D01*
Y181000D01*
X334000D01*
Y170236D01*
D02*
G37*
G36*
X31381Y196798D02*
X31275Y196760D01*
X31181Y196696D01*
X31100Y196606D01*
X31031Y196491D01*
X30975Y196350D01*
X30931Y196183D01*
X30900Y195991D01*
X30881Y195774D01*
X30875Y195530D01*
X29625D01*
X29619Y195774D01*
X29600Y195991D01*
X29569Y196183D01*
X29525Y196350D01*
X29469Y196491D01*
X29400Y196606D01*
X29319Y196696D01*
X29225Y196760D01*
X29119Y196798D01*
X29000Y196811D01*
X31500D01*
X31381Y196798D01*
D02*
G37*
G36*
X30878Y192482D02*
X30906Y192082D01*
X30930Y191919D01*
X30961Y191782D01*
X30999Y191670D01*
X31044Y191582D01*
X31095Y191520D01*
X31154Y191482D01*
X31219Y191469D01*
X29000D01*
X29119Y191482D01*
X29225Y191520D01*
X29319Y191582D01*
X29400Y191670D01*
X29469Y191782D01*
X29525Y191919D01*
X29569Y192082D01*
X29600Y192269D01*
X29619Y192482D01*
X29625Y192719D01*
X30875D01*
X30878Y192482D01*
D02*
G37*
G36*
X33858Y161900D02*
X33571Y162180D01*
X33017Y162652D01*
X32749Y162844D01*
X32487Y163006D01*
X32231Y163139D01*
X31980Y163242D01*
X31769Y163306D01*
X31650Y163275D01*
X31509Y163219D01*
X31394Y163150D01*
X31304Y163069D01*
X31240Y162975D01*
X31202Y162869D01*
X31189Y162750D01*
Y165250D01*
X31202Y165131D01*
X31240Y165025D01*
X31304Y164931D01*
X31394Y164850D01*
X31509Y164781D01*
X31650Y164725D01*
X31769Y164694D01*
X31980Y164758D01*
X32231Y164861D01*
X32487Y164994D01*
X32749Y165156D01*
X33017Y165348D01*
X33291Y165569D01*
X33858Y166100D01*
Y161900D01*
D02*
G37*
G36*
X34858Y78900D02*
X34571Y79180D01*
X34017Y79652D01*
X33749Y79844D01*
X33487Y80006D01*
X33231Y80139D01*
X33168Y80165D01*
X33144Y80150D01*
X33054Y80069D01*
X32990Y79975D01*
X32952Y79869D01*
X32939Y79750D01*
Y80255D01*
X32736Y80316D01*
X32498Y80360D01*
X32266Y80375D01*
Y81625D01*
X32498Y81640D01*
X32736Y81684D01*
X32939Y81745D01*
Y82250D01*
X32952Y82131D01*
X32990Y82025D01*
X33054Y81931D01*
X33144Y81850D01*
X33168Y81835D01*
X33231Y81861D01*
X33487Y81994D01*
X33749Y82156D01*
X34017Y82348D01*
X34291Y82569D01*
X34858Y83100D01*
Y78900D01*
D02*
G37*
G36*
X32951Y54019D02*
X32935Y53981D01*
X32921Y53919D01*
X32909Y53831D01*
X32890Y53581D01*
X32875Y52781D01*
X31625D01*
X31619Y53019D01*
X31600Y53231D01*
X31569Y53419D01*
X31525Y53581D01*
X31469Y53719D01*
X31400Y53831D01*
X31319Y53919D01*
X31225Y53981D01*
X31119Y54019D01*
X31000Y54031D01*
X32969D01*
X32951Y54019D01*
D02*
G37*
G36*
X32881Y49726D02*
X32900Y49509D01*
X32931Y49317D01*
X32975Y49150D01*
X33031Y49009D01*
X33100Y48894D01*
X33181Y48804D01*
X33275Y48740D01*
X33381Y48702D01*
X33500Y48689D01*
X31000D01*
X31119Y48702D01*
X31225Y48740D01*
X31319Y48804D01*
X31400Y48894D01*
X31469Y49009D01*
X31525Y49150D01*
X31569Y49317D01*
X31600Y49509D01*
X31619Y49726D01*
X31625Y49970D01*
X32875D01*
X32881Y49726D01*
D02*
G37*
G36*
X19640Y39502D02*
X19675Y39311D01*
X20250D01*
X20131Y39298D01*
X20025Y39260D01*
X19931Y39196D01*
X19850Y39106D01*
X19781Y38991D01*
X19776Y38977D01*
X19861Y38769D01*
X19994Y38513D01*
X20156Y38251D01*
X20348Y37983D01*
X20569Y37709D01*
X21100Y37142D01*
X16900D01*
X17180Y37429D01*
X17652Y37983D01*
X17844Y38251D01*
X18006Y38513D01*
X18139Y38769D01*
X18224Y38977D01*
X18219Y38991D01*
X18150Y39106D01*
X18069Y39196D01*
X17975Y39260D01*
X17869Y39298D01*
X17750Y39311D01*
X18325D01*
X18360Y39502D01*
X18375Y39734D01*
X19625D01*
X19640Y39502D01*
D02*
G37*
G36*
X80715Y46781D02*
X80460Y46690D01*
X80235Y46538D01*
X80040Y46326D01*
X79875Y46053D01*
X79740Y45720D01*
X79635Y45326D01*
X79560Y44872D01*
X79517Y44375D01*
X79560Y43879D01*
X79635Y43424D01*
X79740Y43030D01*
X79875Y42697D01*
X80040Y42424D01*
X80235Y42212D01*
X80460Y42060D01*
X80715Y41969D01*
X81000Y41939D01*
X75000D01*
X75285Y41969D01*
X75540Y42060D01*
X75765Y42212D01*
X75960Y42424D01*
X76125Y42697D01*
X76260Y43030D01*
X76365Y43424D01*
X76440Y43879D01*
X76483Y44375D01*
X76440Y44872D01*
X76365Y45326D01*
X76260Y45720D01*
X76125Y46053D01*
X75960Y46326D01*
X75765Y46538D01*
X75540Y46690D01*
X75285Y46781D01*
X75000Y46811D01*
X81000D01*
X80715Y46781D01*
D02*
G37*
G36*
X55720Y108159D02*
X55958Y108501D01*
X55993Y108355D01*
X56049Y108199D01*
X56126Y108033D01*
X56225Y107858D01*
X56346Y107672D01*
X56453Y107525D01*
X57341Y106765D01*
X57626Y106583D01*
X57869Y106463D01*
X58069Y106404D01*
X58226Y106406D01*
X58341Y106469D01*
X55280Y103409D01*
X55344Y103524D01*
X55346Y103681D01*
X55287Y103881D01*
X55167Y104124D01*
X54985Y104409D01*
X54742Y104736D01*
X54740Y104739D01*
X54702Y104764D01*
X54496Y104879D01*
X54295Y104968D01*
X54102Y105029D01*
X53914Y105064D01*
X53734Y105072D01*
X53560Y105053D01*
X53963Y105633D01*
X53159Y106469D01*
X55280Y108591D01*
X55720Y108159D01*
D02*
G37*
G36*
X64715Y93531D02*
X64460Y93440D01*
X64235Y93288D01*
X64040Y93076D01*
X63875Y92803D01*
X63740Y92470D01*
X63635Y92076D01*
X63560Y91622D01*
X63515Y91106D01*
X63509Y90875D01*
X63515Y90644D01*
X63560Y90128D01*
X63635Y89674D01*
X63740Y89280D01*
X63875Y88947D01*
X64040Y88674D01*
X64235Y88462D01*
X64460Y88310D01*
X64715Y88219D01*
X65000Y88189D01*
X59000D01*
X59285Y88219D01*
X59540Y88310D01*
X59765Y88462D01*
X59960Y88674D01*
X60125Y88947D01*
X60260Y89280D01*
X60365Y89674D01*
X60440Y90128D01*
X60485Y90644D01*
X60491Y90875D01*
X60485Y91106D01*
X60440Y91622D01*
X60365Y92076D01*
X60260Y92470D01*
X60125Y92803D01*
X59960Y93076D01*
X59765Y93288D01*
X59540Y93440D01*
X59285Y93531D01*
X59000Y93561D01*
X65000D01*
X64715Y93531D01*
D02*
G37*
G36*
X63506Y87075D02*
X63554Y86495D01*
X63596Y86237D01*
X63650Y86000D01*
X63716Y85786D01*
X63794Y85592D01*
X63884Y85421D01*
X63986Y85271D01*
X64100Y85142D01*
X59900D01*
X60014Y85271D01*
X60116Y85421D01*
X60206Y85592D01*
X60284Y85786D01*
X60350Y86000D01*
X60404Y86237D01*
X60446Y86495D01*
X60476Y86774D01*
X60500Y87398D01*
X63500D01*
X63506Y87075D01*
D02*
G37*
G36*
X63986Y80729D02*
X63884Y80579D01*
X63794Y80408D01*
X63716Y80214D01*
X63650Y80000D01*
X63596Y79763D01*
X63554Y79505D01*
X63524Y79226D01*
X63500Y78602D01*
X60500D01*
X60494Y78925D01*
X60446Y79505D01*
X60404Y79763D01*
X60350Y80000D01*
X60284Y80214D01*
X60206Y80408D01*
X60116Y80579D01*
X60014Y80729D01*
X59900Y80858D01*
X64100D01*
X63986Y80729D01*
D02*
G37*
G36*
X64715Y77781D02*
X64460Y77690D01*
X64235Y77538D01*
X64040Y77326D01*
X63875Y77053D01*
X63740Y76720D01*
X63635Y76326D01*
X63560Y75872D01*
X63515Y75356D01*
X63512Y75250D01*
X63515Y75144D01*
X63560Y74629D01*
X63635Y74174D01*
X63740Y73780D01*
X63875Y73447D01*
X64040Y73174D01*
X64235Y72962D01*
X64460Y72810D01*
X64715Y72719D01*
X65000Y72689D01*
X59000D01*
X59285Y72719D01*
X59540Y72810D01*
X59765Y72962D01*
X59960Y73174D01*
X60125Y73447D01*
X60260Y73780D01*
X60365Y74174D01*
X60440Y74629D01*
X60485Y75144D01*
X60488Y75250D01*
X60485Y75356D01*
X60440Y75872D01*
X60365Y76326D01*
X60260Y76720D01*
X60125Y77053D01*
X59960Y77326D01*
X59765Y77538D01*
X59540Y77690D01*
X59285Y77781D01*
X59000Y77811D01*
X65000D01*
X64715Y77781D01*
D02*
G37*
G36*
X63506Y71575D02*
X63554Y70995D01*
X63596Y70737D01*
X63650Y70500D01*
X63716Y70286D01*
X63794Y70093D01*
X63884Y69921D01*
X63986Y69771D01*
X64100Y69642D01*
X59900D01*
X60014Y69771D01*
X60116Y69921D01*
X60206Y70093D01*
X60284Y70286D01*
X60350Y70500D01*
X60404Y70737D01*
X60446Y70995D01*
X60476Y71274D01*
X60500Y71898D01*
X63500D01*
X63506Y71575D01*
D02*
G37*
G36*
X63986Y65229D02*
X63884Y65079D01*
X63794Y64908D01*
X63716Y64714D01*
X63650Y64500D01*
X63596Y64263D01*
X63554Y64005D01*
X63524Y63726D01*
X63500Y63102D01*
X60500D01*
X60494Y63425D01*
X60446Y64005D01*
X60404Y64263D01*
X60350Y64500D01*
X60284Y64714D01*
X60206Y64908D01*
X60116Y65079D01*
X60014Y65229D01*
X59900Y65358D01*
X64100D01*
X63986Y65229D01*
D02*
G37*
G36*
X64715Y62281D02*
X64460Y62190D01*
X64235Y62038D01*
X64040Y61826D01*
X63875Y61553D01*
X63740Y61220D01*
X63635Y60826D01*
X63560Y60371D01*
X63515Y59856D01*
X63512Y59750D01*
X63515Y59644D01*
X63560Y59129D01*
X63635Y58674D01*
X63740Y58280D01*
X63875Y57947D01*
X64040Y57674D01*
X64235Y57462D01*
X64460Y57310D01*
X64715Y57219D01*
X65000Y57189D01*
X59000D01*
X59285Y57219D01*
X59540Y57310D01*
X59765Y57462D01*
X59960Y57674D01*
X60125Y57947D01*
X60260Y58280D01*
X60365Y58674D01*
X60440Y59129D01*
X60485Y59644D01*
X60488Y59750D01*
X60485Y59856D01*
X60440Y60371D01*
X60365Y60826D01*
X60260Y61220D01*
X60125Y61553D01*
X59960Y61826D01*
X59765Y62038D01*
X59540Y62190D01*
X59285Y62281D01*
X59000Y62311D01*
X65000D01*
X64715Y62281D01*
D02*
G37*
G36*
X63500Y56398D02*
X63506Y56075D01*
X63554Y55495D01*
X63596Y55237D01*
X63650Y55000D01*
X63716Y54786D01*
X63794Y54592D01*
X63884Y54421D01*
X63986Y54271D01*
X64100Y54142D01*
X59900Y54142D01*
X60014Y54271D01*
X60116Y54421D01*
X60206Y54592D01*
X60284Y54786D01*
X60350Y55000D01*
X60404Y55237D01*
X60446Y55495D01*
X60476Y55774D01*
X60500Y56398D01*
X63500Y56398D01*
D02*
G37*
G36*
X63986Y49729D02*
X63884Y49579D01*
X63794Y49408D01*
X63716Y49214D01*
X63650Y49000D01*
X63596Y48763D01*
X63554Y48505D01*
X63524Y48226D01*
X63500Y47602D01*
X60500Y47602D01*
X60494Y47925D01*
X60446Y48505D01*
X60404Y48763D01*
X60350Y49000D01*
X60284Y49214D01*
X60206Y49408D01*
X60116Y49579D01*
X60014Y49729D01*
X59900Y49858D01*
X64100Y49858D01*
X63986Y49729D01*
D02*
G37*
G36*
X64715Y46781D02*
X64460Y46690D01*
X64235Y46538D01*
X64040Y46326D01*
X63875Y46053D01*
X63740Y45720D01*
X63635Y45326D01*
X63560Y44872D01*
X63517Y44375D01*
X63560Y43879D01*
X63635Y43424D01*
X63740Y43030D01*
X63875Y42697D01*
X64040Y42424D01*
X64235Y42212D01*
X64460Y42060D01*
X64715Y41969D01*
X65000Y41939D01*
X59000D01*
X59285Y41969D01*
X59540Y42060D01*
X59765Y42212D01*
X59960Y42424D01*
X60125Y42697D01*
X60260Y43030D01*
X60365Y43424D01*
X60440Y43879D01*
X60483Y44375D01*
X60440Y44872D01*
X60365Y45326D01*
X60260Y45720D01*
X60125Y46053D01*
X59960Y46326D01*
X59765Y46538D01*
X59540Y46690D01*
X59285Y46781D01*
X59000Y46811D01*
X65000D01*
X64715Y46781D01*
D02*
G37*
G36*
X63506Y40825D02*
X63554Y40245D01*
X63596Y39987D01*
X63650Y39750D01*
X63716Y39536D01*
X63794Y39343D01*
X63884Y39171D01*
X63986Y39021D01*
X64100Y38892D01*
X59900D01*
X60014Y39021D01*
X60116Y39171D01*
X60206Y39343D01*
X60284Y39536D01*
X60350Y39750D01*
X60404Y39987D01*
X60446Y40245D01*
X60476Y40524D01*
X60500Y41148D01*
X63500D01*
X63506Y40825D01*
D02*
G37*
G36*
X243281Y26250D02*
X243251Y26535D01*
X243160Y26790D01*
X243011Y27015D01*
X242801Y27210D01*
X242530Y27375D01*
X242201Y27510D01*
X241810Y27615D01*
X241384Y27686D01*
X240953Y27615D01*
X240559Y27510D01*
X240225Y27375D01*
X239953Y27210D01*
X239741Y27015D01*
X239589Y26790D01*
X239498Y26535D01*
X239468Y26250D01*
Y32250D01*
X239498Y31965D01*
X239589Y31710D01*
X239741Y31485D01*
X239953Y31290D01*
X240225Y31125D01*
X240559Y30990D01*
X240953Y30885D01*
X241384Y30814D01*
X241810Y30885D01*
X242201Y30990D01*
X242530Y31125D01*
X242801Y31290D01*
X243011Y31485D01*
X243160Y31710D01*
X243251Y31965D01*
X243281Y32250D01*
Y26250D01*
D02*
G37*
G36*
X310361Y17891D02*
X310587Y17704D01*
X310819Y17539D01*
X311058Y17396D01*
X311303Y17275D01*
X311555Y17176D01*
X311713Y17129D01*
X311830Y17160D01*
X312053Y17250D01*
X312236Y17360D01*
X312378Y17490D01*
X312480Y17640D01*
X312541Y17810D01*
X312561Y18000D01*
Y17003D01*
X312628Y17000D01*
Y15000D01*
X312561Y14997D01*
Y14000D01*
X312541Y14190D01*
X312480Y14360D01*
X312378Y14510D01*
X312236Y14640D01*
X312053Y14750D01*
X311830Y14840D01*
X311713Y14871D01*
X311555Y14824D01*
X311303Y14725D01*
X311058Y14604D01*
X310819Y14461D01*
X310587Y14296D01*
X310361Y14109D01*
X310142Y13900D01*
Y18100D01*
X310361Y17891D01*
D02*
G37*
%LPC*%
G36*
X361781Y234219D02*
Y232642D01*
X362000Y232617D01*
Y234000D01*
X361781Y234219D01*
D02*
G37*
%LPD*%
D11*
X308000Y16000D02*
X317000D01*
X287000Y42000D02*
Y45000D01*
X287000Y45000D02*
X287000Y45000D01*
Y79000D02*
Y82000D01*
X287000Y82000D02*
X287000Y82000D01*
X218000Y208000D02*
X225750D01*
X226250Y207500D01*
Y220500D02*
X237250D01*
X243250Y214500D01*
Y214000D02*
Y214500D01*
X205000Y233250D02*
X205250Y233000D01*
X214000D01*
X191750Y219750D02*
X204500D01*
X205000Y220250D01*
D16*
X348501Y183750D02*
D03*
Y206750D02*
D03*
Y229750D02*
D03*
D17*
X290000Y206750D02*
D03*
D18*
X168890Y229275D02*
D03*
X191750Y219750D02*
D03*
Y238800D02*
D03*
D19*
X333000Y16000D02*
D03*
X317000D02*
D03*
X362000D02*
D03*
X346000D02*
D03*
X366250Y230250D02*
D03*
X382250D02*
D03*
X112750Y202250D02*
D03*
X128750D02*
D03*
X247750Y29250D02*
D03*
X263750D02*
D03*
X133500Y14000D02*
D03*
X117500D02*
D03*
X78000Y155500D02*
D03*
X62000D02*
D03*
X62000Y140000D02*
D03*
X78000D02*
D03*
X78000Y67500D02*
D03*
X62000D02*
D03*
X78000Y52000D02*
D03*
X62000D02*
D03*
X78000Y36750D02*
D03*
X62000D02*
D03*
X78000Y83000D02*
D03*
X62000D02*
D03*
D20*
X385500Y27000D02*
D03*
X372500D02*
D03*
X385500Y64000D02*
D03*
X372500D02*
D03*
X17250Y201500D02*
D03*
X30250D02*
D03*
X19250Y44000D02*
D03*
X32250D02*
D03*
D21*
X287000Y45000D02*
D03*
X379000D02*
D03*
X287000Y82000D02*
D03*
X379000D02*
D03*
D22*
X375250Y182750D02*
D03*
Y215250D02*
D03*
D23*
X295000Y160000D02*
D03*
X331000D02*
D03*
D24*
X272000Y157750D02*
D03*
Y173750D02*
D03*
D25*
X205000Y233250D02*
D03*
Y220250D02*
D03*
X226250Y207500D02*
D03*
Y220500D02*
D03*
D26*
X263250Y214000D02*
D03*
X243250D02*
D03*
D27*
X118000Y185500D02*
D03*
X123000D02*
D03*
X128000D02*
D03*
X133000D02*
D03*
X138000D02*
D03*
X143000D02*
D03*
X148000D02*
D03*
X153000D02*
D03*
X158000D02*
D03*
X163000D02*
D03*
X168000D02*
D03*
X173000D02*
D03*
X178000D02*
D03*
X183000D02*
D03*
X188000D02*
D03*
X193000D02*
D03*
X198000D02*
D03*
X203000D02*
D03*
X208000D02*
D03*
X213000D02*
D03*
X218000D02*
D03*
X223000D02*
D03*
X228000D02*
D03*
X233000D02*
D03*
X238000D02*
D03*
Y31000D02*
D03*
X233000D02*
D03*
X228000D02*
D03*
X223000D02*
D03*
X218000D02*
D03*
X213000D02*
D03*
X208000D02*
D03*
X203000D02*
D03*
X198000D02*
D03*
X193000D02*
D03*
X188000D02*
D03*
X183000D02*
D03*
X178000D02*
D03*
X173000D02*
D03*
X168000D02*
D03*
X163000D02*
D03*
X158000D02*
D03*
X153000D02*
D03*
X148000D02*
D03*
X143000D02*
D03*
X138000D02*
D03*
X133000D02*
D03*
X128000D02*
D03*
X123000D02*
D03*
X118000D02*
D03*
D28*
X255250Y168250D02*
D03*
Y163250D02*
D03*
Y158250D02*
D03*
Y153250D02*
D03*
Y148250D02*
D03*
Y143250D02*
D03*
Y138250D02*
D03*
Y133250D02*
D03*
Y128250D02*
D03*
Y123250D02*
D03*
Y118250D02*
D03*
Y113250D02*
D03*
Y108250D02*
D03*
Y103250D02*
D03*
Y98250D02*
D03*
Y93250D02*
D03*
Y88250D02*
D03*
Y83250D02*
D03*
Y78250D02*
D03*
Y73250D02*
D03*
Y68250D02*
D03*
Y63250D02*
D03*
Y58250D02*
D03*
Y53250D02*
D03*
Y48250D02*
D03*
X100750D02*
D03*
Y53250D02*
D03*
Y58250D02*
D03*
Y63250D02*
D03*
Y68250D02*
D03*
Y73250D02*
D03*
Y78250D02*
D03*
Y83250D02*
D03*
Y88250D02*
D03*
Y93250D02*
D03*
Y98250D02*
D03*
Y103250D02*
D03*
Y108250D02*
D03*
Y113250D02*
D03*
Y118250D02*
D03*
Y123250D02*
D03*
Y128250D02*
D03*
Y133250D02*
D03*
Y138250D02*
D03*
Y143250D02*
D03*
Y148250D02*
D03*
Y153250D02*
D03*
Y158250D02*
D03*
Y163250D02*
D03*
Y168250D02*
D03*
D29*
X87500Y200500D02*
D03*
Y191000D02*
D03*
Y181500D02*
D03*
X64500D02*
D03*
Y191000D02*
D03*
Y200500D02*
D03*
D30*
X25500Y61001D02*
D03*
Y81001D02*
D03*
X23750Y184500D02*
D03*
Y164500D02*
D03*
D31*
X79000Y100000D02*
D03*
Y123000D02*
D03*
X60500D02*
D03*
Y100000D02*
D03*
D50*
X116715Y134500D02*
X118000D01*
X115465Y133250D02*
X116715Y134500D01*
X100750Y133250D02*
X115465D01*
X351981Y120750D02*
X359286D01*
X351927Y120696D02*
X351981Y120750D01*
X263451Y120696D02*
X351927D01*
X359286Y120750D02*
X379535Y141000D01*
X261574Y118819D02*
X263451Y120696D01*
X255819Y118819D02*
X261574D01*
X255250Y118250D02*
X255819Y118819D01*
X98000Y178000D02*
X105000Y185000D01*
Y211900D01*
X25500Y81000D02*
X37000D01*
X25500Y81001D02*
X25500Y81000D01*
X339000Y46000D02*
X356000Y63000D01*
X287981Y15875D02*
X294875D01*
X242769Y14125D02*
X286231D01*
X325000Y46000D02*
X339000D01*
X294875Y15875D02*
X325000Y46000D01*
X286231Y14125D02*
X287981Y15875D01*
X242019Y14875D02*
X242769Y14125D01*
X153000Y21875D02*
X160000Y14875D01*
X242019D01*
X153000Y21875D02*
Y31000D01*
X96000Y200500D02*
X99216Y197284D01*
Y194968D02*
Y197284D01*
Y194968D02*
X100125Y194059D01*
X87500Y200500D02*
X96000D01*
X118000Y39000D02*
X130000Y51000D01*
Y86000D01*
X118000Y31000D02*
Y39000D01*
X138000Y31000D02*
Y86000D01*
X177000Y125000D01*
X199000D01*
X105000Y211900D02*
X123600Y230500D01*
X74681Y198501D02*
X75590Y199410D01*
X74681Y196252D02*
Y198501D01*
X74000Y195571D02*
X74681Y196252D01*
X67500Y181500D02*
X74000Y188000D01*
Y195571D01*
X24250Y164000D02*
X36000D01*
X23750Y164500D02*
X24250Y164000D01*
X17000Y201750D02*
X17250Y201500D01*
X96715Y178000D02*
X98000D01*
X89875Y179125D02*
X95590D01*
X96715Y178000D01*
X87500Y181500D02*
X89875Y179125D01*
X69000Y211000D02*
X69909Y211909D01*
Y227609D01*
X72800Y230500D01*
X66625Y200500D02*
X69000Y202875D01*
X64500Y200500D02*
X66625D01*
X69000Y202875D02*
Y211000D01*
X183062Y198396D02*
X183125Y198458D01*
X183000Y185500D02*
X183062Y185562D01*
Y198396D01*
X188000Y185500D02*
Y205000D01*
X237000Y168000D02*
X248000Y179000D01*
X237000Y159000D02*
Y168000D01*
Y159000D02*
X242750Y153250D01*
X255250D01*
X130000Y86000D02*
X175000Y131000D01*
X205000Y119000D02*
X213000Y127000D01*
X205000Y173000D02*
X213000Y165000D01*
Y127000D02*
Y165000D01*
X363375Y87927D02*
X380448Y105000D01*
X255250Y58250D02*
X334555D01*
X363375Y87070D02*
Y87927D01*
X358161Y95625D02*
X379535Y117000D01*
X255250Y113250D02*
X261000D01*
X268340Y95625D02*
X358161D01*
X334555Y58250D02*
X363375Y87070D01*
X357125Y98125D02*
X382000Y123000D01*
X260965Y88250D02*
X268340Y95625D01*
X261000Y138250D02*
X263386Y135864D01*
X261000Y113250D02*
X263250Y111000D01*
X255250Y93250D02*
X261000D01*
X263386Y135864D02*
X358863D01*
X263250Y111000D02*
X358000D01*
X255250Y63250D02*
X336019D01*
X261000Y93250D02*
X265875Y98125D01*
X336019Y63250D02*
X360875Y88106D01*
X265875Y98125D02*
X357125D01*
X358863Y135864D02*
X382000Y159000D01*
X360875Y89875D02*
X382000Y111000D01*
X360875Y88106D02*
Y89875D01*
X255250Y88250D02*
X260965D01*
X255250Y138250D02*
X261000D01*
X379535Y153000D02*
X388000D01*
X359785Y133250D02*
X379535Y153000D01*
X255250Y133250D02*
X359785D01*
X358250Y123250D02*
X382000Y147000D01*
X255250Y123250D02*
X358250D01*
X379535Y141000D02*
X388000D01*
X358000Y111000D02*
X382000Y135000D01*
X379535Y129000D02*
X388000D01*
X358786Y108250D02*
X379535Y129000D01*
X255250Y108250D02*
X358786D01*
X379535Y117000D02*
X388000D01*
X380448Y105000D02*
X388000D01*
X179750Y173000D02*
X205000D01*
X329500Y19500D02*
X333000Y16000D01*
X112017Y107267D02*
X117250Y112500D01*
X100750Y103250D02*
X106500D01*
X110517Y107267D02*
X112017D01*
X106500Y103250D02*
X110517Y107267D01*
X100750Y128250D02*
X114418D01*
X115918Y126750D01*
X117000D01*
X327000Y30093D02*
Y30750D01*
Y30093D02*
X329500Y27593D01*
Y19500D02*
Y27593D01*
X333000Y16000D02*
Y16750D01*
X353000Y36750D02*
Y43750D01*
X333000Y16750D02*
X353000Y36750D01*
Y43750D02*
X372500Y63250D01*
X355500Y27250D02*
X358500Y24250D01*
Y19500D02*
X362000Y16000D01*
X358500Y19500D02*
Y24250D01*
X372500Y26250D02*
Y27750D01*
X362000Y16000D02*
Y16750D01*
X365500Y20250D02*
X366500D01*
X362000Y16750D02*
X365500Y20250D01*
X366500D02*
X372500Y26250D01*
X379000Y34250D02*
Y45000D01*
X372500Y27750D02*
X379000Y34250D01*
X372500Y75500D02*
X379000Y82000D01*
X372500Y63250D02*
Y75500D01*
X19000Y43750D02*
X19250Y44000D01*
X19000Y35000D02*
Y43750D01*
X25875Y61001D02*
X32250Y54626D01*
X25500Y61001D02*
X25875D01*
X32250Y44000D02*
Y54626D01*
X23875Y184500D02*
X30250Y190875D01*
Y201500D01*
X23750Y184500D02*
X23875D01*
X101085Y138585D02*
X111332D01*
X111874Y139127D01*
X100750Y138250D02*
X101085Y138585D01*
X47400Y190725D02*
Y230500D01*
Y190725D02*
X56625Y181500D01*
X67500D01*
X87500Y201000D02*
Y219800D01*
Y200500D02*
Y201000D01*
X238000Y190004D02*
X238808Y190812D01*
X244813D01*
X238000Y185500D02*
Y190004D01*
X244813Y190812D02*
X245000Y191000D01*
X87500Y219800D02*
X98200Y230500D01*
X175000Y131000D02*
X204000D01*
X174000Y137000D02*
X199000D01*
X122000Y85000D02*
X174000Y137000D01*
X122000Y63750D02*
Y85000D01*
X163000Y31000D02*
Y97000D01*
X179000Y113000D01*
X199000D01*
X181000Y107000D02*
X205000D01*
X168000Y94000D02*
X181000Y107000D01*
X168000Y31000D02*
Y94000D01*
X198000Y31000D02*
Y88000D01*
X205000Y95000D01*
X188000Y31000D02*
Y95000D01*
X194000Y101000D01*
X199000D01*
X106500Y153250D02*
X114750Y161500D01*
X197500D01*
X106500Y148250D02*
X113250Y155000D01*
X205000D01*
X197500Y161500D02*
X198000Y161000D01*
X161000Y149000D02*
X199000D01*
X112000Y100000D02*
X161000Y149000D01*
X117000Y96000D02*
X164000Y143000D01*
X205000D01*
X208335Y78335D02*
X209000Y79000D01*
X208335Y31335D02*
Y78335D01*
X208000Y31000D02*
X208335Y31335D01*
X213335Y69335D02*
X214000Y70000D01*
X213335Y31335D02*
Y69335D01*
X213000Y31000D02*
X213335Y31335D01*
X173572Y179178D02*
X179750Y173000D01*
X100750Y148250D02*
X106500D01*
X100750Y153250D02*
X106500D01*
X106273Y53250D02*
X117000Y63977D01*
Y96000D01*
X112000Y63977D02*
Y100000D01*
X106273Y58250D02*
X112000Y63977D01*
X106500Y48250D02*
X122000Y63750D01*
X100750Y48250D02*
X106500D01*
X100750Y53250D02*
X106273D01*
X100750Y58250D02*
X106273D01*
X173000Y185500D02*
X173572Y184928D01*
Y179178D02*
Y184928D01*
X223000Y31000D02*
Y54000D01*
X228000Y31000D02*
X228000Y31000D01*
X228000Y31000D02*
Y48000D01*
D51*
X93765Y118250D02*
X100750D01*
X90250Y121765D02*
X93765Y118250D01*
X90250Y121765D02*
Y143250D01*
X81750Y151750D02*
X90250Y143250D01*
X100750D01*
X78000Y154750D02*
Y155500D01*
Y154750D02*
X81000Y151750D01*
X81750D01*
X272750Y157750D02*
X280426Y165426D01*
X282426D02*
X283000Y166000D01*
X272000Y157750D02*
X272750D01*
X280426Y165426D02*
X282426D01*
X265750Y163250D02*
X271250Y157750D01*
X272000D01*
X255250Y163250D02*
X265750D01*
X78000Y36750D02*
Y52000D01*
Y52750D02*
X88500Y63250D01*
X78000Y52000D02*
Y52750D01*
X88500Y63250D02*
X100750D01*
Y68250D01*
X269000Y19000D02*
Y19812D01*
X263750Y29250D02*
X266750Y26250D01*
Y22062D02*
Y26250D01*
Y22062D02*
X269000Y19812D01*
X109000Y14000D02*
X117500D01*
Y14750D02*
X123000Y20250D01*
Y31000D01*
X117500Y14000D02*
Y14750D01*
X53000Y108000D02*
X53750D01*
X60500Y101250D01*
Y100000D02*
Y101250D01*
Y100000D02*
X62000Y98500D01*
X123000Y195750D02*
X128000Y200750D01*
Y203000D02*
X129000Y204000D01*
X128000Y200750D02*
Y203000D01*
X123000Y185500D02*
Y195750D01*
X62000Y52000D02*
X62000Y52000D01*
Y83000D02*
Y98500D01*
Y67500D02*
Y83000D01*
Y52000D02*
Y67500D01*
Y36750D02*
Y52000D01*
X78000Y124000D02*
Y140750D01*
X62000Y154750D02*
X68757Y147993D01*
X70757D01*
X78000Y140750D01*
Y124000D02*
X79000Y123000D01*
X89812Y71000D02*
X92062Y73250D01*
X100750D01*
X89000Y71000D02*
X89812D01*
X100750Y123250D02*
X109750D01*
X113000Y120000D01*
X149000Y230500D02*
X149613Y229888D01*
X168277D02*
X168890Y229275D01*
X79000Y84000D02*
Y100000D01*
X78000Y83000D02*
X79000Y84000D01*
X123000Y195750D02*
X128750Y201500D01*
Y202250D01*
X112750Y201500D02*
X118000Y196250D01*
Y185500D02*
Y196250D01*
X112750Y201500D02*
Y202250D01*
X255250Y168250D02*
X265750D01*
X271250Y173750D01*
X238000Y29250D02*
X247750D01*
X238000D02*
Y31000D01*
X128000Y20250D02*
Y31000D01*
Y20250D02*
X133500Y14750D01*
Y14000D02*
Y14750D01*
X88000Y78250D02*
X100750D01*
X78000Y67500D02*
Y68250D01*
X88000Y78250D01*
X60500Y138500D02*
X62000Y140000D01*
X60500Y123000D02*
Y138500D01*
X86000Y108250D02*
X100750D01*
X79000Y101250D02*
X86000Y108250D01*
X79000Y100000D02*
Y101250D01*
X60500Y121750D02*
Y123000D01*
X69000Y113250D02*
X100750D01*
X60500Y121750D02*
X69000Y113250D01*
D52*
X384021Y228479D02*
X389250D01*
X390729Y227000D01*
X382250Y230250D02*
X384021Y228479D01*
X390729Y227000D02*
X391000D01*
X330000Y161000D02*
Y176000D01*
Y161000D02*
X331000Y160000D01*
X349001Y183250D02*
X374750D01*
X348501Y183750D02*
X349001Y183250D01*
X374750D02*
X375250Y182750D01*
X348750Y230000D02*
X366000D01*
X366250Y230250D01*
X348501Y229750D02*
X348750Y230000D01*
X366250Y230250D02*
X366271Y230271D01*
X149613Y229888D02*
X168277D01*
D53*
X72800Y230500D02*
D03*
X98200D02*
D03*
X123600D02*
D03*
X149000D02*
D03*
X47400D02*
D03*
X22000D02*
D03*
D54*
X26000Y125000D02*
D03*
D55*
X118000Y134500D02*
D03*
X99000Y186000D02*
D03*
X305254Y230065D02*
D03*
X275254D02*
D03*
X260254Y200065D02*
D03*
X200254D02*
D03*
X185254Y230065D02*
D03*
X80254Y20064D02*
D03*
X65255Y170065D02*
D03*
X50255Y140064D02*
D03*
Y80064D02*
D03*
Y20064D02*
D03*
X20254D02*
D03*
X37000Y81000D02*
D03*
X382000Y11000D02*
D03*
X290000D02*
D03*
X240000Y10000D02*
D03*
X205000D02*
D03*
X172000D02*
D03*
X382324Y64109D02*
D03*
X356000Y63000D02*
D03*
X100125Y194059D02*
D03*
X101000Y33000D02*
D03*
X225000Y167000D02*
D03*
Y66000D02*
D03*
X234000Y68000D02*
D03*
X266000Y41000D02*
D03*
X307000Y40000D02*
D03*
X340000Y36000D02*
D03*
X362000Y35000D02*
D03*
X329000Y70000D02*
D03*
X271000D02*
D03*
X267000Y188000D02*
D03*
X255000Y195000D02*
D03*
X150000Y170000D02*
D03*
X118000D02*
D03*
X45000Y176000D02*
D03*
X179000Y239000D02*
D03*
X298000Y236000D02*
D03*
X269000D02*
D03*
X243000D02*
D03*
X143000Y147000D02*
D03*
X133000Y136000D02*
D03*
X124000Y148000D02*
D03*
X319000Y197000D02*
D03*
Y207000D02*
D03*
Y216000D02*
D03*
X330000Y176000D02*
D03*
X322000D02*
D03*
X283000Y166000D02*
D03*
X374000Y192000D02*
D03*
X391000Y227000D02*
D03*
Y234000D02*
D03*
X346000Y16000D02*
D03*
X308000D02*
D03*
X269000Y19000D02*
D03*
X109000Y14000D02*
D03*
X62000Y36750D02*
D03*
X62000Y52000D02*
D03*
X62000Y67500D02*
D03*
Y83000D02*
D03*
X53000Y108000D02*
D03*
X36000Y164000D02*
D03*
X129000Y204000D02*
D03*
X287000Y42000D02*
D03*
Y79000D02*
D03*
X218000Y208000D02*
D03*
X17000Y201750D02*
D03*
X64500Y191000D02*
D03*
X62000Y155500D02*
D03*
X78000Y140000D02*
D03*
X98000Y178000D02*
D03*
X77000Y208000D02*
D03*
X69000Y211000D02*
D03*
X183125Y198458D02*
D03*
X188000Y205000D02*
D03*
X180000D02*
D03*
X252000Y186000D02*
D03*
X89000Y71000D02*
D03*
X113000Y120000D02*
D03*
X366000Y192000D02*
D03*
X369000Y241000D02*
D03*
X361000D02*
D03*
X356000Y90125D02*
D03*
X361000Y77000D02*
D03*
X354000Y103000D02*
D03*
Y115875D02*
D03*
Y128375D02*
D03*
Y141000D02*
D03*
Y153000D02*
D03*
X366000Y161000D02*
D03*
X393000Y111000D02*
D03*
Y123000D02*
D03*
Y135000D02*
D03*
Y147000D02*
D03*
X390000Y161000D02*
D03*
X388000Y105000D02*
D03*
X382000Y111000D02*
D03*
X388000Y117000D02*
D03*
X382000Y123000D02*
D03*
X388000Y129000D02*
D03*
X382000Y135000D02*
D03*
X388000Y141000D02*
D03*
X382000Y147000D02*
D03*
X388000Y153000D02*
D03*
X382000Y159000D02*
D03*
X117250Y112500D02*
D03*
X117000Y126750D02*
D03*
X327000Y30750D02*
D03*
X355500Y27250D02*
D03*
X214000Y233000D02*
D03*
X19000Y35000D02*
D03*
X75590Y199410D02*
D03*
X111874Y139127D02*
D03*
X248000Y179000D02*
D03*
X245000Y191000D02*
D03*
X198000Y161000D02*
D03*
X205000Y155000D02*
D03*
X199000Y149000D02*
D03*
X205000Y143000D02*
D03*
X199000Y137000D02*
D03*
X204000Y131000D02*
D03*
X199000Y125000D02*
D03*
X205000Y119000D02*
D03*
X199000Y113000D02*
D03*
X205000Y107000D02*
D03*
X199000Y101000D02*
D03*
X205000Y95000D02*
D03*
X209000Y79000D02*
D03*
X214000Y70000D02*
D03*
X223000Y54000D02*
D03*
X228000Y48000D02*
D03*
M02*
