G04*
G04 #@! TF.GenerationSoftware,Altium Limited,Altium Designer,24.6.1 (21)*
G04*
G04 Layer_Physical_Order=3*
G04 Layer_Color=16440176*
%FSLAX44Y44*%
%MOMM*%
G71*
G04*
G04 #@! TF.SameCoordinates,4FE4A77B-1A08-46E0-B02B-12D9CABBE600*
G04*
G04*
G04 #@! TF.FilePolarity,Positive*
G04*
G01*
G75*
%ADD55C,2.0000*%
%ADD56C,0.6000*%
G36*
X470000Y347451D02*
X471799D01*
X475367Y346981D01*
X478843Y346050D01*
X482167Y344673D01*
X485284Y342874D01*
X488139Y340683D01*
X490683Y338139D01*
X492874Y335284D01*
X494673Y332168D01*
X496050Y328843D01*
X496982Y325367D01*
X497451Y321799D01*
X497451Y320000D01*
X497451Y30000D01*
Y28201D01*
X496981Y24633D01*
X496050Y21157D01*
X494673Y17833D01*
X492874Y14716D01*
X490683Y11861D01*
X488139Y9317D01*
X485284Y7126D01*
X482168Y5327D01*
X478843Y3950D01*
X475367Y3019D01*
X471799Y2549D01*
X470000Y2549D01*
X30000Y2549D01*
X28201D01*
X24633Y3018D01*
X21157Y3950D01*
X17833Y5327D01*
X14716Y7126D01*
X11861Y9317D01*
X9317Y11861D01*
X7126Y14716D01*
X5327Y17832D01*
X3950Y21157D01*
X3019Y24633D01*
X2549Y28201D01*
X2549Y30000D01*
Y320000D01*
Y321799D01*
X3018Y325367D01*
X3950Y328843D01*
X5327Y332167D01*
X7126Y335284D01*
X9317Y338139D01*
X11861Y340683D01*
X14716Y342874D01*
X17832Y344673D01*
X21157Y346050D01*
X24633Y346981D01*
X28201Y347451D01*
X30000Y347451D01*
X470000Y347451D01*
D02*
G37*
%LPC*%
G36*
X65995Y337500D02*
X64005D01*
X62168Y336739D01*
X60761Y335332D01*
X60000Y333495D01*
Y331505D01*
X60761Y329668D01*
X62168Y328261D01*
X64005Y327500D01*
X65995D01*
X67832Y328261D01*
X69239Y329668D01*
X70000Y331505D01*
Y333495D01*
X69239Y335332D01*
X67832Y336739D01*
X65995Y337500D01*
D02*
G37*
G36*
X88330Y331750D02*
X87500D01*
Y320500D01*
X98750D01*
Y321330D01*
X97932Y324382D01*
X96352Y327118D01*
X94118Y329352D01*
X91382Y330932D01*
X88330Y331750D01*
D02*
G37*
G36*
X86000D02*
X85170D01*
X82118Y330932D01*
X79382Y329352D01*
X77148Y327118D01*
X75568Y324382D01*
X74750Y321330D01*
Y320500D01*
X86000D01*
Y331750D01*
D02*
G37*
G36*
X470000Y343383D02*
X465438Y342933D01*
X461052Y341603D01*
X457009Y339442D01*
X453466Y336534D01*
X450558Y332991D01*
X448397Y328948D01*
X447067Y324562D01*
X446617Y320000D01*
X447067Y315438D01*
X448397Y311052D01*
X449098Y309741D01*
X448083Y308988D01*
X447832Y309239D01*
X445995Y310000D01*
X444005D01*
X442168Y309239D01*
X440761Y307832D01*
X440676Y307628D01*
X439324D01*
X439239Y307832D01*
X437832Y309239D01*
X435995Y310000D01*
X434005D01*
X432168Y309239D01*
X430761Y307832D01*
X430676Y307628D01*
X429324D01*
X429239Y307832D01*
X427832Y309239D01*
X425995Y310000D01*
X424005D01*
X422168Y309239D01*
X420761Y307832D01*
X420000Y305995D01*
Y304005D01*
X420761Y302168D01*
X422168Y300761D01*
X424005Y300000D01*
X425995D01*
X427832Y300761D01*
X429239Y302168D01*
X429324Y302372D01*
X430676D01*
X430761Y302168D01*
X432168Y300761D01*
X434005Y300000D01*
X435995D01*
X437832Y300761D01*
X439239Y302168D01*
X439324Y302372D01*
X440676D01*
X440761Y302168D01*
X442168Y300761D01*
X444005Y300000D01*
X445995D01*
X447832Y300761D01*
X449239Y302168D01*
X450000Y304005D01*
Y305719D01*
X450880Y306214D01*
X451155Y306282D01*
X453466Y303466D01*
X457009Y300558D01*
X461052Y298397D01*
X465438Y297067D01*
X470000Y296617D01*
X474562Y297067D01*
X478948Y298397D01*
X482991Y300558D01*
X486534Y303466D01*
X489442Y307009D01*
X491603Y311052D01*
X492933Y315438D01*
X493383Y320000D01*
X492933Y324562D01*
X491603Y328948D01*
X489442Y332991D01*
X486534Y336534D01*
X482991Y339442D01*
X478948Y341603D01*
X474562Y342933D01*
X470000Y343383D01*
D02*
G37*
G36*
X215330Y331750D02*
X212170D01*
X209118Y330932D01*
X206382Y329352D01*
X204148Y327118D01*
X202568Y324382D01*
X201750Y321330D01*
Y318170D01*
X202568Y315118D01*
X204148Y312382D01*
X206382Y310148D01*
X209118Y308568D01*
X212170Y307750D01*
X215330D01*
X218382Y308568D01*
X221118Y310148D01*
X223352Y312382D01*
X224932Y315118D01*
X225750Y318170D01*
Y321330D01*
X224932Y324382D01*
X223352Y327118D01*
X221118Y329352D01*
X218382Y330932D01*
X215330Y331750D01*
D02*
G37*
G36*
X189930D02*
X186770D01*
X183718Y330932D01*
X180982Y329352D01*
X178748Y327118D01*
X177168Y324382D01*
X176350Y321330D01*
Y318170D01*
X177168Y315118D01*
X178748Y312382D01*
X180982Y310148D01*
X183718Y308568D01*
X186770Y307750D01*
X189930D01*
X192982Y308568D01*
X195718Y310148D01*
X197952Y312382D01*
X199532Y315118D01*
X200350Y318170D01*
Y321330D01*
X199532Y324382D01*
X197952Y327118D01*
X195718Y329352D01*
X192982Y330932D01*
X189930Y331750D01*
D02*
G37*
G36*
X164530D02*
X161370D01*
X158318Y330932D01*
X155582Y329352D01*
X153348Y327118D01*
X151768Y324382D01*
X150950Y321330D01*
Y318170D01*
X151768Y315118D01*
X153348Y312382D01*
X155582Y310148D01*
X158318Y308568D01*
X161370Y307750D01*
X164530D01*
X167582Y308568D01*
X170318Y310148D01*
X172552Y312382D01*
X174132Y315118D01*
X174950Y318170D01*
Y321330D01*
X174132Y324382D01*
X172552Y327118D01*
X170318Y329352D01*
X167582Y330932D01*
X164530Y331750D01*
D02*
G37*
G36*
X139130D02*
X135970D01*
X132918Y330932D01*
X130182Y329352D01*
X127948Y327118D01*
X126368Y324382D01*
X125550Y321330D01*
Y318170D01*
X126368Y315118D01*
X127948Y312382D01*
X130182Y310148D01*
X132918Y308568D01*
X135970Y307750D01*
X139130D01*
X142182Y308568D01*
X144918Y310148D01*
X147152Y312382D01*
X148732Y315118D01*
X149550Y318170D01*
Y321330D01*
X148732Y324382D01*
X147152Y327118D01*
X144918Y329352D01*
X142182Y330932D01*
X139130Y331750D01*
D02*
G37*
G36*
X113730D02*
X110570D01*
X107518Y330932D01*
X104782Y329352D01*
X102548Y327118D01*
X100968Y324382D01*
X100150Y321330D01*
Y318170D01*
X100968Y315118D01*
X102548Y312382D01*
X104782Y310148D01*
X107518Y308568D01*
X110570Y307750D01*
X113730D01*
X116782Y308568D01*
X119518Y310148D01*
X121752Y312382D01*
X123332Y315118D01*
X124150Y318170D01*
Y321330D01*
X123332Y324382D01*
X121752Y327118D01*
X119518Y329352D01*
X116782Y330932D01*
X113730Y331750D01*
D02*
G37*
G36*
X98750Y319000D02*
X87500D01*
Y307750D01*
X88330D01*
X91382Y308568D01*
X94118Y310148D01*
X96352Y312382D01*
X97932Y315118D01*
X98750Y318170D01*
Y319000D01*
D02*
G37*
G36*
X86000D02*
X74750D01*
Y318170D01*
X75568Y315118D01*
X77148Y312382D01*
X79382Y310148D01*
X82118Y308568D01*
X85170Y307750D01*
X86000D01*
Y319000D01*
D02*
G37*
G36*
X65995Y317500D02*
X64005D01*
X62168Y316739D01*
X60761Y315332D01*
X60000Y313495D01*
Y311505D01*
X60761Y309668D01*
X62168Y308261D01*
X64005Y307500D01*
X65995D01*
X67832Y308261D01*
X69239Y309668D01*
X70000Y311505D01*
Y313495D01*
X69239Y315332D01*
X67832Y316739D01*
X65995Y317500D01*
D02*
G37*
G36*
X395245Y306750D02*
X393255D01*
X391418Y305989D01*
X390011Y304582D01*
X389250Y302745D01*
Y300755D01*
X390011Y298918D01*
X391418Y297511D01*
X393255Y296750D01*
X395245D01*
X397082Y297511D01*
X398489Y298918D01*
X399250Y300755D01*
Y302745D01*
X398489Y304582D01*
X397082Y305989D01*
X395245Y306750D01*
D02*
G37*
G36*
X30000Y343383D02*
X25438Y342933D01*
X21052Y341603D01*
X17009Y339442D01*
X13466Y336534D01*
X10558Y332991D01*
X8397Y328948D01*
X7067Y324562D01*
X6617Y320000D01*
X7067Y315438D01*
X8397Y311052D01*
X10558Y307009D01*
X13466Y303466D01*
X17009Y300558D01*
X21052Y298397D01*
X25438Y297067D01*
X30000Y296617D01*
X34562Y297067D01*
X38948Y298397D01*
X42991Y300558D01*
X46534Y303466D01*
X49442Y307009D01*
X51603Y311052D01*
X52933Y315438D01*
X53383Y320000D01*
X52933Y324562D01*
X51603Y328948D01*
X49442Y332991D01*
X46534Y336534D01*
X42991Y339442D01*
X38948Y341603D01*
X34562Y342933D01*
X30000Y343383D01*
D02*
G37*
G36*
X369745Y306250D02*
X367755D01*
X365918Y305489D01*
X364511Y304082D01*
X363750Y302245D01*
Y300255D01*
X364511Y298418D01*
X365918Y297011D01*
X367755Y296250D01*
X369745D01*
X371582Y297011D01*
X372989Y298418D01*
X373750Y300255D01*
Y302245D01*
X372989Y304082D01*
X371582Y305489D01*
X369745Y306250D01*
D02*
G37*
G36*
X490995Y295000D02*
X489005D01*
X487168Y294239D01*
X485761Y292832D01*
X485676Y292628D01*
X484324D01*
X484239Y292832D01*
X482832Y294239D01*
X480995Y295000D01*
X479005D01*
X477168Y294239D01*
X475761Y292832D01*
X475000Y290995D01*
Y289005D01*
X475761Y287168D01*
X477168Y285761D01*
X479005Y285000D01*
X480995D01*
X481279Y285118D01*
X481987Y284058D01*
X480761Y282832D01*
X480000Y280995D01*
Y279005D01*
X480761Y277168D01*
X482168Y275761D01*
X484005Y275000D01*
X485995D01*
X487832Y275761D01*
X489239Y277168D01*
X490000Y279005D01*
Y280995D01*
X489239Y282832D01*
X488013Y284058D01*
X488721Y285118D01*
X489005Y285000D01*
X490995D01*
X492832Y285761D01*
X494239Y287168D01*
X495000Y289005D01*
Y290995D01*
X494239Y292832D01*
X492832Y294239D01*
X490995Y295000D01*
D02*
G37*
G36*
X75995Y302500D02*
X74005D01*
X72168Y301739D01*
X70761Y300332D01*
X70000Y298495D01*
Y296505D01*
X70761Y294668D01*
X72168Y293261D01*
X74005Y292500D01*
X75995D01*
X77832Y293261D01*
X79239Y294668D01*
X80000Y296505D01*
Y298495D01*
X79239Y300332D01*
X77832Y301739D01*
X75995Y302500D01*
D02*
G37*
G36*
X55995D02*
X54005D01*
X52168Y301739D01*
X50761Y300332D01*
X50000Y298495D01*
Y296505D01*
X50761Y294668D01*
X52168Y293261D01*
X54005Y292500D01*
X55995D01*
X57832Y293261D01*
X59239Y294668D01*
X60000Y296505D01*
Y298495D01*
X59239Y300332D01*
X57832Y301739D01*
X55995Y302500D01*
D02*
G37*
G36*
X394995Y286250D02*
X393005D01*
X391168Y285489D01*
X389761Y284082D01*
X389000Y282245D01*
Y280255D01*
X389761Y278418D01*
X391168Y277011D01*
X393005Y276250D01*
X394995D01*
X396832Y277011D01*
X398239Y278418D01*
X399000Y280255D01*
Y282245D01*
X398239Y284082D01*
X396832Y285489D01*
X394995Y286250D01*
D02*
G37*
G36*
X356745D02*
X354756D01*
X352918Y285489D01*
X351511Y284082D01*
X350750Y282245D01*
Y280255D01*
X351511Y278418D01*
X352918Y277011D01*
X354756Y276250D01*
X356745D01*
X358582Y277011D01*
X359989Y278418D01*
X360750Y280255D01*
Y282245D01*
X359989Y284082D01*
X358582Y285489D01*
X356745Y286250D01*
D02*
G37*
G36*
X273245Y285000D02*
X271255D01*
X269418Y284239D01*
X268011Y282832D01*
X267250Y280995D01*
Y279005D01*
X268011Y277168D01*
X269418Y275761D01*
X271255Y275000D01*
X273245D01*
X275082Y275761D01*
X276489Y277168D01*
X277250Y279005D01*
Y280995D01*
X276489Y282832D01*
X275082Y284239D01*
X273245Y285000D01*
D02*
G37*
G36*
X72245Y283000D02*
X70255D01*
X68418Y282239D01*
X67011Y280832D01*
X66250Y278995D01*
Y277005D01*
X67011Y275168D01*
X68418Y273761D01*
X70255Y273000D01*
X72245D01*
X74082Y273761D01*
X75489Y275168D01*
X76250Y277005D01*
Y278995D01*
X75489Y280832D01*
X74082Y282239D01*
X72245Y283000D01*
D02*
G37*
G36*
X307995Y282250D02*
X306005D01*
X304168Y281489D01*
X302761Y280082D01*
X302000Y278245D01*
Y276255D01*
X302761Y274418D01*
X304168Y273011D01*
X306005Y272250D01*
X307995D01*
X309832Y273011D01*
X311239Y274418D01*
X312000Y276255D01*
Y278245D01*
X311239Y280082D01*
X309832Y281489D01*
X307995Y282250D01*
D02*
G37*
G36*
X182495Y274750D02*
X180505D01*
X178668Y273989D01*
X177261Y272582D01*
X176500Y270745D01*
Y268755D01*
X177261Y266918D01*
X178668Y265511D01*
X180505Y264750D01*
X182495D01*
X184332Y265511D01*
X185739Y266918D01*
X186500Y268755D01*
Y270745D01*
X185739Y272582D01*
X184332Y273989D01*
X182495Y274750D01*
D02*
G37*
G36*
X128495Y277750D02*
X126505D01*
X124668Y276989D01*
X123261Y275582D01*
X122500Y273745D01*
Y271755D01*
X123261Y269918D01*
X124668Y268511D01*
X126505Y267750D01*
X128495D01*
X130332Y268511D01*
X130798Y268976D01*
X132509Y268920D01*
X133168Y268261D01*
X135005Y267500D01*
X136995D01*
X138832Y268261D01*
X140239Y269668D01*
X140500Y270298D01*
X141750Y270050D01*
Y270005D01*
X142511Y268168D01*
X143918Y266761D01*
X145755Y266000D01*
X147745D01*
X149582Y266761D01*
X150500Y267679D01*
X151668Y266511D01*
X153505Y265750D01*
X155495D01*
X157332Y266511D01*
X158739Y267918D01*
X158741Y267924D01*
X160094D01*
X160511Y266918D01*
X161918Y265511D01*
X163755Y264750D01*
X165745D01*
X167582Y265511D01*
X168989Y266918D01*
X169750Y268755D01*
Y270745D01*
X168989Y272582D01*
X167582Y273989D01*
X165745Y274750D01*
X163755D01*
X161918Y273989D01*
X160511Y272582D01*
X160509Y272576D01*
X159156D01*
X158739Y273582D01*
X157332Y274989D01*
X155495Y275750D01*
X153505D01*
X151668Y274989D01*
X150750Y274071D01*
X149582Y275239D01*
X147745Y276000D01*
X145755D01*
X143918Y275239D01*
X142511Y273832D01*
X142250Y273202D01*
X141000Y273450D01*
Y273495D01*
X140239Y275332D01*
X138832Y276739D01*
X136995Y277500D01*
X135005D01*
X133168Y276739D01*
X132703Y276274D01*
X130991Y276330D01*
X130332Y276989D01*
X128495Y277750D01*
D02*
G37*
G36*
X460995Y265000D02*
X459005D01*
X457168Y264239D01*
X455761Y262832D01*
X455676Y262628D01*
X454324D01*
X454239Y262832D01*
X452832Y264239D01*
X450995Y265000D01*
X449005D01*
X447168Y264239D01*
X445761Y262832D01*
X445625Y262504D01*
X444375D01*
X444239Y262832D01*
X442832Y264239D01*
X440995Y265000D01*
X439005D01*
X437168Y264239D01*
X435761Y262832D01*
X435676Y262628D01*
X434324D01*
X434239Y262832D01*
X432832Y264239D01*
X430995Y265000D01*
X429005D01*
X427168Y264239D01*
X425761Y262832D01*
X425000Y260995D01*
Y259005D01*
X425761Y257168D01*
X427168Y255761D01*
X429005Y255000D01*
X430995D01*
X431279Y255118D01*
X431987Y254058D01*
X430761Y252832D01*
X430000Y250995D01*
Y249005D01*
X430761Y247168D01*
X432168Y245761D01*
X434005Y245000D01*
X435995D01*
X437832Y245761D01*
X439239Y247168D01*
X439324Y247372D01*
X440676D01*
X440761Y247168D01*
X442168Y245761D01*
X444005Y245000D01*
X445995D01*
X446279Y245118D01*
X446987Y244058D01*
X445761Y242832D01*
X445000Y240995D01*
Y239005D01*
X445761Y237168D01*
X447168Y235761D01*
X449005Y235000D01*
X450995D01*
X452832Y235761D01*
X454239Y237168D01*
X454324Y237372D01*
X455676D01*
X455761Y237168D01*
X457168Y235761D01*
X459005Y235000D01*
X460995D01*
X462832Y235761D01*
X464239Y237168D01*
X465000Y239005D01*
Y240995D01*
X464239Y242832D01*
X463013Y244058D01*
X463721Y245118D01*
X464005Y245000D01*
X465995D01*
X467832Y245761D01*
X469239Y247168D01*
X470000Y249005D01*
Y250995D01*
X469239Y252832D01*
X467832Y254239D01*
X465995Y255000D01*
X464005D01*
X463721Y254882D01*
X463013Y255942D01*
X464239Y257168D01*
X465000Y259005D01*
Y260995D01*
X464239Y262832D01*
X462832Y264239D01*
X460995Y265000D01*
D02*
G37*
G36*
X71995Y261750D02*
X70005D01*
X68168Y260989D01*
X66761Y259582D01*
X66000Y257745D01*
Y255755D01*
X66761Y253918D01*
X68168Y252511D01*
X70005Y251750D01*
X71995D01*
X73832Y252511D01*
X75239Y253918D01*
X76000Y255755D01*
Y257745D01*
X75239Y259582D01*
X73832Y260989D01*
X71995Y261750D01*
D02*
G37*
G36*
X245412Y258239D02*
X243423D01*
X241585Y257478D01*
X240179Y256071D01*
X239418Y254233D01*
Y252244D01*
X240179Y250406D01*
X241585Y249000D01*
X243423Y248239D01*
X245412D01*
X247250Y249000D01*
X248657Y250406D01*
X249418Y252244D01*
Y254233D01*
X248657Y256071D01*
X247250Y257478D01*
X245412Y258239D01*
D02*
G37*
G36*
X402745Y251500D02*
X400755D01*
X398918Y250739D01*
X397511Y249332D01*
X396750Y247495D01*
Y245505D01*
X397511Y243668D01*
X398918Y242261D01*
X400755Y241500D01*
X402745D01*
X404582Y242261D01*
X405989Y243668D01*
X406750Y245505D01*
Y247495D01*
X405989Y249332D01*
X404582Y250739D01*
X402745Y251500D01*
D02*
G37*
G36*
X389745Y251250D02*
X387755D01*
X385918Y250489D01*
X384511Y249082D01*
X383750Y247245D01*
Y245255D01*
X384511Y243418D01*
X385918Y242011D01*
X387755Y241250D01*
X389745D01*
X391582Y242011D01*
X392989Y243418D01*
X393750Y245255D01*
Y247245D01*
X392989Y249082D01*
X391582Y250489D01*
X389745Y251250D01*
D02*
G37*
G36*
X199990Y250500D02*
X198001D01*
X196163Y249739D01*
X194757Y248332D01*
X193996Y246495D01*
Y244505D01*
X194757Y242668D01*
X196163Y241261D01*
X198001Y240500D01*
X199990D01*
X201828Y241261D01*
X203235Y242668D01*
X203996Y244505D01*
Y246495D01*
X203235Y248332D01*
X201828Y249739D01*
X199990Y250500D01*
D02*
G37*
G36*
X417995Y248000D02*
X416005D01*
X414168Y247239D01*
X412761Y245832D01*
X412000Y243995D01*
Y242005D01*
X412336Y241194D01*
X411380Y240237D01*
X410745Y240500D01*
X408755D01*
X406918Y239739D01*
X405511Y238332D01*
X404750Y236495D01*
Y234505D01*
X405511Y232668D01*
X406918Y231261D01*
X408755Y230500D01*
X410745D01*
X412582Y231261D01*
X413989Y232668D01*
X414750Y234505D01*
Y236495D01*
X414414Y237306D01*
X415370Y238263D01*
X416005Y238000D01*
X417995D01*
X419832Y238761D01*
X421239Y240168D01*
X422000Y242005D01*
Y243995D01*
X421239Y245832D01*
X419832Y247239D01*
X417995Y248000D01*
D02*
G37*
G36*
X320745Y249500D02*
X318755D01*
X316918Y248739D01*
X315511Y247332D01*
X314750Y245495D01*
Y243505D01*
X315511Y241668D01*
X316918Y240261D01*
X318755Y239500D01*
X320745D01*
X322582Y240261D01*
X323989Y241668D01*
X324573Y243079D01*
X324767Y243108D01*
X325875Y242954D01*
X326511Y241418D01*
X327918Y240011D01*
X329755Y239250D01*
X331745D01*
X333582Y240011D01*
X334989Y241418D01*
X335750Y243255D01*
Y245245D01*
X334989Y247082D01*
X333582Y248489D01*
X331745Y249250D01*
X329755D01*
X327918Y248489D01*
X326511Y247082D01*
X325927Y245671D01*
X325733Y245642D01*
X324625Y245796D01*
X323989Y247332D01*
X322582Y248739D01*
X320745Y249500D01*
D02*
G37*
G36*
X190995Y240000D02*
X189005D01*
X187168Y239239D01*
X185761Y237832D01*
X185000Y235995D01*
Y234006D01*
X185761Y232168D01*
X187168Y230761D01*
X189005Y230000D01*
X190995D01*
X192832Y230761D01*
X194239Y232168D01*
X195000Y234006D01*
Y235995D01*
X194239Y237832D01*
X192832Y239239D01*
X190995Y240000D01*
D02*
G37*
G36*
X165995D02*
X164005D01*
X162168Y239239D01*
X160761Y237832D01*
X160000Y235995D01*
Y234006D01*
X160761Y232168D01*
X162168Y230761D01*
X164005Y230000D01*
X165995D01*
X167832Y230761D01*
X169239Y232168D01*
X170000Y234006D01*
Y235995D01*
X169239Y237832D01*
X167832Y239239D01*
X165995Y240000D01*
D02*
G37*
G36*
X375495Y234500D02*
X373505D01*
X371668Y233739D01*
X370261Y232332D01*
X369500Y230495D01*
Y228505D01*
X370261Y226668D01*
X371668Y225261D01*
X373505Y224500D01*
X375495D01*
X377332Y225261D01*
X378739Y226668D01*
X379500Y228505D01*
Y230495D01*
X378739Y232332D01*
X377332Y233739D01*
X375495Y234500D01*
D02*
G37*
G36*
X399995Y232750D02*
X398005D01*
X396168Y231989D01*
X394761Y230582D01*
X394000Y228745D01*
Y226755D01*
X394761Y224918D01*
X396168Y223511D01*
X398005Y222750D01*
X399995D01*
X401832Y223511D01*
X403239Y224918D01*
X404000Y226755D01*
Y228745D01*
X403239Y230582D01*
X401832Y231989D01*
X399995Y232750D01*
D02*
G37*
G36*
X355995Y232500D02*
X354005D01*
X352168Y231739D01*
X350761Y230332D01*
X350000Y228495D01*
Y226505D01*
X350761Y224668D01*
X352168Y223261D01*
X354005Y222500D01*
X355995D01*
X357832Y223261D01*
X359239Y224668D01*
X360000Y226505D01*
Y228495D01*
X359239Y230332D01*
X357832Y231739D01*
X355995Y232500D01*
D02*
G37*
G36*
X217493Y231125D02*
X215504D01*
X213667Y230364D01*
X212260Y228957D01*
X211499Y227120D01*
Y225130D01*
X212260Y223293D01*
X213667Y221886D01*
X215504Y221125D01*
X217493D01*
X219331Y221886D01*
X220738Y223293D01*
X221499Y225130D01*
Y227120D01*
X220738Y228957D01*
X219331Y230364D01*
X217493Y231125D01*
D02*
G37*
G36*
X305744Y229500D02*
X303755D01*
X301918Y228739D01*
X300511Y227332D01*
X299750Y225495D01*
Y223505D01*
X300511Y221668D01*
X301918Y220261D01*
X303755Y219500D01*
X305744D01*
X307582Y220261D01*
X308989Y221668D01*
X309750Y223505D01*
Y225495D01*
X308989Y227332D01*
X307582Y228739D01*
X305744Y229500D01*
D02*
G37*
G36*
X140495Y229000D02*
X138505D01*
X136668Y228239D01*
X135261Y226832D01*
X134500Y224995D01*
Y223005D01*
X135261Y221168D01*
X136668Y219761D01*
X138505Y219000D01*
X140495D01*
X142332Y219761D01*
X143739Y221168D01*
X144500Y223005D01*
Y224995D01*
X143739Y226832D01*
X142332Y228239D01*
X140495Y229000D01*
D02*
G37*
G36*
X469495Y237000D02*
X467505D01*
X465668Y236239D01*
X464261Y234832D01*
X463500Y232995D01*
Y231005D01*
X464261Y229168D01*
X465668Y227761D01*
X466778Y227302D01*
Y225949D01*
X465668Y225489D01*
X464261Y224082D01*
X463500Y222245D01*
Y220255D01*
X464261Y218418D01*
X465668Y217011D01*
X467505Y216250D01*
X469495D01*
X471332Y217011D01*
X472739Y218418D01*
X473500Y220255D01*
Y222245D01*
X472739Y224082D01*
X471332Y225489D01*
X470223Y225949D01*
Y227302D01*
X471332Y227761D01*
X472739Y229168D01*
X473500Y231005D01*
Y232995D01*
X472739Y234832D01*
X471332Y236239D01*
X469495Y237000D01*
D02*
G37*
G36*
X205995Y220000D02*
X204005D01*
X202168Y219239D01*
X200761Y217832D01*
X200000Y215995D01*
Y214005D01*
X200761Y212168D01*
X202168Y210761D01*
X204005Y210000D01*
X205995D01*
X207832Y210761D01*
X209239Y212168D01*
X210000Y214005D01*
Y215995D01*
X209239Y217832D01*
X207832Y219239D01*
X205995Y220000D01*
D02*
G37*
G36*
X180995D02*
X179005D01*
X177168Y219239D01*
X175761Y217832D01*
X175000Y215995D01*
Y214005D01*
X175761Y212168D01*
X177168Y210761D01*
X179005Y210000D01*
X180995D01*
X182832Y210761D01*
X184239Y212168D01*
X185000Y214005D01*
Y215995D01*
X184239Y217832D01*
X182832Y219239D01*
X180995Y220000D01*
D02*
G37*
G36*
X227995Y213750D02*
X226005D01*
X224168Y212989D01*
X222761Y211582D01*
X222000Y209745D01*
Y207755D01*
X222761Y205918D01*
X224168Y204511D01*
X226005Y203750D01*
X227995D01*
X229832Y204511D01*
X231239Y205918D01*
X232000Y207755D01*
Y209745D01*
X231239Y211582D01*
X229832Y212989D01*
X227995Y213750D01*
D02*
G37*
G36*
X103245Y216250D02*
X101255D01*
X99418Y215489D01*
X98011Y214082D01*
X97250Y212245D01*
Y210255D01*
X98011Y208418D01*
X99418Y207011D01*
X101255Y206250D01*
X102376D01*
Y205129D01*
X103138Y203291D01*
X104544Y201885D01*
X106382Y201124D01*
X108371D01*
X110209Y201885D01*
X111615Y203291D01*
X112376Y205129D01*
Y207118D01*
X111615Y208956D01*
X110209Y210362D01*
X108371Y211124D01*
X107250D01*
Y212245D01*
X106489Y214082D01*
X105082Y215489D01*
X103245Y216250D01*
D02*
G37*
G36*
X125995Y205000D02*
X124005D01*
X122168Y204239D01*
X120761Y202832D01*
X120000Y200995D01*
Y199005D01*
X120761Y197168D01*
X122168Y195761D01*
X124005Y195000D01*
X125995D01*
X127832Y195761D01*
X129239Y197168D01*
X130000Y199005D01*
Y200995D01*
X129239Y202832D01*
X127832Y204239D01*
X125995Y205000D01*
D02*
G37*
G36*
X200995Y200000D02*
X199005D01*
X197168Y199239D01*
X195761Y197832D01*
X195000Y195995D01*
Y194005D01*
X195761Y192168D01*
X197168Y190761D01*
X199005Y190000D01*
X200995D01*
X202832Y190761D01*
X204239Y192168D01*
X205000Y194005D01*
Y195995D01*
X204239Y197832D01*
X202832Y199239D01*
X200995Y200000D01*
D02*
G37*
G36*
X374017Y198636D02*
X372028D01*
X370190Y197875D01*
X368784Y196468D01*
X368023Y194631D01*
Y192642D01*
X368784Y190804D01*
X370190Y189397D01*
X372028Y188636D01*
X374017D01*
X375855Y189397D01*
X377262Y190804D01*
X378023Y192642D01*
Y194631D01*
X377262Y196468D01*
X375855Y197875D01*
X374017Y198636D01*
D02*
G37*
G36*
X222745Y195750D02*
X220755D01*
X218918Y194989D01*
X217511Y193582D01*
X216750Y191745D01*
Y189755D01*
X217511Y187918D01*
X218918Y186511D01*
X220755Y185750D01*
X222745D01*
X224582Y186511D01*
X225989Y187918D01*
X226750Y189755D01*
Y191745D01*
X225989Y193582D01*
X224582Y194989D01*
X222745Y195750D01*
D02*
G37*
G36*
X140995Y190000D02*
X139005D01*
X137168Y189239D01*
X135761Y187832D01*
X135000Y185995D01*
Y184005D01*
X135761Y182168D01*
X137168Y180761D01*
X139005Y180000D01*
X140995D01*
X142832Y180761D01*
X144239Y182168D01*
X145000Y184005D01*
Y185995D01*
X144239Y187832D01*
X142832Y189239D01*
X140995Y190000D01*
D02*
G37*
G36*
X120995Y185000D02*
X119005D01*
X117168Y184239D01*
X115761Y182832D01*
X115000Y180995D01*
Y179005D01*
X115761Y177168D01*
X117168Y175761D01*
X119005Y175000D01*
X120995D01*
X122832Y175761D01*
X124239Y177168D01*
X125000Y179005D01*
Y180995D01*
X124239Y182832D01*
X122832Y184239D01*
X120995Y185000D01*
D02*
G37*
G36*
X104245Y180750D02*
X102255D01*
X100418Y179989D01*
X99011Y178582D01*
X98250Y176745D01*
Y174755D01*
X99011Y172918D01*
X100418Y171511D01*
X102255Y170750D01*
X104245D01*
X106082Y171511D01*
X107489Y172918D01*
X108250Y174755D01*
Y176745D01*
X107489Y178582D01*
X106082Y179989D01*
X104245Y180750D01*
D02*
G37*
G36*
X349745Y180000D02*
X347755D01*
X345918Y179239D01*
X344511Y177832D01*
X343750Y175995D01*
Y174005D01*
X344511Y172168D01*
X345918Y170761D01*
X347755Y170000D01*
X349745D01*
X351582Y170761D01*
X352989Y172168D01*
X353750Y174005D01*
Y175995D01*
X352989Y177832D01*
X351582Y179239D01*
X349745Y180000D01*
D02*
G37*
G36*
X387995Y179250D02*
X386005D01*
X384168Y178489D01*
X382761Y177082D01*
X382000Y175245D01*
Y173255D01*
X382761Y171418D01*
X384168Y170011D01*
X386005Y169250D01*
X387995D01*
X389832Y170011D01*
X391239Y171418D01*
X392000Y173255D01*
Y175245D01*
X391239Y177082D01*
X389832Y178489D01*
X387995Y179250D01*
D02*
G37*
G36*
X231495Y185500D02*
X229505D01*
X227668Y184739D01*
X226261Y183332D01*
X225500Y181495D01*
Y179505D01*
X226261Y177668D01*
X227668Y176261D01*
X227872Y176176D01*
Y174823D01*
X227668Y174739D01*
X226261Y173332D01*
X225500Y171495D01*
Y169505D01*
X226261Y167668D01*
X227668Y166261D01*
X229505Y165500D01*
X231495D01*
X233332Y166261D01*
X234739Y167668D01*
X235500Y169505D01*
Y171495D01*
X234739Y173332D01*
X233332Y174739D01*
X233128Y174823D01*
Y176176D01*
X233332Y176261D01*
X234739Y177668D01*
X235500Y179505D01*
Y181495D01*
X234739Y183332D01*
X233332Y184739D01*
X231495Y185500D01*
D02*
G37*
G36*
X160995Y170000D02*
X159005D01*
X157168Y169239D01*
X155761Y167832D01*
X155000Y165995D01*
Y164005D01*
X155761Y162168D01*
X157168Y160761D01*
X159005Y160000D01*
X160995D01*
X162832Y160761D01*
X164239Y162168D01*
X165000Y164005D01*
Y165995D01*
X164239Y167832D01*
X162832Y169239D01*
X160995Y170000D01*
D02*
G37*
G36*
X256495Y165500D02*
X254505D01*
X252668Y164739D01*
X251261Y163332D01*
X250500Y161495D01*
Y159505D01*
X251261Y157668D01*
X252668Y156261D01*
X254505Y155500D01*
X256495D01*
X258332Y156261D01*
X259739Y157668D01*
X260500Y159505D01*
Y161495D01*
X259739Y163332D01*
X258332Y164739D01*
X256495Y165500D01*
D02*
G37*
G36*
X300749Y156754D02*
X298760D01*
X296922Y155993D01*
X295516Y154587D01*
X294755Y152749D01*
Y150760D01*
X295516Y148922D01*
X296922Y147516D01*
X298760Y146755D01*
X300749D01*
X302587Y147516D01*
X303993Y148922D01*
X304755Y150760D01*
Y152749D01*
X303993Y154587D01*
X302587Y155993D01*
X300749Y156754D01*
D02*
G37*
G36*
X215495Y155250D02*
X213505D01*
X211668Y154489D01*
X210261Y153082D01*
X209500Y151245D01*
Y149255D01*
X210261Y147418D01*
X211668Y146011D01*
X213505Y145250D01*
X215495D01*
X217332Y146011D01*
X218739Y147418D01*
X219500Y149255D01*
Y151245D01*
X218739Y153082D01*
X217332Y154489D01*
X215495Y155250D01*
D02*
G37*
G36*
X180995Y150000D02*
X179005D01*
X177168Y149239D01*
X175761Y147832D01*
X175000Y145995D01*
Y144005D01*
X175761Y142168D01*
X177168Y140761D01*
X179005Y140000D01*
X180995D01*
X182832Y140761D01*
X184239Y142168D01*
X185000Y144005D01*
Y145995D01*
X184239Y147832D01*
X182832Y149239D01*
X180995Y150000D01*
D02*
G37*
G36*
X229500Y149750D02*
X227511D01*
X225673Y148989D01*
X224267Y147582D01*
X223505Y145745D01*
Y143755D01*
X224267Y141918D01*
X225673Y140511D01*
X227511Y139750D01*
X229500D01*
X231338Y140511D01*
X232744Y141918D01*
X233505Y143755D01*
Y145745D01*
X232744Y147582D01*
X231338Y148989D01*
X229500Y149750D01*
D02*
G37*
G36*
X423919Y147750D02*
X421930D01*
X420092Y146989D01*
X418685Y145582D01*
X417924Y143745D01*
Y141755D01*
X418685Y139918D01*
X420092Y138511D01*
X421930Y137750D01*
X423919D01*
X425756Y138511D01*
X427163Y139918D01*
X427924Y141755D01*
Y143745D01*
X427163Y145582D01*
X425756Y146989D01*
X423919Y147750D01*
D02*
G37*
G36*
X330586Y146395D02*
X328596D01*
X326759Y145634D01*
X325352Y144228D01*
X324591Y142390D01*
Y140401D01*
X325352Y138563D01*
X326759Y137157D01*
X328596Y136395D01*
X330586D01*
X332423Y137157D01*
X333830Y138563D01*
X334591Y140401D01*
Y142390D01*
X333830Y144228D01*
X332423Y145634D01*
X330586Y146395D01*
D02*
G37*
G36*
X223495Y137750D02*
X221505D01*
X219668Y136989D01*
X218261Y135582D01*
X217500Y133745D01*
Y131755D01*
X218261Y129918D01*
X219668Y128511D01*
X221505Y127750D01*
X223495D01*
X225332Y128511D01*
X226739Y129918D01*
X227500Y131755D01*
Y133745D01*
X226739Y135582D01*
X225332Y136989D01*
X223495Y137750D01*
D02*
G37*
G36*
X301245Y122750D02*
X299255D01*
X297418Y121989D01*
X296567Y121138D01*
X295750Y120717D01*
X294933Y121138D01*
X294082Y121989D01*
X292245Y122750D01*
X290255D01*
X288418Y121989D01*
X287011Y120582D01*
X286250Y118745D01*
Y116755D01*
X287011Y114918D01*
X288418Y113511D01*
X290255Y112750D01*
X292245D01*
X294082Y113511D01*
X294933Y114362D01*
X295750Y114783D01*
X296567Y114362D01*
X297418Y113511D01*
X299255Y112750D01*
X301245D01*
X303082Y113511D01*
X304489Y114918D01*
X305250Y116755D01*
Y118745D01*
X304489Y120582D01*
X303082Y121989D01*
X301245Y122750D01*
D02*
G37*
G36*
X133245Y121750D02*
X131255D01*
X129418Y120989D01*
X128317Y119888D01*
X128004Y119584D01*
X126755Y119816D01*
X126082Y120489D01*
X124245Y121250D01*
X122255D01*
X120418Y120489D01*
X119011Y119082D01*
X118250Y117245D01*
Y115255D01*
X119011Y113418D01*
X120418Y112011D01*
X122255Y111250D01*
X124245D01*
X126082Y112011D01*
X127183Y113112D01*
X127496Y113416D01*
X128745Y113184D01*
X129418Y112511D01*
X131255Y111750D01*
X133245D01*
X135082Y112511D01*
X136489Y113918D01*
X137250Y115755D01*
Y117745D01*
X136489Y119582D01*
X135082Y120989D01*
X133245Y121750D01*
D02*
G37*
G36*
X213495Y127750D02*
X211505D01*
X209668Y126989D01*
X208261Y125582D01*
X207500Y123745D01*
Y121756D01*
X208261Y119918D01*
X209668Y118511D01*
X211505Y117750D01*
X213495D01*
X215332Y118511D01*
X216739Y119918D01*
X217500Y121756D01*
Y123745D01*
X216739Y125582D01*
X215332Y126989D01*
X213495Y127750D01*
D02*
G37*
G36*
X104995Y135750D02*
X103005D01*
X101168Y134989D01*
X99761Y133582D01*
X99000Y131745D01*
Y129755D01*
X99761Y127918D01*
X101038Y126641D01*
X101070Y125302D01*
X100918Y125239D01*
X99511Y123832D01*
X98750Y121995D01*
Y120005D01*
X99511Y118168D01*
X100918Y116761D01*
X102755Y116000D01*
X104745D01*
X106582Y116761D01*
X107989Y118168D01*
X108750Y120005D01*
Y121995D01*
X107989Y123832D01*
X106713Y125109D01*
X106680Y126448D01*
X106832Y126511D01*
X108239Y127918D01*
X109000Y129755D01*
Y131745D01*
X108239Y133582D01*
X106832Y134989D01*
X104995Y135750D01*
D02*
G37*
G36*
X420995Y125000D02*
X419005D01*
X417168Y124239D01*
X415761Y122832D01*
X415000Y120995D01*
Y119005D01*
X415761Y117168D01*
X417168Y115761D01*
X419005Y115000D01*
X420995D01*
X422832Y115761D01*
X424239Y117168D01*
X425000Y119005D01*
Y120995D01*
X424239Y122832D01*
X422832Y124239D01*
X420995Y125000D01*
D02*
G37*
G36*
X197745Y122750D02*
X195755D01*
X193918Y121989D01*
X192511Y120582D01*
X191750Y118745D01*
Y116755D01*
X192511Y114918D01*
X193918Y113511D01*
X195755Y112750D01*
X197745D01*
X199582Y113511D01*
X200989Y114918D01*
X201750Y116755D01*
Y118745D01*
X200989Y120582D01*
X199582Y121989D01*
X197745Y122750D01*
D02*
G37*
G36*
X153244Y121250D02*
X151255D01*
X149418Y120489D01*
X148011Y119082D01*
X147250Y117245D01*
Y115255D01*
X148011Y113418D01*
X149418Y112011D01*
X151255Y111250D01*
X153244D01*
X155082Y112011D01*
X156489Y113418D01*
X157250Y115255D01*
Y117245D01*
X156489Y119082D01*
X155082Y120489D01*
X153244Y121250D01*
D02*
G37*
G36*
X177886Y120586D02*
X175896D01*
X174059Y119825D01*
X172652Y118419D01*
X171891Y116581D01*
Y114592D01*
X172652Y112754D01*
X174059Y111348D01*
X175896Y110586D01*
X177886D01*
X179723Y111348D01*
X181130Y112754D01*
X181891Y114592D01*
Y116581D01*
X181130Y118419D01*
X179723Y119825D01*
X177886Y120586D01*
D02*
G37*
G36*
X375581Y118949D02*
X373592D01*
X371754Y118188D01*
X370348Y116782D01*
X369586Y114944D01*
Y112955D01*
X370348Y111117D01*
X371754Y109710D01*
X373592Y108949D01*
X375581D01*
X377419Y109710D01*
X378825Y111117D01*
X379586Y112955D01*
Y114944D01*
X378825Y116782D01*
X377419Y118188D01*
X375581Y118949D01*
D02*
G37*
G36*
X382698Y108500D02*
X380709D01*
X378871Y107739D01*
X377464Y106332D01*
X376703Y104495D01*
Y102505D01*
X377464Y100668D01*
X378871Y99261D01*
X380709Y98500D01*
X382698D01*
X384536Y99261D01*
X385942Y100668D01*
X386703Y102505D01*
Y104495D01*
X385942Y106332D01*
X384536Y107739D01*
X382698Y108500D01*
D02*
G37*
G36*
X394671Y108676D02*
X392682D01*
X390844Y107915D01*
X389437Y106509D01*
X388676Y104671D01*
Y102682D01*
X389437Y100844D01*
X390844Y99438D01*
X392682Y98676D01*
X394386D01*
X395336Y97702D01*
X395250Y97495D01*
Y95505D01*
X396011Y93668D01*
X397418Y92261D01*
X399255Y91500D01*
X401245D01*
X403082Y92261D01*
X404489Y93668D01*
X405250Y95505D01*
Y97495D01*
X404489Y99332D01*
X403082Y100739D01*
X401245Y101500D01*
X399540D01*
X398591Y102475D01*
X398676Y102682D01*
Y104671D01*
X397915Y106509D01*
X396509Y107915D01*
X394671Y108676D01*
D02*
G37*
G36*
X221745Y88500D02*
X219755D01*
X217918Y87739D01*
X216511Y86332D01*
X215750Y84495D01*
Y82505D01*
X216511Y80668D01*
X217918Y79261D01*
X219755Y78500D01*
X221745D01*
X223582Y79261D01*
X224989Y80668D01*
X225750Y82505D01*
Y84495D01*
X224989Y86332D01*
X223582Y87739D01*
X221745Y88500D01*
D02*
G37*
G36*
X50995Y66000D02*
X49005D01*
X47168Y65239D01*
X45761Y63832D01*
X45000Y61995D01*
Y60005D01*
X45761Y58168D01*
X47168Y56761D01*
X49005Y56000D01*
X50995D01*
X52832Y56761D01*
X54239Y58168D01*
X55000Y60005D01*
Y61995D01*
X54239Y63832D01*
X52832Y65239D01*
X50995Y66000D01*
D02*
G37*
G36*
X245245Y44750D02*
X243255D01*
X241418Y43989D01*
X240011Y42582D01*
X239250Y40745D01*
Y38755D01*
X240011Y36918D01*
X241418Y35511D01*
X243255Y34750D01*
X245245D01*
X247082Y35511D01*
X248489Y36918D01*
X249250Y38755D01*
Y40745D01*
X248489Y42582D01*
X247082Y43989D01*
X245245Y44750D01*
D02*
G37*
G36*
X211995Y40000D02*
X210005D01*
X208168Y39239D01*
X206761Y37832D01*
X206000Y35995D01*
Y34005D01*
X206761Y32168D01*
X208168Y30761D01*
X210005Y30000D01*
X211995D01*
X213832Y30761D01*
X215239Y32168D01*
X216000Y34005D01*
Y35995D01*
X215239Y37832D01*
X213832Y39239D01*
X211995Y40000D01*
D02*
G37*
G36*
X140995D02*
X139005D01*
X137168Y39239D01*
X135761Y37832D01*
X135000Y35995D01*
Y34005D01*
X135761Y32168D01*
X137168Y30761D01*
X139005Y30000D01*
X140995D01*
X142832Y30761D01*
X144239Y32168D01*
X145000Y34005D01*
Y35995D01*
X144239Y37832D01*
X142832Y39239D01*
X140995Y40000D01*
D02*
G37*
G36*
X100995D02*
X99005D01*
X97168Y39239D01*
X95761Y37832D01*
X95000Y35995D01*
Y34005D01*
X95761Y32168D01*
X97168Y30761D01*
X99005Y30000D01*
X100995D01*
X102832Y30761D01*
X104239Y32168D01*
X105000Y34005D01*
Y35995D01*
X104239Y37832D01*
X102832Y39239D01*
X100995Y40000D01*
D02*
G37*
G36*
X192745Y39750D02*
X190755D01*
X188918Y38989D01*
X187511Y37582D01*
X186750Y35745D01*
Y33755D01*
X187511Y31918D01*
X188918Y30511D01*
X190755Y29750D01*
X192745D01*
X194582Y30511D01*
X195989Y31918D01*
X196750Y33755D01*
Y35745D01*
X195989Y37582D01*
X194582Y38989D01*
X192745Y39750D01*
D02*
G37*
G36*
X115995Y25000D02*
X114005D01*
X112168Y24239D01*
X110761Y22832D01*
X110000Y20995D01*
Y19005D01*
X110761Y17168D01*
X112168Y15761D01*
X114005Y15000D01*
X115995D01*
X117832Y15761D01*
X119239Y17168D01*
X120000Y19005D01*
Y20995D01*
X119239Y22832D01*
X117832Y24239D01*
X115995Y25000D01*
D02*
G37*
G36*
X254715Y21096D02*
X252725D01*
X250888Y20334D01*
X249481Y18928D01*
X248720Y17090D01*
Y15101D01*
X249481Y13263D01*
X250888Y11857D01*
X252725Y11096D01*
X254715D01*
X256552Y11857D01*
X257959Y13263D01*
X258720Y15101D01*
Y17090D01*
X257959Y18928D01*
X256552Y20334D01*
X254715Y21096D01*
D02*
G37*
G36*
X470000Y53383D02*
X465438Y52933D01*
X461052Y51603D01*
X457009Y49442D01*
X453466Y46534D01*
X450558Y42991D01*
X448397Y38948D01*
X447067Y34562D01*
X446617Y30000D01*
X447067Y25438D01*
X448397Y21052D01*
X450558Y17009D01*
X453466Y13466D01*
X457009Y10558D01*
X461052Y8397D01*
X465438Y7067D01*
X470000Y6617D01*
X474562Y7067D01*
X478948Y8397D01*
X482991Y10558D01*
X486534Y13466D01*
X489442Y17009D01*
X491603Y21052D01*
X492933Y25438D01*
X493383Y30000D01*
X492933Y34562D01*
X491603Y38948D01*
X489442Y42991D01*
X486534Y46534D01*
X482991Y49442D01*
X478948Y51603D01*
X474562Y52933D01*
X470000Y53383D01*
D02*
G37*
G36*
X30000D02*
X25438Y52933D01*
X21052Y51603D01*
X17009Y49442D01*
X13466Y46534D01*
X10558Y42991D01*
X8397Y38948D01*
X7067Y34562D01*
X6617Y30000D01*
X7067Y25438D01*
X8397Y21052D01*
X10558Y17009D01*
X13466Y13466D01*
X17009Y10558D01*
X21052Y8397D01*
X25438Y7067D01*
X30000Y6617D01*
X34562Y7067D01*
X38948Y8397D01*
X42991Y10558D01*
X46534Y13466D01*
X49442Y17009D01*
X51603Y21052D01*
X52933Y25438D01*
X53383Y30000D01*
X52933Y34562D01*
X51603Y38948D01*
X49442Y42991D01*
X46534Y46534D01*
X42991Y49442D01*
X38948Y51603D01*
X34562Y52933D01*
X30000Y53383D01*
D02*
G37*
%LPD*%
D55*
X86750Y319750D02*
D03*
D56*
X489000Y67000D02*
D03*
X425000Y68000D02*
D03*
X452500Y92500D02*
D03*
X400250Y89000D02*
D03*
X387750Y99500D02*
D03*
X420000Y105000D02*
D03*
X419250Y136500D02*
D03*
X430500Y136750D02*
D03*
Y145000D02*
D03*
X419250Y149000D02*
D03*
X430500Y153000D02*
D03*
X452750Y160000D02*
D03*
X470000Y160750D02*
D03*
X430500Y161000D02*
D03*
X419250D02*
D03*
X430500Y173000D02*
D03*
X419250D02*
D03*
X484750Y176750D02*
D03*
X489745Y181750D02*
D03*
X430500Y184750D02*
D03*
X419250Y185000D02*
D03*
X447750Y192979D02*
D03*
X419250Y197000D02*
D03*
X441500Y231000D02*
D03*
X417000Y235750D02*
D03*
X433250Y241000D02*
D03*
X204000Y39000D02*
D03*
X380000Y32000D02*
D03*
X150000D02*
D03*
X98255Y71750D02*
D03*
X291000Y16000D02*
D03*
X15750Y235250D02*
D03*
X144000Y130500D02*
D03*
X144250Y145500D02*
D03*
X108000Y63000D02*
D03*
X167000Y85500D02*
D03*
X161750Y62000D02*
D03*
X207750Y77500D02*
D03*
X223200Y70000D02*
D03*
X272500Y94500D02*
D03*
X258750Y70000D02*
D03*
X309946Y76922D02*
D03*
X310010Y66750D02*
D03*
X279000Y161500D02*
D03*
X286500D02*
D03*
X294500Y214750D02*
D03*
X276000Y226500D02*
D03*
X279250Y266000D02*
D03*
X295000Y273500D02*
D03*
X286000Y336500D02*
D03*
X271250Y332000D02*
D03*
X317500Y140750D02*
D03*
X317000Y225250D02*
D03*
X317750Y333250D02*
D03*
X222500Y140000D02*
D03*
X209250Y226250D02*
D03*
X191750Y245750D02*
D03*
X173750Y270250D02*
D03*
X144750Y290000D02*
D03*
X237500Y304250D02*
D03*
X116750Y73750D02*
D03*
X15500Y296000D02*
D03*
X336750Y140250D02*
D03*
X299750Y159250D02*
D03*
X367250Y189250D02*
D03*
X365250Y226500D02*
D03*
X117500Y288000D02*
D03*
X238500Y96250D02*
D03*
X45000Y116000D02*
D03*
X45500Y133500D02*
D03*
X60250Y147750D02*
D03*
X58750Y191500D02*
D03*
X25500Y151250D02*
D03*
X21750Y168750D02*
D03*
X50000Y218000D02*
D03*
X69250Y220500D02*
D03*
M02*
