G04*
G04 #@! TF.GenerationSoftware,Altium Limited,Altium Designer,24.6.1 (21)*
G04*
G04 Layer_Color=8388736*
%FSLAX44Y44*%
%MOMM*%
G71*
G04*
G04 #@! TF.SameCoordinates,B958335C-F9F7-4DE1-88A5-8ADAB14170C8*
G04*
G04*
G04 #@! TF.FilePolarity,Negative*
G04*
G01*
G75*
%ADD33R,1.1000X0.9500*%
%ADD34R,1.0000X0.8500*%
%ADD35R,1.1500X1.0500*%
%ADD36O,1.5000X0.3500*%
%ADD37O,0.3500X1.5000*%
%ADD38R,1.1000X1.3500*%
%ADD39R,0.9500X1.1000*%
%ADD40R,0.6580X2.2544*%
G04:AMPARAMS|DCode=41|XSize=2.2544mm|YSize=0.658mm|CornerRadius=0.329mm|HoleSize=0mm|Usage=FLASHONLY|Rotation=270.000|XOffset=0mm|YOffset=0mm|HoleType=Round|Shape=RoundedRectangle|*
%AMROUNDEDRECTD41*
21,1,2.2544,0.0000,0,0,270.0*
21,1,1.5965,0.6580,0,0,270.0*
1,1,0.6580,0.0000,-0.7982*
1,1,0.6580,0.0000,0.7982*
1,1,0.6580,0.0000,0.7982*
1,1,0.6580,0.0000,-0.7982*
%
%ADD41ROUNDEDRECTD41*%
%ADD42R,0.5500X0.7500*%
%ADD43R,0.8500X1.0000*%
%ADD44R,1.5500X1.4500*%
%ADD45R,3.3000X2.2000*%
%ADD46R,0.9500X2.2000*%
%ADD47R,2.7562X1.0042*%
%ADD48R,1.4500X1.5500*%
%ADD49R,2.0500X1.4500*%
%ADD50C,2.4000*%
%ADD51C,2.0500*%
D33*
X276250Y13750D02*
D03*
Y29750D02*
D03*
X477500Y203000D02*
D03*
Y187000D02*
D03*
X264500Y246500D02*
D03*
Y230500D02*
D03*
X69500Y195500D02*
D03*
Y211500D02*
D03*
Y164000D02*
D03*
Y148000D02*
D03*
D34*
X261250Y28000D02*
D03*
Y15000D02*
D03*
X15250Y274250D02*
D03*
Y287250D02*
D03*
X16250Y257000D02*
D03*
Y244000D02*
D03*
D35*
X374500Y30000D02*
D03*
X301500D02*
D03*
X161500D02*
D03*
X88500D02*
D03*
D36*
X89750Y141000D02*
D03*
Y151000D02*
D03*
Y146000D02*
D03*
Y126000D02*
D03*
Y121000D02*
D03*
Y136000D02*
D03*
Y131000D02*
D03*
Y166000D02*
D03*
Y176000D02*
D03*
Y171000D02*
D03*
Y161000D02*
D03*
Y156000D02*
D03*
Y201000D02*
D03*
Y211000D02*
D03*
Y206000D02*
D03*
Y186000D02*
D03*
Y181000D02*
D03*
Y196000D02*
D03*
Y191000D02*
D03*
Y231000D02*
D03*
Y241000D02*
D03*
Y236000D02*
D03*
Y221000D02*
D03*
Y216000D02*
D03*
Y226000D02*
D03*
X244250Y141000D02*
D03*
Y151000D02*
D03*
Y146000D02*
D03*
Y126000D02*
D03*
Y121000D02*
D03*
Y136000D02*
D03*
Y131000D02*
D03*
Y176000D02*
D03*
Y161000D02*
D03*
Y156000D02*
D03*
Y171000D02*
D03*
Y166000D02*
D03*
Y201000D02*
D03*
Y211000D02*
D03*
Y206000D02*
D03*
Y186000D02*
D03*
Y181000D02*
D03*
Y196000D02*
D03*
Y191000D02*
D03*
Y241000D02*
D03*
Y236000D02*
D03*
Y221000D02*
D03*
Y216000D02*
D03*
Y231000D02*
D03*
Y226000D02*
D03*
D37*
X137000Y103750D02*
D03*
X127000D02*
D03*
X132000D02*
D03*
X152000D02*
D03*
X157000D02*
D03*
X142000D02*
D03*
X147000D02*
D03*
X117000D02*
D03*
X122000D02*
D03*
X107000D02*
D03*
X112000D02*
D03*
X157000Y258250D02*
D03*
X147000D02*
D03*
X152000D02*
D03*
X117000D02*
D03*
X122000D02*
D03*
X107000D02*
D03*
X112000D02*
D03*
X137000D02*
D03*
X142000D02*
D03*
X127000D02*
D03*
X132000D02*
D03*
X207000Y103750D02*
D03*
X197000D02*
D03*
X202000D02*
D03*
X222000D02*
D03*
X227000D02*
D03*
X212000D02*
D03*
X217000D02*
D03*
X172000D02*
D03*
X162000D02*
D03*
X167000D02*
D03*
X187000D02*
D03*
X192000D02*
D03*
X177000D02*
D03*
X182000D02*
D03*
X197000Y258250D02*
D03*
X212000D02*
D03*
X217000D02*
D03*
X202000D02*
D03*
X207000D02*
D03*
X172000D02*
D03*
X162000D02*
D03*
X167000D02*
D03*
X187000D02*
D03*
X192000D02*
D03*
X177000D02*
D03*
X182000D02*
D03*
X222000D02*
D03*
X227000D02*
D03*
D38*
X31000Y168500D02*
D03*
Y191500D02*
D03*
X49500D02*
D03*
Y168500D02*
D03*
D39*
X82000Y66000D02*
D03*
X66000D02*
D03*
X229000Y83500D02*
D03*
X245000D02*
D03*
X122500D02*
D03*
X106500D02*
D03*
X50000Y151000D02*
D03*
X34000D02*
D03*
X34000Y208500D02*
D03*
X50000D02*
D03*
X70000Y133500D02*
D03*
X54000D02*
D03*
X70000Y116000D02*
D03*
X54000D02*
D03*
X101500Y278500D02*
D03*
X117500D02*
D03*
D40*
X406700Y317009D02*
D03*
X406200Y125259D02*
D03*
X405950Y210009D02*
D03*
D41*
X394000Y317009D02*
D03*
X368600D02*
D03*
X381300D02*
D03*
X355900D02*
D03*
X381300Y265991D02*
D03*
X406700D02*
D03*
X394000D02*
D03*
X343200D02*
D03*
X368600D02*
D03*
X355900D02*
D03*
X330500Y317009D02*
D03*
X317800D02*
D03*
X343200D02*
D03*
X330500Y265991D02*
D03*
X317800D02*
D03*
X406200Y74241D02*
D03*
X393500D02*
D03*
X380800D02*
D03*
X368100D02*
D03*
X355400D02*
D03*
X342700D02*
D03*
X330000D02*
D03*
X317300D02*
D03*
Y125259D02*
D03*
X330000D02*
D03*
X342700D02*
D03*
X355400D02*
D03*
X368100D02*
D03*
X380800D02*
D03*
X393500D02*
D03*
X405950Y158991D02*
D03*
X393250D02*
D03*
X380550D02*
D03*
X367850D02*
D03*
X355150D02*
D03*
X342450D02*
D03*
X329750D02*
D03*
X317050D02*
D03*
Y210009D02*
D03*
X329750D02*
D03*
X342450D02*
D03*
X355150D02*
D03*
X367850D02*
D03*
X380550D02*
D03*
X393250D02*
D03*
D42*
X490250Y189750D02*
D03*
Y200750D02*
D03*
D43*
X462500Y88500D02*
D03*
X475500D02*
D03*
X80554Y50750D02*
D03*
X67554D02*
D03*
D44*
X468750Y125500D02*
D03*
Y105500D02*
D03*
D45*
X456000Y282250D02*
D03*
D46*
X479000Y223750D02*
D03*
X456000D02*
D03*
X433000D02*
D03*
D47*
X452750Y169500D02*
D03*
Y202000D02*
D03*
D48*
X39750Y256750D02*
D03*
X59750D02*
D03*
X39750Y278250D02*
D03*
X59750D02*
D03*
D49*
X272000Y119000D02*
D03*
Y83000D02*
D03*
D50*
X30000Y320000D02*
D03*
X470000D02*
D03*
Y30000D02*
D03*
X30000D02*
D03*
D51*
X86750Y319750D02*
D03*
X112150D02*
D03*
X213750D02*
D03*
X188350D02*
D03*
X162950D02*
D03*
X137550D02*
D03*
M02*
