G04*
G04 #@! TF.GenerationSoftware,Altium Limited,Altium Designer,24.6.1 (21)*
G04*
G04 Layer_Physical_Order=4*
G04 Layer_Color=16711680*
%FSLAX44Y44*%
%MOMM*%
G71*
G04*
G04 #@! TF.SameCoordinates,5915992C-12D5-426B-92E3-494E032610F7*
G04*
G04*
G04 #@! TF.FilePolarity,Positive*
G04*
G01*
G75*
%ADD12C,0.2000*%
%ADD14C,0.1500*%
%ADD17R,0.9500X0.8000*%
%ADD22R,0.9000X1.0500*%
%ADD25R,0.5000X0.7000*%
%ADD26R,0.8000X0.9500*%
%ADD52C,0.5000*%
%ADD53C,0.3000*%
%ADD54C,2.0000*%
%ADD55C,0.6000*%
%ADD56R,1.2000X0.6000*%
%ADD57R,0.7620X0.7620*%
%ADD58R,0.7000X0.5000*%
%ADD59R,0.6600X0.3200*%
%ADD60R,0.6600X0.2000*%
%ADD61R,0.7620X0.7620*%
G36*
X470000Y347451D02*
X471799D01*
X475367Y346981D01*
X478843Y346050D01*
X482167Y344673D01*
X485284Y342874D01*
X488139Y340683D01*
X490683Y338139D01*
X492874Y335284D01*
X494673Y332168D01*
X496050Y328843D01*
X496982Y325367D01*
X497451Y321799D01*
X497451Y320000D01*
X497451Y30000D01*
Y28201D01*
X496981Y24633D01*
X496050Y21157D01*
X494673Y17833D01*
X492874Y14716D01*
X490683Y11861D01*
X488139Y9317D01*
X485284Y7126D01*
X482168Y5327D01*
X478843Y3950D01*
X475367Y3019D01*
X471799Y2549D01*
X470000Y2549D01*
X30000Y2549D01*
X28201D01*
X24633Y3018D01*
X21157Y3950D01*
X17833Y5327D01*
X14716Y7126D01*
X11861Y9317D01*
X9317Y11861D01*
X7126Y14716D01*
X5327Y17832D01*
X3950Y21157D01*
X3019Y24633D01*
X2549Y28201D01*
X2549Y30000D01*
Y320000D01*
Y321799D01*
X3018Y325367D01*
X3950Y328843D01*
X5327Y332167D01*
X7126Y335284D01*
X9317Y338139D01*
X11861Y340683D01*
X14716Y342874D01*
X17832Y344673D01*
X21157Y346050D01*
X24633Y346981D01*
X28201Y347451D01*
X30000Y347451D01*
X470000Y347451D01*
D02*
G37*
%LPC*%
G36*
X318745Y338250D02*
X316755D01*
X314918Y337489D01*
X313511Y336082D01*
X312750Y334245D01*
Y332255D01*
X313511Y330418D01*
X314918Y329011D01*
X316755Y328250D01*
X318745D01*
X320582Y329011D01*
X321989Y330418D01*
X322750Y332255D01*
Y334245D01*
X321989Y336082D01*
X320582Y337489D01*
X318745Y338250D01*
D02*
G37*
G36*
X286995Y341500D02*
X285005D01*
X283168Y340739D01*
X281761Y339332D01*
X281000Y337495D01*
Y335505D01*
X281371Y334610D01*
X280536Y333360D01*
X280190D01*
Y321740D01*
X291810D01*
Y333360D01*
X291464D01*
X290629Y334610D01*
X291000Y335505D01*
Y337495D01*
X290239Y339332D01*
X288832Y340739D01*
X286995Y341500D01*
D02*
G37*
G36*
X272245Y337000D02*
X270255D01*
X268418Y336239D01*
X267011Y334832D01*
X266250Y332995D01*
Y331005D01*
X266563Y330250D01*
X265728Y329000D01*
X255000D01*
Y320000D01*
X257696D01*
Y316250D01*
X254750D01*
Y302750D01*
X262785D01*
X263446Y302089D01*
Y295250D01*
X263500Y294979D01*
Y289215D01*
X220553Y246268D01*
X219303Y246786D01*
Y268940D01*
X228810D01*
Y276234D01*
X229750Y277174D01*
X231000Y276797D01*
Y274500D01*
X244500D01*
Y286250D01*
X244500Y286500D01*
Y287500D01*
X244500Y287750D01*
Y299500D01*
X241589D01*
X241071Y300750D01*
X241739Y301418D01*
X242500Y303255D01*
Y305245D01*
X241739Y307082D01*
X240332Y308489D01*
X238495Y309250D01*
X236505D01*
X234668Y308489D01*
X233261Y307082D01*
X232500Y305245D01*
Y303255D01*
X233261Y301418D01*
X233929Y300750D01*
X233411Y299500D01*
X231000D01*
Y287750D01*
X231000Y287500D01*
Y286500D01*
X231000Y286250D01*
Y283559D01*
X228750D01*
X228750Y283559D01*
X227579Y283326D01*
X226587Y282663D01*
X224484Y280560D01*
X217190D01*
Y277598D01*
X216035Y277120D01*
X191922Y301233D01*
X191012Y301840D01*
X189939Y302054D01*
X186250D01*
Y304250D01*
X181054D01*
Y308125D01*
X182310Y309381D01*
X183718Y308568D01*
X186770Y307750D01*
X189930D01*
X192982Y308568D01*
X195718Y310148D01*
X197952Y312382D01*
X199532Y315118D01*
X200350Y318170D01*
Y321330D01*
X199532Y324382D01*
X197952Y327118D01*
X195718Y329352D01*
X192982Y330932D01*
X189930Y331750D01*
X186770D01*
X183718Y330932D01*
X180982Y329352D01*
X178748Y327118D01*
X177168Y324382D01*
X176350Y321330D01*
Y318170D01*
X177168Y315118D01*
X178247Y313249D01*
X176267Y311269D01*
X175660Y310359D01*
X175446Y309286D01*
Y304250D01*
X172510D01*
Y309713D01*
X172297Y310786D01*
X171760Y311589D01*
X172552Y312382D01*
X174132Y315118D01*
X174950Y318170D01*
Y321330D01*
X174132Y324382D01*
X172552Y327118D01*
X170318Y329352D01*
X167582Y330932D01*
X164530Y331750D01*
X161370D01*
X158318Y330932D01*
X155582Y329352D01*
X153348Y327118D01*
X151768Y324382D01*
X150950Y321330D01*
Y318170D01*
X151768Y315118D01*
X153348Y312382D01*
X155582Y310148D01*
X158318Y308568D01*
X161370Y307750D01*
X164530D01*
X165911Y308120D01*
X166903Y307359D01*
Y296196D01*
X165748Y295718D01*
X163250Y298215D01*
Y304250D01*
X147250D01*
Y303483D01*
X146000Y302965D01*
X141658Y307307D01*
X141982Y308514D01*
X142182Y308568D01*
X144918Y310148D01*
X147152Y312382D01*
X148732Y315118D01*
X149550Y318170D01*
Y321330D01*
X148732Y324382D01*
X147152Y327118D01*
X144918Y329352D01*
X142182Y330932D01*
X139130Y331750D01*
X135970D01*
X132918Y330932D01*
X130182Y329352D01*
X127948Y327118D01*
X126368Y324382D01*
X125550Y321330D01*
Y318170D01*
X126368Y315118D01*
X127948Y312382D01*
X130182Y310148D01*
X132918Y308568D01*
X134746Y308078D01*
Y307450D01*
X134960Y306377D01*
X135567Y305467D01*
X143767Y297267D01*
X144677Y296660D01*
X145750Y296446D01*
X146414D01*
X146543Y296022D01*
X146174Y295550D01*
X145546Y295000D01*
X143756D01*
X141918Y294239D01*
X140511Y292832D01*
X140444Y292670D01*
X139218Y292426D01*
X120507Y311137D01*
X121752Y312382D01*
X123332Y315118D01*
X124150Y318170D01*
Y321330D01*
X123332Y324382D01*
X121752Y327118D01*
X119518Y329352D01*
X116782Y330932D01*
X113730Y331750D01*
X110570D01*
X107518Y330932D01*
X104782Y329352D01*
X102548Y327118D01*
X100968Y324382D01*
X100150Y321330D01*
Y318170D01*
X100968Y315118D01*
X102548Y312382D01*
X104782Y310148D01*
X107518Y308568D01*
X110570Y307750D01*
X113730D01*
X115492Y308222D01*
X145446Y278267D01*
X146356Y277660D01*
X147250Y277482D01*
Y275250D01*
X159285D01*
X161085Y273450D01*
Y273156D01*
X160511Y272582D01*
X159750Y270745D01*
Y268755D01*
X160511Y266918D01*
X161918Y265511D01*
X163755Y264750D01*
X165745D01*
X167582Y265511D01*
X168683Y266612D01*
X168996Y266916D01*
X170245Y266684D01*
X170918Y266011D01*
X172755Y265250D01*
X174745D01*
X176582Y266011D01*
X177375Y266804D01*
X178668Y265511D01*
X180505Y264750D01*
X182495D01*
X184332Y265511D01*
X185739Y266918D01*
X186500Y268755D01*
Y270745D01*
X185739Y272582D01*
X184332Y273989D01*
X184305Y274000D01*
X184554Y275250D01*
X186250D01*
Y275250D01*
X187070Y275590D01*
X196192Y266468D01*
Y250147D01*
X195028Y249543D01*
X194582Y249989D01*
X192745Y250750D01*
X190755D01*
X188918Y249989D01*
X187511Y248582D01*
X186750Y246745D01*
Y244755D01*
X187511Y242918D01*
X188918Y241511D01*
X190755Y240750D01*
X192745D01*
X194582Y241511D01*
X195248Y242177D01*
X196163Y241261D01*
X198001Y240500D01*
X199990D01*
X201828Y241261D01*
X203235Y242668D01*
X203996Y244505D01*
Y246495D01*
X203235Y248332D01*
X201828Y249739D01*
X201800Y249751D01*
Y267629D01*
X201787Y267690D01*
X202813Y268940D01*
X202950D01*
Y274750D01*
X204950D01*
Y268940D01*
X209760D01*
Y273831D01*
X210915Y274309D01*
X213695Y271529D01*
Y230644D01*
X212621Y229950D01*
X212082Y230489D01*
X210245Y231250D01*
X208255D01*
X206418Y230489D01*
X205011Y229082D01*
X204250Y227245D01*
Y225255D01*
X205011Y223418D01*
X206418Y222011D01*
X208255Y221250D01*
X210245D01*
X212082Y222011D01*
X212812Y222741D01*
X213667Y221886D01*
X215504Y221125D01*
X217493D01*
X217907Y221296D01*
X218946Y220602D01*
Y195001D01*
X218918Y194989D01*
X217511Y193582D01*
X216750Y191745D01*
Y189755D01*
X217511Y187918D01*
X218918Y186511D01*
X220755Y185750D01*
X222745D01*
X224582Y186511D01*
X225989Y187918D01*
X226750Y189755D01*
Y191745D01*
X225989Y193582D01*
X224582Y194989D01*
X224554Y195001D01*
Y242339D01*
X253845Y271630D01*
X255000Y271152D01*
Y266000D01*
X257696D01*
Y262250D01*
X254750D01*
Y252715D01*
X230017Y227983D01*
X229410Y227073D01*
X229196Y226000D01*
Y185578D01*
X229006Y185293D01*
X227668Y184739D01*
X226261Y183332D01*
X225500Y181495D01*
Y179505D01*
X226261Y177668D01*
X227668Y176261D01*
X227872Y176176D01*
Y174823D01*
X227668Y174739D01*
X226261Y173332D01*
X225500Y171495D01*
Y169505D01*
X226261Y167668D01*
X227668Y166261D01*
X229505Y165500D01*
X231495D01*
X233332Y166261D01*
X234739Y167668D01*
X234751Y167696D01*
X235250D01*
X236323Y167910D01*
X237233Y168517D01*
X248386Y179671D01*
X266890D01*
X267161Y179725D01*
X276140D01*
Y179725D01*
X277140D01*
Y179725D01*
X289140D01*
Y179725D01*
X289890D01*
Y179725D01*
X301640D01*
X301890Y179725D01*
X302890D01*
X303140Y179725D01*
X307890D01*
Y186475D01*
Y193225D01*
X303140D01*
X302890Y193225D01*
X301694Y193355D01*
Y200729D01*
X307655Y206690D01*
X315310D01*
Y209696D01*
X348839D01*
X364522Y194013D01*
X364418Y193489D01*
X363011Y192082D01*
X362250Y190245D01*
Y188255D01*
X363011Y186418D01*
X364125Y185304D01*
X363711Y184054D01*
X327500D01*
X326427Y183840D01*
X325517Y183233D01*
X310187Y167903D01*
X309580Y166993D01*
X309399Y166085D01*
X303300D01*
Y164404D01*
X302050Y163709D01*
X300745Y164250D01*
X298755D01*
X296918Y163489D01*
X295511Y162082D01*
X294750Y160245D01*
Y158255D01*
X295511Y156418D01*
X296429Y155500D01*
X295516Y154587D01*
X294755Y152749D01*
Y150760D01*
X295516Y148922D01*
X295946Y148492D01*
Y141000D01*
X289500D01*
Y141000D01*
X288750D01*
Y141000D01*
X277000D01*
X276750Y141000D01*
X275750D01*
X275500Y141000D01*
X269304D01*
Y145000D01*
X280000D01*
Y145000D01*
X280440Y144940D01*
Y144940D01*
X281225Y144940D01*
X292060D01*
Y156560D01*
X290399D01*
X289881Y157810D01*
X290739Y158668D01*
X291500Y160505D01*
Y162495D01*
X291311Y162951D01*
X292006Y163990D01*
X292060D01*
Y175610D01*
X280440D01*
Y166616D01*
X279190Y166237D01*
X278949Y166597D01*
X277250Y168297D01*
Y172250D01*
X255250D01*
Y165750D01*
X254505D01*
X252668Y164989D01*
X251261Y163582D01*
X250500Y161745D01*
Y159755D01*
X251261Y157918D01*
X252668Y156511D01*
X254505Y155750D01*
X255000D01*
Y145000D01*
X263035D01*
X263696Y144339D01*
Y137500D01*
X263750Y137229D01*
Y127500D01*
X275500D01*
X275750Y127500D01*
X276750D01*
X277000Y127500D01*
X288750D01*
Y127500D01*
X289500D01*
Y127500D01*
X301250D01*
X301500Y127500D01*
X302500D01*
X302750Y127500D01*
X307500D01*
Y134250D01*
Y141000D01*
X302804D01*
X302500Y141000D01*
X301554Y141734D01*
Y147088D01*
X302587Y147516D01*
X303993Y148922D01*
X304755Y150760D01*
Y151954D01*
X307265Y154465D01*
X314920D01*
Y163064D01*
X314974Y163335D01*
Y164759D01*
X328661Y178446D01*
X388914D01*
X392342Y175017D01*
X393252Y174410D01*
X394325Y174196D01*
X406150D01*
Y171804D01*
X397415D01*
X396342Y171590D01*
X395432Y170983D01*
X371320Y146870D01*
X370165Y147348D01*
Y147750D01*
X356665D01*
Y142750D01*
X356665Y142750D01*
X356535Y141554D01*
X349161D01*
X343200Y147515D01*
Y155170D01*
X331580D01*
Y147515D01*
X330460Y146395D01*
X328596D01*
X326759Y145634D01*
X325352Y144228D01*
X324591Y142390D01*
Y140401D01*
X325352Y138563D01*
X326759Y137157D01*
X327028Y137045D01*
X327272Y135819D01*
X325342Y133888D01*
X324568Y132731D01*
X324484Y132310D01*
X322055D01*
Y120690D01*
X327346D01*
Y117500D01*
X326415D01*
Y106554D01*
X283411D01*
X267483Y122483D01*
X266573Y123090D01*
X265500Y123304D01*
X217500D01*
Y123745D01*
X216739Y125582D01*
X215332Y126989D01*
X213495Y127750D01*
X211505D01*
X209668Y126989D01*
X208261Y125582D01*
X207500Y123745D01*
Y121756D01*
X207567Y121593D01*
X206873Y120554D01*
X201001D01*
X200989Y120582D01*
X199582Y121989D01*
X197745Y122750D01*
X195755D01*
X193918Y121989D01*
X192511Y120582D01*
X191750Y118745D01*
Y116755D01*
X192511Y114918D01*
X192720Y114709D01*
X192242Y113554D01*
X182889D01*
X181879Y114563D01*
X181891Y114592D01*
Y116581D01*
X181130Y118419D01*
X179723Y119825D01*
X177886Y120586D01*
X175896D01*
X174059Y119825D01*
X172652Y118419D01*
X171891Y116581D01*
Y114592D01*
X172652Y112754D01*
X174059Y111348D01*
X175896Y110586D01*
X177886D01*
X177914Y110598D01*
X179745Y108767D01*
X180654Y108160D01*
X181727Y107946D01*
X232789D01*
X238330Y102405D01*
X237852Y101250D01*
X237505D01*
X235668Y100489D01*
X234261Y99082D01*
X233500Y97245D01*
Y95255D01*
X233916Y94250D01*
X233081Y93000D01*
X225450D01*
Y81000D01*
X225450D01*
Y80000D01*
X225450D01*
Y75605D01*
X224411Y74910D01*
X224195Y75000D01*
X222206D01*
X221278Y75620D01*
Y75890D01*
X213161D01*
X212750Y76505D01*
Y77453D01*
X213942Y78645D01*
X214232Y79080D01*
X216918D01*
Y90080D01*
Y101080D01*
X207918D01*
Y98134D01*
X204168D01*
Y101330D01*
X190668D01*
Y93295D01*
X187918Y90545D01*
X186668Y91063D01*
Y92580D01*
X177134D01*
X156392Y113321D01*
X156489Y113418D01*
X157250Y115255D01*
Y117245D01*
X156489Y119082D01*
X155082Y120489D01*
X153244Y121250D01*
X151255D01*
X149418Y120489D01*
X148011Y119082D01*
X147250Y117245D01*
Y115255D01*
X148011Y113418D01*
X149418Y112011D01*
X150530Y111551D01*
X151128Y110655D01*
X159128Y102655D01*
X158650Y101500D01*
X154409D01*
Y98554D01*
X150659D01*
Y101750D01*
X146713D01*
Y105091D01*
X146500Y106164D01*
X145892Y107073D01*
X137238Y115727D01*
X137250Y115755D01*
Y117745D01*
X136489Y119582D01*
X135082Y120989D01*
X133245Y121750D01*
X131255D01*
X129418Y120989D01*
X128317Y119888D01*
X128004Y119584D01*
X126755Y119816D01*
X126082Y120489D01*
X124245Y121250D01*
X122255D01*
X120418Y120489D01*
X119011Y119082D01*
X118250Y117245D01*
Y115255D01*
X118262Y115227D01*
X105785Y102750D01*
X100750D01*
Y99804D01*
X97000D01*
Y103000D01*
X83500D01*
Y94965D01*
X80750Y92215D01*
X79500Y92733D01*
Y94250D01*
X66000D01*
Y82250D01*
X66000D01*
Y81250D01*
X66000D01*
Y69250D01*
X66000D01*
Y68500D01*
X66000D01*
Y56750D01*
X66000Y56500D01*
X66000D01*
Y55500D01*
X66000D01*
Y49527D01*
X64845Y49049D01*
X62804Y51090D01*
Y107949D01*
X71051Y116196D01*
X102000D01*
X102191Y116234D01*
X102755Y116000D01*
X104745D01*
X106582Y116761D01*
X107989Y118168D01*
X108001Y118196D01*
X110250D01*
X111323Y118410D01*
X112233Y119017D01*
X116715Y123500D01*
X125750D01*
Y138000D01*
X125750Y138000D01*
Y139000D01*
X125750D01*
X125750Y139250D01*
Y153500D01*
X112750D01*
Y142965D01*
X105377Y135592D01*
X104995Y135750D01*
X103005D01*
X101168Y134989D01*
X99761Y133582D01*
X99000Y131745D01*
Y129755D01*
X99012Y129727D01*
X96089Y126804D01*
X68000D01*
X66927Y126590D01*
X66017Y125983D01*
X53017Y112983D01*
X52410Y112073D01*
X52196Y111000D01*
Y66627D01*
X51157Y65933D01*
X50995Y66000D01*
X49005D01*
X48623Y65842D01*
X40233Y74233D01*
X39554Y74686D01*
Y112816D01*
X40577Y113114D01*
X40804Y113125D01*
X42168Y111761D01*
X44005Y111000D01*
X45995D01*
X47832Y111761D01*
X49239Y113168D01*
X50000Y115005D01*
Y116995D01*
X49239Y118832D01*
X47832Y120239D01*
X45995Y121000D01*
X44005D01*
X42168Y120239D01*
X40804Y118875D01*
X40577Y118886D01*
X39554Y119184D01*
Y130704D01*
X39823Y130873D01*
X41261Y130668D01*
X42668Y129261D01*
X44505Y128500D01*
X46495D01*
X48332Y129261D01*
X49739Y130668D01*
X50500Y132505D01*
Y134495D01*
X49739Y136332D01*
X48332Y137739D01*
X47547Y138064D01*
X47254Y139538D01*
X54095Y146380D01*
X55539Y146056D01*
X56011Y144918D01*
X57418Y143511D01*
X59255Y142750D01*
X61245D01*
X63082Y143511D01*
X64489Y144918D01*
X65250Y146755D01*
Y148745D01*
X64489Y150582D01*
X63082Y151989D01*
X61943Y152460D01*
X61620Y153905D01*
X80661Y172946D01*
X98999D01*
X99011Y172918D01*
X100418Y171511D01*
X102255Y170750D01*
X104245D01*
X106082Y171511D01*
X107489Y172918D01*
X108250Y174755D01*
Y176745D01*
X107489Y178582D01*
X106082Y179989D01*
X104245Y180750D01*
X102255D01*
X100418Y179989D01*
X99011Y178582D01*
X98999Y178554D01*
X79500D01*
X78427Y178340D01*
X77517Y177733D01*
X34767Y134983D01*
X34160Y134073D01*
X33946Y133000D01*
Y73507D01*
X34160Y72434D01*
X34767Y71525D01*
X36025Y70267D01*
X36756Y69779D01*
X45000Y61535D01*
Y60005D01*
X45761Y58168D01*
X47168Y56761D01*
X49005Y56000D01*
X50995D01*
X51157Y56067D01*
X52196Y55373D01*
Y49000D01*
X52410Y47927D01*
X53017Y47017D01*
X93767Y6267D01*
X94677Y5660D01*
X95750Y5446D01*
X413321D01*
X414394Y5660D01*
X415304Y6267D01*
X446702Y37666D01*
X447807Y37003D01*
X447067Y34562D01*
X446617Y30000D01*
X447067Y25438D01*
X448397Y21052D01*
X450558Y17009D01*
X453466Y13466D01*
X457009Y10558D01*
X461052Y8397D01*
X465438Y7067D01*
X470000Y6617D01*
X474562Y7067D01*
X478948Y8397D01*
X482991Y10558D01*
X486534Y13466D01*
X489442Y17009D01*
X491603Y21052D01*
X492933Y25438D01*
X493383Y30000D01*
X492933Y34562D01*
X491603Y38948D01*
X489442Y42991D01*
X486534Y46534D01*
X482991Y49442D01*
X478948Y51603D01*
X474562Y52933D01*
X470000Y53383D01*
X465438Y52933D01*
X462997Y52193D01*
X462334Y53298D01*
X473348Y64312D01*
X474687Y64175D01*
X474834Y64095D01*
X476168Y62761D01*
X478005Y62000D01*
X479995D01*
X481832Y62761D01*
X483239Y64168D01*
X484000Y66005D01*
Y67995D01*
X483239Y69832D01*
X483226Y69845D01*
X483704Y71000D01*
X486250D01*
Y83000D01*
X486250Y83000D01*
Y84000D01*
X486250D01*
X486250Y84250D01*
Y94750D01*
X486250Y96000D01*
X486250D01*
Y96000D01*
X486250D01*
Y108000D01*
X486250D01*
Y109000D01*
X486250D01*
Y121000D01*
X478304D01*
Y124500D01*
X478090Y125573D01*
X477483Y126483D01*
X449126Y154839D01*
X449918Y155761D01*
X451755Y155000D01*
X453745D01*
X455582Y155761D01*
X456989Y157168D01*
X457750Y159005D01*
Y160995D01*
X456989Y162832D01*
X455582Y164239D01*
X453745Y165000D01*
X451755D01*
X449918Y164239D01*
X449126Y165161D01*
X488983Y205017D01*
X489590Y205927D01*
X489804Y207000D01*
Y265000D01*
X489590Y266073D01*
X488983Y266983D01*
X468983Y286983D01*
X468073Y287590D01*
X467000Y287804D01*
X414911D01*
X399844Y302872D01*
X398950Y303469D01*
X398489Y304582D01*
X397082Y305989D01*
X395245Y306750D01*
X393255D01*
X391418Y305989D01*
X390011Y304582D01*
X389841Y304171D01*
X388752Y303840D01*
X387679Y304054D01*
X373001D01*
X372989Y304082D01*
X371582Y305489D01*
X369745Y306250D01*
X367755D01*
X365918Y305489D01*
X364511Y304082D01*
X363750Y302245D01*
Y300255D01*
X364511Y298418D01*
X365918Y297011D01*
X367755Y296250D01*
X369745D01*
X371582Y297011D01*
X372989Y298418D01*
X373001Y298446D01*
X386517D01*
X404005Y280959D01*
X403527Y279804D01*
X400155D01*
X399000Y280256D01*
Y282245D01*
X398239Y284082D01*
X396832Y285489D01*
X394995Y286250D01*
X393005D01*
X391168Y285489D01*
X389761Y284082D01*
X389750Y284056D01*
X388242Y283680D01*
X388002Y283840D01*
X386929Y284054D01*
X360001D01*
X359989Y284082D01*
X358582Y285489D01*
X356745Y286250D01*
X354756D01*
X352918Y285489D01*
X351511Y284082D01*
X350750Y282245D01*
Y281868D01*
X349500Y281350D01*
X314670Y316180D01*
Y323835D01*
X303050D01*
Y316180D01*
X296517Y309648D01*
X295910Y308738D01*
X295696Y307665D01*
Y298750D01*
X289250D01*
Y298750D01*
X288500D01*
Y298750D01*
X276500D01*
Y298750D01*
X275500D01*
Y298750D01*
X269054D01*
Y302750D01*
X279750D01*
Y302750D01*
X280190Y302690D01*
Y302690D01*
X280975Y302690D01*
X291810D01*
Y314310D01*
X280190D01*
X279750Y315378D01*
Y316250D01*
X267750D01*
X267750Y316250D01*
X266750D01*
Y316250D01*
X266500Y316250D01*
X263304D01*
Y320000D01*
X277000D01*
Y329000D01*
X276772D01*
X275937Y330250D01*
X276250Y331005D01*
Y332995D01*
X275489Y334832D01*
X274082Y336239D01*
X272245Y337000D01*
D02*
G37*
G36*
X88330Y331750D02*
X85170D01*
X82118Y330932D01*
X79382Y329352D01*
X77148Y327118D01*
X75568Y324382D01*
X74750Y321330D01*
Y318170D01*
X75568Y315118D01*
X77148Y312382D01*
X79382Y310148D01*
X82118Y308568D01*
X85170Y307750D01*
X88330D01*
X91382Y308568D01*
X94118Y310148D01*
X96352Y312382D01*
X97932Y315118D01*
X98750Y318170D01*
Y321330D01*
X97932Y324382D01*
X96352Y327118D01*
X94118Y329352D01*
X91382Y330932D01*
X88330Y331750D01*
D02*
G37*
G36*
X470000Y343383D02*
X465438Y342933D01*
X461052Y341603D01*
X457009Y339442D01*
X453466Y336534D01*
X450558Y332991D01*
X448397Y328948D01*
X447067Y324562D01*
X446617Y320000D01*
X447067Y315438D01*
X448397Y311052D01*
X450558Y307009D01*
X453466Y303466D01*
X457009Y300558D01*
X461052Y298397D01*
X465438Y297067D01*
X470000Y296617D01*
X474562Y297067D01*
X478948Y298397D01*
X482991Y300558D01*
X486534Y303466D01*
X489442Y307009D01*
X491603Y311052D01*
X492933Y315438D01*
X493383Y320000D01*
X492933Y324562D01*
X491603Y328948D01*
X489442Y332991D01*
X486534Y336534D01*
X482991Y339442D01*
X478948Y341603D01*
X474562Y342933D01*
X470000Y343383D01*
D02*
G37*
G36*
X30000D02*
X25438Y342933D01*
X21052Y341603D01*
X17009Y339442D01*
X13466Y336534D01*
X10558Y332991D01*
X8397Y328948D01*
X7067Y324562D01*
X6617Y320000D01*
X7067Y315438D01*
X8397Y311052D01*
X10558Y307009D01*
X13466Y303466D01*
X15037Y302177D01*
X14616Y301000D01*
X14505D01*
X12668Y300239D01*
X11261Y298832D01*
X10500Y296995D01*
Y295005D01*
X11261Y293168D01*
X12668Y291761D01*
X14505Y291000D01*
X16495D01*
X18332Y291761D01*
X19739Y293168D01*
X20500Y295005D01*
Y296995D01*
X20351Y297355D01*
X20688Y297856D01*
X21304Y298321D01*
X25438Y297067D01*
X30000Y296617D01*
X34562Y297067D01*
X38948Y298397D01*
X42991Y300558D01*
X46534Y303466D01*
X49442Y307009D01*
X51603Y311052D01*
X52933Y315438D01*
X53383Y320000D01*
X52933Y324562D01*
X51603Y328948D01*
X49442Y332991D01*
X46534Y336534D01*
X42991Y339442D01*
X38948Y341603D01*
X34562Y342933D01*
X30000Y343383D01*
D02*
G37*
G36*
X215330Y331750D02*
X212170D01*
X209118Y330932D01*
X206382Y329352D01*
X204148Y327118D01*
X202568Y324382D01*
X201750Y321330D01*
Y318170D01*
X202568Y315118D01*
X204148Y312382D01*
X206382Y310148D01*
X209118Y308568D01*
X210044Y308320D01*
Y303420D01*
X207665D01*
Y291800D01*
X219285D01*
Y303420D01*
X217181D01*
Y308246D01*
X218382Y308568D01*
X221118Y310148D01*
X223352Y312382D01*
X224932Y315118D01*
X225750Y318170D01*
Y321330D01*
X224932Y324382D01*
X223352Y327118D01*
X221118Y329352D01*
X218382Y330932D01*
X215330Y331750D01*
D02*
G37*
G36*
X118495Y293000D02*
X116505D01*
X114668Y292239D01*
X113261Y290832D01*
X112500Y288995D01*
Y287005D01*
X113261Y285168D01*
X114668Y283761D01*
X116505Y283000D01*
X118495D01*
X120332Y283761D01*
X121739Y285168D01*
X122500Y287005D01*
Y288995D01*
X121739Y290832D01*
X120332Y292239D01*
X118495Y293000D01*
D02*
G37*
G36*
X16745Y240250D02*
X14755D01*
X12918Y239489D01*
X11511Y238082D01*
X10750Y236245D01*
Y234255D01*
X11511Y232418D01*
X12918Y231011D01*
X14755Y230250D01*
X16745D01*
X18582Y231011D01*
X19989Y232418D01*
X20750Y234255D01*
Y236245D01*
X19989Y238082D01*
X18582Y239489D01*
X16745Y240250D01*
D02*
G37*
G36*
X70245Y225500D02*
X68255D01*
X66418Y224739D01*
X65011Y223332D01*
X64250Y221495D01*
Y219505D01*
X65011Y217668D01*
X66418Y216261D01*
X68255Y215500D01*
X70245D01*
X72082Y216261D01*
X73489Y217668D01*
X74250Y219505D01*
Y221495D01*
X73489Y223332D01*
X72082Y224739D01*
X70245Y225500D01*
D02*
G37*
G36*
X50995Y223000D02*
X49005D01*
X47168Y222239D01*
X45761Y220832D01*
X45000Y218995D01*
Y217005D01*
X45761Y215168D01*
X47168Y213761D01*
X49005Y213000D01*
X50995D01*
X52832Y213761D01*
X54239Y215168D01*
X55000Y217005D01*
Y218995D01*
X54239Y220832D01*
X52832Y222239D01*
X50995Y223000D01*
D02*
G37*
G36*
X72245Y283000D02*
X70255D01*
X68418Y282239D01*
X67011Y280832D01*
X66250Y278995D01*
Y277005D01*
X67011Y275168D01*
X68418Y273761D01*
X70255Y273000D01*
X72245D01*
X72273Y273012D01*
X102278Y243006D01*
Y219739D01*
X102250Y219728D01*
X100843Y218321D01*
X100082Y216483D01*
Y214494D01*
X100843Y212656D01*
X102250Y211250D01*
X104088Y210489D01*
X106077D01*
X107915Y211250D01*
X109321Y212656D01*
X110082Y214494D01*
Y216483D01*
X109321Y218321D01*
X107915Y219728D01*
X107886Y219739D01*
Y244168D01*
X107673Y245241D01*
X107065Y246150D01*
X76238Y276977D01*
X76250Y277005D01*
Y278995D01*
X75489Y280832D01*
X74082Y282239D01*
X72245Y283000D01*
D02*
G37*
G36*
X71995Y261750D02*
X70005D01*
X68168Y260989D01*
X66761Y259582D01*
X66000Y257745D01*
Y255755D01*
X66761Y253918D01*
X68168Y252511D01*
X68196Y252499D01*
Y235429D01*
X68410Y234356D01*
X69017Y233446D01*
X99556Y202908D01*
X99544Y202879D01*
Y200890D01*
X100305Y199052D01*
X101712Y197646D01*
X103550Y196885D01*
X105539D01*
X107376Y197646D01*
X108783Y199052D01*
X109544Y200890D01*
Y202879D01*
X108783Y204717D01*
X107376Y206124D01*
X105539Y206885D01*
X103550D01*
X103521Y206873D01*
X73804Y236590D01*
Y252499D01*
X73832Y252511D01*
X75239Y253918D01*
X76000Y255755D01*
Y257745D01*
X75239Y259582D01*
X73832Y260989D01*
X71995Y261750D01*
D02*
G37*
G36*
X309890Y193225D02*
Y187475D01*
X314890D01*
Y193225D01*
X309890D01*
D02*
G37*
G36*
X59745Y196500D02*
X57755D01*
X55918Y195739D01*
X54511Y194332D01*
X53750Y192495D01*
Y190505D01*
X54511Y188668D01*
X55918Y187261D01*
X57755Y186500D01*
X59745D01*
X61582Y187261D01*
X62989Y188668D01*
X63750Y190505D01*
Y192495D01*
X62989Y194332D01*
X61582Y195739D01*
X59745Y196500D01*
D02*
G37*
G36*
X491245Y187000D02*
X489255D01*
X487418Y186239D01*
X486011Y184832D01*
X485351Y183238D01*
X484498Y182890D01*
X484000Y182821D01*
X483832Y182989D01*
X481995Y183750D01*
X480005D01*
X478168Y182989D01*
X476761Y181582D01*
X476000Y179745D01*
Y177755D01*
X476761Y175918D01*
X478168Y174511D01*
X480005Y173750D01*
X481995D01*
X483832Y174511D01*
X485239Y175918D01*
X485899Y177512D01*
X486752Y177860D01*
X487250Y177929D01*
X487418Y177761D01*
X489255Y177000D01*
X491245D01*
X493082Y177761D01*
X494489Y179168D01*
X495250Y181005D01*
Y182995D01*
X494489Y184832D01*
X493082Y186239D01*
X491245Y187000D01*
D02*
G37*
G36*
X314890Y185475D02*
X309890D01*
Y179725D01*
X314890D01*
Y185475D01*
D02*
G37*
G36*
X22745Y173750D02*
X20755D01*
X18918Y172989D01*
X17511Y171582D01*
X16750Y169745D01*
Y167755D01*
X17511Y165918D01*
X18918Y164511D01*
X20755Y163750D01*
X22745D01*
X24582Y164511D01*
X25989Y165918D01*
X26750Y167755D01*
Y169745D01*
X25989Y171582D01*
X24582Y172989D01*
X22745Y173750D01*
D02*
G37*
G36*
X370165Y154750D02*
X364415D01*
Y149750D01*
X370165D01*
Y154750D01*
D02*
G37*
G36*
X362415D02*
X356665D01*
Y149750D01*
X362415D01*
Y154750D01*
D02*
G37*
G36*
X26495Y156250D02*
X24505D01*
X22668Y155489D01*
X21261Y154082D01*
X20500Y152245D01*
Y150255D01*
X21261Y148418D01*
X22668Y147011D01*
X24505Y146250D01*
X26495D01*
X28332Y147011D01*
X29739Y148418D01*
X30500Y150255D01*
Y152245D01*
X29739Y154082D01*
X28332Y155489D01*
X26495Y156250D01*
D02*
G37*
G36*
X318495Y145750D02*
X316505D01*
X314668Y144989D01*
X313261Y143582D01*
X312500Y141745D01*
Y141000D01*
X309500D01*
Y135250D01*
X314533D01*
X315750Y136063D01*
X316505Y135750D01*
X318495D01*
X320332Y136511D01*
X321739Y137918D01*
X322500Y139755D01*
Y141745D01*
X321739Y143582D01*
X320332Y144989D01*
X318495Y145750D01*
D02*
G37*
G36*
X141750Y153500D02*
X128750D01*
Y139250D01*
X128750Y139000D01*
Y138000D01*
X128750Y137750D01*
Y123500D01*
X141750D01*
Y124895D01*
X142789Y125590D01*
X143005Y125500D01*
X144995D01*
X146832Y126261D01*
X148239Y127668D01*
X149000Y129505D01*
Y131495D01*
X148239Y133332D01*
X146832Y134739D01*
X144995Y135500D01*
X143005D01*
X142789Y135410D01*
X141750Y136105D01*
Y137750D01*
X141750Y138000D01*
Y139000D01*
X141750Y139250D01*
Y139999D01*
X142789Y140693D01*
X143255Y140500D01*
X145245D01*
X147082Y141261D01*
X148489Y142668D01*
X149250Y144505D01*
Y146495D01*
X148489Y148332D01*
X147082Y149739D01*
X145245Y150500D01*
X143255D01*
X142789Y150307D01*
X141750Y151001D01*
Y153500D01*
D02*
G37*
G36*
X128495Y277750D02*
X126505D01*
X124668Y276989D01*
X123261Y275582D01*
X122500Y273745D01*
Y271755D01*
X123261Y269918D01*
X124668Y268511D01*
X124696Y268499D01*
Y223500D01*
X124910Y222427D01*
X125517Y221517D01*
X211012Y136023D01*
X211000Y135995D01*
Y134005D01*
X211761Y132168D01*
X213168Y130761D01*
X215005Y130000D01*
X216995D01*
X218832Y130761D01*
X220239Y132168D01*
X221000Y134005D01*
Y135995D01*
X221672Y137000D01*
X221995D01*
X223832Y137761D01*
X225239Y139168D01*
X226000Y141005D01*
Y141328D01*
X227006Y142000D01*
X228995D01*
X230832Y142761D01*
X232239Y144168D01*
X233000Y146005D01*
Y147995D01*
X232239Y149832D01*
X230832Y151239D01*
X228995Y152000D01*
X227005D01*
X226977Y151988D01*
X138804Y240161D01*
Y268249D01*
X138832Y268261D01*
X140239Y269668D01*
X141000Y271505D01*
Y273495D01*
X140239Y275332D01*
X138832Y276739D01*
X136995Y277500D01*
X135005D01*
X133168Y276739D01*
X132703Y276274D01*
X130991Y276330D01*
X130332Y276989D01*
X128495Y277750D01*
D02*
G37*
G36*
X314500Y133250D02*
X309500D01*
Y127500D01*
X314500D01*
Y133250D01*
D02*
G37*
G36*
X30000Y53383D02*
X25438Y52933D01*
X21052Y51603D01*
X17009Y49442D01*
X13466Y46534D01*
X10558Y42991D01*
X8397Y38948D01*
X7067Y34562D01*
X6617Y30000D01*
X7067Y25438D01*
X8397Y21052D01*
X10558Y17009D01*
X13466Y13466D01*
X17009Y10558D01*
X21052Y8397D01*
X25438Y7067D01*
X30000Y6617D01*
X34562Y7067D01*
X38948Y8397D01*
X42991Y10558D01*
X46534Y13466D01*
X49442Y17009D01*
X51603Y21052D01*
X52933Y25438D01*
X53383Y30000D01*
X52933Y34562D01*
X51603Y38948D01*
X49442Y42991D01*
X46534Y46534D01*
X42991Y49442D01*
X38948Y51603D01*
X34562Y52933D01*
X30000Y53383D01*
D02*
G37*
%LPD*%
G36*
X371696Y251224D02*
Y233751D01*
X371668Y233739D01*
X370261Y232332D01*
X369674Y230915D01*
X368531Y230537D01*
X368272Y230549D01*
X368082Y230739D01*
X366245Y231500D01*
X364255D01*
X362418Y230739D01*
X361011Y229332D01*
X361009Y229326D01*
X359656D01*
X359239Y230332D01*
X357832Y231739D01*
X355995Y232500D01*
X354005D01*
X353977Y232488D01*
X320458Y266008D01*
X319548Y266615D01*
X318475Y266829D01*
X314670D01*
Y269835D01*
X303050D01*
Y262180D01*
X296517Y255648D01*
X295910Y254738D01*
X295696Y253665D01*
Y244750D01*
X289250D01*
Y244750D01*
X288500D01*
Y244750D01*
X276500D01*
Y244750D01*
X275500D01*
Y244750D01*
X269054D01*
Y248750D01*
X279750D01*
Y248750D01*
X280190Y248690D01*
Y248690D01*
X280975Y248690D01*
X291810D01*
Y260310D01*
X281845D01*
X281597Y261560D01*
X282082Y261761D01*
X283489Y263168D01*
X284250Y265005D01*
Y266994D01*
X284748Y267740D01*
X291810D01*
Y268056D01*
X293060Y268892D01*
X294005Y268500D01*
X295995D01*
X297832Y269261D01*
X299239Y270668D01*
X300000Y272505D01*
Y274495D01*
X299239Y276332D01*
X297832Y277739D01*
X295995Y278500D01*
X294005D01*
X293060Y278108D01*
X291810Y278944D01*
Y279360D01*
X280190D01*
Y271000D01*
X278255D01*
X278225Y270988D01*
X277000Y271833D01*
Y275000D01*
X258848D01*
X258370Y276155D01*
X267465Y285250D01*
X275500D01*
Y285250D01*
X276500D01*
Y285250D01*
X288500D01*
Y285250D01*
X289250D01*
Y285250D01*
X301000D01*
X301250Y285250D01*
X302250D01*
X302500Y285250D01*
X307250D01*
Y292000D01*
Y298750D01*
X302554D01*
X302250Y298750D01*
X301304Y299484D01*
Y306504D01*
X307015Y312215D01*
X310705D01*
X371696Y251224D01*
D02*
G37*
G36*
X393196Y271017D02*
X394106Y270410D01*
X395179Y270196D01*
X459839D01*
X472196Y257839D01*
Y237008D01*
X470946Y236399D01*
X469495Y237000D01*
X467505D01*
X465668Y236239D01*
X464261Y234832D01*
X463500Y232995D01*
Y231005D01*
X463912Y230011D01*
Y225838D01*
X455000D01*
X453244Y225489D01*
X451756Y224494D01*
X446256Y218994D01*
X445261Y217506D01*
X445100Y216696D01*
X443850Y216819D01*
Y221350D01*
X433250D01*
Y210000D01*
Y200280D01*
X432168Y199594D01*
X430804Y200958D01*
Y232000D01*
X430590Y233073D01*
X429983Y233983D01*
X421988Y241977D01*
X422000Y242005D01*
Y243995D01*
X421239Y245832D01*
X419832Y247239D01*
X417995Y248000D01*
X416005D01*
X414168Y247239D01*
X412761Y245832D01*
X412000Y243995D01*
Y242005D01*
X412336Y241194D01*
X411380Y240237D01*
X410745Y240500D01*
X408755D01*
X406918Y239739D01*
X405511Y238332D01*
X404750Y236495D01*
Y234505D01*
X405511Y232668D01*
X406918Y231261D01*
X408755Y230500D01*
X410745D01*
X410773Y230512D01*
X418946Y222339D01*
Y202453D01*
X417723Y202061D01*
X416750Y202764D01*
Y204000D01*
X411450D01*
X406150D01*
Y202000D01*
X411450D01*
Y200000D01*
X406150D01*
Y195804D01*
X404834D01*
X377304Y223335D01*
Y225249D01*
X377332Y225261D01*
X378739Y226668D01*
X379500Y228505D01*
Y230495D01*
X378739Y232332D01*
X377332Y233739D01*
X377304Y233751D01*
Y252385D01*
X377090Y253458D01*
X376483Y254368D01*
X355850Y275000D01*
X356368Y276250D01*
X356745D01*
X358582Y277011D01*
X359989Y278418D01*
X360001Y278446D01*
X385768D01*
X393196Y271017D01*
D02*
G37*
G36*
X350012Y228523D02*
X350000Y228495D01*
Y226505D01*
X350761Y224668D01*
X352168Y223261D01*
X354005Y222500D01*
X355995D01*
X356023Y222512D01*
X380940Y197595D01*
X380462Y196440D01*
X377273D01*
X377262Y196468D01*
X375855Y197875D01*
X374017Y198636D01*
X372028D01*
X370190Y197875D01*
X369390Y197075D01*
X351983Y214483D01*
X351073Y215090D01*
X350000Y215304D01*
X315310D01*
Y218310D01*
X303690D01*
Y210655D01*
X296907Y203873D01*
X296300Y202963D01*
X296086Y201890D01*
Y193225D01*
X289890D01*
Y193225D01*
X289140D01*
Y193225D01*
X277140D01*
Y193225D01*
X276140D01*
Y193225D01*
X269694D01*
Y197225D01*
X280390D01*
Y197225D01*
X280830Y197165D01*
Y197165D01*
X281615Y197165D01*
X292450D01*
Y208785D01*
X280830D01*
X280390Y209853D01*
Y210725D01*
X268390D01*
X268390Y210725D01*
X267390D01*
Y210725D01*
X267140Y210725D01*
X263944D01*
Y214475D01*
X277640D01*
Y221767D01*
X278832Y222261D01*
X279580Y223009D01*
X280830Y222491D01*
Y216215D01*
X287403D01*
X289500Y214118D01*
Y213755D01*
X290261Y211918D01*
X291668Y210511D01*
X293505Y209750D01*
X295495D01*
X297332Y210511D01*
X298739Y211918D01*
X299500Y213755D01*
Y215745D01*
X298739Y217582D01*
X297332Y218989D01*
X295495Y219750D01*
X293962D01*
X292450Y221262D01*
Y227835D01*
X280859D01*
X280239Y229332D01*
X279571Y230000D01*
X280089Y231250D01*
X288500D01*
Y231250D01*
X289250D01*
Y231250D01*
X301000D01*
X301250Y231250D01*
X302250D01*
X302500Y231250D01*
X307250D01*
Y238000D01*
Y244750D01*
X302554D01*
X302250Y244750D01*
X301304Y245484D01*
Y252504D01*
X307015Y258215D01*
X314670D01*
Y261221D01*
X317314D01*
X350012Y228523D01*
D02*
G37*
G36*
X425335Y135960D02*
X425536Y135669D01*
X426261Y133918D01*
X427668Y132511D01*
X429505Y131750D01*
X431495D01*
X432211Y132047D01*
X433250Y131352D01*
Y128650D01*
X443850D01*
Y133095D01*
X445100Y133613D01*
X447696Y131017D01*
Y120500D01*
X443750D01*
Y108500D01*
X443750D01*
Y107500D01*
X443750D01*
Y96750D01*
X443750Y95500D01*
X443750D01*
Y95500D01*
X443750D01*
Y91304D01*
X441000D01*
Y94000D01*
X432000D01*
Y86965D01*
X426017Y80983D01*
X425410Y80073D01*
X425196Y79000D01*
Y50161D01*
X417023Y41988D01*
X416995Y42000D01*
X415005D01*
X413168Y41239D01*
X411761Y39832D01*
X411000Y37995D01*
Y36005D01*
X411761Y34168D01*
X413168Y32761D01*
X415005Y32000D01*
X416338D01*
X416856Y30750D01*
X399910Y13804D01*
X296627D01*
X295933Y14843D01*
X296000Y15005D01*
Y16995D01*
X295606Y17946D01*
X296441Y19196D01*
X341000D01*
X342073Y19410D01*
X342983Y20017D01*
X407233Y84267D01*
X407840Y85177D01*
X408054Y86250D01*
Y128650D01*
X416750D01*
Y130999D01*
X417789Y131693D01*
X418255Y131500D01*
X420245D01*
X422082Y132261D01*
X423489Y133668D01*
X424250Y135505D01*
Y136419D01*
X424435Y136512D01*
X425335Y135960D01*
D02*
G37*
G36*
X154409Y79500D02*
X163409D01*
Y80325D01*
X163497Y80434D01*
X164659Y81058D01*
X166005Y80500D01*
X167995D01*
X169832Y81261D01*
X171239Y82668D01*
X172000Y84505D01*
X173168Y84309D01*
Y80580D01*
X173168D01*
Y79580D01*
X173168D01*
Y67580D01*
X173168D01*
Y66830D01*
X173168D01*
Y55080D01*
X173168Y54830D01*
X173168D01*
Y53830D01*
X173168D01*
Y48830D01*
X179918D01*
X186668D01*
Y49232D01*
X187823Y49710D01*
X192296Y45237D01*
X193205Y44630D01*
X194278Y44416D01*
X200133D01*
Y42204D01*
X199761Y41832D01*
X199000Y39995D01*
Y38005D01*
X199761Y36168D01*
X201168Y34761D01*
X203005Y34000D01*
X204995D01*
X206832Y34761D01*
X208239Y36168D01*
X209000Y38005D01*
Y38430D01*
X210250Y38948D01*
X217144Y32054D01*
X217138Y31897D01*
X216747Y30804D01*
X187411D01*
X177540Y40675D01*
X178018Y41830D01*
X178918D01*
Y46830D01*
X173168D01*
Y46680D01*
X172014Y46202D01*
X168593Y49623D01*
X167683Y50230D01*
X166610Y50444D01*
X158244D01*
Y53450D01*
X146624D01*
Y50444D01*
X141931D01*
X133159Y59215D01*
Y67250D01*
X133159D01*
Y68000D01*
X133159D01*
Y80000D01*
X133159D01*
Y81000D01*
X133159D01*
Y84196D01*
X134409D01*
X135482Y84410D01*
X135909Y84695D01*
X137159Y84087D01*
Y76750D01*
X137159D01*
X137099Y76310D01*
X137099D01*
X137099Y75525D01*
Y64690D01*
X148719D01*
Y76310D01*
X149787Y76750D01*
X150659D01*
Y88750D01*
X150659Y88750D01*
Y89750D01*
X150659D01*
X150659Y90000D01*
Y92946D01*
X154409D01*
Y79500D01*
D02*
G37*
G36*
X190668Y83667D02*
Y76330D01*
X190668D01*
X190608Y75890D01*
X190608D01*
X190608Y75105D01*
Y64270D01*
X202228D01*
Y74498D01*
X203478Y74747D01*
X203511Y74668D01*
X204918Y73261D01*
X206755Y72500D01*
X208745D01*
X209658Y71889D01*
Y64270D01*
X221278D01*
Y64381D01*
X222206Y65000D01*
X224195D01*
X224411Y65090D01*
X225450Y64395D01*
Y55500D01*
X225450Y55250D01*
X225450D01*
Y54250D01*
X225450D01*
Y49250D01*
X232200D01*
X238950D01*
Y49652D01*
X240105Y50130D01*
X244577Y45657D01*
X245487Y45050D01*
X246560Y44836D01*
X252415D01*
Y41830D01*
X264035D01*
Y49485D01*
X266246Y51696D01*
X277000D01*
Y49000D01*
X283750D01*
Y48000D01*
X284750D01*
Y42000D01*
X290500D01*
Y47902D01*
X291655Y48380D01*
X301981Y38054D01*
X301463Y36804D01*
X220325D01*
X211753Y45375D01*
Y53030D01*
X200133D01*
Y50024D01*
X195440D01*
X186668Y58795D01*
Y66830D01*
X186668D01*
Y67580D01*
X186668D01*
Y79580D01*
X186668D01*
Y80580D01*
X186668D01*
Y83776D01*
X187918D01*
X188991Y83990D01*
X189418Y84275D01*
X190668Y83667D01*
D02*
G37*
G36*
X83500Y85337D02*
Y78000D01*
X83500D01*
X83440Y77560D01*
X83440D01*
X83440Y76775D01*
Y65940D01*
X94441D01*
X94761Y65168D01*
X96168Y63761D01*
X98005Y63000D01*
X99995D01*
X101832Y63761D01*
X103000Y63161D01*
Y62005D01*
X103761Y60168D01*
X105168Y58761D01*
X107006Y58000D01*
X108995D01*
X110832Y58761D01*
X112239Y60168D01*
X113000Y62005D01*
Y63995D01*
X112712Y64690D01*
X113547Y65940D01*
X114110D01*
Y68307D01*
X115149Y69001D01*
X115755Y68750D01*
X117745D01*
X118409Y69025D01*
X118742Y68803D01*
X119659Y68000D01*
Y67250D01*
X119659D01*
Y55500D01*
X119659Y55250D01*
X119659D01*
Y54250D01*
X119659D01*
Y49250D01*
X126409D01*
X133159D01*
Y49652D01*
X134314Y50130D01*
X138786Y45657D01*
X139696Y45050D01*
X140769Y44836D01*
X146624D01*
Y41830D01*
X158244D01*
Y44836D01*
X165449D01*
X174130Y36155D01*
X173660Y34857D01*
X172168Y34239D01*
X170761Y32832D01*
X170000Y30995D01*
Y29005D01*
X170761Y27168D01*
X171875Y26054D01*
X171461Y24804D01*
X132411D01*
X106343Y50873D01*
X105433Y51480D01*
X104585Y51649D01*
Y54700D01*
X92965D01*
Y51694D01*
X88271D01*
X79500Y60465D01*
Y68500D01*
X79500D01*
Y69250D01*
X79500D01*
Y81250D01*
X79500D01*
Y82250D01*
X79500D01*
Y85446D01*
X80750D01*
X81823Y85660D01*
X82250Y85945D01*
X83500Y85337D01*
D02*
G37*
G36*
X85127Y46907D02*
X86037Y46300D01*
X87110Y46086D01*
X92965D01*
Y43080D01*
X104585D01*
Y43080D01*
X105730Y43554D01*
X111700Y37584D01*
X111456Y36358D01*
X111168Y36239D01*
X109761Y34832D01*
X109000Y32995D01*
Y31005D01*
X109761Y29168D01*
X111168Y27761D01*
X113005Y27000D01*
X114995D01*
X116832Y27761D01*
X118239Y29168D01*
X118358Y29457D01*
X119584Y29700D01*
X129267Y20017D01*
X130177Y19410D01*
X131250Y19196D01*
X285559D01*
X286394Y17946D01*
X286000Y16995D01*
Y15005D01*
X286067Y14843D01*
X285373Y13804D01*
X100090D01*
X71549Y42345D01*
X71750Y42831D01*
Y49500D01*
X72750D01*
Y50500D01*
X79500D01*
Y50902D01*
X80655Y51380D01*
X85127Y46907D01*
D02*
G37*
%LPC*%
G36*
X309250Y298750D02*
Y293000D01*
X314250D01*
Y298750D01*
X309250D01*
D02*
G37*
G36*
X314250Y291000D02*
X309250D01*
Y285250D01*
X314250D01*
Y291000D01*
D02*
G37*
G36*
X434245Y246000D02*
X432255D01*
X430418Y245239D01*
X429011Y243832D01*
X428250Y241995D01*
Y240005D01*
X429011Y238168D01*
X430418Y236761D01*
X432255Y236000D01*
X434245D01*
X436082Y236761D01*
X437489Y238168D01*
X438250Y240005D01*
Y241995D01*
X437489Y243832D01*
X436082Y245239D01*
X434245Y246000D01*
D02*
G37*
G36*
X442495Y236000D02*
X440505D01*
X438668Y235239D01*
X437261Y233832D01*
X436500Y231995D01*
Y230005D01*
X437261Y228168D01*
X438668Y226761D01*
X440505Y226000D01*
X442495D01*
X444332Y226761D01*
X445739Y228168D01*
X446500Y230005D01*
Y231995D01*
X445739Y233832D01*
X444332Y235239D01*
X442495Y236000D01*
D02*
G37*
G36*
X416750Y221350D02*
X406150D01*
Y214150D01*
Y214000D01*
X411450D01*
X416750D01*
Y221350D01*
D02*
G37*
G36*
Y212000D02*
X411450D01*
X406150D01*
Y210000D01*
X411450D01*
X416750D01*
Y212000D01*
D02*
G37*
G36*
Y208000D02*
X411450D01*
X406150D01*
Y206000D01*
Y206000D01*
X411450D01*
X416750D01*
Y208000D01*
D02*
G37*
G36*
X309250Y244750D02*
Y239000D01*
X314250D01*
Y244750D01*
X309250D01*
D02*
G37*
G36*
X314250Y237000D02*
X309250D01*
Y231250D01*
X314250D01*
Y237000D01*
D02*
G37*
G36*
X317995Y230250D02*
X316005D01*
X314168Y229489D01*
X312761Y228082D01*
X312000Y226245D01*
Y224255D01*
X312761Y222418D01*
X314168Y221011D01*
X316005Y220250D01*
X317995D01*
X319832Y221011D01*
X321239Y222418D01*
X322000Y224255D01*
Y226245D01*
X321239Y228082D01*
X319832Y229489D01*
X317995Y230250D01*
D02*
G37*
G36*
X391495Y35000D02*
X389505D01*
X387668Y34239D01*
X386261Y32832D01*
X385500Y30995D01*
Y29005D01*
X386261Y27168D01*
X387668Y25761D01*
X389505Y25000D01*
X391495D01*
X393332Y25761D01*
X394739Y27168D01*
X395500Y29005D01*
Y30995D01*
X394739Y32832D01*
X393332Y34239D01*
X391495Y35000D01*
D02*
G37*
G36*
X167769Y76310D02*
X156149D01*
Y64690D01*
X156327D01*
X157022Y63651D01*
X156750Y62995D01*
Y61005D01*
X157511Y59168D01*
X158918Y57761D01*
X160755Y57000D01*
X162745D01*
X164582Y57761D01*
X165989Y59168D01*
X166750Y61005D01*
Y62995D01*
X166478Y63651D01*
X167173Y64690D01*
X167769D01*
Y76310D01*
D02*
G37*
G36*
X186668Y46830D02*
X180918D01*
Y41830D01*
X186668D01*
Y46830D01*
D02*
G37*
G36*
X238950Y47250D02*
X233200D01*
Y42250D01*
X238950D01*
Y47250D01*
D02*
G37*
G36*
X231200D02*
X225450D01*
Y42250D01*
X231200D01*
Y47250D01*
D02*
G37*
G36*
X282750Y47000D02*
X277000D01*
Y42000D01*
X282750D01*
Y47000D01*
D02*
G37*
G36*
X133159Y47250D02*
X127409D01*
Y42250D01*
X133159D01*
Y47250D01*
D02*
G37*
G36*
X125409D02*
X119659D01*
Y42250D01*
X125409D01*
Y47250D01*
D02*
G37*
G36*
X79500Y48500D02*
X73750D01*
Y43500D01*
X79500D01*
Y48500D01*
D02*
G37*
%LPD*%
G36*
X132509Y268920D02*
X133168Y268261D01*
X133196Y268249D01*
Y239000D01*
X133410Y237927D01*
X134017Y237017D01*
X222321Y148714D01*
X222174Y147120D01*
X221994Y147000D01*
X220005D01*
X218168Y146239D01*
X216761Y144832D01*
X216000Y142995D01*
Y141005D01*
X215880Y140826D01*
X214286Y140679D01*
X130304Y224661D01*
Y267932D01*
X131364Y268958D01*
X132509Y268920D01*
D02*
G37*
D12*
X223000Y274750D02*
X228750Y280500D01*
X237750D01*
X237500Y293750D02*
Y304250D01*
Y293750D02*
X237750Y293500D01*
X178250Y289750D02*
X178750Y289250D01*
D14*
X465000Y115000D02*
Y128000D01*
X444000Y149000D02*
X465000Y128000D01*
X438550Y149000D02*
X444000D01*
X450500Y114500D02*
Y135500D01*
X445250Y140750D02*
X450500Y135500D01*
X438800Y140750D02*
X445250D01*
X438550Y141000D02*
X438800Y140750D01*
X416000Y37000D02*
X428000Y49000D01*
X416000Y37000D02*
Y37000D01*
X428000Y49000D02*
Y79000D01*
X186250Y28000D02*
X336000D01*
X395250Y91071D02*
X400000Y95821D01*
X336000Y28000D02*
X395250Y87250D01*
Y91071D01*
X219163Y34000D02*
X330750D01*
X394750Y98000D01*
X209003Y44160D02*
X219163Y34000D01*
X166610Y47640D02*
X186250Y28000D01*
X428000Y79000D02*
X436500Y87500D01*
Y88500D01*
X95750Y8250D02*
X413321D01*
X471750Y66679D01*
Y83000D01*
X478750Y90000D01*
X479500D01*
X98929Y11000D02*
X401071D01*
X457250Y67179D01*
Y83000D01*
X464250Y90000D01*
X465000D01*
X479500D02*
Y102000D01*
X465000Y90000D02*
Y102000D01*
X479000Y67000D02*
Y76500D01*
X479500Y77000D01*
X465000Y67000D02*
Y77000D01*
X450000Y76000D02*
X450500Y76500D01*
X450000Y67000D02*
Y76000D01*
X436000Y77000D02*
X436500Y77500D01*
X436000Y68000D02*
Y77000D01*
X436500Y88500D02*
X449500D01*
X450500Y89500D01*
Y101500D01*
X438550Y157000D02*
X443000D01*
X475500Y118250D02*
Y124500D01*
X443000Y157000D02*
X475500Y124500D01*
Y118250D02*
X478750Y115000D01*
X479500D01*
X430500Y173000D02*
X438550D01*
Y169000D02*
X444000D01*
X438550Y165000D02*
X445000D01*
X419000Y136750D02*
X419250Y136500D01*
X405250Y86250D02*
Y138850D01*
X430625Y184875D02*
X438425D01*
X438550Y177000D02*
X447000D01*
X438550Y181000D02*
X446000D01*
X438425Y184875D02*
X438550Y185000D01*
X432097Y145000D02*
X438550D01*
X431750Y137000D02*
X438550D01*
X432097Y145000D02*
X432097Y145000D01*
X411450Y149000D02*
X419250D01*
X404000Y153000D02*
X411450D01*
X400000Y157000D02*
X411450D01*
Y161000D02*
X419250D01*
X401000Y165000D02*
X411450D01*
X397415Y169000D02*
X411450D01*
X430500Y184750D02*
X430625Y184875D01*
X411450Y185000D02*
X419000D01*
X445000Y165000D02*
X487000Y207000D01*
X444000Y169000D02*
X483000Y208000D01*
X434321Y189000D02*
X438550D01*
X447000Y177000D02*
X478750Y208750D01*
X399750Y140750D02*
X404000Y145000D01*
X411700Y136750D02*
X419000D01*
X431500Y136750D02*
X431750Y137000D01*
X411450D02*
X411700Y136750D01*
X405250Y138850D02*
X407400Y141000D01*
X416250D01*
X418250Y143000D01*
X422674D02*
X422924Y142750D01*
X418250Y143000D02*
X422674D01*
X404000Y145000D02*
X411450D01*
X430500Y153000D02*
X438550D01*
X430500Y161000D02*
X438550D01*
X394325Y177000D02*
X411450D01*
Y173000D02*
X419250D01*
X396250Y181000D02*
X411450D01*
X393500Y189000D02*
X411450D01*
X403673Y193000D02*
X411450D01*
X374500Y222173D02*
Y229500D01*
X373023Y193636D02*
X383614D01*
X374500Y222173D02*
X403673Y193000D01*
X374500Y229500D02*
Y252385D01*
X438300Y193250D02*
X438550Y193000D01*
X411450Y197000D02*
X419250D01*
X421750Y201571D02*
X434321Y189000D01*
X428000Y199797D02*
X434547Y193250D01*
X438300D01*
X438550Y197000D02*
X443729D01*
X438550Y213000D02*
X446750D01*
X438550Y201000D02*
X448000D01*
X438550Y205000D02*
X448688D01*
X438550Y209000D02*
X449375D01*
X443729Y197000D02*
X447750Y192979D01*
X446750Y213000D02*
X449500Y215750D01*
X448000Y201000D02*
X449500Y202500D01*
X448688Y205000D02*
X449500Y205812D01*
X449375Y209000D02*
X449500Y209125D01*
X446000Y181000D02*
X475000Y210000D01*
X398250Y277000D02*
X463000D01*
X395179Y273000D02*
X461000D01*
X407929Y281000D02*
X465000D01*
X413750Y285000D02*
X467000D01*
X461000Y273000D02*
X475000Y259000D01*
Y210000D02*
Y259000D01*
X478750Y208750D02*
Y261250D01*
X483000Y208000D02*
Y263000D01*
X487000Y207000D02*
Y265000D01*
X463000Y277000D02*
X478750Y261250D01*
X465000Y281000D02*
X483000Y263000D01*
X467000Y285000D02*
X487000Y265000D01*
X386929Y281250D02*
X395179Y273000D01*
X394000Y281250D02*
X398250Y277000D01*
X421750Y201571D02*
Y223500D01*
X428000Y199797D02*
Y232000D01*
X409750Y235500D02*
X421750Y223500D01*
X417000Y243000D02*
X428000Y232000D01*
X400000Y95821D02*
Y97000D01*
X399750Y97250D02*
X400000Y97000D01*
X394000Y105000D02*
X395000Y104000D01*
X379596Y99846D02*
X383000Y103250D01*
X379596Y99250D02*
Y99846D01*
X399750Y97250D02*
Y140750D01*
X394000Y105000D02*
Y143000D01*
X394750Y98000D02*
Y104000D01*
X394000Y143000D02*
X404000Y153000D01*
X383000Y140000D02*
X400000Y157000D01*
X374586Y138586D02*
X401000Y165000D01*
X390075Y181250D02*
X394325Y177000D01*
X383614Y193636D02*
X396250Y181000D01*
X374586Y106836D02*
Y113949D01*
X374000Y114250D02*
X374586Y114836D01*
X383000Y103250D02*
Y140000D01*
X374586Y114836D02*
Y138586D01*
X289500Y54500D02*
X305000Y39000D01*
X265085Y54500D02*
X289500D01*
X258225Y47640D02*
X265085Y54500D01*
X305000Y39000D02*
X318750D01*
X152434Y47640D02*
X166610D01*
X260750Y160750D02*
Y166750D01*
Y151250D02*
Y160750D01*
X255500D02*
X260750D01*
X136000Y239000D02*
Y272500D01*
Y239000D02*
X228000Y147000D01*
X165961Y279039D02*
Y291539D01*
X176000Y275250D02*
X181500Y269750D01*
X169750Y275250D02*
X176000D01*
X165961Y279039D02*
X169750Y275250D01*
X318750Y39000D02*
X379000Y99250D01*
X127500Y223500D02*
Y272750D01*
Y223500D02*
X216000Y135000D01*
X71250Y278000D02*
X105082Y244168D01*
Y215489D02*
Y244168D01*
X104544Y201885D02*
Y201885D01*
X71000Y235429D02*
X104544Y201885D01*
X71000Y235429D02*
Y256750D01*
X295250Y292000D02*
X298500Y295250D01*
Y307665D01*
X308860Y318025D01*
X269500Y291250D02*
Y292000D01*
X266250Y295250D02*
X269500Y292000D01*
X266250Y295250D02*
Y303250D01*
X260500Y309000D02*
X266250Y303250D01*
X260500Y309000D02*
Y324500D01*
X282500Y292000D02*
X295250D01*
X285000Y309500D02*
X286000Y308500D01*
X273750Y309500D02*
X285000D01*
X178250Y299250D02*
Y309286D01*
X188350Y319386D02*
Y319750D01*
X178250Y309286D02*
X188350Y319386D01*
X181250Y299250D02*
X189939D01*
X216499Y272691D01*
X178250Y299250D02*
X181250D01*
X145750D02*
X158250D01*
X137550Y307450D02*
Y319750D01*
Y307450D02*
X145750Y299250D01*
X158250D02*
X165961Y291539D01*
X308860Y318025D02*
X374500Y252385D01*
X341000Y22000D02*
X405250Y86250D01*
X131250Y22000D02*
X341000D01*
X104360Y48890D02*
X131250Y22000D01*
X68000Y124000D02*
X97250D01*
X55000Y111000D02*
X68000Y124000D01*
X97250D02*
X104000Y130750D01*
X55000Y49000D02*
Y111000D01*
Y49000D02*
X95750Y8250D01*
X38250Y72250D02*
X50000Y60500D01*
X60000Y109111D02*
X69889Y119000D01*
X60000Y49929D02*
Y109111D01*
X69889Y119000D02*
X102000D01*
X104000Y130750D02*
X104500D01*
X387679Y301250D02*
X407929Y281000D01*
X397861Y300889D02*
X413750Y285000D01*
X309500Y212500D02*
X350000D01*
X368250Y194250D02*
X372409D01*
X350000Y212500D02*
X368250Y194250D01*
X372409D02*
X373023Y193636D01*
X318475Y264025D02*
X355000Y227500D01*
X393500Y189000D01*
X308860Y264025D02*
X318475D01*
X232000Y226000D02*
X260750Y254750D01*
X230500Y180500D02*
X231361Y181361D01*
X232000Y184507D02*
Y226000D01*
X231361Y181361D02*
Y183868D01*
X232000Y184507D01*
X233950Y110750D02*
X248950Y95750D01*
X176891Y115586D02*
X181727Y110750D01*
X233950D01*
X265500Y120500D02*
X282250Y103750D01*
X215553Y120500D02*
X265500D01*
X282250Y103750D02*
X329165D01*
X213303Y122750D02*
X215553Y120500D01*
X212500Y122750D02*
X213303D01*
X327500Y181250D02*
X390075D01*
X312170Y165920D02*
X327500Y181250D01*
X312170Y163335D02*
Y165920D01*
X300590Y151755D02*
X312170Y163335D01*
X246560Y47640D02*
X258225D01*
X302610Y47390D02*
X315140D01*
X283750Y61000D02*
X289000D01*
X302610Y47390D01*
X36750Y73507D02*
Y133000D01*
X79500Y175750D02*
X103250D01*
X36750Y133000D02*
X79500Y175750D01*
X38007Y72250D02*
X38250D01*
X36750Y73507D02*
X38007Y72250D01*
X135500Y130500D02*
X144000D01*
X135250Y130750D02*
X135500Y130500D01*
X135250Y146250D02*
X136000Y145500D01*
X144250D01*
X119250Y145500D02*
Y146250D01*
X104500Y130750D02*
X119250Y145500D01*
X102000Y119000D02*
X104000Y121000D01*
X110250D01*
X103750D02*
X104000D01*
X110250D02*
X119250Y130000D01*
Y130750D01*
X60000Y49929D02*
X98929Y11000D01*
X98775Y48890D02*
X104360D01*
X87110D02*
X98775D01*
X283750Y86750D02*
Y95250D01*
X196750Y117750D02*
X261250D01*
X283750Y95250D01*
Y86750D02*
X291750D01*
X89250Y71750D02*
Y83000D01*
X90250Y84000D01*
X143909Y71500D02*
Y82750D01*
X142909Y70500D02*
X143909Y71500D01*
X197418Y71080D02*
Y82330D01*
X196418Y70080D02*
X197418Y71080D01*
X249700Y71500D02*
Y82750D01*
X248700Y70500D02*
X249700Y71500D01*
X300250Y70250D02*
X301250Y71250D01*
Y82500D01*
X346915Y115250D02*
Y126500D01*
X345915Y114250D02*
X346915Y115250D01*
X274000Y151750D02*
X285250D01*
X286250Y150750D01*
X285640Y203975D02*
X286640Y202975D01*
X274390Y203975D02*
X285640D01*
X273750Y255500D02*
X285000D01*
X286000Y254500D01*
X394250Y301750D02*
X395111Y300889D01*
X397861D01*
X355750Y281250D02*
X386929D01*
X368750Y301250D02*
X387679D01*
X186125Y280500D02*
X198996Y267629D01*
X216499Y226125D02*
Y272691D01*
X221750Y190750D02*
Y243500D01*
X269500Y291250D01*
X175250Y280250D02*
X178250D01*
X178500Y280500D02*
X186125D01*
X162950Y316469D02*
Y319750D01*
Y316469D02*
X169706Y309713D01*
Y285794D02*
X175250Y280250D01*
X198996Y245500D02*
Y267629D01*
X169706Y285794D02*
Y309713D01*
X178250Y280250D02*
X178500Y280500D01*
X163889Y270611D02*
X164750Y269750D01*
X158250Y280250D02*
X163889Y274611D01*
Y270611D02*
Y274611D01*
X112150Y315529D02*
Y319750D01*
Y315529D02*
X147429Y280250D01*
X158250D01*
X315140Y47390D02*
X374586Y106836D01*
X329591Y141561D02*
X337390Y149360D01*
X329591Y141395D02*
Y141561D01*
X352165Y106750D02*
X360165D01*
X363415Y110000D01*
X364165D01*
X360415Y138750D02*
X363415Y135750D01*
X348000Y138750D02*
X360415D01*
X337390Y149360D02*
X348000Y138750D01*
X329165Y99250D02*
X330915Y101000D01*
X346415D01*
X330915D02*
Y102000D01*
X329165Y103750D02*
X330915Y102000D01*
X346415Y101000D02*
X352165Y106750D01*
X363415Y123000D02*
Y135750D01*
X364165D01*
X295500Y134250D02*
X298750Y137500D01*
Y149532D02*
X299755Y150537D01*
Y151755D02*
X300590D01*
X298750Y137500D02*
Y149532D01*
X299755Y150537D02*
Y151755D01*
X205943Y47220D02*
Y47220D01*
X209003Y44160D02*
X209003D01*
X205943Y47220D02*
X209003Y44160D01*
X194278Y47220D02*
X205943D01*
X364165Y135750D02*
X397415Y169000D01*
X298500Y241250D02*
Y253665D01*
X90250Y97000D02*
X105000D01*
X89500D02*
X90250D01*
X105250Y98250D02*
X123250Y116250D01*
Y116250D01*
X105250Y97250D02*
Y98250D01*
X143909Y95750D02*
X158659D01*
X143159D02*
X143909D01*
Y105091D01*
X132250Y116750D02*
X143909Y105091D01*
X153111Y112637D02*
X179168Y86580D01*
X153111Y112637D02*
Y115389D01*
X179168Y86580D02*
X179918D01*
X152250Y116250D02*
X153111Y115389D01*
X249700Y95750D02*
X264450D01*
X248950D02*
X249700D01*
X80750Y88250D02*
X89500Y97000D01*
X72750Y88250D02*
X80750D01*
X72750Y62500D02*
X73500D01*
X72750D02*
Y75250D01*
X105000Y97000D02*
X105250Y97250D01*
X73500Y62500D02*
X87110Y48890D01*
X134409Y87000D02*
X143159Y95750D01*
X126409Y87000D02*
X134409D01*
X126409Y61250D02*
X127159D01*
X126409D02*
Y74000D01*
X158659Y95750D02*
X158909Y96000D01*
X140769Y47640D02*
X152434D01*
X127159Y61250D02*
X140769Y47640D01*
X187918Y86580D02*
X196668Y95330D01*
X179918Y86580D02*
X187918D01*
X179918Y60830D02*
X180668D01*
X179918D02*
Y73580D01*
X212169Y95330D02*
X212418Y95580D01*
X196668Y95330D02*
X212169D01*
X180668Y60830D02*
X194278Y47220D01*
X240200Y87000D02*
X248950Y95750D01*
X232200Y87000D02*
X240200D01*
X232200Y61250D02*
X232950D01*
X232200D02*
Y74000D01*
X264450Y95750D02*
X264700Y96000D01*
X232950Y61250D02*
X246560Y47640D01*
X283750Y61000D02*
Y73750D01*
X316000Y95500D02*
X316250Y95750D01*
X300500Y95500D02*
X316000D01*
X291750Y86750D02*
X300500Y95500D01*
X269750Y133500D02*
Y134250D01*
X260750Y151250D02*
X266500Y145500D01*
Y137500D02*
Y145500D01*
Y137500D02*
X269750Y134250D01*
X282750D02*
X295500D01*
X270140Y185725D02*
Y186475D01*
X261140Y203475D02*
X266890Y197725D01*
Y189725D02*
Y197725D01*
Y189725D02*
X270140Y186475D01*
X283140D02*
X295890D01*
X261140Y203475D02*
Y218975D01*
X298890Y201890D02*
X309500Y212500D01*
X298890Y189475D02*
Y201890D01*
X295890Y186475D02*
X298890Y189475D01*
X269500Y237250D02*
Y238000D01*
X260500Y255000D02*
X266250Y249250D01*
Y241250D02*
Y249250D01*
Y241250D02*
X269500Y238000D01*
X282500D02*
X295250D01*
X260500Y255000D02*
Y270500D01*
X295250Y238000D02*
X298500Y241250D01*
Y253665D02*
X308860Y264025D01*
X247225Y182475D02*
X266890D01*
X235250Y170500D02*
X247225Y182475D01*
X230500Y170500D02*
X235250D01*
D17*
X450500Y89500D02*
D03*
Y76500D02*
D03*
Y114500D02*
D03*
Y101500D02*
D03*
X479500Y90000D02*
D03*
Y77000D02*
D03*
X465000Y90000D02*
D03*
Y77000D02*
D03*
Y102000D02*
D03*
Y115000D02*
D03*
X479500Y102000D02*
D03*
Y115000D02*
D03*
X72750Y62500D02*
D03*
Y49500D02*
D03*
X90250Y97000D02*
D03*
Y84000D02*
D03*
X72750Y88250D02*
D03*
Y75250D02*
D03*
X237750Y280500D02*
D03*
Y293500D02*
D03*
X363415Y135750D02*
D03*
Y148750D02*
D03*
X345915Y101250D02*
D03*
Y114250D02*
D03*
X363415Y110000D02*
D03*
Y123000D02*
D03*
X283750Y61000D02*
D03*
Y48000D02*
D03*
X301250Y95500D02*
D03*
Y82500D02*
D03*
X283750Y86750D02*
D03*
Y73750D02*
D03*
X232200Y61250D02*
D03*
Y48250D02*
D03*
X249700Y95750D02*
D03*
Y82750D02*
D03*
X232200Y87000D02*
D03*
Y74000D02*
D03*
X126409D02*
D03*
Y87000D02*
D03*
X143909Y82750D02*
D03*
Y95750D02*
D03*
X126409Y48250D02*
D03*
Y61250D02*
D03*
X179918Y73580D02*
D03*
Y86580D02*
D03*
X197418Y82330D02*
D03*
Y95330D02*
D03*
X179918Y47830D02*
D03*
Y60830D02*
D03*
D22*
X135250Y130750D02*
D03*
X119250D02*
D03*
X135250Y146250D02*
D03*
X119250D02*
D03*
D25*
X436500Y77500D02*
D03*
Y88500D02*
D03*
X330915Y112000D02*
D03*
Y101000D02*
D03*
X212418Y84580D02*
D03*
Y95580D02*
D03*
X158909Y85000D02*
D03*
Y96000D02*
D03*
X105250Y86250D02*
D03*
Y97250D02*
D03*
X316250Y84750D02*
D03*
Y95750D02*
D03*
X264700Y85000D02*
D03*
Y96000D02*
D03*
D26*
X274390Y203975D02*
D03*
X261390D02*
D03*
X308890Y186475D02*
D03*
X295890D02*
D03*
X274000Y151750D02*
D03*
X261000D02*
D03*
X308500Y134250D02*
D03*
X295500D02*
D03*
X282750D02*
D03*
X269750D02*
D03*
X283140Y186475D02*
D03*
X270140D02*
D03*
X308250Y238000D02*
D03*
X295250D02*
D03*
X282500D02*
D03*
X269500D02*
D03*
X273750Y255500D02*
D03*
X260750D02*
D03*
X273750Y309500D02*
D03*
X260750D02*
D03*
X282500Y292000D02*
D03*
X269500D02*
D03*
X308250D02*
D03*
X295250D02*
D03*
D52*
X449500Y202500D02*
Y205812D01*
Y209125D02*
Y215750D01*
Y205812D02*
Y209125D01*
Y215750D02*
X455000Y221250D01*
X468500D01*
Y232000D01*
D53*
X99000Y68000D02*
Y79000D01*
X104250Y84250D01*
X327865Y128933D02*
X330915Y125883D01*
X276426Y161324D02*
Y164074D01*
X272750Y167750D02*
X276426Y164074D01*
Y161324D02*
X277000Y160750D01*
X271750Y167750D02*
X272750D01*
X271375Y324625D02*
X271500Y324500D01*
X104250Y85250D02*
X105250Y86250D01*
X104250Y84250D02*
Y85250D01*
X327865Y128933D02*
Y131365D01*
Y126500D02*
Y128933D01*
X330915Y112000D02*
Y125883D01*
X327865Y131365D02*
X336750Y140250D01*
X178250Y289750D02*
X188950D01*
X203950Y274750D01*
X108150Y63150D02*
Y71600D01*
X108300Y71750D01*
X108000Y63000D02*
X108150Y63150D01*
X166750Y85250D02*
X167000Y85500D01*
X158909Y85000D02*
X159159Y85250D01*
X166750D01*
X161855Y70395D02*
X161959Y70500D01*
X161855Y62105D02*
Y70395D01*
X161750Y62000D02*
X161855Y62105D01*
X207750Y77500D02*
X211418Y81168D01*
Y83580D02*
X212418Y84580D01*
X211418Y81168D02*
Y83580D01*
X215468Y70080D02*
X215508Y70040D01*
X223160D02*
X223200Y70000D01*
X215508Y70040D02*
X223160D01*
X258750Y70000D02*
Y78050D01*
X264700Y84000D02*
Y85000D01*
X258750Y78050D02*
X264700Y84000D01*
X259000Y70250D02*
X267500D01*
X258750Y70000D02*
X259000Y70250D01*
X267500D02*
X267750Y70500D01*
X309946Y77446D02*
X316250Y83750D01*
X309946Y76922D02*
Y77446D01*
X316250Y83750D02*
Y84750D01*
X317322Y70250D02*
X319300D01*
X316990Y69918D02*
X317322Y70250D01*
X313206Y69918D02*
X316990D01*
X310010Y66750D02*
X310038D01*
X313206Y69918D01*
X286375Y161625D02*
Y169675D01*
X286250Y169800D02*
X286375Y169675D01*
Y161625D02*
X286500Y161500D01*
X293915Y214750D02*
X294500D01*
X286640Y222025D02*
X293915Y214750D01*
X272287Y218975D02*
X273287Y219975D01*
X272140Y218975D02*
X272287D01*
X273287Y219975D02*
Y222975D01*
X276000Y225688D01*
Y226500D01*
X278676Y266574D02*
X279250Y266000D01*
X271500Y270500D02*
X272500D01*
X276426Y266574D01*
X278676D01*
X286025Y273525D02*
X294975D01*
X286000Y273550D02*
X286025Y273525D01*
X294975D02*
X295000Y273500D01*
X286000Y327550D02*
Y336500D01*
X271375Y324625D02*
Y331875D01*
X271250Y332000D02*
X271375Y331875D01*
X155125Y289875D02*
X155250Y289750D01*
X144875Y289875D02*
X155125D01*
X144750Y290000D02*
X144875Y289875D01*
X213612Y297747D02*
Y319613D01*
X213750Y319750D01*
X213475Y297610D02*
X213612Y297747D01*
D54*
X86750Y319750D02*
D03*
X112150D02*
D03*
X213750D02*
D03*
X188350D02*
D03*
X162950D02*
D03*
X137550D02*
D03*
D55*
X480000Y150000D02*
D03*
X460000D02*
D03*
X450000Y10000D02*
D03*
X430000Y330000D02*
D03*
X440000Y110000D02*
D03*
X430000Y10000D02*
D03*
X420000Y110000D02*
D03*
Y70000D02*
D03*
X410000Y50000D02*
D03*
X390000Y290000D02*
D03*
X400000Y30000D02*
D03*
X360000D02*
D03*
X310000Y330000D02*
D03*
X250000D02*
D03*
X230000D02*
D03*
X200000Y310000D02*
D03*
Y230000D02*
D03*
X190000Y210000D02*
D03*
Y170000D02*
D03*
Y130000D02*
D03*
X180000Y230000D02*
D03*
X170000Y170000D02*
D03*
Y130000D02*
D03*
X150000Y330000D02*
D03*
Y210000D02*
D03*
Y170000D02*
D03*
X160000Y150000D02*
D03*
X130000Y210000D02*
D03*
Y170000D02*
D03*
X120000Y230000D02*
D03*
Y190000D02*
D03*
X110000Y170000D02*
D03*
X100000Y310000D02*
D03*
X90000Y250000D02*
D03*
X100000Y110000D02*
D03*
X70000Y10000D02*
D03*
X60000Y230000D02*
D03*
Y30000D02*
D03*
X50000Y10000D02*
D03*
X40000Y230000D02*
D03*
X30000Y130000D02*
D03*
Y90000D02*
D03*
X10000Y210000D02*
D03*
X20000Y190000D02*
D03*
X10000Y170000D02*
D03*
Y130000D02*
D03*
X20000Y110000D02*
D03*
X10000Y90000D02*
D03*
X20000Y70000D02*
D03*
X10000Y50000D02*
D03*
X114000Y32000D02*
D03*
X99000Y68000D02*
D03*
X416000Y37000D02*
D03*
X479000Y67000D02*
D03*
X465000D02*
D03*
X450000D02*
D03*
X436000Y68000D02*
D03*
X373023Y193636D02*
D03*
X422924Y142750D02*
D03*
X430500Y145000D02*
D03*
X419250Y149000D02*
D03*
X430500Y153000D02*
D03*
X452750Y160000D02*
D03*
X419250Y161000D02*
D03*
X430500D02*
D03*
X419250Y173000D02*
D03*
X430500D02*
D03*
X387000Y174250D02*
D03*
X481000Y178750D02*
D03*
X430500Y184750D02*
D03*
X419250Y185000D02*
D03*
X447750Y192979D02*
D03*
X419250Y197000D02*
D03*
X468500Y221250D02*
D03*
X399000Y227750D02*
D03*
X374500Y229500D02*
D03*
X441500Y231000D02*
D03*
X468500Y232000D02*
D03*
X409750Y235500D02*
D03*
X417000Y235750D02*
D03*
X450000Y240000D02*
D03*
X460000D02*
D03*
X433250Y241000D02*
D03*
X417000Y243000D02*
D03*
X388750Y246250D02*
D03*
X401750Y246500D02*
D03*
X465000Y250000D02*
D03*
X435000D02*
D03*
X445000D02*
D03*
X455000D02*
D03*
X430000Y260000D02*
D03*
X440000D02*
D03*
X460000D02*
D03*
X450000D02*
D03*
X485000Y280000D02*
D03*
X394000Y281250D02*
D03*
X480000Y290000D02*
D03*
X374586Y113949D02*
D03*
X430500Y136750D02*
D03*
X419250Y136500D02*
D03*
X400250Y89000D02*
D03*
X420000Y120000D02*
D03*
X400000Y97000D02*
D03*
X379000Y99250D02*
D03*
X387750Y99500D02*
D03*
X394750Y104000D02*
D03*
X245000Y16000D02*
D03*
X255500Y160750D02*
D03*
X277000D02*
D03*
X220000Y83000D02*
D03*
X228000Y147000D02*
D03*
X216000Y135000D02*
D03*
X105082Y215489D02*
D03*
X104544Y201885D02*
D03*
X175000Y30000D02*
D03*
X390500D02*
D03*
X490250Y182000D02*
D03*
X65000Y332500D02*
D03*
Y312500D02*
D03*
X75000Y297500D02*
D03*
X55000D02*
D03*
X204000Y39000D02*
D03*
X181500Y269750D02*
D03*
X355000Y227500D02*
D03*
X330750Y244250D02*
D03*
X319750Y244500D02*
D03*
X227000Y208750D02*
D03*
X244418Y253239D02*
D03*
X304750Y224500D02*
D03*
X300250Y117750D02*
D03*
X291250D02*
D03*
X214500Y150250D02*
D03*
X139500Y224000D02*
D03*
X212500Y122750D02*
D03*
X348750Y175000D02*
D03*
X272250Y280000D02*
D03*
X307000Y277250D02*
D03*
X154500Y270750D02*
D03*
X146750Y271000D02*
D03*
X120000Y180000D02*
D03*
X180000Y145000D02*
D03*
X160000Y165000D02*
D03*
X140000Y185000D02*
D03*
X125000Y200000D02*
D03*
X200000Y195000D02*
D03*
X205000Y215000D02*
D03*
X190000Y235000D02*
D03*
X180000Y215000D02*
D03*
X165000Y235000D02*
D03*
X244250Y39750D02*
D03*
X211000Y35000D02*
D03*
X191750Y34750D02*
D03*
X115000Y20000D02*
D03*
X140000Y35000D02*
D03*
X100000D02*
D03*
X445000Y305000D02*
D03*
X425000D02*
D03*
X490000Y290000D02*
D03*
X435000Y305000D02*
D03*
X103250Y175750D02*
D03*
X50000Y61000D02*
D03*
X291000Y16000D02*
D03*
X15750Y235250D02*
D03*
X71250Y278000D02*
D03*
X71000Y256750D02*
D03*
X144000Y130500D02*
D03*
X144250Y145500D02*
D03*
X103750Y121000D02*
D03*
X104000Y130750D02*
D03*
X108000Y63000D02*
D03*
X167000Y85500D02*
D03*
X161750Y62000D02*
D03*
X207750Y77500D02*
D03*
X223200Y70000D02*
D03*
X272500Y94500D02*
D03*
X258750Y70000D02*
D03*
X309946Y76922D02*
D03*
X310010Y66750D02*
D03*
X286500Y161500D02*
D03*
X294500Y214750D02*
D03*
X276000Y226500D02*
D03*
X279250Y266000D02*
D03*
X295000Y273500D02*
D03*
X286000Y336500D02*
D03*
X271250Y332000D02*
D03*
X317500Y140750D02*
D03*
X317000Y225250D02*
D03*
X317750Y333250D02*
D03*
X394250Y301750D02*
D03*
X368750Y301250D02*
D03*
X355750Y281250D02*
D03*
X127500Y272750D02*
D03*
X136000Y272500D02*
D03*
X221000Y142000D02*
D03*
X216499Y226125D02*
D03*
X221750Y190750D02*
D03*
X209250Y226250D02*
D03*
X198996Y245500D02*
D03*
X191750Y245750D02*
D03*
X173750Y270250D02*
D03*
X164750Y269750D02*
D03*
X144750Y290000D02*
D03*
X237500Y304250D02*
D03*
X116750Y73750D02*
D03*
X15500Y296000D02*
D03*
X329591Y141395D02*
D03*
X336750Y140250D02*
D03*
X299755Y151755D02*
D03*
X299750Y159250D02*
D03*
X367250Y189250D02*
D03*
X365250Y226500D02*
D03*
X117500Y288000D02*
D03*
X238500Y96250D02*
D03*
X45000Y116000D02*
D03*
X45500Y133500D02*
D03*
X60250Y147750D02*
D03*
X58750Y191500D02*
D03*
X25500Y151250D02*
D03*
X21750Y168750D02*
D03*
X50000Y218000D02*
D03*
X69250Y220500D02*
D03*
X123250Y116250D02*
D03*
X132250Y116750D02*
D03*
X152250Y116250D02*
D03*
X176891Y115586D02*
D03*
X196750Y117750D02*
D03*
X230500Y170500D02*
D03*
Y180500D02*
D03*
D56*
X178250Y280250D02*
D03*
Y289750D02*
D03*
Y299250D02*
D03*
X155250D02*
D03*
Y289750D02*
D03*
Y280250D02*
D03*
D57*
X286000Y327550D02*
D03*
Y308500D02*
D03*
X308860Y318025D02*
D03*
Y264025D02*
D03*
X286000Y254500D02*
D03*
Y273550D02*
D03*
X309110Y160275D02*
D03*
X286250Y150750D02*
D03*
Y169800D02*
D03*
X309500Y212500D02*
D03*
X286640Y202975D02*
D03*
Y222025D02*
D03*
D58*
X271500Y324500D02*
D03*
X260500D02*
D03*
X271500Y270500D02*
D03*
X260500D02*
D03*
X272140Y218975D02*
D03*
X261140D02*
D03*
X271750Y167750D02*
D03*
X260750D02*
D03*
D59*
X438550Y132250D02*
D03*
X411450D02*
D03*
X438550Y217750D02*
D03*
X411450D02*
D03*
D60*
Y137000D02*
D03*
X438550D02*
D03*
X411450Y141000D02*
D03*
X438550D02*
D03*
X411450Y145000D02*
D03*
X438550D02*
D03*
X411450Y149000D02*
D03*
X438550D02*
D03*
X411450Y153000D02*
D03*
X438550D02*
D03*
X411450Y157000D02*
D03*
X438550D02*
D03*
X411450Y161000D02*
D03*
X438550D02*
D03*
X411450Y165000D02*
D03*
X438550D02*
D03*
X411450Y169000D02*
D03*
X438550D02*
D03*
X411450Y173000D02*
D03*
X438550D02*
D03*
X411450Y177000D02*
D03*
X438550D02*
D03*
X411450Y181000D02*
D03*
X438550D02*
D03*
X411450Y185000D02*
D03*
X438550D02*
D03*
X411450Y189000D02*
D03*
X438550D02*
D03*
X411450Y193000D02*
D03*
X438550D02*
D03*
X411450Y197000D02*
D03*
X438550D02*
D03*
X411450Y201000D02*
D03*
X438550D02*
D03*
X411450Y205000D02*
D03*
X438550D02*
D03*
X411450Y209000D02*
D03*
X438550D02*
D03*
X411450Y213000D02*
D03*
X438550D02*
D03*
D61*
X108300Y71750D02*
D03*
X89250D02*
D03*
X98775Y48890D02*
D03*
X203950Y274750D02*
D03*
X223000D02*
D03*
X213475Y297610D02*
D03*
X327865Y126500D02*
D03*
X346915D02*
D03*
X337390Y149360D02*
D03*
X319300Y70250D02*
D03*
X300250D02*
D03*
X309775Y47390D02*
D03*
X267750Y70500D02*
D03*
X248700D02*
D03*
X258225Y47640D02*
D03*
X152434D02*
D03*
X142909Y70500D02*
D03*
X161959D02*
D03*
X205943Y47220D02*
D03*
X196418Y70080D02*
D03*
X215468D02*
D03*
M02*
