M48
;Layer_Color=9474304
;FILE_FORMAT=4:4
METRIC,LZ
;TYPE=PLATED
T01F00S00C0.3000
T02F00S00C1.0000
;TYPE=NON_PLATED
T03F00S00C2.2000
%
T01
X0005Y00061
X00098255Y0007175
X00108Y00063
X0011675Y0007375
X0012325Y0011625
X0013225Y0011675
X00144Y001305
X0014425Y001455
X00104Y0013075
X0010375Y00121
X00045Y00116
X000455Y001335
X001Y00035
X00115Y0002
X0014Y00035
X0015Y00032
X0016175Y00062
X00167Y000855
X00176891Y00115586
X0019675Y0011775
X002125Y0012275
X002225Y0013275
Y0014
X00228505Y0014475
X0018Y00145
X0015225Y0011625
X0020775Y000775
X0022075Y000835
X002232Y0007
X0025875Y0007
X002725Y000945
X002385Y0009625
X0024425Y0003975
X0025372Y00016096
X00291Y00016
X0031001Y0006675
X00309946Y00076922
X0030025Y0011775
X0029125
X003175Y0014075
X00329591Y00141395
X0033675Y0014025
X00374586Y00113949
X00380504Y0009925
X0038775Y000995
X00393676Y00103676
X0040025Y000965
Y00089
X0042Y00105
Y0012
X0041925Y001365
X00422924Y0014275
X004305Y00145
Y0013675
X004525Y000925
X00425Y00068
X00489Y00067
X0038Y00032
X00211Y00035
X00204Y00039
X0019175Y0003475
X002145Y0015025
X002305Y001705
Y001805
X0022175Y0019075
X00227Y0020875
X00216499Y00226125
X0020925Y0022625
X00205Y00215
X002Y00195
X0018Y00215
X0019Y00235
X0019175Y0024575
X00198996Y002455
X001815Y0026975
X0017375Y0027025
X0016475Y0026975
X001545Y0027075
X00165Y00235
X0016Y00165
X002555Y001605
X00279Y001615
X002865
X0029975Y0015925
X00299755Y00151755
X002945Y0021475
X0030475Y002245
X00317Y0022525
X0031975Y002445
X0033075Y0024425
X00355Y002275
X0036525Y002265
X003745Y002295
X00399Y0022775
X0040975Y002355
X00417Y0023575
Y00243
X0043325Y00241
X00435Y0025
X00445
X00455
X00465
X0046Y0026
X0045
X0044
X0043
X0045Y0024
X0046
X004685Y00232
Y0022125
X004415Y00231
X0044775Y00192979
X004305Y0018475
X0041925Y00185
Y00173
X004305
Y00161
Y00153
X0041925Y00149
Y00161
X0045275Y0016
X00481Y0017875
X0049025Y00182
X0041925Y00197
X00373023Y00193636
X0036725Y0018925
X0034875Y00175
X00387Y0017425
X0038875Y0024625
X0040175Y002465
X00394Y0028125
X0039425Y0030175
X0036875Y0030125
X0035575Y0028125
X00307Y0027725
X00295Y002735
X0027925Y00266
X0027225Y0028
X0027125Y00332
X00286Y003365
X0031775Y0033325
X002375Y0030425
X00244418Y00253239
X00276Y002265
X00425Y00305
X00435
X00445
X0048Y0029
X0049
X00485Y0028
X0014675Y00271
X00136Y002725
X001275Y0027275
X001175Y00288
X0014475Y0029
X001395Y00224
X00125Y002
X00107376Y00206124
X0010225Y0021125
X0010325Y0017575
X0012Y0018
X0014Y00185
X0005875Y001915
X0005Y00218
X0006925Y002205
X00071Y0025675
X0007125Y00278
X00075Y002975
X00055
X00065Y003125
Y003325
X000155Y00296
X0001575Y0023525
X0002175Y0016875
X000255Y0015125
X0006025Y0014775
T02
X0016295Y0031975
X0018835
X0021375
X0013755
X0011215
X0008675
T03
X0003Y0003
X0047
Y0032
X0003
M30
