G04*
G04 #@! TF.GenerationSoftware,Altium Limited,Altium Designer,24.6.1 (21)*
G04*
G04 Layer_Physical_Order=1*
G04 Layer_Color=255*
%FSLAX44Y44*%
%MOMM*%
G71*
G04*
G04 #@! TF.SameCoordinates,8C3B9B05-ACC6-4427-9BA9-DFA0FBC772BB*
G04*
G04*
G04 #@! TF.FilePolarity,Positive*
G04*
G01*
G75*
%ADD12C,0.2000*%
%ADD14C,0.1500*%
%ADD16R,1.1000X1.0000*%
%ADD17O,1.4500X0.3000*%
%ADD18O,0.3000X1.4500*%
%ADD19R,1.0500X1.3000*%
%ADD20R,0.9000X1.0500*%
%ADD21R,0.6080X2.2044*%
G04:AMPARAMS|DCode=22|XSize=2.2044mm|YSize=0.608mm|CornerRadius=0.304mm|HoleSize=0mm|Usage=FLASHONLY|Rotation=270.000|XOffset=0mm|YOffset=0mm|HoleType=Round|Shape=RoundedRectangle|*
%AMROUNDEDRECTD22*
21,1,2.2044,0.0000,0,0,270.0*
21,1,1.5965,0.6080,0,0,270.0*
1,1,0.6080,0.0000,-0.7982*
1,1,0.6080,0.0000,0.7982*
1,1,0.6080,0.0000,0.7982*
1,1,0.6080,0.0000,-0.7982*
%
%ADD22ROUNDEDRECTD22*%
%ADD23R,0.5000X0.7000*%
%ADD24R,0.8000X0.9500*%
%ADD25R,1.5000X1.4000*%
%ADD26R,0.9500X0.8000*%
%ADD27R,1.0500X0.9000*%
%ADD28R,3.2500X2.1500*%
%ADD29R,0.9000X2.1500*%
%ADD30R,2.7062X0.9542*%
%ADD31R,1.4000X1.5000*%
%ADD32R,2.0000X1.4000*%
%ADD52C,0.5000*%
%ADD53C,0.3000*%
%ADD54C,2.0000*%
%ADD55C,0.6000*%
G36*
X470000Y347451D02*
X471799D01*
X475367Y346981D01*
X478843Y346050D01*
X482167Y344673D01*
X485284Y342874D01*
X488139Y340683D01*
X490683Y338139D01*
X492874Y335284D01*
X494673Y332168D01*
X496050Y328843D01*
X496982Y325367D01*
X497451Y321799D01*
X497451Y320000D01*
X497451Y30000D01*
Y28201D01*
X496981Y24633D01*
X496050Y21157D01*
X494673Y17833D01*
X492874Y14716D01*
X490683Y11861D01*
X488139Y9317D01*
X485284Y7126D01*
X482168Y5327D01*
X478843Y3950D01*
X475367Y3019D01*
X471799Y2549D01*
X470000Y2549D01*
X30000Y2549D01*
X28201D01*
X24633Y3018D01*
X21157Y3950D01*
X17833Y5327D01*
X14716Y7126D01*
X11861Y9317D01*
X9317Y11861D01*
X7126Y14716D01*
X5327Y17832D01*
X3950Y21157D01*
X3019Y24633D01*
X2549Y28201D01*
X2549Y30000D01*
Y320000D01*
Y321799D01*
X3018Y325367D01*
X3950Y328843D01*
X5327Y332167D01*
X7126Y335284D01*
X9317Y338139D01*
X11861Y340683D01*
X14716Y342874D01*
X17832Y344673D01*
X21157Y346050D01*
X24633Y346981D01*
X28201Y347451D01*
X30000Y347451D01*
X470000Y347451D01*
D02*
G37*
%LPC*%
G36*
X286995Y341500D02*
X285005D01*
X283168Y340739D01*
X281761Y339332D01*
X281000Y337495D01*
Y335505D01*
X281761Y333668D01*
X283168Y332261D01*
X285005Y331500D01*
X286995D01*
X288832Y332261D01*
X290239Y333668D01*
X291000Y335505D01*
Y337495D01*
X290239Y339332D01*
X288832Y340739D01*
X286995Y341500D01*
D02*
G37*
G36*
X272245Y337000D02*
X270255D01*
X268418Y336239D01*
X267011Y334832D01*
X266250Y332995D01*
Y331005D01*
X267011Y329168D01*
X268418Y327761D01*
X270255Y327000D01*
X272245D01*
X274082Y327761D01*
X275489Y329168D01*
X276250Y331005D01*
Y332995D01*
X275489Y334832D01*
X274082Y336239D01*
X272245Y337000D01*
D02*
G37*
G36*
X411740Y330031D02*
X407700D01*
Y318009D01*
X411740D01*
Y330031D01*
D02*
G37*
G36*
X405700D02*
X401660D01*
Y318009D01*
X405700D01*
Y330031D01*
D02*
G37*
G36*
X215330Y331750D02*
X212170D01*
X209118Y330932D01*
X206382Y329352D01*
X204148Y327118D01*
X202568Y324382D01*
X201750Y321330D01*
Y318170D01*
X202568Y315118D01*
X204148Y312382D01*
X206382Y310148D01*
X209118Y308568D01*
X212170Y307750D01*
X215330D01*
X218382Y308568D01*
X221118Y310148D01*
X223352Y312382D01*
X224932Y315118D01*
X225750Y318170D01*
Y321330D01*
X224932Y324382D01*
X223352Y327118D01*
X221118Y329352D01*
X218382Y330932D01*
X215330Y331750D01*
D02*
G37*
G36*
X189930D02*
X186770D01*
X183718Y330932D01*
X180982Y329352D01*
X178748Y327118D01*
X177168Y324382D01*
X176350Y321330D01*
Y318170D01*
X177168Y315118D01*
X178748Y312382D01*
X180982Y310148D01*
X183718Y308568D01*
X186770Y307750D01*
X189930D01*
X192982Y308568D01*
X195718Y310148D01*
X197952Y312382D01*
X199532Y315118D01*
X200350Y318170D01*
Y321330D01*
X199532Y324382D01*
X197952Y327118D01*
X195718Y329352D01*
X192982Y330932D01*
X189930Y331750D01*
D02*
G37*
G36*
X164530D02*
X161370D01*
X158318Y330932D01*
X155582Y329352D01*
X153348Y327118D01*
X151768Y324382D01*
X150950Y321330D01*
Y318170D01*
X151768Y315118D01*
X153348Y312382D01*
X155582Y310148D01*
X158318Y308568D01*
X161370Y307750D01*
X164530D01*
X167582Y308568D01*
X170318Y310148D01*
X172552Y312382D01*
X174132Y315118D01*
X174950Y318170D01*
Y321330D01*
X174132Y324382D01*
X172552Y327118D01*
X170318Y329352D01*
X167582Y330932D01*
X164530Y331750D01*
D02*
G37*
G36*
X139130D02*
X135970D01*
X132918Y330932D01*
X130182Y329352D01*
X127948Y327118D01*
X126368Y324382D01*
X125550Y321330D01*
Y318170D01*
X126368Y315118D01*
X127948Y312382D01*
X130182Y310148D01*
X132918Y308568D01*
X135970Y307750D01*
X139130D01*
X142182Y308568D01*
X144918Y310148D01*
X147152Y312382D01*
X148732Y315118D01*
X149550Y318170D01*
Y321330D01*
X148732Y324382D01*
X147152Y327118D01*
X144918Y329352D01*
X142182Y330932D01*
X139130Y331750D01*
D02*
G37*
G36*
X113730D02*
X110570D01*
X107518Y330932D01*
X104782Y329352D01*
X102548Y327118D01*
X100968Y324382D01*
X100150Y321330D01*
Y318170D01*
X100968Y315118D01*
X102548Y312382D01*
X104782Y310148D01*
X107518Y308568D01*
X110570Y307750D01*
X113730D01*
X116782Y308568D01*
X119518Y310148D01*
X121752Y312382D01*
X123332Y315118D01*
X124150Y318170D01*
Y321330D01*
X123332Y324382D01*
X121752Y327118D01*
X119518Y329352D01*
X116782Y330932D01*
X113730Y331750D01*
D02*
G37*
G36*
X88330D02*
X85170D01*
X82118Y330932D01*
X79382Y329352D01*
X77148Y327118D01*
X75568Y324382D01*
X74750Y321330D01*
Y318170D01*
X75568Y315118D01*
X77148Y312382D01*
X79382Y310148D01*
X82118Y308568D01*
X85170Y307750D01*
X88330D01*
X91382Y308568D01*
X94118Y310148D01*
X96352Y312382D01*
X97932Y315118D01*
X98750Y318170D01*
Y321330D01*
X97932Y324382D01*
X96352Y327118D01*
X94118Y329352D01*
X91382Y330932D01*
X88330Y331750D01*
D02*
G37*
G36*
X411740Y316009D02*
X407700D01*
Y303987D01*
X411740D01*
Y316009D01*
D02*
G37*
G36*
X405700D02*
X401660D01*
Y303987D01*
X405700D01*
Y316009D01*
D02*
G37*
G36*
X343200Y330130D02*
X341233Y329739D01*
X339566Y328625D01*
X338452Y326958D01*
X338061Y324991D01*
Y309027D01*
X338452Y307060D01*
X339566Y305393D01*
X341233Y304279D01*
X343200Y303888D01*
X345167Y304279D01*
X346834Y305393D01*
X347948Y307060D01*
X348339Y309027D01*
Y324991D01*
X347948Y326958D01*
X346834Y328625D01*
X345167Y329739D01*
X343200Y330130D01*
D02*
G37*
G36*
X330500D02*
X328534Y329739D01*
X326866Y328625D01*
X325752Y326958D01*
X325361Y324991D01*
Y309027D01*
X325752Y307060D01*
X326866Y305393D01*
X328534Y304279D01*
X330500Y303888D01*
X332467Y304279D01*
X334134Y305393D01*
X335247Y307060D01*
X335639Y309027D01*
Y324991D01*
X335247Y326958D01*
X334134Y328625D01*
X332467Y329739D01*
X330500Y330130D01*
D02*
G37*
G36*
X318745Y338250D02*
X316755D01*
X314918Y337489D01*
X313511Y336082D01*
X312750Y334245D01*
Y332255D01*
X313511Y330418D01*
X314118Y329811D01*
X314166Y328625D01*
X313053Y326958D01*
X312661Y324991D01*
Y309027D01*
X313053Y307060D01*
X314166Y305393D01*
X315833Y304279D01*
X317800Y303888D01*
X319767Y304279D01*
X321434Y305393D01*
X322547Y307060D01*
X322939Y309027D01*
Y324991D01*
X322547Y326958D01*
X321434Y328625D01*
X321418Y329847D01*
X321989Y330418D01*
X322750Y332255D01*
Y334245D01*
X321989Y336082D01*
X320582Y337489D01*
X318745Y338250D01*
D02*
G37*
G36*
X381300Y330130D02*
X379333Y329739D01*
X377666Y328625D01*
X376553Y326958D01*
X376161Y324991D01*
Y309027D01*
X376553Y307060D01*
X377666Y305393D01*
X377921Y305223D01*
X378037Y303752D01*
X375000Y300715D01*
X373750Y301233D01*
Y302245D01*
X372989Y304082D01*
X372184Y304887D01*
X372234Y305393D01*
X373348Y307060D01*
X373739Y309027D01*
Y324991D01*
X373348Y326958D01*
X372234Y328625D01*
X370566Y329739D01*
X368600Y330130D01*
X366633Y329739D01*
X364966Y328625D01*
X363853Y326958D01*
X363461Y324991D01*
Y309027D01*
X363853Y307060D01*
X364966Y305393D01*
X365043Y304614D01*
X364511Y304082D01*
X363750Y302245D01*
Y300255D01*
X364248Y299054D01*
X363492Y297804D01*
X354868D01*
X354389Y298959D01*
X357883Y302452D01*
X358490Y303362D01*
X358704Y304435D01*
Y304839D01*
X359534Y305393D01*
X360648Y307060D01*
X361039Y309027D01*
Y324991D01*
X360648Y326958D01*
X359534Y328625D01*
X357867Y329739D01*
X355900Y330130D01*
X353933Y329739D01*
X352266Y328625D01*
X351152Y326958D01*
X350761Y324991D01*
Y309027D01*
X351152Y307060D01*
X352266Y305393D01*
X352323Y304823D01*
X348054Y300554D01*
X242508D01*
X241899Y301804D01*
X242500Y303255D01*
Y305245D01*
X241739Y307082D01*
X240332Y308489D01*
X238495Y309250D01*
X236505D01*
X234668Y308489D01*
X233261Y307082D01*
X232500Y305245D01*
Y303255D01*
X233101Y301804D01*
X232492Y300554D01*
X93750D01*
X92677Y300340D01*
X91767Y299733D01*
X75031Y282997D01*
X74082Y282239D01*
X72245Y283000D01*
X70255D01*
X69789Y282807D01*
X68750Y283501D01*
Y287750D01*
X50750D01*
Y268750D01*
X68750D01*
Y272499D01*
X69789Y273193D01*
X70255Y273000D01*
X72245D01*
X72407Y273067D01*
X73446Y272373D01*
Y262274D01*
X72407Y261579D01*
X71995Y261750D01*
X70005D01*
X69789Y261660D01*
X68750Y262355D01*
Y266250D01*
X50750D01*
Y247250D01*
X68750D01*
Y251145D01*
X69789Y251840D01*
X70005Y251750D01*
X71995D01*
X72407Y251921D01*
X73446Y251226D01*
Y228750D01*
X73660Y227677D01*
X74267Y226767D01*
X80530Y220505D01*
X80703Y219634D01*
X81461Y218500D01*
X80703Y217366D01*
X80630Y217000D01*
X89750D01*
Y215000D01*
X80630D01*
X80703Y214634D01*
X81461Y213500D01*
X80703Y212366D01*
X80431Y211000D01*
X80703Y209634D01*
X81461Y208500D01*
X80703Y207366D01*
X80431Y206000D01*
X80591Y205200D01*
X79439Y204584D01*
X76809Y207214D01*
Y208000D01*
X76809Y208000D01*
X76750Y208296D01*
Y218000D01*
X74751D01*
X74057Y219039D01*
X74250Y219505D01*
Y221495D01*
X73489Y223332D01*
X72082Y224739D01*
X70245Y225500D01*
X68255D01*
X66418Y224739D01*
X65011Y223332D01*
X64250Y221495D01*
Y219505D01*
X64443Y219039D01*
X63749Y218000D01*
X62250D01*
Y205000D01*
X70880D01*
X70924Y204776D01*
X71587Y203784D01*
X72216Y203155D01*
X71738Y202000D01*
X70500D01*
Y195500D01*
X68500D01*
Y202000D01*
X62250D01*
Y196704D01*
X61000Y195980D01*
X59745Y196500D01*
X57755D01*
X56750Y197172D01*
Y200000D01*
X42250D01*
Y185059D01*
X40517D01*
X38250Y187326D01*
Y200000D01*
X37059D01*
Y201250D01*
X40500D01*
Y215750D01*
X27500D01*
Y201250D01*
X30941D01*
Y200000D01*
X23750D01*
Y183000D01*
X33924D01*
X37087Y179837D01*
X37087Y179837D01*
X38080Y179174D01*
X39250Y178941D01*
X58644D01*
X58644Y178941D01*
X59815Y179174D01*
X60807Y179837D01*
X63911Y182941D01*
X68126D01*
X68605Y181786D01*
X63877Y177059D01*
X53750D01*
X53454Y177000D01*
X42250D01*
Y160000D01*
X46441D01*
Y158250D01*
X43500D01*
Y143750D01*
X56500D01*
X56500Y143750D01*
X57617Y143429D01*
X59255Y142750D01*
X61245D01*
X62250Y142078D01*
Y141500D01*
X62561D01*
X63500Y140750D01*
Y134500D01*
X70000D01*
Y133500D01*
X71000D01*
Y126250D01*
X76500D01*
Y134164D01*
X77750Y134174D01*
X78087Y133837D01*
X78087Y133837D01*
X79079Y133174D01*
X79663Y133058D01*
X80334Y132611D01*
X80569Y131691D01*
X80431Y131000D01*
X80703Y129634D01*
X81461Y128500D01*
X80703Y127366D01*
X80431Y126000D01*
X80703Y124634D01*
X81461Y123500D01*
X80703Y122366D01*
X80431Y121000D01*
X80703Y119634D01*
X81477Y118477D01*
X82634Y117703D01*
X84000Y117431D01*
X95500D01*
X96866Y117703D01*
X97604Y118196D01*
X99499D01*
X99511Y118168D01*
X100918Y116761D01*
X102755Y116000D01*
X104745D01*
X106582Y116761D01*
X107989Y118168D01*
X108750Y120005D01*
Y121995D01*
X107989Y123832D01*
X106713Y125109D01*
X106680Y126448D01*
X106832Y126511D01*
X108239Y127918D01*
X109000Y129755D01*
Y131745D01*
X108239Y133582D01*
X106832Y134989D01*
X104995Y135750D01*
X103005D01*
X101168Y134989D01*
X100578Y134399D01*
X99949Y134487D01*
X99593Y135000D01*
X89750D01*
Y137000D01*
X98870D01*
X98797Y137366D01*
X98039Y138500D01*
X98797Y139634D01*
X98870Y140000D01*
X89750D01*
Y142000D01*
X98870D01*
X98797Y142366D01*
X98039Y143500D01*
X98797Y144634D01*
X99069Y146000D01*
X98797Y147366D01*
X98039Y148500D01*
X98797Y149634D01*
X98870Y150000D01*
X89750D01*
Y152000D01*
X98870D01*
X98797Y152366D01*
X98039Y153500D01*
X98797Y154634D01*
X99069Y156000D01*
X98797Y157366D01*
X98039Y158500D01*
X98797Y159634D01*
X99069Y161000D01*
X98797Y162366D01*
X98039Y163500D01*
X98797Y164634D01*
X99069Y166000D01*
X98797Y167366D01*
X98039Y168500D01*
X98797Y169634D01*
X99069Y171000D01*
X99046Y171115D01*
X100198Y171731D01*
X100418Y171511D01*
X102255Y170750D01*
X104245D01*
X106082Y171511D01*
X107489Y172918D01*
X108250Y174755D01*
Y176745D01*
X107489Y178582D01*
X106082Y179989D01*
X104245Y180750D01*
X102255D01*
X100418Y179989D01*
X100073Y179645D01*
X98921Y180260D01*
X99069Y181000D01*
X98797Y182366D01*
X98039Y183500D01*
X98797Y184634D01*
X99069Y186000D01*
X98797Y187366D01*
X98039Y188500D01*
X98797Y189634D01*
X98870Y190000D01*
X89750D01*
Y192000D01*
X98870D01*
X98797Y192366D01*
X98039Y193500D01*
X98797Y194634D01*
X99069Y196000D01*
X98797Y197366D01*
X98039Y198500D01*
X98744Y199555D01*
X99166Y199631D01*
X100069Y199623D01*
X100305Y199052D01*
X101712Y197646D01*
X103550Y196885D01*
X105539D01*
X107376Y197646D01*
X108783Y199052D01*
X109544Y200890D01*
Y202879D01*
X108783Y204717D01*
X107376Y206124D01*
X105539Y206885D01*
X103550D01*
X102746Y207731D01*
X102647Y208478D01*
X102665Y208816D01*
X102791Y209232D01*
X104059Y210501D01*
X104088Y210489D01*
X106077D01*
X107915Y211250D01*
X109321Y212656D01*
X110082Y214494D01*
Y216483D01*
X109321Y218321D01*
X107915Y219728D01*
X106077Y220489D01*
X104088D01*
X102250Y219728D01*
X100843Y218321D01*
X100194Y216752D01*
X98938Y216710D01*
X98927Y216712D01*
X98797Y217366D01*
X98039Y218500D01*
X98797Y219634D01*
X99069Y221000D01*
X98797Y222366D01*
X98039Y223500D01*
X98797Y224634D01*
X99069Y226000D01*
X98797Y227366D01*
X98039Y228500D01*
X98797Y229634D01*
X99069Y231000D01*
X98797Y232366D01*
X98039Y233500D01*
X98797Y234634D01*
X99069Y236000D01*
X98797Y237366D01*
X98039Y238500D01*
X98797Y239634D01*
X99069Y241000D01*
X98797Y242366D01*
X98023Y243523D01*
X96866Y244297D01*
X95500Y244569D01*
X84000D01*
X83554Y244480D01*
X82304Y245465D01*
Y277839D01*
X96661Y292196D01*
X112992D01*
X113470Y291041D01*
X113261Y290832D01*
X112500Y288995D01*
Y287005D01*
X112590Y286789D01*
X111895Y285750D01*
X111000D01*
Y275706D01*
X110063Y274820D01*
X108878Y274820D01*
X108666Y274910D01*
X108000Y275576D01*
Y277500D01*
X102500D01*
Y271250D01*
X103674D01*
X103941Y270983D01*
Y265722D01*
X103703Y265366D01*
X103431Y264000D01*
Y259250D01*
X107000D01*
Y258250D01*
X108000D01*
Y249130D01*
X108366Y249203D01*
X109500Y249961D01*
X110634Y249203D01*
X112000Y248932D01*
X113366Y249203D01*
X114500Y249961D01*
X115634Y249203D01*
X117000Y248932D01*
X118366Y249203D01*
X119500Y249961D01*
X120634Y249203D01*
X122000Y248932D01*
X123366Y249203D01*
X124500Y249961D01*
X125634Y249203D01*
X127000Y248932D01*
X128366Y249203D01*
X129500Y249961D01*
X130634Y249203D01*
X132000Y248932D01*
X133366Y249203D01*
X134500Y249961D01*
X135634Y249203D01*
X137000Y248932D01*
X138366Y249203D01*
X139500Y249961D01*
X140634Y249203D01*
X142000Y248932D01*
X143366Y249203D01*
X144500Y249961D01*
X145634Y249203D01*
X147000Y248932D01*
X148366Y249203D01*
X149500Y249961D01*
X150634Y249203D01*
X152000Y248932D01*
X153366Y249203D01*
X154500Y249961D01*
X155634Y249203D01*
X157000Y248932D01*
X158366Y249203D01*
X159500Y249961D01*
X160634Y249203D01*
X162000Y248932D01*
X163366Y249203D01*
X164500Y249961D01*
X165634Y249203D01*
X167000Y248932D01*
X168366Y249203D01*
X169500Y249961D01*
X170634Y249203D01*
X172000Y248932D01*
X173366Y249203D01*
X174500Y249961D01*
X175634Y249203D01*
X177000Y248932D01*
X178366Y249203D01*
X179500Y249961D01*
X180634Y249203D01*
X182000Y248932D01*
X183366Y249203D01*
X184500Y249961D01*
X185634Y249203D01*
X186356Y249060D01*
X187138Y247860D01*
X187155Y247723D01*
X186750Y246745D01*
Y244755D01*
X187511Y242918D01*
X188918Y241511D01*
X190755Y240750D01*
X192745D01*
X194582Y241511D01*
X195248Y242177D01*
X196163Y241261D01*
X198001Y240500D01*
X199990D01*
X201828Y241261D01*
X203235Y242668D01*
X203246Y242696D01*
X220000D01*
X221073Y242910D01*
X221983Y243517D01*
X227495Y249030D01*
X228366Y249203D01*
X229523Y249977D01*
X230297Y251134D01*
X230569Y252500D01*
Y264000D01*
X230297Y265366D01*
X229523Y266523D01*
X228366Y267297D01*
X227000Y267569D01*
X225634Y267297D01*
X224500Y266539D01*
X223366Y267297D01*
X222000Y267569D01*
X220634Y267297D01*
X219500Y266539D01*
X218366Y267297D01*
X217000Y267569D01*
X215634Y267297D01*
X214500Y266539D01*
X213366Y267297D01*
X212000Y267569D01*
X210634Y267297D01*
X209500Y266539D01*
X208366Y267297D01*
X207000Y267569D01*
X205634Y267297D01*
X204500Y266539D01*
X203366Y267297D01*
X202000Y267569D01*
X200634Y267297D01*
X199500Y266539D01*
X198366Y267297D01*
X197000Y267569D01*
X195634Y267297D01*
X194500Y266539D01*
X193366Y267297D01*
X192000Y267569D01*
X190634Y267297D01*
X189500Y266539D01*
X188366Y267297D01*
X187334Y267502D01*
X186451Y268637D01*
X186500Y268755D01*
Y270745D01*
X186002Y271946D01*
X186758Y273196D01*
X225589D01*
X239017Y259767D01*
X239927Y259160D01*
X241000Y258946D01*
X272589D01*
X280548Y250986D01*
X281458Y250378D01*
X282531Y250165D01*
X412941D01*
X414574Y248532D01*
X414330Y247306D01*
X414168Y247239D01*
X412761Y245832D01*
X412000Y243995D01*
Y243304D01*
X334500D01*
X333427Y243090D01*
X332517Y242482D01*
X331839Y241804D01*
X301000D01*
X299927Y241590D01*
X299017Y240983D01*
X281514Y223479D01*
X280454Y224187D01*
X281000Y225505D01*
Y227495D01*
X280239Y229332D01*
X278832Y230739D01*
X276995Y231500D01*
X275005D01*
X273964Y231069D01*
X271750D01*
Y237000D01*
X261576D01*
X260910Y237666D01*
X260556Y238500D01*
X260910Y239334D01*
X261576Y240000D01*
X263500D01*
Y245500D01*
X257250D01*
Y244326D01*
X256983Y244059D01*
X251722D01*
X251366Y244297D01*
X250000Y244569D01*
X245250D01*
Y241000D01*
X244250D01*
Y240000D01*
X235130D01*
X235203Y239634D01*
X235961Y238500D01*
X235203Y237366D01*
X234931Y236000D01*
X235203Y234634D01*
X235961Y233500D01*
X235203Y232366D01*
X234931Y231000D01*
X235107Y230116D01*
X234327Y228866D01*
X220775D01*
X220738Y228957D01*
X219331Y230364D01*
X217493Y231125D01*
X215504D01*
X213667Y230364D01*
X212937Y229634D01*
X212082Y230489D01*
X210245Y231250D01*
X208255D01*
X206418Y230489D01*
X205011Y229082D01*
X204250Y227245D01*
Y225255D01*
X205011Y223418D01*
X206418Y222011D01*
X208255Y221250D01*
X210245D01*
X212082Y222011D01*
X212812Y222741D01*
X213667Y221886D01*
X215504Y221125D01*
X217493D01*
X219331Y221886D01*
X220704Y223259D01*
X234411D01*
X235132Y222009D01*
X234931Y221000D01*
X235203Y219634D01*
X235961Y218500D01*
X235203Y217366D01*
X234931Y216000D01*
X235203Y214634D01*
X235961Y213500D01*
X235203Y212366D01*
X234931Y211000D01*
X235203Y209634D01*
X235961Y208500D01*
X235203Y207366D01*
X234931Y206000D01*
X235203Y204634D01*
X235961Y203500D01*
X235203Y202366D01*
X234931Y201000D01*
X235203Y199634D01*
X235961Y198500D01*
X235203Y197366D01*
X234931Y196000D01*
X235145Y194929D01*
X234453Y193679D01*
X225892D01*
X224582Y194989D01*
X222745Y195750D01*
X220755D01*
X218918Y194989D01*
X217511Y193582D01*
X216750Y191745D01*
Y189755D01*
X217511Y187918D01*
X218918Y186511D01*
X220755Y185750D01*
X222745D01*
X224582Y186511D01*
X225989Y187918D01*
X226052Y188071D01*
X234286D01*
X235095Y186821D01*
X234931Y186000D01*
X235169Y184804D01*
X235128Y184690D01*
X233929Y184142D01*
X233332Y184739D01*
X231495Y185500D01*
X229505D01*
X227668Y184739D01*
X226261Y183332D01*
X225500Y181495D01*
Y179505D01*
X226261Y177668D01*
X227668Y176261D01*
X227872Y176176D01*
Y174823D01*
X227668Y174739D01*
X226261Y173332D01*
X225500Y171495D01*
Y169505D01*
X226261Y167668D01*
X227668Y166261D01*
X229505Y165500D01*
X231495D01*
X233332Y166261D01*
X233802Y166731D01*
X234954Y166115D01*
X234931Y166000D01*
X235203Y164634D01*
X235961Y163500D01*
X235203Y162366D01*
X234931Y161000D01*
X235203Y159634D01*
X235961Y158500D01*
X235203Y157366D01*
X234931Y156000D01*
X235203Y154634D01*
X235961Y153500D01*
X235203Y152366D01*
X234931Y151000D01*
X235203Y149634D01*
X235961Y148500D01*
X235203Y147366D01*
X234931Y146000D01*
X235203Y144634D01*
X235755Y143808D01*
X235187Y142628D01*
X234017Y142323D01*
X232206Y144135D01*
X232239Y144168D01*
X233000Y146005D01*
Y147995D01*
X232239Y149832D01*
X230832Y151239D01*
X228995Y152000D01*
X227005D01*
X225168Y151239D01*
X223761Y149832D01*
X223000Y147995D01*
Y147672D01*
X221994Y147000D01*
X220005D01*
X218168Y146239D01*
X216761Y144832D01*
X216000Y142995D01*
Y141005D01*
X215328Y140000D01*
X215005D01*
X213168Y139239D01*
X211761Y137832D01*
X211000Y135995D01*
Y134005D01*
X211761Y132168D01*
X213168Y130761D01*
X215005Y130000D01*
X216995D01*
X217023Y130012D01*
X218017Y129017D01*
X218927Y128410D01*
X220000Y128196D01*
X234369D01*
X235120Y126946D01*
X234931Y126000D01*
X235203Y124634D01*
X235961Y123500D01*
X235203Y122366D01*
X234931Y121000D01*
X235203Y119634D01*
X235977Y118477D01*
X237134Y117703D01*
X238500Y117431D01*
X250000D01*
X251366Y117703D01*
X252523Y118477D01*
X253297Y119634D01*
X253569Y121000D01*
X253297Y122366D01*
X252539Y123500D01*
X253297Y124634D01*
X253569Y126000D01*
X253297Y127366D01*
X252539Y128500D01*
X253297Y129634D01*
X253569Y131000D01*
X253297Y132366D01*
X252539Y133500D01*
X253297Y134634D01*
X253569Y136000D01*
X253297Y137366D01*
X252539Y138500D01*
X253297Y139634D01*
X253569Y141000D01*
X253297Y142366D01*
X252539Y143500D01*
X253297Y144634D01*
X253569Y146000D01*
X253297Y147366D01*
X252539Y148500D01*
X253297Y149634D01*
X253569Y151000D01*
X253297Y152366D01*
X252539Y153500D01*
X253297Y154634D01*
X253345Y154878D01*
X254506Y155750D01*
X256495D01*
X258332Y156511D01*
X259739Y157918D01*
X260500Y159755D01*
Y161745D01*
X259739Y163582D01*
X259750Y163695D01*
X260233Y164017D01*
X268411Y172196D01*
X313545D01*
X313924Y170946D01*
X313416Y170607D01*
X312302Y168940D01*
X311911Y166973D01*
Y154558D01*
X304005D01*
X303993Y154587D01*
X303076Y155505D01*
X303989Y156418D01*
X304750Y158255D01*
Y160245D01*
X303989Y162082D01*
X302582Y163489D01*
X300745Y164250D01*
X298755D01*
X296918Y163489D01*
X295511Y162082D01*
X294750Y160245D01*
Y158255D01*
X295511Y156418D01*
X296429Y155500D01*
X295516Y154587D01*
X294755Y152749D01*
Y150760D01*
X295516Y148922D01*
X296922Y147516D01*
X298760Y146755D01*
X300749D01*
X302587Y147516D01*
X303993Y148922D01*
X304005Y148951D01*
X312364D01*
X313416Y147375D01*
X314850Y146417D01*
X314923Y145532D01*
X314817Y145051D01*
X314668Y144989D01*
X313261Y143582D01*
X312500Y141745D01*
Y139755D01*
X313261Y137918D01*
X313666Y136875D01*
X312553Y135208D01*
X312161Y133241D01*
Y117277D01*
X312553Y115310D01*
X313392Y114054D01*
X312844Y112804D01*
X284000D01*
Y118000D01*
X272000D01*
X260000D01*
Y112804D01*
X232611D01*
X230432Y114983D01*
X229523Y115590D01*
X228450Y115804D01*
X220550D01*
X219477Y115590D01*
X218568Y114983D01*
X216567Y112983D01*
X216304Y112930D01*
X215054Y113798D01*
Y118396D01*
X215332Y118511D01*
X216739Y119918D01*
X217500Y121756D01*
Y123745D01*
X216739Y125582D01*
X215332Y126989D01*
X213495Y127750D01*
X211505D01*
X209668Y126989D01*
X208261Y125582D01*
X207500Y123745D01*
Y121756D01*
X208261Y119918D01*
X209446Y118733D01*
Y113375D01*
X208921Y113094D01*
X208196Y112831D01*
X207000Y113069D01*
X205634Y112797D01*
X204500Y112039D01*
X203366Y112797D01*
X202000Y113069D01*
X200929Y112856D01*
X200778Y112939D01*
X200420Y114349D01*
X200989Y114918D01*
X201750Y116755D01*
Y118745D01*
X200989Y120582D01*
X199582Y121989D01*
X197745Y122750D01*
X195755D01*
X193918Y121989D01*
X192511Y120582D01*
X191750Y118745D01*
Y116755D01*
X192511Y114918D01*
X193355Y114073D01*
X192740Y112921D01*
X192000Y113069D01*
X190634Y112797D01*
X189500Y112039D01*
X188366Y112797D01*
X187000Y113069D01*
X185634Y112797D01*
X184500Y112039D01*
X183366Y112797D01*
X182567Y112956D01*
X181725Y114192D01*
X181891Y114592D01*
Y116581D01*
X181130Y118419D01*
X179723Y119825D01*
X177886Y120586D01*
X175896D01*
X174059Y119825D01*
X172652Y118419D01*
X171891Y116581D01*
Y114592D01*
X172037Y114239D01*
X171232Y112916D01*
X170634Y112797D01*
X169500Y112039D01*
X168366Y112797D01*
X167000Y113069D01*
X165634Y112797D01*
X164500Y112039D01*
X163366Y112797D01*
X162000Y113069D01*
X160634Y112797D01*
X159500Y112039D01*
X158366Y112797D01*
X157644Y112941D01*
X156862Y114140D01*
X156845Y114277D01*
X157250Y115255D01*
Y117245D01*
X156489Y119082D01*
X155082Y120489D01*
X153244Y121250D01*
X151255D01*
X149418Y120489D01*
X148011Y119082D01*
X147250Y117245D01*
Y115255D01*
X147684Y114207D01*
X147218Y113431D01*
X146818Y113032D01*
X145634Y112797D01*
X144500Y112039D01*
X143366Y112797D01*
X142000Y113069D01*
X140634Y112797D01*
X139500Y112039D01*
X138366Y112797D01*
X137340Y113001D01*
X137090Y113270D01*
X136758Y113866D01*
X136635Y114270D01*
X137250Y115755D01*
Y117745D01*
X136489Y119582D01*
X135082Y120989D01*
X133245Y121750D01*
X131255D01*
X129418Y120989D01*
X128317Y119888D01*
X128004Y119584D01*
X126755Y119816D01*
X126082Y120489D01*
X124245Y121250D01*
X122255D01*
X120418Y120489D01*
X119011Y119082D01*
X118250Y117245D01*
Y115255D01*
X118818Y113884D01*
X118817Y113882D01*
X118000Y112989D01*
Y103750D01*
X116000D01*
Y112870D01*
X115634Y112797D01*
X114500Y112039D01*
X113366Y112797D01*
X112000Y113069D01*
X110634Y112797D01*
X109500Y112039D01*
X108366Y112797D01*
X107000Y113069D01*
X105634Y112797D01*
X104477Y112023D01*
X103703Y110866D01*
X103431Y109500D01*
Y98000D01*
X103703Y96634D01*
X104477Y95477D01*
X105634Y94703D01*
X107000Y94431D01*
X107691Y94569D01*
X108941Y93699D01*
Y91017D01*
X108674Y90750D01*
X100000D01*
Y77251D01*
X99250Y76750D01*
X97261D01*
X95423Y75989D01*
X94017Y74582D01*
X93255Y72745D01*
Y71076D01*
X91238Y69059D01*
X88500D01*
Y73250D01*
X75500D01*
Y58750D01*
X88500D01*
Y62941D01*
X92505D01*
X92505Y62941D01*
X93676Y63174D01*
X94668Y63837D01*
X97581Y66750D01*
X99250D01*
X101088Y67511D01*
X102494Y68918D01*
X103255Y70756D01*
Y72745D01*
X102494Y74582D01*
X102077Y75000D01*
X102594Y76250D01*
X107953D01*
X111964Y72240D01*
X112511Y70918D01*
X113918Y69511D01*
X115755Y68750D01*
X117745D01*
X119582Y69511D01*
X120989Y70918D01*
X121750Y72755D01*
Y74745D01*
X121557Y75211D01*
X122251Y76250D01*
X129000D01*
Y82500D01*
X122500D01*
Y84500D01*
X129000D01*
Y85402D01*
X130155Y85880D01*
X140901Y75134D01*
Y72974D01*
X141114Y71901D01*
X141722Y70992D01*
X173696Y39017D01*
X174606Y38410D01*
X175679Y38196D01*
X191410D01*
X201588Y28017D01*
X202498Y27410D01*
X203571Y27196D01*
X254370D01*
X254500Y26000D01*
X254500Y25750D01*
Y21000D01*
X261250D01*
Y20000D01*
X262250D01*
Y14000D01*
X267750D01*
X268000Y14000D01*
X269000Y13397D01*
Y12250D01*
X283500D01*
Y15946D01*
X286000D01*
Y15005D01*
X286761Y13168D01*
X288168Y11761D01*
X290005Y11000D01*
X291995D01*
X293832Y11761D01*
X295239Y13168D01*
X296000Y15005D01*
Y16995D01*
X295239Y18832D01*
X293832Y20239D01*
X291995Y21000D01*
X290005D01*
X289899Y20956D01*
X289323Y21340D01*
X288250Y21554D01*
X283500D01*
Y25250D01*
X269250D01*
X269000Y25250D01*
X268000Y25854D01*
Y27000D01*
X268000Y27250D01*
Y27647D01*
X269000Y28250D01*
X279535D01*
X279767Y28017D01*
X280677Y27410D01*
X281750Y27196D01*
X294000D01*
Y23000D01*
X309000D01*
Y37000D01*
X294000D01*
Y32804D01*
X283500D01*
Y41250D01*
X269000D01*
Y39604D01*
X268000Y39000D01*
X254500D01*
Y32804D01*
X205811D01*
X205737Y32955D01*
X206343Y34558D01*
X206832Y34761D01*
X208239Y36168D01*
X209000Y38005D01*
Y39995D01*
X208239Y41832D01*
X208030Y42041D01*
X208508Y43196D01*
X378380D01*
X379453Y43410D01*
X380362Y44017D01*
X395483Y59138D01*
X396090Y60047D01*
X396304Y61120D01*
Y62071D01*
X397134Y62625D01*
X398247Y64292D01*
X398639Y66259D01*
Y82223D01*
X398578Y82528D01*
X399492Y83545D01*
X400269Y83486D01*
X401100Y82416D01*
X401061Y82223D01*
Y66259D01*
X401452Y64292D01*
X402566Y62625D01*
X404234Y61511D01*
X406200Y61120D01*
X408167Y61511D01*
X409834Y62625D01*
X410947Y64292D01*
X411339Y66259D01*
Y82223D01*
X410947Y84190D01*
X409834Y85857D01*
X408167Y86971D01*
X406326Y87337D01*
X406098Y87479D01*
X405250Y88448D01*
Y89995D01*
X404489Y91832D01*
X403196Y93125D01*
X404239Y94168D01*
X405000Y96005D01*
Y97995D01*
X404239Y99832D01*
X402832Y101239D01*
X400994Y102000D01*
X400422D01*
X399750Y103006D01*
Y104995D01*
X398989Y106832D01*
X397582Y108239D01*
X395745Y109000D01*
X393755D01*
X391918Y108239D01*
X390511Y106832D01*
X389750Y104995D01*
X388908Y104432D01*
X388745Y104500D01*
X386755D01*
X386245Y104289D01*
X385537Y105348D01*
X392521Y112333D01*
X393500Y112138D01*
X395466Y112529D01*
X397134Y113643D01*
X398247Y115310D01*
X398639Y117277D01*
Y133241D01*
X398247Y135208D01*
X397134Y136875D01*
X395466Y137989D01*
X393500Y138380D01*
X391534Y137989D01*
X389866Y136875D01*
X388753Y135208D01*
X388361Y133241D01*
Y117277D01*
X388556Y116298D01*
X386009Y113751D01*
X385038Y114548D01*
X385547Y115310D01*
X385939Y117277D01*
Y133241D01*
X385547Y135208D01*
X384434Y136875D01*
X382766Y137989D01*
X380800Y138380D01*
X378834Y137989D01*
X377166Y136875D01*
X376053Y135208D01*
X375661Y133241D01*
Y119003D01*
X375581Y118949D01*
X373592D01*
X373239Y119185D01*
Y133241D01*
X372848Y135208D01*
X371734Y136875D01*
X370066Y137989D01*
X368100Y138380D01*
X366133Y137989D01*
X364466Y136875D01*
X363353Y135208D01*
X362961Y133241D01*
Y117277D01*
X363353Y115310D01*
X364466Y113643D01*
X366133Y112529D01*
X368100Y112138D01*
X369786Y112473D01*
X370348Y111117D01*
X371754Y109710D01*
X373339Y109054D01*
X373090Y107804D01*
X338960D01*
X338442Y109054D01*
X341721Y112333D01*
X342700Y112138D01*
X344666Y112529D01*
X346334Y113643D01*
X347448Y115310D01*
X347839Y117277D01*
Y133241D01*
X347448Y135208D01*
X346334Y136875D01*
X344666Y137989D01*
X342737Y138372D01*
X342570Y138414D01*
X341750Y139465D01*
Y141245D01*
X340989Y143082D01*
X339582Y144489D01*
X337745Y145250D01*
X335755D01*
X333918Y144489D01*
X333743Y144314D01*
X332665Y145392D01*
X332585Y146504D01*
X332658Y146890D01*
X333384Y147375D01*
X334497Y149043D01*
X334889Y151009D01*
Y166973D01*
X334497Y168940D01*
X333384Y170607D01*
X332503Y171196D01*
X332340Y172012D01*
X331733Y172921D01*
X327671Y176983D01*
X326762Y177590D01*
X325689Y177804D01*
X267250D01*
X266177Y177590D01*
X265267Y176983D01*
X257089Y168804D01*
X254131D01*
X253380Y170054D01*
X253569Y171000D01*
X253297Y172366D01*
X252539Y173500D01*
X253297Y174634D01*
X253470Y175505D01*
X257161Y179196D01*
X378362D01*
X379435Y179410D01*
X380345Y180017D01*
X395233Y194905D01*
X395840Y195815D01*
X396054Y196888D01*
Y197839D01*
X396884Y198393D01*
X397998Y200060D01*
X398389Y202027D01*
Y217991D01*
X397998Y219958D01*
X396884Y221625D01*
X395216Y222739D01*
X393250Y223130D01*
X391283Y222739D01*
X389616Y221625D01*
X388503Y219958D01*
X388111Y217991D01*
Y202027D01*
X388503Y200060D01*
X389616Y198393D01*
X389722Y197325D01*
X377201Y184804D01*
X371643D01*
X371125Y186054D01*
X371489Y186418D01*
X372250Y188255D01*
Y188636D01*
X374017D01*
X375855Y189397D01*
X377262Y190804D01*
X377380Y191090D01*
X377846Y191182D01*
X378755Y191790D01*
X382533Y195567D01*
X383140Y196477D01*
X383354Y197550D01*
Y197839D01*
X384184Y198393D01*
X385298Y200060D01*
X385689Y202027D01*
Y217991D01*
X385298Y219958D01*
X384184Y221625D01*
X382517Y222739D01*
X380550Y223130D01*
X378583Y222739D01*
X376916Y221625D01*
X375802Y219958D01*
X375411Y217991D01*
Y202027D01*
X375802Y200060D01*
X376293Y199326D01*
X376204Y199082D01*
X374626Y198384D01*
X374017Y198636D01*
X373149D01*
X372481Y199886D01*
X372598Y200060D01*
X372989Y202027D01*
Y217991D01*
X372598Y219958D01*
X371484Y221625D01*
X370123Y222534D01*
X369758Y223186D01*
X369646Y224047D01*
X370076Y225085D01*
X371219Y225463D01*
X371478Y225451D01*
X371668Y225261D01*
X373505Y224500D01*
X375495D01*
X377332Y225261D01*
X378739Y226668D01*
X379500Y228505D01*
Y230495D01*
X379106Y231446D01*
X379941Y232696D01*
X405499D01*
X405511Y232668D01*
X406918Y231261D01*
X408755Y230500D01*
X410745D01*
X412582Y231261D01*
X413500Y232179D01*
X414168Y231511D01*
X416005Y230750D01*
X417995D01*
X418157Y230817D01*
X419196Y230123D01*
Y221559D01*
X412267Y214630D01*
X412240Y214589D01*
X410990Y214968D01*
Y223031D01*
X406950D01*
Y210009D01*
Y196987D01*
X410990D01*
X411446Y195926D01*
Y189135D01*
X394229Y171917D01*
X393250Y172112D01*
X391283Y171721D01*
X389616Y170607D01*
X388503Y168940D01*
X388111Y166973D01*
Y151009D01*
X388503Y149043D01*
X389616Y147375D01*
X390472Y146804D01*
X390093Y145554D01*
X384985D01*
X384097Y146500D01*
X384184Y147375D01*
X385298Y149043D01*
X385689Y151009D01*
Y166973D01*
X385298Y168940D01*
X384184Y170607D01*
X382517Y171721D01*
X380550Y172112D01*
X378583Y171721D01*
X376916Y170607D01*
X375802Y168940D01*
X375411Y166973D01*
Y151009D01*
X375802Y149043D01*
X376916Y147375D01*
X377746Y146821D01*
Y145870D01*
X377960Y144797D01*
X378567Y143888D01*
X381688Y140767D01*
X382597Y140160D01*
X383670Y139946D01*
X413992D01*
X414748Y138696D01*
X414250Y137495D01*
Y135505D01*
X415011Y133668D01*
X416418Y132261D01*
X418255Y131500D01*
X420245D01*
X422082Y132261D01*
X423489Y133668D01*
X424250Y135505D01*
Y136419D01*
X424435Y136512D01*
X425335Y135960D01*
X425536Y135669D01*
X426261Y133918D01*
X427668Y132511D01*
X429505Y131750D01*
X431495D01*
X433332Y132511D01*
X434739Y133918D01*
X435500Y135755D01*
Y137745D01*
X434739Y139582D01*
X433446Y140875D01*
X434739Y142168D01*
X435500Y144005D01*
Y145995D01*
X434739Y147832D01*
X433571Y149000D01*
X434739Y150168D01*
X435500Y152005D01*
Y153995D01*
X434739Y155832D01*
X433571Y157000D01*
X434739Y158168D01*
X435500Y160005D01*
Y161995D01*
X434739Y163832D01*
X433332Y165239D01*
X431495Y166000D01*
X429505D01*
X427668Y165239D01*
X426261Y163832D01*
X425500Y161995D01*
Y160005D01*
X426261Y158168D01*
X427429Y157000D01*
X426261Y155832D01*
X425500Y153995D01*
Y152005D01*
X426261Y150168D01*
X427429Y149000D01*
X426261Y147832D01*
X425405Y147582D01*
X425190Y147661D01*
X424250Y148460D01*
Y149995D01*
X423489Y151832D01*
X422082Y153239D01*
X420245Y154000D01*
X418255D01*
X416418Y153239D01*
X415011Y151832D01*
X414250Y149995D01*
Y148005D01*
X414748Y146804D01*
X413992Y145554D01*
X409108D01*
X408728Y146804D01*
X409584Y147375D01*
X410698Y149043D01*
X411089Y151009D01*
Y166973D01*
X410698Y168940D01*
X409584Y170607D01*
X407916Y171721D01*
X405950Y172112D01*
X403983Y171721D01*
X403221Y171211D01*
X402424Y172182D01*
X413293Y183051D01*
X414767Y182757D01*
X415011Y182168D01*
X416418Y180761D01*
X418255Y180000D01*
X420245D01*
X422082Y180761D01*
X423489Y182168D01*
X424250Y184005D01*
Y185995D01*
X423489Y187832D01*
X422082Y189239D01*
X420245Y190000D01*
X418256D01*
X417569Y191000D01*
X417661Y191134D01*
X418680Y192000D01*
X420245D01*
X422082Y192761D01*
X423489Y194168D01*
X424250Y196005D01*
Y197995D01*
X423489Y199832D01*
X422082Y201239D01*
X420245Y202000D01*
X418255D01*
X418093Y201933D01*
X417054Y202627D01*
Y211486D01*
X423983Y218415D01*
X424590Y219324D01*
X424804Y220397D01*
Y245071D01*
X424590Y246144D01*
X423983Y247054D01*
X423983Y247054D01*
X416085Y254952D01*
X415175Y255559D01*
X414102Y255773D01*
X412656D01*
X411642Y257023D01*
X411839Y258009D01*
Y273973D01*
X411447Y275940D01*
X410334Y277607D01*
X408666Y278721D01*
X406700Y279112D01*
X404734Y278721D01*
X403066Y277607D01*
X401953Y275940D01*
X401561Y273973D01*
Y258009D01*
X401740Y257113D01*
X400952Y256149D01*
X399748D01*
X398960Y257113D01*
X399139Y258009D01*
Y273973D01*
X398747Y275940D01*
X397634Y277607D01*
X397615Y277794D01*
X398239Y278418D01*
X399000Y280255D01*
Y282245D01*
X398239Y284082D01*
X396832Y285489D01*
X394995Y286250D01*
X393005D01*
X391168Y285489D01*
X389761Y284082D01*
X389000Y282245D01*
Y280255D01*
X389761Y278418D01*
X390385Y277794D01*
X390366Y277607D01*
X389253Y275940D01*
X388861Y273973D01*
Y258009D01*
X389039Y257113D01*
X388252Y256149D01*
X387048D01*
X386260Y257113D01*
X386439Y258009D01*
Y273973D01*
X386048Y275940D01*
X384934Y277607D01*
X384055Y278194D01*
X383890Y279023D01*
X383283Y279933D01*
X372983Y290233D01*
X372073Y290840D01*
X371541Y290946D01*
X371665Y292196D01*
X373250D01*
X374323Y292410D01*
X375233Y293017D01*
X383283Y301067D01*
X383890Y301977D01*
X384104Y303050D01*
Y304839D01*
X384934Y305393D01*
X386048Y307060D01*
X386439Y309027D01*
Y324991D01*
X386048Y326958D01*
X384934Y328625D01*
X383266Y329739D01*
X381300Y330130D01*
D02*
G37*
G36*
X394000D02*
X392034Y329739D01*
X390366Y328625D01*
X389253Y326958D01*
X388861Y324991D01*
Y309027D01*
X389253Y307060D01*
X390366Y305393D01*
X390407Y304978D01*
X390011Y304582D01*
X389250Y302745D01*
Y300755D01*
X390011Y298918D01*
X391418Y297511D01*
X393255Y296750D01*
X395245D01*
X397082Y297511D01*
X398489Y298918D01*
X399250Y300755D01*
Y302745D01*
X398489Y304582D01*
X397651Y305420D01*
X398747Y307060D01*
X399139Y309027D01*
Y324991D01*
X398747Y326958D01*
X397634Y328625D01*
X395966Y329739D01*
X394000Y330130D01*
D02*
G37*
G36*
X470000Y343383D02*
X465438Y342933D01*
X461052Y341603D01*
X457009Y339442D01*
X453466Y336534D01*
X450558Y332991D01*
X448397Y328948D01*
X447067Y324562D01*
X446617Y320000D01*
X447067Y315438D01*
X448397Y311052D01*
X450558Y307009D01*
X453466Y303466D01*
X457009Y300558D01*
X461052Y298397D01*
X465438Y297067D01*
X470000Y296617D01*
X474562Y297067D01*
X478948Y298397D01*
X482991Y300558D01*
X486534Y303466D01*
X489442Y307009D01*
X491603Y311052D01*
X492933Y315438D01*
X493383Y320000D01*
X492933Y324562D01*
X491603Y328948D01*
X489442Y332991D01*
X486534Y336534D01*
X482991Y339442D01*
X478948Y341603D01*
X474562Y342933D01*
X470000Y343383D01*
D02*
G37*
G36*
X30000D02*
X25438Y342933D01*
X21052Y341603D01*
X17009Y339442D01*
X13466Y336534D01*
X10558Y332991D01*
X8397Y328948D01*
X7067Y324562D01*
X6617Y320000D01*
X7067Y315438D01*
X8397Y311052D01*
X10558Y307009D01*
X13466Y303466D01*
X15037Y302177D01*
X14616Y301000D01*
X14505D01*
X12668Y300239D01*
X11261Y298832D01*
X10500Y296995D01*
Y295005D01*
X10797Y294289D01*
X10102Y293250D01*
X8500D01*
Y281500D01*
X8500Y281250D01*
Y280250D01*
X8500Y280000D01*
Y268250D01*
X22000D01*
Y271446D01*
X30750D01*
Y268750D01*
X48750D01*
Y287750D01*
X30750D01*
Y277054D01*
X22000D01*
Y280000D01*
X22000Y280250D01*
Y281250D01*
X22000Y281500D01*
Y293250D01*
X20898D01*
X20203Y294289D01*
X20500Y295005D01*
Y296995D01*
X20351Y297355D01*
X20688Y297856D01*
X21304Y298321D01*
X25438Y297067D01*
X30000Y296617D01*
X34562Y297067D01*
X38948Y298397D01*
X42991Y300558D01*
X46534Y303466D01*
X49442Y307009D01*
X51603Y311052D01*
X52933Y315438D01*
X53383Y320000D01*
X52933Y324562D01*
X51603Y328948D01*
X49442Y332991D01*
X46534Y336534D01*
X42991Y339442D01*
X38948Y341603D01*
X34562Y342933D01*
X30000Y343383D01*
D02*
G37*
G36*
X474250Y295000D02*
X457000D01*
Y283250D01*
X474250D01*
Y295000D01*
D02*
G37*
G36*
X455000D02*
X437750D01*
Y283250D01*
X455000D01*
Y295000D01*
D02*
G37*
G36*
X108000Y285750D02*
X102500D01*
Y279500D01*
X108000D01*
Y285750D01*
D02*
G37*
G36*
X100500D02*
X95000D01*
Y279500D01*
X100500D01*
Y285750D01*
D02*
G37*
G36*
Y277500D02*
X95000D01*
Y271250D01*
X100500D01*
Y277500D01*
D02*
G37*
G36*
X474250Y281250D02*
X457000D01*
Y269500D01*
X474250D01*
Y281250D01*
D02*
G37*
G36*
X455000D02*
X437750D01*
Y269500D01*
X455000D01*
Y281250D01*
D02*
G37*
G36*
X48750Y266250D02*
X30750D01*
Y259804D01*
X23000D01*
Y263000D01*
X9500D01*
Y251250D01*
X9500Y251000D01*
Y250000D01*
X9500Y249750D01*
Y238000D01*
X10352D01*
X11047Y236961D01*
X10750Y236245D01*
Y234255D01*
X11511Y232418D01*
X12918Y231011D01*
X14755Y230250D01*
X16745D01*
X18582Y231011D01*
X19989Y232418D01*
X20750Y234255D01*
Y236245D01*
X20453Y236961D01*
X21148Y238000D01*
X23000D01*
Y249750D01*
X23000Y250000D01*
Y251000D01*
X23000Y251250D01*
Y254196D01*
X30750D01*
Y247250D01*
X48750D01*
Y266250D01*
D02*
G37*
G36*
X106000Y257250D02*
X103431D01*
Y252500D01*
X103703Y251134D01*
X104477Y249977D01*
X105634Y249203D01*
X106000Y249130D01*
Y257250D01*
D02*
G37*
G36*
X271750Y253000D02*
X265500D01*
Y247500D01*
X271750D01*
Y253000D01*
D02*
G37*
G36*
X263500D02*
X257250D01*
Y247500D01*
X263500D01*
Y253000D01*
D02*
G37*
G36*
X243250Y244569D02*
X238500D01*
X237134Y244297D01*
X235977Y243523D01*
X235203Y242366D01*
X235130Y242000D01*
X243250D01*
Y244569D01*
D02*
G37*
G36*
X271750Y245500D02*
X265500D01*
Y240000D01*
X271750D01*
Y245500D01*
D02*
G37*
G36*
X469495Y237000D02*
X467505D01*
X465668Y236239D01*
X464261Y234832D01*
X463750Y233598D01*
X462500Y233847D01*
Y236500D01*
X457000D01*
Y223750D01*
Y211000D01*
X462500D01*
Y219403D01*
X463750Y219652D01*
X464261Y218418D01*
X465668Y217011D01*
X467505Y216250D01*
X469495D01*
X470489Y216662D01*
X472500D01*
Y211000D01*
X473662D01*
Y209500D01*
X470250D01*
Y196500D01*
X484750D01*
X485750Y195896D01*
Y194104D01*
X484750Y193500D01*
X470250D01*
Y180500D01*
X475662D01*
Y179771D01*
X476000Y178071D01*
Y177755D01*
X476761Y175918D01*
X478168Y174511D01*
X480005Y173750D01*
X481995D01*
X483832Y174511D01*
X485239Y175918D01*
X485899Y177512D01*
X486752Y177860D01*
X487250Y177929D01*
X487418Y177761D01*
X489255Y177000D01*
X491245D01*
X493082Y177761D01*
X494489Y179168D01*
X495250Y181005D01*
Y182995D01*
X494738Y184231D01*
X494750Y184250D01*
X494750D01*
Y195250D01*
Y206250D01*
X485750D01*
X484750Y206854D01*
Y209500D01*
X482838D01*
Y211000D01*
X485500D01*
Y236500D01*
X477443D01*
X477000Y236588D01*
X470489D01*
X469495Y237000D01*
D02*
G37*
G36*
X455000Y236500D02*
X449500D01*
Y224750D01*
X455000D01*
Y236500D01*
D02*
G37*
G36*
X404950Y223031D02*
X400910D01*
Y211009D01*
X404950D01*
Y223031D01*
D02*
G37*
G36*
X455000Y222750D02*
X449500D01*
Y211000D01*
X455000D01*
Y222750D01*
D02*
G37*
G36*
X434245Y246000D02*
X432255D01*
X430418Y245239D01*
X429011Y243832D01*
X428250Y241995D01*
Y240005D01*
X428537Y239313D01*
Y236500D01*
X426500D01*
Y211000D01*
X439500D01*
Y225063D01*
X440505Y226000D01*
X442495D01*
X444332Y226761D01*
X445739Y228168D01*
X446500Y230005D01*
Y231995D01*
X445739Y233832D01*
X444332Y235239D01*
X442495Y236000D01*
X440505D01*
X439500Y236500D01*
Y236500D01*
X437713D01*
Y238709D01*
X438250Y240005D01*
Y241995D01*
X437489Y243832D01*
X436082Y245239D01*
X434245Y246000D01*
D02*
G37*
G36*
X468281Y208771D02*
X453750D01*
Y203000D01*
X468281D01*
Y208771D01*
D02*
G37*
G36*
X451750D02*
X437219D01*
Y203000D01*
X451750D01*
Y208771D01*
D02*
G37*
G36*
X50995Y223000D02*
X49005D01*
X47168Y222239D01*
X45761Y220832D01*
X45000Y218995D01*
Y217005D01*
X45090Y216789D01*
X44395Y215750D01*
X43500D01*
Y201250D01*
X56500D01*
Y215750D01*
X55605D01*
X54910Y216789D01*
X55000Y217005D01*
Y218995D01*
X54239Y220832D01*
X52832Y222239D01*
X50995Y223000D01*
D02*
G37*
G36*
X404950Y209009D02*
X400910D01*
Y196987D01*
X404950D01*
Y209009D01*
D02*
G37*
G36*
X468281Y201000D02*
X452750D01*
X437219D01*
Y195229D01*
X442145D01*
X442840Y194190D01*
X442750Y193974D01*
Y191985D01*
X443511Y190147D01*
X444918Y188740D01*
X446755Y187979D01*
X448745D01*
X450582Y188740D01*
X451989Y190147D01*
X452750Y191985D01*
Y193974D01*
X452660Y194190D01*
X453355Y195229D01*
X468281D01*
Y201000D01*
D02*
G37*
G36*
X431495Y189750D02*
X429505D01*
X427668Y188989D01*
X426261Y187582D01*
X425500Y185745D01*
Y183755D01*
X426261Y181918D01*
X427668Y180511D01*
X429505Y179750D01*
X431495D01*
X433332Y180511D01*
X434739Y181918D01*
X435500Y183755D01*
Y185745D01*
X434739Y187582D01*
X433332Y188989D01*
X431495Y189750D01*
D02*
G37*
G36*
Y178000D02*
X429505D01*
X427668Y177239D01*
X426261Y175832D01*
X425500Y173995D01*
Y172005D01*
X426261Y170168D01*
X427668Y168761D01*
X429505Y168000D01*
X431495D01*
X433332Y168761D01*
X434739Y170168D01*
X435500Y172005D01*
Y173995D01*
X434739Y175832D01*
X433332Y177239D01*
X431495Y178000D01*
D02*
G37*
G36*
X420245D02*
X418255D01*
X416418Y177239D01*
X415011Y175832D01*
X414250Y173995D01*
Y172005D01*
X415011Y170168D01*
X416418Y168761D01*
X418255Y168000D01*
X420245D01*
X422082Y168761D01*
X423489Y170168D01*
X424250Y172005D01*
Y173995D01*
X423489Y175832D01*
X422082Y177239D01*
X420245Y178000D01*
D02*
G37*
G36*
X287495Y166500D02*
X285505D01*
X283668Y165739D01*
X282261Y164332D01*
X282220Y164232D01*
X280785Y164036D01*
X279832Y164989D01*
X277995Y165750D01*
X276005D01*
X274168Y164989D01*
X272761Y163582D01*
X272000Y161745D01*
Y159755D01*
X272761Y157918D01*
X274168Y156511D01*
X276005Y155750D01*
X277995D01*
X279832Y156511D01*
X281239Y157918D01*
X281280Y158018D01*
X282715Y158214D01*
X283668Y157261D01*
X285505Y156500D01*
X287495D01*
X289332Y157261D01*
X290739Y158668D01*
X291500Y160505D01*
Y162495D01*
X290739Y164332D01*
X289332Y165739D01*
X287495Y166500D01*
D02*
G37*
G36*
X38250Y177000D02*
X23750D01*
Y174422D01*
X22745Y173750D01*
X20755D01*
X18918Y172989D01*
X17511Y171582D01*
X16750Y169745D01*
Y167755D01*
X17511Y165918D01*
X18918Y164511D01*
X20755Y163750D01*
X22745D01*
X23750Y163078D01*
Y160000D01*
X38250D01*
Y177000D01*
D02*
G37*
G36*
X420245Y166000D02*
X418255D01*
X416418Y165239D01*
X415011Y163832D01*
X414250Y161995D01*
Y160005D01*
X415011Y158168D01*
X416418Y156761D01*
X418255Y156000D01*
X420245D01*
X422082Y156761D01*
X423489Y158168D01*
X424250Y160005D01*
Y161995D01*
X423489Y163832D01*
X422082Y165239D01*
X420245Y166000D01*
D02*
G37*
G36*
X468281Y176271D02*
X437219D01*
Y162729D01*
X447269D01*
X447951Y161479D01*
X447750Y160995D01*
Y159005D01*
X448511Y157168D01*
X449918Y155761D01*
X451755Y155000D01*
X453745D01*
X455582Y155761D01*
X456989Y157168D01*
X457750Y159005D01*
Y160995D01*
X457549Y161479D01*
X458231Y162729D01*
X468281D01*
Y176271D01*
D02*
G37*
G36*
X367850Y172112D02*
X365883Y171721D01*
X364216Y170607D01*
X363102Y168940D01*
X362711Y166973D01*
Y151009D01*
X363102Y149043D01*
X364216Y147375D01*
X365883Y146261D01*
X367850Y145870D01*
X369817Y146261D01*
X371484Y147375D01*
X372598Y149043D01*
X372989Y151009D01*
Y166973D01*
X372598Y168940D01*
X371484Y170607D01*
X369817Y171721D01*
X367850Y172112D01*
D02*
G37*
G36*
X355150D02*
X353184Y171721D01*
X351516Y170607D01*
X350402Y168940D01*
X350011Y166973D01*
Y151009D01*
X350402Y149043D01*
X351516Y147375D01*
X353184Y146261D01*
X355150Y145870D01*
X357117Y146261D01*
X358784Y147375D01*
X359897Y149043D01*
X360289Y151009D01*
Y166973D01*
X359897Y168940D01*
X358784Y170607D01*
X357117Y171721D01*
X355150Y172112D01*
D02*
G37*
G36*
X342450D02*
X340484Y171721D01*
X338816Y170607D01*
X337702Y168940D01*
X337311Y166973D01*
Y151009D01*
X337702Y149043D01*
X338816Y147375D01*
X340484Y146261D01*
X342450Y145870D01*
X344417Y146261D01*
X346084Y147375D01*
X347197Y149043D01*
X347589Y151009D01*
Y166973D01*
X347197Y168940D01*
X346084Y170607D01*
X344417Y171721D01*
X342450Y172112D01*
D02*
G37*
G36*
X40500Y158250D02*
X27500D01*
Y156922D01*
X26495Y156250D01*
X24505D01*
X22668Y155489D01*
X21261Y154082D01*
X20500Y152245D01*
Y150255D01*
X21261Y148418D01*
X22668Y147011D01*
X24505Y146250D01*
X26495D01*
X27500Y145578D01*
Y143750D01*
X40500D01*
Y158250D01*
D02*
G37*
G36*
X145245Y150500D02*
X143255D01*
X141418Y149739D01*
X140011Y148332D01*
X139250Y146495D01*
Y144505D01*
X140011Y142668D01*
X141418Y141261D01*
X143255Y140500D01*
X145245D01*
X147082Y141261D01*
X148489Y142668D01*
X149250Y144505D01*
Y146495D01*
X148489Y148332D01*
X147082Y149739D01*
X145245Y150500D01*
D02*
G37*
G36*
X478250Y134500D02*
X469750D01*
Y126500D01*
X478250D01*
Y134500D01*
D02*
G37*
G36*
X467750D02*
X459250D01*
Y126500D01*
X467750D01*
Y134500D01*
D02*
G37*
G36*
X411240Y138281D02*
X407200D01*
Y126259D01*
X411240D01*
Y138281D01*
D02*
G37*
G36*
X405200D02*
X401160D01*
Y126259D01*
X405200D01*
Y138281D01*
D02*
G37*
G36*
X69000Y132500D02*
X63500D01*
Y126250D01*
X69000D01*
Y132500D01*
D02*
G37*
G36*
X60500Y140750D02*
X47500D01*
Y139172D01*
X46494Y138500D01*
X44505D01*
X42668Y137739D01*
X41261Y136332D01*
X40500Y134495D01*
Y132505D01*
X41261Y130668D01*
X42668Y129261D01*
X44505Y128500D01*
X46494D01*
X47500Y127828D01*
Y126250D01*
X60500D01*
Y140750D01*
D02*
G37*
G36*
X144995Y135500D02*
X143005D01*
X141168Y134739D01*
X139761Y133332D01*
X139000Y131495D01*
Y129505D01*
X139761Y127668D01*
X141168Y126261D01*
X143005Y125500D01*
X144995D01*
X146832Y126261D01*
X148239Y127668D01*
X149000Y129505D01*
Y131495D01*
X148239Y133332D01*
X146832Y134739D01*
X144995Y135500D01*
D02*
G37*
G36*
X60500Y123250D02*
X47500D01*
Y121501D01*
X46461Y120807D01*
X45995Y121000D01*
X44005D01*
X42168Y120239D01*
X40761Y118832D01*
X40000Y116995D01*
Y115005D01*
X40761Y113168D01*
X42168Y111761D01*
X44005Y111000D01*
X45995D01*
X46461Y111193D01*
X47500Y110499D01*
Y108750D01*
X60500D01*
Y123250D01*
D02*
G37*
G36*
X284000Y128000D02*
X273000D01*
Y120000D01*
X284000D01*
Y128000D01*
D02*
G37*
G36*
X271000D02*
X260000D01*
Y120000D01*
X271000D01*
Y128000D01*
D02*
G37*
G36*
X76500Y123250D02*
X71000D01*
Y117000D01*
X76500D01*
Y123250D01*
D02*
G37*
G36*
X69000D02*
X63500D01*
Y117000D01*
X69000D01*
Y123250D01*
D02*
G37*
G36*
X478250Y124500D02*
X469750D01*
Y116500D01*
X478250D01*
Y124500D01*
D02*
G37*
G36*
X467750D02*
X459250D01*
Y116500D01*
X467750D01*
Y124500D01*
D02*
G37*
G36*
X411240Y124259D02*
X407200D01*
Y112237D01*
X411240D01*
Y124259D01*
D02*
G37*
G36*
X405200D02*
X401160D01*
Y112237D01*
X405200D01*
Y124259D01*
D02*
G37*
G36*
X355400Y138380D02*
X353433Y137989D01*
X351766Y136875D01*
X350653Y135208D01*
X350261Y133241D01*
Y117277D01*
X350653Y115310D01*
X351766Y113643D01*
X353433Y112529D01*
X355400Y112138D01*
X357366Y112529D01*
X359034Y113643D01*
X360148Y115310D01*
X360539Y117277D01*
Y133241D01*
X360148Y135208D01*
X359034Y136875D01*
X357366Y137989D01*
X355400Y138380D01*
D02*
G37*
G36*
X76500Y115000D02*
X71000D01*
Y108750D01*
X76500D01*
Y115000D01*
D02*
G37*
G36*
X69000D02*
X63500D01*
Y108750D01*
X69000D01*
Y115000D01*
D02*
G37*
G36*
X420995Y110000D02*
X419005D01*
X417168Y109239D01*
X415761Y107832D01*
X415000Y105995D01*
Y104005D01*
X415761Y102168D01*
X417168Y100761D01*
X419005Y100000D01*
X420995D01*
X422832Y100761D01*
X424239Y102168D01*
X425000Y104005D01*
Y105995D01*
X424239Y107832D01*
X422832Y109239D01*
X420995Y110000D01*
D02*
G37*
G36*
X478250Y114500D02*
X459250D01*
Y96500D01*
X472696D01*
Y95250D01*
X469750D01*
X469500Y95250D01*
X468500D01*
X468250Y95250D01*
X456773D01*
X456739Y95332D01*
X455332Y96739D01*
X453495Y97500D01*
X451505D01*
X449668Y96739D01*
X448261Y95332D01*
X447500Y93495D01*
Y91505D01*
X448261Y89668D01*
X449668Y88261D01*
X451505Y87500D01*
X453495D01*
X453523Y87512D01*
X454517Y86517D01*
X455427Y85910D01*
X456500Y85696D01*
Y81750D01*
X468250D01*
X468500Y81750D01*
X469500D01*
X469750Y81750D01*
X481500D01*
Y95250D01*
X478304D01*
Y99250D01*
X478250Y99521D01*
Y114500D01*
D02*
G37*
G36*
X72500Y73250D02*
X59500D01*
Y68804D01*
X55000D01*
X53927Y68590D01*
X53017Y67983D01*
X51023Y65988D01*
X50995Y66000D01*
X49005D01*
X47168Y65239D01*
X45761Y63832D01*
X45000Y61995D01*
Y60005D01*
X45761Y58168D01*
X47168Y56761D01*
X49005Y56000D01*
X50995D01*
X52832Y56761D01*
X54239Y58168D01*
X55000Y60005D01*
Y61995D01*
X54988Y62023D01*
X56161Y63196D01*
X59500D01*
Y58750D01*
X63196D01*
Y57500D01*
X61554D01*
Y44000D01*
X64750D01*
Y38446D01*
X64963Y37373D01*
X65571Y36464D01*
X74017Y28017D01*
X74927Y27410D01*
X76000Y27196D01*
X81000D01*
Y23000D01*
X96000D01*
Y37000D01*
X81000D01*
Y32804D01*
X77161D01*
X70358Y39608D01*
Y44000D01*
X73304D01*
X73554Y44000D01*
X74554D01*
X74804Y44000D01*
X79554D01*
Y50750D01*
Y57500D01*
X74804D01*
X74554Y57500D01*
X73554D01*
X73304Y57500D01*
X68804D01*
Y58750D01*
X72500D01*
Y73250D01*
D02*
G37*
G36*
X425995Y73000D02*
X424005D01*
X422168Y72239D01*
X420761Y70832D01*
X420000Y68995D01*
Y67005D01*
X420761Y65168D01*
X422168Y63761D01*
X424005Y63000D01*
X425995D01*
X427832Y63761D01*
X429239Y65168D01*
X430000Y67005D01*
Y68995D01*
X429239Y70832D01*
X427832Y72239D01*
X425995Y73000D01*
D02*
G37*
G36*
X489995Y72000D02*
X488005D01*
X486168Y71239D01*
X484761Y69832D01*
X484000Y67995D01*
Y66005D01*
X484761Y64168D01*
X486168Y62761D01*
X488005Y62000D01*
X489995D01*
X491832Y62761D01*
X493239Y64168D01*
X494000Y66005D01*
Y67995D01*
X493239Y69832D01*
X491832Y71239D01*
X489995Y72000D01*
D02*
G37*
G36*
X108995Y68000D02*
X107006D01*
X105168Y67239D01*
X103761Y65832D01*
X103000Y63995D01*
Y62005D01*
X103761Y60168D01*
X105168Y58761D01*
X107006Y58000D01*
X108995D01*
X110832Y58761D01*
X112239Y60168D01*
X113000Y62005D01*
Y63995D01*
X112239Y65832D01*
X110832Y67239D01*
X108995Y68000D01*
D02*
G37*
G36*
X81554Y57500D02*
Y51750D01*
X86554D01*
Y57500D01*
X81554D01*
D02*
G37*
G36*
X86554Y49750D02*
X81554D01*
Y44000D01*
X86554D01*
Y49750D01*
D02*
G37*
G36*
X382000Y37000D02*
X367000D01*
Y23000D01*
X382000D01*
Y26941D01*
X386488D01*
X387668Y25761D01*
X389505Y25000D01*
X391495D01*
X393332Y25761D01*
X394739Y27168D01*
X395500Y29005D01*
Y30995D01*
X394739Y32832D01*
X393332Y34239D01*
X391495Y35000D01*
X389505D01*
X387668Y34239D01*
X386488Y33059D01*
X382000D01*
Y37000D01*
D02*
G37*
G36*
X169000D02*
X154000D01*
Y23000D01*
X169000D01*
Y26941D01*
X170988D01*
X172168Y25761D01*
X174005Y25000D01*
X175995D01*
X177832Y25761D01*
X179239Y27168D01*
X180000Y29005D01*
Y30995D01*
X179239Y32832D01*
X177832Y34239D01*
X175995Y35000D01*
X174005D01*
X172168Y34239D01*
X170988Y33059D01*
X169000D01*
Y37000D01*
D02*
G37*
G36*
X260250Y19000D02*
X254500D01*
Y14000D01*
X260250D01*
Y19000D01*
D02*
G37*
G36*
X470000Y53383D02*
X465438Y52933D01*
X461052Y51603D01*
X457009Y49442D01*
X453466Y46534D01*
X450558Y42991D01*
X448397Y38948D01*
X447067Y34562D01*
X446617Y30000D01*
X447067Y25438D01*
X448397Y21052D01*
X450558Y17009D01*
X453466Y13466D01*
X457009Y10558D01*
X461052Y8397D01*
X465438Y7067D01*
X470000Y6617D01*
X474562Y7067D01*
X478948Y8397D01*
X482991Y10558D01*
X486534Y13466D01*
X489442Y17009D01*
X491603Y21052D01*
X492933Y25438D01*
X493383Y30000D01*
X492933Y34562D01*
X491603Y38948D01*
X489442Y42991D01*
X486534Y46534D01*
X482991Y49442D01*
X478948Y51603D01*
X474562Y52933D01*
X470000Y53383D01*
D02*
G37*
G36*
X30000D02*
X25438Y52933D01*
X21052Y51603D01*
X17009Y49442D01*
X13466Y46534D01*
X10558Y42991D01*
X8397Y38948D01*
X7067Y34562D01*
X6617Y30000D01*
X7067Y25438D01*
X8397Y21052D01*
X10558Y17009D01*
X13466Y13466D01*
X17009Y10558D01*
X21052Y8397D01*
X25438Y7067D01*
X30000Y6617D01*
X34562Y7067D01*
X38948Y8397D01*
X42991Y10558D01*
X46534Y13466D01*
X49442Y17009D01*
X51603Y21052D01*
X52933Y25438D01*
X53383Y30000D01*
X52933Y34562D01*
X51603Y38948D01*
X49442Y42991D01*
X46534Y46534D01*
X42991Y49442D01*
X38948Y51603D01*
X34562Y52933D01*
X30000Y53383D01*
D02*
G37*
%LPD*%
G36*
X339644Y278391D02*
X339566Y277607D01*
X338452Y275940D01*
X338061Y273973D01*
Y258009D01*
X338240Y257113D01*
X337452Y256149D01*
X336248D01*
X335461Y257113D01*
X335639Y258009D01*
Y273973D01*
X335247Y275940D01*
X334134Y277607D01*
X332467Y278721D01*
X330500Y279112D01*
X328534Y278721D01*
X326866Y277607D01*
X325752Y275940D01*
X325361Y273973D01*
Y258009D01*
X325540Y257113D01*
X324752Y256149D01*
X323548D01*
X322761Y257113D01*
X322939Y258009D01*
Y273973D01*
X322547Y275940D01*
X321434Y277607D01*
X319767Y278721D01*
X317800Y279112D01*
X315833Y278721D01*
X314166Y277607D01*
X313053Y275940D01*
X312661Y273973D01*
Y258009D01*
X312857Y257023D01*
X311844Y255773D01*
X283692D01*
X279620Y259845D01*
X280098Y261000D01*
X280245D01*
X282082Y261761D01*
X283489Y263168D01*
X284250Y265005D01*
Y266995D01*
X283489Y268832D01*
X282082Y270239D01*
X280245Y271000D01*
X278255D01*
X276418Y270239D01*
X275011Y268832D01*
X274250Y266995D01*
Y265729D01*
X273881Y264861D01*
X273095Y264554D01*
X242161D01*
X228733Y277983D01*
X227823Y278590D01*
X226750Y278804D01*
X163929D01*
X162856Y278590D01*
X161946Y277983D01*
X157517Y273554D01*
X156910Y272644D01*
X156696Y271571D01*
Y267508D01*
X155634Y267297D01*
X154500Y266539D01*
X153366Y267297D01*
X152000Y267569D01*
X150634Y267297D01*
X149500Y266539D01*
X148366Y267297D01*
X147000Y267569D01*
X145634Y267297D01*
X144500Y266539D01*
X143366Y267297D01*
X142000Y267569D01*
X140634Y267297D01*
X140138Y266965D01*
X139443Y267323D01*
X139312Y268741D01*
X140239Y269668D01*
X141000Y271505D01*
Y271636D01*
X141012Y271638D01*
X141921Y272246D01*
X152372Y282696D01*
X335339D01*
X339644Y278391D01*
D02*
G37*
G36*
X334196Y231541D02*
X327767Y225112D01*
X327160Y224203D01*
X326946Y223130D01*
Y222179D01*
X326116Y221625D01*
X325003Y219958D01*
X324611Y217991D01*
Y202027D01*
X325003Y200060D01*
X325105Y199906D01*
X324516Y198804D01*
X322284D01*
X321695Y199906D01*
X321797Y200060D01*
X322189Y202027D01*
Y217991D01*
X321797Y219958D01*
X320684Y221625D01*
X321239Y222418D01*
X322000Y224255D01*
Y226245D01*
X321239Y228082D01*
X319832Y229489D01*
X317995Y230250D01*
X316005D01*
X314168Y229489D01*
X312761Y228082D01*
X312000Y226245D01*
Y224255D01*
X312761Y222418D01*
X313416Y221625D01*
X312302Y219958D01*
X311911Y217991D01*
Y202027D01*
X312302Y200060D01*
X312405Y199906D01*
X311816Y198804D01*
X254131D01*
X253380Y200054D01*
X253569Y201000D01*
X253380Y201946D01*
X254131Y203196D01*
X276750D01*
X277823Y203410D01*
X278733Y204017D01*
X288345Y213630D01*
X289716Y213233D01*
X290261Y211918D01*
X291668Y210511D01*
X293505Y209750D01*
X295495D01*
X297332Y210511D01*
X298739Y211918D01*
X299500Y213755D01*
Y215745D01*
X298739Y217582D01*
X297332Y218989D01*
X296017Y219534D01*
X295620Y220905D01*
X307411Y232696D01*
X333718D01*
X334196Y231541D01*
D02*
G37*
G36*
X323981Y105946D02*
X284839Y66804D01*
X264191D01*
X263356Y68054D01*
X263750Y69005D01*
Y70995D01*
X262989Y72832D01*
X262976Y72845D01*
X263454Y74000D01*
X284000D01*
Y92000D01*
X278001D01*
X277307Y93039D01*
X277500Y93505D01*
Y95495D01*
X276739Y97332D01*
X275332Y98739D01*
X273495Y99500D01*
X271505D01*
X269668Y98739D01*
X268261Y97332D01*
X267500Y95495D01*
Y93505D01*
X267693Y93039D01*
X266999Y92000D01*
X260000D01*
Y75171D01*
X259744Y75000D01*
X257755D01*
X255918Y74239D01*
X254511Y72832D01*
X253750Y70995D01*
Y69005D01*
X254144Y68054D01*
X253309Y66804D01*
X228641D01*
X227806Y68054D01*
X228200Y69005D01*
Y70995D01*
X227439Y72832D01*
X226032Y74239D01*
X224195Y75000D01*
X222205D01*
X220368Y74239D01*
X218961Y72832D01*
X218200Y70995D01*
Y69005D01*
X218594Y68054D01*
X217759Y66804D01*
X212161D01*
X207715Y71250D01*
X208233Y72500D01*
X208745D01*
X210582Y73261D01*
X211989Y74668D01*
X212750Y76505D01*
Y78495D01*
X211989Y80332D01*
X210582Y81739D01*
X208745Y82500D01*
X206755D01*
X206054Y82209D01*
X204804Y83045D01*
Y93869D01*
X206054Y94620D01*
X207000Y94431D01*
X208366Y94703D01*
X209500Y95461D01*
X210634Y94703D01*
X212000Y94431D01*
X213366Y94703D01*
X214500Y95461D01*
X215634Y94703D01*
X217000Y94431D01*
X218366Y94703D01*
X219500Y95461D01*
X220634Y94703D01*
X222000Y94431D01*
X222691Y94569D01*
X223941Y93699D01*
Y90750D01*
X222500D01*
Y84500D01*
X229000D01*
X235500D01*
Y90750D01*
X230059D01*
Y96278D01*
X230297Y96634D01*
X230569Y98000D01*
Y102750D01*
X227000D01*
Y104750D01*
X230569D01*
Y106473D01*
X231450Y107196D01*
X323463D01*
X323981Y105946D01*
D02*
G37*
%LPC*%
G36*
X295995Y278500D02*
X294005D01*
X292168Y277739D01*
X290761Y276332D01*
X290000Y274495D01*
Y272505D01*
X290761Y270668D01*
X292168Y269261D01*
X294005Y268500D01*
X295995D01*
X297832Y269261D01*
X299239Y270668D01*
X300000Y272505D01*
Y274495D01*
X299239Y276332D01*
X297832Y277739D01*
X295995Y278500D01*
D02*
G37*
G36*
X239495Y101250D02*
X237505D01*
X235668Y100489D01*
X234261Y99082D01*
X233500Y97245D01*
Y95255D01*
X234261Y93418D01*
X235668Y92011D01*
X237505Y91250D01*
X238431D01*
Y86500D01*
X238500Y86155D01*
Y76250D01*
X251500D01*
Y90750D01*
X245569D01*
Y92750D01*
X245297Y94116D01*
X244523Y95273D01*
X243500Y96297D01*
Y97245D01*
X242739Y99082D01*
X241332Y100489D01*
X239495Y101250D01*
D02*
G37*
G36*
X235500Y82500D02*
X230000D01*
Y76250D01*
X235500D01*
Y82500D01*
D02*
G37*
G36*
X228000D02*
X222500D01*
Y76250D01*
X228000D01*
Y82500D01*
D02*
G37*
%LPD*%
D12*
X227000Y85500D02*
X228000Y84500D01*
X229000Y83500D01*
X161500Y30000D02*
X175000D01*
X374500D02*
X390500D01*
X80250Y136000D02*
X89750D01*
X78500Y137750D02*
X80250Y136000D01*
X70250Y164000D02*
X73750Y160500D01*
Y159750D02*
X82309Y151191D01*
X89559D01*
X69500Y164000D02*
X70250D01*
X73750Y159750D02*
Y160500D01*
X49500Y169750D02*
X53750Y174000D01*
X31000Y190250D02*
X39250Y182000D01*
X58644D02*
X62644Y186000D01*
X39250Y182000D02*
X58644D01*
X62644Y186000D02*
X89750D01*
X31000Y190250D02*
Y191500D01*
X72144Y181000D02*
X89750D01*
X65144Y174000D02*
X72144Y181000D01*
X49500Y151500D02*
Y169750D01*
X53750Y174000D02*
X65144D01*
X82000Y66000D02*
X92505D01*
X98255Y71750D01*
X82000Y66000D02*
X82250Y66250D01*
X15250Y287250D02*
X15500Y287500D01*
X106500Y82750D02*
Y83500D01*
X54000Y116000D02*
X54000Y116000D01*
X69250Y147750D02*
X69500Y148000D01*
X122500Y83500D02*
Y84250D01*
X117000Y89750D02*
Y103750D01*
Y89750D02*
X122500Y84250D01*
X106500D02*
X112000Y89750D01*
X106500Y83500D02*
Y84250D01*
X112000Y89750D02*
Y103750D01*
X227000Y85500D02*
Y103750D01*
X258250Y236000D02*
X263750Y230500D01*
X244250Y236000D02*
X258250D01*
X263750Y230500D02*
X264500D01*
X244250Y241000D02*
X258250D01*
X263750Y246500D01*
X264500D01*
X117500Y277750D02*
Y278500D01*
X112000Y258250D02*
Y272250D01*
X117500Y277750D01*
X101500D02*
Y278500D01*
X107000Y258250D02*
Y272250D01*
X101500Y277750D02*
X107000Y272250D01*
X70000Y133500D02*
Y134250D01*
X78500Y137750D02*
X81750Y141000D01*
X89750D01*
X89559Y151191D02*
X89750Y151000D01*
X73750Y205947D02*
Y208000D01*
X77590Y202107D02*
X83505Y196191D01*
X69500Y211500D02*
X70250D01*
X77590Y202107D02*
Y202107D01*
X70250Y211500D02*
X73750Y208000D01*
Y205947D02*
X77590Y202107D01*
X83505Y196191D02*
X89559D01*
X89750Y196000D01*
X70250Y195500D02*
X74750Y191000D01*
X89750D01*
X69500Y195500D02*
X70250D01*
X31000Y191500D02*
X34000Y194500D01*
Y208500D01*
X49500Y151500D02*
X50000Y151000D01*
X71500Y146000D02*
X89750D01*
X69500Y148000D02*
X71500Y146000D01*
D14*
X394750Y98000D02*
Y104000D01*
X391000Y94250D02*
X394750Y98000D01*
X350937Y94250D02*
X391000D01*
X342700Y86013D02*
X350937Y94250D01*
X255375Y160875D02*
X255500Y160750D01*
X244250Y161000D02*
X244375Y160875D01*
X255375D01*
X400000Y96250D02*
Y97000D01*
X393429Y89679D02*
X400000Y96250D01*
X388256Y89679D02*
X393429D01*
X330250Y99250D02*
X379000D01*
X228861Y143514D02*
Y146139D01*
X228000Y147000D02*
X228861Y146139D01*
Y143514D02*
X236375Y136000D01*
X216000Y135000D02*
X220000Y131000D01*
X244250D01*
X100594Y211000D02*
X105082Y215489D01*
X89750Y211000D02*
X100594D01*
X100429Y206000D02*
X104544Y201885D01*
X89750Y206000D02*
X100429D01*
X281750Y30000D02*
X301500D01*
X67554Y38446D02*
Y50750D01*
Y38446D02*
X76000Y30000D01*
X88500D01*
X66000Y52304D02*
X67554Y50750D01*
X66000Y52304D02*
Y66000D01*
X277000Y34750D02*
X281750Y30000D01*
X143705Y72974D02*
X175679Y41000D01*
X192571D02*
X203571Y30000D01*
X175679Y41000D02*
X192571D01*
X143705Y72974D02*
Y76295D01*
X203571Y30000D02*
X258250D01*
X261250Y33000D01*
X122000Y98000D02*
X143705Y76295D01*
X276250Y34750D02*
X277000D01*
X261250Y33000D02*
X274500D01*
X276250Y34750D01*
X122000Y98000D02*
Y103750D01*
X381223Y105000D02*
X393500Y117277D01*
X286000Y64000D02*
X327000Y105000D01*
X381223D01*
X317300Y86300D02*
X330250Y99250D01*
X452500Y92500D02*
X456500Y88500D01*
X462500D01*
X374586Y113949D02*
X375447Y114810D01*
X377907D01*
X380800Y117704D01*
X393500Y117277D02*
Y125259D01*
X380800Y117704D02*
Y125259D01*
X380550Y145870D02*
X383670Y142750D01*
X380550Y145870D02*
Y158991D01*
X475500Y88500D02*
Y99250D01*
X469250Y105500D02*
X475500Y99250D01*
X468750Y105500D02*
X469250D01*
X383670Y142750D02*
X422924D01*
X393250Y158991D02*
Y166973D01*
X414250Y187973D01*
X378362Y182000D02*
X393250Y196888D01*
X373023Y193636D02*
X373159Y193773D01*
X376773D01*
X380550Y197550D01*
X414250Y187973D02*
Y212647D01*
X393250Y196888D02*
Y210009D01*
X380550Y197550D02*
Y210009D01*
X414250Y212647D02*
X422000Y220397D01*
X413282Y240500D02*
X415782Y243000D01*
X417000D01*
X414102Y252969D02*
X422000Y245071D01*
Y220397D02*
Y245071D01*
X381300Y265991D02*
Y277950D01*
X394000Y265991D02*
Y281250D01*
X158000Y74000D02*
X173000D01*
X201000Y46000D01*
X378380D01*
X205000Y52000D02*
X346000D01*
X164929Y80500D02*
X176500D01*
X205000Y52000D01*
X187000Y79000D02*
Y103750D01*
X208000Y58000D02*
X326000D01*
X187000Y79000D02*
X208000Y58000D01*
X317300Y74241D02*
Y86300D01*
X346000Y52000D02*
X355400Y61400D01*
Y74241D01*
X393500Y61120D02*
Y74241D01*
X378380Y46000D02*
X393500Y61120D01*
X330000Y62000D02*
Y74241D01*
X326000Y58000D02*
X330000Y62000D01*
X211000Y64000D02*
X286000D01*
X202000Y73000D02*
X211000Y64000D01*
X202000Y73000D02*
Y103750D01*
X137000Y95000D02*
X158000Y74000D01*
X137000Y95000D02*
Y103750D01*
X157000Y88429D02*
X164929Y80500D01*
X157000Y88429D02*
Y103750D01*
X55000Y66000D02*
X66000D01*
X50000Y61000D02*
X55000Y66000D01*
X317050Y153870D02*
Y158991D01*
X299755Y151755D02*
X314934D01*
X317050Y153870D01*
X325689Y175000D02*
X329750Y170939D01*
Y158991D02*
Y170939D01*
X267250Y175000D02*
X325689D01*
X256000Y182000D02*
X378362D01*
X252965Y189000D02*
X359000D01*
X367850Y197850D02*
Y210009D01*
X359000Y189000D02*
X367850Y197850D01*
X329750Y210009D02*
Y223130D01*
X339370Y232750D01*
X371250D01*
X374500Y229500D01*
X276750Y206000D02*
X306250Y235500D01*
X409750D01*
X333000Y239000D02*
X334500Y240500D01*
X273000Y211000D02*
X301000Y239000D01*
X333000D01*
X244250Y211000D02*
X273000D01*
X334500Y240500D02*
X413282D01*
X151210Y285500D02*
X336500D01*
X343200Y278800D01*
Y265991D02*
Y278800D01*
X373250Y295000D02*
X381300Y303050D01*
Y317009D01*
X349215Y297750D02*
X355900Y304435D01*
X93750Y297750D02*
X349215D01*
X355900Y304435D02*
Y317009D01*
X150071Y288250D02*
X371000D01*
X381300Y277950D01*
X139321Y277500D02*
X150071Y288250D01*
X131173Y274744D02*
X133929Y277500D01*
X139321D01*
X128718Y272750D02*
X130712Y274744D01*
X127500Y272750D02*
X128718D01*
X130712Y274744D02*
X131173D01*
X95500Y295000D02*
X373250D01*
X76250Y280250D02*
X93750Y297750D01*
X76250Y228750D02*
X84000Y221000D01*
X76250Y228750D02*
Y280250D01*
X258250Y166000D02*
X267250Y175000D01*
X250000Y176000D02*
X256000Y182000D01*
X244250Y186000D02*
X244758Y186508D01*
X250472D01*
X252965Y189000D01*
X244250Y196000D02*
X336423D01*
X342450Y202027D01*
X136000Y272500D02*
X137218D01*
X139939Y274228D02*
X151210Y285500D01*
X138946Y274228D02*
X139939D01*
X137218Y272500D02*
X138946Y274228D01*
X177000Y264406D02*
X181500Y268906D01*
Y269750D01*
X177000Y258250D02*
Y264406D01*
X159500Y266682D02*
X162000Y264182D01*
X159500Y271571D02*
X163929Y276000D01*
X159500Y266682D02*
Y271571D01*
X163929Y276000D02*
X226750D01*
X241000Y261750D01*
X355075Y210084D02*
Y227425D01*
X355000Y227500D02*
X355075Y227425D01*
Y210084D02*
X355150Y210009D01*
X236375Y136000D02*
X244250D01*
X212250Y122500D02*
X212500Y122750D01*
X212250Y104000D02*
Y122500D01*
X212000Y103750D02*
X212250Y104000D01*
X228450Y113000D02*
X231450Y110000D01*
X220550Y113000D02*
X228450D01*
X231450Y110000D02*
X335423D01*
X217000Y109450D02*
X220550Y113000D01*
X217000Y103750D02*
Y109450D01*
X79500Y279000D02*
X95500Y295000D01*
X89750Y176000D02*
X89875Y175875D01*
X103125D01*
X103250Y175750D01*
X89750Y176000D02*
X95500D01*
X288250Y18750D02*
X291000Y16000D01*
X281250Y18750D02*
X288250D01*
X15750Y235250D02*
Y243500D01*
X16250Y244000D01*
X39500Y257000D02*
X39750Y256750D01*
X16250Y257000D02*
X39500D01*
X59750Y278250D02*
X60000Y278000D01*
X71250D01*
X59750Y256750D02*
X71000D01*
X15250Y274250D02*
X35750D01*
X39750Y278250D01*
X103750Y121000D02*
X103750Y121000D01*
X89750Y121000D02*
X103750D01*
X89750Y131000D02*
X89875Y130875D01*
X103875D01*
X104000Y130750D01*
X282531Y252969D02*
X414102D01*
X273750Y261750D02*
X282531Y252969D01*
X241000Y261750D02*
X273750D01*
X162000Y258250D02*
Y264182D01*
X394125Y301875D02*
Y316884D01*
Y301875D02*
X394250Y301750D01*
X394000Y317009D02*
X394125Y316884D01*
X368600Y317009D02*
X368675Y316934D01*
Y301325D02*
Y316934D01*
Y301325D02*
X368750Y301250D01*
X355750Y281250D02*
X355825Y281175D01*
Y266066D02*
X355900Y265991D01*
X355825Y266066D02*
Y281175D01*
X84000Y221000D02*
X89750D01*
X79500Y230500D02*
X84000Y226000D01*
X79500Y230500D02*
Y279000D01*
X84000Y226000D02*
X89750D01*
X244250Y206000D02*
X276750D01*
X216561Y226063D02*
X244188D01*
X216499Y226125D02*
X216561Y226063D01*
X244188D02*
X244250Y226000D01*
X221750Y190750D02*
X221875Y190875D01*
X244125D01*
X244250Y191000D01*
X226428Y257679D02*
X227000Y258250D01*
X226428Y251929D02*
Y257679D01*
X198996Y245500D02*
X220000D01*
X226428Y251929D01*
X167111Y268889D02*
X172000Y264000D01*
X164750Y269750D02*
X165611Y268889D01*
X172000Y258250D02*
Y264000D01*
X165611Y268889D02*
X167111D01*
X335423Y110000D02*
X342700Y117277D01*
X15500Y287500D02*
Y296000D01*
X342700Y117277D02*
Y125259D01*
X380800Y82223D02*
X388256Y89679D01*
X380800Y74241D02*
Y82223D01*
X342700Y74241D02*
Y86013D01*
X329795Y125463D02*
Y141191D01*
X329591Y141395D02*
X329795Y141191D01*
Y125463D02*
X330000Y125259D01*
X244250Y166000D02*
X258250D01*
X244250Y176000D02*
X250000D01*
X342450Y202027D02*
Y210009D01*
X127000Y103750D02*
Y112500D01*
X123250Y116250D02*
X127000Y112500D01*
X132125Y103875D02*
Y116625D01*
X132250Y116750D01*
X132000Y103750D02*
X132125Y103875D01*
X152125Y116125D02*
X152250Y116250D01*
X152000Y103750D02*
X152125Y103875D01*
Y116125D01*
X176891Y115586D02*
X177000Y115477D01*
Y103750D02*
Y115477D01*
X196875Y103875D02*
Y117625D01*
Y103875D02*
X197000Y103750D01*
X196750Y117750D02*
X196875Y117625D01*
X230750Y170750D02*
X244000D01*
X230500Y170500D02*
X230750Y170750D01*
X244000D02*
X244250Y171000D01*
X244000Y180750D02*
X244250Y181000D01*
X230750Y180750D02*
X244000D01*
X230500Y180500D02*
X230750Y180750D01*
D16*
X374500Y30000D02*
D03*
X301500D02*
D03*
X161500D02*
D03*
X88500D02*
D03*
D17*
X89750Y141000D02*
D03*
Y151000D02*
D03*
Y146000D02*
D03*
Y126000D02*
D03*
Y121000D02*
D03*
Y136000D02*
D03*
Y131000D02*
D03*
Y166000D02*
D03*
Y176000D02*
D03*
Y171000D02*
D03*
Y161000D02*
D03*
Y156000D02*
D03*
Y201000D02*
D03*
Y211000D02*
D03*
Y206000D02*
D03*
Y186000D02*
D03*
Y181000D02*
D03*
Y196000D02*
D03*
Y191000D02*
D03*
Y231000D02*
D03*
Y241000D02*
D03*
Y236000D02*
D03*
Y221000D02*
D03*
Y216000D02*
D03*
Y226000D02*
D03*
X244250Y141000D02*
D03*
Y151000D02*
D03*
Y146000D02*
D03*
Y126000D02*
D03*
Y121000D02*
D03*
Y136000D02*
D03*
Y131000D02*
D03*
Y176000D02*
D03*
Y161000D02*
D03*
Y156000D02*
D03*
Y171000D02*
D03*
Y166000D02*
D03*
Y201000D02*
D03*
Y211000D02*
D03*
Y206000D02*
D03*
Y186000D02*
D03*
Y181000D02*
D03*
Y196000D02*
D03*
Y191000D02*
D03*
Y241000D02*
D03*
Y236000D02*
D03*
Y221000D02*
D03*
Y216000D02*
D03*
Y231000D02*
D03*
Y226000D02*
D03*
D18*
X137000Y103750D02*
D03*
X127000D02*
D03*
X132000D02*
D03*
X152000D02*
D03*
X157000D02*
D03*
X142000D02*
D03*
X147000D02*
D03*
X117000D02*
D03*
X122000D02*
D03*
X107000D02*
D03*
X112000D02*
D03*
X157000Y258250D02*
D03*
X147000D02*
D03*
X152000D02*
D03*
X117000D02*
D03*
X122000D02*
D03*
X107000D02*
D03*
X112000D02*
D03*
X137000D02*
D03*
X142000D02*
D03*
X127000D02*
D03*
X132000D02*
D03*
X207000Y103750D02*
D03*
X197000D02*
D03*
X202000D02*
D03*
X222000D02*
D03*
X227000D02*
D03*
X212000D02*
D03*
X217000D02*
D03*
X172000D02*
D03*
X162000D02*
D03*
X167000D02*
D03*
X187000D02*
D03*
X192000D02*
D03*
X177000D02*
D03*
X182000D02*
D03*
X197000Y258250D02*
D03*
X212000D02*
D03*
X217000D02*
D03*
X202000D02*
D03*
X207000D02*
D03*
X172000D02*
D03*
X162000D02*
D03*
X167000D02*
D03*
X187000D02*
D03*
X192000D02*
D03*
X177000D02*
D03*
X182000D02*
D03*
X222000D02*
D03*
X227000D02*
D03*
D19*
X31000Y168500D02*
D03*
Y191500D02*
D03*
X49500D02*
D03*
Y168500D02*
D03*
D20*
X82000Y66000D02*
D03*
X66000D02*
D03*
X229000Y83500D02*
D03*
X245000D02*
D03*
X122500D02*
D03*
X106500D02*
D03*
X50000Y151000D02*
D03*
X34000D02*
D03*
X34000Y208500D02*
D03*
X50000D02*
D03*
X70000Y133500D02*
D03*
X54000D02*
D03*
X70000Y116000D02*
D03*
X54000D02*
D03*
X101500Y278500D02*
D03*
X117500D02*
D03*
D21*
X406700Y317009D02*
D03*
X406200Y125259D02*
D03*
X405950Y210009D02*
D03*
D22*
X394000Y317009D02*
D03*
X368600D02*
D03*
X381300D02*
D03*
X355900D02*
D03*
X381300Y265991D02*
D03*
X406700D02*
D03*
X394000D02*
D03*
X343200D02*
D03*
X368600D02*
D03*
X355900D02*
D03*
X330500Y317009D02*
D03*
X317800D02*
D03*
X343200D02*
D03*
X330500Y265991D02*
D03*
X317800D02*
D03*
X406200Y74241D02*
D03*
X393500D02*
D03*
X380800D02*
D03*
X368100D02*
D03*
X355400D02*
D03*
X342700D02*
D03*
X330000D02*
D03*
X317300D02*
D03*
Y125259D02*
D03*
X330000D02*
D03*
X342700D02*
D03*
X355400D02*
D03*
X368100D02*
D03*
X380800D02*
D03*
X393500D02*
D03*
X405950Y158991D02*
D03*
X393250D02*
D03*
X380550D02*
D03*
X367850D02*
D03*
X355150D02*
D03*
X342450D02*
D03*
X329750D02*
D03*
X317050D02*
D03*
Y210009D02*
D03*
X329750D02*
D03*
X342450D02*
D03*
X355150D02*
D03*
X367850D02*
D03*
X380550D02*
D03*
X393250D02*
D03*
D23*
X490250Y189750D02*
D03*
Y200750D02*
D03*
D24*
X462500Y88500D02*
D03*
X475500D02*
D03*
X80554Y50750D02*
D03*
X67554D02*
D03*
D25*
X468750Y125500D02*
D03*
Y105500D02*
D03*
D26*
X261250Y20000D02*
D03*
Y33000D02*
D03*
X15250Y274250D02*
D03*
Y287250D02*
D03*
X16250Y257000D02*
D03*
Y244000D02*
D03*
D27*
X276250Y34750D02*
D03*
Y18750D02*
D03*
X477500Y203000D02*
D03*
Y187000D02*
D03*
X264500Y246500D02*
D03*
Y230500D02*
D03*
X69500Y195500D02*
D03*
Y211500D02*
D03*
Y164000D02*
D03*
Y148000D02*
D03*
D28*
X456000Y282250D02*
D03*
D29*
X479000Y223750D02*
D03*
X456000D02*
D03*
X433000D02*
D03*
D30*
X452750Y169500D02*
D03*
Y202000D02*
D03*
D31*
X39750Y256750D02*
D03*
X59750D02*
D03*
X39750Y278250D02*
D03*
X59750D02*
D03*
D32*
X272000Y119000D02*
D03*
Y83000D02*
D03*
D52*
X481000Y178750D02*
Y179021D01*
X480250Y179771D02*
X481000Y179021D01*
X477500Y187000D02*
X478250D01*
X480250Y179771D02*
Y185000D01*
X478250Y187000D02*
X480250Y185000D01*
X452750Y160000D02*
Y169500D01*
X433000Y223750D02*
X433125Y223875D01*
X452750Y169500D02*
X461510D01*
X477500Y203000D02*
X478250Y203750D01*
Y222500D01*
X468500Y221250D02*
X477000D01*
X478250Y222500D01*
X479000Y223250D01*
Y223750D01*
X433000Y228750D02*
Y229000D01*
X433125Y223875D02*
Y240875D01*
X433250Y241000D01*
X433000Y229000D02*
X435000Y231000D01*
X441500D01*
X468500Y232000D02*
X477000D01*
X479000Y230000D01*
Y223750D02*
Y230000D01*
D53*
X490250Y182000D02*
Y189750D01*
X478250Y203750D02*
X481250Y200750D01*
X478250Y203750D02*
Y203750D01*
X70000Y134250D02*
X73500Y137750D01*
X481250Y200750D02*
X490250D01*
X267500Y227500D02*
X274188D01*
X264500Y230500D02*
X267500Y227500D01*
X274188D02*
X275188Y226500D01*
X276000D01*
X272500Y83500D02*
Y94500D01*
X272000Y83000D02*
X272500Y83500D01*
X317400Y140650D02*
X317500Y140750D01*
X317300Y125259D02*
X317400Y125359D01*
Y140650D01*
X317025Y210034D02*
X317050Y210009D01*
X317025Y210034D02*
Y225225D01*
X317000Y225250D02*
X317025Y225225D01*
X317775Y317034D02*
Y333225D01*
X317750Y333250D02*
X317775Y333225D01*
Y317034D02*
X317800Y317009D01*
X106500Y82750D02*
X114926Y74324D01*
X116176D01*
X116750Y73750D01*
X242000Y86500D02*
Y92750D01*
X238500Y96250D02*
X242000Y92750D01*
Y86500D02*
X245000Y83500D01*
X117500Y278500D02*
Y288000D01*
Y278500D02*
X117500Y278500D01*
X45000Y116000D02*
X54000D01*
X45500Y133500D02*
X54000D01*
X60250Y147750D02*
X69250D01*
X49500Y191500D02*
X49500Y191500D01*
X58750D01*
X25500Y151250D02*
X33750D01*
X34000Y151000D01*
X21750Y168750D02*
X30750D01*
X31000Y168500D01*
X50000Y208500D02*
Y218000D01*
X69250Y211750D02*
Y220500D01*
Y211750D02*
X69500Y211500D01*
X73500Y137750D02*
X78500D01*
D54*
X86750Y319750D02*
D03*
X112150D02*
D03*
X213750D02*
D03*
X188350D02*
D03*
X162950D02*
D03*
X137550D02*
D03*
D55*
X245000Y16000D02*
D03*
X394750Y104000D02*
D03*
X255500Y160750D02*
D03*
X277000D02*
D03*
X220000Y83000D02*
D03*
X400000Y97000D02*
D03*
X379000Y99250D02*
D03*
X228000Y147000D02*
D03*
X216000Y135000D02*
D03*
X105082Y215489D02*
D03*
X104544Y201885D02*
D03*
X175000Y30000D02*
D03*
X390500D02*
D03*
X481000Y178750D02*
D03*
X490250Y182000D02*
D03*
X489000Y67000D02*
D03*
X425000Y68000D02*
D03*
X452500Y92500D02*
D03*
X373023Y193636D02*
D03*
X374586Y113949D02*
D03*
X400250Y89000D02*
D03*
X387750Y99500D02*
D03*
X420000Y105000D02*
D03*
Y120000D02*
D03*
X419250Y136500D02*
D03*
X430500Y136750D02*
D03*
X422924Y142750D02*
D03*
X430500Y145000D02*
D03*
X419250Y149000D02*
D03*
X430500Y153000D02*
D03*
X452750Y160000D02*
D03*
X430500Y161000D02*
D03*
X419250D02*
D03*
X430500Y173000D02*
D03*
X419250D02*
D03*
X387000Y174250D02*
D03*
X430500Y184750D02*
D03*
X419250Y185000D02*
D03*
X447750Y192979D02*
D03*
X419250Y197000D02*
D03*
X374500Y229500D02*
D03*
X388750Y246250D02*
D03*
X394000Y281250D02*
D03*
X468500Y221250D02*
D03*
X399000Y227750D02*
D03*
X441500Y231000D02*
D03*
X468500Y232000D02*
D03*
X409750Y235500D02*
D03*
X417000Y235750D02*
D03*
X450000Y240000D02*
D03*
X460000D02*
D03*
X433250Y241000D02*
D03*
X417000Y243000D02*
D03*
X401750Y246500D02*
D03*
X465000Y250000D02*
D03*
X455000D02*
D03*
X435000D02*
D03*
X445000D02*
D03*
X440000Y260000D02*
D03*
X430000D02*
D03*
X450000D02*
D03*
X460000D02*
D03*
X485000Y280000D02*
D03*
X480000Y290000D02*
D03*
X65000Y332500D02*
D03*
Y312500D02*
D03*
X75000Y297500D02*
D03*
X55000D02*
D03*
X204000Y39000D02*
D03*
X98255Y71750D02*
D03*
X181500Y269750D02*
D03*
X355000Y227500D02*
D03*
X330750Y244250D02*
D03*
X319750Y244500D02*
D03*
X227000Y208750D02*
D03*
X244418Y253239D02*
D03*
X304750Y224500D02*
D03*
X300250Y117750D02*
D03*
X291250D02*
D03*
X214500Y150250D02*
D03*
X139500Y224000D02*
D03*
X212500Y122750D02*
D03*
X348750Y175000D02*
D03*
X272250Y280000D02*
D03*
X307000Y277250D02*
D03*
X154500Y270750D02*
D03*
X146750Y271000D02*
D03*
X120000Y180000D02*
D03*
X180000Y145000D02*
D03*
X160000Y165000D02*
D03*
X140000Y185000D02*
D03*
X125000Y200000D02*
D03*
X200000Y195000D02*
D03*
X205000Y215000D02*
D03*
X190000Y235000D02*
D03*
X180000Y215000D02*
D03*
X165000Y235000D02*
D03*
X244250Y39750D02*
D03*
X211000Y35000D02*
D03*
X191750Y34750D02*
D03*
X115000Y20000D02*
D03*
X140000Y35000D02*
D03*
X100000D02*
D03*
X445000Y305000D02*
D03*
X425000D02*
D03*
X490000Y290000D02*
D03*
X435000Y305000D02*
D03*
X103250Y175750D02*
D03*
X50000Y61000D02*
D03*
X291000Y16000D02*
D03*
X15750Y235250D02*
D03*
X71250Y278000D02*
D03*
X71000Y256750D02*
D03*
X144000Y130500D02*
D03*
X144250Y145500D02*
D03*
X103750Y121000D02*
D03*
X104000Y130750D02*
D03*
X108000Y63000D02*
D03*
X167000Y85500D02*
D03*
X161750Y62000D02*
D03*
X207750Y77500D02*
D03*
X223200Y70000D02*
D03*
X272500Y94500D02*
D03*
X258750Y70000D02*
D03*
X309946Y76922D02*
D03*
X310010Y66750D02*
D03*
X286500Y161500D02*
D03*
X294500Y214750D02*
D03*
X276000Y226500D02*
D03*
X279250Y266000D02*
D03*
X295000Y273500D02*
D03*
X286000Y336500D02*
D03*
X271250Y332000D02*
D03*
X317500Y140750D02*
D03*
X317000Y225250D02*
D03*
X317750Y333250D02*
D03*
X394250Y301750D02*
D03*
X368750Y301250D02*
D03*
X355750Y281250D02*
D03*
X127500Y272750D02*
D03*
X136000Y272500D02*
D03*
X221000Y142000D02*
D03*
X216499Y226125D02*
D03*
X221750Y190750D02*
D03*
X209250Y226250D02*
D03*
X198996Y245500D02*
D03*
X191750Y245750D02*
D03*
X173750Y270250D02*
D03*
X164750Y269750D02*
D03*
X144750Y290000D02*
D03*
X237500Y304250D02*
D03*
X116750Y73750D02*
D03*
X15500Y296000D02*
D03*
X329591Y141395D02*
D03*
X336750Y140250D02*
D03*
X299755Y151755D02*
D03*
X299750Y159250D02*
D03*
X367250Y189250D02*
D03*
X365250Y226500D02*
D03*
X117500Y288000D02*
D03*
X238500Y96250D02*
D03*
X45000Y116000D02*
D03*
X45500Y133500D02*
D03*
X60250Y147750D02*
D03*
X58750Y191500D02*
D03*
X25500Y151250D02*
D03*
X21750Y168750D02*
D03*
X50000Y218000D02*
D03*
X69250Y220500D02*
D03*
X123250Y116250D02*
D03*
X132250Y116750D02*
D03*
X152250Y116250D02*
D03*
X176891Y115586D02*
D03*
X196750Y117750D02*
D03*
X230500Y170500D02*
D03*
Y180500D02*
D03*
M02*
