G04*
G04 #@! TF.GenerationSoftware,Altium Limited,Altium Designer,24.6.1 (21)*
G04*
G04 Layer_Color=32896*
%FSLAX44Y44*%
%MOMM*%
G71*
G04*
G04 #@! TF.SameCoordinates,1D6BFCF7-E5C1-4F87-9DC2-EC4CBAB5B703*
G04*
G04*
G04 #@! TF.FilePolarity,Positive*
G04*
G01*
G75*
%ADD12C,0.2000*%
%ADD13C,0.1000*%
%ADD14C,0.1270*%
%ADD15C,0.1500*%
%ADD69C,0.1200*%
G36*
X363546Y306339D02*
X364854D01*
Y306208D01*
X365639D01*
Y306077D01*
X366423D01*
Y305946D01*
X367077D01*
Y305815D01*
X367600D01*
Y305685D01*
X367992D01*
Y305554D01*
X368515D01*
Y305423D01*
X368908D01*
Y305292D01*
X369169D01*
Y305161D01*
X369562D01*
Y305031D01*
X369823D01*
Y304900D01*
X370215D01*
Y304769D01*
X370477D01*
Y304639D01*
X370608D01*
Y304508D01*
X370869D01*
Y304377D01*
X371131D01*
Y304246D01*
X371392D01*
Y304115D01*
X371654D01*
Y303985D01*
X371785D01*
Y303854D01*
X371915D01*
Y303723D01*
X372177D01*
Y303592D01*
X372308D01*
Y303461D01*
X372569D01*
Y303331D01*
X372700D01*
Y303200D01*
X372831D01*
Y303069D01*
X372962D01*
Y302938D01*
X373092D01*
Y302808D01*
X373223D01*
Y302677D01*
X373354D01*
Y302546D01*
X373485D01*
Y302415D01*
X373615D01*
Y302285D01*
X373746D01*
Y302154D01*
X373877D01*
Y302023D01*
X374008D01*
Y301892D01*
X374138D01*
Y301762D01*
X374269D01*
Y301500D01*
X374400D01*
Y301369D01*
X374531D01*
Y301108D01*
X374662D01*
Y300977D01*
X374792D01*
Y300715D01*
X374923D01*
Y300585D01*
X375054D01*
Y300323D01*
X375185D01*
Y300062D01*
X375315D01*
Y299800D01*
X375446D01*
Y299538D01*
X375577D01*
Y299146D01*
X375708D01*
Y298754D01*
X375839D01*
Y298492D01*
X375969D01*
Y297969D01*
X376100D01*
Y297446D01*
X376231D01*
Y296923D01*
X376362D01*
Y296138D01*
X376492D01*
Y294700D01*
X376623D01*
Y292869D01*
X376492D01*
Y291169D01*
X376362D01*
Y290123D01*
X376231D01*
Y289338D01*
X376100D01*
Y288685D01*
X375969D01*
Y288031D01*
X375839D01*
Y287377D01*
X375708D01*
Y286854D01*
X375577D01*
Y286331D01*
X375446D01*
Y285938D01*
X375315D01*
Y285415D01*
X375185D01*
Y285023D01*
X375054D01*
Y284631D01*
X374923D01*
Y284108D01*
X374792D01*
Y283715D01*
X374662D01*
Y283323D01*
X374531D01*
Y282931D01*
X374400D01*
Y282539D01*
X374269D01*
Y282277D01*
X374138D01*
Y281885D01*
X374008D01*
Y281492D01*
X373877D01*
Y281100D01*
X373746D01*
Y280839D01*
X373615D01*
Y280446D01*
X373485D01*
Y280185D01*
X373354D01*
Y279792D01*
X373223D01*
Y279531D01*
X373092D01*
Y279269D01*
X372962D01*
Y278877D01*
X372831D01*
Y278615D01*
X372700D01*
Y278354D01*
X372569D01*
Y278092D01*
X372439D01*
Y277700D01*
X372308D01*
Y277439D01*
X372177D01*
Y277177D01*
X372046D01*
Y276915D01*
X371915D01*
Y276654D01*
X371785D01*
Y276392D01*
X371654D01*
Y276131D01*
X371523D01*
Y275869D01*
X371392D01*
Y275608D01*
X371262D01*
Y275346D01*
X371131D01*
Y275085D01*
X371000D01*
Y274692D01*
X371262D01*
Y274562D01*
X371392D01*
Y274431D01*
X371523D01*
Y274300D01*
X371654D01*
Y274169D01*
X371785D01*
Y274039D01*
X371915D01*
Y273908D01*
X372046D01*
Y273777D01*
X372177D01*
Y273646D01*
X372308D01*
Y273385D01*
X372439D01*
Y273254D01*
X372569D01*
Y272992D01*
X372700D01*
Y272731D01*
X372831D01*
Y272339D01*
X372962D01*
Y271946D01*
X373092D01*
Y270246D01*
X372962D01*
Y269854D01*
X372831D01*
Y269461D01*
X372700D01*
Y269200D01*
X372569D01*
Y269069D01*
X372439D01*
Y268808D01*
X372308D01*
Y268415D01*
X372177D01*
Y268154D01*
X372046D01*
Y267761D01*
X371915D01*
Y267500D01*
X371785D01*
Y267108D01*
X371915D01*
Y266715D01*
X372046D01*
Y266454D01*
X372177D01*
Y266061D01*
X372308D01*
Y265669D01*
X372439D01*
Y265408D01*
X372569D01*
Y265015D01*
X372700D01*
Y264754D01*
X372831D01*
Y264361D01*
X372962D01*
Y264100D01*
X373092D01*
Y263839D01*
X373223D01*
Y263446D01*
X373354D01*
Y263185D01*
X373485D01*
Y262923D01*
X373615D01*
Y262531D01*
X373746D01*
Y262269D01*
X373877D01*
Y262008D01*
X374008D01*
Y261746D01*
X374138D01*
Y261354D01*
X374269D01*
Y261092D01*
X374400D01*
Y260831D01*
X374531D01*
Y260569D01*
X374662D01*
Y260308D01*
X374792D01*
Y260046D01*
X374923D01*
Y259785D01*
X375054D01*
Y259523D01*
X375185D01*
Y259261D01*
X375315D01*
Y259000D01*
X375446D01*
Y258738D01*
X375577D01*
Y258477D01*
X375708D01*
Y258215D01*
X375839D01*
Y258085D01*
X375969D01*
Y257823D01*
X376100D01*
Y257561D01*
X376231D01*
Y257300D01*
X376362D01*
Y257169D01*
X376492D01*
Y256908D01*
X376623D01*
Y256646D01*
X376754D01*
Y256385D01*
X376885D01*
Y256254D01*
X377015D01*
Y255992D01*
X377146D01*
Y255861D01*
X377277D01*
Y255600D01*
X377408D01*
Y255469D01*
X377538D01*
Y255208D01*
X377669D01*
Y254946D01*
X377800D01*
Y254815D01*
X377931D01*
Y254554D01*
X378062D01*
Y254423D01*
X378192D01*
Y254292D01*
X378323D01*
Y254031D01*
X378454D01*
Y253900D01*
X378585D01*
Y253638D01*
X378715D01*
Y253508D01*
X378846D01*
Y253377D01*
X378977D01*
Y253115D01*
X379108D01*
Y252985D01*
X379239D01*
Y252854D01*
X379369D01*
Y252723D01*
X379500D01*
Y252592D01*
X379631D01*
Y252331D01*
X379762D01*
Y252200D01*
X379892D01*
Y252069D01*
X380023D01*
Y251938D01*
X380154D01*
Y251808D01*
X380285D01*
Y251546D01*
X380415D01*
Y251415D01*
X380546D01*
Y251285D01*
X380677D01*
Y251154D01*
X380808D01*
Y251023D01*
X380938D01*
Y250892D01*
X381069D01*
Y250762D01*
X381200D01*
Y250631D01*
X381331D01*
Y250500D01*
X381461D01*
Y250369D01*
X381592D01*
Y250238D01*
X381723D01*
Y250108D01*
X381854D01*
Y249977D01*
X382115D01*
Y249846D01*
X382246D01*
Y249715D01*
X382377D01*
Y249585D01*
X382508D01*
Y249454D01*
X382639D01*
Y249323D01*
X382900D01*
Y249192D01*
X383031D01*
Y249062D01*
X383162D01*
Y248931D01*
X383423D01*
Y248800D01*
X383554D01*
Y248669D01*
X383815D01*
Y248538D01*
X383946D01*
Y248408D01*
X384208D01*
Y248277D01*
X384469D01*
Y248146D01*
X384731D01*
Y248015D01*
X384862D01*
Y247885D01*
X385254D01*
Y247754D01*
X385515D01*
Y247623D01*
X385777D01*
Y247492D01*
X386169D01*
Y247362D01*
X386562D01*
Y247231D01*
X387085D01*
Y247100D01*
X387738D01*
Y246969D01*
X388915D01*
Y246838D01*
X390485D01*
Y246969D01*
X391792D01*
Y247100D01*
X392446D01*
Y247231D01*
X392969D01*
Y247362D01*
X393362D01*
Y247492D01*
X393754D01*
Y247623D01*
X394146D01*
Y247754D01*
X394408D01*
Y247885D01*
X394669D01*
Y248015D01*
X394931D01*
Y248146D01*
X395192D01*
Y248277D01*
X395323D01*
Y248408D01*
X395585D01*
Y248538D01*
X395715D01*
Y248669D01*
X395977D01*
Y248800D01*
X396108D01*
Y248931D01*
X396239D01*
Y249062D01*
X396369D01*
Y249192D01*
X396500D01*
Y249323D01*
X396631D01*
Y249454D01*
X396762D01*
Y249585D01*
X396892D01*
Y249715D01*
X397023D01*
Y249846D01*
X397154D01*
Y249977D01*
X397285D01*
Y250108D01*
X397415D01*
Y250238D01*
X397546D01*
Y250500D01*
X397677D01*
Y250631D01*
X397808D01*
Y250892D01*
X397938D01*
Y251154D01*
X398069D01*
Y251285D01*
X398200D01*
Y251546D01*
X398331D01*
Y251808D01*
X398462D01*
Y252200D01*
X398592D01*
Y252461D01*
X398723D01*
Y252854D01*
X398854D01*
Y253246D01*
X398985D01*
Y253769D01*
X399115D01*
Y254554D01*
X399246D01*
Y257431D01*
X399115D01*
Y258215D01*
X398985D01*
Y258608D01*
X398854D01*
Y259131D01*
X398723D01*
Y259523D01*
X398592D01*
Y259785D01*
X398462D01*
Y260046D01*
X398331D01*
Y260308D01*
X398200D01*
Y260569D01*
X398069D01*
Y260831D01*
X397938D01*
Y260961D01*
X397808D01*
Y261092D01*
X397677D01*
Y261354D01*
X397546D01*
Y261485D01*
X397415D01*
Y261615D01*
X397285D01*
Y261746D01*
X397154D01*
Y261877D01*
X397023D01*
Y262008D01*
X396892D01*
Y262139D01*
X396762D01*
Y262269D01*
X396631D01*
Y262400D01*
X396369D01*
Y262531D01*
X396239D01*
Y262661D01*
X396108D01*
Y262792D01*
X395846D01*
Y262923D01*
X395715D01*
Y263054D01*
X395454D01*
Y263185D01*
X395192D01*
Y263315D01*
X394931D01*
Y263446D01*
X394538D01*
Y263577D01*
X394277D01*
Y263708D01*
X393885D01*
Y263839D01*
X393492D01*
Y263969D01*
X392969D01*
Y264100D01*
X392446D01*
Y264231D01*
X391661D01*
Y264361D01*
X388785D01*
Y264492D01*
X388523D01*
Y264623D01*
X388262D01*
Y264885D01*
X388131D01*
Y265277D01*
X388262D01*
Y265539D01*
X388392D01*
Y265800D01*
X388523D01*
Y265931D01*
X388654D01*
Y266061D01*
X388915D01*
Y266192D01*
X389046D01*
Y266323D01*
X389308D01*
Y266454D01*
X389569D01*
Y266585D01*
X389962D01*
Y266715D01*
X390485D01*
Y266846D01*
X391269D01*
Y266977D01*
X393492D01*
Y266846D01*
X394277D01*
Y266715D01*
X394800D01*
Y266585D01*
X395323D01*
Y266454D01*
X395715D01*
Y266323D01*
X396108D01*
Y266192D01*
X396500D01*
Y266061D01*
X396762D01*
Y265931D01*
X397023D01*
Y265800D01*
X397285D01*
Y265669D01*
X397546D01*
Y265539D01*
X397808D01*
Y265408D01*
X397938D01*
Y265277D01*
X398200D01*
Y265146D01*
X398462D01*
Y265015D01*
X398592D01*
Y264885D01*
X398854D01*
Y264754D01*
X398985D01*
Y264623D01*
X399115D01*
Y264492D01*
X399246D01*
Y264361D01*
X399508D01*
Y264231D01*
X399638D01*
Y264100D01*
X399769D01*
Y263969D01*
X399900D01*
Y263839D01*
X400031D01*
Y263708D01*
X400162D01*
Y263577D01*
X400292D01*
Y263446D01*
X400423D01*
Y263315D01*
X400554D01*
Y263185D01*
X400685D01*
Y263054D01*
X400815D01*
Y262923D01*
X400946D01*
Y262661D01*
X401077D01*
Y262531D01*
X401208D01*
Y262400D01*
X401339D01*
Y262269D01*
X401469D01*
Y262008D01*
X401600D01*
Y261877D01*
X401731D01*
Y261615D01*
X401862D01*
Y261354D01*
X401992D01*
Y261223D01*
X402123D01*
Y260961D01*
X402254D01*
Y260700D01*
X402385D01*
Y260438D01*
X402515D01*
Y260177D01*
X402646D01*
Y259915D01*
X402777D01*
Y259523D01*
X402908D01*
Y259261D01*
X403038D01*
Y258869D01*
X403169D01*
Y258477D01*
X403300D01*
Y258085D01*
X403431D01*
Y257561D01*
X403562D01*
Y256908D01*
X403692D01*
Y256123D01*
X403823D01*
Y252723D01*
X403692D01*
Y251938D01*
X403562D01*
Y251415D01*
X403431D01*
Y250892D01*
X403300D01*
Y250500D01*
X403169D01*
Y250108D01*
X403038D01*
Y249715D01*
X402908D01*
Y249454D01*
X402777D01*
Y249062D01*
X402646D01*
Y248800D01*
X402515D01*
Y248538D01*
X402385D01*
Y248277D01*
X402254D01*
Y248015D01*
X402123D01*
Y247885D01*
X401992D01*
Y247623D01*
X401862D01*
Y247362D01*
X401731D01*
Y247231D01*
X401600D01*
Y246969D01*
X401469D01*
Y246838D01*
X401339D01*
Y246577D01*
X401208D01*
Y246446D01*
X401077D01*
Y246185D01*
X400946D01*
Y246054D01*
X400815D01*
Y245923D01*
X400685D01*
Y245792D01*
X400554D01*
Y245662D01*
X400423D01*
Y245400D01*
X400292D01*
Y245269D01*
X400162D01*
Y245138D01*
X400031D01*
Y245008D01*
X399900D01*
Y244877D01*
X399638D01*
Y244746D01*
X399508D01*
Y244615D01*
X399377D01*
Y244485D01*
X399246D01*
Y244354D01*
X398985D01*
Y244223D01*
X398854D01*
Y244092D01*
X398723D01*
Y243962D01*
X398462D01*
Y243831D01*
X398200D01*
Y243700D01*
X398069D01*
Y243569D01*
X397808D01*
Y243438D01*
X397546D01*
Y243308D01*
X397285D01*
Y243177D01*
X397023D01*
Y243046D01*
X396631D01*
Y242915D01*
X396369D01*
Y242785D01*
X395977D01*
Y242654D01*
X395585D01*
Y242523D01*
X395192D01*
Y242392D01*
X394800D01*
Y242262D01*
X394277D01*
Y242131D01*
X393623D01*
Y242000D01*
X392969D01*
Y241869D01*
X392054D01*
Y241738D01*
X390877D01*
Y241608D01*
X388654D01*
Y241477D01*
X387869D01*
Y241608D01*
X386692D01*
Y241346D01*
X386823D01*
Y240823D01*
X386954D01*
Y240300D01*
X387085D01*
Y239646D01*
X387215D01*
Y239123D01*
X387346D01*
Y238469D01*
X387477D01*
Y237815D01*
X387608D01*
Y237162D01*
X387738D01*
Y236377D01*
X387869D01*
Y235592D01*
X388000D01*
Y234677D01*
X388131D01*
Y233762D01*
X388262D01*
Y232323D01*
X388392D01*
Y228008D01*
X389700D01*
Y228139D01*
X390485D01*
Y228269D01*
X391138D01*
Y228400D01*
X391531D01*
Y228531D01*
X391923D01*
Y228661D01*
X392185D01*
Y228792D01*
X392446D01*
Y228923D01*
X392708D01*
Y229054D01*
X392969D01*
Y229185D01*
X393231D01*
Y229315D01*
X393362D01*
Y229446D01*
X393623D01*
Y229577D01*
X393754D01*
Y229708D01*
X393885D01*
Y229839D01*
X394015D01*
Y229969D01*
X394146D01*
Y230100D01*
X394408D01*
Y230231D01*
X394538D01*
Y230361D01*
X394669D01*
Y230623D01*
X394800D01*
Y230754D01*
X394931D01*
Y230885D01*
X395062D01*
Y231015D01*
X395192D01*
Y231277D01*
X395323D01*
Y231408D01*
X395454D01*
Y231538D01*
X395585D01*
Y231800D01*
X395715D01*
Y232062D01*
X395846D01*
Y232192D01*
X395977D01*
Y232454D01*
X396108D01*
Y232715D01*
X396239D01*
Y233108D01*
X396369D01*
Y233369D01*
X396500D01*
Y233762D01*
X396631D01*
Y234285D01*
X396762D01*
Y235200D01*
X396892D01*
Y235592D01*
X397023D01*
Y235854D01*
X397154D01*
Y236115D01*
X397285D01*
Y236246D01*
X397415D01*
Y236377D01*
X398069D01*
Y236246D01*
X398331D01*
Y236115D01*
X398462D01*
Y235985D01*
X398592D01*
Y235854D01*
X398723D01*
Y235723D01*
X398854D01*
Y235462D01*
X398985D01*
Y235200D01*
X399115D01*
Y234677D01*
X399246D01*
Y232715D01*
X399115D01*
Y232062D01*
X398985D01*
Y231669D01*
X398854D01*
Y231277D01*
X398723D01*
Y230885D01*
X398592D01*
Y230623D01*
X398462D01*
Y230361D01*
X398331D01*
Y230100D01*
X398200D01*
Y229839D01*
X398069D01*
Y229708D01*
X397938D01*
Y229446D01*
X397808D01*
Y229315D01*
X397677D01*
Y229054D01*
X397546D01*
Y228923D01*
X397415D01*
Y228792D01*
X397285D01*
Y228531D01*
X397154D01*
Y228400D01*
X397023D01*
Y228269D01*
X396892D01*
Y228139D01*
X396762D01*
Y228008D01*
X396631D01*
Y227877D01*
X396500D01*
Y227746D01*
X396369D01*
Y227615D01*
X396239D01*
Y227485D01*
X396108D01*
Y227354D01*
X395977D01*
Y227223D01*
X395715D01*
Y227092D01*
X395585D01*
Y226961D01*
X395454D01*
Y226831D01*
X395192D01*
Y226700D01*
X395062D01*
Y226569D01*
X394800D01*
Y226439D01*
X394669D01*
Y226308D01*
X394408D01*
Y226177D01*
X394277D01*
Y226046D01*
X394015D01*
Y225915D01*
X393754D01*
Y225785D01*
X393492D01*
Y225654D01*
X393231D01*
Y225523D01*
X392969D01*
Y225392D01*
X392708D01*
Y225261D01*
X392315D01*
Y225131D01*
X391923D01*
Y225000D01*
X391531D01*
Y224869D01*
X391008D01*
Y224739D01*
X390485D01*
Y224608D01*
X389831D01*
Y224477D01*
X389046D01*
Y224346D01*
X387869D01*
Y223954D01*
X387738D01*
Y223431D01*
X387608D01*
Y222908D01*
X387477D01*
Y222646D01*
X387346D01*
Y222254D01*
X387215D01*
Y221992D01*
X387085D01*
Y221600D01*
X386954D01*
Y221338D01*
X386823D01*
Y221077D01*
X386692D01*
Y220815D01*
X386562D01*
Y220554D01*
X386431D01*
Y220292D01*
X386300D01*
Y220031D01*
X386169D01*
Y219769D01*
X386039D01*
Y219638D01*
X385908D01*
Y219377D01*
X385777D01*
Y219115D01*
X385646D01*
Y218985D01*
X385515D01*
Y218723D01*
X385385D01*
Y218592D01*
X385254D01*
Y218331D01*
X385123D01*
Y218200D01*
X384992D01*
Y217938D01*
X384862D01*
Y217808D01*
X384731D01*
Y217677D01*
X384600D01*
Y217415D01*
X384469D01*
Y217285D01*
X384338D01*
Y217154D01*
X384208D01*
Y217023D01*
X384077D01*
Y216892D01*
X383946D01*
Y216631D01*
X383815D01*
Y216500D01*
X383685D01*
Y216369D01*
X383554D01*
Y216238D01*
X383423D01*
Y216108D01*
X383292D01*
Y215977D01*
X383162D01*
Y215846D01*
X383031D01*
Y215715D01*
X382900D01*
Y215585D01*
X382769D01*
Y215454D01*
X382639D01*
Y215323D01*
X382377D01*
Y215192D01*
X382246D01*
Y215061D01*
X382115D01*
Y214931D01*
X381985D01*
Y214800D01*
X381723D01*
Y214669D01*
X381592D01*
Y214538D01*
X381331D01*
Y214408D01*
X381200D01*
Y214277D01*
X380938D01*
Y214146D01*
X380808D01*
Y214015D01*
X380546D01*
Y213885D01*
X380285D01*
Y213754D01*
X380023D01*
Y213623D01*
X379762D01*
Y213492D01*
X379500D01*
Y213361D01*
X379239D01*
Y213231D01*
X378846D01*
Y213100D01*
X378454D01*
Y212969D01*
X377931D01*
Y212838D01*
X377408D01*
Y212708D01*
X376623D01*
Y212577D01*
X375708D01*
Y212446D01*
X375577D01*
Y212054D01*
X375446D01*
Y211792D01*
X375315D01*
Y211531D01*
X375185D01*
Y211269D01*
X375054D01*
Y211008D01*
X374923D01*
Y210877D01*
X374792D01*
Y210615D01*
X374662D01*
Y210354D01*
X374531D01*
Y210092D01*
X374400D01*
Y209961D01*
X374269D01*
Y209700D01*
X374138D01*
Y209438D01*
X374008D01*
Y209177D01*
X373877D01*
Y209046D01*
X373746D01*
Y208785D01*
X373615D01*
Y208523D01*
X373485D01*
Y208392D01*
X373354D01*
Y208131D01*
X373223D01*
Y207869D01*
X373092D01*
Y207738D01*
X372962D01*
Y207477D01*
X372831D01*
Y207215D01*
X372700D01*
Y207085D01*
X372569D01*
Y206823D01*
X372439D01*
Y206562D01*
X372308D01*
Y206431D01*
X372177D01*
Y206169D01*
X372046D01*
Y206038D01*
X371915D01*
Y205908D01*
X371785D01*
Y205646D01*
X371654D01*
Y205515D01*
X371523D01*
Y205385D01*
X371392D01*
Y205254D01*
X371262D01*
Y204992D01*
X371131D01*
Y204862D01*
X371000D01*
Y204731D01*
X370869D01*
Y204600D01*
X370738D01*
Y204469D01*
X370608D01*
Y204338D01*
X370477D01*
Y204208D01*
X370215D01*
Y204077D01*
X370085D01*
Y203946D01*
X369954D01*
Y203815D01*
X369823D01*
Y203685D01*
X369562D01*
Y203554D01*
X369431D01*
Y203423D01*
X369300D01*
Y203292D01*
X369039D01*
Y203162D01*
X368908D01*
Y203031D01*
X368646D01*
Y202900D01*
X368385D01*
Y202769D01*
X368123D01*
Y202638D01*
X367862D01*
Y202508D01*
X367600D01*
Y202377D01*
X367338D01*
Y202246D01*
X367077D01*
Y202115D01*
X366685D01*
Y201985D01*
X366292D01*
Y201854D01*
X365900D01*
Y201723D01*
X365377D01*
Y201592D01*
X364723D01*
Y201462D01*
X364069D01*
Y201331D01*
X360669D01*
Y201462D01*
X359754D01*
Y201592D01*
X359231D01*
Y201723D01*
X358708D01*
Y201854D01*
X358315D01*
Y201985D01*
X357923D01*
Y202115D01*
X357531D01*
Y202246D01*
X357269D01*
Y202377D01*
X357008D01*
Y202508D01*
X356746D01*
Y202638D01*
X356615D01*
Y202769D01*
X356354D01*
Y202900D01*
X356223D01*
Y203031D01*
X355961D01*
Y203162D01*
X355831D01*
Y203292D01*
X355700D01*
Y203423D01*
X355569D01*
Y203554D01*
X355308D01*
Y203815D01*
X355177D01*
Y203946D01*
X355046D01*
Y204077D01*
X354915D01*
Y204208D01*
X354785D01*
Y204469D01*
X354654D01*
Y204731D01*
X354523D01*
Y205123D01*
X354392D01*
Y205646D01*
X354523D01*
Y205777D01*
X354654D01*
Y205908D01*
X354915D01*
Y206038D01*
X356485D01*
Y205908D01*
X357138D01*
Y205777D01*
X357662D01*
Y205646D01*
X358054D01*
Y205515D01*
X358577D01*
Y205385D01*
X358969D01*
Y205254D01*
X359362D01*
Y205123D01*
X359754D01*
Y204992D01*
X360277D01*
Y204862D01*
X361192D01*
Y204731D01*
X361454D01*
Y204862D01*
X362762D01*
Y204992D01*
X363285D01*
Y205123D01*
X363677D01*
Y205254D01*
X363938D01*
Y205385D01*
X364200D01*
Y205515D01*
X364592D01*
Y205646D01*
X364723D01*
Y205777D01*
X364985D01*
Y205908D01*
X365246D01*
Y206038D01*
X365377D01*
Y206169D01*
X365639D01*
Y206300D01*
X365769D01*
Y206431D01*
X365900D01*
Y206562D01*
X366161D01*
Y206692D01*
X366292D01*
Y206823D01*
X366423D01*
Y206954D01*
X366554D01*
Y207085D01*
X366685D01*
Y207215D01*
X366815D01*
Y207346D01*
X366946D01*
Y207477D01*
X367077D01*
Y207608D01*
X367208D01*
Y207738D01*
X367338D01*
Y207869D01*
X367469D01*
Y208000D01*
X367600D01*
Y208131D01*
X367731D01*
Y208262D01*
X367862D01*
Y208392D01*
X367992D01*
Y208523D01*
X368123D01*
Y208785D01*
X368254D01*
Y208915D01*
X368385D01*
Y209046D01*
X368515D01*
Y209177D01*
X368646D01*
Y209438D01*
X368777D01*
Y209569D01*
X368908D01*
Y209700D01*
X369039D01*
Y209961D01*
X369169D01*
Y210092D01*
X369300D01*
Y210354D01*
X369431D01*
Y210615D01*
X369562D01*
Y210746D01*
X369692D01*
Y211008D01*
X369823D01*
Y211269D01*
X369954D01*
Y211531D01*
X370085D01*
Y211661D01*
X370215D01*
Y212054D01*
X370346D01*
Y212315D01*
X370477D01*
Y212577D01*
X370608D01*
Y212969D01*
X370738D01*
Y213100D01*
X370477D01*
Y213231D01*
X370085D01*
Y213361D01*
X369823D01*
Y213492D01*
X369431D01*
Y213623D01*
X369300D01*
Y213754D01*
X369039D01*
Y213885D01*
X368777D01*
Y214015D01*
X368515D01*
Y214146D01*
X368385D01*
Y214277D01*
X368123D01*
Y214408D01*
X367992D01*
Y214538D01*
X367862D01*
Y214669D01*
X367600D01*
Y214800D01*
X367469D01*
Y214931D01*
X367338D01*
Y215061D01*
X367208D01*
Y215192D01*
X367077D01*
Y215323D01*
X366946D01*
Y215454D01*
X366815D01*
Y215585D01*
X366685D01*
Y215715D01*
X366554D01*
Y215846D01*
X366423D01*
Y215977D01*
X366292D01*
Y216108D01*
X366161D01*
Y216238D01*
X366031D01*
Y216369D01*
X365900D01*
Y216631D01*
X365769D01*
Y216761D01*
X365639D01*
Y216892D01*
X365508D01*
Y217154D01*
X365377D01*
Y217285D01*
X365246D01*
Y217546D01*
X365115D01*
Y217808D01*
X364985D01*
Y218069D01*
X364854D01*
Y218200D01*
X364723D01*
Y218461D01*
X364592D01*
Y218723D01*
X364462D01*
Y219115D01*
X364331D01*
Y219377D01*
X364200D01*
Y219769D01*
X364069D01*
Y220161D01*
X363938D01*
Y220554D01*
X363808D01*
Y221077D01*
X363677D01*
Y221600D01*
X363546D01*
Y222515D01*
X363415D01*
Y224215D01*
X363546D01*
Y224869D01*
X363677D01*
Y225131D01*
X363808D01*
Y225392D01*
X363938D01*
Y225523D01*
X364069D01*
Y225654D01*
X364200D01*
Y225785D01*
X364331D01*
Y225915D01*
X364592D01*
Y226046D01*
X364985D01*
Y225915D01*
X365246D01*
Y225785D01*
X365377D01*
Y225523D01*
X365508D01*
Y225261D01*
X365639D01*
Y224869D01*
X365769D01*
Y224085D01*
X365900D01*
Y223431D01*
X366031D01*
Y223169D01*
X366161D01*
Y222777D01*
X366292D01*
Y222385D01*
X366423D01*
Y222123D01*
X366554D01*
Y221992D01*
X366685D01*
Y221731D01*
X366815D01*
Y221469D01*
X366946D01*
Y221208D01*
X367077D01*
Y221077D01*
X367208D01*
Y220815D01*
X367338D01*
Y220685D01*
X367469D01*
Y220554D01*
X367600D01*
Y220423D01*
X367731D01*
Y220161D01*
X367862D01*
Y220031D01*
X367992D01*
Y219900D01*
X368123D01*
Y219769D01*
X368254D01*
Y219638D01*
X368385D01*
Y219508D01*
X368646D01*
Y219377D01*
X368777D01*
Y219246D01*
X368908D01*
Y219115D01*
X369169D01*
Y218985D01*
X369300D01*
Y218854D01*
X369562D01*
Y218723D01*
X369692D01*
Y218592D01*
X369954D01*
Y218461D01*
X370215D01*
Y218331D01*
X370608D01*
Y218200D01*
X370869D01*
Y218069D01*
X371000D01*
Y218331D01*
X370869D01*
Y218985D01*
X370738D01*
Y219638D01*
X370608D01*
Y220161D01*
X370477D01*
Y220685D01*
X370346D01*
Y221077D01*
X370215D01*
Y221469D01*
X370085D01*
Y221861D01*
X369954D01*
Y222254D01*
X369823D01*
Y222646D01*
X369692D01*
Y223039D01*
X369562D01*
Y223300D01*
X369431D01*
Y223692D01*
X369300D01*
Y223954D01*
X369169D01*
Y224346D01*
X369039D01*
Y224608D01*
X368908D01*
Y224869D01*
X368777D01*
Y225261D01*
X368646D01*
Y225523D01*
X368515D01*
Y225785D01*
X368385D01*
Y226046D01*
X368254D01*
Y226308D01*
X368123D01*
Y226569D01*
X367992D01*
Y226831D01*
X367862D01*
Y227092D01*
X367731D01*
Y227354D01*
X367600D01*
Y227615D01*
X367469D01*
Y227877D01*
X367338D01*
Y228139D01*
X367208D01*
Y228400D01*
X367077D01*
Y228661D01*
X366946D01*
Y228792D01*
X366815D01*
Y229054D01*
X366685D01*
Y229315D01*
X366554D01*
Y229577D01*
X366423D01*
Y229839D01*
X366292D01*
Y229969D01*
X366161D01*
Y230231D01*
X366031D01*
Y230492D01*
X365900D01*
Y230623D01*
X365769D01*
Y230885D01*
X365639D01*
Y231146D01*
X365508D01*
Y231277D01*
X365377D01*
Y231538D01*
X365246D01*
Y231800D01*
X365115D01*
Y231931D01*
X364985D01*
Y232192D01*
X364854D01*
Y232454D01*
X364723D01*
Y232585D01*
X364592D01*
Y232846D01*
X364462D01*
Y232977D01*
X364331D01*
Y233238D01*
X364200D01*
Y233369D01*
X364069D01*
Y233631D01*
X363938D01*
Y233762D01*
X363808D01*
Y234023D01*
X363677D01*
Y234154D01*
X363546D01*
Y234415D01*
X363415D01*
Y234546D01*
X363285D01*
Y234808D01*
X363154D01*
Y234939D01*
X363023D01*
Y235200D01*
X362892D01*
Y235331D01*
X362762D01*
Y235462D01*
X362631D01*
Y235723D01*
X362500D01*
Y235854D01*
X362369D01*
Y236115D01*
X362239D01*
Y236246D01*
X362108D01*
Y236377D01*
X361977D01*
Y236639D01*
X361846D01*
Y236769D01*
X361715D01*
Y236900D01*
X361585D01*
Y237162D01*
X361454D01*
Y237292D01*
X361323D01*
Y237423D01*
X361192D01*
Y237162D01*
X361062D01*
Y237031D01*
X360931D01*
Y236900D01*
X360800D01*
Y236639D01*
X360669D01*
Y236508D01*
X360538D01*
Y236377D01*
X360408D01*
Y236115D01*
X360277D01*
Y235985D01*
X360146D01*
Y235854D01*
X360015D01*
Y235592D01*
X359885D01*
Y235462D01*
X359754D01*
Y235200D01*
X359623D01*
Y235069D01*
X359492D01*
Y234808D01*
X359362D01*
Y234677D01*
X359231D01*
Y234415D01*
X359100D01*
Y234285D01*
X358969D01*
Y234023D01*
X358839D01*
Y233892D01*
X358708D01*
Y233631D01*
X358577D01*
Y233500D01*
X358446D01*
Y233238D01*
X358315D01*
Y233108D01*
X358185D01*
Y232846D01*
X358054D01*
Y232585D01*
X357923D01*
Y232454D01*
X357792D01*
Y232192D01*
X357662D01*
Y231931D01*
X357531D01*
Y231669D01*
X357400D01*
Y231408D01*
X357269D01*
Y231277D01*
X357138D01*
Y231015D01*
X357008D01*
Y230754D01*
X356877D01*
Y230492D01*
X356746D01*
Y230231D01*
X356615D01*
Y229969D01*
X356485D01*
Y229708D01*
X356354D01*
Y229446D01*
X356223D01*
Y229054D01*
X356092D01*
Y228792D01*
X355961D01*
Y228531D01*
X355831D01*
Y228139D01*
X355700D01*
Y227877D01*
X355569D01*
Y227485D01*
X355438D01*
Y227092D01*
X355308D01*
Y226700D01*
X355177D01*
Y226439D01*
X355046D01*
Y225915D01*
X354915D01*
Y225523D01*
X354785D01*
Y225000D01*
X354654D01*
Y224477D01*
X354523D01*
Y223823D01*
X354392D01*
Y223169D01*
X354262D01*
Y221992D01*
X354131D01*
Y219900D01*
X354262D01*
Y218854D01*
X354392D01*
Y218331D01*
X354785D01*
Y218461D01*
X355177D01*
Y218592D01*
X355569D01*
Y218723D01*
X355831D01*
Y218854D01*
X356092D01*
Y218985D01*
X356354D01*
Y219115D01*
X356485D01*
Y219246D01*
X356746D01*
Y219377D01*
X356877D01*
Y219508D01*
X357008D01*
Y219638D01*
X357269D01*
Y219769D01*
X357400D01*
Y219900D01*
X357531D01*
Y220031D01*
X357662D01*
Y220292D01*
X357792D01*
Y220423D01*
X357923D01*
Y220554D01*
X358054D01*
Y220815D01*
X358185D01*
Y220946D01*
X358315D01*
Y221208D01*
X358446D01*
Y221469D01*
X358577D01*
Y221861D01*
X358708D01*
Y222254D01*
X358839D01*
Y222777D01*
X358969D01*
Y224085D01*
X359100D01*
Y224869D01*
X359231D01*
Y225261D01*
X359362D01*
Y225523D01*
X359492D01*
Y225785D01*
X359623D01*
Y225915D01*
X359885D01*
Y226046D01*
X360277D01*
Y225915D01*
X360538D01*
Y225785D01*
X360669D01*
Y225654D01*
X360931D01*
Y225392D01*
X361062D01*
Y225261D01*
X361192D01*
Y224869D01*
X361323D01*
Y224215D01*
X361454D01*
Y222515D01*
X361323D01*
Y221600D01*
X361192D01*
Y220946D01*
X361062D01*
Y220554D01*
X360931D01*
Y220161D01*
X360800D01*
Y219769D01*
X360669D01*
Y219377D01*
X360538D01*
Y219115D01*
X360408D01*
Y218723D01*
X360277D01*
Y218461D01*
X360146D01*
Y218200D01*
X360015D01*
Y217938D01*
X359885D01*
Y217808D01*
X359754D01*
Y217546D01*
X359623D01*
Y217285D01*
X359492D01*
Y217154D01*
X359362D01*
Y216892D01*
X359231D01*
Y216761D01*
X359100D01*
Y216631D01*
X358969D01*
Y216369D01*
X358839D01*
Y216238D01*
X358708D01*
Y216108D01*
X358577D01*
Y215977D01*
X358446D01*
Y215846D01*
X358315D01*
Y215715D01*
X358185D01*
Y215585D01*
X358054D01*
Y215454D01*
X357923D01*
Y215323D01*
X357792D01*
Y215192D01*
X357662D01*
Y215061D01*
X357531D01*
Y214931D01*
X357400D01*
Y214800D01*
X357269D01*
Y214669D01*
X357008D01*
Y214538D01*
X356877D01*
Y214408D01*
X356746D01*
Y214277D01*
X356485D01*
Y214146D01*
X356354D01*
Y214015D01*
X356092D01*
Y213885D01*
X355831D01*
Y213754D01*
X355961D01*
Y213623D01*
X356092D01*
Y213492D01*
X356223D01*
Y213361D01*
X356354D01*
Y213231D01*
X356615D01*
Y213100D01*
X356746D01*
Y212969D01*
X357008D01*
Y212838D01*
X357269D01*
Y212708D01*
X357531D01*
Y212577D01*
X357792D01*
Y212446D01*
X358185D01*
Y212315D01*
X358577D01*
Y212185D01*
X359100D01*
Y212054D01*
X361977D01*
Y212185D01*
X362762D01*
Y212315D01*
X363546D01*
Y212446D01*
X364462D01*
Y212577D01*
X365246D01*
Y212446D01*
X365769D01*
Y212315D01*
X366031D01*
Y212185D01*
X366161D01*
Y212054D01*
X366292D01*
Y211531D01*
X366161D01*
Y211269D01*
X366031D01*
Y211008D01*
X365900D01*
Y210877D01*
X365769D01*
Y210746D01*
X365639D01*
Y210615D01*
X365377D01*
Y210485D01*
X365246D01*
Y210354D01*
X365115D01*
Y210223D01*
X364854D01*
Y210092D01*
X364592D01*
Y209961D01*
X364331D01*
Y209831D01*
X364069D01*
Y209700D01*
X363808D01*
Y209569D01*
X363415D01*
Y209438D01*
X363023D01*
Y209308D01*
X362631D01*
Y209177D01*
X362108D01*
Y209046D01*
X361192D01*
Y208915D01*
X358708D01*
Y209046D01*
X357923D01*
Y209177D01*
X357400D01*
Y209308D01*
X357008D01*
Y209438D01*
X356615D01*
Y209569D01*
X356354D01*
Y209700D01*
X355961D01*
Y209831D01*
X355700D01*
Y209961D01*
X355438D01*
Y210092D01*
X355177D01*
Y210223D01*
X354915D01*
Y210354D01*
X354785D01*
Y210485D01*
X354523D01*
Y210615D01*
X354392D01*
Y210746D01*
X354131D01*
Y210877D01*
X354000D01*
Y211008D01*
X353869D01*
Y211138D01*
X353608D01*
Y211269D01*
X353477D01*
Y211400D01*
X353346D01*
Y211531D01*
X353215D01*
Y211661D01*
X353085D01*
Y211792D01*
X352823D01*
Y211923D01*
X352692D01*
Y212054D01*
X352562D01*
Y212185D01*
X352431D01*
Y212315D01*
X352300D01*
Y212577D01*
X351254D01*
Y212446D01*
X349685D01*
Y212577D01*
X348638D01*
Y212708D01*
X347985D01*
Y212838D01*
X347462D01*
Y212969D01*
X346939D01*
Y213100D01*
X346546D01*
Y213231D01*
X346285D01*
Y213361D01*
X345892D01*
Y213492D01*
X345631D01*
Y213623D01*
X345369D01*
Y213754D01*
X345108D01*
Y213885D01*
X344846D01*
Y214015D01*
X344585D01*
Y214146D01*
X344323D01*
Y214277D01*
X344192D01*
Y214408D01*
X343931D01*
Y214538D01*
X343669D01*
Y214669D01*
X343539D01*
Y214800D01*
X343408D01*
Y214931D01*
X343146D01*
Y215061D01*
X343015D01*
Y215192D01*
X342754D01*
Y215323D01*
X342623D01*
Y215454D01*
X342492D01*
Y215585D01*
X342361D01*
Y215715D01*
X342231D01*
Y215846D01*
X341969D01*
Y215977D01*
X341838D01*
Y216108D01*
X341708D01*
Y216238D01*
X341577D01*
Y216369D01*
X341446D01*
Y216500D01*
X341315D01*
Y216631D01*
X341185D01*
Y216761D01*
X341054D01*
Y216892D01*
X340923D01*
Y217023D01*
X340792D01*
Y217154D01*
X340662D01*
Y217285D01*
X340531D01*
Y217546D01*
X340400D01*
Y217677D01*
X340269D01*
Y217808D01*
X340139D01*
Y217938D01*
X340008D01*
Y218200D01*
X339877D01*
Y218331D01*
X339746D01*
Y218461D01*
X339615D01*
Y218723D01*
X339485D01*
Y218854D01*
X339354D01*
Y218985D01*
X339223D01*
Y219246D01*
X339092D01*
Y219377D01*
X338962D01*
Y219638D01*
X338831D01*
Y219900D01*
X338700D01*
Y220031D01*
X338569D01*
Y220292D01*
X338438D01*
Y220554D01*
X338308D01*
Y220815D01*
X338177D01*
Y221077D01*
X338046D01*
Y221338D01*
X337915D01*
Y221600D01*
X337785D01*
Y221992D01*
X337654D01*
Y222254D01*
X337523D01*
Y222646D01*
X337392D01*
Y223039D01*
X337262D01*
Y223431D01*
X337131D01*
Y223954D01*
X337000D01*
Y224215D01*
X335954D01*
Y224346D01*
X334777D01*
Y224477D01*
X333992D01*
Y224608D01*
X333339D01*
Y224739D01*
X332815D01*
Y224869D01*
X332292D01*
Y225000D01*
X331900D01*
Y225131D01*
X331508D01*
Y225261D01*
X331246D01*
Y225392D01*
X330854D01*
Y225523D01*
X330592D01*
Y225654D01*
X330331D01*
Y225785D01*
X330069D01*
Y225915D01*
X329939D01*
Y226046D01*
X329677D01*
Y226177D01*
X329415D01*
Y226308D01*
X329154D01*
Y226439D01*
X329023D01*
Y226569D01*
X328761D01*
Y226700D01*
X328631D01*
Y226831D01*
X328369D01*
Y226961D01*
X328238D01*
Y227092D01*
X328108D01*
Y227223D01*
X327977D01*
Y227354D01*
X327846D01*
Y227485D01*
X327585D01*
Y227615D01*
X327454D01*
Y227746D01*
X327323D01*
Y227877D01*
X327192D01*
Y228008D01*
X327062D01*
Y228139D01*
X326931D01*
Y228269D01*
X326800D01*
Y228531D01*
X326669D01*
Y228661D01*
X326539D01*
Y228792D01*
X326408D01*
Y228923D01*
X326277D01*
Y229185D01*
X326146D01*
Y229315D01*
X326015D01*
Y229577D01*
X325885D01*
Y229708D01*
X325754D01*
Y229969D01*
X325623D01*
Y230231D01*
X325492D01*
Y230492D01*
X325362D01*
Y230754D01*
X325231D01*
Y231015D01*
X325100D01*
Y231408D01*
X324969D01*
Y231800D01*
X324838D01*
Y232323D01*
X324708D01*
Y232977D01*
X324577D01*
Y234415D01*
X324708D01*
Y235069D01*
X324838D01*
Y235462D01*
X324969D01*
Y235592D01*
X325100D01*
Y235854D01*
X325231D01*
Y235985D01*
X325362D01*
Y236115D01*
X325623D01*
Y236246D01*
X325885D01*
Y236377D01*
X326408D01*
Y236246D01*
X326539D01*
Y236115D01*
X326669D01*
Y235985D01*
X326800D01*
Y235723D01*
X326931D01*
Y235331D01*
X327062D01*
Y234546D01*
X327192D01*
Y233892D01*
X327323D01*
Y233500D01*
X327454D01*
Y233238D01*
X327585D01*
Y232846D01*
X327715D01*
Y232585D01*
X327846D01*
Y232323D01*
X327977D01*
Y232062D01*
X328108D01*
Y231931D01*
X328238D01*
Y231669D01*
X328369D01*
Y231408D01*
X328500D01*
Y231277D01*
X328631D01*
Y231146D01*
X328761D01*
Y230885D01*
X328892D01*
Y230754D01*
X329023D01*
Y230623D01*
X329154D01*
Y230492D01*
X329285D01*
Y230361D01*
X329415D01*
Y230231D01*
X329546D01*
Y230100D01*
X329677D01*
Y229969D01*
X329808D01*
Y229839D01*
X329939D01*
Y229708D01*
X330069D01*
Y229577D01*
X330331D01*
Y229446D01*
X330462D01*
Y229315D01*
X330723D01*
Y229185D01*
X330854D01*
Y229054D01*
X331115D01*
Y228923D01*
X331377D01*
Y228792D01*
X331638D01*
Y228661D01*
X331900D01*
Y228531D01*
X332292D01*
Y228400D01*
X332815D01*
Y228269D01*
X333339D01*
Y228139D01*
X334385D01*
Y228008D01*
X335823D01*
Y228139D01*
X336477D01*
Y232323D01*
X336608D01*
Y233762D01*
X336739D01*
Y234677D01*
X336869D01*
Y235592D01*
X337000D01*
Y236377D01*
X337131D01*
Y237162D01*
X337262D01*
Y237815D01*
X337392D01*
Y238469D01*
X337523D01*
Y239123D01*
X337654D01*
Y239646D01*
X337785D01*
Y240169D01*
X337915D01*
Y240823D01*
X338046D01*
Y241346D01*
X338177D01*
Y241738D01*
X338308D01*
Y242000D01*
X337654D01*
Y241869D01*
X336739D01*
Y241738D01*
X335562D01*
Y241608D01*
X330723D01*
Y241738D01*
X329808D01*
Y241869D01*
X329023D01*
Y242000D01*
X328500D01*
Y242131D01*
X327977D01*
Y242262D01*
X327585D01*
Y242392D01*
X327192D01*
Y242523D01*
X326800D01*
Y242654D01*
X326539D01*
Y242785D01*
X326146D01*
Y242915D01*
X325885D01*
Y243046D01*
X325623D01*
Y243177D01*
X325362D01*
Y243308D01*
X325100D01*
Y243438D01*
X324838D01*
Y243569D01*
X324708D01*
Y243700D01*
X324446D01*
Y243831D01*
X324315D01*
Y243962D01*
X324054D01*
Y244092D01*
X323923D01*
Y244223D01*
X323792D01*
Y244354D01*
X323531D01*
Y244485D01*
X323400D01*
Y244615D01*
X323269D01*
Y244746D01*
X323139D01*
Y244877D01*
X323008D01*
Y245008D01*
X322877D01*
Y245138D01*
X322615D01*
Y245269D01*
X322485D01*
Y245400D01*
X322354D01*
Y245662D01*
X322223D01*
Y245792D01*
X322092D01*
Y245923D01*
X321962D01*
Y246054D01*
X321831D01*
Y246185D01*
X321700D01*
Y246315D01*
X321569D01*
Y246577D01*
X321438D01*
Y246708D01*
X321308D01*
Y246969D01*
X321177D01*
Y247100D01*
X321046D01*
Y247231D01*
X320915D01*
Y247492D01*
X320785D01*
Y247623D01*
X320654D01*
Y247885D01*
X320523D01*
Y248146D01*
X320392D01*
Y248277D01*
X320261D01*
Y248538D01*
X320131D01*
Y248800D01*
X320000D01*
Y249062D01*
X319869D01*
Y249454D01*
X319739D01*
Y249715D01*
X319608D01*
Y249977D01*
X319477D01*
Y250369D01*
X319346D01*
Y250762D01*
X319215D01*
Y251285D01*
X319085D01*
Y251938D01*
X318954D01*
Y252723D01*
X318823D01*
Y255469D01*
X318954D01*
Y256254D01*
X319085D01*
Y256908D01*
X319215D01*
Y257431D01*
X319346D01*
Y257823D01*
X319477D01*
Y258215D01*
X319608D01*
Y258477D01*
X319739D01*
Y258869D01*
X319869D01*
Y259131D01*
X320000D01*
Y259392D01*
X320131D01*
Y259654D01*
X320261D01*
Y259915D01*
X320392D01*
Y260177D01*
X320523D01*
Y260438D01*
X320654D01*
Y260569D01*
X320785D01*
Y260831D01*
X320915D01*
Y260961D01*
X321046D01*
Y261223D01*
X321177D01*
Y261354D01*
X321308D01*
Y261615D01*
X321438D01*
Y261746D01*
X321569D01*
Y261877D01*
X321700D01*
Y262008D01*
X321831D01*
Y262139D01*
X321962D01*
Y262269D01*
X322092D01*
Y262400D01*
X322223D01*
Y262531D01*
X322354D01*
Y262661D01*
X322485D01*
Y262792D01*
X322615D01*
Y262923D01*
X322746D01*
Y263054D01*
X322877D01*
Y263185D01*
X323008D01*
Y263315D01*
X323269D01*
Y263446D01*
X323400D01*
Y263577D01*
X323531D01*
Y263708D01*
X323662D01*
Y263839D01*
X323923D01*
Y263969D01*
X324054D01*
Y264100D01*
X324315D01*
Y264231D01*
X324577D01*
Y264361D01*
X324708D01*
Y264492D01*
X324969D01*
Y264623D01*
X325231D01*
Y264754D01*
X325492D01*
Y264885D01*
X325885D01*
Y265015D01*
X326146D01*
Y265146D01*
X326408D01*
Y265277D01*
X326931D01*
Y265408D01*
X327323D01*
Y265539D01*
X327846D01*
Y265669D01*
X328369D01*
Y265800D01*
X329285D01*
Y265931D01*
X331377D01*
Y265800D01*
X332161D01*
Y265669D01*
X332685D01*
Y265539D01*
X333077D01*
Y265408D01*
X333469D01*
Y265277D01*
X333731D01*
Y265146D01*
X333862D01*
Y265015D01*
X333992D01*
Y264885D01*
X334123D01*
Y264754D01*
X334254D01*
Y264623D01*
X334385D01*
Y264361D01*
X334515D01*
Y263839D01*
X334385D01*
Y263708D01*
X334254D01*
Y263577D01*
X333862D01*
Y263446D01*
X330985D01*
Y263315D01*
X330200D01*
Y263185D01*
X329546D01*
Y263054D01*
X329023D01*
Y262923D01*
X328631D01*
Y262792D01*
X328238D01*
Y262661D01*
X327977D01*
Y262531D01*
X327585D01*
Y262400D01*
X327323D01*
Y262269D01*
X327062D01*
Y262139D01*
X326931D01*
Y262008D01*
X326669D01*
Y261877D01*
X326408D01*
Y261746D01*
X326277D01*
Y261615D01*
X326146D01*
Y261485D01*
X325885D01*
Y261354D01*
X325754D01*
Y261223D01*
X325623D01*
Y261092D01*
X325492D01*
Y260961D01*
X325362D01*
Y260831D01*
X325231D01*
Y260700D01*
X325100D01*
Y260569D01*
X324969D01*
Y260438D01*
X324838D01*
Y260177D01*
X324708D01*
Y260046D01*
X324577D01*
Y259785D01*
X324446D01*
Y259654D01*
X324315D01*
Y259392D01*
X324185D01*
Y259131D01*
X324054D01*
Y258738D01*
X323923D01*
Y258477D01*
X323792D01*
Y257954D01*
X323662D01*
Y257431D01*
X323531D01*
Y256646D01*
X323400D01*
Y254946D01*
X323531D01*
Y254031D01*
X323662D01*
Y253508D01*
X323792D01*
Y253115D01*
X323923D01*
Y252723D01*
X324054D01*
Y252331D01*
X324185D01*
Y252069D01*
X324315D01*
Y251938D01*
Y251808D01*
X324446D01*
Y251546D01*
X324577D01*
Y251285D01*
X324708D01*
Y251154D01*
X324838D01*
Y250892D01*
X324969D01*
Y250762D01*
X325100D01*
Y250631D01*
X325231D01*
Y250369D01*
X325362D01*
Y250238D01*
X325492D01*
Y250108D01*
X325623D01*
Y249977D01*
X325754D01*
Y249846D01*
X325885D01*
Y249715D01*
X326015D01*
Y249585D01*
X326146D01*
Y249454D01*
X326277D01*
Y249323D01*
X326408D01*
Y249192D01*
X326539D01*
Y249062D01*
X326669D01*
Y248931D01*
X326931D01*
Y248800D01*
X327062D01*
Y248669D01*
X327323D01*
Y248538D01*
X327454D01*
Y248408D01*
X327715D01*
Y248277D01*
X327977D01*
Y248146D01*
X328238D01*
Y248015D01*
X328500D01*
Y247885D01*
X328761D01*
Y247754D01*
X329154D01*
Y247623D01*
X329546D01*
Y247492D01*
X330069D01*
Y247362D01*
X330723D01*
Y247231D01*
X333339D01*
Y247362D01*
X333862D01*
Y247492D01*
X334385D01*
Y247623D01*
X334646D01*
Y247754D01*
X335038D01*
Y247885D01*
X335431D01*
Y248015D01*
X335692D01*
Y248146D01*
X335954D01*
Y248277D01*
X336215D01*
Y248408D01*
X336477D01*
Y248538D01*
X336739D01*
Y248669D01*
X337000D01*
Y248800D01*
X337131D01*
Y248931D01*
X337392D01*
Y249062D01*
X337654D01*
Y249192D01*
X337785D01*
Y249323D01*
X338046D01*
Y249454D01*
X338308D01*
Y249585D01*
X338438D01*
Y249715D01*
X338700D01*
Y249846D01*
X338831D01*
Y249977D01*
X338962D01*
Y250108D01*
X339223D01*
Y250238D01*
X339354D01*
Y250369D01*
X339615D01*
Y250500D01*
X339746D01*
Y250631D01*
X339877D01*
Y250762D01*
X340139D01*
Y250892D01*
X340269D01*
Y251023D01*
X340400D01*
Y251154D01*
X340531D01*
Y251285D01*
X340792D01*
Y251415D01*
X340923D01*
Y251546D01*
X341054D01*
Y251677D01*
X341185D01*
Y251808D01*
X341446D01*
Y251938D01*
X341577D01*
Y252069D01*
X341708D01*
Y252200D01*
X341838D01*
Y252331D01*
X342100D01*
Y252461D01*
X342231D01*
Y252592D01*
X342361D01*
Y252723D01*
X342492D01*
Y252854D01*
X342623D01*
Y252985D01*
X342754D01*
Y253115D01*
X342885D01*
Y253246D01*
X343015D01*
Y253377D01*
X343277D01*
Y253508D01*
X343408D01*
Y253638D01*
X343539D01*
Y253769D01*
X343669D01*
Y253900D01*
X343800D01*
Y254031D01*
X343931D01*
Y254161D01*
X344062D01*
Y254292D01*
X344192D01*
Y254423D01*
X344323D01*
Y254554D01*
X344454D01*
Y254685D01*
X344585D01*
Y254815D01*
X344715D01*
Y254946D01*
X344846D01*
Y255077D01*
X344977D01*
Y255208D01*
X345108D01*
Y255338D01*
X345238D01*
Y255469D01*
X345369D01*
Y255600D01*
X345500D01*
Y255731D01*
X345631D01*
Y255861D01*
X345761D01*
Y255992D01*
X345892D01*
Y256123D01*
X346023D01*
Y256254D01*
X346154D01*
Y256385D01*
X346285D01*
Y256646D01*
X346415D01*
Y256777D01*
X346546D01*
Y256908D01*
X346677D01*
Y257169D01*
X346808D01*
Y257300D01*
X346939D01*
Y257561D01*
X347069D01*
Y257692D01*
X347200D01*
Y257954D01*
X347331D01*
Y258215D01*
X347462D01*
Y258346D01*
X347592D01*
Y258608D01*
X347723D01*
Y258869D01*
X347854D01*
Y259131D01*
X347985D01*
Y259392D01*
X348115D01*
Y259654D01*
X348246D01*
Y259915D01*
X348377D01*
Y260177D01*
X348508D01*
Y260569D01*
X348638D01*
Y260831D01*
X348769D01*
Y261223D01*
X348900D01*
Y261615D01*
X349031D01*
Y261877D01*
X349162D01*
Y262269D01*
X349292D01*
Y262661D01*
X349423D01*
Y263185D01*
X349554D01*
Y263577D01*
X349685D01*
Y263969D01*
X349815D01*
Y264492D01*
X349946D01*
Y265015D01*
X350077D01*
Y265539D01*
X350208D01*
Y266192D01*
X350339D01*
Y266846D01*
X350469D01*
Y267369D01*
X350339D01*
Y267631D01*
X350208D01*
Y268023D01*
X350077D01*
Y268285D01*
X349946D01*
Y268415D01*
X349815D01*
Y268546D01*
X349685D01*
Y268677D01*
X349554D01*
Y268939D01*
X349423D01*
Y269200D01*
X349292D01*
Y269331D01*
X349162D01*
Y269723D01*
X349031D01*
Y270115D01*
X348900D01*
Y271031D01*
X348769D01*
Y271292D01*
X348900D01*
Y272208D01*
X349031D01*
Y272600D01*
X349162D01*
Y272861D01*
X349292D01*
Y273123D01*
X349423D01*
Y273385D01*
X349554D01*
Y273515D01*
X349685D01*
Y273646D01*
X349815D01*
Y273908D01*
X349946D01*
Y274039D01*
X350077D01*
Y274169D01*
X350208D01*
Y274300D01*
X350339D01*
Y274431D01*
X350600D01*
Y274562D01*
X350731D01*
Y274692D01*
X350862D01*
Y274823D01*
X350992D01*
Y275085D01*
X350862D01*
Y275346D01*
X350731D01*
Y275608D01*
X350600D01*
Y275869D01*
X350469D01*
Y276131D01*
X350339D01*
Y276392D01*
X350208D01*
Y276654D01*
X350077D01*
Y276915D01*
X349946D01*
Y277308D01*
X349815D01*
Y277569D01*
X349685D01*
Y277831D01*
X349554D01*
Y278092D01*
X349423D01*
Y278354D01*
X349292D01*
Y278615D01*
X349162D01*
Y279008D01*
X349031D01*
Y279269D01*
X348900D01*
Y279531D01*
X348769D01*
Y279923D01*
X348638D01*
Y280185D01*
X348508D01*
Y280577D01*
X348377D01*
Y280839D01*
X348246D01*
Y281231D01*
X348115D01*
Y281492D01*
X347985D01*
Y281885D01*
X347854D01*
Y282146D01*
X347723D01*
Y282539D01*
X347592D01*
Y282931D01*
X347462D01*
Y283323D01*
X347331D01*
Y283715D01*
X347200D01*
Y284108D01*
X347069D01*
Y284500D01*
X346939D01*
Y284892D01*
X346808D01*
Y285285D01*
X346677D01*
Y285808D01*
X346546D01*
Y286200D01*
X346415D01*
Y286723D01*
X346285D01*
Y287246D01*
X346154D01*
Y287769D01*
X346023D01*
Y288423D01*
X345892D01*
Y289077D01*
X345761D01*
Y289862D01*
X345631D01*
Y290646D01*
X345500D01*
Y291954D01*
X345369D01*
Y295223D01*
X345500D01*
Y296400D01*
X345631D01*
Y297054D01*
X345761D01*
Y297577D01*
X345892D01*
Y298100D01*
X346023D01*
Y298492D01*
X346154D01*
Y298885D01*
X346285D01*
Y299277D01*
X346415D01*
Y299538D01*
X346546D01*
Y299800D01*
X346677D01*
Y300062D01*
X346808D01*
Y300323D01*
X346939D01*
Y300585D01*
X347069D01*
Y300715D01*
X347200D01*
Y300977D01*
X347331D01*
Y301108D01*
X347462D01*
Y301369D01*
X347592D01*
Y301500D01*
X347723D01*
Y301631D01*
X347854D01*
Y301892D01*
X347985D01*
Y302023D01*
X348115D01*
Y302154D01*
X348246D01*
Y302285D01*
X348377D01*
Y302415D01*
X348508D01*
Y302546D01*
X348638D01*
Y302677D01*
X348769D01*
Y302808D01*
X348900D01*
Y302938D01*
X349031D01*
Y303069D01*
X349162D01*
Y303200D01*
X349292D01*
Y303331D01*
X349423D01*
Y303461D01*
X349685D01*
Y303592D01*
X349815D01*
Y303723D01*
X350077D01*
Y303854D01*
X350208D01*
Y303985D01*
X350469D01*
Y304115D01*
X350600D01*
Y304246D01*
X350862D01*
Y304377D01*
X351123D01*
Y304508D01*
X351385D01*
Y304639D01*
X351646D01*
Y304769D01*
X351908D01*
Y304900D01*
X352169D01*
Y305031D01*
X352562D01*
Y305161D01*
X352823D01*
Y305292D01*
X353215D01*
Y305423D01*
X353608D01*
Y305554D01*
X354131D01*
Y305685D01*
X354523D01*
Y305815D01*
X355046D01*
Y305946D01*
X355700D01*
Y306077D01*
X356485D01*
Y306208D01*
X357269D01*
Y306339D01*
X358577D01*
Y306469D01*
X363546D01*
Y306339D01*
D02*
G37*
%LPC*%
G36*
X362892Y301369D02*
X362762D01*
Y300977D01*
X362631D01*
Y300454D01*
X362500D01*
Y299931D01*
X362369D01*
Y299277D01*
X362239D01*
Y299146D01*
X361977D01*
Y299277D01*
X360015D01*
Y299800D01*
X359885D01*
Y300585D01*
X359754D01*
Y301369D01*
X359231D01*
Y301238D01*
X358446D01*
Y301108D01*
X358185D01*
Y300585D01*
X358315D01*
Y299800D01*
X358446D01*
Y299015D01*
X358315D01*
Y298885D01*
X357923D01*
Y298754D01*
X357531D01*
Y298623D01*
X357138D01*
Y298492D01*
X356877D01*
Y298361D01*
X356615D01*
Y298231D01*
X356485D01*
Y298361D01*
X356354D01*
Y298492D01*
X356223D01*
Y298754D01*
X356092D01*
Y299015D01*
X355961D01*
Y299146D01*
X355831D01*
Y299408D01*
X355700D01*
Y299538D01*
X355569D01*
Y299800D01*
X355438D01*
Y299931D01*
X355308D01*
Y300062D01*
X355177D01*
Y299931D01*
X354915D01*
Y299800D01*
X354654D01*
Y299669D01*
X354523D01*
Y299538D01*
X354262D01*
Y299408D01*
X354131D01*
Y299277D01*
X354000D01*
Y299146D01*
X354131D01*
Y298885D01*
X354262D01*
Y298754D01*
X354392D01*
Y298492D01*
X354523D01*
Y298361D01*
X354654D01*
Y298100D01*
X354785D01*
Y297838D01*
X354915D01*
Y297708D01*
X355046D01*
Y297446D01*
X355177D01*
Y297315D01*
X355046D01*
Y297185D01*
X354915D01*
Y297054D01*
X354654D01*
Y296923D01*
X354523D01*
Y296792D01*
X354392D01*
Y296661D01*
X354262D01*
Y296531D01*
X354131D01*
Y296400D01*
X354000D01*
Y296269D01*
X353869D01*
Y296138D01*
X353739D01*
Y296269D01*
X353608D01*
Y296400D01*
X353346D01*
Y296531D01*
X353215D01*
Y296661D01*
X352954D01*
Y296792D01*
X352823D01*
Y296923D01*
X352562D01*
Y297054D01*
X352431D01*
Y297185D01*
X352300D01*
Y297315D01*
X352038D01*
Y297446D01*
X351908D01*
Y297315D01*
X351777D01*
Y297054D01*
X351646D01*
Y296923D01*
X351515D01*
Y296661D01*
X351385D01*
Y296531D01*
X351254D01*
Y296400D01*
X351123D01*
Y296138D01*
X351254D01*
Y296008D01*
X351385D01*
Y295877D01*
X351515D01*
Y295746D01*
X351777D01*
Y295615D01*
X351908D01*
Y295485D01*
X352169D01*
Y295354D01*
X352300D01*
Y295223D01*
X352562D01*
Y295092D01*
X352692D01*
Y294961D01*
X352823D01*
Y294831D01*
X352954D01*
Y294700D01*
X352823D01*
Y294438D01*
X352692D01*
Y294308D01*
X352562D01*
Y293915D01*
X352431D01*
Y293654D01*
X352300D01*
Y293262D01*
X352169D01*
Y293131D01*
X351646D01*
Y293262D01*
X351123D01*
Y293392D01*
X350600D01*
Y293523D01*
X350077D01*
Y293654D01*
X349946D01*
Y293131D01*
X349815D01*
Y292608D01*
X349685D01*
Y292085D01*
X349946D01*
Y291954D01*
X350469D01*
Y291823D01*
X350992D01*
Y291692D01*
X351515D01*
Y291562D01*
X351777D01*
Y290777D01*
X351646D01*
Y289862D01*
X351777D01*
Y289208D01*
X351254D01*
Y289077D01*
X350469D01*
Y288946D01*
X349685D01*
Y288815D01*
X349554D01*
Y288554D01*
X349685D01*
Y287769D01*
X349815D01*
Y287377D01*
X350469D01*
Y287508D01*
X351254D01*
Y287638D01*
X352038D01*
Y287508D01*
X352169D01*
Y287115D01*
X352300D01*
Y286723D01*
X352431D01*
Y286462D01*
X352562D01*
Y286200D01*
X352692D01*
Y285938D01*
X352823D01*
Y285808D01*
X352692D01*
Y285677D01*
X352562D01*
Y285546D01*
X352300D01*
Y285415D01*
X352038D01*
Y285285D01*
X351908D01*
Y285154D01*
X351646D01*
Y285023D01*
X351515D01*
Y284892D01*
X351254D01*
Y284762D01*
X351123D01*
Y284631D01*
X350992D01*
Y284500D01*
X351123D01*
Y284238D01*
X351254D01*
Y284108D01*
X351385D01*
Y283846D01*
X351515D01*
Y283715D01*
X351646D01*
Y283454D01*
X351777D01*
Y283323D01*
X351908D01*
Y283454D01*
X352169D01*
Y283585D01*
X352300D01*
Y283715D01*
X352562D01*
Y283846D01*
X352823D01*
Y283977D01*
X352954D01*
Y284108D01*
X353215D01*
Y284238D01*
X353346D01*
Y284369D01*
X353608D01*
Y284500D01*
X353739D01*
Y284369D01*
X353869D01*
Y284238D01*
X354000D01*
Y284108D01*
X354131D01*
Y283977D01*
X354262D01*
Y283846D01*
X354392D01*
Y283715D01*
X354523D01*
Y283585D01*
X354654D01*
Y283454D01*
X354785D01*
Y283323D01*
X354915D01*
Y283062D01*
X354785D01*
Y282800D01*
X354654D01*
Y282669D01*
X354523D01*
Y282408D01*
X354392D01*
Y282277D01*
X354262D01*
Y282146D01*
X354131D01*
Y281885D01*
X354000D01*
Y281754D01*
X353869D01*
Y281362D01*
X354000D01*
Y281231D01*
X354131D01*
Y281100D01*
X354392D01*
Y280969D01*
X354523D01*
Y280839D01*
X354785D01*
Y280708D01*
X354915D01*
Y280577D01*
X355046D01*
Y280708D01*
X355177D01*
Y280839D01*
X355308D01*
Y280969D01*
X355438D01*
Y281231D01*
X355569D01*
Y281362D01*
X355700D01*
Y281623D01*
X355831D01*
Y281754D01*
X355961D01*
Y282015D01*
X356092D01*
Y282146D01*
X356223D01*
Y282277D01*
X356485D01*
Y282146D01*
X356746D01*
Y282015D01*
X357008D01*
Y281885D01*
X357400D01*
Y281754D01*
X357662D01*
Y281623D01*
X358054D01*
Y281231D01*
X357923D01*
Y280708D01*
X357792D01*
Y280185D01*
X357662D01*
Y279662D01*
X357531D01*
Y279400D01*
X357923D01*
Y279269D01*
X358446D01*
Y279139D01*
X358969D01*
Y279008D01*
X359100D01*
Y279531D01*
X359231D01*
Y280054D01*
X359362D01*
Y280577D01*
X359492D01*
Y281100D01*
X359623D01*
Y281231D01*
X360277D01*
Y281100D01*
X361062D01*
Y281231D01*
X361454D01*
Y281100D01*
X361585D01*
Y280446D01*
X361715D01*
Y279662D01*
X361846D01*
Y278877D01*
X362239D01*
Y279008D01*
X363023D01*
Y279139D01*
X363415D01*
Y279662D01*
X363285D01*
Y280446D01*
X363154D01*
Y281231D01*
X363023D01*
Y281362D01*
X363154D01*
Y281492D01*
X363415D01*
Y281623D01*
X363808D01*
Y281754D01*
X364200D01*
Y281885D01*
X364462D01*
Y282015D01*
X364723D01*
Y282146D01*
X365115D01*
Y282015D01*
X365246D01*
Y281754D01*
X365377D01*
Y281623D01*
X365508D01*
Y281362D01*
X365639D01*
Y281231D01*
X365769D01*
Y280969D01*
X365900D01*
Y280839D01*
X366031D01*
Y280577D01*
X366161D01*
Y280315D01*
X366292D01*
Y280446D01*
X366554D01*
Y280577D01*
X366685D01*
Y280708D01*
X366946D01*
Y280839D01*
X367077D01*
Y280969D01*
X367338D01*
Y281100D01*
X367469D01*
Y281492D01*
X367338D01*
Y281623D01*
X367208D01*
Y281885D01*
X367077D01*
Y282015D01*
X366946D01*
Y282277D01*
X366815D01*
Y282408D01*
X366685D01*
Y282669D01*
X366554D01*
Y282800D01*
X366423D01*
Y283192D01*
X366554D01*
Y283323D01*
X366685D01*
Y283454D01*
X366815D01*
Y283585D01*
X367077D01*
Y283715D01*
X367208D01*
Y283846D01*
X367338D01*
Y284108D01*
X367469D01*
Y284238D01*
X367600D01*
Y284369D01*
X367992D01*
Y284238D01*
X368123D01*
Y284108D01*
X368385D01*
Y283977D01*
X368515D01*
Y283846D01*
X368777D01*
Y283715D01*
X368908D01*
Y283585D01*
X369169D01*
Y283454D01*
X369300D01*
Y283323D01*
X369431D01*
Y283192D01*
X369562D01*
Y283323D01*
X369692D01*
Y283585D01*
X369823D01*
Y283715D01*
X369954D01*
Y283846D01*
X370085D01*
Y284108D01*
X370215D01*
Y284238D01*
X370346D01*
Y284631D01*
X370215D01*
Y284762D01*
X369954D01*
Y284892D01*
X369823D01*
Y285023D01*
X369562D01*
Y285154D01*
X369431D01*
Y285285D01*
X369169D01*
Y285415D01*
X369039D01*
Y285546D01*
X368908D01*
Y285677D01*
X368646D01*
Y285808D01*
X368777D01*
Y286069D01*
X368908D01*
Y286331D01*
X369039D01*
Y286592D01*
X369169D01*
Y286985D01*
X369300D01*
Y287246D01*
X369431D01*
Y287377D01*
X369562D01*
Y287246D01*
X370215D01*
Y287115D01*
X370738D01*
Y286985D01*
X371262D01*
Y286854D01*
X371523D01*
Y286985D01*
X371654D01*
Y287508D01*
X371785D01*
Y288162D01*
X371915D01*
Y288423D01*
X371392D01*
Y288554D01*
X370869D01*
Y288685D01*
X370346D01*
Y288815D01*
X369823D01*
Y290646D01*
X369954D01*
Y290777D01*
X370608D01*
Y290908D01*
X371392D01*
Y291038D01*
X372046D01*
Y291562D01*
X371915D01*
Y292346D01*
X371785D01*
Y292608D01*
X371392D01*
Y292477D01*
X370608D01*
Y292346D01*
X369823D01*
Y292215D01*
X369692D01*
Y292346D01*
X369562D01*
Y292608D01*
X369431D01*
Y293131D01*
X369300D01*
Y293523D01*
X369169D01*
Y293785D01*
X369039D01*
Y294046D01*
X368908D01*
Y294438D01*
X369039D01*
Y294569D01*
X369300D01*
Y294700D01*
X369431D01*
Y294831D01*
X369692D01*
Y294961D01*
X369954D01*
Y295092D01*
X370085D01*
Y295223D01*
X370346D01*
Y295354D01*
X370477D01*
Y295485D01*
X370738D01*
Y295615D01*
X370608D01*
Y295877D01*
X370477D01*
Y296138D01*
X370346D01*
Y296269D01*
X370215D01*
Y296531D01*
X370085D01*
Y296661D01*
X369954D01*
Y296923D01*
X369823D01*
Y296792D01*
X369692D01*
Y296661D01*
X369431D01*
Y296531D01*
X369300D01*
Y296400D01*
X369039D01*
Y296269D01*
X368777D01*
Y296138D01*
X368646D01*
Y296008D01*
X368385D01*
Y295877D01*
X368254D01*
Y295746D01*
X367992D01*
Y295877D01*
X367862D01*
Y296008D01*
X367731D01*
Y296138D01*
X367600D01*
Y296269D01*
X367469D01*
Y296400D01*
X367338D01*
Y296531D01*
X367208D01*
Y296661D01*
X367077D01*
Y296792D01*
X366946D01*
Y296923D01*
X366815D01*
Y297054D01*
X366685D01*
Y297185D01*
X366815D01*
Y297446D01*
X366946D01*
Y297577D01*
X367077D01*
Y297838D01*
X367208D01*
Y297969D01*
X367338D01*
Y298231D01*
X367469D01*
Y298361D01*
X367600D01*
Y298492D01*
X367731D01*
Y298754D01*
X367862D01*
Y298885D01*
X367992D01*
Y299015D01*
X367862D01*
Y299146D01*
X367731D01*
Y299277D01*
X367600D01*
Y299408D01*
X367338D01*
Y299538D01*
X367208D01*
Y299669D01*
X366946D01*
Y299800D01*
X366815D01*
Y299931D01*
X366685D01*
Y299800D01*
X366554D01*
Y299538D01*
X366423D01*
Y299408D01*
X366292D01*
Y299277D01*
X366161D01*
Y299015D01*
X366031D01*
Y298885D01*
X365900D01*
Y298623D01*
X365769D01*
Y298492D01*
X365639D01*
Y298361D01*
X365508D01*
Y298100D01*
X365115D01*
Y298231D01*
X364985D01*
Y298361D01*
X364723D01*
Y298492D01*
X364331D01*
Y298623D01*
X364069D01*
Y298754D01*
X363808D01*
Y299146D01*
X363938D01*
Y299800D01*
X364069D01*
Y300323D01*
X364200D01*
Y300846D01*
X364331D01*
Y300977D01*
X364069D01*
Y301108D01*
X363415D01*
Y301238D01*
X362892D01*
Y301369D01*
D02*
G37*
G36*
X362369Y277831D02*
X362239D01*
Y277439D01*
X362108D01*
Y276915D01*
X361977D01*
Y276785D01*
X361062D01*
Y276915D01*
X360931D01*
Y277439D01*
X360800D01*
Y277831D01*
X360538D01*
Y277700D01*
X360146D01*
Y277177D01*
X360277D01*
Y276654D01*
X359885D01*
Y276523D01*
X359492D01*
Y276392D01*
X359231D01*
Y276523D01*
X359100D01*
Y276785D01*
X358969D01*
Y277046D01*
X358839D01*
Y277177D01*
X358577D01*
Y277046D01*
X358446D01*
Y276915D01*
X358185D01*
Y276785D01*
X358315D01*
Y276523D01*
X358446D01*
Y276262D01*
X358577D01*
Y276131D01*
X358708D01*
Y275869D01*
X358577D01*
Y275739D01*
X358446D01*
Y275608D01*
X358315D01*
Y275477D01*
X358185D01*
Y275346D01*
X358054D01*
Y275477D01*
X357792D01*
Y275608D01*
X357662D01*
Y275739D01*
X357531D01*
Y275869D01*
X357269D01*
Y276000D01*
X357138D01*
Y275739D01*
X357008D01*
Y275608D01*
X356877D01*
Y275346D01*
X357008D01*
Y275215D01*
X357269D01*
Y275085D01*
X357400D01*
Y274954D01*
X357531D01*
Y274823D01*
X357662D01*
Y274562D01*
X357531D01*
Y274300D01*
X357400D01*
Y274039D01*
X356746D01*
Y274169D01*
X356354D01*
Y274039D01*
X356223D01*
Y273515D01*
X356485D01*
Y273385D01*
X357008D01*
Y273254D01*
X357138D01*
Y272208D01*
X356877D01*
Y272077D01*
X356223D01*
Y271946D01*
X356092D01*
Y271815D01*
X356223D01*
Y271292D01*
X356354D01*
Y271423D01*
X357269D01*
Y271292D01*
X357400D01*
Y271031D01*
X357531D01*
Y270769D01*
X357662D01*
Y270639D01*
X357531D01*
Y270508D01*
X357400D01*
Y270377D01*
X357138D01*
Y270246D01*
X357008D01*
Y270115D01*
X356746D01*
Y269985D01*
X356877D01*
Y269854D01*
X357008D01*
Y269592D01*
X357138D01*
Y269461D01*
X357269D01*
Y269592D01*
X357400D01*
Y269723D01*
X357662D01*
Y269854D01*
X357923D01*
Y269985D01*
X358185D01*
Y269854D01*
X358315D01*
Y269723D01*
X358446D01*
Y269592D01*
X358577D01*
Y269200D01*
X358446D01*
Y269069D01*
X358315D01*
Y268808D01*
X358185D01*
Y268677D01*
X358054D01*
Y268546D01*
X358185D01*
Y268415D01*
X358446D01*
Y268285D01*
X358577D01*
Y268154D01*
X358708D01*
Y268415D01*
X358839D01*
Y268546D01*
X358969D01*
Y268808D01*
X359100D01*
Y268939D01*
X359492D01*
Y268808D01*
X359885D01*
Y268677D01*
X360015D01*
Y268154D01*
X359885D01*
Y267631D01*
X360146D01*
Y267500D01*
X360538D01*
Y267892D01*
X360669D01*
Y268415D01*
X360800D01*
Y268546D01*
X360931D01*
Y268415D01*
X361715D01*
Y267892D01*
X361846D01*
Y267369D01*
X361977D01*
Y267500D01*
X362500D01*
Y268154D01*
X362369D01*
Y268546D01*
X362500D01*
Y268677D01*
X362892D01*
Y268808D01*
X363154D01*
Y268939D01*
X363415D01*
Y268677D01*
X363546D01*
Y268415D01*
X363677D01*
Y268285D01*
X363808D01*
Y268154D01*
X364069D01*
Y268285D01*
X364200D01*
Y268415D01*
X364462D01*
Y268546D01*
X364331D01*
Y268677D01*
X364200D01*
Y268939D01*
X364069D01*
Y269200D01*
X363938D01*
Y269461D01*
X364069D01*
Y269592D01*
X364200D01*
Y269723D01*
X364331D01*
Y269854D01*
X364462D01*
Y269985D01*
X364723D01*
Y269854D01*
X364854D01*
Y269723D01*
X364985D01*
Y269592D01*
X365246D01*
Y269461D01*
X365508D01*
Y269723D01*
X365639D01*
Y269854D01*
X365769D01*
Y269985D01*
X365639D01*
Y270115D01*
X365508D01*
Y270246D01*
X365377D01*
Y270377D01*
X365115D01*
Y270508D01*
X364985D01*
Y270769D01*
X365115D01*
Y271031D01*
X365246D01*
Y271292D01*
X365769D01*
Y271161D01*
X366292D01*
Y271292D01*
X366423D01*
Y271815D01*
X366031D01*
Y271946D01*
X365508D01*
Y272861D01*
X365639D01*
Y272992D01*
X366423D01*
Y273123D01*
X366554D01*
Y273385D01*
X366423D01*
Y273777D01*
X366292D01*
Y273646D01*
X365377D01*
Y273908D01*
X365246D01*
Y274300D01*
X365115D01*
Y274692D01*
X365377D01*
Y274823D01*
X365508D01*
Y274954D01*
X365769D01*
Y275085D01*
X365900D01*
Y275215D01*
X365769D01*
Y275477D01*
X365639D01*
Y275608D01*
X365246D01*
Y275477D01*
X365115D01*
Y275346D01*
X364854D01*
Y275215D01*
X364592D01*
Y275346D01*
X364462D01*
Y275477D01*
X364331D01*
Y275608D01*
X364200D01*
Y275739D01*
X364069D01*
Y276000D01*
X364200D01*
Y276262D01*
X364331D01*
Y276392D01*
X364462D01*
Y276523D01*
X364592D01*
Y276785D01*
X364462D01*
Y276915D01*
X364331D01*
Y277046D01*
X363938D01*
Y276785D01*
X363808D01*
Y276654D01*
X363677D01*
Y276523D01*
X363546D01*
Y276262D01*
X363285D01*
Y276392D01*
X363023D01*
Y276523D01*
X362762D01*
Y277177D01*
X362892D01*
Y277700D01*
X362369D01*
Y277831D01*
D02*
G37*
G36*
X371915Y272600D02*
X371785D01*
Y272469D01*
X371654D01*
Y272339D01*
X371523D01*
Y272208D01*
X371392D01*
Y272077D01*
X371262D01*
Y271946D01*
X371131D01*
Y271815D01*
X371000D01*
Y271685D01*
X370869D01*
Y271423D01*
X370738D01*
Y271292D01*
X370608D01*
Y271161D01*
X370477D01*
Y270900D01*
X370346D01*
Y270769D01*
X370215D01*
Y270508D01*
X370085D01*
Y270115D01*
X369954D01*
Y269592D01*
X369823D01*
Y269331D01*
X369954D01*
Y269069D01*
X370085D01*
Y268939D01*
Y268808D01*
X370346D01*
Y268677D01*
X371131D01*
Y268808D01*
X371392D01*
Y268939D01*
X371523D01*
Y269069D01*
X371785D01*
Y269200D01*
X371915D01*
Y269331D01*
X372046D01*
Y269592D01*
X372177D01*
Y269723D01*
X372308D01*
Y269985D01*
X372439D01*
Y270377D01*
X372569D01*
Y271423D01*
X372439D01*
Y271815D01*
X372308D01*
Y272077D01*
X372177D01*
Y272339D01*
X372046D01*
Y272469D01*
X371915D01*
Y272600D01*
D02*
G37*
G36*
X350339D02*
X350208D01*
Y272469D01*
X350077D01*
Y272339D01*
X349946D01*
Y272077D01*
X349815D01*
Y271685D01*
X349685D01*
Y270115D01*
X349815D01*
Y269854D01*
X349946D01*
Y269592D01*
X350077D01*
Y269461D01*
X350208D01*
Y269331D01*
X350339D01*
Y269200D01*
X350469D01*
Y269069D01*
X350600D01*
Y268939D01*
X350862D01*
Y268808D01*
X351254D01*
Y268677D01*
X351777D01*
Y268808D01*
X352038D01*
Y268939D01*
X352169D01*
Y269069D01*
X352300D01*
Y270115D01*
X352169D01*
Y270377D01*
X352038D01*
Y270639D01*
X351908D01*
Y270769D01*
X351777D01*
Y271031D01*
X351646D01*
Y271161D01*
X351515D01*
Y271292D01*
X351385D01*
Y271554D01*
X351254D01*
Y271685D01*
X351123D01*
Y271815D01*
X350992D01*
Y271946D01*
X350862D01*
Y272077D01*
X350731D01*
Y272208D01*
X350600D01*
Y272339D01*
X350469D01*
Y272469D01*
X350339D01*
Y272600D01*
D02*
G37*
G36*
X361585Y257431D02*
X361192D01*
Y257300D01*
X360931D01*
Y257169D01*
X360800D01*
Y257038D01*
X360669D01*
Y256908D01*
X360538D01*
Y256646D01*
X360408D01*
Y256515D01*
X360277D01*
Y256254D01*
X360146D01*
Y256123D01*
X360015D01*
Y255861D01*
X359885D01*
Y255731D01*
X359754D01*
Y255469D01*
X359623D01*
Y255338D01*
X359492D01*
Y255077D01*
X359362D01*
Y254946D01*
X359231D01*
Y254685D01*
X359100D01*
Y254423D01*
X358969D01*
Y254292D01*
X358839D01*
Y254031D01*
X358708D01*
Y253769D01*
X358577D01*
Y253638D01*
X358446D01*
Y253377D01*
X358315D01*
Y253115D01*
X358185D01*
Y252854D01*
X358054D01*
Y252592D01*
X357923D01*
Y252331D01*
X357792D01*
Y252069D01*
X357662D01*
Y251677D01*
X357531D01*
Y251285D01*
X357400D01*
Y250892D01*
X357269D01*
Y249192D01*
X357400D01*
Y248669D01*
X357531D01*
Y248408D01*
X357662D01*
Y248146D01*
X357792D01*
Y247885D01*
X357923D01*
Y247754D01*
X358054D01*
Y247492D01*
X358185D01*
Y247362D01*
X358315D01*
Y247231D01*
X358446D01*
Y247100D01*
X358577D01*
Y246969D01*
X358708D01*
Y246838D01*
X358839D01*
Y246708D01*
X359100D01*
Y246577D01*
X359362D01*
Y246446D01*
X359492D01*
Y246315D01*
X359754D01*
Y246185D01*
X360277D01*
Y246054D01*
X360931D01*
Y245923D01*
X361846D01*
Y246054D01*
X362500D01*
Y246185D01*
X362892D01*
Y246315D01*
X363154D01*
Y246446D01*
X363415D01*
Y246577D01*
X363677D01*
Y246708D01*
X363808D01*
Y246838D01*
X364069D01*
Y246969D01*
X364200D01*
Y247100D01*
X364331D01*
Y247231D01*
X364462D01*
Y247362D01*
X364592D01*
Y247623D01*
X364723D01*
Y247754D01*
X364854D01*
Y248015D01*
X364985D01*
Y248146D01*
X365115D01*
Y248408D01*
X365246D01*
Y248800D01*
X365377D01*
Y249192D01*
X365508D01*
Y250762D01*
X365377D01*
Y251154D01*
X365246D01*
Y251546D01*
X365115D01*
Y251938D01*
X364985D01*
Y252200D01*
X364854D01*
Y252461D01*
X364723D01*
Y252723D01*
X364592D01*
Y252985D01*
X364462D01*
Y253246D01*
X364331D01*
Y253508D01*
X364200D01*
Y253769D01*
X364069D01*
Y254031D01*
X363938D01*
Y254161D01*
X363808D01*
Y254423D01*
X363677D01*
Y254685D01*
X363546D01*
Y254815D01*
X363415D01*
Y255077D01*
X363285D01*
Y255208D01*
X363154D01*
Y255469D01*
X363023D01*
Y255731D01*
X362892D01*
Y255861D01*
X362762D01*
Y256123D01*
X362631D01*
Y256254D01*
X362500D01*
Y256385D01*
X362369D01*
Y256646D01*
X362239D01*
Y256777D01*
X362108D01*
Y257038D01*
X361977D01*
Y257169D01*
X361846D01*
Y257300D01*
X361585D01*
Y257431D01*
D02*
G37*
G36*
X345108Y242915D02*
X344846D01*
Y242523D01*
X344715D01*
Y242131D01*
X344585D01*
Y241738D01*
X344454D01*
Y241346D01*
X344323D01*
Y240954D01*
X344192D01*
Y240562D01*
X344062D01*
Y240169D01*
X343931D01*
Y239646D01*
X343800D01*
Y239254D01*
X343669D01*
Y238731D01*
X343539D01*
Y238208D01*
X343408D01*
Y237685D01*
X343277D01*
Y237162D01*
X343146D01*
Y236639D01*
X343015D01*
Y236115D01*
Y235985D01*
X342885D01*
Y235331D01*
X342754D01*
Y234677D01*
X342623D01*
Y233892D01*
X342492D01*
Y233108D01*
X342361D01*
Y232062D01*
X342231D01*
Y230754D01*
X342100D01*
Y230361D01*
X342231D01*
Y230492D01*
X342492D01*
Y230623D01*
X342623D01*
Y230754D01*
X342754D01*
Y230885D01*
X342885D01*
Y231015D01*
X343146D01*
Y231146D01*
X343277D01*
Y231277D01*
X343408D01*
Y231408D01*
X343539D01*
Y231538D01*
X343669D01*
Y231669D01*
X343800D01*
Y231800D01*
X343931D01*
Y231931D01*
X344062D01*
Y232062D01*
X344192D01*
Y232192D01*
X344323D01*
Y232323D01*
X344454D01*
Y232454D01*
X344585D01*
Y232585D01*
X344715D01*
Y232715D01*
X344846D01*
Y232977D01*
X344977D01*
Y233108D01*
X345108D01*
Y233369D01*
X345238D01*
Y233500D01*
X345369D01*
Y233762D01*
X345500D01*
Y234023D01*
X345631D01*
Y234285D01*
X345761D01*
Y234546D01*
X345892D01*
Y234808D01*
X346023D01*
Y235200D01*
X346154D01*
Y235592D01*
X346285D01*
Y236115D01*
X346415D01*
Y236900D01*
X346546D01*
Y238600D01*
X346415D01*
Y239385D01*
X346285D01*
Y239908D01*
X346154D01*
Y240300D01*
X346023D01*
Y240692D01*
X345892D01*
Y241085D01*
X345761D01*
Y241477D01*
X345631D01*
Y241738D01*
X345500D01*
Y242131D01*
X345369D01*
Y242392D01*
X345238D01*
Y242654D01*
X345108D01*
Y242915D01*
D02*
G37*
G36*
X379239Y243569D02*
X379108D01*
Y243438D01*
X378977D01*
Y243308D01*
X378846D01*
Y243046D01*
X378715D01*
Y242785D01*
X378585D01*
Y242392D01*
X378454D01*
Y242000D01*
X378323D01*
Y241738D01*
X378192D01*
Y241346D01*
X378062D01*
Y240954D01*
X377931D01*
Y240562D01*
X377800D01*
Y240169D01*
X377669D01*
Y239777D01*
X377538D01*
Y239254D01*
X377408D01*
Y238208D01*
X377277D01*
Y237292D01*
X377408D01*
Y236246D01*
X377538D01*
Y235723D01*
X377669D01*
Y235331D01*
X377800D01*
Y234939D01*
X377931D01*
Y234546D01*
X378062D01*
Y234285D01*
X378192D01*
Y234023D01*
X378323D01*
Y233892D01*
X378454D01*
Y233631D01*
X378585D01*
Y233369D01*
X378715D01*
Y233238D01*
X378846D01*
Y232977D01*
X378977D01*
Y232846D01*
X379108D01*
Y232715D01*
X379239D01*
Y232454D01*
X379369D01*
Y232323D01*
X379500D01*
Y232192D01*
X379631D01*
Y232062D01*
X379762D01*
Y231931D01*
X379892D01*
Y231800D01*
X380023D01*
Y231669D01*
X380154D01*
Y231538D01*
X380285D01*
Y231408D01*
X380415D01*
Y231277D01*
X380677D01*
Y231146D01*
X380808D01*
Y231015D01*
X380938D01*
Y230885D01*
X381069D01*
Y230754D01*
X381200D01*
Y230623D01*
X381461D01*
Y230492D01*
X381592D01*
Y230361D01*
X381854D01*
Y230231D01*
X381985D01*
Y230100D01*
X382246D01*
Y229969D01*
X382377D01*
Y229839D01*
X382639D01*
Y229708D01*
X382769D01*
Y230885D01*
X382639D01*
Y232062D01*
X382508D01*
Y232977D01*
X382377D01*
Y233762D01*
X382246D01*
Y234415D01*
X382115D01*
Y235069D01*
X381985D01*
Y235592D01*
X381854D01*
Y236115D01*
X381723D01*
Y236639D01*
X381592D01*
Y237162D01*
X381461D01*
Y237554D01*
X381331D01*
Y238077D01*
X381200D01*
Y238469D01*
X381069D01*
Y238862D01*
X380938D01*
Y239385D01*
X380808D01*
Y239777D01*
X380677D01*
Y240169D01*
X380546D01*
Y240562D01*
X380415D01*
Y240954D01*
X380285D01*
Y241346D01*
X380154D01*
Y241608D01*
X380023D01*
Y242000D01*
X379892D01*
Y242392D01*
X379762D01*
Y242654D01*
X379631D01*
Y243046D01*
X379500D01*
Y243308D01*
X379369D01*
Y243438D01*
X379239D01*
Y243569D01*
D02*
G37*
G36*
X370477Y246838D02*
X370346D01*
Y246708D01*
X370215D01*
Y246577D01*
X370085D01*
Y246446D01*
X369823D01*
Y246315D01*
X369692D01*
Y246185D01*
X369562D01*
Y246054D01*
X369431D01*
Y245923D01*
X369300D01*
Y245792D01*
X369169D01*
Y245662D01*
X369039D01*
Y245531D01*
X368777D01*
Y245400D01*
X368646D01*
Y245269D01*
X368515D01*
Y245138D01*
X368385D01*
Y245008D01*
X368254D01*
Y244877D01*
X368123D01*
Y244746D01*
X367992D01*
Y244615D01*
X367862D01*
Y244485D01*
X367731D01*
Y244354D01*
X367600D01*
Y244223D01*
X367469D01*
Y244092D01*
X367338D01*
Y243962D01*
X367077D01*
Y243831D01*
X366946D01*
Y243700D01*
X366815D01*
Y243569D01*
X366685D01*
Y243438D01*
X366554D01*
Y243308D01*
X366423D01*
Y243177D01*
X366292D01*
Y243046D01*
X366161D01*
Y242915D01*
X366031D01*
Y242654D01*
X365900D01*
Y242523D01*
X365769D01*
Y242392D01*
X365639D01*
Y242262D01*
X365508D01*
Y242131D01*
X365377D01*
Y242000D01*
X365246D01*
Y241869D01*
X365115D01*
Y241738D01*
X364985D01*
Y241477D01*
X365115D01*
Y241346D01*
X365246D01*
Y241085D01*
X365377D01*
Y240954D01*
X365508D01*
Y240692D01*
X365639D01*
Y240562D01*
X365769D01*
Y240300D01*
X365900D01*
Y240169D01*
X366031D01*
Y239908D01*
X366161D01*
Y239646D01*
X366292D01*
Y239515D01*
X366423D01*
Y239254D01*
X366554D01*
Y239123D01*
X366685D01*
Y238862D01*
X366815D01*
Y238731D01*
X366946D01*
Y238469D01*
X367077D01*
Y238339D01*
X367208D01*
Y238077D01*
X367338D01*
Y237946D01*
X367469D01*
Y237685D01*
X367600D01*
Y237554D01*
X367731D01*
Y237292D01*
X367862D01*
Y237162D01*
X367992D01*
Y236900D01*
X368123D01*
Y236769D01*
X368254D01*
Y236508D01*
X368385D01*
Y236246D01*
X368515D01*
Y236115D01*
X368646D01*
Y235854D01*
X368777D01*
Y235723D01*
X368908D01*
Y235462D01*
X369039D01*
Y235200D01*
X369169D01*
Y235069D01*
X369300D01*
Y234808D01*
X369431D01*
Y234677D01*
X369562D01*
Y234415D01*
X369692D01*
Y234285D01*
X369823D01*
Y234023D01*
X369954D01*
Y233762D01*
X370085D01*
Y233631D01*
X370215D01*
Y233369D01*
X370346D01*
Y233108D01*
X370477D01*
Y232977D01*
X370608D01*
Y232715D01*
X370738D01*
Y232454D01*
X370869D01*
Y232192D01*
X371000D01*
Y232062D01*
X371131D01*
Y231800D01*
X371262D01*
Y231538D01*
X371392D01*
Y231408D01*
X371523D01*
Y231146D01*
X371654D01*
Y230885D01*
X371785D01*
Y230754D01*
X371915D01*
Y230492D01*
X372046D01*
Y230231D01*
X372177D01*
Y229969D01*
X372308D01*
Y229708D01*
X372439D01*
Y229446D01*
X372569D01*
Y229315D01*
X372700D01*
Y229054D01*
X372831D01*
Y228792D01*
X372962D01*
Y228531D01*
X373092D01*
Y228269D01*
X373223D01*
Y228008D01*
X373354D01*
Y227746D01*
X373485D01*
Y227485D01*
X373615D01*
Y227092D01*
X373746D01*
Y226831D01*
X373877D01*
Y226569D01*
X374008D01*
Y226308D01*
X374138D01*
Y226046D01*
X374269D01*
Y225654D01*
X374400D01*
Y225392D01*
X374531D01*
Y225131D01*
X374662D01*
Y224739D01*
X374792D01*
Y224477D01*
X374923D01*
Y224085D01*
X375054D01*
Y223692D01*
X375185D01*
Y223300D01*
X375315D01*
Y223039D01*
X375446D01*
Y222515D01*
X375577D01*
Y222385D01*
Y222123D01*
X375708D01*
Y221731D01*
X375839D01*
Y221208D01*
X375969D01*
Y220685D01*
X376100D01*
Y220161D01*
X376231D01*
Y219508D01*
X376362D01*
Y218592D01*
X376492D01*
Y218069D01*
X377015D01*
Y218200D01*
X377669D01*
Y218331D01*
X378062D01*
Y218461D01*
X378454D01*
Y218592D01*
X378715D01*
Y218723D01*
X378977D01*
Y218854D01*
X379108D01*
Y218985D01*
X379369D01*
Y219115D01*
X379500D01*
Y219246D01*
X379762D01*
Y219377D01*
X379892D01*
Y219508D01*
X380023D01*
Y219638D01*
X380154D01*
Y219769D01*
X380285D01*
Y219900D01*
X380415D01*
Y220161D01*
X380546D01*
Y220292D01*
X380677D01*
Y220423D01*
X380808D01*
Y220685D01*
X380938D01*
Y220946D01*
X381069D01*
Y221077D01*
X381200D01*
Y221469D01*
X381331D01*
Y221731D01*
X381461D01*
Y221992D01*
X381592D01*
Y222385D01*
X381723D01*
Y222646D01*
X381854D01*
Y223039D01*
X381985D01*
Y223431D01*
X382115D01*
Y223954D01*
X382246D01*
Y224477D01*
X382377D01*
Y224739D01*
X382246D01*
Y224869D01*
X381723D01*
Y225000D01*
X381331D01*
Y225131D01*
X380938D01*
Y225261D01*
X380677D01*
Y225392D01*
X380285D01*
Y225523D01*
X380023D01*
Y225654D01*
X379762D01*
Y225785D01*
X379500D01*
Y225915D01*
X379239D01*
Y226046D01*
X378977D01*
Y226177D01*
X378715D01*
Y226308D01*
X378454D01*
Y226439D01*
X378323D01*
Y226569D01*
X378062D01*
Y226700D01*
X377800D01*
Y226831D01*
X377669D01*
Y226961D01*
X377408D01*
Y227092D01*
X377277D01*
Y227223D01*
X377146D01*
Y227354D01*
X376885D01*
Y227485D01*
X376754D01*
Y227615D01*
X376623D01*
Y227746D01*
X376362D01*
Y227877D01*
X376231D01*
Y228008D01*
X376100D01*
Y228139D01*
X375969D01*
Y228269D01*
X375839D01*
Y228400D01*
X375708D01*
Y228531D01*
X375577D01*
Y228661D01*
X375446D01*
Y228792D01*
X375315D01*
Y228923D01*
X375185D01*
Y229054D01*
X375054D01*
Y229185D01*
X374923D01*
Y229315D01*
X374792D01*
Y229446D01*
X374662D01*
Y229708D01*
X374531D01*
Y229839D01*
X374400D01*
Y229969D01*
X374269D01*
Y230231D01*
X374138D01*
Y230361D01*
X374008D01*
Y230623D01*
X373877D01*
Y230885D01*
X373746D01*
Y231015D01*
X373615D01*
Y231277D01*
X373485D01*
Y231538D01*
X373354D01*
Y231800D01*
X373223D01*
Y232062D01*
X373092D01*
Y232454D01*
X372962D01*
Y232715D01*
X372831D01*
Y232977D01*
X372700D01*
Y233369D01*
X372569D01*
Y233631D01*
X372439D01*
Y234154D01*
X372308D01*
Y234546D01*
X372177D01*
Y234939D01*
X372046D01*
Y235331D01*
X371915D01*
Y235854D01*
X371785D01*
Y236377D01*
X371654D01*
Y237031D01*
X371523D01*
Y237554D01*
X371392D01*
Y238208D01*
X371262D01*
Y238992D01*
X371131D01*
Y239777D01*
X371000D01*
Y240692D01*
X370869D01*
Y242000D01*
X370738D01*
Y243438D01*
X370608D01*
Y246054D01*
X370477D01*
Y246838D01*
D02*
G37*
G36*
X353608Y246054D02*
X353346D01*
Y245138D01*
X353215D01*
Y242915D01*
X353085D01*
Y241477D01*
X352954D01*
Y240562D01*
X352823D01*
Y239515D01*
X352692D01*
Y238731D01*
X352562D01*
Y238077D01*
X352431D01*
Y237423D01*
X352300D01*
Y236769D01*
X352169D01*
Y236115D01*
X352038D01*
Y235592D01*
X351908D01*
Y235200D01*
X351777D01*
Y234808D01*
X351646D01*
Y234285D01*
X351515D01*
Y234023D01*
X351385D01*
Y233631D01*
X351254D01*
Y233238D01*
X351123D01*
Y232977D01*
X350992D01*
Y232585D01*
X350862D01*
Y232323D01*
X350731D01*
Y232062D01*
X350600D01*
Y231800D01*
X350469D01*
Y231538D01*
X350339D01*
Y231277D01*
X350208D01*
Y231015D01*
X350077D01*
Y230754D01*
X349946D01*
Y230623D01*
X349815D01*
Y230361D01*
X349685D01*
Y230100D01*
X349554D01*
Y229969D01*
X349423D01*
Y229839D01*
X349292D01*
Y229577D01*
X349162D01*
Y229446D01*
X349031D01*
Y229315D01*
X348900D01*
Y229185D01*
X348769D01*
Y229054D01*
X348638D01*
Y228923D01*
X348508D01*
Y228792D01*
X348377D01*
Y228531D01*
X348246D01*
Y228400D01*
X347985D01*
Y228269D01*
X347854D01*
Y228139D01*
X347723D01*
Y228008D01*
X347592D01*
Y227877D01*
X347462D01*
Y227746D01*
X347331D01*
Y227615D01*
X347069D01*
Y227485D01*
X346939D01*
Y227354D01*
X346808D01*
Y227223D01*
X346546D01*
Y227092D01*
X346415D01*
Y226961D01*
X346154D01*
Y226831D01*
X346023D01*
Y226700D01*
X345761D01*
Y226569D01*
X345631D01*
Y226439D01*
X345369D01*
Y226308D01*
X345108D01*
Y226177D01*
X344846D01*
Y226046D01*
X344585D01*
Y225915D01*
X344323D01*
Y225785D01*
X344062D01*
Y225654D01*
X343800D01*
Y225523D01*
X343539D01*
Y225392D01*
X343146D01*
Y225261D01*
X342754D01*
Y225131D01*
X342492D01*
Y224477D01*
X342623D01*
Y223954D01*
X342754D01*
Y223561D01*
X342885D01*
Y223300D01*
X343015D01*
Y222908D01*
X343146D01*
Y222646D01*
X343277D01*
Y222385D01*
X343408D01*
Y222123D01*
X343539D01*
Y221861D01*
X343669D01*
Y221731D01*
Y221600D01*
X343800D01*
Y221469D01*
X343931D01*
Y221208D01*
X344062D01*
Y221077D01*
X344192D01*
Y220815D01*
X344323D01*
Y220685D01*
X344454D01*
Y220554D01*
X344585D01*
Y220423D01*
X344715D01*
Y220292D01*
X344846D01*
Y220161D01*
X344977D01*
Y220031D01*
X345108D01*
Y219900D01*
X345238D01*
Y219769D01*
X345369D01*
Y219638D01*
X345500D01*
Y219508D01*
X345631D01*
Y219377D01*
X345892D01*
Y219246D01*
X346023D01*
Y219115D01*
X346154D01*
Y218985D01*
X346415D01*
Y218854D01*
X346677D01*
Y218723D01*
X346939D01*
Y218592D01*
X347200D01*
Y218461D01*
X347462D01*
Y218331D01*
X347723D01*
Y218200D01*
X348115D01*
Y218069D01*
X348508D01*
Y217938D01*
X349031D01*
Y217808D01*
X349554D01*
Y218069D01*
X349423D01*
Y218985D01*
X349292D01*
Y222385D01*
X349423D01*
Y223431D01*
X349554D01*
Y224215D01*
X349685D01*
Y224869D01*
X349815D01*
Y225523D01*
X349946D01*
Y225915D01*
X350077D01*
Y226439D01*
X350208D01*
Y226961D01*
X350339D01*
Y227354D01*
X350469D01*
Y227746D01*
X350600D01*
Y228139D01*
X350731D01*
Y228531D01*
X350862D01*
Y228923D01*
X350992D01*
Y229315D01*
X351123D01*
Y229577D01*
X351254D01*
Y229969D01*
X351385D01*
Y230231D01*
X351515D01*
Y230623D01*
X351646D01*
Y230885D01*
X351777D01*
Y231146D01*
X351908D01*
Y231538D01*
X352038D01*
Y231800D01*
X352169D01*
Y232062D01*
X352300D01*
Y232323D01*
X352431D01*
Y232715D01*
X352562D01*
Y232977D01*
X352692D01*
Y233238D01*
X352823D01*
Y233500D01*
X352954D01*
Y233762D01*
X353085D01*
Y234023D01*
X353215D01*
Y234285D01*
X353346D01*
Y234546D01*
X353477D01*
Y234677D01*
X353608D01*
Y234939D01*
X353739D01*
Y235200D01*
X353869D01*
Y235462D01*
X354000D01*
Y235723D01*
X354131D01*
Y235985D01*
X354262D01*
Y236246D01*
X354392D01*
Y236508D01*
X354523D01*
Y236769D01*
X354654D01*
Y236900D01*
X354785D01*
Y237162D01*
X354915D01*
Y237423D01*
X355046D01*
Y237554D01*
X355177D01*
Y237815D01*
X355308D01*
Y238077D01*
X355438D01*
Y238208D01*
X355569D01*
Y238469D01*
X355700D01*
Y238731D01*
X355831D01*
Y238862D01*
X355961D01*
Y239123D01*
X356092D01*
Y239385D01*
X356223D01*
Y239515D01*
X356354D01*
Y239777D01*
X356485D01*
Y239908D01*
X356615D01*
Y240169D01*
X356746D01*
Y240431D01*
X356877D01*
Y240562D01*
X357008D01*
Y240823D01*
X357138D01*
Y240954D01*
X357269D01*
Y241215D01*
X357400D01*
Y241346D01*
X357531D01*
Y241608D01*
X357662D01*
Y241869D01*
X357531D01*
Y242131D01*
X357400D01*
Y242262D01*
X357269D01*
Y242392D01*
X357138D01*
Y242523D01*
X357008D01*
Y242654D01*
X356877D01*
Y242785D01*
X356746D01*
Y242915D01*
X356615D01*
Y243046D01*
X356485D01*
Y243177D01*
X356354D01*
Y243308D01*
X356223D01*
Y243438D01*
X356092D01*
Y243569D01*
X355961D01*
Y243700D01*
X355831D01*
Y243831D01*
X355700D01*
Y243962D01*
X355569D01*
Y244092D01*
X355438D01*
Y244223D01*
X355308D01*
Y244354D01*
X355177D01*
Y244485D01*
X355046D01*
Y244615D01*
X354915D01*
Y244746D01*
X354785D01*
Y244877D01*
X354654D01*
Y245008D01*
X354523D01*
Y245138D01*
X354392D01*
Y245269D01*
X354262D01*
Y245400D01*
X354131D01*
Y245531D01*
X354000D01*
Y245662D01*
X353869D01*
Y245792D01*
X353739D01*
Y245923D01*
X353608D01*
Y246054D01*
D02*
G37*
%LPD*%
G36*
X361062Y293392D02*
X361715D01*
Y293262D01*
X362108D01*
Y293131D01*
X362369D01*
Y293000D01*
X362500D01*
Y292869D01*
X362762D01*
Y292738D01*
X362892D01*
Y292608D01*
X363023D01*
Y292477D01*
X363154D01*
Y292346D01*
X363285D01*
Y292215D01*
X363415D01*
Y291954D01*
X363546D01*
Y291692D01*
X363677D01*
Y291431D01*
X363808D01*
Y291169D01*
X363938D01*
Y290254D01*
X364069D01*
Y289992D01*
X363938D01*
Y289338D01*
X363808D01*
Y288946D01*
X363677D01*
Y288685D01*
X363546D01*
Y288423D01*
X363415D01*
Y288292D01*
X363285D01*
Y288162D01*
X363154D01*
Y288031D01*
X363023D01*
Y287900D01*
X362892D01*
Y287769D01*
X362762D01*
Y287638D01*
X362631D01*
Y287508D01*
X362369D01*
Y287377D01*
X362108D01*
Y287246D01*
X361846D01*
Y287115D01*
X361323D01*
Y286985D01*
X360146D01*
Y287115D01*
X359754D01*
Y287246D01*
X359362D01*
Y287377D01*
X359100D01*
Y287508D01*
X358969D01*
Y287638D01*
X358708D01*
Y287769D01*
X358577D01*
Y287900D01*
X358446D01*
Y288031D01*
X358315D01*
Y288162D01*
X358185D01*
Y288423D01*
X358054D01*
Y288554D01*
X357923D01*
Y288815D01*
X357792D01*
Y289077D01*
X357662D01*
Y289600D01*
X357531D01*
Y290908D01*
X357662D01*
Y291300D01*
X357792D01*
Y291692D01*
X357923D01*
Y291823D01*
X358054D01*
Y292085D01*
X358185D01*
Y292215D01*
X358315D01*
Y292346D01*
X358446D01*
Y292608D01*
X358708D01*
Y292738D01*
X358839D01*
Y292869D01*
X358969D01*
Y293000D01*
X359231D01*
Y293131D01*
X359492D01*
Y293262D01*
X359885D01*
Y293392D01*
X360538D01*
Y293523D01*
X361062D01*
Y293392D01*
D02*
G37*
G36*
X361715Y274039D02*
X362108D01*
Y273908D01*
X362239D01*
Y273777D01*
X362369D01*
Y273646D01*
X362500D01*
Y273515D01*
X362631D01*
Y273254D01*
X362762D01*
Y272731D01*
X362892D01*
Y272600D01*
X362762D01*
Y272469D01*
Y272077D01*
X362631D01*
Y271815D01*
X362500D01*
Y271685D01*
X362369D01*
Y271554D01*
X362239D01*
Y271423D01*
X362108D01*
Y271292D01*
X361846D01*
Y271161D01*
X360800D01*
Y271292D01*
X360538D01*
Y271423D01*
X360277D01*
Y271685D01*
X360146D01*
Y271815D01*
X360015D01*
Y271946D01*
X359885D01*
Y272339D01*
X359754D01*
Y272992D01*
X359885D01*
Y273385D01*
X360015D01*
Y273515D01*
X360146D01*
Y273646D01*
X360277D01*
Y273777D01*
X360408D01*
Y273908D01*
X360538D01*
Y274039D01*
X360931D01*
Y274169D01*
X361715D01*
Y274039D01*
D02*
G37*
D12*
X205500Y185329D02*
Y175332D01*
X200502D01*
X198836Y176998D01*
Y183663D01*
X200502Y185329D01*
X205500D01*
X190505Y175332D02*
X193837D01*
X195503Y176998D01*
Y180331D01*
X193837Y181997D01*
X190505D01*
X188839Y180331D01*
Y178664D01*
X195503D01*
X185506Y181997D02*
X182174Y175332D01*
X178842Y181997D01*
X170511Y175332D02*
X173843D01*
X175510Y176998D01*
Y180331D01*
X173843Y181997D01*
X170511D01*
X168845Y180331D01*
Y178664D01*
X175510D01*
X165513Y175332D02*
X162181D01*
X163847D01*
Y185329D01*
X165513D01*
X155516Y175332D02*
X152184D01*
X150518Y176998D01*
Y180331D01*
X152184Y181997D01*
X155516D01*
X157182Y180331D01*
Y176998D01*
X155516Y175332D01*
X147185Y172000D02*
Y181997D01*
X142187D01*
X140521Y180331D01*
Y176998D01*
X142187Y175332D01*
X147185D01*
X132190D02*
X135522D01*
X137189Y176998D01*
Y180331D01*
X135522Y181997D01*
X132190D01*
X130524Y180331D01*
Y178664D01*
X137189D01*
X120527Y185329D02*
Y175332D01*
X125526D01*
X127192Y176998D01*
Y180331D01*
X125526Y181997D01*
X120527D01*
X107198Y185329D02*
Y175332D01*
X102200D01*
X100534Y176998D01*
Y178664D01*
Y180331D01*
X102200Y181997D01*
X107198D01*
X97202D02*
Y176998D01*
X95535Y175332D01*
X90537D01*
Y173666D01*
X92203Y172000D01*
X93869D01*
X90537Y175332D02*
Y181997D01*
X70543Y183663D02*
X72210Y185329D01*
X75542D01*
X77208Y183663D01*
Y176998D01*
X75542Y175332D01*
X72210D01*
X70543Y176998D01*
Y180331D01*
X73876D01*
X67211Y175332D02*
X63879D01*
X65545D01*
Y185329D01*
X67211D01*
X53882Y175332D02*
X57214D01*
X58881Y176998D01*
Y180331D01*
X57214Y181997D01*
X53882D01*
X52216Y180331D01*
Y178664D01*
X58881D01*
X48884Y185329D02*
Y175332D01*
X43885D01*
X42219Y176998D01*
Y178664D01*
Y180331D01*
X43885Y181997D01*
X48884D01*
X28890Y175332D02*
Y185329D01*
X25558Y181997D01*
X22226Y185329D01*
Y175332D01*
X18894D02*
Y176998D01*
X17227D01*
Y175332D01*
X18894D01*
X440500Y330329D02*
Y320332D01*
Y325331D01*
X433835D01*
Y330329D01*
Y320332D01*
X430503Y326997D02*
Y321998D01*
X428837Y320332D01*
X423839D01*
Y318666D01*
X425505Y317000D01*
X427171D01*
X423839Y320332D02*
Y326997D01*
X413842Y330329D02*
Y320332D01*
X418840D01*
X420506Y321998D01*
Y325331D01*
X418840Y326997D01*
X413842D01*
X410510D02*
Y320332D01*
Y323665D01*
X408843Y325331D01*
X407177Y326997D01*
X405511D01*
X398847Y320332D02*
X395514D01*
X393848Y321998D01*
Y325331D01*
X395514Y326997D01*
X398847D01*
X400513Y325331D01*
Y321998D01*
X398847Y320332D01*
X390516D02*
Y326997D01*
X385518D01*
X383852Y325331D01*
Y320332D01*
X378853Y326997D02*
X375521D01*
X373855Y325331D01*
Y320332D01*
X378853D01*
X380519Y321998D01*
X378853Y323665D01*
X373855D01*
X370523Y326997D02*
Y321998D01*
X368856Y320332D01*
X363858D01*
Y326997D01*
X358860Y328663D02*
Y326997D01*
X360526D01*
X357193D01*
X358860D01*
Y321998D01*
X357193Y320332D01*
X352195D02*
X348863D01*
X350529D01*
Y326997D01*
X352195D01*
X337200D02*
X342198D01*
X343865Y325331D01*
Y321998D01*
X342198Y320332D01*
X337200D01*
X333868D02*
X328869D01*
X327203Y321998D01*
X328869Y323665D01*
X332202D01*
X333868Y325331D01*
X332202Y326997D01*
X327203D01*
X155500Y211997D02*
Y205332D01*
X152168Y202000D01*
X148835Y205332D01*
Y211997D01*
X140505Y202000D02*
X143837D01*
X145503Y203666D01*
Y206998D01*
X143837Y208664D01*
X140505D01*
X138839Y206998D01*
Y205332D01*
X145503D01*
X135506Y208664D02*
Y202000D01*
Y205332D01*
X133840Y206998D01*
X132174Y208664D01*
X130508D01*
X125510Y202000D02*
X120511D01*
X118845Y203666D01*
X120511Y205332D01*
X123843D01*
X125510Y206998D01*
X123843Y208664D01*
X118845D01*
X115513Y202000D02*
X112181D01*
X113847D01*
Y208664D01*
X115513D01*
X105516Y202000D02*
X102184D01*
X100518Y203666D01*
Y206998D01*
X102184Y208664D01*
X105516D01*
X107182Y206998D01*
Y203666D01*
X105516Y202000D01*
X97185D02*
Y208664D01*
X92187D01*
X90521Y206998D01*
Y202000D01*
X77192D02*
X73860D01*
X75526D01*
Y211997D01*
X77192Y210331D01*
X68861Y202000D02*
Y203666D01*
X67195D01*
Y202000D01*
X68861D01*
X60531Y210331D02*
X58864Y211997D01*
X55532D01*
X53866Y210331D01*
Y203666D01*
X55532Y202000D01*
X58864D01*
X60531Y203666D01*
Y210331D01*
X160500Y241163D02*
Y234498D01*
X157168Y231166D01*
X153835Y234498D01*
Y241163D01*
X150503Y231166D02*
Y241163D01*
X147171Y237831D01*
X143839Y241163D01*
Y231166D01*
X140506D02*
Y237831D01*
X137174Y241163D01*
X133842Y237831D01*
Y231166D01*
Y236164D01*
X140506D01*
X130510Y229500D02*
X123845D01*
X113848Y239497D02*
X115514Y241163D01*
X118847D01*
X120513Y239497D01*
Y237831D01*
X118847Y236164D01*
X115514D01*
X113848Y234498D01*
Y232832D01*
X115514Y231166D01*
X118847D01*
X120513Y232832D01*
X110516Y231166D02*
Y237831D01*
X107184Y241163D01*
X103852Y237831D01*
Y231166D01*
Y236164D01*
X110516D01*
X100519Y241163D02*
Y232832D01*
X98853Y231166D01*
X95521D01*
X93855Y232832D01*
Y241163D01*
X90523D02*
Y234498D01*
X87190Y231166D01*
X83858Y234498D01*
Y241163D01*
X73861Y239497D02*
X75527Y241163D01*
X78860D01*
X80526Y239497D01*
Y232832D01*
X78860Y231166D01*
X75527D01*
X73861Y232832D01*
X63864Y231166D02*
X70529D01*
X63864Y237831D01*
Y239497D01*
X65531Y241163D01*
X68863D01*
X70529Y239497D01*
X53868Y241163D02*
X57200Y239497D01*
X60532Y236164D01*
Y232832D01*
X58866Y231166D01*
X55534D01*
X53868Y232832D01*
Y234498D01*
X55534Y236164D01*
X60532D01*
X433329Y239998D02*
X426665Y230002D01*
Y239998D02*
X433329Y230002D01*
X423332D02*
Y239998D01*
X418334D01*
X416668Y238332D01*
Y235000D01*
X418334Y233334D01*
X423332D01*
X406671Y230002D02*
X413335D01*
X406671Y236666D01*
Y238332D01*
X408337Y239998D01*
X411669D01*
X413335Y238332D01*
X225663Y264998D02*
Y258334D01*
X222331Y255002D01*
X218998Y258334D01*
Y264998D01*
X215666D02*
X209002D01*
X212334D01*
Y255002D01*
X205669D02*
X202337D01*
X204003D01*
Y264998D01*
X205669Y263332D01*
X115826Y35831D02*
Y29167D01*
X112494Y25835D01*
X109161Y29167D01*
Y35831D01*
X105829D02*
X99164D01*
X102497D01*
Y25835D01*
X89168D02*
X95832D01*
X89168Y32499D01*
Y34165D01*
X90834Y35831D01*
X94166D01*
X95832Y34165D01*
X85836Y24169D02*
X79171D01*
X75839Y34165D02*
X74173Y35831D01*
X70840D01*
X69174Y34165D01*
Y32499D01*
X70840Y30833D01*
X72506D01*
X70840D01*
X69174Y29167D01*
Y27501D01*
X70840Y25835D01*
X74173D01*
X75839Y27501D01*
X145076Y116581D02*
Y109917D01*
X141744Y106585D01*
X138411Y109917D01*
Y116581D01*
X135079D02*
Y106585D01*
X130081D01*
X128414Y108251D01*
Y114915D01*
X130081Y116581D01*
X135079D01*
X118418Y106585D02*
X125082D01*
X118418Y113249D01*
Y114915D01*
X120084Y116581D01*
X123416D01*
X125082Y114915D01*
X115085Y104918D02*
X108421D01*
X105089Y114915D02*
X103423Y116581D01*
X100090D01*
X98424Y114915D01*
Y113249D01*
X100090Y111583D01*
X101756D01*
X100090D01*
X98424Y109917D01*
Y108251D01*
X100090Y106585D01*
X103423D01*
X105089Y108251D01*
X59993Y55835D02*
Y65831D01*
X54994D01*
X53328Y64165D01*
Y60833D01*
X54994Y59167D01*
X59993D01*
X56660D02*
X53328Y55835D01*
X49996D02*
X46664D01*
X48330D01*
Y65831D01*
X49996Y64165D01*
X41665D02*
X39999Y65831D01*
X36667D01*
X35001Y64165D01*
Y62499D01*
X36667Y60833D01*
X38333D01*
X36667D01*
X35001Y59167D01*
Y57501D01*
X36667Y55835D01*
X39999D01*
X41665Y57501D01*
X31669Y54169D02*
X25004D01*
X21672Y64165D02*
X20006Y65831D01*
X16673D01*
X15007Y64165D01*
Y62499D01*
X16673Y60833D01*
X18340D01*
X16673D01*
X15007Y59167D01*
Y57501D01*
X16673Y55835D01*
X20006D01*
X21672Y57501D01*
X87493Y105835D02*
Y115831D01*
X82494D01*
X80828Y114165D01*
Y110833D01*
X82494Y109167D01*
X87493D01*
X84160D02*
X80828Y105835D01*
X77496D02*
X74164D01*
X75830D01*
Y115831D01*
X77496Y114165D01*
X62501Y105835D02*
X69165D01*
X62501Y112499D01*
Y114165D01*
X64167Y115831D01*
X67499D01*
X69165Y114165D01*
X59169Y104169D02*
X52504D01*
X49172Y114165D02*
X47506Y115831D01*
X44173D01*
X42507Y114165D01*
Y112499D01*
X44173Y110833D01*
X45840D01*
X44173D01*
X42507Y109167D01*
Y107501D01*
X44173Y105835D01*
X47506D01*
X49172Y107501D01*
X59160Y80835D02*
Y90831D01*
X54161D01*
X52495Y89165D01*
Y85833D01*
X54161Y84167D01*
X59160D01*
X55827D02*
X52495Y80835D01*
X49163D02*
X45831D01*
X47497D01*
Y90831D01*
X49163Y89165D01*
X40832Y80835D02*
X37500D01*
X39166D01*
Y90831D01*
X40832Y89165D01*
X32502Y79169D02*
X25837D01*
X22505Y89165D02*
X20839Y90831D01*
X17506D01*
X15840Y89165D01*
Y87499D01*
X17506Y85833D01*
X19173D01*
X17506D01*
X15840Y84167D01*
Y82501D01*
X17506Y80835D01*
X20839D01*
X22505Y82501D01*
X412496Y65002D02*
Y74998D01*
X407498D01*
X405831Y73332D01*
Y70000D01*
X407498Y68334D01*
X412496D01*
X409164D02*
X405831Y65002D01*
X402499D02*
X399167D01*
X400833D01*
Y74998D01*
X402499Y73332D01*
X394169D02*
X392502Y74998D01*
X389170D01*
X387504Y73332D01*
Y66668D01*
X389170Y65002D01*
X392502D01*
X394169Y66668D01*
Y73332D01*
X378331Y65002D02*
Y74998D01*
X373332D01*
X371666Y73332D01*
Y70000D01*
X373332Y68334D01*
X378331D01*
X374998D02*
X371666Y65002D01*
X368334Y66668D02*
X366668Y65002D01*
X363335D01*
X361669Y66668D01*
Y73332D01*
X363335Y74998D01*
X366668D01*
X368334Y73332D01*
Y71666D01*
X366668Y70000D01*
X361669D01*
X378331Y80002D02*
Y89998D01*
X373332D01*
X371666Y88332D01*
Y85000D01*
X373332Y83334D01*
X378331D01*
X374998D02*
X371666Y80002D01*
X368334Y88332D02*
X366668Y89998D01*
X363335D01*
X361669Y88332D01*
Y86666D01*
X363335Y85000D01*
X361669Y83334D01*
Y81668D01*
X363335Y80002D01*
X366668D01*
X368334Y81668D01*
Y83334D01*
X366668Y85000D01*
X368334Y86666D01*
Y88332D01*
X366668Y85000D02*
X363335D01*
X413331Y80002D02*
Y89998D01*
X408332D01*
X406666Y88332D01*
Y85000D01*
X408332Y83334D01*
X413331D01*
X409998D02*
X406666Y80002D01*
X403334Y89998D02*
X396669D01*
Y88332D01*
X403334Y81668D01*
Y80002D01*
X246825Y304252D02*
Y314248D01*
X241827D01*
X240161Y312582D01*
Y309250D01*
X241827Y307584D01*
X246825D01*
X243493D02*
X240161Y304252D01*
X230164Y314248D02*
X236828D01*
Y309250D01*
X233496Y310916D01*
X231830D01*
X230164Y309250D01*
Y305918D01*
X231830Y304252D01*
X235162D01*
X236828Y305918D01*
X141331Y294998D02*
Y285002D01*
X136332D01*
X134666Y286668D01*
Y293332D01*
X136332Y294998D01*
X141331D01*
X124669Y285002D02*
X131334D01*
X124669Y291666D01*
Y293332D01*
X126335Y294998D01*
X129668D01*
X131334Y293332D01*
X101666Y148332D02*
X103332Y149998D01*
X106664D01*
X108331Y148332D01*
Y141668D01*
X106664Y140002D01*
X103332D01*
X101666Y141668D01*
X98334Y148332D02*
X96668Y149998D01*
X93336D01*
X91669Y148332D01*
Y146666D01*
X93336Y145000D01*
X95002D01*
X93336D01*
X91669Y143334D01*
Y141668D01*
X93336Y140002D01*
X96668D01*
X98334Y141668D01*
X100000Y133332D02*
X101666Y134998D01*
X104998D01*
X106664Y133332D01*
Y126668D01*
X104998Y125002D01*
X101666D01*
X100000Y126668D01*
X96668Y125002D02*
X93336D01*
X95002D01*
Y134998D01*
X96668Y133332D01*
D13*
X326165Y97250D02*
G03*
X326165Y97250I-500J0D01*
G01*
X257250Y329750D02*
G03*
X257250Y329750I-500J0D01*
G01*
Y275750D02*
G03*
X257250Y275750I-500J0D01*
G01*
X257890Y224225D02*
G03*
X257890Y224225I-500J0D01*
G01*
X257500Y172000D02*
G03*
X257500Y172000I-500J0D01*
G01*
X218168Y99330D02*
G03*
X218168Y99330I-500J0D01*
G01*
X164659Y99750D02*
G03*
X164659Y99750I-500J0D01*
G01*
X111000Y101000D02*
G03*
X111000Y101000I-500J0D01*
G01*
X322000Y99500D02*
G03*
X322000Y99500I-500J0D01*
G01*
X270450Y99750D02*
G03*
X270450Y99750I-500J0D01*
G01*
D14*
X160654Y274510D02*
Y304990D01*
X163702D01*
X172846D01*
Y274510D02*
Y304990D01*
X163702Y274510D02*
X172846D01*
X160654D02*
X163702D01*
Y304990D01*
D15*
X357500Y60000D02*
X417500D01*
X357500D02*
Y95000D01*
X417500D01*
Y60000D02*
Y95000D01*
X291000Y316000D02*
Y320000D01*
X303780Y302966D02*
Y310250D01*
Y325750D02*
Y333031D01*
X293500Y302966D02*
X303780D01*
X293000Y333031D02*
X303780D01*
X325915Y103000D02*
Y110000D01*
X335981Y102942D02*
Y109942D01*
X262500Y329500D02*
X269500D01*
X262442Y319434D02*
X269442D01*
X262500Y275500D02*
X269500D01*
X262442Y265434D02*
X269442D01*
X263140Y223975D02*
X270140D01*
X263082Y213909D02*
X270082D01*
X262750Y171750D02*
X269750D01*
X262692Y161684D02*
X269692D01*
X217418Y86580D02*
Y93580D01*
X207353Y86638D02*
Y93638D01*
X163909Y87000D02*
Y94000D01*
X153843Y87058D02*
Y94058D01*
X110250Y88250D02*
Y95250D01*
X100184Y88308D02*
Y95308D01*
X321250Y86750D02*
Y93750D01*
X311184Y86808D02*
Y93808D01*
X269700Y87000D02*
Y94000D01*
X259634Y87058D02*
Y94058D01*
X415750Y127400D02*
X434250D01*
X415750Y222600D02*
X434250D01*
X80000Y51000D02*
Y61000D01*
X65500Y51000D02*
Y61000D01*
X96750Y66750D02*
X100750D01*
X83716Y53970D02*
X91000D01*
X106500D02*
X113781D01*
X83716D02*
Y64250D01*
X113781Y53970D02*
Y64750D01*
X97500Y85500D02*
Y95500D01*
X83000Y85500D02*
Y95500D01*
X80000Y76750D02*
Y86750D01*
X65500Y76750D02*
Y86750D01*
X122250Y123000D02*
X132250D01*
X122250Y138500D02*
X132250D01*
X127250Y126250D02*
Y135250D01*
X122250Y138500D02*
X132250D01*
X122250Y154000D02*
X132250D01*
X127250Y141750D02*
Y150750D01*
X230500Y282000D02*
Y292000D01*
X245000Y282000D02*
Y292000D01*
X211500Y279750D02*
X215500D01*
X221250Y292530D02*
X228534D01*
X198469D02*
X205750D01*
X228534Y282250D02*
Y292530D01*
X198469Y281750D02*
Y292530D01*
X435250Y75000D02*
X445250D01*
X435250Y89500D02*
X445250D01*
X435250Y60750D02*
X445250D01*
X435250Y75250D02*
X445250D01*
X468250Y88750D02*
X478250D01*
X468250Y74250D02*
X478250D01*
X468250D02*
X478250D01*
X468250Y59750D02*
X478250D01*
X335415Y131500D02*
X339415D01*
X345165Y144280D02*
X352449D01*
X322384D02*
X329665D01*
X352449Y134000D02*
Y144280D01*
X322384Y133500D02*
Y144280D01*
X356165Y137250D02*
Y147250D01*
X370665Y137250D02*
Y147250D01*
X338665Y102750D02*
Y112750D01*
X353165Y102750D02*
Y112750D01*
X356165Y111500D02*
Y121500D01*
X370665Y111500D02*
Y121500D01*
X307750Y65250D02*
X311750D01*
X294716Y52470D02*
X302000D01*
X317500D02*
X324781D01*
X294716D02*
Y62750D01*
X324781Y52470D02*
Y63250D01*
X291000Y49500D02*
Y59500D01*
X276500Y49500D02*
Y59500D01*
X308500Y84000D02*
Y94000D01*
X294000Y84000D02*
Y94000D01*
X291000Y75250D02*
Y85250D01*
X276500Y75250D02*
Y85250D01*
X256200Y65500D02*
X260200D01*
X243166Y52720D02*
X250450D01*
X265950D02*
X273231D01*
X243166D02*
Y63000D01*
X273231Y52720D02*
Y63500D01*
X239450Y49750D02*
Y59750D01*
X224950Y49750D02*
Y59750D01*
X256950Y84250D02*
Y94250D01*
X242450Y84250D02*
Y94250D01*
X239450Y75500D02*
Y85500D01*
X224950Y75500D02*
Y85500D01*
X293000Y279031D02*
X303780D01*
X293500Y248966D02*
X303780D01*
Y271750D02*
Y279031D01*
Y248966D02*
Y256250D01*
X291000Y262000D02*
Y266000D01*
X167440Y52720D02*
Y63500D01*
X137375Y52720D02*
Y63000D01*
X160159Y52720D02*
X167440D01*
X137375D02*
X144659D01*
X150409Y65500D02*
X154409D01*
X220949Y52300D02*
Y63080D01*
X190884Y52300D02*
Y62580D01*
X213668Y52300D02*
X220949D01*
X190884D02*
X198168D01*
X203918Y65080D02*
X207918D01*
X293250Y175281D02*
X304030D01*
X293750Y145216D02*
X304030D01*
Y168000D02*
Y175281D01*
Y145216D02*
Y152500D01*
X291250Y158250D02*
Y162250D01*
X262890Y196725D02*
X272890D01*
X262890Y211225D02*
X272890D01*
X297390Y179225D02*
X307390D01*
X297390Y193725D02*
X307390D01*
X293640Y227506D02*
X304420D01*
X294140Y197441D02*
X304420D01*
Y220225D02*
Y227506D01*
Y197441D02*
Y204725D01*
X291640Y210475D02*
Y214475D01*
X119159Y75500D02*
Y85500D01*
X133659Y75500D02*
Y85500D01*
X136659Y84250D02*
Y94250D01*
X151159Y84250D02*
Y94250D01*
X119159Y49750D02*
Y59750D01*
X133659Y49750D02*
Y59750D01*
X172668Y75080D02*
Y85080D01*
X187168Y75080D02*
Y85080D01*
X190168Y83830D02*
Y93830D01*
X204668Y83830D02*
Y93830D01*
X172668Y49330D02*
Y59330D01*
X187168Y49330D02*
Y59330D01*
X262500Y144500D02*
X272500D01*
X262500Y159000D02*
X272500D01*
X297000Y127000D02*
X307000D01*
X297000Y141500D02*
X307000D01*
X271250Y127000D02*
X281250D01*
X271250Y141500D02*
X281250D01*
X271640Y179225D02*
X281640D01*
X271640Y193725D02*
X281640D01*
X296750Y230750D02*
X306750D01*
X296750Y245250D02*
X306750D01*
X271000Y230750D02*
X281000D01*
X271000Y245250D02*
X281000D01*
X262250Y248250D02*
X272250D01*
X262250Y262750D02*
X272250D01*
X262250Y302250D02*
X272250D01*
X262250Y316750D02*
X272250D01*
X271000Y284750D02*
X281000D01*
X271000Y299250D02*
X281000D01*
X296750Y284750D02*
X306750D01*
X296750Y299250D02*
X306750D01*
D69*
X446600Y213000D02*
G03*
X446600Y213000I-600J0D01*
G01*
M02*
