G04*
G04 #@! TF.GenerationSoftware,Altium Limited,Altium Designer,24.6.1 (21)*
G04*
G04 Layer_Color=128*
%FSLAX44Y44*%
%MOMM*%
G71*
G04*
G04 #@! TF.SameCoordinates,4FE4A77B-1A08-46E0-B02B-12D9CABBE600*
G04*
G04*
G04 #@! TF.FilePolarity,Positive*
G04*
G01*
G75*
%ADD17R,0.9000X1.0500*%
%ADD22R,0.5000X0.7000*%
%ADD23R,0.8000X0.9500*%
%ADD25R,0.9500X0.8000*%
%ADD57R,0.7620X0.7620*%
%ADD58R,0.7000X0.5000*%
%ADD59R,1.2000X0.6000*%
%ADD60R,0.6600X0.3200*%
%ADD61R,0.6600X0.2000*%
%ADD62R,0.7620X0.7620*%
D17*
X135250Y130750D02*
D03*
X119250D02*
D03*
X135250Y146250D02*
D03*
X119250D02*
D03*
D22*
X330915Y112000D02*
D03*
Y101000D02*
D03*
X212418Y84580D02*
D03*
Y95580D02*
D03*
X158909Y85000D02*
D03*
Y96000D02*
D03*
X105250Y86250D02*
D03*
Y97250D02*
D03*
X316250Y84750D02*
D03*
Y95750D02*
D03*
X264700Y85000D02*
D03*
Y96000D02*
D03*
D23*
X446750Y82250D02*
D03*
X433750D02*
D03*
X446750Y68000D02*
D03*
X433750D02*
D03*
X466750Y81500D02*
D03*
X479750D02*
D03*
X466750Y67000D02*
D03*
X479750D02*
D03*
X274390Y203975D02*
D03*
X261390D02*
D03*
X308890Y186475D02*
D03*
X295890D02*
D03*
X274000Y151750D02*
D03*
X261000D02*
D03*
X308500Y134250D02*
D03*
X295500D02*
D03*
X282750D02*
D03*
X269750D02*
D03*
X283140Y186475D02*
D03*
X270140D02*
D03*
X308250Y238000D02*
D03*
X295250D02*
D03*
X282500D02*
D03*
X269500D02*
D03*
X273750Y255500D02*
D03*
X260750D02*
D03*
X273750Y309500D02*
D03*
X260750D02*
D03*
X282500Y292000D02*
D03*
X269500D02*
D03*
X308250D02*
D03*
X295250D02*
D03*
D25*
X72750Y62500D02*
D03*
Y49500D02*
D03*
X90250Y97000D02*
D03*
Y84000D02*
D03*
X72750Y88250D02*
D03*
Y75250D02*
D03*
X237750Y280500D02*
D03*
Y293500D02*
D03*
X363415Y135750D02*
D03*
Y148750D02*
D03*
X345915Y101250D02*
D03*
Y114250D02*
D03*
X363415Y110000D02*
D03*
Y123000D02*
D03*
X283750Y61000D02*
D03*
Y48000D02*
D03*
X301250Y95500D02*
D03*
Y82500D02*
D03*
X283750Y86750D02*
D03*
Y73750D02*
D03*
X232200Y61250D02*
D03*
Y48250D02*
D03*
X249700Y95750D02*
D03*
Y82750D02*
D03*
X232200Y87000D02*
D03*
Y74000D02*
D03*
X126409D02*
D03*
Y87000D02*
D03*
X143909Y82750D02*
D03*
Y95750D02*
D03*
X126409Y48250D02*
D03*
Y61250D02*
D03*
X179918Y73580D02*
D03*
Y86580D02*
D03*
X197418Y82330D02*
D03*
Y95330D02*
D03*
X179918Y47830D02*
D03*
Y60830D02*
D03*
D57*
X286000Y327550D02*
D03*
Y308500D02*
D03*
X308860Y318025D02*
D03*
Y264025D02*
D03*
X286000Y254500D02*
D03*
Y273550D02*
D03*
X309110Y160275D02*
D03*
X286250Y150750D02*
D03*
Y169800D02*
D03*
X309500Y212500D02*
D03*
X286640Y202975D02*
D03*
Y222025D02*
D03*
D58*
X271500Y324500D02*
D03*
X260500D02*
D03*
X271500Y270500D02*
D03*
X260500D02*
D03*
X272140Y218975D02*
D03*
X261140D02*
D03*
X271750Y166750D02*
D03*
X260750D02*
D03*
D59*
X155250Y280250D02*
D03*
Y289750D02*
D03*
Y299250D02*
D03*
X178250D02*
D03*
Y289750D02*
D03*
Y280250D02*
D03*
D60*
X438550Y132250D02*
D03*
X411450D02*
D03*
X438550Y217750D02*
D03*
X411450D02*
D03*
D61*
Y137000D02*
D03*
X438550D02*
D03*
X411450Y141000D02*
D03*
X438550D02*
D03*
X411450Y145000D02*
D03*
X438550D02*
D03*
X411450Y149000D02*
D03*
X438550D02*
D03*
X411450Y153000D02*
D03*
X438550D02*
D03*
X411450Y157000D02*
D03*
X438550D02*
D03*
X411450Y161000D02*
D03*
X438550D02*
D03*
X411450Y165000D02*
D03*
X438550D02*
D03*
X411450Y169000D02*
D03*
X438550D02*
D03*
X411450Y173000D02*
D03*
X438550D02*
D03*
X411450Y177000D02*
D03*
X438550D02*
D03*
X411450Y181000D02*
D03*
X438550D02*
D03*
X411450Y185000D02*
D03*
X438550D02*
D03*
X411450Y189000D02*
D03*
X438550D02*
D03*
X411450Y193000D02*
D03*
X438550D02*
D03*
X411450Y197000D02*
D03*
X438550D02*
D03*
X411450Y201000D02*
D03*
X438550D02*
D03*
X411450Y205000D02*
D03*
X438550D02*
D03*
X411450Y209000D02*
D03*
X438550D02*
D03*
X411450Y213000D02*
D03*
X438550D02*
D03*
D62*
X108300Y71750D02*
D03*
X89250D02*
D03*
X98775Y48890D02*
D03*
X203950Y274750D02*
D03*
X223000D02*
D03*
X213475Y297610D02*
D03*
X327865Y126500D02*
D03*
X346915D02*
D03*
X337390Y149360D02*
D03*
X319300Y70250D02*
D03*
X300250D02*
D03*
X309775Y47390D02*
D03*
X267750Y70500D02*
D03*
X248700D02*
D03*
X258225Y47640D02*
D03*
X152434D02*
D03*
X142909Y70500D02*
D03*
X161959D02*
D03*
X205943Y47220D02*
D03*
X196418Y70080D02*
D03*
X215468D02*
D03*
M02*
